G04*
G04 #@! TF.GenerationSoftware,Altium Limited,Altium Designer,21.3.2 (30)*
G04*
G04 Layer_Color=8421504*
%FSLAX25Y25*%
%MOIN*%
G70*
G04*
G04 #@! TF.SameCoordinates,6E51047B-58C7-44D0-8EEE-2D495A345CE8*
G04*
G04*
G04 #@! TF.FilePolarity,Positive*
G04*
G01*
G75*
%ADD18C,0.01595*%
%ADD19R,0.02362X0.02520*%
%ADD20R,0.03347X0.03740*%
%ADD21R,0.03543X0.03543*%
%ADD22R,0.05906X0.03543*%
%ADD23R,0.02756X0.06004*%
%ADD24R,0.17913X0.09055*%
%ADD25R,0.03740X0.03347*%
%ADD26R,0.02520X0.02362*%
%ADD27R,0.13500X0.09500*%
%ADD28R,0.05906X0.16535*%
%ADD29R,0.02362X0.04921*%
%ADD30R,0.16535X0.05906*%
%ADD31R,0.02441X0.02362*%
%ADD32R,0.05512X0.05118*%
%ADD33R,0.02953X0.00787*%
%ADD34R,0.03937X0.06299*%
%ADD35R,0.01968X0.01575*%
%ADD36R,0.02953X0.02362*%
%ADD37R,0.02362X0.02953*%
%ADD38R,0.05709X0.04724*%
G04:AMPARAMS|DCode=39|XSize=9.45mil|YSize=23.62mil|CornerRadius=1.98mil|HoleSize=0mil|Usage=FLASHONLY|Rotation=90.000|XOffset=0mil|YOffset=0mil|HoleType=Round|Shape=RoundedRectangle|*
%AMROUNDEDRECTD39*
21,1,0.00945,0.01965,0,0,90.0*
21,1,0.00548,0.02362,0,0,90.0*
1,1,0.00397,0.00983,0.00274*
1,1,0.00397,0.00983,-0.00274*
1,1,0.00397,-0.00983,-0.00274*
1,1,0.00397,-0.00983,0.00274*
%
%ADD39ROUNDEDRECTD39*%
G04:AMPARAMS|DCode=40|XSize=23.62mil|YSize=9.45mil|CornerRadius=1.98mil|HoleSize=0mil|Usage=FLASHONLY|Rotation=90.000|XOffset=0mil|YOffset=0mil|HoleType=Round|Shape=RoundedRectangle|*
%AMROUNDEDRECTD40*
21,1,0.02362,0.00548,0,0,90.0*
21,1,0.01965,0.00945,0,0,90.0*
1,1,0.00397,0.00274,0.00983*
1,1,0.00397,0.00274,-0.00983*
1,1,0.00397,-0.00274,-0.00983*
1,1,0.00397,-0.00274,0.00983*
%
%ADD40ROUNDEDRECTD40*%
%ADD41R,0.03543X0.03150*%
%ADD42R,0.03543X0.03937*%
%ADD43R,0.01968X0.02362*%
%ADD44R,0.02756X0.05118*%
%ADD45R,0.06004X0.02559*%
%ADD46R,0.00472X0.00866*%
%ADD47R,0.08071X0.21063*%
%ADD48R,0.05118X0.02756*%
%ADD49R,0.11417X0.21260*%
%ADD50R,0.03150X0.03543*%
%ADD51R,0.03937X0.03543*%
%ADD52R,0.06004X0.02756*%
%ADD53R,0.08661X0.16535*%
%ADD54R,0.02756X0.03543*%
%ADD55R,0.04000X0.12008*%
%ADD56R,0.08268X0.05512*%
%ADD57R,0.03543X0.02756*%
%ADD58R,0.03543X0.01575*%
%ADD59R,0.05118X0.10630*%
%ADD60R,0.05118X0.05512*%
%ADD61R,0.04134X0.03937*%
%ADD62R,0.08661X0.04134*%
%ADD63R,0.10236X0.04173*%
%ADD64R,0.02756X0.03937*%
%ADD65R,0.22441X0.22173*%
%ADD66R,0.04331X0.01575*%
%ADD67R,0.00787X0.03543*%
G04:AMPARAMS|DCode=68|XSize=40.95mil|YSize=17.32mil|CornerRadius=6.06mil|HoleSize=0mil|Usage=FLASHONLY|Rotation=180.000|XOffset=0mil|YOffset=0mil|HoleType=Round|Shape=RoundedRectangle|*
%AMROUNDEDRECTD68*
21,1,0.04095,0.00520,0,0,180.0*
21,1,0.02882,0.01732,0,0,180.0*
1,1,0.01213,-0.01441,0.00260*
1,1,0.01213,0.01441,0.00260*
1,1,0.01213,0.01441,-0.00260*
1,1,0.01213,-0.01441,-0.00260*
%
%ADD68ROUNDEDRECTD68*%
%ADD69R,0.06299X0.12598*%
%ADD70R,0.01378X0.02362*%
%ADD71R,0.12598X0.06299*%
%ADD72R,0.02362X0.01378*%
G36*
X290925Y386668D02*
X290949D01*
X290968Y386664D01*
X290988Y386660D01*
X291008Y386652D01*
X291027Y386644D01*
X291047Y386636D01*
X291063Y386628D01*
X291083Y386620D01*
X291098Y386609D01*
X291118Y386597D01*
X291134Y386585D01*
X291150Y386569D01*
X291165Y386558D01*
X291177Y386542D01*
X291193Y386526D01*
X291205Y386510D01*
X291216Y386491D01*
X291228Y386475D01*
X291236Y386455D01*
X291244Y386439D01*
X291252Y386420D01*
X291260Y386400D01*
X291268Y386380D01*
X291272Y386361D01*
X291276Y386341D01*
Y386317D01*
X291280Y386298D01*
Y383187D01*
X291276Y383168D01*
Y383144D01*
X291272Y383124D01*
X291268Y383105D01*
X291260Y383085D01*
X291252Y383065D01*
X291244Y383046D01*
X291236Y383030D01*
X291228Y383010D01*
X291216Y382995D01*
X291205Y382975D01*
X291193Y382959D01*
X291177Y382943D01*
X291165Y382928D01*
X291150Y382916D01*
X291134Y382900D01*
X291118Y382888D01*
X291098Y382876D01*
X291083Y382865D01*
X291063Y382857D01*
X291047Y382849D01*
X291027Y382841D01*
X291008Y382833D01*
X290988Y382825D01*
X290968Y382821D01*
X290949Y382817D01*
X290925D01*
X290905Y382813D01*
X289173D01*
X289154Y382817D01*
X289130D01*
X289110Y382821D01*
X289090Y382825D01*
X289071Y382833D01*
X289051Y382841D01*
X289031Y382849D01*
X289016Y382857D01*
X288996Y382865D01*
X288980Y382876D01*
X288961Y382888D01*
X288945Y382900D01*
X288929Y382916D01*
X288913Y382928D01*
X288901Y382943D01*
X288886Y382959D01*
X288874Y382975D01*
X288862Y382995D01*
X288850Y383010D01*
X288843Y383030D01*
X288835Y383046D01*
X288827Y383065D01*
X288819Y383085D01*
X288811Y383105D01*
X288807Y383124D01*
X288803Y383144D01*
Y383168D01*
X288799Y383187D01*
Y386298D01*
X288803Y386317D01*
Y386341D01*
X288807Y386361D01*
X288811Y386380D01*
X288819Y386400D01*
X288827Y386420D01*
X288835Y386439D01*
X288843Y386455D01*
X288850Y386475D01*
X288862Y386491D01*
X288874Y386510D01*
X288886Y386526D01*
X288901Y386542D01*
X288913Y386558D01*
X288929Y386569D01*
X288945Y386585D01*
X288961Y386597D01*
X288980Y386609D01*
X288996Y386620D01*
X289016Y386628D01*
X289031Y386636D01*
X289051Y386644D01*
X289071Y386652D01*
X289090Y386660D01*
X289110Y386664D01*
X289130Y386668D01*
X289154D01*
X289173Y386672D01*
X290905D01*
X290925Y386668D01*
D02*
G37*
G36*
X286594D02*
X286618D01*
X286638Y386664D01*
X286657Y386660D01*
X286677Y386652D01*
X286697Y386644D01*
X286717Y386636D01*
X286732Y386628D01*
X286752Y386620D01*
X286768Y386609D01*
X286787Y386597D01*
X286803Y386585D01*
X286819Y386569D01*
X286835Y386558D01*
X286846Y386542D01*
X286862Y386526D01*
X286874Y386510D01*
X286886Y386491D01*
X286898Y386475D01*
X286906Y386455D01*
X286913Y386439D01*
X286921Y386420D01*
X286929Y386400D01*
X286937Y386380D01*
X286941Y386361D01*
X286945Y386341D01*
Y386317D01*
X286949Y386298D01*
Y383187D01*
X286945Y383168D01*
Y383144D01*
X286941Y383124D01*
X286937Y383105D01*
X286929Y383085D01*
X286921Y383065D01*
X286913Y383046D01*
X286906Y383030D01*
X286898Y383010D01*
X286886Y382995D01*
X286874Y382975D01*
X286862Y382959D01*
X286846Y382943D01*
X286835Y382928D01*
X286819Y382916D01*
X286803Y382900D01*
X286787Y382888D01*
X286768Y382876D01*
X286752Y382865D01*
X286732Y382857D01*
X286717Y382849D01*
X286697Y382841D01*
X286677Y382833D01*
X286657Y382825D01*
X286638Y382821D01*
X286618Y382817D01*
X286594D01*
X286575Y382813D01*
X284842D01*
X284823Y382817D01*
X284799D01*
X284780Y382821D01*
X284760Y382825D01*
X284740Y382833D01*
X284720Y382841D01*
X284701Y382849D01*
X284685Y382857D01*
X284665Y382865D01*
X284650Y382876D01*
X284630Y382888D01*
X284614Y382900D01*
X284598Y382916D01*
X284583Y382928D01*
X284571Y382943D01*
X284555Y382959D01*
X284543Y382975D01*
X284531Y382995D01*
X284520Y383010D01*
X284512Y383030D01*
X284504Y383046D01*
X284496Y383065D01*
X284488Y383085D01*
X284480Y383105D01*
X284476Y383124D01*
X284472Y383144D01*
Y383168D01*
X284469Y383187D01*
Y386298D01*
X284472Y386317D01*
Y386341D01*
X284476Y386361D01*
X284480Y386380D01*
X284488Y386400D01*
X284496Y386420D01*
X284504Y386439D01*
X284512Y386455D01*
X284520Y386475D01*
X284531Y386491D01*
X284543Y386510D01*
X284555Y386526D01*
X284571Y386542D01*
X284583Y386558D01*
X284598Y386569D01*
X284614Y386585D01*
X284630Y386597D01*
X284650Y386609D01*
X284665Y386620D01*
X284685Y386628D01*
X284701Y386636D01*
X284720Y386644D01*
X284740Y386652D01*
X284760Y386660D01*
X284780Y386664D01*
X284799Y386668D01*
X284823D01*
X284842Y386672D01*
X286575D01*
X286594Y386668D01*
D02*
G37*
G36*
X282264D02*
X282287D01*
X282307Y386664D01*
X282327Y386660D01*
X282346Y386652D01*
X282366Y386644D01*
X282386Y386636D01*
X282401Y386628D01*
X282421Y386620D01*
X282437Y386609D01*
X282457Y386597D01*
X282472Y386585D01*
X282488Y386569D01*
X282504Y386558D01*
X282516Y386542D01*
X282531Y386526D01*
X282543Y386510D01*
X282555Y386491D01*
X282567Y386475D01*
X282575Y386455D01*
X282583Y386439D01*
X282591Y386420D01*
X282598Y386400D01*
X282606Y386380D01*
X282610Y386361D01*
X282614Y386341D01*
Y386317D01*
X282618Y386298D01*
Y383187D01*
X282614Y383168D01*
Y383144D01*
X282610Y383124D01*
X282606Y383105D01*
X282598Y383085D01*
X282591Y383065D01*
X282583Y383046D01*
X282575Y383030D01*
X282567Y383010D01*
X282555Y382995D01*
X282543Y382975D01*
X282531Y382959D01*
X282516Y382943D01*
X282504Y382928D01*
X282488Y382916D01*
X282472Y382900D01*
X282457Y382888D01*
X282437Y382876D01*
X282421Y382865D01*
X282401Y382857D01*
X282386Y382849D01*
X282366Y382841D01*
X282346Y382833D01*
X282327Y382825D01*
X282307Y382821D01*
X282287Y382817D01*
X282264D01*
X282244Y382813D01*
X280512D01*
X280492Y382817D01*
X280469D01*
X280449Y382821D01*
X280429Y382825D01*
X280409Y382833D01*
X280390Y382841D01*
X280370Y382849D01*
X280354Y382857D01*
X280335Y382865D01*
X280319Y382876D01*
X280299Y382888D01*
X280283Y382900D01*
X280268Y382916D01*
X280252Y382928D01*
X280240Y382943D01*
X280224Y382959D01*
X280213Y382975D01*
X280201Y382995D01*
X280189Y383010D01*
X280181Y383030D01*
X280173Y383046D01*
X280165Y383065D01*
X280157Y383085D01*
X280150Y383105D01*
X280146Y383124D01*
X280142Y383144D01*
Y383168D01*
X280138Y383187D01*
Y386298D01*
X280142Y386317D01*
Y386341D01*
X280146Y386361D01*
X280150Y386380D01*
X280157Y386400D01*
X280165Y386420D01*
X280173Y386439D01*
X280181Y386455D01*
X280189Y386475D01*
X280201Y386491D01*
X280213Y386510D01*
X280224Y386526D01*
X280240Y386542D01*
X280252Y386558D01*
X280268Y386569D01*
X280283Y386585D01*
X280299Y386597D01*
X280319Y386609D01*
X280335Y386620D01*
X280354Y386628D01*
X280370Y386636D01*
X280390Y386644D01*
X280409Y386652D01*
X280429Y386660D01*
X280449Y386664D01*
X280469Y386668D01*
X280492D01*
X280512Y386672D01*
X282244D01*
X282264Y386668D01*
D02*
G37*
G36*
X277933D02*
X277957D01*
X277976Y386664D01*
X277996Y386660D01*
X278016Y386652D01*
X278035Y386644D01*
X278055Y386636D01*
X278071Y386628D01*
X278091Y386620D01*
X278106Y386609D01*
X278126Y386597D01*
X278142Y386585D01*
X278157Y386569D01*
X278173Y386558D01*
X278185Y386542D01*
X278201Y386526D01*
X278213Y386510D01*
X278224Y386491D01*
X278236Y386475D01*
X278244Y386455D01*
X278252Y386439D01*
X278260Y386420D01*
X278268Y386400D01*
X278276Y386380D01*
X278279Y386361D01*
X278283Y386341D01*
Y386317D01*
X278287Y386298D01*
Y383187D01*
X278283Y383168D01*
Y383144D01*
X278279Y383124D01*
X278276Y383105D01*
X278268Y383085D01*
X278260Y383065D01*
X278252Y383046D01*
X278244Y383030D01*
X278236Y383010D01*
X278224Y382995D01*
X278213Y382975D01*
X278201Y382959D01*
X278185Y382943D01*
X278173Y382928D01*
X278157Y382916D01*
X278142Y382900D01*
X278126Y382888D01*
X278106Y382876D01*
X278091Y382865D01*
X278071Y382857D01*
X278055Y382849D01*
X278035Y382841D01*
X278016Y382833D01*
X277996Y382825D01*
X277976Y382821D01*
X277957Y382817D01*
X277933D01*
X277913Y382813D01*
X276181D01*
X276161Y382817D01*
X276138D01*
X276118Y382821D01*
X276098Y382825D01*
X276079Y382833D01*
X276059Y382841D01*
X276039Y382849D01*
X276024Y382857D01*
X276004Y382865D01*
X275988Y382876D01*
X275969Y382888D01*
X275953Y382900D01*
X275937Y382916D01*
X275921Y382928D01*
X275909Y382943D01*
X275894Y382959D01*
X275882Y382975D01*
X275870Y382995D01*
X275858Y383010D01*
X275850Y383030D01*
X275842Y383046D01*
X275835Y383065D01*
X275827Y383085D01*
X275819Y383105D01*
X275815Y383124D01*
X275811Y383144D01*
Y383168D01*
X275807Y383187D01*
Y386298D01*
X275811Y386317D01*
Y386341D01*
X275815Y386361D01*
X275819Y386380D01*
X275827Y386400D01*
X275835Y386420D01*
X275842Y386439D01*
X275850Y386455D01*
X275858Y386475D01*
X275870Y386491D01*
X275882Y386510D01*
X275894Y386526D01*
X275909Y386542D01*
X275921Y386558D01*
X275937Y386569D01*
X275953Y386585D01*
X275969Y386597D01*
X275988Y386609D01*
X276004Y386620D01*
X276024Y386628D01*
X276039Y386636D01*
X276059Y386644D01*
X276079Y386652D01*
X276098Y386660D01*
X276118Y386664D01*
X276138Y386668D01*
X276161D01*
X276181Y386672D01*
X277913D01*
X277933Y386668D01*
D02*
G37*
G36*
X273602D02*
X273626D01*
X273646Y386664D01*
X273665Y386660D01*
X273685Y386652D01*
X273705Y386644D01*
X273724Y386636D01*
X273740Y386628D01*
X273760Y386620D01*
X273776Y386609D01*
X273795Y386597D01*
X273811Y386585D01*
X273827Y386569D01*
X273843Y386558D01*
X273854Y386542D01*
X273870Y386526D01*
X273882Y386510D01*
X273894Y386491D01*
X273905Y386475D01*
X273913Y386455D01*
X273921Y386439D01*
X273929Y386420D01*
X273937Y386400D01*
X273945Y386380D01*
X273949Y386361D01*
X273953Y386341D01*
Y386317D01*
X273957Y386298D01*
Y383187D01*
X273953Y383168D01*
Y383144D01*
X273949Y383124D01*
X273945Y383105D01*
X273937Y383085D01*
X273929Y383065D01*
X273921Y383046D01*
X273913Y383030D01*
X273905Y383010D01*
X273894Y382995D01*
X273882Y382975D01*
X273870Y382959D01*
X273854Y382943D01*
X273843Y382928D01*
X273827Y382916D01*
X273811Y382900D01*
X273795Y382888D01*
X273776Y382876D01*
X273760Y382865D01*
X273740Y382857D01*
X273724Y382849D01*
X273705Y382841D01*
X273685Y382833D01*
X273665Y382825D01*
X273646Y382821D01*
X273626Y382817D01*
X273602D01*
X273583Y382813D01*
X271850D01*
X271831Y382817D01*
X271807D01*
X271787Y382821D01*
X271768Y382825D01*
X271748Y382833D01*
X271728Y382841D01*
X271709Y382849D01*
X271693Y382857D01*
X271673Y382865D01*
X271657Y382876D01*
X271638Y382888D01*
X271622Y382900D01*
X271606Y382916D01*
X271590Y382928D01*
X271579Y382943D01*
X271563Y382959D01*
X271551Y382975D01*
X271539Y382995D01*
X271528Y383010D01*
X271520Y383030D01*
X271512Y383046D01*
X271504Y383065D01*
X271496Y383085D01*
X271488Y383105D01*
X271484Y383124D01*
X271480Y383144D01*
Y383168D01*
X271476Y383187D01*
Y386298D01*
X271480Y386317D01*
Y386341D01*
X271484Y386361D01*
X271488Y386380D01*
X271496Y386400D01*
X271504Y386420D01*
X271512Y386439D01*
X271520Y386455D01*
X271528Y386475D01*
X271539Y386491D01*
X271551Y386510D01*
X271563Y386526D01*
X271579Y386542D01*
X271590Y386558D01*
X271606Y386569D01*
X271622Y386585D01*
X271638Y386597D01*
X271657Y386609D01*
X271673Y386620D01*
X271693Y386628D01*
X271709Y386636D01*
X271728Y386644D01*
X271748Y386652D01*
X271768Y386660D01*
X271787Y386664D01*
X271807Y386668D01*
X271831D01*
X271850Y386672D01*
X273583D01*
X273602Y386668D01*
D02*
G37*
G36*
X269272D02*
X269295D01*
X269315Y386664D01*
X269335Y386660D01*
X269354Y386652D01*
X269374Y386644D01*
X269394Y386636D01*
X269409Y386628D01*
X269429Y386620D01*
X269445Y386609D01*
X269464Y386597D01*
X269480Y386585D01*
X269496Y386569D01*
X269512Y386558D01*
X269524Y386542D01*
X269539Y386526D01*
X269551Y386510D01*
X269563Y386491D01*
X269575Y386475D01*
X269583Y386455D01*
X269590Y386439D01*
X269598Y386420D01*
X269606Y386400D01*
X269614Y386380D01*
X269618Y386361D01*
X269622Y386341D01*
Y386317D01*
X269626Y386298D01*
Y383187D01*
X269622Y383168D01*
Y383144D01*
X269618Y383124D01*
X269614Y383105D01*
X269606Y383085D01*
X269598Y383065D01*
X269590Y383046D01*
X269583Y383030D01*
X269575Y383010D01*
X269563Y382995D01*
X269551Y382975D01*
X269539Y382959D01*
X269524Y382943D01*
X269512Y382928D01*
X269496Y382916D01*
X269480Y382900D01*
X269464Y382888D01*
X269445Y382876D01*
X269429Y382865D01*
X269409Y382857D01*
X269394Y382849D01*
X269374Y382841D01*
X269354Y382833D01*
X269335Y382825D01*
X269315Y382821D01*
X269295Y382817D01*
X269272D01*
X269252Y382813D01*
X267520D01*
X267500Y382817D01*
X267476D01*
X267457Y382821D01*
X267437Y382825D01*
X267417Y382833D01*
X267398Y382841D01*
X267378Y382849D01*
X267362Y382857D01*
X267342Y382865D01*
X267327Y382876D01*
X267307Y382888D01*
X267291Y382900D01*
X267276Y382916D01*
X267260Y382928D01*
X267248Y382943D01*
X267232Y382959D01*
X267220Y382975D01*
X267209Y382995D01*
X267197Y383010D01*
X267189Y383030D01*
X267181Y383046D01*
X267173Y383065D01*
X267165Y383085D01*
X267157Y383105D01*
X267154Y383124D01*
X267150Y383144D01*
Y383168D01*
X267146Y383187D01*
Y386298D01*
X267150Y386317D01*
Y386341D01*
X267154Y386361D01*
X267157Y386380D01*
X267165Y386400D01*
X267173Y386420D01*
X267181Y386439D01*
X267189Y386455D01*
X267197Y386475D01*
X267209Y386491D01*
X267220Y386510D01*
X267232Y386526D01*
X267248Y386542D01*
X267260Y386558D01*
X267276Y386569D01*
X267291Y386585D01*
X267307Y386597D01*
X267327Y386609D01*
X267342Y386620D01*
X267362Y386628D01*
X267378Y386636D01*
X267398Y386644D01*
X267417Y386652D01*
X267437Y386660D01*
X267457Y386664D01*
X267476Y386668D01*
X267500D01*
X267520Y386672D01*
X269252D01*
X269272Y386668D01*
D02*
G37*
G36*
X264941D02*
X264965D01*
X264984Y386664D01*
X265004Y386660D01*
X265024Y386652D01*
X265043Y386644D01*
X265063Y386636D01*
X265079Y386628D01*
X265098Y386620D01*
X265114Y386609D01*
X265134Y386597D01*
X265150Y386585D01*
X265165Y386569D01*
X265181Y386558D01*
X265193Y386542D01*
X265209Y386526D01*
X265220Y386510D01*
X265232Y386491D01*
X265244Y386475D01*
X265252Y386455D01*
X265260Y386439D01*
X265268Y386420D01*
X265276Y386400D01*
X265283Y386380D01*
X265287Y386361D01*
X265291Y386341D01*
Y386317D01*
X265295Y386298D01*
Y383187D01*
X265291Y383168D01*
Y383144D01*
X265287Y383124D01*
X265283Y383105D01*
X265276Y383085D01*
X265268Y383065D01*
X265260Y383046D01*
X265252Y383030D01*
X265244Y383010D01*
X265232Y382995D01*
X265220Y382975D01*
X265209Y382959D01*
X265193Y382943D01*
X265181Y382928D01*
X265165Y382916D01*
X265150Y382900D01*
X265134Y382888D01*
X265114Y382876D01*
X265098Y382865D01*
X265079Y382857D01*
X265063Y382849D01*
X265043Y382841D01*
X265024Y382833D01*
X265004Y382825D01*
X264984Y382821D01*
X264965Y382817D01*
X264941D01*
X264921Y382813D01*
X263189D01*
X263169Y382817D01*
X263146D01*
X263126Y382821D01*
X263106Y382825D01*
X263087Y382833D01*
X263067Y382841D01*
X263047Y382849D01*
X263031Y382857D01*
X263012Y382865D01*
X262996Y382876D01*
X262976Y382888D01*
X262961Y382900D01*
X262945Y382916D01*
X262929Y382928D01*
X262917Y382943D01*
X262901Y382959D01*
X262890Y382975D01*
X262878Y382995D01*
X262866Y383010D01*
X262858Y383030D01*
X262850Y383046D01*
X262842Y383065D01*
X262835Y383085D01*
X262827Y383105D01*
X262823Y383124D01*
X262819Y383144D01*
Y383168D01*
X262815Y383187D01*
Y386298D01*
X262819Y386317D01*
Y386341D01*
X262823Y386361D01*
X262827Y386380D01*
X262835Y386400D01*
X262842Y386420D01*
X262850Y386439D01*
X262858Y386455D01*
X262866Y386475D01*
X262878Y386491D01*
X262890Y386510D01*
X262901Y386526D01*
X262917Y386542D01*
X262929Y386558D01*
X262945Y386569D01*
X262961Y386585D01*
X262976Y386597D01*
X262996Y386609D01*
X263012Y386620D01*
X263031Y386628D01*
X263047Y386636D01*
X263067Y386644D01*
X263087Y386652D01*
X263106Y386660D01*
X263126Y386664D01*
X263146Y386668D01*
X263169D01*
X263189Y386672D01*
X264921D01*
X264941Y386668D01*
D02*
G37*
G36*
X260610D02*
X260634D01*
X260653Y386664D01*
X260673Y386660D01*
X260693Y386652D01*
X260713Y386644D01*
X260732Y386636D01*
X260748Y386628D01*
X260768Y386620D01*
X260783Y386609D01*
X260803Y386597D01*
X260819Y386585D01*
X260835Y386569D01*
X260850Y386558D01*
X260862Y386542D01*
X260878Y386526D01*
X260890Y386510D01*
X260901Y386491D01*
X260913Y386475D01*
X260921Y386455D01*
X260929Y386439D01*
X260937Y386420D01*
X260945Y386400D01*
X260953Y386380D01*
X260957Y386361D01*
X260961Y386341D01*
Y386317D01*
X260964Y386298D01*
Y383187D01*
X260961Y383168D01*
Y383144D01*
X260957Y383124D01*
X260953Y383105D01*
X260945Y383085D01*
X260937Y383065D01*
X260929Y383046D01*
X260921Y383030D01*
X260913Y383010D01*
X260901Y382995D01*
X260890Y382975D01*
X260878Y382959D01*
X260862Y382943D01*
X260850Y382928D01*
X260835Y382916D01*
X260819Y382900D01*
X260803Y382888D01*
X260783Y382876D01*
X260768Y382865D01*
X260748Y382857D01*
X260732Y382849D01*
X260713Y382841D01*
X260693Y382833D01*
X260673Y382825D01*
X260653Y382821D01*
X260634Y382817D01*
X260610D01*
X260591Y382813D01*
X258858D01*
X258839Y382817D01*
X258815D01*
X258795Y382821D01*
X258776Y382825D01*
X258756Y382833D01*
X258736Y382841D01*
X258717Y382849D01*
X258701Y382857D01*
X258681Y382865D01*
X258665Y382876D01*
X258646Y382888D01*
X258630Y382900D01*
X258614Y382916D01*
X258598Y382928D01*
X258587Y382943D01*
X258571Y382959D01*
X258559Y382975D01*
X258547Y382995D01*
X258535Y383010D01*
X258527Y383030D01*
X258520Y383046D01*
X258512Y383065D01*
X258504Y383085D01*
X258496Y383105D01*
X258492Y383124D01*
X258488Y383144D01*
Y383168D01*
X258484Y383187D01*
Y386298D01*
X258488Y386317D01*
Y386341D01*
X258492Y386361D01*
X258496Y386380D01*
X258504Y386400D01*
X258512Y386420D01*
X258520Y386439D01*
X258527Y386455D01*
X258535Y386475D01*
X258547Y386491D01*
X258559Y386510D01*
X258571Y386526D01*
X258587Y386542D01*
X258598Y386558D01*
X258614Y386569D01*
X258630Y386585D01*
X258646Y386597D01*
X258665Y386609D01*
X258681Y386620D01*
X258701Y386628D01*
X258717Y386636D01*
X258736Y386644D01*
X258756Y386652D01*
X258776Y386660D01*
X258795Y386664D01*
X258815Y386668D01*
X258839D01*
X258858Y386672D01*
X260591D01*
X260610Y386668D01*
D02*
G37*
G36*
X256279D02*
X256303D01*
X256323Y386664D01*
X256343Y386660D01*
X256362Y386652D01*
X256382Y386644D01*
X256401Y386636D01*
X256417Y386628D01*
X256437Y386620D01*
X256453Y386609D01*
X256472Y386597D01*
X256488Y386585D01*
X256504Y386569D01*
X256520Y386558D01*
X256531Y386542D01*
X256547Y386526D01*
X256559Y386510D01*
X256571Y386491D01*
X256583Y386475D01*
X256591Y386455D01*
X256598Y386439D01*
X256606Y386420D01*
X256614Y386400D01*
X256622Y386380D01*
X256626Y386361D01*
X256630Y386341D01*
Y386317D01*
X256634Y386298D01*
Y383187D01*
X256630Y383168D01*
Y383144D01*
X256626Y383124D01*
X256622Y383105D01*
X256614Y383085D01*
X256606Y383065D01*
X256598Y383046D01*
X256591Y383030D01*
X256583Y383010D01*
X256571Y382995D01*
X256559Y382975D01*
X256547Y382959D01*
X256531Y382943D01*
X256520Y382928D01*
X256504Y382916D01*
X256488Y382900D01*
X256472Y382888D01*
X256453Y382876D01*
X256437Y382865D01*
X256417Y382857D01*
X256401Y382849D01*
X256382Y382841D01*
X256362Y382833D01*
X256343Y382825D01*
X256323Y382821D01*
X256303Y382817D01*
X256279D01*
X256260Y382813D01*
X254527D01*
X254508Y382817D01*
X254484D01*
X254465Y382821D01*
X254445Y382825D01*
X254425Y382833D01*
X254405Y382841D01*
X254386Y382849D01*
X254370Y382857D01*
X254350Y382865D01*
X254335Y382876D01*
X254315Y382888D01*
X254299Y382900D01*
X254283Y382916D01*
X254268Y382928D01*
X254256Y382943D01*
X254240Y382959D01*
X254228Y382975D01*
X254217Y382995D01*
X254205Y383010D01*
X254197Y383030D01*
X254189Y383046D01*
X254181Y383065D01*
X254173Y383085D01*
X254165Y383105D01*
X254161Y383124D01*
X254157Y383144D01*
Y383168D01*
X254153Y383187D01*
Y386298D01*
X254157Y386317D01*
Y386341D01*
X254161Y386361D01*
X254165Y386380D01*
X254173Y386400D01*
X254181Y386420D01*
X254189Y386439D01*
X254197Y386455D01*
X254205Y386475D01*
X254217Y386491D01*
X254228Y386510D01*
X254240Y386526D01*
X254256Y386542D01*
X254268Y386558D01*
X254283Y386569D01*
X254299Y386585D01*
X254315Y386597D01*
X254335Y386609D01*
X254350Y386620D01*
X254370Y386628D01*
X254386Y386636D01*
X254405Y386644D01*
X254425Y386652D01*
X254445Y386660D01*
X254465Y386664D01*
X254484Y386668D01*
X254508D01*
X254527Y386672D01*
X256260D01*
X256279Y386668D01*
D02*
G37*
G36*
X251949D02*
X251972D01*
X251992Y386664D01*
X252012Y386660D01*
X252031Y386652D01*
X252051Y386644D01*
X252071Y386636D01*
X252087Y386628D01*
X252106Y386620D01*
X252122Y386609D01*
X252142Y386597D01*
X252157Y386585D01*
X252173Y386569D01*
X252189Y386558D01*
X252201Y386542D01*
X252217Y386526D01*
X252228Y386510D01*
X252240Y386491D01*
X252252Y386475D01*
X252260Y386455D01*
X252268Y386439D01*
X252276Y386420D01*
X252283Y386400D01*
X252291Y386380D01*
X252295Y386361D01*
X252299Y386341D01*
Y386317D01*
X252303Y386298D01*
Y383187D01*
X252299Y383168D01*
Y383144D01*
X252295Y383124D01*
X252291Y383105D01*
X252283Y383085D01*
X252276Y383065D01*
X252268Y383046D01*
X252260Y383030D01*
X252252Y383010D01*
X252240Y382995D01*
X252228Y382975D01*
X252217Y382959D01*
X252201Y382943D01*
X252189Y382928D01*
X252173Y382916D01*
X252157Y382900D01*
X252142Y382888D01*
X252122Y382876D01*
X252106Y382865D01*
X252087Y382857D01*
X252071Y382849D01*
X252051Y382841D01*
X252031Y382833D01*
X252012Y382825D01*
X251992Y382821D01*
X251972Y382817D01*
X251949D01*
X251929Y382813D01*
X250197D01*
X250177Y382817D01*
X250153D01*
X250134Y382821D01*
X250114Y382825D01*
X250094Y382833D01*
X250075Y382841D01*
X250055Y382849D01*
X250039Y382857D01*
X250020Y382865D01*
X250004Y382876D01*
X249984Y382888D01*
X249969Y382900D01*
X249953Y382916D01*
X249937Y382928D01*
X249925Y382943D01*
X249909Y382959D01*
X249898Y382975D01*
X249886Y382995D01*
X249874Y383010D01*
X249866Y383030D01*
X249858Y383046D01*
X249850Y383065D01*
X249843Y383085D01*
X249835Y383105D01*
X249831Y383124D01*
X249827Y383144D01*
Y383168D01*
X249823Y383187D01*
Y386298D01*
X249827Y386317D01*
Y386341D01*
X249831Y386361D01*
X249835Y386380D01*
X249843Y386400D01*
X249850Y386420D01*
X249858Y386439D01*
X249866Y386455D01*
X249874Y386475D01*
X249886Y386491D01*
X249898Y386510D01*
X249909Y386526D01*
X249925Y386542D01*
X249937Y386558D01*
X249953Y386569D01*
X249969Y386585D01*
X249984Y386597D01*
X250004Y386609D01*
X250020Y386620D01*
X250039Y386628D01*
X250055Y386636D01*
X250075Y386644D01*
X250094Y386652D01*
X250114Y386660D01*
X250134Y386664D01*
X250153Y386668D01*
X250177D01*
X250197Y386672D01*
X251929D01*
X251949Y386668D01*
D02*
G37*
G36*
X245256D02*
X245280D01*
X245299Y386664D01*
X245319Y386660D01*
X245339Y386652D01*
X245358Y386644D01*
X245378Y386636D01*
X245394Y386628D01*
X245413Y386620D01*
X245429Y386609D01*
X245449Y386597D01*
X245464Y386585D01*
X245480Y386569D01*
X245496Y386558D01*
X245508Y386542D01*
X245524Y386526D01*
X245535Y386510D01*
X245547Y386491D01*
X245559Y386475D01*
X245567Y386455D01*
X245575Y386439D01*
X245583Y386420D01*
X245590Y386400D01*
X245598Y386380D01*
X245602Y386361D01*
X245606Y386341D01*
Y386317D01*
X245610Y386298D01*
Y383187D01*
X245606Y383168D01*
Y383144D01*
X245602Y383124D01*
X245598Y383105D01*
X245590Y383085D01*
X245583Y383065D01*
X245575Y383046D01*
X245567Y383030D01*
X245559Y383010D01*
X245547Y382995D01*
X245535Y382975D01*
X245524Y382959D01*
X245508Y382943D01*
X245496Y382928D01*
X245480Y382916D01*
X245464Y382900D01*
X245449Y382888D01*
X245429Y382876D01*
X245413Y382865D01*
X245394Y382857D01*
X245378Y382849D01*
X245358Y382841D01*
X245339Y382833D01*
X245319Y382825D01*
X245299Y382821D01*
X245280Y382817D01*
X245256D01*
X245236Y382813D01*
X243504D01*
X243484Y382817D01*
X243461D01*
X243441Y382821D01*
X243421Y382825D01*
X243402Y382833D01*
X243382Y382841D01*
X243362Y382849D01*
X243346Y382857D01*
X243327Y382865D01*
X243311Y382876D01*
X243291Y382888D01*
X243276Y382900D01*
X243260Y382916D01*
X243244Y382928D01*
X243232Y382943D01*
X243216Y382959D01*
X243205Y382975D01*
X243193Y382995D01*
X243181Y383010D01*
X243173Y383030D01*
X243165Y383046D01*
X243157Y383065D01*
X243150Y383085D01*
X243142Y383105D01*
X243138Y383124D01*
X243134Y383144D01*
Y383168D01*
X243130Y383187D01*
Y386298D01*
X243134Y386317D01*
Y386341D01*
X243138Y386361D01*
X243142Y386380D01*
X243150Y386400D01*
X243157Y386420D01*
X243165Y386439D01*
X243173Y386455D01*
X243181Y386475D01*
X243193Y386491D01*
X243205Y386510D01*
X243216Y386526D01*
X243232Y386542D01*
X243244Y386558D01*
X243260Y386569D01*
X243276Y386585D01*
X243291Y386597D01*
X243311Y386609D01*
X243327Y386620D01*
X243346Y386628D01*
X243362Y386636D01*
X243382Y386644D01*
X243402Y386652D01*
X243421Y386660D01*
X243441Y386664D01*
X243461Y386668D01*
X243484D01*
X243504Y386672D01*
X245236D01*
X245256Y386668D01*
D02*
G37*
G36*
X240925D02*
X240949D01*
X240968Y386664D01*
X240988Y386660D01*
X241008Y386652D01*
X241027Y386644D01*
X241047Y386636D01*
X241063Y386628D01*
X241083Y386620D01*
X241098Y386609D01*
X241118Y386597D01*
X241134Y386585D01*
X241150Y386569D01*
X241165Y386558D01*
X241177Y386542D01*
X241193Y386526D01*
X241205Y386510D01*
X241216Y386491D01*
X241228Y386475D01*
X241236Y386455D01*
X241244Y386439D01*
X241252Y386420D01*
X241260Y386400D01*
X241268Y386380D01*
X241272Y386361D01*
X241276Y386341D01*
Y386317D01*
X241280Y386298D01*
Y383187D01*
X241276Y383168D01*
Y383144D01*
X241272Y383124D01*
X241268Y383105D01*
X241260Y383085D01*
X241252Y383065D01*
X241244Y383046D01*
X241236Y383030D01*
X241228Y383010D01*
X241216Y382995D01*
X241205Y382975D01*
X241193Y382959D01*
X241177Y382943D01*
X241165Y382928D01*
X241150Y382916D01*
X241134Y382900D01*
X241118Y382888D01*
X241098Y382876D01*
X241083Y382865D01*
X241063Y382857D01*
X241047Y382849D01*
X241027Y382841D01*
X241008Y382833D01*
X240988Y382825D01*
X240968Y382821D01*
X240949Y382817D01*
X240925D01*
X240905Y382813D01*
X239173D01*
X239154Y382817D01*
X239130D01*
X239110Y382821D01*
X239090Y382825D01*
X239071Y382833D01*
X239051Y382841D01*
X239031Y382849D01*
X239016Y382857D01*
X238996Y382865D01*
X238980Y382876D01*
X238961Y382888D01*
X238945Y382900D01*
X238929Y382916D01*
X238913Y382928D01*
X238901Y382943D01*
X238886Y382959D01*
X238874Y382975D01*
X238862Y382995D01*
X238850Y383010D01*
X238843Y383030D01*
X238835Y383046D01*
X238827Y383065D01*
X238819Y383085D01*
X238811Y383105D01*
X238807Y383124D01*
X238803Y383144D01*
Y383168D01*
X238799Y383187D01*
Y386298D01*
X238803Y386317D01*
Y386341D01*
X238807Y386361D01*
X238811Y386380D01*
X238819Y386400D01*
X238827Y386420D01*
X238835Y386439D01*
X238843Y386455D01*
X238850Y386475D01*
X238862Y386491D01*
X238874Y386510D01*
X238886Y386526D01*
X238901Y386542D01*
X238913Y386558D01*
X238929Y386569D01*
X238945Y386585D01*
X238961Y386597D01*
X238980Y386609D01*
X238996Y386620D01*
X239016Y386628D01*
X239031Y386636D01*
X239051Y386644D01*
X239071Y386652D01*
X239090Y386660D01*
X239110Y386664D01*
X239130Y386668D01*
X239154D01*
X239173Y386672D01*
X240905D01*
X240925Y386668D01*
D02*
G37*
G36*
X236594D02*
X236618D01*
X236638Y386664D01*
X236657Y386660D01*
X236677Y386652D01*
X236697Y386644D01*
X236717Y386636D01*
X236732Y386628D01*
X236752Y386620D01*
X236768Y386609D01*
X236787Y386597D01*
X236803Y386585D01*
X236819Y386569D01*
X236835Y386558D01*
X236846Y386542D01*
X236862Y386526D01*
X236874Y386510D01*
X236886Y386491D01*
X236898Y386475D01*
X236906Y386455D01*
X236913Y386439D01*
X236921Y386420D01*
X236929Y386400D01*
X236937Y386380D01*
X236941Y386361D01*
X236945Y386341D01*
Y386317D01*
X236949Y386298D01*
Y383187D01*
X236945Y383168D01*
Y383144D01*
X236941Y383124D01*
X236937Y383105D01*
X236929Y383085D01*
X236921Y383065D01*
X236913Y383046D01*
X236906Y383030D01*
X236898Y383010D01*
X236886Y382995D01*
X236874Y382975D01*
X236862Y382959D01*
X236846Y382943D01*
X236835Y382928D01*
X236819Y382916D01*
X236803Y382900D01*
X236787Y382888D01*
X236768Y382876D01*
X236752Y382865D01*
X236732Y382857D01*
X236717Y382849D01*
X236697Y382841D01*
X236677Y382833D01*
X236657Y382825D01*
X236638Y382821D01*
X236618Y382817D01*
X236594D01*
X236575Y382813D01*
X234842D01*
X234823Y382817D01*
X234799D01*
X234780Y382821D01*
X234760Y382825D01*
X234740Y382833D01*
X234720Y382841D01*
X234701Y382849D01*
X234685Y382857D01*
X234665Y382865D01*
X234650Y382876D01*
X234630Y382888D01*
X234614Y382900D01*
X234598Y382916D01*
X234583Y382928D01*
X234571Y382943D01*
X234555Y382959D01*
X234543Y382975D01*
X234531Y382995D01*
X234520Y383010D01*
X234512Y383030D01*
X234504Y383046D01*
X234496Y383065D01*
X234488Y383085D01*
X234480Y383105D01*
X234476Y383124D01*
X234472Y383144D01*
Y383168D01*
X234469Y383187D01*
Y386298D01*
X234472Y386317D01*
Y386341D01*
X234476Y386361D01*
X234480Y386380D01*
X234488Y386400D01*
X234496Y386420D01*
X234504Y386439D01*
X234512Y386455D01*
X234520Y386475D01*
X234531Y386491D01*
X234543Y386510D01*
X234555Y386526D01*
X234571Y386542D01*
X234583Y386558D01*
X234598Y386569D01*
X234614Y386585D01*
X234630Y386597D01*
X234650Y386609D01*
X234665Y386620D01*
X234685Y386628D01*
X234701Y386636D01*
X234720Y386644D01*
X234740Y386652D01*
X234760Y386660D01*
X234780Y386664D01*
X234799Y386668D01*
X234823D01*
X234842Y386672D01*
X236575D01*
X236594Y386668D01*
D02*
G37*
G36*
X232264D02*
X232287D01*
X232307Y386664D01*
X232327Y386660D01*
X232346Y386652D01*
X232366Y386644D01*
X232386Y386636D01*
X232401Y386628D01*
X232421Y386620D01*
X232437Y386609D01*
X232457Y386597D01*
X232472Y386585D01*
X232488Y386569D01*
X232504Y386558D01*
X232516Y386542D01*
X232531Y386526D01*
X232543Y386510D01*
X232555Y386491D01*
X232567Y386475D01*
X232575Y386455D01*
X232583Y386439D01*
X232591Y386420D01*
X232598Y386400D01*
X232606Y386380D01*
X232610Y386361D01*
X232614Y386341D01*
Y386317D01*
X232618Y386298D01*
Y383187D01*
X232614Y383168D01*
Y383144D01*
X232610Y383124D01*
X232606Y383105D01*
X232598Y383085D01*
X232591Y383065D01*
X232583Y383046D01*
X232575Y383030D01*
X232567Y383010D01*
X232555Y382995D01*
X232543Y382975D01*
X232531Y382959D01*
X232516Y382943D01*
X232504Y382928D01*
X232488Y382916D01*
X232472Y382900D01*
X232457Y382888D01*
X232437Y382876D01*
X232421Y382865D01*
X232401Y382857D01*
X232386Y382849D01*
X232366Y382841D01*
X232346Y382833D01*
X232327Y382825D01*
X232307Y382821D01*
X232287Y382817D01*
X232264D01*
X232244Y382813D01*
X230512D01*
X230492Y382817D01*
X230469D01*
X230449Y382821D01*
X230429Y382825D01*
X230409Y382833D01*
X230390Y382841D01*
X230370Y382849D01*
X230354Y382857D01*
X230335Y382865D01*
X230319Y382876D01*
X230299Y382888D01*
X230283Y382900D01*
X230268Y382916D01*
X230252Y382928D01*
X230240Y382943D01*
X230224Y382959D01*
X230213Y382975D01*
X230201Y382995D01*
X230189Y383010D01*
X230181Y383030D01*
X230173Y383046D01*
X230165Y383065D01*
X230157Y383085D01*
X230150Y383105D01*
X230146Y383124D01*
X230142Y383144D01*
Y383168D01*
X230138Y383187D01*
Y386298D01*
X230142Y386317D01*
Y386341D01*
X230146Y386361D01*
X230150Y386380D01*
X230157Y386400D01*
X230165Y386420D01*
X230173Y386439D01*
X230181Y386455D01*
X230189Y386475D01*
X230201Y386491D01*
X230213Y386510D01*
X230224Y386526D01*
X230240Y386542D01*
X230252Y386558D01*
X230268Y386569D01*
X230283Y386585D01*
X230299Y386597D01*
X230319Y386609D01*
X230335Y386620D01*
X230354Y386628D01*
X230370Y386636D01*
X230390Y386644D01*
X230409Y386652D01*
X230429Y386660D01*
X230449Y386664D01*
X230469Y386668D01*
X230492D01*
X230512Y386672D01*
X232244D01*
X232264Y386668D01*
D02*
G37*
G36*
X227933D02*
X227957D01*
X227976Y386664D01*
X227996Y386660D01*
X228016Y386652D01*
X228035Y386644D01*
X228055Y386636D01*
X228071Y386628D01*
X228091Y386620D01*
X228106Y386609D01*
X228126Y386597D01*
X228142Y386585D01*
X228157Y386569D01*
X228173Y386558D01*
X228185Y386542D01*
X228201Y386526D01*
X228213Y386510D01*
X228224Y386491D01*
X228236Y386475D01*
X228244Y386455D01*
X228252Y386439D01*
X228260Y386420D01*
X228268Y386400D01*
X228276Y386380D01*
X228279Y386361D01*
X228283Y386341D01*
Y386317D01*
X228287Y386298D01*
Y383187D01*
X228283Y383168D01*
Y383144D01*
X228279Y383124D01*
X228276Y383105D01*
X228268Y383085D01*
X228260Y383065D01*
X228252Y383046D01*
X228244Y383030D01*
X228236Y383010D01*
X228224Y382995D01*
X228213Y382975D01*
X228201Y382959D01*
X228185Y382943D01*
X228173Y382928D01*
X228157Y382916D01*
X228142Y382900D01*
X228126Y382888D01*
X228106Y382876D01*
X228091Y382865D01*
X228071Y382857D01*
X228055Y382849D01*
X228035Y382841D01*
X228016Y382833D01*
X227996Y382825D01*
X227976Y382821D01*
X227957Y382817D01*
X227933D01*
X227913Y382813D01*
X226181D01*
X226161Y382817D01*
X226138D01*
X226118Y382821D01*
X226098Y382825D01*
X226079Y382833D01*
X226059Y382841D01*
X226039Y382849D01*
X226024Y382857D01*
X226004Y382865D01*
X225988Y382876D01*
X225969Y382888D01*
X225953Y382900D01*
X225937Y382916D01*
X225921Y382928D01*
X225909Y382943D01*
X225894Y382959D01*
X225882Y382975D01*
X225870Y382995D01*
X225858Y383010D01*
X225850Y383030D01*
X225842Y383046D01*
X225835Y383065D01*
X225827Y383085D01*
X225819Y383105D01*
X225815Y383124D01*
X225811Y383144D01*
Y383168D01*
X225807Y383187D01*
Y386298D01*
X225811Y386317D01*
Y386341D01*
X225815Y386361D01*
X225819Y386380D01*
X225827Y386400D01*
X225835Y386420D01*
X225842Y386439D01*
X225850Y386455D01*
X225858Y386475D01*
X225870Y386491D01*
X225882Y386510D01*
X225894Y386526D01*
X225909Y386542D01*
X225921Y386558D01*
X225937Y386569D01*
X225953Y386585D01*
X225969Y386597D01*
X225988Y386609D01*
X226004Y386620D01*
X226024Y386628D01*
X226039Y386636D01*
X226059Y386644D01*
X226079Y386652D01*
X226098Y386660D01*
X226118Y386664D01*
X226138Y386668D01*
X226161D01*
X226181Y386672D01*
X227913D01*
X227933Y386668D01*
D02*
G37*
G36*
X223602D02*
X223626D01*
X223646Y386664D01*
X223665Y386660D01*
X223685Y386652D01*
X223705Y386644D01*
X223724Y386636D01*
X223740Y386628D01*
X223760Y386620D01*
X223776Y386609D01*
X223795Y386597D01*
X223811Y386585D01*
X223827Y386569D01*
X223843Y386558D01*
X223854Y386542D01*
X223870Y386526D01*
X223882Y386510D01*
X223894Y386491D01*
X223905Y386475D01*
X223913Y386455D01*
X223921Y386439D01*
X223929Y386420D01*
X223937Y386400D01*
X223945Y386380D01*
X223949Y386361D01*
X223953Y386341D01*
Y386317D01*
X223957Y386298D01*
Y383187D01*
X223953Y383168D01*
Y383144D01*
X223949Y383124D01*
X223945Y383105D01*
X223937Y383085D01*
X223929Y383065D01*
X223921Y383046D01*
X223913Y383030D01*
X223905Y383010D01*
X223894Y382995D01*
X223882Y382975D01*
X223870Y382959D01*
X223854Y382943D01*
X223843Y382928D01*
X223827Y382916D01*
X223811Y382900D01*
X223795Y382888D01*
X223776Y382876D01*
X223760Y382865D01*
X223740Y382857D01*
X223724Y382849D01*
X223705Y382841D01*
X223685Y382833D01*
X223665Y382825D01*
X223646Y382821D01*
X223626Y382817D01*
X223602D01*
X223583Y382813D01*
X221850D01*
X221831Y382817D01*
X221807D01*
X221787Y382821D01*
X221768Y382825D01*
X221748Y382833D01*
X221728Y382841D01*
X221709Y382849D01*
X221693Y382857D01*
X221673Y382865D01*
X221657Y382876D01*
X221638Y382888D01*
X221622Y382900D01*
X221606Y382916D01*
X221590Y382928D01*
X221579Y382943D01*
X221563Y382959D01*
X221551Y382975D01*
X221539Y382995D01*
X221528Y383010D01*
X221520Y383030D01*
X221512Y383046D01*
X221504Y383065D01*
X221496Y383085D01*
X221488Y383105D01*
X221484Y383124D01*
X221480Y383144D01*
Y383168D01*
X221476Y383187D01*
Y386298D01*
X221480Y386317D01*
Y386341D01*
X221484Y386361D01*
X221488Y386380D01*
X221496Y386400D01*
X221504Y386420D01*
X221512Y386439D01*
X221520Y386455D01*
X221528Y386475D01*
X221539Y386491D01*
X221551Y386510D01*
X221563Y386526D01*
X221579Y386542D01*
X221590Y386558D01*
X221606Y386569D01*
X221622Y386585D01*
X221638Y386597D01*
X221657Y386609D01*
X221673Y386620D01*
X221693Y386628D01*
X221709Y386636D01*
X221728Y386644D01*
X221748Y386652D01*
X221768Y386660D01*
X221787Y386664D01*
X221807Y386668D01*
X221831D01*
X221850Y386672D01*
X223583D01*
X223602Y386668D01*
D02*
G37*
G36*
X219272D02*
X219295D01*
X219315Y386664D01*
X219335Y386660D01*
X219354Y386652D01*
X219374Y386644D01*
X219394Y386636D01*
X219409Y386628D01*
X219429Y386620D01*
X219445Y386609D01*
X219464Y386597D01*
X219480Y386585D01*
X219496Y386569D01*
X219512Y386558D01*
X219524Y386542D01*
X219539Y386526D01*
X219551Y386510D01*
X219563Y386491D01*
X219575Y386475D01*
X219583Y386455D01*
X219590Y386439D01*
X219598Y386420D01*
X219606Y386400D01*
X219614Y386380D01*
X219618Y386361D01*
X219622Y386341D01*
Y386317D01*
X219626Y386298D01*
Y383187D01*
X219622Y383168D01*
Y383144D01*
X219618Y383124D01*
X219614Y383105D01*
X219606Y383085D01*
X219598Y383065D01*
X219590Y383046D01*
X219583Y383030D01*
X219575Y383010D01*
X219563Y382995D01*
X219551Y382975D01*
X219539Y382959D01*
X219524Y382943D01*
X219512Y382928D01*
X219496Y382916D01*
X219480Y382900D01*
X219464Y382888D01*
X219445Y382876D01*
X219429Y382865D01*
X219409Y382857D01*
X219394Y382849D01*
X219374Y382841D01*
X219354Y382833D01*
X219335Y382825D01*
X219315Y382821D01*
X219295Y382817D01*
X219272D01*
X219252Y382813D01*
X217520D01*
X217500Y382817D01*
X217476D01*
X217457Y382821D01*
X217437Y382825D01*
X217417Y382833D01*
X217398Y382841D01*
X217378Y382849D01*
X217362Y382857D01*
X217342Y382865D01*
X217327Y382876D01*
X217307Y382888D01*
X217291Y382900D01*
X217276Y382916D01*
X217260Y382928D01*
X217248Y382943D01*
X217232Y382959D01*
X217220Y382975D01*
X217209Y382995D01*
X217197Y383010D01*
X217189Y383030D01*
X217181Y383046D01*
X217173Y383065D01*
X217165Y383085D01*
X217157Y383105D01*
X217154Y383124D01*
X217150Y383144D01*
Y383168D01*
X217146Y383187D01*
Y386298D01*
X217150Y386317D01*
Y386341D01*
X217154Y386361D01*
X217157Y386380D01*
X217165Y386400D01*
X217173Y386420D01*
X217181Y386439D01*
X217189Y386455D01*
X217197Y386475D01*
X217209Y386491D01*
X217220Y386510D01*
X217232Y386526D01*
X217248Y386542D01*
X217260Y386558D01*
X217276Y386569D01*
X217291Y386585D01*
X217307Y386597D01*
X217327Y386609D01*
X217342Y386620D01*
X217362Y386628D01*
X217378Y386636D01*
X217398Y386644D01*
X217417Y386652D01*
X217437Y386660D01*
X217457Y386664D01*
X217476Y386668D01*
X217500D01*
X217520Y386672D01*
X219252D01*
X219272Y386668D01*
D02*
G37*
G36*
X214941D02*
X214965D01*
X214984Y386664D01*
X215004Y386660D01*
X215024Y386652D01*
X215043Y386644D01*
X215063Y386636D01*
X215079Y386628D01*
X215098Y386620D01*
X215114Y386609D01*
X215134Y386597D01*
X215150Y386585D01*
X215165Y386569D01*
X215181Y386558D01*
X215193Y386542D01*
X215209Y386526D01*
X215220Y386510D01*
X215232Y386491D01*
X215244Y386475D01*
X215252Y386455D01*
X215260Y386439D01*
X215268Y386420D01*
X215276Y386400D01*
X215283Y386380D01*
X215287Y386361D01*
X215291Y386341D01*
Y386317D01*
X215295Y386298D01*
Y383187D01*
X215291Y383168D01*
Y383144D01*
X215287Y383124D01*
X215283Y383105D01*
X215276Y383085D01*
X215268Y383065D01*
X215260Y383046D01*
X215252Y383030D01*
X215244Y383010D01*
X215232Y382995D01*
X215220Y382975D01*
X215209Y382959D01*
X215193Y382943D01*
X215181Y382928D01*
X215165Y382916D01*
X215150Y382900D01*
X215134Y382888D01*
X215114Y382876D01*
X215098Y382865D01*
X215079Y382857D01*
X215063Y382849D01*
X215043Y382841D01*
X215024Y382833D01*
X215004Y382825D01*
X214984Y382821D01*
X214965Y382817D01*
X214941D01*
X214921Y382813D01*
X213189D01*
X213169Y382817D01*
X213146D01*
X213126Y382821D01*
X213106Y382825D01*
X213087Y382833D01*
X213067Y382841D01*
X213047Y382849D01*
X213031Y382857D01*
X213012Y382865D01*
X212996Y382876D01*
X212976Y382888D01*
X212961Y382900D01*
X212945Y382916D01*
X212929Y382928D01*
X212917Y382943D01*
X212901Y382959D01*
X212890Y382975D01*
X212878Y382995D01*
X212866Y383010D01*
X212858Y383030D01*
X212850Y383046D01*
X212842Y383065D01*
X212835Y383085D01*
X212827Y383105D01*
X212823Y383124D01*
X212819Y383144D01*
Y383168D01*
X212815Y383187D01*
Y386298D01*
X212819Y386317D01*
Y386341D01*
X212823Y386361D01*
X212827Y386380D01*
X212835Y386400D01*
X212842Y386420D01*
X212850Y386439D01*
X212858Y386455D01*
X212866Y386475D01*
X212878Y386491D01*
X212890Y386510D01*
X212901Y386526D01*
X212917Y386542D01*
X212929Y386558D01*
X212945Y386569D01*
X212961Y386585D01*
X212976Y386597D01*
X212996Y386609D01*
X213012Y386620D01*
X213031Y386628D01*
X213047Y386636D01*
X213067Y386644D01*
X213087Y386652D01*
X213106Y386660D01*
X213126Y386664D01*
X213146Y386668D01*
X213169D01*
X213189Y386672D01*
X214921D01*
X214941Y386668D01*
D02*
G37*
G36*
X296732Y379286D02*
X296756D01*
X296776Y379282D01*
X296795Y379278D01*
X296815Y379270D01*
X296835Y379262D01*
X296854Y379254D01*
X296870Y379246D01*
X296890Y379239D01*
X296905Y379227D01*
X296925Y379215D01*
X296941Y379203D01*
X296957Y379187D01*
X296972Y379176D01*
X296984Y379160D01*
X297000Y379144D01*
X297012Y379128D01*
X297024Y379109D01*
X297035Y379093D01*
X297043Y379073D01*
X297051Y379058D01*
X297059Y379038D01*
X297067Y379018D01*
X297075Y378998D01*
X297079Y378979D01*
X297083Y378959D01*
Y378935D01*
X297087Y378916D01*
Y377184D01*
X297083Y377164D01*
Y377140D01*
X297079Y377120D01*
X297075Y377101D01*
X297067Y377081D01*
X297059Y377061D01*
X297051Y377042D01*
X297043Y377026D01*
X297035Y377006D01*
X297024Y376991D01*
X297012Y376971D01*
X297000Y376955D01*
X296984Y376939D01*
X296972Y376924D01*
X296957Y376912D01*
X296941Y376896D01*
X296925Y376884D01*
X296905Y376872D01*
X296890Y376861D01*
X296870Y376853D01*
X296854Y376845D01*
X296835Y376837D01*
X296815Y376829D01*
X296795Y376821D01*
X296776Y376817D01*
X296756Y376813D01*
X296732D01*
X296713Y376809D01*
X293602D01*
X293583Y376813D01*
X293559D01*
X293539Y376817D01*
X293520Y376821D01*
X293500Y376829D01*
X293480Y376837D01*
X293461Y376845D01*
X293445Y376853D01*
X293425Y376861D01*
X293409Y376872D01*
X293390Y376884D01*
X293374Y376896D01*
X293358Y376912D01*
X293342Y376924D01*
X293331Y376939D01*
X293315Y376955D01*
X293303Y376971D01*
X293291Y376991D01*
X293280Y377006D01*
X293272Y377026D01*
X293264Y377042D01*
X293256Y377061D01*
X293248Y377081D01*
X293240Y377101D01*
X293236Y377120D01*
X293232Y377140D01*
Y377164D01*
X293228Y377184D01*
Y378916D01*
X293232Y378935D01*
Y378959D01*
X293236Y378979D01*
X293240Y378998D01*
X293248Y379018D01*
X293256Y379038D01*
X293264Y379058D01*
X293272Y379073D01*
X293280Y379093D01*
X293291Y379109D01*
X293303Y379128D01*
X293315Y379144D01*
X293331Y379160D01*
X293342Y379176D01*
X293358Y379187D01*
X293374Y379203D01*
X293390Y379215D01*
X293409Y379227D01*
X293425Y379239D01*
X293445Y379246D01*
X293461Y379254D01*
X293480Y379262D01*
X293500Y379270D01*
X293520Y379278D01*
X293539Y379282D01*
X293559Y379286D01*
X293583D01*
X293602Y379290D01*
X296713D01*
X296732Y379286D01*
D02*
G37*
G36*
X210118D02*
X210142D01*
X210161Y379282D01*
X210181Y379278D01*
X210201Y379270D01*
X210220Y379262D01*
X210240Y379254D01*
X210256Y379246D01*
X210276Y379239D01*
X210291Y379227D01*
X210311Y379215D01*
X210327Y379203D01*
X210343Y379187D01*
X210358Y379176D01*
X210370Y379160D01*
X210386Y379144D01*
X210398Y379128D01*
X210409Y379109D01*
X210421Y379093D01*
X210429Y379073D01*
X210437Y379058D01*
X210445Y379038D01*
X210453Y379018D01*
X210461Y378998D01*
X210465Y378979D01*
X210469Y378959D01*
Y378935D01*
X210472Y378916D01*
Y377184D01*
X210469Y377164D01*
Y377140D01*
X210465Y377120D01*
X210461Y377101D01*
X210453Y377081D01*
X210445Y377061D01*
X210437Y377042D01*
X210429Y377026D01*
X210421Y377006D01*
X210409Y376991D01*
X210398Y376971D01*
X210386Y376955D01*
X210370Y376939D01*
X210358Y376924D01*
X210343Y376912D01*
X210327Y376896D01*
X210311Y376884D01*
X210291Y376872D01*
X210276Y376861D01*
X210256Y376853D01*
X210240Y376845D01*
X210220Y376837D01*
X210201Y376829D01*
X210181Y376821D01*
X210161Y376817D01*
X210142Y376813D01*
X210118D01*
X210098Y376809D01*
X206988D01*
X206968Y376813D01*
X206945D01*
X206925Y376817D01*
X206906Y376821D01*
X206886Y376829D01*
X206866Y376837D01*
X206846Y376845D01*
X206831Y376853D01*
X206811Y376861D01*
X206795Y376872D01*
X206776Y376884D01*
X206760Y376896D01*
X206744Y376912D01*
X206728Y376924D01*
X206716Y376939D01*
X206701Y376955D01*
X206689Y376971D01*
X206677Y376991D01*
X206665Y377006D01*
X206657Y377026D01*
X206650Y377042D01*
X206642Y377061D01*
X206634Y377081D01*
X206626Y377101D01*
X206622Y377120D01*
X206618Y377140D01*
Y377164D01*
X206614Y377184D01*
Y378916D01*
X206618Y378935D01*
Y378959D01*
X206622Y378979D01*
X206626Y378998D01*
X206634Y379018D01*
X206642Y379038D01*
X206650Y379058D01*
X206657Y379073D01*
X206665Y379093D01*
X206677Y379109D01*
X206689Y379128D01*
X206701Y379144D01*
X206716Y379160D01*
X206728Y379176D01*
X206744Y379187D01*
X206760Y379203D01*
X206776Y379215D01*
X206795Y379227D01*
X206811Y379239D01*
X206831Y379246D01*
X206846Y379254D01*
X206866Y379262D01*
X206886Y379270D01*
X206906Y379278D01*
X206925Y379282D01*
X206945Y379286D01*
X206968D01*
X206988Y379290D01*
X210098D01*
X210118Y379286D01*
D02*
G37*
G36*
X296732Y374955D02*
X296756D01*
X296776Y374951D01*
X296795Y374947D01*
X296815Y374939D01*
X296835Y374932D01*
X296854Y374924D01*
X296870Y374916D01*
X296890Y374908D01*
X296905Y374896D01*
X296925Y374884D01*
X296941Y374872D01*
X296957Y374857D01*
X296972Y374845D01*
X296984Y374829D01*
X297000Y374813D01*
X297012Y374798D01*
X297024Y374778D01*
X297035Y374762D01*
X297043Y374743D01*
X297051Y374727D01*
X297059Y374707D01*
X297067Y374687D01*
X297075Y374668D01*
X297079Y374648D01*
X297083Y374628D01*
Y374605D01*
X297087Y374585D01*
Y372853D01*
X297083Y372833D01*
Y372809D01*
X297079Y372790D01*
X297075Y372770D01*
X297067Y372750D01*
X297059Y372731D01*
X297051Y372711D01*
X297043Y372695D01*
X297035Y372676D01*
X297024Y372660D01*
X297012Y372640D01*
X297000Y372624D01*
X296984Y372609D01*
X296972Y372593D01*
X296957Y372581D01*
X296941Y372565D01*
X296925Y372553D01*
X296905Y372542D01*
X296890Y372530D01*
X296870Y372522D01*
X296854Y372514D01*
X296835Y372506D01*
X296815Y372498D01*
X296795Y372491D01*
X296776Y372487D01*
X296756Y372483D01*
X296732D01*
X296713Y372479D01*
X293602D01*
X293583Y372483D01*
X293559D01*
X293539Y372487D01*
X293520Y372491D01*
X293500Y372498D01*
X293480Y372506D01*
X293461Y372514D01*
X293445Y372522D01*
X293425Y372530D01*
X293409Y372542D01*
X293390Y372553D01*
X293374Y372565D01*
X293358Y372581D01*
X293342Y372593D01*
X293331Y372609D01*
X293315Y372624D01*
X293303Y372640D01*
X293291Y372660D01*
X293280Y372676D01*
X293272Y372695D01*
X293264Y372711D01*
X293256Y372731D01*
X293248Y372750D01*
X293240Y372770D01*
X293236Y372790D01*
X293232Y372809D01*
Y372833D01*
X293228Y372853D01*
Y374585D01*
X293232Y374605D01*
Y374628D01*
X293236Y374648D01*
X293240Y374668D01*
X293248Y374687D01*
X293256Y374707D01*
X293264Y374727D01*
X293272Y374743D01*
X293280Y374762D01*
X293291Y374778D01*
X293303Y374798D01*
X293315Y374813D01*
X293331Y374829D01*
X293342Y374845D01*
X293358Y374857D01*
X293374Y374872D01*
X293390Y374884D01*
X293409Y374896D01*
X293425Y374908D01*
X293445Y374916D01*
X293461Y374924D01*
X293480Y374932D01*
X293500Y374939D01*
X293520Y374947D01*
X293539Y374951D01*
X293559Y374955D01*
X293583D01*
X293602Y374959D01*
X296713D01*
X296732Y374955D01*
D02*
G37*
G36*
X210118D02*
X210142D01*
X210161Y374951D01*
X210181Y374947D01*
X210201Y374939D01*
X210220Y374932D01*
X210240Y374924D01*
X210256Y374916D01*
X210276Y374908D01*
X210291Y374896D01*
X210311Y374884D01*
X210327Y374872D01*
X210343Y374857D01*
X210358Y374845D01*
X210370Y374829D01*
X210386Y374813D01*
X210398Y374798D01*
X210409Y374778D01*
X210421Y374762D01*
X210429Y374743D01*
X210437Y374727D01*
X210445Y374707D01*
X210453Y374687D01*
X210461Y374668D01*
X210465Y374648D01*
X210469Y374628D01*
Y374605D01*
X210472Y374585D01*
Y372853D01*
X210469Y372833D01*
Y372809D01*
X210465Y372790D01*
X210461Y372770D01*
X210453Y372750D01*
X210445Y372731D01*
X210437Y372711D01*
X210429Y372695D01*
X210421Y372676D01*
X210409Y372660D01*
X210398Y372640D01*
X210386Y372624D01*
X210370Y372609D01*
X210358Y372593D01*
X210343Y372581D01*
X210327Y372565D01*
X210311Y372553D01*
X210291Y372542D01*
X210276Y372530D01*
X210256Y372522D01*
X210240Y372514D01*
X210220Y372506D01*
X210201Y372498D01*
X210181Y372491D01*
X210161Y372487D01*
X210142Y372483D01*
X210118D01*
X210098Y372479D01*
X206988D01*
X206968Y372483D01*
X206945D01*
X206925Y372487D01*
X206906Y372491D01*
X206886Y372498D01*
X206866Y372506D01*
X206846Y372514D01*
X206831Y372522D01*
X206811Y372530D01*
X206795Y372542D01*
X206776Y372553D01*
X206760Y372565D01*
X206744Y372581D01*
X206728Y372593D01*
X206716Y372609D01*
X206701Y372624D01*
X206689Y372640D01*
X206677Y372660D01*
X206665Y372676D01*
X206657Y372695D01*
X206650Y372711D01*
X206642Y372731D01*
X206634Y372750D01*
X206626Y372770D01*
X206622Y372790D01*
X206618Y372809D01*
Y372833D01*
X206614Y372853D01*
Y374585D01*
X206618Y374605D01*
Y374628D01*
X206622Y374648D01*
X206626Y374668D01*
X206634Y374687D01*
X206642Y374707D01*
X206650Y374727D01*
X206657Y374743D01*
X206665Y374762D01*
X206677Y374778D01*
X206689Y374798D01*
X206701Y374813D01*
X206716Y374829D01*
X206728Y374845D01*
X206744Y374857D01*
X206760Y374872D01*
X206776Y374884D01*
X206795Y374896D01*
X206811Y374908D01*
X206831Y374916D01*
X206846Y374924D01*
X206866Y374932D01*
X206886Y374939D01*
X206906Y374947D01*
X206925Y374951D01*
X206945Y374955D01*
X206968D01*
X206988Y374959D01*
X210098D01*
X210118Y374955D01*
D02*
G37*
G36*
X296732Y370624D02*
X296756D01*
X296776Y370620D01*
X296795Y370617D01*
X296815Y370609D01*
X296835Y370601D01*
X296854Y370593D01*
X296870Y370585D01*
X296890Y370577D01*
X296905Y370565D01*
X296925Y370553D01*
X296941Y370542D01*
X296957Y370526D01*
X296972Y370514D01*
X296984Y370498D01*
X297000Y370483D01*
X297012Y370467D01*
X297024Y370447D01*
X297035Y370431D01*
X297043Y370412D01*
X297051Y370396D01*
X297059Y370376D01*
X297067Y370357D01*
X297075Y370337D01*
X297079Y370317D01*
X297083Y370298D01*
Y370274D01*
X297087Y370254D01*
Y368522D01*
X297083Y368502D01*
Y368479D01*
X297079Y368459D01*
X297075Y368439D01*
X297067Y368420D01*
X297059Y368400D01*
X297051Y368380D01*
X297043Y368365D01*
X297035Y368345D01*
X297024Y368329D01*
X297012Y368309D01*
X297000Y368294D01*
X296984Y368278D01*
X296972Y368262D01*
X296957Y368250D01*
X296941Y368235D01*
X296925Y368223D01*
X296905Y368211D01*
X296890Y368199D01*
X296870Y368191D01*
X296854Y368183D01*
X296835Y368176D01*
X296815Y368168D01*
X296795Y368160D01*
X296776Y368156D01*
X296756Y368152D01*
X296732D01*
X296713Y368148D01*
X293602D01*
X293583Y368152D01*
X293559D01*
X293539Y368156D01*
X293520Y368160D01*
X293500Y368168D01*
X293480Y368176D01*
X293461Y368183D01*
X293445Y368191D01*
X293425Y368199D01*
X293409Y368211D01*
X293390Y368223D01*
X293374Y368235D01*
X293358Y368250D01*
X293342Y368262D01*
X293331Y368278D01*
X293315Y368294D01*
X293303Y368309D01*
X293291Y368329D01*
X293280Y368345D01*
X293272Y368365D01*
X293264Y368380D01*
X293256Y368400D01*
X293248Y368420D01*
X293240Y368439D01*
X293236Y368459D01*
X293232Y368479D01*
Y368502D01*
X293228Y368522D01*
Y370254D01*
X293232Y370274D01*
Y370298D01*
X293236Y370317D01*
X293240Y370337D01*
X293248Y370357D01*
X293256Y370376D01*
X293264Y370396D01*
X293272Y370412D01*
X293280Y370431D01*
X293291Y370447D01*
X293303Y370467D01*
X293315Y370483D01*
X293331Y370498D01*
X293342Y370514D01*
X293358Y370526D01*
X293374Y370542D01*
X293390Y370553D01*
X293409Y370565D01*
X293425Y370577D01*
X293445Y370585D01*
X293461Y370593D01*
X293480Y370601D01*
X293500Y370609D01*
X293520Y370617D01*
X293539Y370620D01*
X293559Y370624D01*
X293583D01*
X293602Y370628D01*
X296713D01*
X296732Y370624D01*
D02*
G37*
G36*
X210118D02*
X210142D01*
X210161Y370620D01*
X210181Y370617D01*
X210201Y370609D01*
X210220Y370601D01*
X210240Y370593D01*
X210256Y370585D01*
X210276Y370577D01*
X210291Y370565D01*
X210311Y370553D01*
X210327Y370542D01*
X210343Y370526D01*
X210358Y370514D01*
X210370Y370498D01*
X210386Y370483D01*
X210398Y370467D01*
X210409Y370447D01*
X210421Y370431D01*
X210429Y370412D01*
X210437Y370396D01*
X210445Y370376D01*
X210453Y370357D01*
X210461Y370337D01*
X210465Y370317D01*
X210469Y370298D01*
Y370274D01*
X210472Y370254D01*
Y368522D01*
X210469Y368502D01*
Y368479D01*
X210465Y368459D01*
X210461Y368439D01*
X210453Y368420D01*
X210445Y368400D01*
X210437Y368380D01*
X210429Y368365D01*
X210421Y368345D01*
X210409Y368329D01*
X210398Y368309D01*
X210386Y368294D01*
X210370Y368278D01*
X210358Y368262D01*
X210343Y368250D01*
X210327Y368235D01*
X210311Y368223D01*
X210291Y368211D01*
X210276Y368199D01*
X210256Y368191D01*
X210240Y368183D01*
X210220Y368176D01*
X210201Y368168D01*
X210181Y368160D01*
X210161Y368156D01*
X210142Y368152D01*
X210118D01*
X210098Y368148D01*
X206988D01*
X206968Y368152D01*
X206945D01*
X206925Y368156D01*
X206906Y368160D01*
X206886Y368168D01*
X206866Y368176D01*
X206846Y368183D01*
X206831Y368191D01*
X206811Y368199D01*
X206795Y368211D01*
X206776Y368223D01*
X206760Y368235D01*
X206744Y368250D01*
X206728Y368262D01*
X206716Y368278D01*
X206701Y368294D01*
X206689Y368309D01*
X206677Y368329D01*
X206665Y368345D01*
X206657Y368365D01*
X206650Y368380D01*
X206642Y368400D01*
X206634Y368420D01*
X206626Y368439D01*
X206622Y368459D01*
X206618Y368479D01*
Y368502D01*
X206614Y368522D01*
Y370254D01*
X206618Y370274D01*
Y370298D01*
X206622Y370317D01*
X206626Y370337D01*
X206634Y370357D01*
X206642Y370376D01*
X206650Y370396D01*
X206657Y370412D01*
X206665Y370431D01*
X206677Y370447D01*
X206689Y370467D01*
X206701Y370483D01*
X206716Y370498D01*
X206728Y370514D01*
X206744Y370526D01*
X206760Y370542D01*
X206776Y370553D01*
X206795Y370565D01*
X206811Y370577D01*
X206831Y370585D01*
X206846Y370593D01*
X206866Y370601D01*
X206886Y370609D01*
X206906Y370617D01*
X206925Y370620D01*
X206945Y370624D01*
X206968D01*
X206988Y370628D01*
X210098D01*
X210118Y370624D01*
D02*
G37*
G36*
X296732Y366294D02*
X296756D01*
X296776Y366290D01*
X296795Y366286D01*
X296815Y366278D01*
X296835Y366270D01*
X296854Y366262D01*
X296870Y366254D01*
X296890Y366247D01*
X296905Y366235D01*
X296925Y366223D01*
X296941Y366211D01*
X296957Y366195D01*
X296972Y366183D01*
X296984Y366168D01*
X297000Y366152D01*
X297012Y366136D01*
X297024Y366116D01*
X297035Y366101D01*
X297043Y366081D01*
X297051Y366065D01*
X297059Y366046D01*
X297067Y366026D01*
X297075Y366006D01*
X297079Y365987D01*
X297083Y365967D01*
Y365943D01*
X297087Y365924D01*
Y364191D01*
X297083Y364172D01*
Y364148D01*
X297079Y364128D01*
X297075Y364109D01*
X297067Y364089D01*
X297059Y364069D01*
X297051Y364050D01*
X297043Y364034D01*
X297035Y364014D01*
X297024Y363998D01*
X297012Y363979D01*
X297000Y363963D01*
X296984Y363947D01*
X296972Y363931D01*
X296957Y363920D01*
X296941Y363904D01*
X296925Y363892D01*
X296905Y363880D01*
X296890Y363868D01*
X296870Y363861D01*
X296854Y363853D01*
X296835Y363845D01*
X296815Y363837D01*
X296795Y363829D01*
X296776Y363825D01*
X296756Y363821D01*
X296732D01*
X296713Y363817D01*
X293602D01*
X293583Y363821D01*
X293559D01*
X293539Y363825D01*
X293520Y363829D01*
X293500Y363837D01*
X293480Y363845D01*
X293461Y363853D01*
X293445Y363861D01*
X293425Y363868D01*
X293409Y363880D01*
X293390Y363892D01*
X293374Y363904D01*
X293358Y363920D01*
X293342Y363931D01*
X293331Y363947D01*
X293315Y363963D01*
X293303Y363979D01*
X293291Y363998D01*
X293280Y364014D01*
X293272Y364034D01*
X293264Y364050D01*
X293256Y364069D01*
X293248Y364089D01*
X293240Y364109D01*
X293236Y364128D01*
X293232Y364148D01*
Y364172D01*
X293228Y364191D01*
Y365924D01*
X293232Y365943D01*
Y365967D01*
X293236Y365987D01*
X293240Y366006D01*
X293248Y366026D01*
X293256Y366046D01*
X293264Y366065D01*
X293272Y366081D01*
X293280Y366101D01*
X293291Y366116D01*
X293303Y366136D01*
X293315Y366152D01*
X293331Y366168D01*
X293342Y366183D01*
X293358Y366195D01*
X293374Y366211D01*
X293390Y366223D01*
X293409Y366235D01*
X293425Y366247D01*
X293445Y366254D01*
X293461Y366262D01*
X293480Y366270D01*
X293500Y366278D01*
X293520Y366286D01*
X293539Y366290D01*
X293559Y366294D01*
X293583D01*
X293602Y366298D01*
X296713D01*
X296732Y366294D01*
D02*
G37*
G36*
X210118D02*
X210142D01*
X210161Y366290D01*
X210181Y366286D01*
X210201Y366278D01*
X210220Y366270D01*
X210240Y366262D01*
X210256Y366254D01*
X210276Y366247D01*
X210291Y366235D01*
X210311Y366223D01*
X210327Y366211D01*
X210343Y366195D01*
X210358Y366183D01*
X210370Y366168D01*
X210386Y366152D01*
X210398Y366136D01*
X210409Y366116D01*
X210421Y366101D01*
X210429Y366081D01*
X210437Y366065D01*
X210445Y366046D01*
X210453Y366026D01*
X210461Y366006D01*
X210465Y365987D01*
X210469Y365967D01*
Y365943D01*
X210472Y365924D01*
Y364191D01*
X210469Y364172D01*
Y364148D01*
X210465Y364128D01*
X210461Y364109D01*
X210453Y364089D01*
X210445Y364069D01*
X210437Y364050D01*
X210429Y364034D01*
X210421Y364014D01*
X210409Y363998D01*
X210398Y363979D01*
X210386Y363963D01*
X210370Y363947D01*
X210358Y363931D01*
X210343Y363920D01*
X210327Y363904D01*
X210311Y363892D01*
X210291Y363880D01*
X210276Y363868D01*
X210256Y363861D01*
X210240Y363853D01*
X210220Y363845D01*
X210201Y363837D01*
X210181Y363829D01*
X210161Y363825D01*
X210142Y363821D01*
X210118D01*
X210098Y363817D01*
X206988D01*
X206968Y363821D01*
X206945D01*
X206925Y363825D01*
X206906Y363829D01*
X206886Y363837D01*
X206866Y363845D01*
X206846Y363853D01*
X206831Y363861D01*
X206811Y363868D01*
X206795Y363880D01*
X206776Y363892D01*
X206760Y363904D01*
X206744Y363920D01*
X206728Y363931D01*
X206716Y363947D01*
X206701Y363963D01*
X206689Y363979D01*
X206677Y363998D01*
X206665Y364014D01*
X206657Y364034D01*
X206650Y364050D01*
X206642Y364069D01*
X206634Y364089D01*
X206626Y364109D01*
X206622Y364128D01*
X206618Y364148D01*
Y364172D01*
X206614Y364191D01*
Y365924D01*
X206618Y365943D01*
Y365967D01*
X206622Y365987D01*
X206626Y366006D01*
X206634Y366026D01*
X206642Y366046D01*
X206650Y366065D01*
X206657Y366081D01*
X206665Y366101D01*
X206677Y366116D01*
X206689Y366136D01*
X206701Y366152D01*
X206716Y366168D01*
X206728Y366183D01*
X206744Y366195D01*
X206760Y366211D01*
X206776Y366223D01*
X206795Y366235D01*
X206811Y366247D01*
X206831Y366254D01*
X206846Y366262D01*
X206866Y366270D01*
X206886Y366278D01*
X206906Y366286D01*
X206925Y366290D01*
X206945Y366294D01*
X206968D01*
X206988Y366298D01*
X210098D01*
X210118Y366294D01*
D02*
G37*
G36*
X296732Y361963D02*
X296756D01*
X296776Y361959D01*
X296795Y361955D01*
X296815Y361947D01*
X296835Y361939D01*
X296854Y361931D01*
X296870Y361924D01*
X296890Y361916D01*
X296905Y361904D01*
X296925Y361892D01*
X296941Y361880D01*
X296957Y361865D01*
X296972Y361853D01*
X296984Y361837D01*
X297000Y361821D01*
X297012Y361806D01*
X297024Y361786D01*
X297035Y361770D01*
X297043Y361750D01*
X297051Y361735D01*
X297059Y361715D01*
X297067Y361695D01*
X297075Y361676D01*
X297079Y361656D01*
X297083Y361636D01*
Y361613D01*
X297087Y361593D01*
Y359861D01*
X297083Y359841D01*
Y359817D01*
X297079Y359798D01*
X297075Y359778D01*
X297067Y359758D01*
X297059Y359739D01*
X297051Y359719D01*
X297043Y359703D01*
X297035Y359683D01*
X297024Y359668D01*
X297012Y359648D01*
X297000Y359632D01*
X296984Y359616D01*
X296972Y359601D01*
X296957Y359589D01*
X296941Y359573D01*
X296925Y359561D01*
X296905Y359550D01*
X296890Y359538D01*
X296870Y359530D01*
X296854Y359522D01*
X296835Y359514D01*
X296815Y359506D01*
X296795Y359498D01*
X296776Y359494D01*
X296756Y359490D01*
X296732D01*
X296713Y359487D01*
X293602D01*
X293583Y359490D01*
X293559D01*
X293539Y359494D01*
X293520Y359498D01*
X293500Y359506D01*
X293480Y359514D01*
X293461Y359522D01*
X293445Y359530D01*
X293425Y359538D01*
X293409Y359550D01*
X293390Y359561D01*
X293374Y359573D01*
X293358Y359589D01*
X293342Y359601D01*
X293331Y359616D01*
X293315Y359632D01*
X293303Y359648D01*
X293291Y359668D01*
X293280Y359683D01*
X293272Y359703D01*
X293264Y359719D01*
X293256Y359739D01*
X293248Y359758D01*
X293240Y359778D01*
X293236Y359798D01*
X293232Y359817D01*
Y359841D01*
X293228Y359861D01*
Y361593D01*
X293232Y361613D01*
Y361636D01*
X293236Y361656D01*
X293240Y361676D01*
X293248Y361695D01*
X293256Y361715D01*
X293264Y361735D01*
X293272Y361750D01*
X293280Y361770D01*
X293291Y361786D01*
X293303Y361806D01*
X293315Y361821D01*
X293331Y361837D01*
X293342Y361853D01*
X293358Y361865D01*
X293374Y361880D01*
X293390Y361892D01*
X293409Y361904D01*
X293425Y361916D01*
X293445Y361924D01*
X293461Y361931D01*
X293480Y361939D01*
X293500Y361947D01*
X293520Y361955D01*
X293539Y361959D01*
X293559Y361963D01*
X293583D01*
X293602Y361967D01*
X296713D01*
X296732Y361963D01*
D02*
G37*
G36*
X210118D02*
X210142D01*
X210161Y361959D01*
X210181Y361955D01*
X210201Y361947D01*
X210220Y361939D01*
X210240Y361931D01*
X210256Y361924D01*
X210276Y361916D01*
X210291Y361904D01*
X210311Y361892D01*
X210327Y361880D01*
X210343Y361865D01*
X210358Y361853D01*
X210370Y361837D01*
X210386Y361821D01*
X210398Y361806D01*
X210409Y361786D01*
X210421Y361770D01*
X210429Y361750D01*
X210437Y361735D01*
X210445Y361715D01*
X210453Y361695D01*
X210461Y361676D01*
X210465Y361656D01*
X210469Y361636D01*
Y361613D01*
X210472Y361593D01*
Y359861D01*
X210469Y359841D01*
Y359817D01*
X210465Y359798D01*
X210461Y359778D01*
X210453Y359758D01*
X210445Y359739D01*
X210437Y359719D01*
X210429Y359703D01*
X210421Y359683D01*
X210409Y359668D01*
X210398Y359648D01*
X210386Y359632D01*
X210370Y359616D01*
X210358Y359601D01*
X210343Y359589D01*
X210327Y359573D01*
X210311Y359561D01*
X210291Y359550D01*
X210276Y359538D01*
X210256Y359530D01*
X210240Y359522D01*
X210220Y359514D01*
X210201Y359506D01*
X210181Y359498D01*
X210161Y359494D01*
X210142Y359490D01*
X210118D01*
X210098Y359487D01*
X206988D01*
X206968Y359490D01*
X206945D01*
X206925Y359494D01*
X206906Y359498D01*
X206886Y359506D01*
X206866Y359514D01*
X206846Y359522D01*
X206831Y359530D01*
X206811Y359538D01*
X206795Y359550D01*
X206776Y359561D01*
X206760Y359573D01*
X206744Y359589D01*
X206728Y359601D01*
X206716Y359616D01*
X206701Y359632D01*
X206689Y359648D01*
X206677Y359668D01*
X206665Y359683D01*
X206657Y359703D01*
X206650Y359719D01*
X206642Y359739D01*
X206634Y359758D01*
X206626Y359778D01*
X206622Y359798D01*
X206618Y359817D01*
Y359841D01*
X206614Y359861D01*
Y361593D01*
X206618Y361613D01*
Y361636D01*
X206622Y361656D01*
X206626Y361676D01*
X206634Y361695D01*
X206642Y361715D01*
X206650Y361735D01*
X206657Y361750D01*
X206665Y361770D01*
X206677Y361786D01*
X206689Y361806D01*
X206701Y361821D01*
X206716Y361837D01*
X206728Y361853D01*
X206744Y361865D01*
X206760Y361880D01*
X206776Y361892D01*
X206795Y361904D01*
X206811Y361916D01*
X206831Y361924D01*
X206846Y361931D01*
X206866Y361939D01*
X206886Y361947D01*
X206906Y361955D01*
X206925Y361959D01*
X206945Y361963D01*
X206968D01*
X206988Y361967D01*
X210098D01*
X210118Y361963D01*
D02*
G37*
G36*
X296732Y357632D02*
X296756D01*
X296776Y357628D01*
X296795Y357624D01*
X296815Y357616D01*
X296835Y357609D01*
X296854Y357601D01*
X296870Y357593D01*
X296890Y357585D01*
X296905Y357573D01*
X296925Y357561D01*
X296941Y357550D01*
X296957Y357534D01*
X296972Y357522D01*
X296984Y357506D01*
X297000Y357490D01*
X297012Y357475D01*
X297024Y357455D01*
X297035Y357439D01*
X297043Y357420D01*
X297051Y357404D01*
X297059Y357384D01*
X297067Y357365D01*
X297075Y357345D01*
X297079Y357325D01*
X297083Y357306D01*
Y357282D01*
X297087Y357262D01*
Y355530D01*
X297083Y355510D01*
Y355487D01*
X297079Y355467D01*
X297075Y355447D01*
X297067Y355428D01*
X297059Y355408D01*
X297051Y355388D01*
X297043Y355372D01*
X297035Y355353D01*
X297024Y355337D01*
X297012Y355317D01*
X297000Y355302D01*
X296984Y355286D01*
X296972Y355270D01*
X296957Y355258D01*
X296941Y355242D01*
X296925Y355231D01*
X296905Y355219D01*
X296890Y355207D01*
X296870Y355199D01*
X296854Y355191D01*
X296835Y355184D01*
X296815Y355176D01*
X296795Y355168D01*
X296776Y355164D01*
X296756Y355160D01*
X296732D01*
X296713Y355156D01*
X293602D01*
X293583Y355160D01*
X293559D01*
X293539Y355164D01*
X293520Y355168D01*
X293500Y355176D01*
X293480Y355184D01*
X293461Y355191D01*
X293445Y355199D01*
X293425Y355207D01*
X293409Y355219D01*
X293390Y355231D01*
X293374Y355242D01*
X293358Y355258D01*
X293342Y355270D01*
X293331Y355286D01*
X293315Y355302D01*
X293303Y355317D01*
X293291Y355337D01*
X293280Y355353D01*
X293272Y355372D01*
X293264Y355388D01*
X293256Y355408D01*
X293248Y355428D01*
X293240Y355447D01*
X293236Y355467D01*
X293232Y355487D01*
Y355510D01*
X293228Y355530D01*
Y357262D01*
X293232Y357282D01*
Y357306D01*
X293236Y357325D01*
X293240Y357345D01*
X293248Y357365D01*
X293256Y357384D01*
X293264Y357404D01*
X293272Y357420D01*
X293280Y357439D01*
X293291Y357455D01*
X293303Y357475D01*
X293315Y357490D01*
X293331Y357506D01*
X293342Y357522D01*
X293358Y357534D01*
X293374Y357550D01*
X293390Y357561D01*
X293409Y357573D01*
X293425Y357585D01*
X293445Y357593D01*
X293461Y357601D01*
X293480Y357609D01*
X293500Y357616D01*
X293520Y357624D01*
X293539Y357628D01*
X293559Y357632D01*
X293583D01*
X293602Y357636D01*
X296713D01*
X296732Y357632D01*
D02*
G37*
G36*
X210118D02*
X210142D01*
X210161Y357628D01*
X210181Y357624D01*
X210201Y357616D01*
X210220Y357609D01*
X210240Y357601D01*
X210256Y357593D01*
X210276Y357585D01*
X210291Y357573D01*
X210311Y357561D01*
X210327Y357550D01*
X210343Y357534D01*
X210358Y357522D01*
X210370Y357506D01*
X210386Y357490D01*
X210398Y357475D01*
X210409Y357455D01*
X210421Y357439D01*
X210429Y357420D01*
X210437Y357404D01*
X210445Y357384D01*
X210453Y357365D01*
X210461Y357345D01*
X210465Y357325D01*
X210469Y357306D01*
Y357282D01*
X210472Y357262D01*
Y355530D01*
X210469Y355510D01*
Y355487D01*
X210465Y355467D01*
X210461Y355447D01*
X210453Y355428D01*
X210445Y355408D01*
X210437Y355388D01*
X210429Y355372D01*
X210421Y355353D01*
X210409Y355337D01*
X210398Y355317D01*
X210386Y355302D01*
X210370Y355286D01*
X210358Y355270D01*
X210343Y355258D01*
X210327Y355242D01*
X210311Y355231D01*
X210291Y355219D01*
X210276Y355207D01*
X210256Y355199D01*
X210240Y355191D01*
X210220Y355184D01*
X210201Y355176D01*
X210181Y355168D01*
X210161Y355164D01*
X210142Y355160D01*
X210118D01*
X210098Y355156D01*
X206988D01*
X206968Y355160D01*
X206945D01*
X206925Y355164D01*
X206906Y355168D01*
X206886Y355176D01*
X206866Y355184D01*
X206846Y355191D01*
X206831Y355199D01*
X206811Y355207D01*
X206795Y355219D01*
X206776Y355231D01*
X206760Y355242D01*
X206744Y355258D01*
X206728Y355270D01*
X206716Y355286D01*
X206701Y355302D01*
X206689Y355317D01*
X206677Y355337D01*
X206665Y355353D01*
X206657Y355372D01*
X206650Y355388D01*
X206642Y355408D01*
X206634Y355428D01*
X206626Y355447D01*
X206622Y355467D01*
X206618Y355487D01*
Y355510D01*
X206614Y355530D01*
Y357262D01*
X206618Y357282D01*
Y357306D01*
X206622Y357325D01*
X206626Y357345D01*
X206634Y357365D01*
X206642Y357384D01*
X206650Y357404D01*
X206657Y357420D01*
X206665Y357439D01*
X206677Y357455D01*
X206689Y357475D01*
X206701Y357490D01*
X206716Y357506D01*
X206728Y357522D01*
X206744Y357534D01*
X206760Y357550D01*
X206776Y357561D01*
X206795Y357573D01*
X206811Y357585D01*
X206831Y357593D01*
X206846Y357601D01*
X206866Y357609D01*
X206886Y357616D01*
X206906Y357624D01*
X206925Y357628D01*
X206945Y357632D01*
X206968D01*
X206988Y357636D01*
X210098D01*
X210118Y357632D01*
D02*
G37*
G36*
X296732Y347790D02*
X296756D01*
X296776Y347786D01*
X296795Y347782D01*
X296815Y347774D01*
X296835Y347766D01*
X296854Y347758D01*
X296870Y347750D01*
X296890Y347743D01*
X296905Y347731D01*
X296925Y347719D01*
X296941Y347707D01*
X296957Y347691D01*
X296972Y347679D01*
X296984Y347664D01*
X297000Y347648D01*
X297012Y347632D01*
X297024Y347613D01*
X297035Y347597D01*
X297043Y347577D01*
X297051Y347561D01*
X297059Y347542D01*
X297067Y347522D01*
X297075Y347502D01*
X297079Y347483D01*
X297083Y347463D01*
Y347439D01*
X297087Y347420D01*
Y345687D01*
X297083Y345668D01*
Y345644D01*
X297079Y345624D01*
X297075Y345605D01*
X297067Y345585D01*
X297059Y345565D01*
X297051Y345546D01*
X297043Y345530D01*
X297035Y345510D01*
X297024Y345495D01*
X297012Y345475D01*
X297000Y345459D01*
X296984Y345443D01*
X296972Y345428D01*
X296957Y345416D01*
X296941Y345400D01*
X296925Y345388D01*
X296905Y345376D01*
X296890Y345365D01*
X296870Y345357D01*
X296854Y345349D01*
X296835Y345341D01*
X296815Y345333D01*
X296795Y345325D01*
X296776Y345321D01*
X296756Y345317D01*
X296732D01*
X296713Y345313D01*
X293602D01*
X293583Y345317D01*
X293559D01*
X293539Y345321D01*
X293520Y345325D01*
X293500Y345333D01*
X293480Y345341D01*
X293461Y345349D01*
X293445Y345357D01*
X293425Y345365D01*
X293409Y345376D01*
X293390Y345388D01*
X293374Y345400D01*
X293358Y345416D01*
X293342Y345428D01*
X293331Y345443D01*
X293315Y345459D01*
X293303Y345475D01*
X293291Y345495D01*
X293280Y345510D01*
X293272Y345530D01*
X293264Y345546D01*
X293256Y345565D01*
X293248Y345585D01*
X293240Y345605D01*
X293236Y345624D01*
X293232Y345644D01*
Y345668D01*
X293228Y345687D01*
Y347420D01*
X293232Y347439D01*
Y347463D01*
X293236Y347483D01*
X293240Y347502D01*
X293248Y347522D01*
X293256Y347542D01*
X293264Y347561D01*
X293272Y347577D01*
X293280Y347597D01*
X293291Y347613D01*
X293303Y347632D01*
X293315Y347648D01*
X293331Y347664D01*
X293342Y347679D01*
X293358Y347691D01*
X293374Y347707D01*
X293390Y347719D01*
X293409Y347731D01*
X293425Y347743D01*
X293445Y347750D01*
X293461Y347758D01*
X293480Y347766D01*
X293500Y347774D01*
X293520Y347782D01*
X293539Y347786D01*
X293559Y347790D01*
X293583D01*
X293602Y347794D01*
X296713D01*
X296732Y347790D01*
D02*
G37*
G36*
X210118D02*
X210142D01*
X210161Y347786D01*
X210181Y347782D01*
X210201Y347774D01*
X210220Y347766D01*
X210240Y347758D01*
X210256Y347750D01*
X210276Y347743D01*
X210291Y347731D01*
X210311Y347719D01*
X210327Y347707D01*
X210343Y347691D01*
X210358Y347679D01*
X210370Y347664D01*
X210386Y347648D01*
X210398Y347632D01*
X210409Y347613D01*
X210421Y347597D01*
X210429Y347577D01*
X210437Y347561D01*
X210445Y347542D01*
X210453Y347522D01*
X210461Y347502D01*
X210465Y347483D01*
X210469Y347463D01*
Y347439D01*
X210472Y347420D01*
Y345687D01*
X210469Y345668D01*
Y345644D01*
X210465Y345624D01*
X210461Y345605D01*
X210453Y345585D01*
X210445Y345565D01*
X210437Y345546D01*
X210429Y345530D01*
X210421Y345510D01*
X210409Y345495D01*
X210398Y345475D01*
X210386Y345459D01*
X210370Y345443D01*
X210358Y345428D01*
X210343Y345416D01*
X210327Y345400D01*
X210311Y345388D01*
X210291Y345376D01*
X210276Y345365D01*
X210256Y345357D01*
X210240Y345349D01*
X210220Y345341D01*
X210201Y345333D01*
X210181Y345325D01*
X210161Y345321D01*
X210142Y345317D01*
X210118D01*
X210098Y345313D01*
X206988D01*
X206968Y345317D01*
X206945D01*
X206925Y345321D01*
X206906Y345325D01*
X206886Y345333D01*
X206866Y345341D01*
X206846Y345349D01*
X206831Y345357D01*
X206811Y345365D01*
X206795Y345376D01*
X206776Y345388D01*
X206760Y345400D01*
X206744Y345416D01*
X206728Y345428D01*
X206716Y345443D01*
X206701Y345459D01*
X206689Y345475D01*
X206677Y345495D01*
X206665Y345510D01*
X206657Y345530D01*
X206650Y345546D01*
X206642Y345565D01*
X206634Y345585D01*
X206626Y345605D01*
X206622Y345624D01*
X206618Y345644D01*
Y345668D01*
X206614Y345687D01*
Y347420D01*
X206618Y347439D01*
Y347463D01*
X206622Y347483D01*
X206626Y347502D01*
X206634Y347522D01*
X206642Y347542D01*
X206650Y347561D01*
X206657Y347577D01*
X206665Y347597D01*
X206677Y347613D01*
X206689Y347632D01*
X206701Y347648D01*
X206716Y347664D01*
X206728Y347679D01*
X206744Y347691D01*
X206760Y347707D01*
X206776Y347719D01*
X206795Y347731D01*
X206811Y347743D01*
X206831Y347750D01*
X206846Y347758D01*
X206866Y347766D01*
X206886Y347774D01*
X206906Y347782D01*
X206925Y347786D01*
X206945Y347790D01*
X206968D01*
X206988Y347794D01*
X210098D01*
X210118Y347790D01*
D02*
G37*
G36*
X296732Y343459D02*
X296756D01*
X296776Y343455D01*
X296795Y343451D01*
X296815Y343443D01*
X296835Y343435D01*
X296854Y343428D01*
X296870Y343420D01*
X296890Y343412D01*
X296905Y343400D01*
X296925Y343388D01*
X296941Y343376D01*
X296957Y343361D01*
X296972Y343349D01*
X296984Y343333D01*
X297000Y343317D01*
X297012Y343302D01*
X297024Y343282D01*
X297035Y343266D01*
X297043Y343247D01*
X297051Y343231D01*
X297059Y343211D01*
X297067Y343191D01*
X297075Y343172D01*
X297079Y343152D01*
X297083Y343132D01*
Y343109D01*
X297087Y343089D01*
Y341357D01*
X297083Y341337D01*
Y341313D01*
X297079Y341294D01*
X297075Y341274D01*
X297067Y341254D01*
X297059Y341235D01*
X297051Y341215D01*
X297043Y341199D01*
X297035Y341179D01*
X297024Y341164D01*
X297012Y341144D01*
X297000Y341128D01*
X296984Y341113D01*
X296972Y341097D01*
X296957Y341085D01*
X296941Y341069D01*
X296925Y341057D01*
X296905Y341046D01*
X296890Y341034D01*
X296870Y341026D01*
X296854Y341018D01*
X296835Y341010D01*
X296815Y341002D01*
X296795Y340995D01*
X296776Y340990D01*
X296756Y340987D01*
X296732D01*
X296713Y340983D01*
X293602D01*
X293583Y340987D01*
X293559D01*
X293539Y340990D01*
X293520Y340995D01*
X293500Y341002D01*
X293480Y341010D01*
X293461Y341018D01*
X293445Y341026D01*
X293425Y341034D01*
X293409Y341046D01*
X293390Y341057D01*
X293374Y341069D01*
X293358Y341085D01*
X293342Y341097D01*
X293331Y341113D01*
X293315Y341128D01*
X293303Y341144D01*
X293291Y341164D01*
X293280Y341179D01*
X293272Y341199D01*
X293264Y341215D01*
X293256Y341235D01*
X293248Y341254D01*
X293240Y341274D01*
X293236Y341294D01*
X293232Y341313D01*
Y341337D01*
X293228Y341357D01*
Y343089D01*
X293232Y343109D01*
Y343132D01*
X293236Y343152D01*
X293240Y343172D01*
X293248Y343191D01*
X293256Y343211D01*
X293264Y343231D01*
X293272Y343247D01*
X293280Y343266D01*
X293291Y343282D01*
X293303Y343302D01*
X293315Y343317D01*
X293331Y343333D01*
X293342Y343349D01*
X293358Y343361D01*
X293374Y343376D01*
X293390Y343388D01*
X293409Y343400D01*
X293425Y343412D01*
X293445Y343420D01*
X293461Y343428D01*
X293480Y343435D01*
X293500Y343443D01*
X293520Y343451D01*
X293539Y343455D01*
X293559Y343459D01*
X293583D01*
X293602Y343463D01*
X296713D01*
X296732Y343459D01*
D02*
G37*
G36*
X210118D02*
X210142D01*
X210161Y343455D01*
X210181Y343451D01*
X210201Y343443D01*
X210220Y343435D01*
X210240Y343428D01*
X210256Y343420D01*
X210276Y343412D01*
X210291Y343400D01*
X210311Y343388D01*
X210327Y343376D01*
X210343Y343361D01*
X210358Y343349D01*
X210370Y343333D01*
X210386Y343317D01*
X210398Y343302D01*
X210409Y343282D01*
X210421Y343266D01*
X210429Y343247D01*
X210437Y343231D01*
X210445Y343211D01*
X210453Y343191D01*
X210461Y343172D01*
X210465Y343152D01*
X210469Y343132D01*
Y343109D01*
X210472Y343089D01*
Y341357D01*
X210469Y341337D01*
Y341313D01*
X210465Y341294D01*
X210461Y341274D01*
X210453Y341254D01*
X210445Y341235D01*
X210437Y341215D01*
X210429Y341199D01*
X210421Y341179D01*
X210409Y341164D01*
X210398Y341144D01*
X210386Y341128D01*
X210370Y341113D01*
X210358Y341097D01*
X210343Y341085D01*
X210327Y341069D01*
X210311Y341057D01*
X210291Y341046D01*
X210276Y341034D01*
X210256Y341026D01*
X210240Y341018D01*
X210220Y341010D01*
X210201Y341002D01*
X210181Y340995D01*
X210161Y340990D01*
X210142Y340987D01*
X210118D01*
X210098Y340983D01*
X206988D01*
X206968Y340987D01*
X206945D01*
X206925Y340990D01*
X206906Y340995D01*
X206886Y341002D01*
X206866Y341010D01*
X206846Y341018D01*
X206831Y341026D01*
X206811Y341034D01*
X206795Y341046D01*
X206776Y341057D01*
X206760Y341069D01*
X206744Y341085D01*
X206728Y341097D01*
X206716Y341113D01*
X206701Y341128D01*
X206689Y341144D01*
X206677Y341164D01*
X206665Y341179D01*
X206657Y341199D01*
X206650Y341215D01*
X206642Y341235D01*
X206634Y341254D01*
X206626Y341274D01*
X206622Y341294D01*
X206618Y341313D01*
Y341337D01*
X206614Y341357D01*
Y343089D01*
X206618Y343109D01*
Y343132D01*
X206622Y343152D01*
X206626Y343172D01*
X206634Y343191D01*
X206642Y343211D01*
X206650Y343231D01*
X206657Y343247D01*
X206665Y343266D01*
X206677Y343282D01*
X206689Y343302D01*
X206701Y343317D01*
X206716Y343333D01*
X206728Y343349D01*
X206744Y343361D01*
X206760Y343376D01*
X206776Y343388D01*
X206795Y343400D01*
X206811Y343412D01*
X206831Y343420D01*
X206846Y343428D01*
X206866Y343435D01*
X206886Y343443D01*
X206906Y343451D01*
X206925Y343455D01*
X206945Y343459D01*
X206968D01*
X206988Y343463D01*
X210098D01*
X210118Y343459D01*
D02*
G37*
G36*
X296732Y339128D02*
X296756D01*
X296776Y339124D01*
X296795Y339121D01*
X296815Y339113D01*
X296835Y339105D01*
X296854Y339097D01*
X296870Y339089D01*
X296890Y339081D01*
X296905Y339069D01*
X296925Y339057D01*
X296941Y339046D01*
X296957Y339030D01*
X296972Y339018D01*
X296984Y339002D01*
X297000Y338987D01*
X297012Y338971D01*
X297024Y338951D01*
X297035Y338935D01*
X297043Y338916D01*
X297051Y338900D01*
X297059Y338880D01*
X297067Y338861D01*
X297075Y338841D01*
X297079Y338821D01*
X297083Y338802D01*
Y338778D01*
X297087Y338758D01*
Y337026D01*
X297083Y337006D01*
Y336983D01*
X297079Y336963D01*
X297075Y336943D01*
X297067Y336924D01*
X297059Y336904D01*
X297051Y336884D01*
X297043Y336869D01*
X297035Y336849D01*
X297024Y336833D01*
X297012Y336813D01*
X297000Y336798D01*
X296984Y336782D01*
X296972Y336766D01*
X296957Y336754D01*
X296941Y336739D01*
X296925Y336727D01*
X296905Y336715D01*
X296890Y336703D01*
X296870Y336695D01*
X296854Y336687D01*
X296835Y336680D01*
X296815Y336672D01*
X296795Y336664D01*
X296776Y336660D01*
X296756Y336656D01*
X296732D01*
X296713Y336652D01*
X293602D01*
X293583Y336656D01*
X293559D01*
X293539Y336660D01*
X293520Y336664D01*
X293500Y336672D01*
X293480Y336680D01*
X293461Y336687D01*
X293445Y336695D01*
X293425Y336703D01*
X293409Y336715D01*
X293390Y336727D01*
X293374Y336739D01*
X293358Y336754D01*
X293342Y336766D01*
X293331Y336782D01*
X293315Y336798D01*
X293303Y336813D01*
X293291Y336833D01*
X293280Y336849D01*
X293272Y336869D01*
X293264Y336884D01*
X293256Y336904D01*
X293248Y336924D01*
X293240Y336943D01*
X293236Y336963D01*
X293232Y336983D01*
Y337006D01*
X293228Y337026D01*
Y338758D01*
X293232Y338778D01*
Y338802D01*
X293236Y338821D01*
X293240Y338841D01*
X293248Y338861D01*
X293256Y338880D01*
X293264Y338900D01*
X293272Y338916D01*
X293280Y338935D01*
X293291Y338951D01*
X293303Y338971D01*
X293315Y338987D01*
X293331Y339002D01*
X293342Y339018D01*
X293358Y339030D01*
X293374Y339046D01*
X293390Y339057D01*
X293409Y339069D01*
X293425Y339081D01*
X293445Y339089D01*
X293461Y339097D01*
X293480Y339105D01*
X293500Y339113D01*
X293520Y339121D01*
X293539Y339124D01*
X293559Y339128D01*
X293583D01*
X293602Y339132D01*
X296713D01*
X296732Y339128D01*
D02*
G37*
G36*
X210118D02*
X210142D01*
X210161Y339124D01*
X210181Y339121D01*
X210201Y339113D01*
X210220Y339105D01*
X210240Y339097D01*
X210256Y339089D01*
X210276Y339081D01*
X210291Y339069D01*
X210311Y339057D01*
X210327Y339046D01*
X210343Y339030D01*
X210358Y339018D01*
X210370Y339002D01*
X210386Y338987D01*
X210398Y338971D01*
X210409Y338951D01*
X210421Y338935D01*
X210429Y338916D01*
X210437Y338900D01*
X210445Y338880D01*
X210453Y338861D01*
X210461Y338841D01*
X210465Y338821D01*
X210469Y338802D01*
Y338778D01*
X210472Y338758D01*
Y337026D01*
X210469Y337006D01*
Y336983D01*
X210465Y336963D01*
X210461Y336943D01*
X210453Y336924D01*
X210445Y336904D01*
X210437Y336884D01*
X210429Y336869D01*
X210421Y336849D01*
X210409Y336833D01*
X210398Y336813D01*
X210386Y336798D01*
X210370Y336782D01*
X210358Y336766D01*
X210343Y336754D01*
X210327Y336739D01*
X210311Y336727D01*
X210291Y336715D01*
X210276Y336703D01*
X210256Y336695D01*
X210240Y336687D01*
X210220Y336680D01*
X210201Y336672D01*
X210181Y336664D01*
X210161Y336660D01*
X210142Y336656D01*
X210118D01*
X210098Y336652D01*
X206988D01*
X206968Y336656D01*
X206945D01*
X206925Y336660D01*
X206906Y336664D01*
X206886Y336672D01*
X206866Y336680D01*
X206846Y336687D01*
X206831Y336695D01*
X206811Y336703D01*
X206795Y336715D01*
X206776Y336727D01*
X206760Y336739D01*
X206744Y336754D01*
X206728Y336766D01*
X206716Y336782D01*
X206701Y336798D01*
X206689Y336813D01*
X206677Y336833D01*
X206665Y336849D01*
X206657Y336869D01*
X206650Y336884D01*
X206642Y336904D01*
X206634Y336924D01*
X206626Y336943D01*
X206622Y336963D01*
X206618Y336983D01*
Y337006D01*
X206614Y337026D01*
Y338758D01*
X206618Y338778D01*
Y338802D01*
X206622Y338821D01*
X206626Y338841D01*
X206634Y338861D01*
X206642Y338880D01*
X206650Y338900D01*
X206657Y338916D01*
X206665Y338935D01*
X206677Y338951D01*
X206689Y338971D01*
X206701Y338987D01*
X206716Y339002D01*
X206728Y339018D01*
X206744Y339030D01*
X206760Y339046D01*
X206776Y339057D01*
X206795Y339069D01*
X206811Y339081D01*
X206831Y339089D01*
X206846Y339097D01*
X206866Y339105D01*
X206886Y339113D01*
X206906Y339121D01*
X206925Y339124D01*
X206945Y339128D01*
X206968D01*
X206988Y339132D01*
X210098D01*
X210118Y339128D01*
D02*
G37*
G36*
X296732Y334798D02*
X296756D01*
X296776Y334794D01*
X296795Y334790D01*
X296815Y334782D01*
X296835Y334774D01*
X296854Y334766D01*
X296870Y334758D01*
X296890Y334750D01*
X296905Y334739D01*
X296925Y334727D01*
X296941Y334715D01*
X296957Y334699D01*
X296972Y334687D01*
X296984Y334672D01*
X297000Y334656D01*
X297012Y334640D01*
X297024Y334620D01*
X297035Y334605D01*
X297043Y334585D01*
X297051Y334569D01*
X297059Y334550D01*
X297067Y334530D01*
X297075Y334510D01*
X297079Y334490D01*
X297083Y334471D01*
Y334447D01*
X297087Y334428D01*
Y332695D01*
X297083Y332676D01*
Y332652D01*
X297079Y332632D01*
X297075Y332613D01*
X297067Y332593D01*
X297059Y332573D01*
X297051Y332554D01*
X297043Y332538D01*
X297035Y332518D01*
X297024Y332502D01*
X297012Y332483D01*
X297000Y332467D01*
X296984Y332451D01*
X296972Y332435D01*
X296957Y332424D01*
X296941Y332408D01*
X296925Y332396D01*
X296905Y332384D01*
X296890Y332372D01*
X296870Y332365D01*
X296854Y332357D01*
X296835Y332349D01*
X296815Y332341D01*
X296795Y332333D01*
X296776Y332329D01*
X296756Y332325D01*
X296732D01*
X296713Y332321D01*
X293602D01*
X293583Y332325D01*
X293559D01*
X293539Y332329D01*
X293520Y332333D01*
X293500Y332341D01*
X293480Y332349D01*
X293461Y332357D01*
X293445Y332365D01*
X293425Y332372D01*
X293409Y332384D01*
X293390Y332396D01*
X293374Y332408D01*
X293358Y332424D01*
X293342Y332435D01*
X293331Y332451D01*
X293315Y332467D01*
X293303Y332483D01*
X293291Y332502D01*
X293280Y332518D01*
X293272Y332538D01*
X293264Y332554D01*
X293256Y332573D01*
X293248Y332593D01*
X293240Y332613D01*
X293236Y332632D01*
X293232Y332652D01*
Y332676D01*
X293228Y332695D01*
Y334428D01*
X293232Y334447D01*
Y334471D01*
X293236Y334490D01*
X293240Y334510D01*
X293248Y334530D01*
X293256Y334550D01*
X293264Y334569D01*
X293272Y334585D01*
X293280Y334605D01*
X293291Y334620D01*
X293303Y334640D01*
X293315Y334656D01*
X293331Y334672D01*
X293342Y334687D01*
X293358Y334699D01*
X293374Y334715D01*
X293390Y334727D01*
X293409Y334739D01*
X293425Y334750D01*
X293445Y334758D01*
X293461Y334766D01*
X293480Y334774D01*
X293500Y334782D01*
X293520Y334790D01*
X293539Y334794D01*
X293559Y334798D01*
X293583D01*
X293602Y334802D01*
X296713D01*
X296732Y334798D01*
D02*
G37*
G36*
X210118D02*
X210142D01*
X210161Y334794D01*
X210181Y334790D01*
X210201Y334782D01*
X210220Y334774D01*
X210240Y334766D01*
X210256Y334758D01*
X210276Y334750D01*
X210291Y334739D01*
X210311Y334727D01*
X210327Y334715D01*
X210343Y334699D01*
X210358Y334687D01*
X210370Y334672D01*
X210386Y334656D01*
X210398Y334640D01*
X210409Y334620D01*
X210421Y334605D01*
X210429Y334585D01*
X210437Y334569D01*
X210445Y334550D01*
X210453Y334530D01*
X210461Y334510D01*
X210465Y334490D01*
X210469Y334471D01*
Y334447D01*
X210472Y334428D01*
Y332695D01*
X210469Y332676D01*
Y332652D01*
X210465Y332632D01*
X210461Y332613D01*
X210453Y332593D01*
X210445Y332573D01*
X210437Y332554D01*
X210429Y332538D01*
X210421Y332518D01*
X210409Y332502D01*
X210398Y332483D01*
X210386Y332467D01*
X210370Y332451D01*
X210358Y332435D01*
X210343Y332424D01*
X210327Y332408D01*
X210311Y332396D01*
X210291Y332384D01*
X210276Y332372D01*
X210256Y332365D01*
X210240Y332357D01*
X210220Y332349D01*
X210201Y332341D01*
X210181Y332333D01*
X210161Y332329D01*
X210142Y332325D01*
X210118D01*
X210098Y332321D01*
X206988D01*
X206968Y332325D01*
X206945D01*
X206925Y332329D01*
X206906Y332333D01*
X206886Y332341D01*
X206866Y332349D01*
X206846Y332357D01*
X206831Y332365D01*
X206811Y332372D01*
X206795Y332384D01*
X206776Y332396D01*
X206760Y332408D01*
X206744Y332424D01*
X206728Y332435D01*
X206716Y332451D01*
X206701Y332467D01*
X206689Y332483D01*
X206677Y332502D01*
X206665Y332518D01*
X206657Y332538D01*
X206650Y332554D01*
X206642Y332573D01*
X206634Y332593D01*
X206626Y332613D01*
X206622Y332632D01*
X206618Y332652D01*
Y332676D01*
X206614Y332695D01*
Y334428D01*
X206618Y334447D01*
Y334471D01*
X206622Y334490D01*
X206626Y334510D01*
X206634Y334530D01*
X206642Y334550D01*
X206650Y334569D01*
X206657Y334585D01*
X206665Y334605D01*
X206677Y334620D01*
X206689Y334640D01*
X206701Y334656D01*
X206716Y334672D01*
X206728Y334687D01*
X206744Y334699D01*
X206760Y334715D01*
X206776Y334727D01*
X206795Y334739D01*
X206811Y334750D01*
X206831Y334758D01*
X206846Y334766D01*
X206866Y334774D01*
X206886Y334782D01*
X206906Y334790D01*
X206925Y334794D01*
X206945Y334798D01*
X206968D01*
X206988Y334802D01*
X210098D01*
X210118Y334798D01*
D02*
G37*
G36*
X296732Y330467D02*
X296756D01*
X296776Y330463D01*
X296795Y330459D01*
X296815Y330451D01*
X296835Y330443D01*
X296854Y330435D01*
X296870Y330428D01*
X296890Y330420D01*
X296905Y330408D01*
X296925Y330396D01*
X296941Y330384D01*
X296957Y330368D01*
X296972Y330357D01*
X296984Y330341D01*
X297000Y330325D01*
X297012Y330309D01*
X297024Y330290D01*
X297035Y330274D01*
X297043Y330254D01*
X297051Y330239D01*
X297059Y330219D01*
X297067Y330199D01*
X297075Y330180D01*
X297079Y330160D01*
X297083Y330140D01*
Y330117D01*
X297087Y330097D01*
Y328365D01*
X297083Y328345D01*
Y328321D01*
X297079Y328302D01*
X297075Y328282D01*
X297067Y328262D01*
X297059Y328242D01*
X297051Y328223D01*
X297043Y328207D01*
X297035Y328187D01*
X297024Y328172D01*
X297012Y328152D01*
X297000Y328136D01*
X296984Y328120D01*
X296972Y328105D01*
X296957Y328093D01*
X296941Y328077D01*
X296925Y328065D01*
X296905Y328053D01*
X296890Y328042D01*
X296870Y328034D01*
X296854Y328026D01*
X296835Y328018D01*
X296815Y328010D01*
X296795Y328002D01*
X296776Y327998D01*
X296756Y327994D01*
X296732D01*
X296713Y327991D01*
X293602D01*
X293583Y327994D01*
X293559D01*
X293539Y327998D01*
X293520Y328002D01*
X293500Y328010D01*
X293480Y328018D01*
X293461Y328026D01*
X293445Y328034D01*
X293425Y328042D01*
X293409Y328053D01*
X293390Y328065D01*
X293374Y328077D01*
X293358Y328093D01*
X293342Y328105D01*
X293331Y328120D01*
X293315Y328136D01*
X293303Y328152D01*
X293291Y328172D01*
X293280Y328187D01*
X293272Y328207D01*
X293264Y328223D01*
X293256Y328242D01*
X293248Y328262D01*
X293240Y328282D01*
X293236Y328302D01*
X293232Y328321D01*
Y328345D01*
X293228Y328365D01*
Y330097D01*
X293232Y330117D01*
Y330140D01*
X293236Y330160D01*
X293240Y330180D01*
X293248Y330199D01*
X293256Y330219D01*
X293264Y330239D01*
X293272Y330254D01*
X293280Y330274D01*
X293291Y330290D01*
X293303Y330309D01*
X293315Y330325D01*
X293331Y330341D01*
X293342Y330357D01*
X293358Y330368D01*
X293374Y330384D01*
X293390Y330396D01*
X293409Y330408D01*
X293425Y330420D01*
X293445Y330428D01*
X293461Y330435D01*
X293480Y330443D01*
X293500Y330451D01*
X293520Y330459D01*
X293539Y330463D01*
X293559Y330467D01*
X293583D01*
X293602Y330471D01*
X296713D01*
X296732Y330467D01*
D02*
G37*
G36*
X210118D02*
X210142D01*
X210161Y330463D01*
X210181Y330459D01*
X210201Y330451D01*
X210220Y330443D01*
X210240Y330435D01*
X210256Y330428D01*
X210276Y330420D01*
X210291Y330408D01*
X210311Y330396D01*
X210327Y330384D01*
X210343Y330368D01*
X210358Y330357D01*
X210370Y330341D01*
X210386Y330325D01*
X210398Y330309D01*
X210409Y330290D01*
X210421Y330274D01*
X210429Y330254D01*
X210437Y330239D01*
X210445Y330219D01*
X210453Y330199D01*
X210461Y330180D01*
X210465Y330160D01*
X210469Y330140D01*
Y330117D01*
X210472Y330097D01*
Y328365D01*
X210469Y328345D01*
Y328321D01*
X210465Y328302D01*
X210461Y328282D01*
X210453Y328262D01*
X210445Y328242D01*
X210437Y328223D01*
X210429Y328207D01*
X210421Y328187D01*
X210409Y328172D01*
X210398Y328152D01*
X210386Y328136D01*
X210370Y328120D01*
X210358Y328105D01*
X210343Y328093D01*
X210327Y328077D01*
X210311Y328065D01*
X210291Y328053D01*
X210276Y328042D01*
X210256Y328034D01*
X210240Y328026D01*
X210220Y328018D01*
X210201Y328010D01*
X210181Y328002D01*
X210161Y327998D01*
X210142Y327994D01*
X210118D01*
X210098Y327991D01*
X206988D01*
X206968Y327994D01*
X206945D01*
X206925Y327998D01*
X206906Y328002D01*
X206886Y328010D01*
X206866Y328018D01*
X206846Y328026D01*
X206831Y328034D01*
X206811Y328042D01*
X206795Y328053D01*
X206776Y328065D01*
X206760Y328077D01*
X206744Y328093D01*
X206728Y328105D01*
X206716Y328120D01*
X206701Y328136D01*
X206689Y328152D01*
X206677Y328172D01*
X206665Y328187D01*
X206657Y328207D01*
X206650Y328223D01*
X206642Y328242D01*
X206634Y328262D01*
X206626Y328282D01*
X206622Y328302D01*
X206618Y328321D01*
Y328345D01*
X206614Y328365D01*
Y330097D01*
X206618Y330117D01*
Y330140D01*
X206622Y330160D01*
X206626Y330180D01*
X206634Y330199D01*
X206642Y330219D01*
X206650Y330239D01*
X206657Y330254D01*
X206665Y330274D01*
X206677Y330290D01*
X206689Y330309D01*
X206701Y330325D01*
X206716Y330341D01*
X206728Y330357D01*
X206744Y330368D01*
X206760Y330384D01*
X206776Y330396D01*
X206795Y330408D01*
X206811Y330420D01*
X206831Y330428D01*
X206846Y330435D01*
X206866Y330443D01*
X206886Y330451D01*
X206906Y330459D01*
X206925Y330463D01*
X206945Y330467D01*
X206968D01*
X206988Y330471D01*
X210098D01*
X210118Y330467D01*
D02*
G37*
G36*
X296732Y326136D02*
X296756D01*
X296776Y326132D01*
X296795Y326128D01*
X296815Y326120D01*
X296835Y326113D01*
X296854Y326105D01*
X296870Y326097D01*
X296890Y326089D01*
X296905Y326077D01*
X296925Y326065D01*
X296941Y326054D01*
X296957Y326038D01*
X296972Y326026D01*
X296984Y326010D01*
X297000Y325994D01*
X297012Y325979D01*
X297024Y325959D01*
X297035Y325943D01*
X297043Y325924D01*
X297051Y325908D01*
X297059Y325888D01*
X297067Y325869D01*
X297075Y325849D01*
X297079Y325829D01*
X297083Y325809D01*
Y325786D01*
X297087Y325766D01*
Y324034D01*
X297083Y324014D01*
Y323991D01*
X297079Y323971D01*
X297075Y323951D01*
X297067Y323932D01*
X297059Y323912D01*
X297051Y323892D01*
X297043Y323876D01*
X297035Y323857D01*
X297024Y323841D01*
X297012Y323821D01*
X297000Y323805D01*
X296984Y323790D01*
X296972Y323774D01*
X296957Y323762D01*
X296941Y323746D01*
X296925Y323735D01*
X296905Y323723D01*
X296890Y323711D01*
X296870Y323703D01*
X296854Y323695D01*
X296835Y323687D01*
X296815Y323679D01*
X296795Y323672D01*
X296776Y323668D01*
X296756Y323664D01*
X296732D01*
X296713Y323660D01*
X293602D01*
X293583Y323664D01*
X293559D01*
X293539Y323668D01*
X293520Y323672D01*
X293500Y323679D01*
X293480Y323687D01*
X293461Y323695D01*
X293445Y323703D01*
X293425Y323711D01*
X293409Y323723D01*
X293390Y323735D01*
X293374Y323746D01*
X293358Y323762D01*
X293342Y323774D01*
X293331Y323790D01*
X293315Y323805D01*
X293303Y323821D01*
X293291Y323841D01*
X293280Y323857D01*
X293272Y323876D01*
X293264Y323892D01*
X293256Y323912D01*
X293248Y323932D01*
X293240Y323951D01*
X293236Y323971D01*
X293232Y323991D01*
Y324014D01*
X293228Y324034D01*
Y325766D01*
X293232Y325786D01*
Y325809D01*
X293236Y325829D01*
X293240Y325849D01*
X293248Y325869D01*
X293256Y325888D01*
X293264Y325908D01*
X293272Y325924D01*
X293280Y325943D01*
X293291Y325959D01*
X293303Y325979D01*
X293315Y325994D01*
X293331Y326010D01*
X293342Y326026D01*
X293358Y326038D01*
X293374Y326054D01*
X293390Y326065D01*
X293409Y326077D01*
X293425Y326089D01*
X293445Y326097D01*
X293461Y326105D01*
X293480Y326113D01*
X293500Y326120D01*
X293520Y326128D01*
X293539Y326132D01*
X293559Y326136D01*
X293583D01*
X293602Y326140D01*
X296713D01*
X296732Y326136D01*
D02*
G37*
G36*
X210118D02*
X210142D01*
X210161Y326132D01*
X210181Y326128D01*
X210201Y326120D01*
X210220Y326113D01*
X210240Y326105D01*
X210256Y326097D01*
X210276Y326089D01*
X210291Y326077D01*
X210311Y326065D01*
X210327Y326054D01*
X210343Y326038D01*
X210358Y326026D01*
X210370Y326010D01*
X210386Y325994D01*
X210398Y325979D01*
X210409Y325959D01*
X210421Y325943D01*
X210429Y325924D01*
X210437Y325908D01*
X210445Y325888D01*
X210453Y325869D01*
X210461Y325849D01*
X210465Y325829D01*
X210469Y325809D01*
Y325786D01*
X210472Y325766D01*
Y324034D01*
X210469Y324014D01*
Y323991D01*
X210465Y323971D01*
X210461Y323951D01*
X210453Y323932D01*
X210445Y323912D01*
X210437Y323892D01*
X210429Y323876D01*
X210421Y323857D01*
X210409Y323841D01*
X210398Y323821D01*
X210386Y323805D01*
X210370Y323790D01*
X210358Y323774D01*
X210343Y323762D01*
X210327Y323746D01*
X210311Y323735D01*
X210291Y323723D01*
X210276Y323711D01*
X210256Y323703D01*
X210240Y323695D01*
X210220Y323687D01*
X210201Y323679D01*
X210181Y323672D01*
X210161Y323668D01*
X210142Y323664D01*
X210118D01*
X210098Y323660D01*
X206988D01*
X206968Y323664D01*
X206945D01*
X206925Y323668D01*
X206906Y323672D01*
X206886Y323679D01*
X206866Y323687D01*
X206846Y323695D01*
X206831Y323703D01*
X206811Y323711D01*
X206795Y323723D01*
X206776Y323735D01*
X206760Y323746D01*
X206744Y323762D01*
X206728Y323774D01*
X206716Y323790D01*
X206701Y323805D01*
X206689Y323821D01*
X206677Y323841D01*
X206665Y323857D01*
X206657Y323876D01*
X206650Y323892D01*
X206642Y323912D01*
X206634Y323932D01*
X206626Y323951D01*
X206622Y323971D01*
X206618Y323991D01*
Y324014D01*
X206614Y324034D01*
Y325766D01*
X206618Y325786D01*
Y325809D01*
X206622Y325829D01*
X206626Y325849D01*
X206634Y325869D01*
X206642Y325888D01*
X206650Y325908D01*
X206657Y325924D01*
X206665Y325943D01*
X206677Y325959D01*
X206689Y325979D01*
X206701Y325994D01*
X206716Y326010D01*
X206728Y326026D01*
X206744Y326038D01*
X206760Y326054D01*
X206776Y326065D01*
X206795Y326077D01*
X206811Y326089D01*
X206831Y326097D01*
X206846Y326105D01*
X206866Y326113D01*
X206886Y326120D01*
X206906Y326128D01*
X206925Y326132D01*
X206945Y326136D01*
X206968D01*
X206988Y326140D01*
X210098D01*
X210118Y326136D01*
D02*
G37*
G36*
X296732Y321806D02*
X296756D01*
X296776Y321802D01*
X296795Y321798D01*
X296815Y321790D01*
X296835Y321782D01*
X296854Y321774D01*
X296870Y321766D01*
X296890Y321758D01*
X296905Y321746D01*
X296925Y321735D01*
X296941Y321723D01*
X296957Y321707D01*
X296972Y321695D01*
X296984Y321679D01*
X297000Y321664D01*
X297012Y321648D01*
X297024Y321628D01*
X297035Y321613D01*
X297043Y321593D01*
X297051Y321577D01*
X297059Y321557D01*
X297067Y321538D01*
X297075Y321518D01*
X297079Y321498D01*
X297083Y321479D01*
Y321455D01*
X297087Y321435D01*
Y319703D01*
X297083Y319684D01*
Y319660D01*
X297079Y319640D01*
X297075Y319620D01*
X297067Y319601D01*
X297059Y319581D01*
X297051Y319561D01*
X297043Y319546D01*
X297035Y319526D01*
X297024Y319510D01*
X297012Y319491D01*
X297000Y319475D01*
X296984Y319459D01*
X296972Y319443D01*
X296957Y319431D01*
X296941Y319416D01*
X296925Y319404D01*
X296905Y319392D01*
X296890Y319380D01*
X296870Y319372D01*
X296854Y319365D01*
X296835Y319357D01*
X296815Y319349D01*
X296795Y319341D01*
X296776Y319337D01*
X296756Y319333D01*
X296732D01*
X296713Y319329D01*
X293602D01*
X293583Y319333D01*
X293559D01*
X293539Y319337D01*
X293520Y319341D01*
X293500Y319349D01*
X293480Y319357D01*
X293461Y319365D01*
X293445Y319372D01*
X293425Y319380D01*
X293409Y319392D01*
X293390Y319404D01*
X293374Y319416D01*
X293358Y319431D01*
X293342Y319443D01*
X293331Y319459D01*
X293315Y319475D01*
X293303Y319491D01*
X293291Y319510D01*
X293280Y319526D01*
X293272Y319546D01*
X293264Y319561D01*
X293256Y319581D01*
X293248Y319601D01*
X293240Y319620D01*
X293236Y319640D01*
X293232Y319660D01*
Y319684D01*
X293228Y319703D01*
Y321435D01*
X293232Y321455D01*
Y321479D01*
X293236Y321498D01*
X293240Y321518D01*
X293248Y321538D01*
X293256Y321557D01*
X293264Y321577D01*
X293272Y321593D01*
X293280Y321613D01*
X293291Y321628D01*
X293303Y321648D01*
X293315Y321664D01*
X293331Y321679D01*
X293342Y321695D01*
X293358Y321707D01*
X293374Y321723D01*
X293390Y321735D01*
X293409Y321746D01*
X293425Y321758D01*
X293445Y321766D01*
X293461Y321774D01*
X293480Y321782D01*
X293500Y321790D01*
X293520Y321798D01*
X293539Y321802D01*
X293559Y321806D01*
X293583D01*
X293602Y321809D01*
X296713D01*
X296732Y321806D01*
D02*
G37*
G36*
X210118D02*
X210142D01*
X210161Y321802D01*
X210181Y321798D01*
X210201Y321790D01*
X210220Y321782D01*
X210240Y321774D01*
X210256Y321766D01*
X210276Y321758D01*
X210291Y321746D01*
X210311Y321735D01*
X210327Y321723D01*
X210343Y321707D01*
X210358Y321695D01*
X210370Y321679D01*
X210386Y321664D01*
X210398Y321648D01*
X210409Y321628D01*
X210421Y321613D01*
X210429Y321593D01*
X210437Y321577D01*
X210445Y321557D01*
X210453Y321538D01*
X210461Y321518D01*
X210465Y321498D01*
X210469Y321479D01*
Y321455D01*
X210472Y321435D01*
Y319703D01*
X210469Y319684D01*
Y319660D01*
X210465Y319640D01*
X210461Y319620D01*
X210453Y319601D01*
X210445Y319581D01*
X210437Y319561D01*
X210429Y319546D01*
X210421Y319526D01*
X210409Y319510D01*
X210398Y319491D01*
X210386Y319475D01*
X210370Y319459D01*
X210358Y319443D01*
X210343Y319431D01*
X210327Y319416D01*
X210311Y319404D01*
X210291Y319392D01*
X210276Y319380D01*
X210256Y319372D01*
X210240Y319365D01*
X210220Y319357D01*
X210201Y319349D01*
X210181Y319341D01*
X210161Y319337D01*
X210142Y319333D01*
X210118D01*
X210098Y319329D01*
X206988D01*
X206968Y319333D01*
X206945D01*
X206925Y319337D01*
X206906Y319341D01*
X206886Y319349D01*
X206866Y319357D01*
X206846Y319365D01*
X206831Y319372D01*
X206811Y319380D01*
X206795Y319392D01*
X206776Y319404D01*
X206760Y319416D01*
X206744Y319431D01*
X206728Y319443D01*
X206716Y319459D01*
X206701Y319475D01*
X206689Y319491D01*
X206677Y319510D01*
X206665Y319526D01*
X206657Y319546D01*
X206650Y319561D01*
X206642Y319581D01*
X206634Y319601D01*
X206626Y319620D01*
X206622Y319640D01*
X206618Y319660D01*
Y319684D01*
X206614Y319703D01*
Y321435D01*
X206618Y321455D01*
Y321479D01*
X206622Y321498D01*
X206626Y321518D01*
X206634Y321538D01*
X206642Y321557D01*
X206650Y321577D01*
X206657Y321593D01*
X206665Y321613D01*
X206677Y321628D01*
X206689Y321648D01*
X206701Y321664D01*
X206716Y321679D01*
X206728Y321695D01*
X206744Y321707D01*
X206760Y321723D01*
X206776Y321735D01*
X206795Y321746D01*
X206811Y321758D01*
X206831Y321766D01*
X206846Y321774D01*
X206866Y321782D01*
X206886Y321790D01*
X206906Y321798D01*
X206925Y321802D01*
X206945Y321806D01*
X206968D01*
X206988Y321809D01*
X210098D01*
X210118Y321806D01*
D02*
G37*
G36*
X290925Y314620D02*
X290949D01*
X290968Y314616D01*
X290988Y314613D01*
X291008Y314605D01*
X291027Y314597D01*
X291047Y314589D01*
X291063Y314581D01*
X291083Y314573D01*
X291098Y314561D01*
X291118Y314550D01*
X291134Y314538D01*
X291150Y314522D01*
X291165Y314510D01*
X291177Y314494D01*
X291193Y314479D01*
X291205Y314463D01*
X291216Y314443D01*
X291228Y314428D01*
X291236Y314408D01*
X291244Y314392D01*
X291252Y314372D01*
X291260Y314353D01*
X291268Y314333D01*
X291272Y314313D01*
X291276Y314294D01*
Y314270D01*
X291280Y314250D01*
Y311140D01*
X291276Y311121D01*
Y311097D01*
X291272Y311077D01*
X291268Y311057D01*
X291260Y311038D01*
X291252Y311018D01*
X291244Y310998D01*
X291236Y310983D01*
X291228Y310963D01*
X291216Y310947D01*
X291205Y310928D01*
X291193Y310912D01*
X291177Y310896D01*
X291165Y310880D01*
X291150Y310869D01*
X291134Y310853D01*
X291118Y310841D01*
X291098Y310829D01*
X291083Y310817D01*
X291063Y310809D01*
X291047Y310802D01*
X291027Y310794D01*
X291008Y310786D01*
X290988Y310778D01*
X290968Y310774D01*
X290949Y310770D01*
X290925D01*
X290905Y310766D01*
X289173D01*
X289154Y310770D01*
X289130D01*
X289110Y310774D01*
X289090Y310778D01*
X289071Y310786D01*
X289051Y310794D01*
X289031Y310802D01*
X289016Y310809D01*
X288996Y310817D01*
X288980Y310829D01*
X288961Y310841D01*
X288945Y310853D01*
X288929Y310869D01*
X288913Y310880D01*
X288901Y310896D01*
X288886Y310912D01*
X288874Y310928D01*
X288862Y310947D01*
X288850Y310963D01*
X288843Y310983D01*
X288835Y310998D01*
X288827Y311018D01*
X288819Y311038D01*
X288811Y311057D01*
X288807Y311077D01*
X288803Y311097D01*
Y311121D01*
X288799Y311140D01*
Y314250D01*
X288803Y314270D01*
Y314294D01*
X288807Y314313D01*
X288811Y314333D01*
X288819Y314353D01*
X288827Y314372D01*
X288835Y314392D01*
X288843Y314408D01*
X288850Y314428D01*
X288862Y314443D01*
X288874Y314463D01*
X288886Y314479D01*
X288901Y314494D01*
X288913Y314510D01*
X288929Y314522D01*
X288945Y314538D01*
X288961Y314550D01*
X288980Y314561D01*
X288996Y314573D01*
X289016Y314581D01*
X289031Y314589D01*
X289051Y314597D01*
X289071Y314605D01*
X289090Y314613D01*
X289110Y314616D01*
X289130Y314620D01*
X289154D01*
X289173Y314624D01*
X290905D01*
X290925Y314620D01*
D02*
G37*
G36*
X286594D02*
X286618D01*
X286638Y314616D01*
X286657Y314613D01*
X286677Y314605D01*
X286697Y314597D01*
X286717Y314589D01*
X286732Y314581D01*
X286752Y314573D01*
X286768Y314561D01*
X286787Y314550D01*
X286803Y314538D01*
X286819Y314522D01*
X286835Y314510D01*
X286846Y314494D01*
X286862Y314479D01*
X286874Y314463D01*
X286886Y314443D01*
X286898Y314428D01*
X286906Y314408D01*
X286913Y314392D01*
X286921Y314372D01*
X286929Y314353D01*
X286937Y314333D01*
X286941Y314313D01*
X286945Y314294D01*
Y314270D01*
X286949Y314250D01*
Y311140D01*
X286945Y311121D01*
Y311097D01*
X286941Y311077D01*
X286937Y311057D01*
X286929Y311038D01*
X286921Y311018D01*
X286913Y310998D01*
X286906Y310983D01*
X286898Y310963D01*
X286886Y310947D01*
X286874Y310928D01*
X286862Y310912D01*
X286846Y310896D01*
X286835Y310880D01*
X286819Y310869D01*
X286803Y310853D01*
X286787Y310841D01*
X286768Y310829D01*
X286752Y310817D01*
X286732Y310809D01*
X286717Y310802D01*
X286697Y310794D01*
X286677Y310786D01*
X286657Y310778D01*
X286638Y310774D01*
X286618Y310770D01*
X286594D01*
X286575Y310766D01*
X284842D01*
X284823Y310770D01*
X284799D01*
X284780Y310774D01*
X284760Y310778D01*
X284740Y310786D01*
X284720Y310794D01*
X284701Y310802D01*
X284685Y310809D01*
X284665Y310817D01*
X284650Y310829D01*
X284630Y310841D01*
X284614Y310853D01*
X284598Y310869D01*
X284583Y310880D01*
X284571Y310896D01*
X284555Y310912D01*
X284543Y310928D01*
X284531Y310947D01*
X284520Y310963D01*
X284512Y310983D01*
X284504Y310998D01*
X284496Y311018D01*
X284488Y311038D01*
X284480Y311057D01*
X284476Y311077D01*
X284472Y311097D01*
Y311121D01*
X284469Y311140D01*
Y314250D01*
X284472Y314270D01*
Y314294D01*
X284476Y314313D01*
X284480Y314333D01*
X284488Y314353D01*
X284496Y314372D01*
X284504Y314392D01*
X284512Y314408D01*
X284520Y314428D01*
X284531Y314443D01*
X284543Y314463D01*
X284555Y314479D01*
X284571Y314494D01*
X284583Y314510D01*
X284598Y314522D01*
X284614Y314538D01*
X284630Y314550D01*
X284650Y314561D01*
X284665Y314573D01*
X284685Y314581D01*
X284701Y314589D01*
X284720Y314597D01*
X284740Y314605D01*
X284760Y314613D01*
X284780Y314616D01*
X284799Y314620D01*
X284823D01*
X284842Y314624D01*
X286575D01*
X286594Y314620D01*
D02*
G37*
G36*
X282264D02*
X282287D01*
X282307Y314616D01*
X282327Y314613D01*
X282346Y314605D01*
X282366Y314597D01*
X282386Y314589D01*
X282401Y314581D01*
X282421Y314573D01*
X282437Y314561D01*
X282457Y314550D01*
X282472Y314538D01*
X282488Y314522D01*
X282504Y314510D01*
X282516Y314494D01*
X282531Y314479D01*
X282543Y314463D01*
X282555Y314443D01*
X282567Y314428D01*
X282575Y314408D01*
X282583Y314392D01*
X282591Y314372D01*
X282598Y314353D01*
X282606Y314333D01*
X282610Y314313D01*
X282614Y314294D01*
Y314270D01*
X282618Y314250D01*
Y311140D01*
X282614Y311121D01*
Y311097D01*
X282610Y311077D01*
X282606Y311057D01*
X282598Y311038D01*
X282591Y311018D01*
X282583Y310998D01*
X282575Y310983D01*
X282567Y310963D01*
X282555Y310947D01*
X282543Y310928D01*
X282531Y310912D01*
X282516Y310896D01*
X282504Y310880D01*
X282488Y310869D01*
X282472Y310853D01*
X282457Y310841D01*
X282437Y310829D01*
X282421Y310817D01*
X282401Y310809D01*
X282386Y310802D01*
X282366Y310794D01*
X282346Y310786D01*
X282327Y310778D01*
X282307Y310774D01*
X282287Y310770D01*
X282264D01*
X282244Y310766D01*
X280512D01*
X280492Y310770D01*
X280469D01*
X280449Y310774D01*
X280429Y310778D01*
X280409Y310786D01*
X280390Y310794D01*
X280370Y310802D01*
X280354Y310809D01*
X280335Y310817D01*
X280319Y310829D01*
X280299Y310841D01*
X280283Y310853D01*
X280268Y310869D01*
X280252Y310880D01*
X280240Y310896D01*
X280224Y310912D01*
X280213Y310928D01*
X280201Y310947D01*
X280189Y310963D01*
X280181Y310983D01*
X280173Y310998D01*
X280165Y311018D01*
X280157Y311038D01*
X280150Y311057D01*
X280146Y311077D01*
X280142Y311097D01*
Y311121D01*
X280138Y311140D01*
Y314250D01*
X280142Y314270D01*
Y314294D01*
X280146Y314313D01*
X280150Y314333D01*
X280157Y314353D01*
X280165Y314372D01*
X280173Y314392D01*
X280181Y314408D01*
X280189Y314428D01*
X280201Y314443D01*
X280213Y314463D01*
X280224Y314479D01*
X280240Y314494D01*
X280252Y314510D01*
X280268Y314522D01*
X280283Y314538D01*
X280299Y314550D01*
X280319Y314561D01*
X280335Y314573D01*
X280354Y314581D01*
X280370Y314589D01*
X280390Y314597D01*
X280409Y314605D01*
X280429Y314613D01*
X280449Y314616D01*
X280469Y314620D01*
X280492D01*
X280512Y314624D01*
X282244D01*
X282264Y314620D01*
D02*
G37*
G36*
X277933D02*
X277957D01*
X277976Y314616D01*
X277996Y314613D01*
X278016Y314605D01*
X278035Y314597D01*
X278055Y314589D01*
X278071Y314581D01*
X278091Y314573D01*
X278106Y314561D01*
X278126Y314550D01*
X278142Y314538D01*
X278157Y314522D01*
X278173Y314510D01*
X278185Y314494D01*
X278201Y314479D01*
X278213Y314463D01*
X278224Y314443D01*
X278236Y314428D01*
X278244Y314408D01*
X278252Y314392D01*
X278260Y314372D01*
X278268Y314353D01*
X278276Y314333D01*
X278279Y314313D01*
X278283Y314294D01*
Y314270D01*
X278287Y314250D01*
Y311140D01*
X278283Y311121D01*
Y311097D01*
X278279Y311077D01*
X278276Y311057D01*
X278268Y311038D01*
X278260Y311018D01*
X278252Y310998D01*
X278244Y310983D01*
X278236Y310963D01*
X278224Y310947D01*
X278213Y310928D01*
X278201Y310912D01*
X278185Y310896D01*
X278173Y310880D01*
X278157Y310869D01*
X278142Y310853D01*
X278126Y310841D01*
X278106Y310829D01*
X278091Y310817D01*
X278071Y310809D01*
X278055Y310802D01*
X278035Y310794D01*
X278016Y310786D01*
X277996Y310778D01*
X277976Y310774D01*
X277957Y310770D01*
X277933D01*
X277913Y310766D01*
X276181D01*
X276161Y310770D01*
X276138D01*
X276118Y310774D01*
X276098Y310778D01*
X276079Y310786D01*
X276059Y310794D01*
X276039Y310802D01*
X276024Y310809D01*
X276004Y310817D01*
X275988Y310829D01*
X275969Y310841D01*
X275953Y310853D01*
X275937Y310869D01*
X275921Y310880D01*
X275909Y310896D01*
X275894Y310912D01*
X275882Y310928D01*
X275870Y310947D01*
X275858Y310963D01*
X275850Y310983D01*
X275842Y310998D01*
X275835Y311018D01*
X275827Y311038D01*
X275819Y311057D01*
X275815Y311077D01*
X275811Y311097D01*
Y311121D01*
X275807Y311140D01*
Y314250D01*
X275811Y314270D01*
Y314294D01*
X275815Y314313D01*
X275819Y314333D01*
X275827Y314353D01*
X275835Y314372D01*
X275842Y314392D01*
X275850Y314408D01*
X275858Y314428D01*
X275870Y314443D01*
X275882Y314463D01*
X275894Y314479D01*
X275909Y314494D01*
X275921Y314510D01*
X275937Y314522D01*
X275953Y314538D01*
X275969Y314550D01*
X275988Y314561D01*
X276004Y314573D01*
X276024Y314581D01*
X276039Y314589D01*
X276059Y314597D01*
X276079Y314605D01*
X276098Y314613D01*
X276118Y314616D01*
X276138Y314620D01*
X276161D01*
X276181Y314624D01*
X277913D01*
X277933Y314620D01*
D02*
G37*
G36*
X273602D02*
X273626D01*
X273646Y314616D01*
X273665Y314613D01*
X273685Y314605D01*
X273705Y314597D01*
X273724Y314589D01*
X273740Y314581D01*
X273760Y314573D01*
X273776Y314561D01*
X273795Y314550D01*
X273811Y314538D01*
X273827Y314522D01*
X273843Y314510D01*
X273854Y314494D01*
X273870Y314479D01*
X273882Y314463D01*
X273894Y314443D01*
X273905Y314428D01*
X273913Y314408D01*
X273921Y314392D01*
X273929Y314372D01*
X273937Y314353D01*
X273945Y314333D01*
X273949Y314313D01*
X273953Y314294D01*
Y314270D01*
X273957Y314250D01*
Y311140D01*
X273953Y311121D01*
Y311097D01*
X273949Y311077D01*
X273945Y311057D01*
X273937Y311038D01*
X273929Y311018D01*
X273921Y310998D01*
X273913Y310983D01*
X273905Y310963D01*
X273894Y310947D01*
X273882Y310928D01*
X273870Y310912D01*
X273854Y310896D01*
X273843Y310880D01*
X273827Y310869D01*
X273811Y310853D01*
X273795Y310841D01*
X273776Y310829D01*
X273760Y310817D01*
X273740Y310809D01*
X273724Y310802D01*
X273705Y310794D01*
X273685Y310786D01*
X273665Y310778D01*
X273646Y310774D01*
X273626Y310770D01*
X273602D01*
X273583Y310766D01*
X271850D01*
X271831Y310770D01*
X271807D01*
X271787Y310774D01*
X271768Y310778D01*
X271748Y310786D01*
X271728Y310794D01*
X271709Y310802D01*
X271693Y310809D01*
X271673Y310817D01*
X271657Y310829D01*
X271638Y310841D01*
X271622Y310853D01*
X271606Y310869D01*
X271590Y310880D01*
X271579Y310896D01*
X271563Y310912D01*
X271551Y310928D01*
X271539Y310947D01*
X271528Y310963D01*
X271520Y310983D01*
X271512Y310998D01*
X271504Y311018D01*
X271496Y311038D01*
X271488Y311057D01*
X271484Y311077D01*
X271480Y311097D01*
Y311121D01*
X271476Y311140D01*
Y314250D01*
X271480Y314270D01*
Y314294D01*
X271484Y314313D01*
X271488Y314333D01*
X271496Y314353D01*
X271504Y314372D01*
X271512Y314392D01*
X271520Y314408D01*
X271528Y314428D01*
X271539Y314443D01*
X271551Y314463D01*
X271563Y314479D01*
X271579Y314494D01*
X271590Y314510D01*
X271606Y314522D01*
X271622Y314538D01*
X271638Y314550D01*
X271657Y314561D01*
X271673Y314573D01*
X271693Y314581D01*
X271709Y314589D01*
X271728Y314597D01*
X271748Y314605D01*
X271768Y314613D01*
X271787Y314616D01*
X271807Y314620D01*
X271831D01*
X271850Y314624D01*
X273583D01*
X273602Y314620D01*
D02*
G37*
G36*
X269272D02*
X269295D01*
X269315Y314616D01*
X269335Y314613D01*
X269354Y314605D01*
X269374Y314597D01*
X269394Y314589D01*
X269409Y314581D01*
X269429Y314573D01*
X269445Y314561D01*
X269464Y314550D01*
X269480Y314538D01*
X269496Y314522D01*
X269512Y314510D01*
X269524Y314494D01*
X269539Y314479D01*
X269551Y314463D01*
X269563Y314443D01*
X269575Y314428D01*
X269583Y314408D01*
X269590Y314392D01*
X269598Y314372D01*
X269606Y314353D01*
X269614Y314333D01*
X269618Y314313D01*
X269622Y314294D01*
Y314270D01*
X269626Y314250D01*
Y311140D01*
X269622Y311121D01*
Y311097D01*
X269618Y311077D01*
X269614Y311057D01*
X269606Y311038D01*
X269598Y311018D01*
X269590Y310998D01*
X269583Y310983D01*
X269575Y310963D01*
X269563Y310947D01*
X269551Y310928D01*
X269539Y310912D01*
X269524Y310896D01*
X269512Y310880D01*
X269496Y310869D01*
X269480Y310853D01*
X269464Y310841D01*
X269445Y310829D01*
X269429Y310817D01*
X269409Y310809D01*
X269394Y310802D01*
X269374Y310794D01*
X269354Y310786D01*
X269335Y310778D01*
X269315Y310774D01*
X269295Y310770D01*
X269272D01*
X269252Y310766D01*
X267520D01*
X267500Y310770D01*
X267476D01*
X267457Y310774D01*
X267437Y310778D01*
X267417Y310786D01*
X267398Y310794D01*
X267378Y310802D01*
X267362Y310809D01*
X267342Y310817D01*
X267327Y310829D01*
X267307Y310841D01*
X267291Y310853D01*
X267276Y310869D01*
X267260Y310880D01*
X267248Y310896D01*
X267232Y310912D01*
X267220Y310928D01*
X267209Y310947D01*
X267197Y310963D01*
X267189Y310983D01*
X267181Y310998D01*
X267173Y311018D01*
X267165Y311038D01*
X267157Y311057D01*
X267154Y311077D01*
X267150Y311097D01*
Y311121D01*
X267146Y311140D01*
Y314250D01*
X267150Y314270D01*
Y314294D01*
X267154Y314313D01*
X267157Y314333D01*
X267165Y314353D01*
X267173Y314372D01*
X267181Y314392D01*
X267189Y314408D01*
X267197Y314428D01*
X267209Y314443D01*
X267220Y314463D01*
X267232Y314479D01*
X267248Y314494D01*
X267260Y314510D01*
X267276Y314522D01*
X267291Y314538D01*
X267307Y314550D01*
X267327Y314561D01*
X267342Y314573D01*
X267362Y314581D01*
X267378Y314589D01*
X267398Y314597D01*
X267417Y314605D01*
X267437Y314613D01*
X267457Y314616D01*
X267476Y314620D01*
X267500D01*
X267520Y314624D01*
X269252D01*
X269272Y314620D01*
D02*
G37*
G36*
X264941D02*
X264965D01*
X264984Y314616D01*
X265004Y314613D01*
X265024Y314605D01*
X265043Y314597D01*
X265063Y314589D01*
X265079Y314581D01*
X265098Y314573D01*
X265114Y314561D01*
X265134Y314550D01*
X265150Y314538D01*
X265165Y314522D01*
X265181Y314510D01*
X265193Y314494D01*
X265209Y314479D01*
X265220Y314463D01*
X265232Y314443D01*
X265244Y314428D01*
X265252Y314408D01*
X265260Y314392D01*
X265268Y314372D01*
X265276Y314353D01*
X265283Y314333D01*
X265287Y314313D01*
X265291Y314294D01*
Y314270D01*
X265295Y314250D01*
Y311140D01*
X265291Y311121D01*
Y311097D01*
X265287Y311077D01*
X265283Y311057D01*
X265276Y311038D01*
X265268Y311018D01*
X265260Y310998D01*
X265252Y310983D01*
X265244Y310963D01*
X265232Y310947D01*
X265220Y310928D01*
X265209Y310912D01*
X265193Y310896D01*
X265181Y310880D01*
X265165Y310869D01*
X265150Y310853D01*
X265134Y310841D01*
X265114Y310829D01*
X265098Y310817D01*
X265079Y310809D01*
X265063Y310802D01*
X265043Y310794D01*
X265024Y310786D01*
X265004Y310778D01*
X264984Y310774D01*
X264965Y310770D01*
X264941D01*
X264921Y310766D01*
X263189D01*
X263169Y310770D01*
X263146D01*
X263126Y310774D01*
X263106Y310778D01*
X263087Y310786D01*
X263067Y310794D01*
X263047Y310802D01*
X263031Y310809D01*
X263012Y310817D01*
X262996Y310829D01*
X262976Y310841D01*
X262961Y310853D01*
X262945Y310869D01*
X262929Y310880D01*
X262917Y310896D01*
X262901Y310912D01*
X262890Y310928D01*
X262878Y310947D01*
X262866Y310963D01*
X262858Y310983D01*
X262850Y310998D01*
X262842Y311018D01*
X262835Y311038D01*
X262827Y311057D01*
X262823Y311077D01*
X262819Y311097D01*
Y311121D01*
X262815Y311140D01*
Y314250D01*
X262819Y314270D01*
Y314294D01*
X262823Y314313D01*
X262827Y314333D01*
X262835Y314353D01*
X262842Y314372D01*
X262850Y314392D01*
X262858Y314408D01*
X262866Y314428D01*
X262878Y314443D01*
X262890Y314463D01*
X262901Y314479D01*
X262917Y314494D01*
X262929Y314510D01*
X262945Y314522D01*
X262961Y314538D01*
X262976Y314550D01*
X262996Y314561D01*
X263012Y314573D01*
X263031Y314581D01*
X263047Y314589D01*
X263067Y314597D01*
X263087Y314605D01*
X263106Y314613D01*
X263126Y314616D01*
X263146Y314620D01*
X263169D01*
X263189Y314624D01*
X264921D01*
X264941Y314620D01*
D02*
G37*
G36*
X260610D02*
X260634D01*
X260653Y314616D01*
X260673Y314613D01*
X260693Y314605D01*
X260713Y314597D01*
X260732Y314589D01*
X260748Y314581D01*
X260768Y314573D01*
X260783Y314561D01*
X260803Y314550D01*
X260819Y314538D01*
X260835Y314522D01*
X260850Y314510D01*
X260862Y314494D01*
X260878Y314479D01*
X260890Y314463D01*
X260901Y314443D01*
X260913Y314428D01*
X260921Y314408D01*
X260929Y314392D01*
X260937Y314372D01*
X260945Y314353D01*
X260953Y314333D01*
X260957Y314313D01*
X260961Y314294D01*
Y314270D01*
X260964Y314250D01*
Y311140D01*
X260961Y311121D01*
Y311097D01*
X260957Y311077D01*
X260953Y311057D01*
X260945Y311038D01*
X260937Y311018D01*
X260929Y310998D01*
X260921Y310983D01*
X260913Y310963D01*
X260901Y310947D01*
X260890Y310928D01*
X260878Y310912D01*
X260862Y310896D01*
X260850Y310880D01*
X260835Y310869D01*
X260819Y310853D01*
X260803Y310841D01*
X260783Y310829D01*
X260768Y310817D01*
X260748Y310809D01*
X260732Y310802D01*
X260713Y310794D01*
X260693Y310786D01*
X260673Y310778D01*
X260653Y310774D01*
X260634Y310770D01*
X260610D01*
X260591Y310766D01*
X258858D01*
X258839Y310770D01*
X258815D01*
X258795Y310774D01*
X258776Y310778D01*
X258756Y310786D01*
X258736Y310794D01*
X258717Y310802D01*
X258701Y310809D01*
X258681Y310817D01*
X258665Y310829D01*
X258646Y310841D01*
X258630Y310853D01*
X258614Y310869D01*
X258598Y310880D01*
X258587Y310896D01*
X258571Y310912D01*
X258559Y310928D01*
X258547Y310947D01*
X258535Y310963D01*
X258527Y310983D01*
X258520Y310998D01*
X258512Y311018D01*
X258504Y311038D01*
X258496Y311057D01*
X258492Y311077D01*
X258488Y311097D01*
Y311121D01*
X258484Y311140D01*
Y314250D01*
X258488Y314270D01*
Y314294D01*
X258492Y314313D01*
X258496Y314333D01*
X258504Y314353D01*
X258512Y314372D01*
X258520Y314392D01*
X258527Y314408D01*
X258535Y314428D01*
X258547Y314443D01*
X258559Y314463D01*
X258571Y314479D01*
X258587Y314494D01*
X258598Y314510D01*
X258614Y314522D01*
X258630Y314538D01*
X258646Y314550D01*
X258665Y314561D01*
X258681Y314573D01*
X258701Y314581D01*
X258717Y314589D01*
X258736Y314597D01*
X258756Y314605D01*
X258776Y314613D01*
X258795Y314616D01*
X258815Y314620D01*
X258839D01*
X258858Y314624D01*
X260591D01*
X260610Y314620D01*
D02*
G37*
G36*
X256279D02*
X256303D01*
X256323Y314616D01*
X256343Y314613D01*
X256362Y314605D01*
X256382Y314597D01*
X256401Y314589D01*
X256417Y314581D01*
X256437Y314573D01*
X256453Y314561D01*
X256472Y314550D01*
X256488Y314538D01*
X256504Y314522D01*
X256520Y314510D01*
X256531Y314494D01*
X256547Y314479D01*
X256559Y314463D01*
X256571Y314443D01*
X256583Y314428D01*
X256591Y314408D01*
X256598Y314392D01*
X256606Y314372D01*
X256614Y314353D01*
X256622Y314333D01*
X256626Y314313D01*
X256630Y314294D01*
Y314270D01*
X256634Y314250D01*
Y311140D01*
X256630Y311121D01*
Y311097D01*
X256626Y311077D01*
X256622Y311057D01*
X256614Y311038D01*
X256606Y311018D01*
X256598Y310998D01*
X256591Y310983D01*
X256583Y310963D01*
X256571Y310947D01*
X256559Y310928D01*
X256547Y310912D01*
X256531Y310896D01*
X256520Y310880D01*
X256504Y310869D01*
X256488Y310853D01*
X256472Y310841D01*
X256453Y310829D01*
X256437Y310817D01*
X256417Y310809D01*
X256401Y310802D01*
X256382Y310794D01*
X256362Y310786D01*
X256343Y310778D01*
X256323Y310774D01*
X256303Y310770D01*
X256279D01*
X256260Y310766D01*
X254527D01*
X254508Y310770D01*
X254484D01*
X254465Y310774D01*
X254445Y310778D01*
X254425Y310786D01*
X254405Y310794D01*
X254386Y310802D01*
X254370Y310809D01*
X254350Y310817D01*
X254335Y310829D01*
X254315Y310841D01*
X254299Y310853D01*
X254283Y310869D01*
X254268Y310880D01*
X254256Y310896D01*
X254240Y310912D01*
X254228Y310928D01*
X254217Y310947D01*
X254205Y310963D01*
X254197Y310983D01*
X254189Y310998D01*
X254181Y311018D01*
X254173Y311038D01*
X254165Y311057D01*
X254161Y311077D01*
X254157Y311097D01*
Y311121D01*
X254153Y311140D01*
Y314250D01*
X254157Y314270D01*
Y314294D01*
X254161Y314313D01*
X254165Y314333D01*
X254173Y314353D01*
X254181Y314372D01*
X254189Y314392D01*
X254197Y314408D01*
X254205Y314428D01*
X254217Y314443D01*
X254228Y314463D01*
X254240Y314479D01*
X254256Y314494D01*
X254268Y314510D01*
X254283Y314522D01*
X254299Y314538D01*
X254315Y314550D01*
X254335Y314561D01*
X254350Y314573D01*
X254370Y314581D01*
X254386Y314589D01*
X254405Y314597D01*
X254425Y314605D01*
X254445Y314613D01*
X254465Y314616D01*
X254484Y314620D01*
X254508D01*
X254527Y314624D01*
X256260D01*
X256279Y314620D01*
D02*
G37*
G36*
X251949D02*
X251972D01*
X251992Y314616D01*
X252012Y314613D01*
X252031Y314605D01*
X252051Y314597D01*
X252071Y314589D01*
X252087Y314581D01*
X252106Y314573D01*
X252122Y314561D01*
X252142Y314550D01*
X252157Y314538D01*
X252173Y314522D01*
X252189Y314510D01*
X252201Y314494D01*
X252217Y314479D01*
X252228Y314463D01*
X252240Y314443D01*
X252252Y314428D01*
X252260Y314408D01*
X252268Y314392D01*
X252276Y314372D01*
X252283Y314353D01*
X252291Y314333D01*
X252295Y314313D01*
X252299Y314294D01*
Y314270D01*
X252303Y314250D01*
Y311140D01*
X252299Y311121D01*
Y311097D01*
X252295Y311077D01*
X252291Y311057D01*
X252283Y311038D01*
X252276Y311018D01*
X252268Y310998D01*
X252260Y310983D01*
X252252Y310963D01*
X252240Y310947D01*
X252228Y310928D01*
X252217Y310912D01*
X252201Y310896D01*
X252189Y310880D01*
X252173Y310869D01*
X252157Y310853D01*
X252142Y310841D01*
X252122Y310829D01*
X252106Y310817D01*
X252087Y310809D01*
X252071Y310802D01*
X252051Y310794D01*
X252031Y310786D01*
X252012Y310778D01*
X251992Y310774D01*
X251972Y310770D01*
X251949D01*
X251929Y310766D01*
X250197D01*
X250177Y310770D01*
X250153D01*
X250134Y310774D01*
X250114Y310778D01*
X250094Y310786D01*
X250075Y310794D01*
X250055Y310802D01*
X250039Y310809D01*
X250020Y310817D01*
X250004Y310829D01*
X249984Y310841D01*
X249969Y310853D01*
X249953Y310869D01*
X249937Y310880D01*
X249925Y310896D01*
X249909Y310912D01*
X249898Y310928D01*
X249886Y310947D01*
X249874Y310963D01*
X249866Y310983D01*
X249858Y310998D01*
X249850Y311018D01*
X249843Y311038D01*
X249835Y311057D01*
X249831Y311077D01*
X249827Y311097D01*
Y311121D01*
X249823Y311140D01*
Y314250D01*
X249827Y314270D01*
Y314294D01*
X249831Y314313D01*
X249835Y314333D01*
X249843Y314353D01*
X249850Y314372D01*
X249858Y314392D01*
X249866Y314408D01*
X249874Y314428D01*
X249886Y314443D01*
X249898Y314463D01*
X249909Y314479D01*
X249925Y314494D01*
X249937Y314510D01*
X249953Y314522D01*
X249969Y314538D01*
X249984Y314550D01*
X250004Y314561D01*
X250020Y314573D01*
X250039Y314581D01*
X250055Y314589D01*
X250075Y314597D01*
X250094Y314605D01*
X250114Y314613D01*
X250134Y314616D01*
X250153Y314620D01*
X250177D01*
X250197Y314624D01*
X251929D01*
X251949Y314620D01*
D02*
G37*
G36*
X245256D02*
X245280D01*
X245299Y314616D01*
X245319Y314613D01*
X245339Y314605D01*
X245358Y314597D01*
X245378Y314589D01*
X245394Y314581D01*
X245413Y314573D01*
X245429Y314561D01*
X245449Y314550D01*
X245464Y314538D01*
X245480Y314522D01*
X245496Y314510D01*
X245508Y314494D01*
X245524Y314479D01*
X245535Y314463D01*
X245547Y314443D01*
X245559Y314428D01*
X245567Y314408D01*
X245575Y314392D01*
X245583Y314372D01*
X245590Y314353D01*
X245598Y314333D01*
X245602Y314313D01*
X245606Y314294D01*
Y314270D01*
X245610Y314250D01*
Y311140D01*
X245606Y311121D01*
Y311097D01*
X245602Y311077D01*
X245598Y311057D01*
X245590Y311038D01*
X245583Y311018D01*
X245575Y310998D01*
X245567Y310983D01*
X245559Y310963D01*
X245547Y310947D01*
X245535Y310928D01*
X245524Y310912D01*
X245508Y310896D01*
X245496Y310880D01*
X245480Y310869D01*
X245464Y310853D01*
X245449Y310841D01*
X245429Y310829D01*
X245413Y310817D01*
X245394Y310809D01*
X245378Y310802D01*
X245358Y310794D01*
X245339Y310786D01*
X245319Y310778D01*
X245299Y310774D01*
X245280Y310770D01*
X245256D01*
X245236Y310766D01*
X243504D01*
X243484Y310770D01*
X243461D01*
X243441Y310774D01*
X243421Y310778D01*
X243402Y310786D01*
X243382Y310794D01*
X243362Y310802D01*
X243346Y310809D01*
X243327Y310817D01*
X243311Y310829D01*
X243291Y310841D01*
X243276Y310853D01*
X243260Y310869D01*
X243244Y310880D01*
X243232Y310896D01*
X243216Y310912D01*
X243205Y310928D01*
X243193Y310947D01*
X243181Y310963D01*
X243173Y310983D01*
X243165Y310998D01*
X243157Y311018D01*
X243150Y311038D01*
X243142Y311057D01*
X243138Y311077D01*
X243134Y311097D01*
Y311121D01*
X243130Y311140D01*
Y314250D01*
X243134Y314270D01*
Y314294D01*
X243138Y314313D01*
X243142Y314333D01*
X243150Y314353D01*
X243157Y314372D01*
X243165Y314392D01*
X243173Y314408D01*
X243181Y314428D01*
X243193Y314443D01*
X243205Y314463D01*
X243216Y314479D01*
X243232Y314494D01*
X243244Y314510D01*
X243260Y314522D01*
X243276Y314538D01*
X243291Y314550D01*
X243311Y314561D01*
X243327Y314573D01*
X243346Y314581D01*
X243362Y314589D01*
X243382Y314597D01*
X243402Y314605D01*
X243421Y314613D01*
X243441Y314616D01*
X243461Y314620D01*
X243484D01*
X243504Y314624D01*
X245236D01*
X245256Y314620D01*
D02*
G37*
G36*
X240925D02*
X240949D01*
X240968Y314616D01*
X240988Y314613D01*
X241008Y314605D01*
X241027Y314597D01*
X241047Y314589D01*
X241063Y314581D01*
X241083Y314573D01*
X241098Y314561D01*
X241118Y314550D01*
X241134Y314538D01*
X241150Y314522D01*
X241165Y314510D01*
X241177Y314494D01*
X241193Y314479D01*
X241205Y314463D01*
X241216Y314443D01*
X241228Y314428D01*
X241236Y314408D01*
X241244Y314392D01*
X241252Y314372D01*
X241260Y314353D01*
X241268Y314333D01*
X241272Y314313D01*
X241276Y314294D01*
Y314270D01*
X241280Y314250D01*
Y311140D01*
X241276Y311121D01*
Y311097D01*
X241272Y311077D01*
X241268Y311057D01*
X241260Y311038D01*
X241252Y311018D01*
X241244Y310998D01*
X241236Y310983D01*
X241228Y310963D01*
X241216Y310947D01*
X241205Y310928D01*
X241193Y310912D01*
X241177Y310896D01*
X241165Y310880D01*
X241150Y310869D01*
X241134Y310853D01*
X241118Y310841D01*
X241098Y310829D01*
X241083Y310817D01*
X241063Y310809D01*
X241047Y310802D01*
X241027Y310794D01*
X241008Y310786D01*
X240988Y310778D01*
X240968Y310774D01*
X240949Y310770D01*
X240925D01*
X240905Y310766D01*
X239173D01*
X239154Y310770D01*
X239130D01*
X239110Y310774D01*
X239090Y310778D01*
X239071Y310786D01*
X239051Y310794D01*
X239031Y310802D01*
X239016Y310809D01*
X238996Y310817D01*
X238980Y310829D01*
X238961Y310841D01*
X238945Y310853D01*
X238929Y310869D01*
X238913Y310880D01*
X238901Y310896D01*
X238886Y310912D01*
X238874Y310928D01*
X238862Y310947D01*
X238850Y310963D01*
X238843Y310983D01*
X238835Y310998D01*
X238827Y311018D01*
X238819Y311038D01*
X238811Y311057D01*
X238807Y311077D01*
X238803Y311097D01*
Y311121D01*
X238799Y311140D01*
Y314250D01*
X238803Y314270D01*
Y314294D01*
X238807Y314313D01*
X238811Y314333D01*
X238819Y314353D01*
X238827Y314372D01*
X238835Y314392D01*
X238843Y314408D01*
X238850Y314428D01*
X238862Y314443D01*
X238874Y314463D01*
X238886Y314479D01*
X238901Y314494D01*
X238913Y314510D01*
X238929Y314522D01*
X238945Y314538D01*
X238961Y314550D01*
X238980Y314561D01*
X238996Y314573D01*
X239016Y314581D01*
X239031Y314589D01*
X239051Y314597D01*
X239071Y314605D01*
X239090Y314613D01*
X239110Y314616D01*
X239130Y314620D01*
X239154D01*
X239173Y314624D01*
X240905D01*
X240925Y314620D01*
D02*
G37*
G36*
X236594D02*
X236618D01*
X236638Y314616D01*
X236657Y314613D01*
X236677Y314605D01*
X236697Y314597D01*
X236717Y314589D01*
X236732Y314581D01*
X236752Y314573D01*
X236768Y314561D01*
X236787Y314550D01*
X236803Y314538D01*
X236819Y314522D01*
X236835Y314510D01*
X236846Y314494D01*
X236862Y314479D01*
X236874Y314463D01*
X236886Y314443D01*
X236898Y314428D01*
X236906Y314408D01*
X236913Y314392D01*
X236921Y314372D01*
X236929Y314353D01*
X236937Y314333D01*
X236941Y314313D01*
X236945Y314294D01*
Y314270D01*
X236949Y314250D01*
Y311140D01*
X236945Y311121D01*
Y311097D01*
X236941Y311077D01*
X236937Y311057D01*
X236929Y311038D01*
X236921Y311018D01*
X236913Y310998D01*
X236906Y310983D01*
X236898Y310963D01*
X236886Y310947D01*
X236874Y310928D01*
X236862Y310912D01*
X236846Y310896D01*
X236835Y310880D01*
X236819Y310869D01*
X236803Y310853D01*
X236787Y310841D01*
X236768Y310829D01*
X236752Y310817D01*
X236732Y310809D01*
X236717Y310802D01*
X236697Y310794D01*
X236677Y310786D01*
X236657Y310778D01*
X236638Y310774D01*
X236618Y310770D01*
X236594D01*
X236575Y310766D01*
X234842D01*
X234823Y310770D01*
X234799D01*
X234780Y310774D01*
X234760Y310778D01*
X234740Y310786D01*
X234720Y310794D01*
X234701Y310802D01*
X234685Y310809D01*
X234665Y310817D01*
X234650Y310829D01*
X234630Y310841D01*
X234614Y310853D01*
X234598Y310869D01*
X234583Y310880D01*
X234571Y310896D01*
X234555Y310912D01*
X234543Y310928D01*
X234531Y310947D01*
X234520Y310963D01*
X234512Y310983D01*
X234504Y310998D01*
X234496Y311018D01*
X234488Y311038D01*
X234480Y311057D01*
X234476Y311077D01*
X234472Y311097D01*
Y311121D01*
X234469Y311140D01*
Y314250D01*
X234472Y314270D01*
Y314294D01*
X234476Y314313D01*
X234480Y314333D01*
X234488Y314353D01*
X234496Y314372D01*
X234504Y314392D01*
X234512Y314408D01*
X234520Y314428D01*
X234531Y314443D01*
X234543Y314463D01*
X234555Y314479D01*
X234571Y314494D01*
X234583Y314510D01*
X234598Y314522D01*
X234614Y314538D01*
X234630Y314550D01*
X234650Y314561D01*
X234665Y314573D01*
X234685Y314581D01*
X234701Y314589D01*
X234720Y314597D01*
X234740Y314605D01*
X234760Y314613D01*
X234780Y314616D01*
X234799Y314620D01*
X234823D01*
X234842Y314624D01*
X236575D01*
X236594Y314620D01*
D02*
G37*
G36*
X232264D02*
X232287D01*
X232307Y314616D01*
X232327Y314613D01*
X232346Y314605D01*
X232366Y314597D01*
X232386Y314589D01*
X232401Y314581D01*
X232421Y314573D01*
X232437Y314561D01*
X232457Y314550D01*
X232472Y314538D01*
X232488Y314522D01*
X232504Y314510D01*
X232516Y314494D01*
X232531Y314479D01*
X232543Y314463D01*
X232555Y314443D01*
X232567Y314428D01*
X232575Y314408D01*
X232583Y314392D01*
X232591Y314372D01*
X232598Y314353D01*
X232606Y314333D01*
X232610Y314313D01*
X232614Y314294D01*
Y314270D01*
X232618Y314250D01*
Y311140D01*
X232614Y311121D01*
Y311097D01*
X232610Y311077D01*
X232606Y311057D01*
X232598Y311038D01*
X232591Y311018D01*
X232583Y310998D01*
X232575Y310983D01*
X232567Y310963D01*
X232555Y310947D01*
X232543Y310928D01*
X232531Y310912D01*
X232516Y310896D01*
X232504Y310880D01*
X232488Y310869D01*
X232472Y310853D01*
X232457Y310841D01*
X232437Y310829D01*
X232421Y310817D01*
X232401Y310809D01*
X232386Y310802D01*
X232366Y310794D01*
X232346Y310786D01*
X232327Y310778D01*
X232307Y310774D01*
X232287Y310770D01*
X232264D01*
X232244Y310766D01*
X230512D01*
X230492Y310770D01*
X230469D01*
X230449Y310774D01*
X230429Y310778D01*
X230409Y310786D01*
X230390Y310794D01*
X230370Y310802D01*
X230354Y310809D01*
X230335Y310817D01*
X230319Y310829D01*
X230299Y310841D01*
X230283Y310853D01*
X230268Y310869D01*
X230252Y310880D01*
X230240Y310896D01*
X230224Y310912D01*
X230213Y310928D01*
X230201Y310947D01*
X230189Y310963D01*
X230181Y310983D01*
X230173Y310998D01*
X230165Y311018D01*
X230157Y311038D01*
X230150Y311057D01*
X230146Y311077D01*
X230142Y311097D01*
Y311121D01*
X230138Y311140D01*
Y314250D01*
X230142Y314270D01*
Y314294D01*
X230146Y314313D01*
X230150Y314333D01*
X230157Y314353D01*
X230165Y314372D01*
X230173Y314392D01*
X230181Y314408D01*
X230189Y314428D01*
X230201Y314443D01*
X230213Y314463D01*
X230224Y314479D01*
X230240Y314494D01*
X230252Y314510D01*
X230268Y314522D01*
X230283Y314538D01*
X230299Y314550D01*
X230319Y314561D01*
X230335Y314573D01*
X230354Y314581D01*
X230370Y314589D01*
X230390Y314597D01*
X230409Y314605D01*
X230429Y314613D01*
X230449Y314616D01*
X230469Y314620D01*
X230492D01*
X230512Y314624D01*
X232244D01*
X232264Y314620D01*
D02*
G37*
G36*
X227933D02*
X227957D01*
X227976Y314616D01*
X227996Y314613D01*
X228016Y314605D01*
X228035Y314597D01*
X228055Y314589D01*
X228071Y314581D01*
X228091Y314573D01*
X228106Y314561D01*
X228126Y314550D01*
X228142Y314538D01*
X228157Y314522D01*
X228173Y314510D01*
X228185Y314494D01*
X228201Y314479D01*
X228213Y314463D01*
X228224Y314443D01*
X228236Y314428D01*
X228244Y314408D01*
X228252Y314392D01*
X228260Y314372D01*
X228268Y314353D01*
X228276Y314333D01*
X228279Y314313D01*
X228283Y314294D01*
Y314270D01*
X228287Y314250D01*
Y311140D01*
X228283Y311121D01*
Y311097D01*
X228279Y311077D01*
X228276Y311057D01*
X228268Y311038D01*
X228260Y311018D01*
X228252Y310998D01*
X228244Y310983D01*
X228236Y310963D01*
X228224Y310947D01*
X228213Y310928D01*
X228201Y310912D01*
X228185Y310896D01*
X228173Y310880D01*
X228157Y310869D01*
X228142Y310853D01*
X228126Y310841D01*
X228106Y310829D01*
X228091Y310817D01*
X228071Y310809D01*
X228055Y310802D01*
X228035Y310794D01*
X228016Y310786D01*
X227996Y310778D01*
X227976Y310774D01*
X227957Y310770D01*
X227933D01*
X227913Y310766D01*
X226181D01*
X226161Y310770D01*
X226138D01*
X226118Y310774D01*
X226098Y310778D01*
X226079Y310786D01*
X226059Y310794D01*
X226039Y310802D01*
X226024Y310809D01*
X226004Y310817D01*
X225988Y310829D01*
X225969Y310841D01*
X225953Y310853D01*
X225937Y310869D01*
X225921Y310880D01*
X225909Y310896D01*
X225894Y310912D01*
X225882Y310928D01*
X225870Y310947D01*
X225858Y310963D01*
X225850Y310983D01*
X225842Y310998D01*
X225835Y311018D01*
X225827Y311038D01*
X225819Y311057D01*
X225815Y311077D01*
X225811Y311097D01*
Y311121D01*
X225807Y311140D01*
Y314250D01*
X225811Y314270D01*
Y314294D01*
X225815Y314313D01*
X225819Y314333D01*
X225827Y314353D01*
X225835Y314372D01*
X225842Y314392D01*
X225850Y314408D01*
X225858Y314428D01*
X225870Y314443D01*
X225882Y314463D01*
X225894Y314479D01*
X225909Y314494D01*
X225921Y314510D01*
X225937Y314522D01*
X225953Y314538D01*
X225969Y314550D01*
X225988Y314561D01*
X226004Y314573D01*
X226024Y314581D01*
X226039Y314589D01*
X226059Y314597D01*
X226079Y314605D01*
X226098Y314613D01*
X226118Y314616D01*
X226138Y314620D01*
X226161D01*
X226181Y314624D01*
X227913D01*
X227933Y314620D01*
D02*
G37*
G36*
X223602D02*
X223626D01*
X223646Y314616D01*
X223665Y314613D01*
X223685Y314605D01*
X223705Y314597D01*
X223724Y314589D01*
X223740Y314581D01*
X223760Y314573D01*
X223776Y314561D01*
X223795Y314550D01*
X223811Y314538D01*
X223827Y314522D01*
X223843Y314510D01*
X223854Y314494D01*
X223870Y314479D01*
X223882Y314463D01*
X223894Y314443D01*
X223905Y314428D01*
X223913Y314408D01*
X223921Y314392D01*
X223929Y314372D01*
X223937Y314353D01*
X223945Y314333D01*
X223949Y314313D01*
X223953Y314294D01*
Y314270D01*
X223957Y314250D01*
Y311140D01*
X223953Y311121D01*
Y311097D01*
X223949Y311077D01*
X223945Y311057D01*
X223937Y311038D01*
X223929Y311018D01*
X223921Y310998D01*
X223913Y310983D01*
X223905Y310963D01*
X223894Y310947D01*
X223882Y310928D01*
X223870Y310912D01*
X223854Y310896D01*
X223843Y310880D01*
X223827Y310869D01*
X223811Y310853D01*
X223795Y310841D01*
X223776Y310829D01*
X223760Y310817D01*
X223740Y310809D01*
X223724Y310802D01*
X223705Y310794D01*
X223685Y310786D01*
X223665Y310778D01*
X223646Y310774D01*
X223626Y310770D01*
X223602D01*
X223583Y310766D01*
X221850D01*
X221831Y310770D01*
X221807D01*
X221787Y310774D01*
X221768Y310778D01*
X221748Y310786D01*
X221728Y310794D01*
X221709Y310802D01*
X221693Y310809D01*
X221673Y310817D01*
X221657Y310829D01*
X221638Y310841D01*
X221622Y310853D01*
X221606Y310869D01*
X221590Y310880D01*
X221579Y310896D01*
X221563Y310912D01*
X221551Y310928D01*
X221539Y310947D01*
X221528Y310963D01*
X221520Y310983D01*
X221512Y310998D01*
X221504Y311018D01*
X221496Y311038D01*
X221488Y311057D01*
X221484Y311077D01*
X221480Y311097D01*
Y311121D01*
X221476Y311140D01*
Y314250D01*
X221480Y314270D01*
Y314294D01*
X221484Y314313D01*
X221488Y314333D01*
X221496Y314353D01*
X221504Y314372D01*
X221512Y314392D01*
X221520Y314408D01*
X221528Y314428D01*
X221539Y314443D01*
X221551Y314463D01*
X221563Y314479D01*
X221579Y314494D01*
X221590Y314510D01*
X221606Y314522D01*
X221622Y314538D01*
X221638Y314550D01*
X221657Y314561D01*
X221673Y314573D01*
X221693Y314581D01*
X221709Y314589D01*
X221728Y314597D01*
X221748Y314605D01*
X221768Y314613D01*
X221787Y314616D01*
X221807Y314620D01*
X221831D01*
X221850Y314624D01*
X223583D01*
X223602Y314620D01*
D02*
G37*
G36*
X219272D02*
X219295D01*
X219315Y314616D01*
X219335Y314613D01*
X219354Y314605D01*
X219374Y314597D01*
X219394Y314589D01*
X219409Y314581D01*
X219429Y314573D01*
X219445Y314561D01*
X219464Y314550D01*
X219480Y314538D01*
X219496Y314522D01*
X219512Y314510D01*
X219524Y314494D01*
X219539Y314479D01*
X219551Y314463D01*
X219563Y314443D01*
X219575Y314428D01*
X219583Y314408D01*
X219590Y314392D01*
X219598Y314372D01*
X219606Y314353D01*
X219614Y314333D01*
X219618Y314313D01*
X219622Y314294D01*
Y314270D01*
X219626Y314250D01*
Y311140D01*
X219622Y311121D01*
Y311097D01*
X219618Y311077D01*
X219614Y311057D01*
X219606Y311038D01*
X219598Y311018D01*
X219590Y310998D01*
X219583Y310983D01*
X219575Y310963D01*
X219563Y310947D01*
X219551Y310928D01*
X219539Y310912D01*
X219524Y310896D01*
X219512Y310880D01*
X219496Y310869D01*
X219480Y310853D01*
X219464Y310841D01*
X219445Y310829D01*
X219429Y310817D01*
X219409Y310809D01*
X219394Y310802D01*
X219374Y310794D01*
X219354Y310786D01*
X219335Y310778D01*
X219315Y310774D01*
X219295Y310770D01*
X219272D01*
X219252Y310766D01*
X217520D01*
X217500Y310770D01*
X217476D01*
X217457Y310774D01*
X217437Y310778D01*
X217417Y310786D01*
X217398Y310794D01*
X217378Y310802D01*
X217362Y310809D01*
X217342Y310817D01*
X217327Y310829D01*
X217307Y310841D01*
X217291Y310853D01*
X217276Y310869D01*
X217260Y310880D01*
X217248Y310896D01*
X217232Y310912D01*
X217220Y310928D01*
X217209Y310947D01*
X217197Y310963D01*
X217189Y310983D01*
X217181Y310998D01*
X217173Y311018D01*
X217165Y311038D01*
X217157Y311057D01*
X217154Y311077D01*
X217150Y311097D01*
Y311121D01*
X217146Y311140D01*
Y314250D01*
X217150Y314270D01*
Y314294D01*
X217154Y314313D01*
X217157Y314333D01*
X217165Y314353D01*
X217173Y314372D01*
X217181Y314392D01*
X217189Y314408D01*
X217197Y314428D01*
X217209Y314443D01*
X217220Y314463D01*
X217232Y314479D01*
X217248Y314494D01*
X217260Y314510D01*
X217276Y314522D01*
X217291Y314538D01*
X217307Y314550D01*
X217327Y314561D01*
X217342Y314573D01*
X217362Y314581D01*
X217378Y314589D01*
X217398Y314597D01*
X217417Y314605D01*
X217437Y314613D01*
X217457Y314616D01*
X217476Y314620D01*
X217500D01*
X217520Y314624D01*
X219252D01*
X219272Y314620D01*
D02*
G37*
G36*
X214941D02*
X214965D01*
X214984Y314616D01*
X215004Y314613D01*
X215024Y314605D01*
X215043Y314597D01*
X215063Y314589D01*
X215079Y314581D01*
X215098Y314573D01*
X215114Y314561D01*
X215134Y314550D01*
X215150Y314538D01*
X215165Y314522D01*
X215181Y314510D01*
X215193Y314494D01*
X215209Y314479D01*
X215220Y314463D01*
X215232Y314443D01*
X215244Y314428D01*
X215252Y314408D01*
X215260Y314392D01*
X215268Y314372D01*
X215276Y314353D01*
X215283Y314333D01*
X215287Y314313D01*
X215291Y314294D01*
Y314270D01*
X215295Y314250D01*
Y311140D01*
X215291Y311121D01*
Y311097D01*
X215287Y311077D01*
X215283Y311057D01*
X215276Y311038D01*
X215268Y311018D01*
X215260Y310998D01*
X215252Y310983D01*
X215244Y310963D01*
X215232Y310947D01*
X215220Y310928D01*
X215209Y310912D01*
X215193Y310896D01*
X215181Y310880D01*
X215165Y310869D01*
X215150Y310853D01*
X215134Y310841D01*
X215114Y310829D01*
X215098Y310817D01*
X215079Y310809D01*
X215063Y310802D01*
X215043Y310794D01*
X215024Y310786D01*
X215004Y310778D01*
X214984Y310774D01*
X214965Y310770D01*
X214941D01*
X214921Y310766D01*
X213189D01*
X213169Y310770D01*
X213146D01*
X213126Y310774D01*
X213106Y310778D01*
X213087Y310786D01*
X213067Y310794D01*
X213047Y310802D01*
X213031Y310809D01*
X213012Y310817D01*
X212996Y310829D01*
X212976Y310841D01*
X212961Y310853D01*
X212945Y310869D01*
X212929Y310880D01*
X212917Y310896D01*
X212901Y310912D01*
X212890Y310928D01*
X212878Y310947D01*
X212866Y310963D01*
X212858Y310983D01*
X212850Y310998D01*
X212842Y311018D01*
X212835Y311038D01*
X212827Y311057D01*
X212823Y311077D01*
X212819Y311097D01*
Y311121D01*
X212815Y311140D01*
Y314250D01*
X212819Y314270D01*
Y314294D01*
X212823Y314313D01*
X212827Y314333D01*
X212835Y314353D01*
X212842Y314372D01*
X212850Y314392D01*
X212858Y314408D01*
X212866Y314428D01*
X212878Y314443D01*
X212890Y314463D01*
X212901Y314479D01*
X212917Y314494D01*
X212929Y314510D01*
X212945Y314522D01*
X212961Y314538D01*
X212976Y314550D01*
X212996Y314561D01*
X213012Y314573D01*
X213031Y314581D01*
X213047Y314589D01*
X213067Y314597D01*
X213087Y314605D01*
X213106Y314613D01*
X213126Y314616D01*
X213146Y314620D01*
X213169D01*
X213189Y314624D01*
X214921D01*
X214941Y314620D01*
D02*
G37*
G36*
X272228Y286869D02*
X263760D01*
Y297582D01*
X272228D01*
Y286869D01*
D02*
G37*
G36*
X84862Y200908D02*
X81515D01*
Y204530D01*
X84862D01*
Y200908D01*
D02*
G37*
G36*
X80728D02*
X77381D01*
Y204530D01*
X80728D01*
Y200908D01*
D02*
G37*
G36*
X76594D02*
X73247D01*
Y204530D01*
X76594D01*
Y200908D01*
D02*
G37*
G36*
X88514Y201990D02*
X88524Y201989D01*
X88534Y201988D01*
X88544Y201986D01*
X88554Y201984D01*
X88564Y201981D01*
X88574Y201977D01*
X88583Y201973D01*
X88593Y201969D01*
X88602Y201964D01*
X88611Y201959D01*
X88619Y201953D01*
X88627Y201946D01*
X88635Y201940D01*
X88643Y201933D01*
X88650Y201925D01*
X88656Y201917D01*
X88662Y201909D01*
X88668Y201901D01*
X88674Y201892D01*
X88679Y201883D01*
X88683Y201874D01*
X88687Y201864D01*
X88691Y201854D01*
X88693Y201845D01*
X88696Y201835D01*
X88698Y201824D01*
X88699Y201814D01*
X88700Y201804D01*
X88700Y201794D01*
Y201400D01*
X88700Y201390D01*
X88699Y201379D01*
X88698Y201369D01*
X88696Y201359D01*
X88693Y201349D01*
X88691Y201339D01*
X88687Y201329D01*
X88683Y201320D01*
X88679Y201310D01*
X88674Y201301D01*
X88668Y201293D01*
X88662Y201284D01*
X88656Y201276D01*
X88650Y201268D01*
X88643Y201261D01*
X88635Y201254D01*
X88627Y201247D01*
X88619Y201241D01*
X88611Y201235D01*
X88602Y201229D01*
X88593Y201224D01*
X88583Y201220D01*
X88574Y201216D01*
X88564Y201213D01*
X88554Y201210D01*
X88544Y201207D01*
X88534Y201205D01*
X88524Y201204D01*
X88514Y201203D01*
X88503Y201203D01*
X86633D01*
Y199825D01*
X88503D01*
X88514Y199825D01*
X88524Y199824D01*
X88534Y199823D01*
X88544Y199821D01*
X88554Y199818D01*
X88564Y199815D01*
X88574Y199812D01*
X88583Y199808D01*
X88593Y199804D01*
X88602Y199799D01*
X88611Y199793D01*
X88619Y199787D01*
X88627Y199781D01*
X88635Y199775D01*
X88643Y199767D01*
X88650Y199760D01*
X88656Y199752D01*
X88662Y199744D01*
X88668Y199735D01*
X88674Y199727D01*
X88679Y199718D01*
X88683Y199708D01*
X88687Y199699D01*
X88691Y199689D01*
X88693Y199679D01*
X88696Y199669D01*
X88698Y199659D01*
X88699Y199649D01*
X88700Y199638D01*
X88700Y199628D01*
Y199234D01*
X88700Y199224D01*
X88699Y199214D01*
X88698Y199204D01*
X88696Y199194D01*
X88693Y199183D01*
X88691Y199174D01*
X88687Y199164D01*
X88683Y199154D01*
X88679Y199145D01*
X88674Y199136D01*
X88668Y199127D01*
X88662Y199119D01*
X88656Y199111D01*
X88650Y199103D01*
X88643Y199095D01*
X88635Y199088D01*
X88627Y199082D01*
X88619Y199075D01*
X88611Y199069D01*
X88602Y199064D01*
X88593Y199059D01*
X88583Y199055D01*
X88574Y199051D01*
X88564Y199047D01*
X88554Y199044D01*
X88544Y199042D01*
X88534Y199040D01*
X88524Y199039D01*
X88514Y199038D01*
X88503Y199038D01*
X85649D01*
Y201990D01*
X88503D01*
X88514Y201990D01*
D02*
G37*
G36*
X72460Y199038D02*
X69606D01*
X69595Y199038D01*
X69585Y199039D01*
X69575Y199040D01*
X69565Y199042D01*
X69555Y199044D01*
X69545Y199047D01*
X69535Y199051D01*
X69526Y199055D01*
X69516Y199059D01*
X69507Y199064D01*
X69498Y199069D01*
X69490Y199075D01*
X69482Y199082D01*
X69474Y199088D01*
X69467Y199095D01*
X69459Y199103D01*
X69453Y199111D01*
X69446Y199119D01*
X69441Y199127D01*
X69435Y199136D01*
X69430Y199145D01*
X69426Y199154D01*
X69422Y199164D01*
X69418Y199174D01*
X69415Y199183D01*
X69413Y199194D01*
X69411Y199204D01*
X69410Y199214D01*
X69409Y199224D01*
X69409Y199234D01*
Y199628D01*
X69409Y199638D01*
X69410Y199649D01*
X69411Y199659D01*
X69413Y199669D01*
X69415Y199679D01*
X69418Y199689D01*
X69422Y199699D01*
X69426Y199708D01*
X69430Y199718D01*
X69435Y199727D01*
X69441Y199735D01*
X69446Y199744D01*
X69453Y199752D01*
X69459Y199760D01*
X69467Y199767D01*
X69474Y199775D01*
X69482Y199781D01*
X69490Y199787D01*
X69498Y199793D01*
X69507Y199799D01*
X69516Y199804D01*
X69526Y199808D01*
X69535Y199812D01*
X69545Y199815D01*
X69555Y199818D01*
X69565Y199821D01*
X69575Y199823D01*
X69585Y199824D01*
X69595Y199825D01*
X69606Y199825D01*
X71476D01*
Y201203D01*
X69606D01*
X69595Y201203D01*
X69585Y201204D01*
X69575Y201205D01*
X69565Y201207D01*
X69555Y201210D01*
X69545Y201213D01*
X69535Y201216D01*
X69526Y201220D01*
X69516Y201224D01*
X69507Y201229D01*
X69498Y201235D01*
X69490Y201241D01*
X69482Y201247D01*
X69474Y201254D01*
X69467Y201261D01*
X69459Y201268D01*
X69453Y201276D01*
X69446Y201284D01*
X69441Y201293D01*
X69435Y201301D01*
X69430Y201310D01*
X69426Y201320D01*
X69422Y201329D01*
X69418Y201339D01*
X69415Y201349D01*
X69413Y201359D01*
X69411Y201369D01*
X69410Y201379D01*
X69409Y201390D01*
X69409Y201400D01*
Y201794D01*
X69409Y201804D01*
X69410Y201814D01*
X69411Y201824D01*
X69413Y201835D01*
X69415Y201845D01*
X69418Y201854D01*
X69422Y201864D01*
X69426Y201874D01*
X69430Y201883D01*
X69435Y201892D01*
X69441Y201901D01*
X69446Y201909D01*
X69453Y201917D01*
X69459Y201925D01*
X69467Y201933D01*
X69474Y201940D01*
X69482Y201946D01*
X69490Y201953D01*
X69498Y201959D01*
X69507Y201964D01*
X69516Y201969D01*
X69526Y201973D01*
X69535Y201977D01*
X69545Y201981D01*
X69555Y201984D01*
X69565Y201986D01*
X69575Y201988D01*
X69585Y201989D01*
X69595Y201990D01*
X69606Y201990D01*
X72460D01*
Y199038D01*
D02*
G37*
G36*
X84862Y196498D02*
X81515D01*
Y200120D01*
X84862D01*
Y196498D01*
D02*
G37*
G36*
X80728D02*
X77381D01*
Y200120D01*
X80728D01*
Y196498D01*
D02*
G37*
G36*
X76594D02*
X73247D01*
Y200120D01*
X76594D01*
Y196498D01*
D02*
G37*
G36*
X252287Y31736D02*
X247563D01*
Y38232D01*
X252287D01*
Y31736D01*
D02*
G37*
G36*
X246191D02*
X241467D01*
Y38232D01*
X246191D01*
Y31736D01*
D02*
G37*
G36*
X240095D02*
X235371D01*
Y38232D01*
X240095D01*
Y31736D01*
D02*
G37*
G36*
X233999D02*
X229275D01*
Y38232D01*
X233999D01*
Y31736D01*
D02*
G37*
G36*
X227903D02*
X223179D01*
Y38232D01*
X227903D01*
Y31736D01*
D02*
G37*
G36*
X221807D02*
X217083D01*
Y38232D01*
X221807D01*
Y31736D01*
D02*
G37*
G36*
X252287Y21870D02*
X247563D01*
Y28366D01*
X252287D01*
Y21870D01*
D02*
G37*
G36*
X246191D02*
X241467D01*
Y28366D01*
X246191D01*
Y21870D01*
D02*
G37*
G36*
X240095D02*
X235371D01*
Y28366D01*
X240095D01*
Y21870D01*
D02*
G37*
G36*
X233999D02*
X229275D01*
Y28366D01*
X233999D01*
Y21870D01*
D02*
G37*
G36*
X227903D02*
X223179D01*
Y28366D01*
X227903D01*
Y21870D01*
D02*
G37*
G36*
X221807D02*
X217083D01*
Y28366D01*
X221807D01*
Y21870D01*
D02*
G37*
G36*
X252287Y12004D02*
X247563D01*
Y18500D01*
X252287D01*
Y12004D01*
D02*
G37*
G36*
X246191D02*
X241467D01*
Y18500D01*
X246191D01*
Y12004D01*
D02*
G37*
G36*
X240095D02*
X235371D01*
Y18500D01*
X240095D01*
Y12004D01*
D02*
G37*
G36*
X233999D02*
X229275D01*
Y18500D01*
X233999D01*
Y12004D01*
D02*
G37*
G36*
X227903D02*
X223179D01*
Y18500D01*
X227903D01*
Y12004D01*
D02*
G37*
G36*
X221807D02*
X217083D01*
Y18500D01*
X221807D01*
Y12004D01*
D02*
G37*
D18*
X282766Y352065D02*
G03*
X282766Y352065I-797J0D01*
G01*
Y358758D02*
G03*
X282766Y358758I-797J0D01*
G01*
Y338680D02*
G03*
X282766Y338680I-797J0D01*
G01*
Y345372D02*
G03*
X282766Y345372I-797J0D01*
G01*
X276073Y352065D02*
G03*
X276073Y352065I-797J0D01*
G01*
Y358758D02*
G03*
X276073Y358758I-797J0D01*
G01*
Y338680D02*
G03*
X276073Y338680I-797J0D01*
G01*
Y345372D02*
G03*
X276073Y345372I-797J0D01*
G01*
X269380Y325294D02*
G03*
X269380Y325294I-797J0D01*
G01*
Y331987D02*
G03*
X269380Y331987I-797J0D01*
G01*
X262687Y325294D02*
G03*
X262687Y325294I-797J0D01*
G01*
Y331987D02*
G03*
X262687Y331987I-797J0D01*
G01*
X255994Y325294D02*
G03*
X255994Y325294I-797J0D01*
G01*
Y331987D02*
G03*
X255994Y331987I-797J0D01*
G01*
X249301Y325294D02*
G03*
X249301Y325294I-797J0D01*
G01*
Y331987D02*
G03*
X249301Y331987I-797J0D01*
G01*
X242608Y325294D02*
G03*
X242608Y325294I-797J0D01*
G01*
Y331987D02*
G03*
X242608Y331987I-797J0D01*
G01*
X235915Y325294D02*
G03*
X235915Y325294I-797J0D01*
G01*
Y331987D02*
G03*
X235915Y331987I-797J0D01*
G01*
X222530Y345372D02*
G03*
X222530Y345372I-797J0D01*
G01*
Y338680D02*
G03*
X222530Y338680I-797J0D01*
G01*
Y358758D02*
G03*
X222530Y358758I-797J0D01*
G01*
Y352065D02*
G03*
X222530Y352065I-797J0D01*
G01*
X229222Y345372D02*
G03*
X229222Y345372I-797J0D01*
G01*
Y338680D02*
G03*
X229222Y338680I-797J0D01*
G01*
Y358758D02*
G03*
X229222Y358758I-797J0D01*
G01*
Y352065D02*
G03*
X229222Y352065I-797J0D01*
G01*
X235915Y372144D02*
G03*
X235915Y372144I-797J0D01*
G01*
Y365451D02*
G03*
X235915Y365451I-797J0D01*
G01*
X242608Y372144D02*
G03*
X242608Y372144I-797J0D01*
G01*
Y365451D02*
G03*
X242608Y365451I-797J0D01*
G01*
X249301Y372144D02*
G03*
X249301Y372144I-797J0D01*
G01*
Y365451D02*
G03*
X249301Y365451I-797J0D01*
G01*
X255994Y372144D02*
G03*
X255994Y372144I-797J0D01*
G01*
Y365451D02*
G03*
X255994Y365451I-797J0D01*
G01*
X262687Y372144D02*
G03*
X262687Y372144I-797J0D01*
G01*
Y365451D02*
G03*
X262687Y365451I-797J0D01*
G01*
X269380Y372144D02*
G03*
X269380Y372144I-797J0D01*
G01*
Y365451D02*
G03*
X269380Y365451I-797J0D01*
G01*
D19*
X109367Y48548D02*
D03*
X112831D02*
D03*
X69118Y16608D02*
D03*
X72583D02*
D03*
X124119Y239739D02*
D03*
X120654D02*
D03*
X131618Y174852D02*
D03*
X135082D02*
D03*
X57627Y218666D02*
D03*
X61091D02*
D03*
X62416Y193951D02*
D03*
X58951D02*
D03*
X62350Y188290D02*
D03*
X58885D02*
D03*
X84311Y212842D02*
D03*
X80846D02*
D03*
X91061Y190466D02*
D03*
X94525D02*
D03*
X303583Y313284D02*
D03*
X300118D02*
D03*
X308701Y295077D02*
D03*
X305236D02*
D03*
X245709Y298128D02*
D03*
X242244D02*
D03*
X266260Y279231D02*
D03*
X269724D02*
D03*
X209961Y298128D02*
D03*
X213425D02*
D03*
X213425Y306790D02*
D03*
X209961D02*
D03*
X213425Y302459D02*
D03*
X209961D02*
D03*
D20*
X14255Y389382D02*
D03*
X9137D02*
D03*
X180107Y139396D02*
D03*
X185225D02*
D03*
X61612Y225314D02*
D03*
X56494D02*
D03*
X62479Y212645D02*
D03*
X57361D02*
D03*
X91713Y363522D02*
D03*
X96831D02*
D03*
X196142Y338286D02*
D03*
X191024D02*
D03*
D21*
X140827Y362302D02*
D03*
X135315D02*
D03*
X129803D02*
D03*
X140827Y373325D02*
D03*
X135315D02*
D03*
X129803D02*
D03*
X140827Y367813D02*
D03*
X135315D02*
D03*
X129803D02*
D03*
D22*
X175669Y308522D02*
D03*
Y313522D02*
D03*
Y318522D02*
D03*
Y323522D02*
D03*
Y328522D02*
D03*
Y333522D02*
D03*
Y338522D02*
D03*
Y343522D02*
D03*
Y348522D02*
D03*
Y353522D02*
D03*
Y358522D02*
D03*
Y363522D02*
D03*
Y368522D02*
D03*
Y373522D02*
D03*
Y378522D02*
D03*
Y383522D02*
D03*
Y388522D02*
D03*
Y393522D02*
D03*
Y398522D02*
D03*
X106772Y308522D02*
D03*
Y313522D02*
D03*
Y318522D02*
D03*
Y323522D02*
D03*
Y328522D02*
D03*
Y333522D02*
D03*
Y338522D02*
D03*
Y343522D02*
D03*
Y348522D02*
D03*
Y353522D02*
D03*
Y358522D02*
D03*
Y363522D02*
D03*
Y368522D02*
D03*
Y373522D02*
D03*
Y378522D02*
D03*
Y383522D02*
D03*
Y388522D02*
D03*
Y393522D02*
D03*
Y398522D02*
D03*
D23*
X36691Y367840D02*
D03*
X31691D02*
D03*
X26691D02*
D03*
X21691D02*
D03*
Y389194D02*
D03*
X26691D02*
D03*
X31691D02*
D03*
X36691D02*
D03*
X150961Y102332D02*
D03*
X145961D02*
D03*
X140962D02*
D03*
X135961D02*
D03*
Y80978D02*
D03*
X140962D02*
D03*
X145961D02*
D03*
X150961D02*
D03*
D24*
X193543Y79213D02*
D03*
X163622D02*
D03*
D25*
X128719Y97207D02*
D03*
Y102325D02*
D03*
X69703Y213548D02*
D03*
Y218666D02*
D03*
X312244Y31654D02*
D03*
Y36772D02*
D03*
X90827Y393798D02*
D03*
Y388680D02*
D03*
X216417Y391239D02*
D03*
Y396357D02*
D03*
D26*
X70788Y392044D02*
D03*
Y388580D02*
D03*
X128804Y212283D02*
D03*
Y215747D02*
D03*
X83976Y182667D02*
D03*
Y186132D02*
D03*
X266698Y63957D02*
D03*
Y67421D02*
D03*
X216491Y216050D02*
D03*
Y219515D02*
D03*
X289646Y299073D02*
D03*
Y295609D02*
D03*
X233346Y303404D02*
D03*
Y299939D02*
D03*
X219961Y303010D02*
D03*
Y299546D02*
D03*
X241220Y289939D02*
D03*
Y293404D02*
D03*
X310512Y337262D02*
D03*
Y333798D02*
D03*
X305787Y333798D02*
D03*
Y337262D02*
D03*
X301063Y333798D02*
D03*
Y337262D02*
D03*
D27*
X68688Y170853D02*
D03*
Y147854D02*
D03*
D28*
X165036Y168875D02*
D03*
X140822Y205131D02*
D03*
X210593Y181255D02*
D03*
X21666Y353434D02*
D03*
D29*
X128607Y222791D02*
D03*
X121127D02*
D03*
Y233027D02*
D03*
X124867D02*
D03*
X128607D02*
D03*
D30*
X125985Y196496D02*
D03*
X183556Y208748D02*
D03*
X248504Y264181D02*
D03*
X248504Y273719D02*
D03*
X263661Y406002D02*
D03*
X245709Y395766D02*
D03*
D31*
X121363Y216117D02*
D03*
Y212495D02*
D03*
D32*
X172566Y131640D02*
D03*
Y125341D02*
D03*
X151872Y170345D02*
D03*
Y164046D02*
D03*
D33*
X164097Y148042D02*
D03*
Y146467D02*
D03*
Y144892D02*
D03*
Y143317D02*
D03*
Y141743D02*
D03*
X172759D02*
D03*
Y143317D02*
D03*
Y144892D02*
D03*
Y146467D02*
D03*
Y148042D02*
D03*
D34*
X168428Y144892D02*
D03*
D35*
X177749Y154405D02*
D03*
Y151255D02*
D03*
X192011Y223989D02*
D03*
Y227139D02*
D03*
X198005Y224058D02*
D03*
Y227207D02*
D03*
D36*
X135082Y168205D02*
D03*
X130555D02*
D03*
X73083Y225314D02*
D03*
X68556D02*
D03*
X332027Y262962D02*
D03*
X327499D02*
D03*
X326852Y275071D02*
D03*
X331379D02*
D03*
X99650Y48401D02*
D03*
X95122D02*
D03*
X72631Y26350D02*
D03*
X68103D02*
D03*
X304705Y299939D02*
D03*
X309232D02*
D03*
X196043Y329624D02*
D03*
X200571D02*
D03*
X246043Y289861D02*
D03*
X250571D02*
D03*
D37*
X159794Y128189D02*
D03*
Y132716D02*
D03*
X124744Y168205D02*
D03*
Y163678D02*
D03*
X284921Y299211D02*
D03*
Y294684D02*
D03*
X294370D02*
D03*
Y299211D02*
D03*
X197913Y389565D02*
D03*
Y394093D02*
D03*
X200669Y323916D02*
D03*
Y319388D02*
D03*
X250669Y299605D02*
D03*
Y295077D02*
D03*
D38*
X151878Y133799D02*
D03*
Y127106D02*
D03*
X309724Y306591D02*
D03*
Y313284D02*
D03*
D39*
X70590Y197561D02*
D03*
Y203467D02*
D03*
X87519Y197561D02*
D03*
Y203467D02*
D03*
D40*
X78070Y194018D02*
D03*
X80039D02*
D03*
X82007D02*
D03*
X83976D02*
D03*
X85944D02*
D03*
X76102D02*
D03*
X74133D02*
D03*
X72165D02*
D03*
X78070Y207010D02*
D03*
X80039D02*
D03*
X82007D02*
D03*
X83976D02*
D03*
X85944D02*
D03*
X76102D02*
D03*
X74133D02*
D03*
X72165D02*
D03*
D41*
X70442Y187345D02*
D03*
X77135D02*
D03*
X255047Y93537D02*
D03*
X261740D02*
D03*
D42*
X80264Y234424D02*
D03*
X85579D02*
D03*
X80402Y227272D02*
D03*
X85717D02*
D03*
X80264Y220485D02*
D03*
X85579D02*
D03*
X98750Y196479D02*
D03*
X93435D02*
D03*
X95685Y147267D02*
D03*
X90370D02*
D03*
X95520Y139105D02*
D03*
X90205D02*
D03*
X303759Y250213D02*
D03*
X309074D02*
D03*
X190925Y344979D02*
D03*
X196240D02*
D03*
D43*
X55596Y234662D02*
D03*
X59533D02*
D03*
X65352D02*
D03*
X69289D02*
D03*
D44*
X76168Y128209D02*
D03*
X68688D02*
D03*
D45*
X288299Y244474D02*
D03*
Y239474D02*
D03*
Y234474D02*
D03*
Y229474D02*
D03*
X309653D02*
D03*
Y234474D02*
D03*
Y239474D02*
D03*
Y244474D02*
D03*
D46*
X329155Y267881D02*
D03*
X327580D02*
D03*
X328976Y280956D02*
D03*
X327401D02*
D03*
D47*
X109971Y142321D02*
D03*
X128475D02*
D03*
D48*
X139219Y141306D02*
D03*
Y148786D02*
D03*
D49*
X145260Y33979D02*
D03*
X184236D02*
D03*
D50*
X255047Y106452D02*
D03*
Y99759D02*
D03*
D51*
X261740Y105763D02*
D03*
Y100448D02*
D03*
X170392Y99511D02*
D03*
Y104826D02*
D03*
X259457Y67542D02*
D03*
Y62227D02*
D03*
X97126Y388187D02*
D03*
Y382872D02*
D03*
X227047Y390746D02*
D03*
Y396061D02*
D03*
D52*
X359582Y41443D02*
D03*
Y36443D02*
D03*
Y31443D02*
D03*
Y26443D02*
D03*
X338228D02*
D03*
Y31443D02*
D03*
Y36443D02*
D03*
Y41443D02*
D03*
D53*
X289646Y20551D02*
D03*
Y49291D02*
D03*
D54*
X320709Y31063D02*
D03*
X323268Y38543D02*
D03*
X325827Y31063D02*
D03*
D55*
X248087Y65689D02*
D03*
X241386D02*
D03*
X234685D02*
D03*
X227984D02*
D03*
X221284D02*
D03*
D56*
X206363Y52375D02*
D03*
Y69698D02*
D03*
D57*
X202751Y224081D02*
D03*
Y211877D02*
D03*
X210625D02*
D03*
Y224081D02*
D03*
D58*
X202751Y220735D02*
D03*
Y217979D02*
D03*
Y215223D02*
D03*
X210625D02*
D03*
Y217979D02*
D03*
Y220735D02*
D03*
D59*
X43626Y315147D02*
D03*
X54650D02*
D03*
D60*
X49659Y358263D02*
D03*
X55958D02*
D03*
D61*
X315925Y313480D02*
D03*
X302933Y369388D02*
D03*
D62*
X321929Y307673D02*
D03*
Y319288D02*
D03*
X308937Y375195D02*
D03*
Y363581D02*
D03*
D63*
X39648Y328241D02*
D03*
Y346241D02*
D03*
D64*
X186201Y351869D02*
D03*
Y369585D02*
D03*
X194665Y351869D02*
D03*
Y369585D02*
D03*
D65*
X65435Y337241D02*
D03*
D66*
X203031Y394782D02*
D03*
Y397341D02*
D03*
Y399900D02*
D03*
X210118D02*
D03*
Y397341D02*
D03*
Y394782D02*
D03*
D67*
X229016Y301081D02*
D03*
X227441D02*
D03*
X225866D02*
D03*
X224291D02*
D03*
Y305412D02*
D03*
X225866D02*
D03*
X227441D02*
D03*
X229016D02*
D03*
D68*
X256791Y284723D02*
D03*
Y289723D02*
D03*
Y294723D02*
D03*
Y299723D02*
D03*
X279193D02*
D03*
Y294723D02*
D03*
Y289723D02*
D03*
Y284723D02*
D03*
D69*
X326654Y330412D02*
D03*
Y350097D02*
D03*
D70*
X332854Y324113D02*
D03*
X335413D02*
D03*
D71*
X217992Y282774D02*
D03*
X198307D02*
D03*
D72*
X227047Y277557D02*
D03*
Y280117D02*
D03*
M02*
