G04*
G04 #@! TF.GenerationSoftware,Altium Limited,Altium Designer,21.3.2 (30)*
G04*
G04 Layer_Color=65535*
%FSLAX25Y25*%
%MOIN*%
G70*
G04*
G04 #@! TF.SameCoordinates,6E51047B-58C7-44D0-8EEE-2D495A345CE8*
G04*
G04*
G04 #@! TF.FilePolarity,Positive*
G04*
G01*
G75*
%ADD10C,0.00787*%
%ADD11C,0.00500*%
%ADD12C,0.00984*%
%ADD13C,0.00394*%
%ADD14C,0.01575*%
%ADD15C,0.00591*%
%ADD16C,0.01000*%
%ADD17C,0.00833*%
D10*
X39852Y143011D02*
G03*
X39852Y143011I-394J0D01*
G01*
X362697Y180118D02*
G03*
X362697Y180118I-394J0D01*
G01*
X101614Y398522D02*
G03*
X101614Y398522I-394J0D01*
G01*
X358268Y91732D02*
G03*
X358268Y92520I0J394D01*
G01*
D02*
G03*
X358268Y91732I0J-394D01*
G01*
X290276Y390727D02*
G03*
X290276Y390727I-394J0D01*
G01*
X91062Y279752D02*
G03*
X91456Y279752I197J0D01*
G01*
D02*
G03*
X91062Y279752I-197J0D01*
G01*
D02*
G03*
X91456Y279752I197J0D01*
G01*
X67637Y197561D02*
G03*
X67637Y197561I-394J0D01*
G01*
X152272Y136295D02*
G03*
X152272Y136295I-394J0D01*
G01*
X180496Y10357D02*
G03*
X188370Y18231I0J7874D01*
G01*
Y49727D02*
G03*
X180496Y57601I-7874J0D01*
G01*
X149000D02*
G03*
X141126Y49727I0J-7874D01*
G01*
Y18231D02*
G03*
X149000Y10357I7874J0D01*
G01*
X248480Y73465D02*
G03*
X248480Y73465I-394J0D01*
G01*
X100743Y35045D02*
G03*
X100743Y24011I-10376J-5517D01*
G01*
X132239Y35045D02*
G03*
X132239Y24011I-10376J-5517D01*
G01*
X349803Y327835D02*
G03*
X349803Y327835I-394J0D01*
G01*
X185709Y348522D02*
G03*
X186496Y348522I394J0D01*
G01*
D02*
G03*
X185709Y348522I-394J0D01*
G01*
X34262Y351170D02*
G03*
X34262Y351957I0J394D01*
G01*
D02*
G03*
X34262Y351170I0J-394D01*
G01*
X282386Y282223D02*
G03*
X282386Y282223I-394J0D01*
G01*
X39447Y386194D02*
Y392198D01*
X19545Y384816D02*
X38837D01*
X19545Y372218D02*
Y384816D01*
Y372218D02*
X38837D01*
Y384816D01*
X337992Y245571D02*
X372638D01*
X337992D02*
Y258957D01*
X372638Y245571D02*
Y295768D01*
X337992D02*
X372638D01*
X337992Y282382D02*
Y295768D01*
Y267028D02*
Y275098D01*
X168150Y62874D02*
X194921D01*
Y73504D01*
Y84921D02*
Y95551D01*
X168150D02*
X194921D01*
X162244Y68779D02*
Y73504D01*
Y68779D02*
X168150Y62874D01*
X162244Y89646D02*
X168150Y95551D01*
X162244Y84921D02*
Y89646D01*
X130772Y230566D02*
Y235487D01*
X119158Y229188D02*
X130576D01*
X119158Y226629D02*
Y229188D01*
Y226629D02*
X130576D01*
Y229188D01*
X149812Y130452D02*
X153945D01*
X72428Y124666D02*
Y131752D01*
X66227Y124666D02*
Y126241D01*
Y124666D02*
X78628D01*
Y126241D01*
X66227Y130178D02*
Y131752D01*
X78628D01*
Y130178D02*
Y131752D01*
X292677Y246620D02*
X305275D01*
Y227329D02*
Y246620D01*
X292677Y227329D02*
X305275D01*
X292677D02*
Y246620D01*
X285295Y247132D02*
X291299D01*
X119223Y132675D02*
Y151967D01*
X135676Y151247D02*
X137250D01*
X135676Y138845D02*
Y151247D01*
Y138845D02*
X137250D01*
X141187Y151247D02*
X142762D01*
Y138845D02*
Y151247D01*
X141187Y138845D02*
X142762D01*
X135676Y145046D02*
X142762D01*
X141126Y18231D02*
Y21774D01*
Y46184D02*
Y49727D01*
X188370Y46184D02*
Y49727D01*
X176559Y46184D02*
X188370D01*
X176559Y21774D02*
Y46184D01*
Y21774D02*
X188370D01*
Y18231D02*
Y21774D01*
X149000Y10357D02*
X180496D01*
X149000Y57601D02*
X180496D01*
X335224Y44199D02*
X341228D01*
X342606Y24297D02*
Y43588D01*
Y24297D02*
X355205D01*
Y43588D01*
X342606D02*
X355205D01*
X153107Y85356D02*
Y97955D01*
X133816Y85356D02*
X153107D01*
X133816D02*
Y97955D01*
X153107D01*
X153717Y99332D02*
Y105336D01*
X273307Y18583D02*
Y47326D01*
Y18583D02*
X283937D01*
X295354D02*
X305984D01*
X277241Y51260D02*
X283937D01*
X273307Y47326D02*
X277241Y51260D01*
X305984Y18583D02*
Y47326D01*
X295354Y51260D02*
X302050D01*
X305984Y47326D01*
X326220Y37461D02*
X327598D01*
Y33524D02*
Y37461D01*
X318937D02*
X320315D01*
X318937Y33524D02*
Y37461D01*
X204395Y59462D02*
X208332D01*
X206363D02*
X207938Y62218D01*
X204395D02*
X206363Y59462D01*
X204395Y62218D02*
X207938D01*
X206363Y59068D02*
Y59462D01*
Y62218D02*
Y63005D01*
X209989Y73537D02*
X211863D01*
X207363Y47773D02*
Y48537D01*
X211863D01*
Y73537D01*
X207363Y47773D02*
X211863D01*
Y48537D01*
X200863Y73537D02*
X202737D01*
X205363Y47773D02*
Y48537D01*
X200863D02*
X205363D01*
X200863D02*
Y73537D01*
Y47773D02*
X205363D01*
X200863D02*
Y48537D01*
X100787Y24094D02*
Y34961D01*
X132283Y24094D02*
Y34961D01*
X307657Y309937D02*
X311791D01*
X207953Y392617D02*
X212283D01*
X330984Y327262D02*
X335315D01*
X339646Y331593D01*
Y353246D01*
X330984D02*
X339646D01*
X317992Y327262D02*
X322323D01*
X313661Y331593D02*
X317992Y327262D01*
X313661Y331593D02*
Y353246D01*
X322323D01*
X221142Y287105D02*
Y291435D01*
X216811Y295766D02*
X221142Y291435D01*
X195157Y295766D02*
X216811D01*
X195157Y287105D02*
Y295766D01*
X221142Y274113D02*
Y278443D01*
X216811Y269782D02*
X221142Y274113D01*
X195157Y269782D02*
X216811D01*
X195157D02*
Y278443D01*
X353346Y347341D02*
Y352064D01*
X355707D01*
X356494Y351277D01*
Y349702D01*
X355707Y348915D01*
X353346D01*
X358068Y347341D02*
Y352064D01*
X360430D01*
X361217Y351277D01*
Y349702D01*
X360430Y348915D01*
X358068D01*
X359643D02*
X361217Y347341D01*
X365153Y352064D02*
X363579D01*
X362791Y351277D01*
Y348128D01*
X363579Y347341D01*
X365153D01*
X365940Y348128D01*
Y351277D01*
X365153Y352064D01*
X370663Y351277D02*
X369876Y352064D01*
X368301D01*
X367514Y351277D01*
Y348128D01*
X368301Y347341D01*
X369876D01*
X370663Y348128D01*
Y349702D01*
X369089D01*
X56350Y297920D02*
X54776D01*
X55563D01*
Y293984D01*
X54776Y293197D01*
X53989D01*
X53202Y293984D01*
X57925Y297920D02*
X61073D01*
X59499D01*
Y293197D01*
X62648D02*
Y296345D01*
X64222Y297920D01*
X65796Y296345D01*
Y293197D01*
Y295558D01*
X62648D01*
X70519Y297132D02*
X69732Y297920D01*
X68158D01*
X67370Y297132D01*
Y293984D01*
X68158Y293197D01*
X69732D01*
X70519Y293984D01*
Y295558D01*
X68945D01*
X365877Y32056D02*
Y28513D01*
X367648D01*
X368238Y29104D01*
Y29694D01*
X367648Y30285D01*
X365877D01*
X367648D01*
X368238Y30875D01*
Y31465D01*
X367648Y32056D01*
X365877D01*
X369419Y28513D02*
X370600D01*
X370009D01*
Y32056D01*
X369419Y31465D01*
D11*
X91735Y86698D02*
G03*
X91735Y63260I-43735J-11719D01*
G01*
X34714Y145570D02*
X44202D01*
X34714Y175570D02*
X44202D01*
X34714Y145570D02*
Y175570D01*
X44202Y145570D02*
Y175570D01*
X348917Y137992D02*
Y176969D01*
X371555D01*
Y137992D02*
Y176969D01*
X348917Y137992D02*
X371555D01*
X176654Y402026D02*
Y427813D01*
X105787Y402026D02*
Y427813D01*
X176654D01*
X105787Y304191D02*
X176654D01*
X205394Y381199D02*
Y387892D01*
X210512D01*
X205394Y309546D02*
Y317223D01*
Y309546D02*
X210512D01*
X293189D02*
X298307D01*
Y317223D01*
X293189Y387892D02*
X298307D01*
Y381199D02*
Y387892D01*
X99196Y21829D02*
X103133D01*
X101164Y19861D02*
Y23798D01*
X22424Y19861D02*
Y23798D01*
X91715Y86770D02*
X111243D01*
Y63188D02*
Y86770D01*
X91715Y63188D02*
X111243D01*
X55951Y172090D02*
X60678D01*
X76697D02*
X81424D01*
X76697Y146617D02*
X81424D01*
X55951D02*
X60678D01*
X81424D02*
Y172090D01*
X55951Y146617D02*
Y172090D01*
X70196Y193624D02*
X70787D01*
X70196D02*
Y196183D01*
Y204845D02*
Y207404D01*
X70787D01*
X87322Y193624D02*
X87913D01*
Y196183D01*
Y204845D02*
Y207404D01*
X87322D02*
X87913D01*
X146957Y139248D02*
Y159248D01*
X156800D01*
Y139248D02*
Y159248D01*
X146957Y139248D02*
X156800D01*
X214535Y54004D02*
X254835D01*
X214535Y42874D02*
Y54004D01*
X254835Y42874D02*
Y54004D01*
X394488Y49213D02*
Y84646D01*
X337795Y49213D02*
X394488D01*
X337795Y84646D02*
X342323D01*
X337795Y49213D02*
Y56496D01*
X362402Y84646D02*
X394488D01*
X337795Y76968D02*
Y84646D01*
X354331Y315049D02*
Y330620D01*
X352165Y302933D02*
X372244D01*
Y342736D01*
X352165D02*
X372244D01*
X352165Y332785D02*
X354331Y330620D01*
X352165Y332785D02*
Y342736D01*
Y312884D02*
X354331Y315049D01*
X352165Y302933D02*
Y312884D01*
X327835Y307575D02*
Y319386D01*
X256181Y302065D02*
X279803D01*
X256181Y282380D02*
X279803D01*
X314843Y363483D02*
Y375294D01*
D12*
X163113Y150404D02*
G03*
X163113Y150404I-492J0D01*
G01*
X192405Y33979D02*
G03*
X192405Y33979I-492J0D01*
G01*
X317657Y31063D02*
G03*
X317657Y31063I-492J0D01*
G01*
X231870Y307184D02*
G03*
X231870Y307184I-492J0D01*
G01*
D13*
X330568Y267881D02*
G03*
X330174Y267881I-197J0D01*
G01*
D02*
G03*
X330568Y267881I197J0D01*
G01*
X330388Y280956D02*
G03*
X329995Y280956I-197J0D01*
G01*
D02*
G03*
X330388Y280956I197J0D01*
G01*
X199995Y224278D02*
G03*
X199601Y224278I-197J0D01*
G01*
D02*
G03*
X199995Y224278I197J0D01*
G01*
X330697Y324113D02*
G03*
X331090Y324113I197J0D01*
G01*
D02*
G03*
X330697Y324113I-197J0D01*
G01*
X227047Y281880D02*
G03*
X227047Y282274I0J197D01*
G01*
D02*
G03*
X227047Y281880I0J-197D01*
G01*
X371850Y94685D02*
Y123819D01*
X349016Y94685D02*
X371654D01*
X349016Y123819D02*
X371850D01*
X350787Y103740D02*
Y114764D01*
X349016Y116535D02*
X350787Y114764D01*
X349016Y116535D02*
Y123819D01*
Y101969D02*
X350787Y103740D01*
X349016Y94685D02*
Y101969D01*
X89035Y267213D02*
Y287292D01*
X39232Y267213D02*
X89035D01*
X39232D02*
Y287292D01*
X54005Y284969D02*
X74261D01*
X76584Y287292D01*
X89035D01*
X51682D02*
X54005Y284969D01*
X39232Y287292D02*
X51682D01*
X184134Y352459D02*
Y368896D01*
X196732Y352459D02*
Y368896D01*
X40534Y333241D02*
Y341178D01*
Y350193D02*
X64550D01*
X40731Y324288D02*
X64353D01*
X150697Y139114D02*
X152796D01*
X153846Y138064D01*
X152796Y137015D01*
X150697D01*
X152272D01*
Y139114D01*
X153846Y123759D02*
X150697D01*
X151747D01*
X153846Y121660D01*
X152272Y123235D01*
X150697Y121660D01*
X109779Y53796D02*
X109320Y54255D01*
X108402D01*
X107943Y53796D01*
Y51959D01*
X108402Y51500D01*
X109320D01*
X109779Y51959D01*
X112075Y51500D02*
Y54255D01*
X110698Y52878D01*
X112534D01*
X113453Y51500D02*
X114371D01*
X113912D01*
Y54255D01*
X113453Y53796D01*
X69479Y21896D02*
X69020Y22355D01*
X68102D01*
X67643Y21896D01*
Y20059D01*
X68102Y19600D01*
X69020D01*
X69479Y20059D01*
X71775Y19600D02*
Y22355D01*
X70398Y20978D01*
X72234D01*
X73153Y21896D02*
X73612Y22355D01*
X74530D01*
X74989Y21896D01*
Y20059D01*
X74530Y19600D01*
X73612D01*
X73153Y20059D01*
Y21896D01*
X6962Y383759D02*
Y385726D01*
X7946D01*
X8274Y385399D01*
Y384742D01*
X7946Y384415D01*
X6962D01*
X7618D02*
X8274Y383759D01*
X8930D02*
X9586D01*
X9258D01*
Y385726D01*
X8930Y385399D01*
X11881Y383759D02*
X10570D01*
X11881Y385070D01*
Y385399D01*
X11553Y385726D01*
X10898D01*
X10570Y385399D01*
X23835Y396341D02*
Y394373D01*
X24819D01*
X25146Y394701D01*
Y395029D01*
X24819Y395357D01*
X23835D01*
X24819D01*
X25146Y395685D01*
Y396013D01*
X24819Y396341D01*
X23835D01*
X25802Y396013D02*
X26131Y396341D01*
X26786D01*
X27114Y396013D01*
Y395685D01*
X26786Y395357D01*
X26458D01*
X26786D01*
X27114Y395029D01*
Y394701D01*
X26786Y394373D01*
X26131D01*
X25802Y394701D01*
X332855Y289398D02*
Y288611D01*
Y289005D01*
X334823D01*
X335216Y288611D01*
Y288217D01*
X334823Y287824D01*
X333248Y290185D02*
X332855Y290579D01*
Y291366D01*
X333248Y291760D01*
X333642D01*
X334035Y291366D01*
Y290972D01*
Y291366D01*
X334429Y291760D01*
X334823D01*
X335216Y291366D01*
Y290579D01*
X334823Y290185D01*
X293583Y393009D02*
Y390714D01*
X294042Y390254D01*
X294960D01*
X295419Y390714D01*
Y393009D01*
X297715Y390254D02*
Y393009D01*
X296338Y391632D01*
X298174D01*
X57361Y261449D02*
X58410D01*
X57886D01*
Y264073D01*
X58410Y264597D01*
X58935D01*
X59460Y264073D01*
X54212Y264597D02*
X56311D01*
X54212Y262498D01*
Y261974D01*
X54737Y261449D01*
X55787D01*
X56311Y261974D01*
X64843Y389423D02*
X64515Y389095D01*
Y388439D01*
X64843Y388111D01*
X66155D01*
X66483Y388439D01*
Y389095D01*
X66155Y389423D01*
X64843Y390079D02*
X64515Y390407D01*
Y391063D01*
X64843Y391391D01*
X65171D01*
X65499Y391063D01*
Y390735D01*
Y391063D01*
X65827Y391391D01*
X66155D01*
X66483Y391063D01*
Y390407D01*
X66155Y390079D01*
Y392047D02*
X66483Y392374D01*
Y393031D01*
X66155Y393358D01*
X64843D01*
X64515Y393031D01*
Y392374D01*
X64843Y392047D01*
X65171D01*
X65499Y392374D01*
Y393358D01*
X80057Y219092D02*
X79729Y219420D01*
X79073D01*
X78745Y219092D01*
Y217780D01*
X79073Y217453D01*
X79729D01*
X80057Y217780D01*
X80713Y219092D02*
X81041Y219420D01*
X81697D01*
X82025Y219092D01*
Y218764D01*
X81697Y218437D01*
X81369D01*
X81697D01*
X82025Y218109D01*
Y217780D01*
X81697Y217453D01*
X81041D01*
X80713Y217780D01*
X82681Y219092D02*
X83009Y219420D01*
X83665D01*
X83993Y219092D01*
Y218764D01*
X83665Y218437D01*
X83993Y218109D01*
Y217780D01*
X83665Y217453D01*
X83009D01*
X82681Y217780D01*
Y218109D01*
X83009Y218437D01*
X82681Y218764D01*
Y219092D01*
X83009Y218437D02*
X83665D01*
X175467Y144842D02*
Y145498D01*
Y145170D01*
X177435D01*
Y144842D01*
Y145498D01*
X175795Y147794D02*
X175467Y147466D01*
Y146810D01*
X175795Y146482D01*
X177107D01*
X177435Y146810D01*
Y147466D01*
X177107Y147794D01*
X177435Y148450D02*
Y149106D01*
Y148778D01*
X175467D01*
X175795Y148450D01*
X275291Y64353D02*
X274636Y65009D01*
X273324D01*
X272668Y64353D01*
Y61729D01*
X273324Y61073D01*
X274636D01*
X275291Y61729D01*
X276603Y64353D02*
X277259Y65009D01*
X278571D01*
X279227Y64353D01*
Y63697D01*
X278571Y63041D01*
X277915D01*
X278571D01*
X279227Y62385D01*
Y61729D01*
X278571Y61073D01*
X277259D01*
X276603Y61729D01*
X280539Y65009D02*
X283163D01*
Y64353D01*
X280539Y61729D01*
Y61073D01*
X88695Y154064D02*
X88432Y154327D01*
X87907D01*
X87645Y154064D01*
Y153015D01*
X87907Y152752D01*
X88432D01*
X88695Y153015D01*
X89219Y154064D02*
X89482Y154327D01*
X90007D01*
X90269Y154064D01*
Y153802D01*
X90007Y153540D01*
X89744D01*
X90007D01*
X90269Y153277D01*
Y153015D01*
X90007Y152752D01*
X89482D01*
X89219Y153015D01*
X91843Y154327D02*
X91318Y154064D01*
X90794Y153540D01*
Y153015D01*
X91056Y152752D01*
X91581D01*
X91843Y153015D01*
Y153277D01*
X91581Y153540D01*
X90794D01*
X260769Y53490D02*
X261425Y54146D01*
Y55458D01*
X260769Y56114D01*
X258145D01*
X257489Y55458D01*
Y54146D01*
X258145Y53490D01*
X260769Y52178D02*
X261425Y51522D01*
Y50210D01*
X260769Y49554D01*
X260113D01*
X259457Y50210D01*
Y50866D01*
Y50210D01*
X258801Y49554D01*
X258145D01*
X257489Y50210D01*
Y51522D01*
X258145Y52178D01*
X260769Y48242D02*
X261425Y47586D01*
Y46274D01*
X260769Y45619D01*
X260113D01*
X259457Y46274D01*
Y46930D01*
Y46274D01*
X258801Y45619D01*
X258145D01*
X257489Y46274D01*
Y47586D01*
X258145Y48242D01*
X66845Y213227D02*
Y211915D01*
X67107Y211652D01*
X67632D01*
X67895Y211915D01*
Y213227D01*
X68419Y212964D02*
X68682Y213227D01*
X69207D01*
X69469Y212964D01*
Y212702D01*
X69207Y212440D01*
X69469Y212177D01*
Y211915D01*
X69207Y211652D01*
X68682D01*
X68419Y211915D01*
Y212177D01*
X68682Y212440D01*
X68419Y212702D01*
Y212964D01*
X68682Y212440D02*
X69207D01*
X212968Y80609D02*
Y77329D01*
X213624Y76673D01*
X214936D01*
X215592Y77329D01*
Y80609D01*
X216903D02*
X219527D01*
Y79953D01*
X216903Y77329D01*
Y76673D01*
X171378Y158878D02*
Y160190D01*
Y159534D01*
X173346D01*
Y160846D02*
X171378D01*
Y161830D01*
X171706Y162158D01*
X172362D01*
X172690Y161830D01*
Y160846D01*
X173674Y162814D02*
Y164126D01*
X171378Y164782D02*
X172690D01*
X173346Y165437D01*
X172690Y166094D01*
X171378D01*
Y166749D02*
X173346D01*
Y167733D01*
X173018Y168061D01*
X172690D01*
X172362Y167733D01*
Y166749D01*
Y167733D01*
X172034Y168061D01*
X171706D01*
X171378Y167733D01*
Y166749D01*
Y168717D02*
Y170029D01*
Y169373D01*
X173346D01*
X171378Y170685D02*
X171706D01*
X172362Y171341D01*
X171706Y171997D01*
X171378D01*
X172362Y171341D02*
X173346D01*
X173674Y172653D02*
Y173965D01*
X171706Y175933D02*
X171378Y175605D01*
Y174949D01*
X171706Y174621D01*
X173018D01*
X173346Y174949D01*
Y175605D01*
X173018Y175933D01*
X171378Y176589D02*
X173346D01*
X172362D01*
Y177901D01*
X171378D01*
X173346D01*
Y178557D02*
Y179213D01*
Y178885D01*
X171378D01*
X171706Y178557D01*
X113664Y191389D02*
X116026D01*
X114845D01*
Y187847D01*
X117206D02*
Y191389D01*
X118977D01*
X119568Y190798D01*
Y189618D01*
X118977Y189027D01*
X117206D01*
X120748Y187256D02*
X123110D01*
X126652Y190798D02*
X126062Y191389D01*
X124881D01*
X124291Y190798D01*
Y188437D01*
X124881Y187847D01*
X126062D01*
X126652Y188437D01*
Y189618D01*
X125471D01*
X127833Y187847D02*
Y191389D01*
X130194Y187847D01*
Y191389D01*
X131375D02*
Y187847D01*
X133146D01*
X133736Y188437D01*
Y190798D01*
X133146Y191389D01*
X131375D01*
X134917Y187847D02*
X136098D01*
X135508D01*
Y191389D01*
X134917Y190798D01*
X53768Y239373D02*
Y241341D01*
X54752D01*
X55080Y241013D01*
Y240357D01*
X54752Y240029D01*
X53768D01*
X54424D02*
X55080Y239373D01*
X55735D02*
X56392D01*
X56063D01*
Y241341D01*
X55735Y241013D01*
X57375Y239373D02*
X58031D01*
X57703D01*
Y241341D01*
X57375Y241013D01*
X63468Y239373D02*
Y241341D01*
X64452D01*
X64780Y241013D01*
Y240357D01*
X64452Y240029D01*
X63468D01*
X64124D02*
X64780Y239373D01*
X66747D02*
X65435D01*
X66747Y240685D01*
Y241013D01*
X66420Y241341D01*
X65763D01*
X65435Y241013D01*
X64300Y221290D02*
X66268D01*
Y220306D01*
X65940Y219978D01*
X65284D01*
X64956Y220306D01*
Y221290D01*
Y220634D02*
X64300Y219978D01*
Y218338D02*
X66268D01*
X65284Y219322D01*
Y218010D01*
X65940Y217354D02*
X66268Y217026D01*
Y216370D01*
X65940Y216042D01*
X64628D01*
X64300Y216370D01*
Y217026D01*
X64628Y217354D01*
X65940D01*
X51518Y214744D02*
X53092D01*
Y213957D01*
X52830Y213695D01*
X52305D01*
X52043Y213957D01*
Y214744D01*
Y214220D02*
X51518Y213695D01*
X52830Y213170D02*
X53092Y212908D01*
Y212383D01*
X52830Y212121D01*
X52567D01*
X52305Y212383D01*
Y212645D01*
Y212383D01*
X52043Y212121D01*
X51780D01*
X51518Y212383D01*
Y212908D01*
X51780Y213170D01*
Y211596D02*
X51518Y211333D01*
Y210809D01*
X51780Y210546D01*
X52830D01*
X53092Y210809D01*
Y211333D01*
X52830Y211596D01*
X52567D01*
X52305Y211333D01*
Y210546D01*
X57391Y229802D02*
Y231770D01*
X58375D01*
X58703Y231442D01*
Y230786D01*
X58375Y230458D01*
X57391D01*
X58047D02*
X58703Y229802D01*
X59359Y231442D02*
X59687Y231770D01*
X60343D01*
X60671Y231442D01*
Y231114D01*
X60343Y230786D01*
X60015D01*
X60343D01*
X60671Y230458D01*
Y230130D01*
X60343Y229802D01*
X59687D01*
X59359Y230130D01*
X61327Y231442D02*
X61655Y231770D01*
X62311D01*
X62639Y231442D01*
Y231114D01*
X62311Y230786D01*
X62639Y230458D01*
Y230130D01*
X62311Y229802D01*
X61655D01*
X61327Y230130D01*
Y230458D01*
X61655Y230786D01*
X61327Y231114D01*
Y231442D01*
X61655Y230786D02*
X62311D01*
X73060Y182105D02*
Y183679D01*
X73847D01*
X74109Y183417D01*
Y182892D01*
X73847Y182630D01*
X73060D01*
X73584D02*
X74109Y182105D01*
X74634Y183417D02*
X74896Y183679D01*
X75421D01*
X75683Y183417D01*
Y183154D01*
X75421Y182892D01*
X75159D01*
X75421D01*
X75683Y182630D01*
Y182367D01*
X75421Y182105D01*
X74896D01*
X74634Y182367D01*
X76208Y183679D02*
X77258D01*
Y183417D01*
X76208Y182367D01*
Y182105D01*
X67566Y229308D02*
Y231276D01*
X68550D01*
X68878Y230948D01*
Y230292D01*
X68550Y229964D01*
X67566D01*
X68222D02*
X68878Y229308D01*
X69534Y230948D02*
X69862Y231276D01*
X70518D01*
X70846Y230948D01*
Y230620D01*
X70518Y230292D01*
X70190D01*
X70518D01*
X70846Y229964D01*
Y229636D01*
X70518Y229308D01*
X69862D01*
X69534Y229636D01*
X72813Y231276D02*
X72157Y230948D01*
X71501Y230292D01*
Y229636D01*
X71829Y229308D01*
X72485D01*
X72813Y229636D01*
Y229964D01*
X72485Y230292D01*
X71501D01*
X122351Y94147D02*
X118415D01*
Y96115D01*
X119071Y96771D01*
X120383D01*
X121039Y96115D01*
Y94147D01*
Y95459D02*
X122351Y96771D01*
X119071Y98083D02*
X118415Y98739D01*
Y100051D01*
X119071Y100707D01*
X119727D01*
X120383Y100051D01*
Y99395D01*
Y100051D01*
X121039Y100707D01*
X121695D01*
X122351Y100051D01*
Y98739D01*
X121695Y98083D01*
X118415Y104642D02*
Y102019D01*
X120383D01*
X119727Y103331D01*
Y103987D01*
X120383Y104642D01*
X121695D01*
X122351Y103987D01*
Y102675D01*
X121695Y102019D01*
X127910Y162313D02*
Y160738D01*
X127123D01*
X126860Y161001D01*
Y161525D01*
X127123Y161788D01*
X127910D01*
X127385D02*
X126860Y162313D01*
X126336Y161001D02*
X126073Y160738D01*
X125549D01*
X125286Y161001D01*
Y161263D01*
X125549Y161525D01*
X125811D01*
X125549D01*
X125286Y161788D01*
Y162050D01*
X125549Y162313D01*
X126073D01*
X126336Y162050D01*
X123974Y162313D02*
Y160738D01*
X124761Y161525D01*
X123712D01*
X121268Y162859D02*
X119694D01*
Y163646D01*
X119956Y163909D01*
X120481D01*
X120743Y163646D01*
Y162859D01*
Y163384D02*
X121268Y163909D01*
X119956Y164434D02*
X119694Y164696D01*
Y165221D01*
X119956Y165483D01*
X120219D01*
X120481Y165221D01*
Y164958D01*
Y165221D01*
X120743Y165483D01*
X121006D01*
X121268Y165221D01*
Y164696D01*
X121006Y164434D01*
X119956Y166008D02*
X119694Y166270D01*
Y166795D01*
X119956Y167057D01*
X120219D01*
X120481Y166795D01*
Y166533D01*
Y166795D01*
X120743Y167057D01*
X121006D01*
X121268Y166795D01*
Y166270D01*
X121006Y166008D01*
X162339Y124113D02*
Y122146D01*
X161355D01*
X161027Y122474D01*
Y123129D01*
X161355Y123458D01*
X162339D01*
X161683D02*
X161027Y124113D01*
X160371Y122474D02*
X160043Y122146D01*
X159387D01*
X159059Y122474D01*
Y122801D01*
X159387Y123129D01*
X159715D01*
X159387D01*
X159059Y123458D01*
Y123785D01*
X159387Y124113D01*
X160043D01*
X160371Y123785D01*
X157091Y124113D02*
X158403D01*
X157091Y122801D01*
Y122474D01*
X157419Y122146D01*
X158075D01*
X158403Y122474D01*
X194862Y137624D02*
X192894D01*
Y138608D01*
X193222Y138936D01*
X193878D01*
X194206Y138608D01*
Y137624D01*
Y138280D02*
X194862Y138936D01*
X193222Y139592D02*
X192894Y139920D01*
Y140576D01*
X193222Y140904D01*
X193550D01*
X193878Y140576D01*
Y140248D01*
Y140576D01*
X194206Y140904D01*
X194534D01*
X194862Y140576D01*
Y139920D01*
X194534Y139592D01*
X194862Y141560D02*
Y142216D01*
Y141887D01*
X192894D01*
X193222Y141560D01*
X256486Y110801D02*
X254518D01*
Y111785D01*
X254846Y112113D01*
X255502D01*
X255830Y111785D01*
Y110801D01*
Y111457D02*
X256486Y112113D01*
Y114081D02*
Y112769D01*
X255174Y114081D01*
X254846D01*
X254518Y113753D01*
Y113097D01*
X254846Y112769D01*
X256486Y116049D02*
Y114737D01*
X255174Y116049D01*
X254846D01*
X254518Y115721D01*
Y115065D01*
X254846Y114737D01*
X147243Y133732D02*
X145275D01*
Y132420D01*
X147243Y130452D02*
Y131764D01*
X145275D01*
Y130452D01*
X146259Y131764D02*
Y131108D01*
X147243Y129796D02*
X145275D01*
Y128813D01*
X145603Y128484D01*
X146915D01*
X147243Y128813D01*
Y129796D01*
X145275Y127829D02*
Y127173D01*
Y127501D01*
X147243D01*
X146915Y127829D01*
X50494Y156741D02*
X54430D01*
Y159364D01*
Y162644D02*
X50494D01*
X52462Y160677D01*
Y163300D01*
X155724Y135981D02*
X156248D01*
X155986D01*
Y137293D01*
X156248Y137555D01*
X156511D01*
X156773Y137293D01*
X154149Y135981D02*
X154674Y136243D01*
X155199Y136768D01*
Y137293D01*
X154936Y137555D01*
X154412D01*
X154149Y137293D01*
Y137030D01*
X154412Y136768D01*
X155199D01*
X50219Y219543D02*
X49891Y219871D01*
X49235D01*
X48907Y219543D01*
Y218231D01*
X49235Y217903D01*
X49891D01*
X50219Y218231D01*
X50875Y219871D02*
X52187D01*
Y219543D01*
X50875Y218231D01*
Y217903D01*
X52843Y219543D02*
X53171Y219871D01*
X53827D01*
X54155Y219543D01*
Y218231D01*
X53827Y217903D01*
X53171D01*
X52843Y218231D01*
Y219543D01*
X59771Y184584D02*
X59443Y184912D01*
X58787D01*
X58459Y184584D01*
Y183272D01*
X58787Y182944D01*
X59443D01*
X59771Y183272D01*
X61739Y184912D02*
X61083Y184584D01*
X60427Y183928D01*
Y183272D01*
X60755Y182944D01*
X61411D01*
X61739Y183272D01*
Y183600D01*
X61411Y183928D01*
X60427D01*
X62395Y183272D02*
X62723Y182944D01*
X63379D01*
X63707Y183272D01*
Y184584D01*
X63379Y184912D01*
X62723D01*
X62395Y184584D01*
Y184256D01*
X62723Y183928D01*
X63707D01*
X59193Y198512D02*
X58865Y198840D01*
X58209D01*
X57881Y198512D01*
Y197201D01*
X58209Y196873D01*
X58865D01*
X59193Y197201D01*
X61160Y198840D02*
X60504Y198512D01*
X59848Y197856D01*
Y197201D01*
X60176Y196873D01*
X60832D01*
X61160Y197201D01*
Y197529D01*
X60832Y197856D01*
X59848D01*
X61816Y198512D02*
X62144Y198840D01*
X62800D01*
X63128Y198512D01*
Y198185D01*
X62800Y197856D01*
X63128Y197529D01*
Y197201D01*
X62800Y196873D01*
X62144D01*
X61816Y197201D01*
Y197529D01*
X62144Y197856D01*
X61816Y198185D01*
Y198512D01*
X62144Y197856D02*
X62800D01*
X89995Y196464D02*
X89732Y196727D01*
X89208D01*
X88945Y196464D01*
Y195415D01*
X89208Y195152D01*
X89732D01*
X89995Y195415D01*
X91569Y196727D02*
X91044Y196464D01*
X90519Y195940D01*
Y195415D01*
X90782Y195152D01*
X91307D01*
X91569Y195415D01*
Y195677D01*
X91307Y195940D01*
X90519D01*
X92094Y196727D02*
X93143D01*
Y196464D01*
X92094Y195415D01*
Y195152D01*
X88495Y145864D02*
X88232Y146127D01*
X87708D01*
X87445Y145864D01*
Y144815D01*
X87708Y144553D01*
X88232D01*
X88495Y144815D01*
X90069Y146127D02*
X89544Y145864D01*
X89019Y145340D01*
Y144815D01*
X89282Y144553D01*
X89806D01*
X90069Y144815D01*
Y145077D01*
X89806Y145340D01*
X89019D01*
X91643Y146127D02*
X91118Y145864D01*
X90594Y145340D01*
Y144815D01*
X90856Y144553D01*
X91381D01*
X91643Y144815D01*
Y145077D01*
X91381Y145340D01*
X90594D01*
X91695Y203264D02*
X91432Y203527D01*
X90908D01*
X90645Y203264D01*
Y202215D01*
X90908Y201953D01*
X91432D01*
X91695Y202215D01*
X93269Y203527D02*
X92744Y203264D01*
X92219Y202740D01*
Y202215D01*
X92482Y201953D01*
X93006D01*
X93269Y202215D01*
Y202477D01*
X93006Y202740D01*
X92219D01*
X94843Y203527D02*
X93794D01*
Y202740D01*
X94318Y203002D01*
X94581D01*
X94843Y202740D01*
Y202215D01*
X94581Y201953D01*
X94056D01*
X93794Y202215D01*
X88040Y186371D02*
X88302Y186633D01*
Y187158D01*
X88040Y187420D01*
X86990D01*
X86728Y187158D01*
Y186633D01*
X86990Y186371D01*
X88302Y184797D02*
X88040Y185321D01*
X87515Y185846D01*
X86990D01*
X86728Y185584D01*
Y185059D01*
X86990Y184797D01*
X87253D01*
X87515Y185059D01*
Y185846D01*
X86728Y183485D02*
X88302D01*
X87515Y184272D01*
Y183222D01*
X91408Y221797D02*
X91736Y222125D01*
Y222781D01*
X91408Y223109D01*
X90096D01*
X89768Y222781D01*
Y222125D01*
X90096Y221797D01*
X91736Y219829D02*
X91408Y220485D01*
X90752Y221141D01*
X90096D01*
X89768Y220813D01*
Y220157D01*
X90096Y219829D01*
X90424D01*
X90752Y220157D01*
Y221141D01*
X91408Y219173D02*
X91736Y218845D01*
Y218190D01*
X91408Y217862D01*
X91080D01*
X90752Y218190D01*
Y218517D01*
Y218190D01*
X90424Y217862D01*
X90096D01*
X89768Y218190D01*
Y218845D01*
X90096Y219173D01*
X91644Y229092D02*
X91972Y229420D01*
Y230076D01*
X91644Y230404D01*
X90332D01*
X90004Y230076D01*
Y229420D01*
X90332Y229092D01*
X91972Y227124D02*
X91644Y227780D01*
X90988Y228436D01*
X90332D01*
X90004Y228108D01*
Y227452D01*
X90332Y227124D01*
X90660D01*
X90988Y227452D01*
Y228436D01*
X90004Y225156D02*
Y226468D01*
X91316Y225156D01*
X91644D01*
X91972Y225484D01*
Y226140D01*
X91644Y226468D01*
X91374Y236086D02*
X91703Y236414D01*
Y237070D01*
X91374Y237398D01*
X90063D01*
X89735Y237070D01*
Y236414D01*
X90063Y236086D01*
X91703Y234119D02*
X91374Y234774D01*
X90719Y235430D01*
X90063D01*
X89735Y235102D01*
Y234447D01*
X90063Y234119D01*
X90391D01*
X90719Y234447D01*
Y235430D01*
X89735Y233463D02*
Y232807D01*
Y233135D01*
X91703D01*
X91374Y233463D01*
X261084Y112394D02*
X260756Y112066D01*
Y111410D01*
X261084Y111082D01*
X262396D01*
X262724Y111410D01*
Y112066D01*
X262396Y112394D01*
X260756Y114362D02*
X261084Y113706D01*
X261740Y113050D01*
X262396D01*
X262724Y113378D01*
Y114034D01*
X262396Y114362D01*
X262068D01*
X261740Y114034D01*
Y113050D01*
X261084Y115018D02*
X260756Y115346D01*
Y116002D01*
X261084Y116330D01*
X262396D01*
X262724Y116002D01*
Y115346D01*
X262396Y115018D01*
X261084D01*
X172725Y91592D02*
X173381Y92248D01*
Y93560D01*
X172725Y94216D01*
X170101D01*
X169445Y93560D01*
Y92248D01*
X170101Y91592D01*
X173381Y87657D02*
Y90280D01*
X171413D01*
X172069Y88969D01*
Y88313D01*
X171413Y87657D01*
X170101D01*
X169445Y88313D01*
Y89625D01*
X170101Y90280D01*
Y86345D02*
X169445Y85689D01*
Y84377D01*
X170101Y83721D01*
X172725D01*
X173381Y84377D01*
Y85689D01*
X172725Y86345D01*
X172069D01*
X171413Y85689D01*
Y83721D01*
X172713Y61694D02*
X172057Y62350D01*
X170745D01*
X170089Y61694D01*
Y59070D01*
X170745Y58414D01*
X172057D01*
X172713Y59070D01*
X176649Y62350D02*
X174025D01*
Y60382D01*
X175337Y61038D01*
X175993D01*
X176649Y60382D01*
Y59070D01*
X175993Y58414D01*
X174681D01*
X174025Y59070D01*
X177961Y61694D02*
X178617Y62350D01*
X179929D01*
X180585Y61694D01*
Y61038D01*
X179929Y60382D01*
X180585Y59726D01*
Y59070D01*
X179929Y58414D01*
X178617D01*
X177961Y59070D01*
Y59726D01*
X178617Y60382D01*
X177961Y61038D01*
Y61694D01*
X178617Y60382D02*
X179929D01*
X268009Y54999D02*
X268665Y55655D01*
Y56967D01*
X268009Y57623D01*
X265386D01*
X264730Y56967D01*
Y55655D01*
X265386Y54999D01*
X268665Y51064D02*
Y53687D01*
X266698D01*
X267353Y52375D01*
Y51719D01*
X266698Y51064D01*
X265386D01*
X264730Y51719D01*
Y53031D01*
X265386Y53687D01*
X268665Y49751D02*
Y47128D01*
X268009D01*
X265386Y49751D01*
X264730D01*
X130780Y181113D02*
X130452Y181441D01*
X129796D01*
X129468Y181113D01*
Y179801D01*
X129796Y179473D01*
X130452D01*
X130780Y179801D01*
X132747Y181441D02*
X131436D01*
Y180457D01*
X132091Y180785D01*
X132420D01*
X132747Y180457D01*
Y179801D01*
X132420Y179473D01*
X131764D01*
X131436Y179801D01*
X133403Y181113D02*
X133731Y181441D01*
X134387D01*
X134715Y181113D01*
Y180785D01*
X134387Y180457D01*
X134059D01*
X134387D01*
X134715Y180129D01*
Y179801D01*
X134387Y179473D01*
X133731D01*
X133403Y179801D01*
X178721Y124357D02*
X178393Y124029D01*
Y123373D01*
X178721Y123045D01*
X180033D01*
X180361Y123373D01*
Y124029D01*
X180033Y124357D01*
X178393Y126325D02*
Y125013D01*
X179377D01*
X179050Y125669D01*
Y125997D01*
X179377Y126325D01*
X180033D01*
X180361Y125997D01*
Y125341D01*
X180033Y125013D01*
X180361Y126981D02*
Y127637D01*
Y127309D01*
X178393D01*
X178721Y126981D01*
X181607Y153854D02*
X181804Y154050D01*
Y154444D01*
X181607Y154641D01*
X180820D01*
X180623Y154444D01*
Y154050D01*
X180820Y153854D01*
X181804Y152673D02*
Y153460D01*
X181214D01*
X181411Y153066D01*
Y152870D01*
X181214Y152673D01*
X180820D01*
X180623Y152870D01*
Y153263D01*
X180820Y153460D01*
X181607Y152279D02*
X181804Y152083D01*
Y151689D01*
X181607Y151492D01*
X180820D01*
X180623Y151689D01*
Y152083D01*
X180820Y152279D01*
X181607D01*
X158454Y176268D02*
X158782Y176596D01*
Y177252D01*
X158454Y177579D01*
X157142D01*
X156814Y177252D01*
Y176596D01*
X157142Y176268D01*
X156814Y174628D02*
X158782D01*
X157798Y175612D01*
Y174300D01*
X157142Y173644D02*
X156814Y173316D01*
Y172660D01*
X157142Y172332D01*
X158454D01*
X158782Y172660D01*
Y173316D01*
X158454Y173644D01*
X158126D01*
X157798Y173316D01*
Y172332D01*
X159051Y95093D02*
X155116D01*
Y93125D01*
X155772Y92469D01*
X156428D01*
X157084Y93125D01*
Y95093D01*
Y93125D01*
X157739Y92469D01*
X158396D01*
X159051Y93125D01*
Y95093D01*
X155116Y88533D02*
Y91157D01*
X157739Y88533D01*
X158396D01*
X159051Y89189D01*
Y90501D01*
X158396Y91157D01*
X255805Y87692D02*
Y89660D01*
X256789D01*
X257117Y89332D01*
Y88676D01*
X256789Y88348D01*
X255805D01*
X256461D02*
X257117Y87692D01*
X257773Y89332D02*
X258101Y89660D01*
X258757D01*
X259085Y89332D01*
Y89004D01*
X258757Y88676D01*
X258429D01*
X258757D01*
X259085Y88348D01*
Y88020D01*
X258757Y87692D01*
X258101D01*
X257773Y88020D01*
X259741Y89332D02*
X260069Y89660D01*
X260725D01*
X261053Y89332D01*
Y88020D01*
X260725Y87692D01*
X260069D01*
X259741Y88020D01*
Y89332D01*
X145527Y200998D02*
Y203360D01*
Y202179D01*
X149069D01*
Y204541D02*
X145527D01*
Y206312D01*
X146118Y206902D01*
X147298D01*
X147889Y206312D01*
Y204541D01*
X149069Y208083D02*
Y209264D01*
Y208673D01*
X145527D01*
X146118Y208083D01*
X138449Y232356D02*
Y231175D01*
Y231766D01*
X134907D01*
Y232356D01*
Y231175D01*
X137859Y227043D02*
X138449Y227633D01*
Y228814D01*
X137859Y229404D01*
X135497D01*
X134907Y228814D01*
Y227633D01*
X135497Y227043D01*
Y225862D02*
X134907Y225272D01*
Y224091D01*
X135497Y223501D01*
X137859D01*
X138449Y224091D01*
Y225272D01*
X137859Y225862D01*
X137268D01*
X136678Y225272D01*
Y223501D01*
X118174Y214644D02*
X118764Y215235D01*
Y216415D01*
X118174Y217006D01*
X115812D01*
X115222Y216415D01*
Y215235D01*
X115812Y214644D01*
X115222Y211693D02*
X118764D01*
X116993Y213464D01*
Y211102D01*
X118764Y207560D02*
Y209921D01*
X116993D01*
X117583Y208741D01*
Y208150D01*
X116993Y207560D01*
X115812D01*
X115222Y208150D01*
Y209331D01*
X115812Y209921D01*
X129329Y223625D02*
X128739Y224215D01*
X127558D01*
X126968Y223625D01*
Y221264D01*
X127558Y220673D01*
X128739D01*
X129329Y221264D01*
X132871Y224215D02*
X130510D01*
Y222444D01*
X131691Y223035D01*
X132281D01*
X132871Y222444D01*
Y221264D01*
X132281Y220673D01*
X131100D01*
X130510Y221264D01*
X129985Y242298D02*
X130575Y242889D01*
Y244069D01*
X129985Y244660D01*
X127623D01*
X127033Y244069D01*
Y242889D01*
X127623Y242298D01*
X127033Y239346D02*
X130575D01*
X128804Y241118D01*
Y238756D01*
X203909Y230779D02*
X205090D01*
X204499D01*
Y227237D01*
X203909D01*
X205090D01*
X209222Y230189D02*
X208632Y230779D01*
X207451D01*
X206861Y230189D01*
Y227827D01*
X207451Y227237D01*
X208632D01*
X209222Y227827D01*
X210403Y230189D02*
X210993Y230779D01*
X212174D01*
X212764Y230189D01*
Y229598D01*
X212174Y229008D01*
X212764Y228417D01*
Y227827D01*
X212174Y227237D01*
X210993D01*
X210403Y227827D01*
Y228417D01*
X210993Y229008D01*
X210403Y229598D01*
Y230189D01*
X210993Y229008D02*
X212174D01*
X219837Y209672D02*
X220427Y209082D01*
X221608D01*
X222198Y209672D01*
Y212034D01*
X221608Y212624D01*
X220427D01*
X219837Y212034D01*
X218656Y209672D02*
X218066Y209082D01*
X216885D01*
X216295Y209672D01*
Y210263D01*
X216885Y210853D01*
X217476D01*
X216885D01*
X216295Y211443D01*
Y212034D01*
X216885Y212624D01*
X218066D01*
X218656Y212034D01*
X192529Y234725D02*
X191939Y235315D01*
X190758D01*
X190168Y234725D01*
Y232364D01*
X190758Y231773D01*
X191939D01*
X192529Y232364D01*
X196071Y231773D02*
X193710D01*
X196071Y234135D01*
Y234725D01*
X195481Y235315D01*
X194300D01*
X193710Y234725D01*
X200603Y234806D02*
X200013Y235396D01*
X198832D01*
X198242Y234806D01*
Y232444D01*
X198832Y231854D01*
X200013D01*
X200603Y232444D01*
X201784Y231854D02*
X202965D01*
X202374D01*
Y235396D01*
X201784Y234806D01*
X85965Y48511D02*
Y44576D01*
X87933D01*
X88589Y45232D01*
Y47856D01*
X87933Y48511D01*
X85965D01*
X89901D02*
X92525D01*
Y47856D01*
X89901Y45232D01*
Y44576D01*
X116405Y47558D02*
Y43623D01*
X118373D01*
X119029Y44279D01*
Y46902D01*
X118373Y47558D01*
X116405D01*
X120341Y46902D02*
X120997Y47558D01*
X122309D01*
X122965Y46902D01*
Y46246D01*
X122309Y45591D01*
X122965Y44935D01*
Y44279D01*
X122309Y43623D01*
X120997D01*
X120341Y44279D01*
Y44935D01*
X120997Y45591D01*
X120341Y46246D01*
Y46902D01*
X120997Y45591D02*
X122309D01*
X309620Y24475D02*
Y28411D01*
X311588D01*
X312244Y27755D01*
Y26443D01*
X311588Y25787D01*
X309620D01*
X310932D02*
X312244Y24475D01*
X313556D02*
X314868D01*
X314212D01*
Y28411D01*
X313556Y27755D01*
X200768Y80309D02*
Y76373D01*
X202735D01*
X203392Y77029D01*
Y79653D01*
X202735Y80309D01*
X200768D01*
X206671Y76373D02*
Y80309D01*
X204703Y78341D01*
X207327D01*
X328085Y33031D02*
Y29095D01*
X330053D01*
X330709Y29751D01*
Y32375D01*
X330053Y33031D01*
X328085D01*
X332021Y29095D02*
X333332D01*
X332677D01*
Y33031D01*
X332021Y32375D01*
X352931Y301263D02*
X352013D01*
X352472D01*
Y298968D01*
X352013Y298508D01*
X351554D01*
X351094Y298968D01*
X353850Y298508D02*
X354768D01*
X354309D01*
Y301263D01*
X353850Y300804D01*
X356145D02*
X356605Y301263D01*
X357523D01*
X357982Y300804D01*
Y300345D01*
X357523Y299886D01*
X357064D01*
X357523D01*
X357982Y299427D01*
Y298968D01*
X357523Y298508D01*
X356605D01*
X356145Y298968D01*
X239583Y280969D02*
X241682D01*
X240632D01*
Y277820D01*
X242731D02*
Y280969D01*
X244306D01*
X244830Y280444D01*
Y279395D01*
X244306Y278870D01*
X242731D01*
X245880Y277296D02*
X247979D01*
X249029Y277820D02*
Y280969D01*
X250078Y279919D01*
X251128Y280969D01*
Y277820D01*
X252177Y280969D02*
X254276D01*
X253227D01*
Y277820D01*
X255326Y280969D02*
X257425Y277820D01*
Y280969D02*
X255326Y277820D01*
X239850Y259807D02*
X241949D01*
X240900D01*
Y256659D01*
X242999D02*
Y259807D01*
X244573D01*
X245098Y259283D01*
Y258233D01*
X244573Y257709D01*
X242999D01*
X246147Y256134D02*
X248247D01*
X249296Y256659D02*
Y259807D01*
X250346Y258758D01*
X251395Y259807D01*
Y256659D01*
X252445D02*
Y259807D01*
X254019D01*
X254544Y259283D01*
Y258233D01*
X254019Y257709D01*
X252445D01*
X253494D02*
X254544Y256659D01*
X255593Y259807D02*
X257692Y256659D01*
Y259807D02*
X255593Y256659D01*
X219320Y190176D02*
Y188077D01*
Y189127D01*
X216171D01*
Y187028D02*
X219320D01*
Y185454D01*
X218795Y184929D01*
X217745D01*
X217221Y185454D01*
Y187028D01*
X215647Y183879D02*
Y181780D01*
X218795Y178632D02*
X219320Y179156D01*
Y180206D01*
X218795Y180731D01*
X218270D01*
X217745Y180206D01*
Y179156D01*
X217221Y178632D01*
X216696D01*
X216171Y179156D01*
Y180206D01*
X216696Y180731D01*
X219320Y177582D02*
X216171D01*
Y176008D01*
X216696Y175483D01*
X218795D01*
X219320Y176008D01*
Y177582D01*
X216171Y174434D02*
X218270D01*
X219320Y173384D01*
X218270Y172335D01*
X216171D01*
X217745D01*
Y174434D01*
X173011Y216247D02*
X175110D01*
X174060D01*
Y213098D01*
X176159D02*
Y216247D01*
X177734D01*
X178258Y215722D01*
Y214672D01*
X177734Y214147D01*
X176159D01*
X179308Y212573D02*
X181407D01*
X184556Y215722D02*
X184031Y216247D01*
X182981D01*
X182457Y215722D01*
Y215197D01*
X182981Y214672D01*
X184031D01*
X184556Y214147D01*
Y213623D01*
X184031Y213098D01*
X182981D01*
X182457Y213623D01*
X187704Y215722D02*
X187180Y216247D01*
X186130D01*
X185605Y215722D01*
Y213623D01*
X186130Y213098D01*
X187180D01*
X187704Y213623D01*
X188754Y216247D02*
Y213098D01*
X190853D01*
X284508Y248806D02*
Y249724D01*
Y249265D01*
X287263D01*
Y248806D01*
Y249724D01*
X284967Y252938D02*
X284508Y252479D01*
Y251561D01*
X284967Y251102D01*
X286804D01*
X287263Y251561D01*
Y252479D01*
X286804Y252938D01*
X284508Y255693D02*
X284967Y254775D01*
X285885Y253857D01*
X286804D01*
X287263Y254316D01*
Y255234D01*
X286804Y255693D01*
X286345D01*
X285885Y255234D01*
Y253857D01*
X308253Y255200D02*
X308712Y254741D01*
X309630D01*
X310090Y255200D01*
Y257036D01*
X309630Y257495D01*
X308712D01*
X308253Y257036D01*
X305957Y257495D02*
Y254741D01*
X307335Y256118D01*
X305498D01*
X302743Y254741D02*
X303661Y255200D01*
X304580Y256118D01*
Y257036D01*
X304120Y257495D01*
X303202D01*
X302743Y257036D01*
Y256577D01*
X303202Y256118D01*
X304580D01*
X248504Y415620D02*
X250341D01*
X249422D01*
Y412865D01*
X251259D02*
Y415620D01*
X252636D01*
X253096Y415161D01*
Y414243D01*
X252636Y413784D01*
X251259D01*
X254014Y412406D02*
X255851D01*
X258606Y415161D02*
X258147Y415620D01*
X257228D01*
X256769Y415161D01*
Y414702D01*
X257228Y414243D01*
X258147D01*
X258606Y413784D01*
Y413325D01*
X258147Y412865D01*
X257228D01*
X256769Y413325D01*
X259524Y415620D02*
X261361D01*
X260442D01*
Y412865D01*
X262279D02*
Y414702D01*
X263197Y415620D01*
X264116Y414702D01*
Y412865D01*
Y414243D01*
X262279D01*
X265034Y415620D02*
X266871D01*
X265952D01*
Y412865D01*
X267789Y415620D02*
Y413325D01*
X268248Y412865D01*
X269166D01*
X269626Y413325D01*
Y415620D01*
X272381Y415161D02*
X271922Y415620D01*
X271003D01*
X270544Y415161D01*
Y414702D01*
X271003Y414243D01*
X271922D01*
X272381Y413784D01*
Y413325D01*
X271922Y412865D01*
X271003D01*
X270544Y413325D01*
X255197Y396848D02*
X257033D01*
X256115D01*
Y394093D01*
X257952D02*
Y396848D01*
X259329D01*
X259788Y396389D01*
Y395470D01*
X259329Y395011D01*
X257952D01*
X260707Y393634D02*
X262544D01*
X263462Y394093D02*
Y396848D01*
X264839D01*
X265299Y396389D01*
Y395470D01*
X264839Y395011D01*
X263462D01*
X266217Y396848D02*
Y394093D01*
X267135Y395011D01*
X268054Y394093D01*
Y396848D01*
X268972Y394093D02*
Y396848D01*
X270349D01*
X270809Y396389D01*
Y395470D01*
X270349Y395011D01*
X268972D01*
X269890D02*
X270809Y394093D01*
X271727Y396848D02*
Y394093D01*
Y395011D01*
X273564Y396848D01*
X272186Y395470D01*
X273564Y394093D01*
X276319Y396848D02*
X274482D01*
Y394093D01*
X276319D01*
X274482Y395470D02*
X275400D01*
X277237Y396848D02*
Y396389D01*
X278155Y395470D01*
X279074Y396389D01*
Y396848D01*
X278155Y395470D02*
Y394093D01*
X29063Y360816D02*
Y358980D01*
Y359898D01*
X26308D01*
Y358061D02*
X29063D01*
Y356684D01*
X28604Y356224D01*
X27685D01*
X27226Y356684D01*
Y358061D01*
X25849Y355306D02*
Y353469D01*
X28604Y352551D02*
X29063Y352092D01*
Y351174D01*
X28604Y350714D01*
X28145D01*
X27685Y351174D01*
Y351633D01*
Y351174D01*
X27226Y350714D01*
X26767D01*
X26308Y351174D01*
Y352092D01*
X26767Y352551D01*
X29063Y349796D02*
X27226D01*
X26308Y348878D01*
X27226Y347959D01*
X29063D01*
X28604Y347041D02*
X29063Y346582D01*
Y345664D01*
X28604Y345204D01*
X28145D01*
X27685Y345664D01*
Y346123D01*
Y345664D01*
X27226Y345204D01*
X26767D01*
X26308Y345664D01*
Y346582D01*
X26767Y347041D01*
X229593Y276166D02*
X232348D01*
Y277543D01*
X231889Y278002D01*
X230052D01*
X229593Y277543D01*
Y276166D01*
X232348Y280757D02*
Y278921D01*
X230511Y280757D01*
X230052D01*
X229593Y280298D01*
Y279380D01*
X230052Y278921D01*
X258150Y306395D02*
Y304099D01*
X258609Y303640D01*
X259527D01*
X259986Y304099D01*
Y306395D01*
X262741D02*
X260905D01*
Y305018D01*
X261823Y305477D01*
X262282D01*
X262741Y305018D01*
Y304099D01*
X262282Y303640D01*
X261364D01*
X260905Y304099D01*
X99094Y415450D02*
Y413154D01*
X99554Y412695D01*
X100472D01*
X100931Y413154D01*
Y415450D01*
X103686Y412695D02*
X101849D01*
X103686Y414532D01*
Y414991D01*
X103227Y415450D01*
X102309D01*
X101849Y414991D01*
X69027Y353201D02*
Y350905D01*
X69486Y350446D01*
X70405D01*
X70864Y350905D01*
Y353201D01*
X71782Y350446D02*
X72701D01*
X72241D01*
Y353201D01*
X71782Y352742D01*
X199947Y366467D02*
X199488Y366927D01*
X198569D01*
X198110Y366467D01*
Y366008D01*
X198569Y365549D01*
X199488D01*
X199947Y365090D01*
Y364631D01*
X199488Y364172D01*
X198569D01*
X198110Y364631D01*
X200865Y364172D02*
X201784D01*
X201324D01*
Y366927D01*
X200865Y366467D01*
X314479Y261027D02*
Y263782D01*
X315857D01*
X316316Y263323D01*
Y262405D01*
X315857Y261946D01*
X314479D01*
X315398D02*
X316316Y261027D01*
X319071D02*
X317234D01*
X319071Y262864D01*
Y263323D01*
X318612Y263782D01*
X317693D01*
X317234Y263323D01*
X319989Y261487D02*
X320448Y261027D01*
X321367D01*
X321826Y261487D01*
Y263323D01*
X321367Y263782D01*
X320448D01*
X319989Y263323D01*
Y262864D01*
X320448Y262405D01*
X321826D01*
X314479Y273525D02*
Y276280D01*
X315857D01*
X316316Y275821D01*
Y274903D01*
X315857Y274444D01*
X314479D01*
X315398D02*
X316316Y273525D01*
X319071D02*
X317234D01*
X319071Y275362D01*
Y275821D01*
X318612Y276280D01*
X317693D01*
X317234Y275821D01*
X319989D02*
X320448Y276280D01*
X321367D01*
X321826Y275821D01*
Y275362D01*
X321367Y274903D01*
X321826Y274444D01*
Y273985D01*
X321367Y273525D01*
X320448D01*
X319989Y273985D01*
Y274444D01*
X320448Y274903D01*
X319989Y275362D01*
Y275821D01*
X320448Y274903D02*
X321367D01*
X195945Y312695D02*
Y315450D01*
X197322D01*
X197782Y314991D01*
Y314073D01*
X197322Y313614D01*
X195945D01*
X196863D02*
X197782Y312695D01*
X200536D02*
X198700D01*
X200536Y314532D01*
Y314991D01*
X200077Y315450D01*
X199159D01*
X198700Y314991D01*
X201455Y312695D02*
X202373D01*
X201914D01*
Y315450D01*
X201455Y314991D01*
X192402Y326869D02*
X189646D01*
Y328246D01*
X190106Y328705D01*
X191024D01*
X191483Y328246D01*
Y326869D01*
Y327787D02*
X192402Y328705D01*
Y331460D02*
Y329624D01*
X190565Y331460D01*
X190106D01*
X189646Y331001D01*
Y330083D01*
X190106Y329624D01*
Y332379D02*
X189646Y332838D01*
Y333756D01*
X190106Y334215D01*
X191942D01*
X192402Y333756D01*
Y332838D01*
X191942Y332379D01*
X190106D01*
X242244Y283263D02*
Y286018D01*
X243622D01*
X244081Y285559D01*
Y284641D01*
X243622Y284182D01*
X242244D01*
X243162D02*
X244081Y283263D01*
X244999D02*
X245917D01*
X245458D01*
Y286018D01*
X244999Y285559D01*
X247295Y283722D02*
X247754Y283263D01*
X248672D01*
X249132Y283722D01*
Y285559D01*
X248672Y286018D01*
X247754D01*
X247295Y285559D01*
Y285100D01*
X247754Y284641D01*
X249132D01*
X251850Y303640D02*
X249095D01*
Y305018D01*
X249554Y305477D01*
X250473D01*
X250932Y305018D01*
Y303640D01*
Y304558D02*
X251850Y305477D01*
Y306395D02*
Y307313D01*
Y306854D01*
X249095D01*
X249554Y306395D01*
Y308691D02*
X249095Y309150D01*
Y310068D01*
X249554Y310528D01*
X250014D01*
X250473Y310068D01*
X250932Y310528D01*
X251391D01*
X251850Y310068D01*
Y309150D01*
X251391Y308691D01*
X250932D01*
X250473Y309150D01*
X250014Y308691D01*
X249554D01*
X250473Y309150D02*
Y310068D01*
X283740Y303010D02*
Y305765D01*
X285118D01*
X285577Y305306D01*
Y304388D01*
X285118Y303929D01*
X283740D01*
X284659D02*
X285577Y303010D01*
X286495D02*
X287414D01*
X286954D01*
Y305765D01*
X286495Y305306D01*
X288791Y305765D02*
X290628D01*
Y305306D01*
X288791Y303469D01*
Y303010D01*
X295945Y284034D02*
X293190D01*
Y285411D01*
X293649Y285871D01*
X294567D01*
X295026Y285411D01*
Y284034D01*
Y284952D02*
X295945Y285871D01*
Y286789D02*
Y287707D01*
Y287248D01*
X293190D01*
X293649Y286789D01*
X293190Y290921D02*
X293649Y290003D01*
X294567Y289085D01*
X295486D01*
X295945Y289544D01*
Y290462D01*
X295486Y290921D01*
X295026D01*
X294567Y290462D01*
Y289085D01*
X301063Y297971D02*
X298308D01*
Y299348D01*
X298767Y299808D01*
X299685D01*
X300145Y299348D01*
Y297971D01*
Y298889D02*
X301063Y299808D01*
Y300726D02*
Y301644D01*
Y301185D01*
X298308D01*
X298767Y300726D01*
X298308Y304858D02*
Y303022D01*
X299685D01*
X299226Y303940D01*
Y304399D01*
X299685Y304858D01*
X300604D01*
X301063Y304399D01*
Y303481D01*
X300604Y303022D01*
X222815Y393522D02*
X220060D01*
Y394900D01*
X220519Y395359D01*
X221437D01*
X221897Y394900D01*
Y393522D01*
Y394440D02*
X222815Y395359D01*
Y396277D02*
Y397195D01*
Y396736D01*
X220060D01*
X220519Y396277D01*
X222815Y399950D02*
X220060D01*
X221437Y398573D01*
Y400410D01*
X194764Y388680D02*
X192009D01*
Y390057D01*
X192468Y390516D01*
X193386D01*
X193845Y390057D01*
Y388680D01*
Y389598D02*
X194764Y390516D01*
Y391435D02*
Y392353D01*
Y391894D01*
X192009D01*
X192468Y391435D01*
Y393730D02*
X192009Y394190D01*
Y395108D01*
X192468Y395567D01*
X192927D01*
X193386Y395108D01*
Y394649D01*
Y395108D01*
X193845Y395567D01*
X194305D01*
X194764Y395108D01*
Y394190D01*
X194305Y393730D01*
X87283Y397735D02*
Y400490D01*
X88661D01*
X89120Y400031D01*
Y399112D01*
X88661Y398653D01*
X87283D01*
X88202D02*
X89120Y397735D01*
X90039D02*
X90957D01*
X90498D01*
Y400490D01*
X90039Y400031D01*
X92334D02*
X92794Y400490D01*
X93712D01*
X94171Y400031D01*
Y398194D01*
X93712Y397735D01*
X92794D01*
X92334Y398194D01*
Y400031D01*
X99354Y54228D02*
Y51473D01*
X97977D01*
X97518Y51932D01*
Y52850D01*
X97977Y53309D01*
X99354D01*
X98436D02*
X97518Y54228D01*
X96600Y53768D02*
X96140Y54228D01*
X95222D01*
X94763Y53768D01*
Y51932D01*
X95222Y51473D01*
X96140D01*
X96600Y51932D01*
Y52391D01*
X96140Y52850D01*
X94763D01*
X78314Y371819D02*
Y374574D01*
X79692D01*
X80151Y374115D01*
Y373196D01*
X79692Y372737D01*
X78314D01*
X79233D02*
X80151Y371819D01*
X81069Y374115D02*
X81528Y374574D01*
X82447D01*
X82906Y374115D01*
Y373656D01*
X82447Y373196D01*
X82906Y372737D01*
Y372278D01*
X82447Y371819D01*
X81528D01*
X81069Y372278D01*
Y372737D01*
X81528Y373196D01*
X81069Y373656D01*
Y374115D01*
X81528Y373196D02*
X82447D01*
X72336Y32571D02*
Y29816D01*
X70958D01*
X70499Y30275D01*
Y31193D01*
X70958Y31653D01*
X72336D01*
X71417D02*
X70499Y32571D01*
X67744Y29816D02*
X68663Y30275D01*
X69581Y31193D01*
Y32112D01*
X69122Y32571D01*
X68203D01*
X67744Y32112D01*
Y31653D01*
X68203Y31193D01*
X69581D01*
X203819Y335924D02*
X201064D01*
Y337301D01*
X201523Y337760D01*
X202441D01*
X202901Y337301D01*
Y335924D01*
Y336842D02*
X203819Y337760D01*
X201064Y340515D02*
Y338679D01*
X202441D01*
X201982Y339597D01*
Y340056D01*
X202441Y340515D01*
X203360D01*
X203819Y340056D01*
Y339138D01*
X203360Y338679D01*
X211667Y402820D02*
Y404657D01*
X211208Y405116D01*
X210290D01*
X209831Y404657D01*
Y402820D01*
X210290Y402361D01*
X211208D01*
X210749Y403279D02*
X211667Y402361D01*
X211208D02*
X211667Y402820D01*
X212586Y402361D02*
X213504D01*
X213045D01*
Y405116D01*
X212586Y404657D01*
X313170Y304583D02*
X315925D01*
Y306419D01*
Y309174D02*
Y307338D01*
X314089Y309174D01*
X313629D01*
X313170Y308715D01*
Y307797D01*
X313629Y307338D01*
X329017Y312561D02*
Y311643D01*
Y312102D01*
X331312D01*
X331772Y311643D01*
Y311184D01*
X331312Y310724D01*
X331772Y313480D02*
Y314398D01*
Y313939D01*
X329017D01*
X329476Y313480D01*
X331772Y317612D02*
Y315775D01*
X329935Y317612D01*
X329476D01*
X329017Y317153D01*
Y316235D01*
X329476Y315775D01*
X306837Y381986D02*
X305918D01*
X306378D01*
Y379690D01*
X305918Y379231D01*
X305459D01*
X305000Y379690D01*
X307755Y379231D02*
X308673D01*
X308214D01*
Y381986D01*
X307755Y381526D01*
X310051Y379231D02*
X310969D01*
X310510D01*
Y381986D01*
X310051Y381526D01*
X232953Y309545D02*
X233871D01*
X233412D01*
Y306790D01*
X232953D01*
X233871D01*
X237085Y309086D02*
X236626Y309545D01*
X235708D01*
X235249Y309086D01*
Y307249D01*
X235708Y306790D01*
X236626D01*
X237085Y307249D01*
X239381Y306790D02*
Y309545D01*
X238004Y308167D01*
X239840D01*
X336656Y265914D02*
Y268669D01*
X335278D01*
X334819Y268210D01*
Y266373D01*
X335278Y265914D01*
X336656D01*
X332064D02*
X332982Y266373D01*
X333901Y267291D01*
Y268210D01*
X333441Y268669D01*
X332523D01*
X332064Y268210D01*
Y267750D01*
X332523Y267291D01*
X333901D01*
X331750Y282530D02*
Y279775D01*
X333127D01*
X333587Y280234D01*
Y282071D01*
X333127Y282530D01*
X331750D01*
X336342D02*
X334505D01*
Y281153D01*
X335423Y281612D01*
X335882D01*
X336342Y281153D01*
Y280234D01*
X335882Y279775D01*
X334964D01*
X334505Y280234D01*
X334824Y317124D02*
X337579D01*
Y318502D01*
X337120Y318961D01*
X335283D01*
X334824Y318502D01*
Y317124D01*
X335283Y319879D02*
X334824Y320339D01*
Y321257D01*
X335283Y321716D01*
X335742D01*
X336201Y321257D01*
Y320798D01*
Y321257D01*
X336660Y321716D01*
X337120D01*
X337579Y321257D01*
Y320339D01*
X337120Y319879D01*
X235775Y290123D02*
X235316Y289663D01*
Y288745D01*
X235775Y288286D01*
X237612D01*
X238071Y288745D01*
Y289663D01*
X237612Y290123D01*
X235775Y291041D02*
X235316Y291500D01*
Y292418D01*
X235775Y292878D01*
X236234D01*
X236693Y292418D01*
Y291959D01*
Y292418D01*
X237153Y292878D01*
X237612D01*
X238071Y292418D01*
Y291500D01*
X237612Y291041D01*
X238071Y295633D02*
Y293796D01*
X236234Y295633D01*
X235775D01*
X235316Y295173D01*
Y294255D01*
X235775Y293796D01*
X244830Y303115D02*
X244371Y302656D01*
Y301737D01*
X244830Y301278D01*
X246667D01*
X247126Y301737D01*
Y302656D01*
X246667Y303115D01*
X244830Y304033D02*
X244371Y304492D01*
Y305411D01*
X244830Y305870D01*
X245289D01*
X245748Y305411D01*
Y304951D01*
Y305411D01*
X246208Y305870D01*
X246667D01*
X247126Y305411D01*
Y304492D01*
X246667Y304033D01*
X247126Y306788D02*
Y307706D01*
Y307247D01*
X244371D01*
X244830Y306788D01*
X288688Y283823D02*
X288229Y283364D01*
Y282446D01*
X288688Y281987D01*
X290525D01*
X290984Y282446D01*
Y283364D01*
X290525Y283823D01*
X288688Y284742D02*
X288229Y285201D01*
Y286119D01*
X288688Y286578D01*
X289147D01*
X289607Y286119D01*
Y285660D01*
Y286119D01*
X290066Y286578D01*
X290525D01*
X290984Y286119D01*
Y285201D01*
X290525Y284742D01*
X288688Y287497D02*
X288229Y287956D01*
Y288874D01*
X288688Y289333D01*
X290525D01*
X290984Y288874D01*
Y287956D01*
X290525Y287497D01*
X288688D01*
X274553Y280537D02*
X274094Y280996D01*
X273176D01*
X272716Y280537D01*
Y278700D01*
X273176Y278241D01*
X274094D01*
X274553Y278700D01*
X277308Y278241D02*
X275471D01*
X277308Y280077D01*
Y280537D01*
X276849Y280996D01*
X275931D01*
X275471Y280537D01*
X278226Y278700D02*
X278686Y278241D01*
X279604D01*
X280063Y278700D01*
Y280537D01*
X279604Y280996D01*
X278686D01*
X278226Y280537D01*
Y280077D01*
X278686Y279618D01*
X280063D01*
X236562Y298390D02*
X236103Y297931D01*
Y297013D01*
X236562Y296553D01*
X238399D01*
X238858Y297013D01*
Y297931D01*
X238399Y298390D01*
X238858Y301145D02*
Y299309D01*
X237021Y301145D01*
X236562D01*
X236103Y300686D01*
Y299768D01*
X236562Y299309D01*
Y302064D02*
X236103Y302523D01*
Y303441D01*
X236562Y303900D01*
X237021D01*
X237481Y303441D01*
X237940Y303900D01*
X238399D01*
X238858Y303441D01*
Y302523D01*
X238399Y302064D01*
X237940D01*
X237481Y302523D01*
X237021Y302064D01*
X236562D01*
X237481Y302523D02*
Y303441D01*
X224553Y296881D02*
X224094Y297340D01*
X223176D01*
X222716Y296881D01*
Y295044D01*
X223176Y294585D01*
X224094D01*
X224553Y295044D01*
X227308Y294585D02*
X225471D01*
X227308Y296422D01*
Y296881D01*
X226849Y297340D01*
X225931D01*
X225471Y296881D01*
X228226Y297340D02*
X230063D01*
Y296881D01*
X228226Y295044D01*
Y294585D01*
X200931Y307905D02*
X200472Y308364D01*
X199554D01*
X199094Y307905D01*
Y306068D01*
X199554Y305609D01*
X200472D01*
X200931Y306068D01*
X203686Y305609D02*
X201850D01*
X203686Y307445D01*
Y307905D01*
X203227Y308364D01*
X202309D01*
X201850Y307905D01*
X206441Y308364D02*
X205523Y307905D01*
X204605Y306986D01*
Y306068D01*
X205064Y305609D01*
X205982D01*
X206441Y306068D01*
Y306527D01*
X205982Y306986D01*
X204605D01*
X200931Y303574D02*
X200472Y304033D01*
X199554D01*
X199094Y303574D01*
Y301737D01*
X199554Y301278D01*
X200472D01*
X200931Y301737D01*
X203686Y301278D02*
X201850D01*
X203686Y303115D01*
Y303574D01*
X203227Y304033D01*
X202309D01*
X201850Y303574D01*
X206441Y304033D02*
X204605D01*
Y302656D01*
X205523Y303115D01*
X205982D01*
X206441Y302656D01*
Y301737D01*
X205982Y301278D01*
X205064D01*
X204605Y301737D01*
X200931Y299394D02*
X200472Y299853D01*
X199554D01*
X199094Y299394D01*
Y297557D01*
X199554Y297098D01*
X200472D01*
X200931Y297557D01*
X203686Y297098D02*
X201850D01*
X203686Y298934D01*
Y299394D01*
X203227Y299853D01*
X202309D01*
X201850Y299394D01*
X205982Y297098D02*
Y299853D01*
X204605Y298475D01*
X206441D01*
X187743Y281067D02*
X187284Y280608D01*
Y279690D01*
X187743Y279231D01*
X189580D01*
X190039Y279690D01*
Y280608D01*
X189580Y281067D01*
X190039Y283822D02*
Y281986D01*
X188203Y283822D01*
X187743D01*
X187284Y283363D01*
Y282445D01*
X187743Y281986D01*
Y284741D02*
X187284Y285200D01*
Y286118D01*
X187743Y286577D01*
X188203D01*
X188662Y286118D01*
Y285659D01*
Y286118D01*
X189121Y286577D01*
X189580D01*
X190039Y286118D01*
Y285200D01*
X189580Y284741D01*
X299948Y324453D02*
X299489Y323994D01*
Y323076D01*
X299948Y322617D01*
X301785D01*
X302244Y323076D01*
Y323994D01*
X301785Y324453D01*
X302244Y327208D02*
Y325372D01*
X300407Y327208D01*
X299948D01*
X299489Y326749D01*
Y325831D01*
X299948Y325372D01*
X302244Y329963D02*
Y328127D01*
X300407Y329963D01*
X299948D01*
X299489Y329504D01*
Y328586D01*
X299948Y328127D01*
X304673Y324847D02*
X304213Y324388D01*
Y323469D01*
X304673Y323010D01*
X306509D01*
X306968Y323469D01*
Y324388D01*
X306509Y324847D01*
X306968Y327602D02*
Y325765D01*
X305132Y327602D01*
X304673D01*
X304213Y327143D01*
Y326224D01*
X304673Y325765D01*
X306968Y328520D02*
Y329439D01*
Y328979D01*
X304213D01*
X304673Y328520D01*
X309791Y324847D02*
X309331Y324388D01*
Y323469D01*
X309791Y323010D01*
X311627D01*
X312087Y323469D01*
Y324388D01*
X311627Y324847D01*
X312087Y327602D02*
Y325765D01*
X310250Y327602D01*
X309791D01*
X309331Y327143D01*
Y326224D01*
X309791Y325765D01*
Y328520D02*
X309331Y328979D01*
Y329898D01*
X309791Y330357D01*
X311627D01*
X312087Y329898D01*
Y328979D01*
X311627Y328520D01*
X309791D01*
X324553Y360660D02*
X324094Y361120D01*
X323176D01*
X322716Y360660D01*
Y358824D01*
X323176Y358365D01*
X324094D01*
X324553Y358824D01*
X325471Y358365D02*
X326390D01*
X325931D01*
Y361120D01*
X325471Y360660D01*
X327767Y358824D02*
X328226Y358365D01*
X329145D01*
X329604Y358824D01*
Y360660D01*
X329145Y361120D01*
X328226D01*
X327767Y360660D01*
Y360201D01*
X328226Y359742D01*
X329604D01*
X300537Y319123D02*
X300078Y319582D01*
X299160D01*
X298701Y319123D01*
Y317286D01*
X299160Y316827D01*
X300078D01*
X300537Y317286D01*
X301456Y316827D02*
X302374D01*
X301915D01*
Y319582D01*
X301456Y319123D01*
X303752D02*
X304211Y319582D01*
X305129D01*
X305588Y319123D01*
Y318664D01*
X305129Y318204D01*
X305588Y317745D01*
Y317286D01*
X305129Y316827D01*
X304211D01*
X303752Y317286D01*
Y317745D01*
X304211Y318204D01*
X303752Y318664D01*
Y319123D01*
X304211Y318204D02*
X305129D01*
X305656Y292019D02*
X305196Y292478D01*
X304278D01*
X303819Y292019D01*
Y290182D01*
X304278Y289723D01*
X305196D01*
X305656Y290182D01*
X306574Y289723D02*
X307492D01*
X307033D01*
Y292478D01*
X306574Y292019D01*
X308870Y292478D02*
X310706D01*
Y292019D01*
X308870Y290182D01*
Y289723D01*
X225341Y402393D02*
X224881Y402852D01*
X223963D01*
X223504Y402393D01*
Y400556D01*
X223963Y400097D01*
X224881D01*
X225341Y400556D01*
X226259Y400097D02*
X227177D01*
X226718D01*
Y402852D01*
X226259Y402393D01*
X230391Y402852D02*
X229473Y402393D01*
X228555Y401474D01*
Y400556D01*
X229014Y400097D01*
X229932D01*
X230391Y400556D01*
Y401015D01*
X229932Y401474D01*
X228555D01*
X87939Y382314D02*
X87480Y382773D01*
X86562D01*
X86102Y382314D01*
Y380477D01*
X86562Y380018D01*
X87480D01*
X87939Y380477D01*
X88857Y380018D02*
X89776D01*
X89316D01*
Y382773D01*
X88857Y382314D01*
X92990Y382773D02*
X91153D01*
Y381396D01*
X92071Y381855D01*
X92531D01*
X92990Y381396D01*
Y380477D01*
X92531Y380018D01*
X91612D01*
X91153Y380477D01*
X201031Y349768D02*
X200572Y349309D01*
Y348391D01*
X201031Y347932D01*
X202868D01*
X203327Y348391D01*
Y349309D01*
X202868Y349768D01*
X203327Y350687D02*
Y351605D01*
Y351146D01*
X200572D01*
X201031Y350687D01*
Y352982D02*
X200572Y353442D01*
Y354360D01*
X201031Y354819D01*
X202868D01*
X203327Y354360D01*
Y353442D01*
X202868Y352982D01*
X201031D01*
X51327Y366369D02*
X50868Y366828D01*
X49950D01*
X49490Y366369D01*
Y364532D01*
X49950Y364073D01*
X50868D01*
X51327Y364532D01*
X52245Y366828D02*
X54082D01*
Y366369D01*
X52245Y364532D01*
Y364073D01*
X35226Y321692D02*
X34767Y322151D01*
X33849D01*
X33390Y321692D01*
Y319855D01*
X33849Y319396D01*
X34767D01*
X35226Y319855D01*
X37981Y322151D02*
X37063Y321692D01*
X36145Y320774D01*
Y319855D01*
X36604Y319396D01*
X37522D01*
X37981Y319855D01*
Y320314D01*
X37522Y320774D01*
X36145D01*
D14*
X333465Y66929D02*
G03*
X333465Y66929I-787J0D01*
G01*
D15*
X115036Y49729D02*
Y50517D01*
X107162D02*
X115036D01*
X107162Y49729D02*
Y50517D01*
Y46580D02*
Y47367D01*
Y46580D02*
X115036D01*
Y47367D01*
X74788Y17789D02*
Y18576D01*
X66914D02*
X74788D01*
X66914Y17789D02*
Y18576D01*
Y14639D02*
Y15427D01*
Y14639D02*
X74788D01*
Y15427D01*
X6696Y386626D02*
Y387382D01*
Y386626D02*
X16696D01*
Y387382D01*
Y391382D02*
Y392138D01*
X6696D02*
X16696D01*
X6696Y391382D02*
Y392138D01*
X11696Y386626D02*
Y392138D01*
X125963Y104766D02*
X126719D01*
X125963Y94766D02*
Y104766D01*
Y94766D02*
X126719D01*
X130719D02*
X131475D01*
Y104766D01*
X130719D02*
X131475D01*
X125963Y99766D02*
X131475D01*
X71969Y394249D02*
X72756D01*
Y386375D02*
Y394249D01*
X71969Y386375D02*
X72756D01*
X68819D02*
X69607D01*
X68819D02*
Y394249D01*
X69607D01*
X126836Y217952D02*
X127623D01*
X126836Y210078D02*
Y217952D01*
Y210078D02*
X127623D01*
X129985D02*
X130772D01*
Y217952D01*
X129985D02*
X130772D01*
X118450Y237771D02*
Y238558D01*
Y237771D02*
X126324D01*
Y238558D01*
Y240920D02*
Y241708D01*
X118450D02*
X126324D01*
X118450Y240920D02*
Y241708D01*
X187666Y141396D02*
Y142152D01*
X177666D02*
X187666D01*
X177666Y141396D02*
Y142152D01*
Y136640D02*
Y137396D01*
Y136640D02*
X187666D01*
Y137396D01*
X182666Y136640D02*
Y142152D01*
X174535Y135183D02*
X176110D01*
Y121798D02*
Y135183D01*
X174535Y121798D02*
X176110D01*
X169023D02*
X170598D01*
X169023D02*
Y135183D01*
X170598D01*
X169023Y128490D02*
X176110D01*
X175781Y152830D02*
X179718D01*
X178537Y149287D02*
X179718D01*
Y156374D01*
X178537D02*
X179718D01*
X175781Y149287D02*
X176962D01*
X175781D02*
Y156374D01*
X176962D01*
X153841Y173888D02*
X155416D01*
Y160502D02*
Y173888D01*
X153841Y160502D02*
X155416D01*
X148329D02*
X149904D01*
X148329D02*
Y173888D01*
X149904D01*
X148329Y167195D02*
X155416D01*
X132819Y166205D02*
Y170205D01*
X128319Y169705D02*
Y170205D01*
X137319D01*
Y169705D02*
Y170205D01*
Y166205D02*
Y166705D01*
X128319Y166205D02*
X137319D01*
X128319D02*
Y166705D01*
X157794Y130452D02*
X161794D01*
X161294Y134952D02*
X161794D01*
Y125952D02*
Y134952D01*
X161294Y125952D02*
X161794D01*
X157794D02*
X158294D01*
X157794D02*
Y134952D01*
X158294D01*
X122744Y165941D02*
X126744D01*
X122744Y161441D02*
X123244D01*
X122744D02*
Y170441D01*
X123244D01*
X126244D02*
X126744D01*
Y161441D02*
Y170441D01*
X126244Y161441D02*
X126744D01*
X137287Y176033D02*
Y176820D01*
X129413D02*
X137287D01*
X129413Y176033D02*
Y176820D01*
Y172883D02*
Y173670D01*
Y172883D02*
X137287D01*
Y173670D01*
X73789Y184982D02*
Y189707D01*
X67883D02*
X79694D01*
Y188951D02*
Y189707D01*
X67883Y188951D02*
Y189707D01*
Y184982D02*
Y185738D01*
Y184982D02*
X79694D01*
Y185738D01*
X54053Y222558D02*
Y223314D01*
Y222558D02*
X64053D01*
Y223314D01*
Y227314D02*
Y228070D01*
X54053D02*
X64053D01*
X54053Y227314D02*
Y228070D01*
X59053Y222558D02*
Y228070D01*
X55422Y219847D02*
Y220634D01*
X63296D01*
Y219847D02*
Y220634D01*
Y216697D02*
Y217485D01*
X55422Y216697D02*
X63296D01*
X55422D02*
Y217485D01*
X54920Y209890D02*
Y210645D01*
Y209890D02*
X64920D01*
Y210645D01*
Y214645D02*
Y215401D01*
X54920D02*
X64920D01*
X54920Y214645D02*
Y215401D01*
X59920Y209890D02*
Y215401D01*
X64621Y191983D02*
Y192770D01*
X56747Y191983D02*
X64621D01*
X56747D02*
Y192770D01*
Y195132D02*
Y195920D01*
X64621D01*
Y195132D02*
Y195920D01*
X64554Y186322D02*
Y187109D01*
X56680Y186322D02*
X64554D01*
X56680D02*
Y187109D01*
Y189471D02*
Y190259D01*
X64554D01*
Y189471D02*
Y190259D01*
X82921Y231668D02*
Y237180D01*
X88433Y231668D02*
Y232849D01*
X77409Y231668D02*
X88433D01*
X77409D02*
Y232849D01*
Y235999D02*
Y237180D01*
X88433D01*
Y235999D02*
Y237180D01*
X83059Y224517D02*
Y230028D01*
X88571Y224517D02*
Y225698D01*
X77547Y224517D02*
X88571D01*
X77547D02*
Y225698D01*
Y228847D02*
Y230028D01*
X88571D01*
Y228847D02*
Y230028D01*
X70820Y223314D02*
Y227314D01*
X66320Y226814D02*
Y227314D01*
X75320D01*
Y226814D02*
Y227314D01*
Y223314D02*
Y223814D01*
X66320Y223314D02*
X75320D01*
X66320D02*
Y223814D01*
X66947Y221107D02*
X67703D01*
X66947Y211107D02*
Y221107D01*
Y211107D02*
X67703D01*
X71703D02*
X72459D01*
Y221107D01*
X71703D02*
X72459D01*
X66947Y216107D02*
X72459D01*
X82921Y217729D02*
Y223241D01*
X88433Y217729D02*
Y218911D01*
X77409Y217729D02*
X88433D01*
X77409D02*
Y218911D01*
Y222060D02*
Y223241D01*
X88433D01*
Y222060D02*
Y223241D01*
X78641Y210874D02*
Y211661D01*
Y210874D02*
X86515D01*
Y211661D01*
Y214023D02*
Y214811D01*
X78641D02*
X86515D01*
X78641Y214023D02*
Y214811D01*
X82007Y180462D02*
X82795D01*
X82007D02*
Y188336D01*
X82795D01*
X85157D02*
X85944D01*
Y180462D02*
Y188336D01*
X85157Y180462D02*
X85944D01*
X53628Y232662D02*
Y233162D01*
Y232662D02*
X61502D01*
Y233162D01*
Y236162D02*
Y236662D01*
X53628D02*
X61502D01*
X53628Y236162D02*
Y236662D01*
X57565Y232662D02*
Y236662D01*
X101604Y198053D02*
Y199234D01*
X90580D02*
X101604D01*
X90580Y198053D02*
Y199234D01*
Y193723D02*
Y194904D01*
Y193723D02*
X101604D01*
Y194904D01*
X96092Y193723D02*
Y199234D01*
X96730Y191647D02*
Y192435D01*
X88856D02*
X96730D01*
X88856Y191647D02*
Y192435D01*
Y188498D02*
Y189285D01*
Y188498D02*
X96730D01*
Y189285D01*
X63383Y232662D02*
Y233162D01*
Y232662D02*
X71257D01*
Y233162D01*
Y236162D02*
Y236662D01*
X63383D02*
X71257D01*
X63383Y236162D02*
Y236662D01*
X67320Y232662D02*
Y236662D01*
X98540Y148841D02*
Y150023D01*
X87516D02*
X98540D01*
X87516Y148841D02*
Y150023D01*
Y144511D02*
Y145692D01*
Y144511D02*
X98540D01*
Y145692D01*
X93028Y144511D02*
Y150023D01*
X98374Y140680D02*
Y141861D01*
X87351D02*
X98374D01*
X87351Y140680D02*
Y141861D01*
Y136349D02*
Y137530D01*
Y136349D02*
X98374D01*
Y137530D01*
X92863Y136349D02*
Y141861D01*
X306416Y247457D02*
Y252968D01*
X311928Y247457D02*
Y248638D01*
X300905Y247457D02*
X311928D01*
X300905D02*
Y248638D01*
Y251787D02*
Y252968D01*
X311928D01*
Y251787D02*
Y252968D01*
X329763Y260962D02*
Y264962D01*
X334263Y260962D02*
Y261462D01*
X325263Y260962D02*
X334263D01*
X325263D02*
Y261462D01*
Y264462D02*
Y264962D01*
X334263D01*
Y264462D02*
Y264962D01*
X333616Y276571D02*
Y277071D01*
X324616D02*
X333616D01*
X324616Y276571D02*
Y277071D01*
Y273071D02*
Y273571D01*
Y273071D02*
X333616D01*
Y273571D01*
X329116Y273071D02*
Y277071D01*
X258394Y91175D02*
Y95899D01*
X252488D02*
X264299D01*
Y95143D02*
Y95899D01*
X252488Y95143D02*
Y95899D01*
Y91175D02*
Y91930D01*
Y91175D02*
X264299D01*
Y91930D01*
X252685Y103105D02*
X257410D01*
Y97200D02*
Y109011D01*
X256654Y97200D02*
X257410D01*
X256654Y109011D02*
X257410D01*
X252685D02*
X253441D01*
X252685Y97200D02*
Y109011D01*
Y97200D02*
X253441D01*
X258984Y103105D02*
X264496D01*
X258984Y97594D02*
X260165D01*
X258984D02*
Y108617D01*
X260165D01*
X263315D02*
X264496D01*
Y97594D02*
Y108617D01*
X263315Y97594D02*
X264496D01*
X167636Y102169D02*
X173147D01*
X171966Y107680D02*
X173147D01*
Y96657D02*
Y107680D01*
X171966Y96657D02*
X173147D01*
X167636D02*
X168817D01*
X167636D02*
Y107680D01*
X168817D01*
X264729Y61752D02*
X265516D01*
X264729D02*
Y69626D01*
X265516D01*
X267879D02*
X268666D01*
Y61752D02*
Y69626D01*
X267879Y61752D02*
X268666D01*
X256701Y64885D02*
X262213D01*
X256701Y59373D02*
X257882D01*
X256701D02*
Y70397D01*
X257882D01*
X261032D02*
X262213D01*
Y59373D02*
Y70397D01*
X261032Y59373D02*
X262213D01*
X309488Y39213D02*
X310244D01*
X309488Y29213D02*
Y39213D01*
Y29213D02*
X310244D01*
X314244D02*
X315000D01*
Y39213D01*
X314244D02*
X315000D01*
X309488Y34213D02*
X315000D01*
X97386Y46401D02*
Y50401D01*
X92886Y49901D02*
Y50401D01*
X101886D01*
Y49901D02*
Y50401D01*
Y46401D02*
Y46901D01*
X92886Y46401D02*
X101886D01*
X92886D02*
Y46901D01*
X70367Y24350D02*
Y28350D01*
X65867Y27850D02*
Y28350D01*
X74867D01*
Y27850D02*
Y28350D01*
Y24350D02*
Y24850D01*
X65867Y24350D02*
X74867D01*
X65867D02*
Y24850D01*
X190043Y225564D02*
X193980D01*
X190043Y229107D02*
X191224D01*
X190043Y222021D02*
Y229107D01*
Y222021D02*
X191224D01*
X192799Y229107D02*
X193980D01*
Y222021D02*
Y229107D01*
X192799Y222021D02*
X193980D01*
X214522Y221719D02*
X215310D01*
X214522Y213845D02*
Y221719D01*
Y213845D02*
X215310D01*
X217672D02*
X218459D01*
Y221719D01*
X217672D02*
X218459D01*
X196036Y225633D02*
X199973D01*
X196036Y229176D02*
X197217D01*
X196036Y222089D02*
Y229176D01*
Y222089D02*
X197217D01*
X198792Y229176D02*
X199973D01*
Y222089D02*
Y229176D01*
X198792Y222089D02*
X199973D01*
X39787Y320069D02*
Y321545D01*
X58488D01*
Y320069D02*
Y321545D01*
Y308750D02*
Y310226D01*
X39787Y308750D02*
X58488D01*
X39787D02*
Y310226D01*
X49138Y308750D02*
Y321545D01*
X52808Y354720D02*
Y361807D01*
X59501Y360232D02*
Y361807D01*
X46115D02*
X59501D01*
X46115Y360232D02*
Y361807D01*
Y354720D02*
Y356295D01*
Y354720D02*
X59501D01*
Y356295D01*
X297913Y311315D02*
Y312103D01*
Y311315D02*
X305787D01*
Y312103D01*
Y314465D02*
Y315252D01*
X297913D02*
X305787D01*
X297913Y314465D02*
Y315252D01*
X302468Y297939D02*
Y298439D01*
Y297939D02*
X311469D01*
Y298439D01*
Y301439D02*
Y301939D01*
X302468D02*
X311469D01*
X302468Y301439D02*
Y301939D01*
X306968Y297939D02*
Y301939D01*
X303031Y293109D02*
Y293896D01*
Y293109D02*
X310906D01*
Y293896D01*
Y296258D02*
Y297046D01*
X303031D02*
X310906D01*
X303031Y296258D02*
Y297046D01*
X282921Y296947D02*
X286921D01*
X282921Y292447D02*
X283421D01*
X282921D02*
Y301447D01*
X283421D01*
X286421D02*
X286921D01*
Y292447D02*
Y301447D01*
X286421Y292447D02*
X286921D01*
X290827Y301278D02*
X291614D01*
Y293404D02*
Y301278D01*
X290827Y293404D02*
X291614D01*
X287677D02*
X288464D01*
X287677D02*
Y301278D01*
X288464D01*
X292370Y296947D02*
X296370D01*
X295870Y301447D02*
X296370D01*
Y292447D02*
Y301447D01*
X295870Y292447D02*
X296370D01*
X292370D02*
X292870D01*
X292370D02*
Y301447D01*
X292870D01*
X92827Y386239D02*
X93583D01*
Y396239D01*
X92827D02*
X93583D01*
X88071D02*
X88827D01*
X88071Y386239D02*
Y396239D01*
Y386239D02*
X88827D01*
X88071Y391239D02*
X93583D01*
X94370Y385530D02*
X99882D01*
X94370Y380018D02*
X95551D01*
X94370D02*
Y391042D01*
X95551D01*
X98701D02*
X99882D01*
Y380018D02*
Y391042D01*
X98701Y380018D02*
X99882D01*
X99272Y365522D02*
Y366278D01*
X89272D02*
X99272D01*
X89272Y365522D02*
Y366278D01*
Y360766D02*
Y361522D01*
Y360766D02*
X99272D01*
Y361522D01*
X94272Y360766D02*
Y366278D01*
X193583Y342223D02*
Y347735D01*
X199094Y342223D02*
Y343404D01*
X188071Y342223D02*
X199094D01*
X188071D02*
Y343404D01*
Y346553D02*
Y347735D01*
X199094D01*
Y346553D02*
Y347735D01*
X188583Y335530D02*
Y336286D01*
Y335530D02*
X198583D01*
Y336286D01*
Y340286D02*
Y341042D01*
X188583D02*
X198583D01*
X188583Y340286D02*
Y341042D01*
X193583Y335530D02*
Y341042D01*
X195913Y391829D02*
X199913D01*
X199413Y396329D02*
X199913D01*
Y387329D02*
Y396329D01*
X199413Y387329D02*
X199913D01*
X195913D02*
X196413D01*
X195913D02*
Y396329D01*
X196413D01*
X213661Y398798D02*
X214417D01*
X213661Y388798D02*
Y398798D01*
Y388798D02*
X214417D01*
X218417D02*
X219173D01*
Y398798D01*
X218417D02*
X219173D01*
X213661Y393798D02*
X219173D01*
X224291Y393404D02*
X229803D01*
X228622Y398916D02*
X229803D01*
Y387892D02*
Y398916D01*
X228622Y387892D02*
X229803D01*
X224291D02*
X225472D01*
X224291D02*
Y398916D01*
X225472D01*
X198307Y327624D02*
Y331624D01*
X202807Y327624D02*
Y328124D01*
X193807Y327624D02*
X202807D01*
X193807D02*
Y328124D01*
Y331124D02*
Y331624D01*
X202807D01*
Y331124D02*
Y331624D01*
X198669Y321652D02*
X202669D01*
X198669Y317152D02*
X199169D01*
X198669D02*
Y326152D01*
X199169D01*
X202169D02*
X202669D01*
Y317152D02*
Y326152D01*
X202169Y317152D02*
X202669D01*
X234527Y305609D02*
X235315D01*
Y297735D02*
Y305609D01*
X234527Y297735D02*
X235315D01*
X231378D02*
X232165D01*
X231378D02*
Y305609D01*
X232165D01*
X221142Y305215D02*
X221929D01*
Y297341D02*
Y305215D01*
X221142Y297341D02*
X221929D01*
X217992D02*
X218779D01*
X217992D02*
Y305215D01*
X218779D01*
X248669Y297341D02*
X252669D01*
X248669Y292841D02*
X249169D01*
X248669D02*
Y301841D01*
X249169D01*
X252169D02*
X252669D01*
Y292841D02*
Y301841D01*
X252169Y292841D02*
X252669D01*
X247913Y296160D02*
Y296947D01*
X240039Y296160D02*
X247913D01*
X240039D02*
Y296947D01*
Y299309D02*
Y300097D01*
X247913D01*
Y299309D02*
Y300097D01*
X264055Y280412D02*
Y281199D01*
X271929D01*
Y280412D02*
Y281199D01*
Y277262D02*
Y278050D01*
X264055Y277262D02*
X271929D01*
X264055D02*
Y278050D01*
X239252Y287735D02*
X240039D01*
X239252D02*
Y295609D01*
X240039D01*
X242402D02*
X243189D01*
Y287735D02*
Y295609D01*
X242402Y287735D02*
X243189D01*
X248307Y287861D02*
Y291861D01*
X252807Y287861D02*
Y288361D01*
X243807Y287861D02*
X252807D01*
X243807D02*
Y288361D01*
Y291361D02*
Y291861D01*
X252807D01*
Y291361D02*
Y291861D01*
X311693Y339467D02*
X312480D01*
Y331593D02*
Y339467D01*
X311693Y331593D02*
X312480D01*
X308543D02*
X309331D01*
X308543D02*
Y339467D01*
X309331D01*
X303819Y331593D02*
X304606D01*
X303819D02*
Y339467D01*
X304606D01*
X306968D02*
X307756D01*
Y331593D02*
Y339467D01*
X306968Y331593D02*
X307756D01*
X299094D02*
X299882D01*
X299094D02*
Y339467D01*
X299882D01*
X302244D02*
X303031D01*
Y331593D02*
Y339467D01*
X302244Y331593D02*
X303031D01*
X207756Y299309D02*
Y300097D01*
X215630D01*
Y299309D02*
Y300097D01*
Y296160D02*
Y296947D01*
X207756Y296160D02*
X215630D01*
X207756D02*
Y296947D01*
X215630Y304821D02*
Y305609D01*
X207756Y304821D02*
X215630D01*
X207756D02*
Y305609D01*
Y307971D02*
Y308758D01*
X215630D01*
Y307971D02*
Y308758D01*
Y300490D02*
Y301278D01*
X207756Y300490D02*
X215630D01*
X207756D02*
Y301278D01*
Y303640D02*
Y304428D01*
X215630D01*
Y303640D02*
Y304428D01*
X107042Y159035D02*
X105468D01*
Y157854D01*
X106255D01*
X105468D01*
Y156673D01*
X107829Y159035D02*
Y156673D01*
X109010D01*
X109403Y157067D01*
Y157460D01*
X109010Y157854D01*
X107829D01*
X109010D01*
X109403Y158247D01*
Y158641D01*
X109010Y159035D01*
X107829D01*
X110191Y156673D02*
X110978D01*
X110584D01*
Y159035D01*
X110191Y158641D01*
X137442Y156241D02*
X137048Y156635D01*
X136261D01*
X135868Y156241D01*
Y154667D01*
X136261Y154273D01*
X137048D01*
X137442Y154667D01*
X138229Y156241D02*
X138623Y156635D01*
X139410D01*
X139803Y156241D01*
Y155848D01*
X139410Y155454D01*
X139016D01*
X139410D01*
X139803Y155060D01*
Y154667D01*
X139410Y154273D01*
X138623D01*
X138229Y154667D01*
X141771Y154273D02*
Y156635D01*
X140591Y155454D01*
X142165D01*
X68019Y136720D02*
X67626Y137114D01*
X66839D01*
X66445Y136720D01*
Y135146D01*
X66839Y134753D01*
X67626D01*
X68019Y135146D01*
X68806Y136720D02*
X69200Y137114D01*
X69987D01*
X70381Y136720D01*
Y136327D01*
X69987Y135933D01*
X69594D01*
X69987D01*
X70381Y135540D01*
Y135146D01*
X69987Y134753D01*
X69200D01*
X68806Y135146D01*
X72742Y137114D02*
X71168D01*
Y135933D01*
X71955Y136327D01*
X72349D01*
X72742Y135933D01*
Y135146D01*
X72349Y134753D01*
X71561D01*
X71168Y135146D01*
D16*
X29167Y159055D02*
X33067D01*
X27976Y148846D02*
X29126Y147695D01*
X33075D01*
X27976Y148846D02*
Y157863D01*
X29167Y159055D01*
X27976Y170910D02*
X29167Y172101D01*
X27976Y161892D02*
Y170910D01*
X29126Y160741D02*
X33075D01*
X27976Y161892D02*
X29126Y160741D01*
X29167Y172101D02*
X33067D01*
X342405Y283793D02*
X341946Y283334D01*
Y282416D01*
X342405Y281956D01*
X344242D01*
X344701Y282416D01*
Y283334D01*
X344242Y283793D01*
X343323D01*
Y282875D01*
X344701Y284711D02*
X341946D01*
X344701Y286548D01*
X341946D01*
Y287466D02*
X344701D01*
Y288844D01*
X344242Y289303D01*
X342405D01*
X341946Y288844D01*
Y287466D01*
X341290Y265181D02*
X344045D01*
Y266558D01*
X343586Y267018D01*
X343127D01*
X342668Y266558D01*
Y265181D01*
Y266558D01*
X342209Y267018D01*
X341749D01*
X341290Y266558D01*
Y265181D01*
X344057Y253993D02*
X342220D01*
X341302Y254911D01*
X342220Y255829D01*
X344057D01*
X342680D01*
Y253993D01*
X369659Y145168D02*
X368741Y144250D01*
X367823D01*
X366904Y145168D01*
X368282Y146546D02*
Y148382D01*
X367364Y147464D02*
X369200D01*
X369659Y149301D02*
X368741Y150219D01*
X367823D01*
X366904Y149301D01*
X369520Y165113D02*
X368602Y164195D01*
X367683D01*
X366765Y165113D01*
X368142Y166490D02*
Y168327D01*
X369520Y169245D02*
X368602Y170164D01*
X367683D01*
X366765Y169245D01*
X83856Y10355D02*
Y14291D01*
X85824D01*
X86480Y13635D01*
Y12323D01*
X85824Y11667D01*
X83856D01*
X85168D02*
X86480Y10355D01*
X89760D02*
X88448D01*
X87792Y11011D01*
Y12323D01*
X88448Y12979D01*
X89760D01*
X90416Y12323D01*
Y11667D01*
X87792D01*
X94352Y14291D02*
Y10355D01*
X92384D01*
X91728Y11011D01*
Y12323D01*
X92384Y12979D01*
X94352D01*
X114793Y13635D02*
X114137Y14291D01*
X112825D01*
X112169Y13635D01*
Y11011D01*
X112825Y10355D01*
X114137D01*
X114793Y11011D01*
Y12323D01*
X113481D01*
X116105Y12979D02*
Y10355D01*
Y11667D01*
X116761Y12323D01*
X117417Y12979D01*
X118073D01*
X122009Y10355D02*
X120697D01*
X120041Y11011D01*
Y12323D01*
X120697Y12979D01*
X122009D01*
X122665Y12323D01*
Y11667D01*
X120041D01*
X125944Y10355D02*
X124633D01*
X123977Y11011D01*
Y12323D01*
X124633Y12979D01*
X125944D01*
X126600Y12323D01*
Y11667D01*
X123977D01*
X127912Y10355D02*
Y12979D01*
X129880D01*
X130536Y12323D01*
Y10355D01*
X340387Y147696D02*
X344323D01*
Y149664D01*
X343667Y150320D01*
X343011D01*
X342355Y149664D01*
Y147696D01*
Y149664D01*
X341699Y150320D01*
X341043D01*
X340387Y149664D01*
Y147696D01*
X341699Y152288D02*
Y153600D01*
X342355Y154256D01*
X344323D01*
Y152288D01*
X343667Y151632D01*
X343011Y152288D01*
Y154256D01*
X341043Y156224D02*
X341699D01*
Y155568D01*
Y156879D01*
Y156224D01*
X343667D01*
X344323Y156879D01*
Y160815D02*
Y159503D01*
X343667Y158847D01*
X342355D01*
X341699Y159503D01*
Y160815D01*
X342355Y161471D01*
X343011D01*
Y158847D01*
X341699Y162783D02*
X344323D01*
X343011D01*
X342355Y163439D01*
X341699Y164095D01*
Y164751D01*
X344323Y166719D02*
Y168031D01*
Y167375D01*
X341699D01*
Y166719D01*
Y170655D02*
Y171967D01*
X342355Y172623D01*
X344323D01*
Y170655D01*
X343667Y169999D01*
X343011Y170655D01*
Y172623D01*
X322079Y46062D02*
Y43438D01*
X323391Y42126D01*
X324703Y43438D01*
Y46062D01*
X326014Y42126D02*
X327326D01*
X326670D01*
Y44750D01*
X326014D01*
X329294Y42126D02*
Y44750D01*
X331262D01*
X331918Y44094D01*
Y42126D01*
X337166Y42782D02*
X337822Y42126D01*
X339134D01*
X339790Y42782D01*
Y45406D01*
X339134Y46062D01*
X337822D01*
X337166Y45406D01*
Y44750D01*
X337822Y44094D01*
X339790D01*
X341101D02*
X343725D01*
X345037Y45406D02*
X345693Y46062D01*
X347005D01*
X347661Y45406D01*
Y44750D01*
X347005Y44094D01*
X346349D01*
X347005D01*
X347661Y43438D01*
Y42782D01*
X347005Y42126D01*
X345693D01*
X345037Y42782D01*
X348973Y45406D02*
X349629Y46062D01*
X350941D01*
X351597Y45406D01*
Y42782D01*
X350941Y42126D01*
X349629D01*
X348973Y42782D01*
Y45406D01*
X356844Y46062D02*
Y43438D01*
X358156Y42126D01*
X359468Y43438D01*
Y46062D01*
X360780D02*
Y42126D01*
X362748D01*
X363404Y42782D01*
Y45406D01*
X362748Y46062D01*
X360780D01*
X367340Y45406D02*
X366684Y46062D01*
X365372D01*
X364716Y45406D01*
Y42782D01*
X365372Y42126D01*
X366684D01*
X367340Y42782D01*
X371472Y259455D02*
X367537D01*
Y261423D01*
X368193Y262079D01*
X369504D01*
X370161Y261423D01*
Y259455D01*
Y260767D02*
X371472Y262079D01*
X368193Y266014D02*
X367537Y265358D01*
Y264047D01*
X368193Y263390D01*
X368849D01*
X369504Y264047D01*
Y265358D01*
X370161Y266014D01*
X370816D01*
X371472Y265358D01*
Y264047D01*
X370816Y263390D01*
X369504Y267326D02*
Y269950D01*
X371472Y273230D02*
X367537D01*
X369504Y271262D01*
Y273886D01*
X368193Y275198D02*
X367537Y275854D01*
Y277166D01*
X368193Y277822D01*
X368849D01*
X369504Y277166D01*
X370161Y277822D01*
X370816D01*
X371472Y277166D01*
Y275854D01*
X370816Y275198D01*
X370161D01*
X369504Y275854D01*
X368849Y275198D01*
X368193D01*
X369504Y275854D02*
Y277166D01*
X367537Y281757D02*
Y279134D01*
X369504D01*
X368849Y280445D01*
Y281101D01*
X369504Y281757D01*
X370816D01*
X371472Y281101D01*
Y279789D01*
X370816Y279134D01*
X345749Y102666D02*
X341813D01*
Y104634D01*
X342469Y105290D01*
X343781D01*
X344437Y104634D01*
Y102666D01*
X343125Y107257D02*
Y108569D01*
X343781Y109225D01*
X345749D01*
Y107257D01*
X345093Y106602D01*
X344437Y107257D01*
Y109225D01*
X345749Y110537D02*
X343125D01*
Y112505D01*
X343781Y113161D01*
X345749D01*
Y116441D02*
Y115129D01*
X345093Y114473D01*
X343781D01*
X343125Y115129D01*
Y116441D01*
X343781Y117097D01*
X344437D01*
Y114473D01*
X345749Y118409D02*
Y119721D01*
Y119065D01*
X341813D01*
Y118409D01*
X15877Y156664D02*
X13878D01*
X12878Y155665D01*
Y151666D01*
X13878Y150666D01*
X15877D01*
X16877Y151666D01*
Y155665D01*
X15877Y156664D01*
X18876Y150666D02*
Y156664D01*
X22875Y150666D01*
Y156664D01*
X12474Y170703D02*
X10475D01*
X9475Y169703D01*
Y165705D01*
X10475Y164705D01*
X12474D01*
X13474Y165705D01*
Y169703D01*
X12474Y170703D01*
X19472D02*
X15473D01*
Y167704D01*
X17472D01*
X15473D01*
Y164705D01*
X25470Y170703D02*
X21471D01*
Y167704D01*
X23471D01*
X21471D01*
Y164705D01*
X311988Y419921D02*
Y425919D01*
X314987D01*
X315987Y424920D01*
Y422920D01*
X314987Y421920D01*
X311988D01*
X313987D02*
X315987Y419921D01*
X317986Y425919D02*
X321985D01*
X319986D01*
Y419921D01*
X323984Y425919D02*
Y420921D01*
X324984Y419921D01*
X326983D01*
X327983Y420921D01*
Y425919D01*
X329982Y422920D02*
X333981D01*
X335980Y425919D02*
Y419921D01*
X338979D01*
X339979Y420921D01*
Y421920D01*
X338979Y422920D01*
X335980D01*
X338979D01*
X339979Y423920D01*
Y424920D01*
X338979Y425919D01*
X335980D01*
X345977Y419921D02*
X341978D01*
X345977Y423920D01*
Y424920D01*
X344977Y425919D01*
X342978D01*
X341978Y424920D01*
X347976Y419921D02*
Y420921D01*
X348976D01*
Y419921D01*
X347976D01*
X352975Y424920D02*
X353975Y425919D01*
X355974D01*
X356974Y424920D01*
Y420921D01*
X355974Y419921D01*
X353975D01*
X352975Y420921D01*
Y424920D01*
X358973D02*
X359973Y425919D01*
X361972D01*
X362972Y424920D01*
Y420921D01*
X361972Y419921D01*
X359973D01*
X358973Y420921D01*
Y424920D01*
X364971Y419921D02*
X366970D01*
X365971D01*
Y425919D01*
X364971Y424920D01*
X38666Y185671D02*
X36667D01*
X37667D01*
Y180673D01*
X36667Y179673D01*
X35667D01*
X34668Y180673D01*
X40666Y185671D02*
X44664D01*
Y184672D01*
X40666Y180673D01*
Y179673D01*
X159058Y8330D02*
Y2331D01*
X163057D01*
X165057Y7330D02*
X166056Y8330D01*
X168055D01*
X169055Y7330D01*
Y6330D01*
X168055Y5331D01*
X167056D01*
X168055D01*
X169055Y4331D01*
Y3331D01*
X168055Y2331D01*
X166056D01*
X165057Y3331D01*
X360832Y91943D02*
X359520D01*
X360176D01*
Y88663D01*
X359520Y88007D01*
X358864D01*
X358208Y88663D01*
X364768Y91943D02*
X362144D01*
Y89975D01*
X363456Y90631D01*
X364112D01*
X364768Y89975D01*
Y88663D01*
X364112Y88007D01*
X362800D01*
X362144Y88663D01*
X355727Y182982D02*
X354415D01*
X355071D01*
Y179702D01*
X354415Y179046D01*
X353759D01*
X353103Y179702D01*
X359006Y179046D02*
Y182982D01*
X357038Y181014D01*
X359662D01*
X93543Y95855D02*
Y89858D01*
X96542D01*
X97542Y90857D01*
Y91857D01*
X96542Y92857D01*
X93543D01*
X96542D01*
X97542Y93856D01*
Y94856D01*
X96542Y95855D01*
X93543D01*
X99541D02*
X103540D01*
X101541D01*
Y89858D01*
X105540D02*
X107539D01*
X106539D01*
Y95855D01*
X105540Y94856D01*
X336713Y92517D02*
X335401D01*
X336057D01*
Y89237D01*
X335401Y88581D01*
X334745D01*
X334089Y89237D01*
X338024Y88581D02*
X339336D01*
X338681D01*
Y92517D01*
X338024Y91861D01*
D17*
X75276Y31991D02*
X77941D01*
X76609Y33324D02*
Y30659D01*
X106772Y31991D02*
X109437D01*
X108105Y33324D02*
Y30659D01*
M02*
