G04*
G04 #@! TF.GenerationSoftware,Altium Limited,Altium Designer,21.3.2 (30)*
G04*
G04 Layer_Physical_Order=2*
G04 Layer_Color=16711680*
%FSLAX25Y25*%
%MOIN*%
G70*
G04*
G04 #@! TF.SameCoordinates,6E51047B-58C7-44D0-8EEE-2D495A345CE8*
G04*
G04*
G04 #@! TF.FilePolarity,Positive*
G04*
G01*
G75*
%ADD10C,0.00787*%
%ADD16C,0.01000*%
%ADD20R,0.03347X0.03740*%
%ADD25R,0.03740X0.03347*%
%ADD30R,0.16535X0.05906*%
%ADD32R,0.05512X0.05118*%
%ADD51R,0.03937X0.03543*%
%ADD163C,0.00600*%
%ADD164C,0.00800*%
%ADD165C,0.02000*%
%ADD168C,0.01200*%
%ADD169C,0.01008*%
%ADD172R,0.06496X0.06496*%
%ADD173C,0.06496*%
%ADD174C,0.05937*%
%ADD175R,0.05937X0.05937*%
%ADD176C,0.05713*%
%ADD177R,0.07087X0.07087*%
%ADD178C,0.07087*%
%ADD179C,0.08563*%
%ADD180C,0.04213*%
%ADD181C,0.01181*%
%ADD182R,0.06319X0.06319*%
%ADD183C,0.06319*%
%ADD184O,0.09843X0.19685*%
%ADD185O,0.08858X0.17717*%
%ADD186O,0.17717X0.08858*%
%ADD187C,0.04134*%
%ADD188R,0.04134X0.04134*%
%ADD189C,0.05000*%
%ADD190C,0.01968*%
%ADD191C,0.01900*%
%ADD192C,0.03150*%
%ADD193C,0.02756*%
%ADD194C,0.03937*%
%ADD195R,0.04173X0.10236*%
%ADD196R,0.22173X0.22441*%
%ADD197R,0.10630X0.05118*%
G04:AMPARAMS|DCode=198|XSize=61.81mil|YSize=16.14mil|CornerRadius=2.02mil|HoleSize=0mil|Usage=FLASHONLY|Rotation=90.000|XOffset=0mil|YOffset=0mil|HoleType=Round|Shape=RoundedRectangle|*
%AMROUNDEDRECTD198*
21,1,0.06181,0.01211,0,0,90.0*
21,1,0.05778,0.01614,0,0,90.0*
1,1,0.00404,0.00605,0.02889*
1,1,0.00404,0.00605,-0.02889*
1,1,0.00404,-0.00605,-0.02889*
1,1,0.00404,-0.00605,0.02889*
%
%ADD198ROUNDEDRECTD198*%
%ADD199C,0.00598*%
G36*
X373060Y241154D02*
X357589Y241154D01*
X356377Y241070D01*
X353980Y240666D01*
X353910Y240647D01*
X353575Y240591D01*
X351230Y239954D01*
X348958Y239090D01*
X346783Y238008D01*
X344723Y236718D01*
X342800Y235232D01*
X341033Y233564D01*
X339437Y231732D01*
X338028Y229752D01*
X336820Y227643D01*
X335825Y225426D01*
X335051Y223123D01*
X334508Y220754D01*
X334199Y218344D01*
X334127Y215915D01*
X334211Y214703D01*
X334211Y214703D01*
X334211Y214703D01*
X334105Y213469D01*
X334137Y210994D01*
X334412Y208534D01*
X334927Y206112D01*
X335677Y203753D01*
X336654Y201479D01*
X337850Y199311D01*
X339253Y197272D01*
X340850Y195380D01*
X342624Y193654D01*
X344559Y192110D01*
X346637Y190763D01*
X348836Y189627D01*
X351136Y188712D01*
X353515Y188028D01*
X355950Y187580D01*
X357183Y187476D01*
X357183Y187476D01*
X373060D01*
X373060Y71694D01*
X372159Y70793D01*
Y2810D01*
X370383Y1033D01*
X369764Y1652D01*
X814D01*
Y187555D01*
X16124D01*
Y187554D01*
X17358Y187658D01*
X19792Y188106D01*
X22171Y188791D01*
X24472Y189706D01*
X26671Y190842D01*
X28748Y192188D01*
X30683Y193732D01*
X32458Y195458D01*
X34054Y197350D01*
X35457Y199390D01*
X36653Y201557D01*
X37631Y203831D01*
X38381Y206191D01*
X38896Y208612D01*
X39170Y211072D01*
X39202Y213548D01*
X39097Y214781D01*
X39097Y214781D01*
X39097Y214781D01*
X39180Y215993D01*
X39109Y218422D01*
X38800Y220832D01*
X38256Y223201D01*
X37483Y225505D01*
X36488Y227722D01*
X35280Y229830D01*
X33871Y231810D01*
X32275Y233643D01*
X30507Y235310D01*
X28584Y236796D01*
X26525Y238086D01*
X24349Y239168D01*
X22078Y240032D01*
X19733Y240669D01*
X17336Y241073D01*
X16124Y241156D01*
X814Y241157D01*
Y428320D01*
X3046D01*
X3889Y427477D01*
X45297D01*
Y402597D01*
X46180D01*
X46582Y402361D01*
X46582Y402361D01*
X88641D01*
X89252Y401681D01*
X89211Y401356D01*
X82381Y394525D01*
X82115Y394128D01*
X82022Y393660D01*
Y392289D01*
X81817Y392084D01*
X81561Y391465D01*
Y390794D01*
X81817Y390175D01*
X82291Y389701D01*
X82911Y389444D01*
X83581D01*
X84200Y389701D01*
X84674Y390175D01*
X84931Y390794D01*
Y391465D01*
X84674Y392084D01*
X84469Y392289D01*
Y393153D01*
X90583Y399267D01*
X112099D01*
X112385Y398767D01*
X112281Y398241D01*
Y394596D01*
X111781D01*
Y389653D01*
X117118D01*
Y390637D01*
X118473D01*
Y389357D01*
X125385D01*
Y395875D01*
X118473D01*
Y394104D01*
X117118D01*
Y394596D01*
X115747D01*
Y398241D01*
X115643Y398767D01*
X115929Y399267D01*
X189704D01*
X190172Y399360D01*
X190569Y399625D01*
X193305Y402361D01*
X207808D01*
X207960Y401861D01*
X207901Y401822D01*
X205034Y398954D01*
X198971D01*
X198868Y399057D01*
X198249Y399313D01*
X197578D01*
X196959Y399057D01*
X196485Y398583D01*
X196228Y397964D01*
Y397293D01*
X196485Y396674D01*
X196959Y396200D01*
X197578Y395943D01*
X198249D01*
X198868Y396200D01*
X198971Y396303D01*
X205583D01*
X206090Y396404D01*
X206520Y396691D01*
X209388Y399559D01*
X214179D01*
X214282Y399456D01*
X214901Y399199D01*
X215571D01*
X216191Y399456D01*
X216665Y399930D01*
X216921Y400549D01*
Y401219D01*
X216665Y401839D01*
X216643Y401861D01*
X216850Y402361D01*
X231911D01*
X233433Y400839D01*
Y400549D01*
X233690Y399930D01*
X234164Y399456D01*
X234783Y399199D01*
X235453D01*
X236073Y399456D01*
X236547Y399930D01*
X236803Y400549D01*
Y401219D01*
X236547Y401839D01*
X236525Y401861D01*
X236732Y402361D01*
X238464D01*
Y428320D01*
X239601D01*
X239680Y428241D01*
X296424D01*
Y428320D01*
X373060D01*
X373060Y241154D01*
D02*
G37*
%LPC*%
G36*
X321546Y418037D02*
X320383D01*
X320314Y418023D01*
X320244D01*
X319103Y417796D01*
X319038Y417769D01*
X318969Y417755D01*
X317894Y417310D01*
X317836Y417271D01*
X317771Y417244D01*
X316804Y416598D01*
X316754Y416548D01*
X316695Y416509D01*
X315873Y415687D01*
X315834Y415628D01*
X315784Y415578D01*
X315138Y414611D01*
X315111Y414546D01*
X315072Y414488D01*
X314627Y413413D01*
X314613Y413344D01*
X314586Y413279D01*
X314359Y412138D01*
Y412068D01*
X314345Y411999D01*
Y410836D01*
X314359Y410767D01*
Y410696D01*
X314586Y409555D01*
X314613Y409491D01*
X314627Y409422D01*
X315072Y408347D01*
X315111Y408288D01*
X315138Y408223D01*
X315784Y407256D01*
X315834Y407206D01*
X315873Y407148D01*
X316695Y406325D01*
X316754Y406286D01*
X316804Y406237D01*
X317771Y405590D01*
X317836Y405564D01*
X317894Y405524D01*
X318969Y405079D01*
X319038Y405066D01*
X319103Y405039D01*
X320244Y404812D01*
X320314D01*
X320383Y404798D01*
X321546D01*
X321615Y404812D01*
X321685D01*
X322826Y405039D01*
X322891Y405066D01*
X322960Y405079D01*
X324035Y405524D01*
X324093Y405564D01*
X324158Y405590D01*
X325126Y406237D01*
X325175Y406286D01*
X325234Y406325D01*
X326056Y407148D01*
X326095Y407206D01*
X326145Y407256D01*
X326791Y408223D01*
X326818Y408288D01*
X326857Y408347D01*
X327303Y409422D01*
X327316Y409490D01*
X327343Y409555D01*
X327570Y410696D01*
Y410767D01*
X327584Y410836D01*
Y411999D01*
X327570Y412068D01*
Y412138D01*
X327343Y413279D01*
X327316Y413344D01*
X327303Y413413D01*
X326857Y414488D01*
X326818Y414546D01*
X326791Y414611D01*
X326145Y415578D01*
X326095Y415628D01*
X326056Y415687D01*
X325234Y416509D01*
X325175Y416548D01*
X325126Y416598D01*
X324158Y417244D01*
X324093Y417271D01*
X324035Y417310D01*
X322960Y417755D01*
X322891Y417769D01*
X322826Y417796D01*
X321685Y418023D01*
X321615D01*
X321546Y418037D01*
D02*
G37*
G36*
X160304Y396860D02*
X159932D01*
X159804Y396860D01*
X155186D01*
Y396222D01*
X151697D01*
X151034Y396090D01*
X150472Y395714D01*
X150096Y395152D01*
X149964Y394489D01*
X150096Y393825D01*
X150472Y393263D01*
X151034Y392887D01*
X151697Y392755D01*
X155186D01*
Y391720D01*
X159804D01*
X159932Y391720D01*
X160304D01*
X160432Y391720D01*
X165050D01*
Y392964D01*
X166049D01*
X166152Y392861D01*
X166771Y392605D01*
X167441D01*
X168061Y392861D01*
X168535Y393335D01*
X168791Y393955D01*
Y394625D01*
X168535Y395244D01*
X168061Y395718D01*
X167441Y395975D01*
X166771D01*
X166152Y395718D01*
X166049Y395615D01*
X165050D01*
Y396860D01*
X160432D01*
X160304Y396860D01*
D02*
G37*
G36*
X217992Y395615D02*
X206156D01*
X205649Y395514D01*
X205219Y395227D01*
X202842Y392850D01*
X202696D01*
X202077Y392593D01*
X201603Y392119D01*
X201346Y391500D01*
Y390830D01*
X201603Y390210D01*
X202077Y389736D01*
X202696Y389480D01*
X203367D01*
X203986Y389736D01*
X204460Y390210D01*
X204716Y390830D01*
Y390975D01*
X206705Y392964D01*
X217443D01*
X219850Y390557D01*
Y390411D01*
X220107Y389792D01*
X220581Y389318D01*
X221200Y389061D01*
X221871D01*
X222490Y389318D01*
X222964Y389792D01*
X223220Y390411D01*
Y391082D01*
X222964Y391701D01*
X222490Y392175D01*
X221871Y392431D01*
X221725D01*
X218929Y395227D01*
X218499Y395514D01*
X217992Y395615D01*
D02*
G37*
G36*
X186693Y391003D02*
X157657D01*
X156994Y390872D01*
X156432Y390496D01*
X156333Y390397D01*
X156196Y390192D01*
X156131Y390126D01*
X156095Y390041D01*
X155958Y389835D01*
X155909Y389592D01*
X155874Y389507D01*
Y389414D01*
X155826Y389172D01*
X155874Y388929D01*
Y388837D01*
X155909Y388751D01*
X155958Y388508D01*
X156095Y388303D01*
X156131Y388217D01*
X156196Y388152D01*
X156333Y387946D01*
X156539Y387809D01*
X156605Y387743D01*
X156690Y387708D01*
X156896Y387570D01*
X157138Y387522D01*
X157224Y387487D01*
X157316D01*
X157559Y387438D01*
X157802Y387487D01*
X157894D01*
X157980Y387522D01*
X158054Y387537D01*
X186132D01*
X186222Y387476D01*
X186885Y387344D01*
X187377D01*
X187620Y387393D01*
X187713D01*
X187798Y387428D01*
X188041Y387476D01*
X188246Y387614D01*
X188332Y387649D01*
X188397Y387715D01*
X188603Y387852D01*
X188740Y388058D01*
X188806Y388123D01*
X188841Y388209D01*
X188979Y388414D01*
X189027Y388657D01*
X189062Y388743D01*
Y388835D01*
X189111Y389078D01*
X189062Y389320D01*
Y389413D01*
X189027Y389498D01*
X188979Y389741D01*
X188841Y389947D01*
X188806Y390032D01*
X188740Y390098D01*
X188603Y390303D01*
X188397Y390441D01*
X188332Y390506D01*
X188246Y390542D01*
X188041Y390679D01*
X187798Y390727D01*
X187713Y390763D01*
X187620D01*
X187476Y390791D01*
X187356Y390871D01*
X186693Y391003D01*
D02*
G37*
G36*
X108809Y388039D02*
X93938D01*
X93275Y387907D01*
X92713Y387531D01*
X91015Y385834D01*
X86789D01*
X85867Y386755D01*
X85305Y387131D01*
X84641Y387263D01*
X82968D01*
X82939Y387292D01*
X82175Y387609D01*
X81348D01*
X80584Y387292D01*
X79999Y386707D01*
X79683Y385943D01*
Y385116D01*
X79999Y384352D01*
X80584Y383768D01*
X81348Y383451D01*
X82175D01*
X82939Y383768D01*
X82968Y383797D01*
X83923D01*
X84845Y382875D01*
X85408Y382499D01*
X86071Y382367D01*
X86071Y382367D01*
X91733D01*
X92397Y382499D01*
X92959Y382875D01*
X94656Y384572D01*
X108091D01*
X110916Y381747D01*
Y381473D01*
X111232Y380709D01*
X111817Y380124D01*
X112388Y379888D01*
X112790Y379808D01*
X113199D01*
X113601Y379888D01*
X113979Y380044D01*
X114320Y380272D01*
X114609Y380561D01*
X114837Y380902D01*
X114994Y381280D01*
X115073Y381682D01*
Y382091D01*
X114994Y382493D01*
X114837Y382871D01*
X114609Y383211D01*
X114320Y383501D01*
X113979Y383729D01*
X113737Y383829D01*
X110035Y387531D01*
X109472Y387907D01*
X108809Y388039D01*
D02*
G37*
G36*
X50779Y387475D02*
X50122D01*
X49516Y387223D01*
X49051Y386759D01*
X48800Y386152D01*
Y385496D01*
X49051Y384889D01*
X49516Y384424D01*
X50122Y384173D01*
X50779D01*
X51386Y384424D01*
X51517Y384555D01*
X56798D01*
X57223Y384131D01*
X57830Y383879D01*
X58487D01*
X59093Y384131D01*
X59558Y384595D01*
X59809Y385202D01*
Y385858D01*
X59558Y386465D01*
X59093Y386929D01*
X58487Y387181D01*
X57830D01*
X57223Y386929D01*
X57092Y386799D01*
X51811D01*
X51386Y387223D01*
X50779Y387475D01*
D02*
G37*
G36*
X78863Y383163D02*
X78206D01*
X77599Y382912D01*
X77357Y382670D01*
X71828D01*
X71726Y382773D01*
X71119Y383024D01*
X70463D01*
X69856Y382773D01*
X69392Y382308D01*
X69140Y381702D01*
Y381045D01*
X69392Y380438D01*
X69856Y379974D01*
X70463Y379722D01*
X71119D01*
X71726Y379974D01*
X71968Y380215D01*
X77497D01*
X77599Y380113D01*
X78206Y379862D01*
X78863D01*
X79469Y380113D01*
X79934Y380578D01*
X80185Y381184D01*
Y381841D01*
X79934Y382448D01*
X79469Y382912D01*
X78863Y383163D01*
D02*
G37*
G36*
X58810Y382259D02*
X58153D01*
X57546Y382008D01*
X57262Y381724D01*
X53113D01*
X52829Y382008D01*
X52222Y382259D01*
X51565D01*
X50959Y382008D01*
X50494Y381544D01*
X50243Y380937D01*
Y380280D01*
X50494Y379674D01*
X50959Y379209D01*
X51565Y378958D01*
X52222D01*
X52829Y379209D01*
X53113Y379493D01*
X57262D01*
X57546Y379209D01*
X58153Y378958D01*
X58810D01*
X59417Y379209D01*
X59881Y379674D01*
X60132Y380280D01*
Y380937D01*
X59881Y381544D01*
X59417Y382008D01*
X58810Y382259D01*
D02*
G37*
G36*
X169508Y375207D02*
X168838D01*
X168219Y374951D01*
X168116Y374848D01*
X158321D01*
X158218Y374951D01*
X157599Y375207D01*
X156929D01*
X156309Y374951D01*
X155835Y374477D01*
X155579Y373857D01*
Y373187D01*
X155835Y372568D01*
X156309Y372094D01*
X156929Y371837D01*
X157599D01*
X158218Y372094D01*
X158321Y372197D01*
X168116D01*
X168219Y372094D01*
X168838Y371837D01*
X169508D01*
X170128Y372094D01*
X170602Y372568D01*
X170858Y373187D01*
Y373857D01*
X170602Y374477D01*
X170128Y374951D01*
X169508Y375207D01*
D02*
G37*
G36*
X70259Y376310D02*
X69602D01*
X68995Y376059D01*
X68531Y375594D01*
X68279Y374987D01*
Y374331D01*
X68531Y373724D01*
X68995Y373259D01*
X69602Y373008D01*
X70259D01*
X70865Y373259D01*
X71150Y373544D01*
X80392D01*
X80826Y373110D01*
X81433Y372858D01*
X82090D01*
X82697Y373110D01*
X83161Y373574D01*
X83412Y374181D01*
Y374838D01*
X83161Y375444D01*
X82697Y375909D01*
X82090Y376160D01*
X81433D01*
X80909Y375943D01*
X80761Y375972D01*
X80335Y375887D01*
X80165Y375774D01*
X71150D01*
X70865Y376059D01*
X70259Y376310D01*
D02*
G37*
G36*
X78534Y365255D02*
X69930D01*
X69267Y365123D01*
X68705Y364748D01*
X68329Y364185D01*
X68197Y363522D01*
X68329Y362859D01*
X68705Y362296D01*
X69267Y361921D01*
X69930Y361789D01*
X78534D01*
X79197Y361921D01*
X79760Y362296D01*
X80136Y362859D01*
X80267Y363522D01*
X80136Y364185D01*
X79760Y364748D01*
X79197Y365123D01*
X78534Y365255D01*
D02*
G37*
G36*
X162780Y364892D02*
X162110D01*
X161490Y364636D01*
X161285Y364431D01*
X159843D01*
X159374Y364337D01*
X158977Y364072D01*
X153774Y358869D01*
X153484D01*
X152864Y358612D01*
X152390Y358138D01*
X152134Y357519D01*
Y356848D01*
X152390Y356229D01*
X152864Y355755D01*
X153484Y355498D01*
X154154D01*
X154773Y355755D01*
X155247Y356229D01*
X155504Y356848D01*
Y357138D01*
X160349Y361984D01*
X161285D01*
X161490Y361779D01*
X162110Y361522D01*
X162780D01*
X163399Y361779D01*
X163873Y362253D01*
X164130Y362872D01*
Y363542D01*
X163873Y364162D01*
X163399Y364636D01*
X162780Y364892D01*
D02*
G37*
G36*
X167441Y386723D02*
X166771D01*
X166152Y386466D01*
X165678Y385992D01*
X165421Y385373D01*
Y385227D01*
X158710Y378516D01*
X154805D01*
X154298Y378415D01*
X153868Y378127D01*
X144996Y369255D01*
X144709Y368826D01*
X144608Y368318D01*
Y364735D01*
X144709Y364228D01*
X144996Y363798D01*
X146682Y362112D01*
Y361966D01*
X146939Y361347D01*
X147413Y360873D01*
X148032Y360616D01*
X148702D01*
X149322Y360873D01*
X149796Y361347D01*
X150052Y361966D01*
Y362637D01*
X149796Y363256D01*
X149322Y363730D01*
X148702Y363987D01*
X148556D01*
X147259Y365284D01*
Y367769D01*
X155354Y375865D01*
X159259D01*
X159766Y375966D01*
X160196Y376253D01*
X167296Y383353D01*
X167441D01*
X168061Y383609D01*
X168535Y384083D01*
X168791Y384703D01*
Y385373D01*
X168535Y385992D01*
X168061Y386466D01*
X167441Y386723D01*
D02*
G37*
G36*
X182402Y366349D02*
X181732D01*
X181112Y366092D01*
X180907Y365887D01*
X167651D01*
X167183Y365794D01*
X166786Y365529D01*
X166201Y364943D01*
X165935Y364546D01*
X165842Y364078D01*
Y358343D01*
X165637Y358138D01*
X165381Y357519D01*
Y356848D01*
X165637Y356229D01*
X166111Y355755D01*
X166731Y355498D01*
X167401D01*
X168020Y355755D01*
X168494Y356229D01*
X168751Y356848D01*
Y357519D01*
X168494Y358138D01*
X168289Y358343D01*
Y359603D01*
X168789Y359810D01*
X169105Y359495D01*
X169724Y359239D01*
X170394D01*
X171013Y359495D01*
X171487Y359969D01*
X171702Y360488D01*
X180907D01*
X181112Y360282D01*
X181732Y360026D01*
X182402D01*
X183021Y360282D01*
X183495Y360756D01*
X183752Y361376D01*
Y362046D01*
X183495Y362666D01*
X183300Y362861D01*
X183057Y363187D01*
X183300Y363514D01*
X183495Y363709D01*
X183752Y364329D01*
Y364999D01*
X183495Y365618D01*
X183021Y366092D01*
X182402Y366349D01*
D02*
G37*
G36*
X171037Y355173D02*
X170380D01*
X169773Y354922D01*
X169309Y354457D01*
X169065Y353870D01*
X155374D01*
X155089Y354154D01*
X154482Y354405D01*
X153826D01*
X153219Y354154D01*
X152755Y353689D01*
X152503Y353083D01*
Y352426D01*
X152755Y351819D01*
X153219Y351355D01*
X153826Y351103D01*
X154482D01*
X155089Y351355D01*
X155374Y351639D01*
X169639D01*
X169639Y351639D01*
X170066Y351724D01*
X170322Y351895D01*
X170380Y351871D01*
X171037D01*
X171643Y352123D01*
X172108Y352587D01*
X172359Y353194D01*
Y353850D01*
X172108Y354457D01*
X171643Y354922D01*
X171037Y355173D01*
D02*
G37*
G36*
X193337Y350972D02*
X193336Y350972D01*
X183462D01*
X183462Y350972D01*
X183033Y350887D01*
X182669Y350644D01*
X182669Y350644D01*
X182241Y350216D01*
X169112D01*
X168974Y350244D01*
X168974Y350244D01*
X126525D01*
X126460Y350231D01*
X126427Y350264D01*
X125808Y350520D01*
X125137D01*
X124518Y350264D01*
X124044Y349790D01*
X123787Y349171D01*
Y348500D01*
X124044Y347881D01*
X124518Y347407D01*
X125137Y347150D01*
X125808D01*
X126427Y347407D01*
X126901Y347881D01*
X126950Y348001D01*
X130798D01*
X130949Y347500D01*
X130866Y347445D01*
X130866Y347445D01*
X129902Y346481D01*
X129468D01*
X128849Y346224D01*
X128375Y345750D01*
X128118Y345131D01*
Y344461D01*
X128375Y343841D01*
X128849Y343367D01*
X129468Y343111D01*
X130138D01*
X130758Y343367D01*
X131232Y343841D01*
X131488Y344461D01*
Y344895D01*
X132124Y345530D01*
X192380D01*
X198492Y339419D01*
Y338985D01*
X198581Y338770D01*
X198247Y338270D01*
X185740D01*
X184163Y339846D01*
X183601Y340222D01*
X182937Y340354D01*
X169031D01*
X168932Y340854D01*
X169449Y341068D01*
X169923Y341542D01*
X170179Y342161D01*
Y342832D01*
X169923Y343451D01*
X169449Y343925D01*
X168829Y344182D01*
X168159D01*
X167540Y343925D01*
X167242Y343628D01*
X137366D01*
X137254Y343740D01*
X136634Y343996D01*
X135964D01*
X135345Y343740D01*
X134871Y343266D01*
X134614Y342647D01*
Y341976D01*
X134871Y341357D01*
X135345Y340883D01*
X135414Y340854D01*
X135315Y340354D01*
X118173D01*
X117509Y340222D01*
X116947Y339846D01*
X94726Y317625D01*
X80817D01*
X80154Y317493D01*
X79592Y317117D01*
X71934Y309459D01*
X71813D01*
X71134Y309277D01*
X70526Y308926D01*
X70029Y308429D01*
X69677Y307820D01*
X69495Y307141D01*
Y306438D01*
X69677Y305760D01*
X70029Y305151D01*
X70526Y304654D01*
X71134Y304302D01*
X71813Y304120D01*
X72516D01*
X73195Y304302D01*
X73804Y304654D01*
X74301Y305151D01*
X74652Y305760D01*
X74834Y306438D01*
Y307141D01*
X74767Y307390D01*
X81535Y314158D01*
X95443D01*
X96107Y314290D01*
X96669Y314666D01*
X118891Y336887D01*
X166564D01*
X166898Y336387D01*
X166809Y336172D01*
Y335502D01*
X167066Y334883D01*
X167271Y334678D01*
Y332814D01*
X167155Y332719D01*
X166798Y332580D01*
X166263Y333115D01*
Y333404D01*
X166006Y334024D01*
X165532Y334498D01*
X164913Y334754D01*
X164242D01*
X163623Y334498D01*
X163149Y334024D01*
X162893Y333404D01*
Y332734D01*
X163149Y332115D01*
X163623Y331641D01*
X164242Y331384D01*
X164532D01*
X165538Y330379D01*
Y328038D01*
X165103Y327818D01*
X164755Y327801D01*
X163772Y328784D01*
Y329074D01*
X163515Y329693D01*
X163041Y330167D01*
X162422Y330424D01*
X161751D01*
X161132Y330167D01*
X160658Y329693D01*
X160401Y329074D01*
Y328403D01*
X160658Y327784D01*
X161132Y327310D01*
X161751Y327053D01*
X162041D01*
X163318Y325777D01*
X163292Y325506D01*
X163092Y325207D01*
X163022Y324856D01*
Y320402D01*
X162560Y320210D01*
X160575Y322196D01*
X160145Y322483D01*
X159638Y322584D01*
X151295D01*
X150975Y322520D01*
X150752Y322889D01*
X150716Y322978D01*
X150965Y323581D01*
Y324251D01*
X150709Y324870D01*
X150235Y325344D01*
X149616Y325601D01*
X148945D01*
X148326Y325344D01*
X147852Y324870D01*
X147595Y324251D01*
Y323961D01*
X145068Y321434D01*
X144803Y321037D01*
X144710Y320569D01*
Y298442D01*
X144802Y297978D01*
X144701Y297734D01*
Y297077D01*
X144953Y296471D01*
X145417Y296006D01*
X146024Y295755D01*
X146680D01*
X147287Y296006D01*
X147751Y296471D01*
X148003Y297077D01*
Y297734D01*
X147751Y298341D01*
X147287Y298805D01*
X147188Y298847D01*
X147157Y298893D01*
Y318661D01*
X147657Y318760D01*
X147852Y318289D01*
X148326Y317815D01*
X148945Y317559D01*
X149616D01*
X150235Y317815D01*
X150709Y318289D01*
X150965Y318909D01*
Y319055D01*
X151844Y319933D01*
X159089D01*
X164529Y314493D01*
X164959Y314205D01*
X165466Y314105D01*
X176423D01*
X176931Y314205D01*
X177361Y314493D01*
X180632Y317764D01*
X180859Y318104D01*
X180866Y318110D01*
X181409Y318292D01*
X181503Y318229D01*
X181855Y318159D01*
X182255D01*
X184198Y316216D01*
Y315384D01*
X184221Y315266D01*
Y311641D01*
X189558D01*
Y312889D01*
X190914D01*
Y311346D01*
X197826D01*
Y317864D01*
X194412D01*
Y319683D01*
X194319Y320152D01*
X194054Y320549D01*
X192651Y321951D01*
X192254Y322216D01*
X191786Y322310D01*
X191055D01*
X190707Y322658D01*
X190100Y322909D01*
X189443D01*
X188837Y322658D01*
X188372Y322193D01*
X188121Y321587D01*
Y320930D01*
X188372Y320323D01*
X188837Y319859D01*
X189443Y319607D01*
X190100D01*
X190707Y319859D01*
X190710Y319863D01*
X191279D01*
X191965Y319177D01*
Y317864D01*
X190914D01*
Y315336D01*
X189558D01*
Y316584D01*
X186645D01*
Y316723D01*
X186552Y317191D01*
X186286Y317588D01*
X183985Y319889D01*
Y324856D01*
X183915Y325207D01*
X183716Y325506D01*
X183418Y325705D01*
X183066Y325775D01*
X181855D01*
X181503Y325705D01*
X181205Y325506D01*
X181157D01*
X180859Y325705D01*
X180507Y325775D01*
X179296D01*
X179066Y325729D01*
X178692Y325938D01*
X178566Y326054D01*
Y326376D01*
X178473Y326845D01*
X178208Y327241D01*
X176761Y328688D01*
X176968Y329188D01*
X187242D01*
X187926Y328504D01*
X187834Y328032D01*
X187782Y327957D01*
X187587Y327912D01*
X187516Y327917D01*
X186930Y328160D01*
X186259D01*
X185640Y327903D01*
X185166Y327429D01*
X184909Y326810D01*
Y326140D01*
X185166Y325520D01*
X185640Y325046D01*
X186259Y324790D01*
X186930D01*
X187549Y325046D01*
X187666Y325163D01*
X192637D01*
X192727Y325074D01*
X193346Y324817D01*
X194016D01*
X194636Y325074D01*
X195110Y325548D01*
X195366Y326167D01*
Y326837D01*
X195110Y327457D01*
X194636Y327931D01*
X194689Y328450D01*
X194874Y328895D01*
Y329566D01*
X194617Y330185D01*
X194143Y330659D01*
X193524Y330916D01*
X192854D01*
X192234Y330659D01*
X192029Y330454D01*
X189437D01*
X188614Y331277D01*
X188217Y331542D01*
X187749Y331635D01*
X174798D01*
X172531Y333902D01*
Y334192D01*
X172275Y334811D01*
X171801Y335285D01*
X171182Y335542D01*
X170511D01*
X170179Y335945D01*
Y336172D01*
X170090Y336387D01*
X170424Y336887D01*
X182219D01*
X183796Y335311D01*
X184358Y334935D01*
X185021Y334803D01*
X198329D01*
X198536Y334303D01*
X198355Y334122D01*
X198098Y333503D01*
Y332833D01*
X198355Y332213D01*
X198829Y331739D01*
X199448Y331483D01*
X200119D01*
X200738Y331739D01*
X201045Y332046D01*
X204080D01*
X207717Y328409D01*
Y310825D01*
X207717Y310825D01*
X207802Y310396D01*
X208046Y310032D01*
X219502Y298575D01*
X219502Y298575D01*
X219866Y298332D01*
X220295Y298247D01*
X220295Y298247D01*
X225962D01*
X226226Y297925D01*
X226092Y297415D01*
X225797Y297293D01*
X225490Y296986D01*
X216783D01*
X205433Y308337D01*
Y325917D01*
X205739Y326224D01*
X205996Y326843D01*
Y327514D01*
X205739Y328133D01*
X205265Y328607D01*
X204646Y328864D01*
X203976D01*
X203357Y328607D01*
X202883Y328133D01*
X202626Y327514D01*
Y326843D01*
X202883Y326224D01*
X203189Y325917D01*
Y307873D01*
X203189Y307872D01*
X203275Y307443D01*
X203518Y307079D01*
X215526Y295072D01*
X215526Y295072D01*
X215890Y294828D01*
X216319Y294743D01*
X225490D01*
X225630Y294603D01*
Y293464D01*
X222022Y289856D01*
X221779Y289492D01*
X221693Y289063D01*
X221693Y289063D01*
Y282605D01*
X221693Y282605D01*
X221779Y282175D01*
X222022Y281812D01*
X232055Y271778D01*
Y271344D01*
X232312Y270725D01*
X232786Y270251D01*
X233405Y269994D01*
X234075D01*
X234695Y270251D01*
X235169Y270725D01*
X235425Y271344D01*
Y272015D01*
X235169Y272634D01*
X234695Y273108D01*
X234075Y273365D01*
X233641D01*
X224138Y282868D01*
X224175Y283021D01*
X224726Y283178D01*
X233206Y274697D01*
X233206Y274697D01*
X233570Y274454D01*
X233999Y274369D01*
X233999Y274369D01*
X235628D01*
X235935Y274062D01*
X236555Y273805D01*
X237225D01*
X237844Y274062D01*
X238318Y274536D01*
X238575Y275155D01*
Y275826D01*
X238318Y276445D01*
X237844Y276919D01*
X237225Y277176D01*
X236555D01*
X235935Y276919D01*
X235628Y276612D01*
X234463D01*
X226379Y284696D01*
Y287409D01*
X230695Y291725D01*
X230695Y291725D01*
X230938Y292089D01*
X231023Y292518D01*
X231023Y292518D01*
Y294800D01*
X231330Y295107D01*
X231587Y295726D01*
Y296397D01*
X231330Y297016D01*
X230856Y297490D01*
X230237Y297746D01*
X229803D01*
X227387Y300162D01*
X227024Y300405D01*
X226594Y300490D01*
X226594Y300490D01*
X220760D01*
X209960Y311290D01*
Y327617D01*
X210422Y327809D01*
X210619Y327611D01*
X211182Y327236D01*
X211845Y327104D01*
X224362D01*
Y325578D01*
X236392D01*
Y327104D01*
X239457D01*
Y323905D01*
X245030D01*
Y335541D01*
X239457D01*
Y330570D01*
X236392D01*
Y332096D01*
X224362D01*
Y330570D01*
X212563D01*
X205371Y337762D01*
X204976Y338026D01*
X204862Y338525D01*
X204877Y338634D01*
X204952Y338709D01*
X205209Y339329D01*
Y339999D01*
X204952Y340618D01*
X204478Y341092D01*
X203859Y341349D01*
X203425D01*
X194130Y350644D01*
X193766Y350887D01*
X193337Y350972D01*
D02*
G37*
G36*
X355124Y337500D02*
X354467D01*
X353860Y337248D01*
X353786Y337175D01*
X346710D01*
X346636Y337248D01*
X346029Y337500D01*
X345373D01*
X344766Y337248D01*
X344301Y336784D01*
X344050Y336177D01*
Y335521D01*
X344301Y334914D01*
X344766Y334450D01*
X345373Y334198D01*
X346029D01*
X346636Y334450D01*
X346710Y334524D01*
X353786D01*
X353860Y334450D01*
X354467Y334198D01*
X355124D01*
X355731Y334450D01*
X356195Y334914D01*
X356446Y335521D01*
Y336177D01*
X356195Y336784D01*
X355731Y337248D01*
X355124Y337500D01*
D02*
G37*
G36*
X94884Y335542D02*
X94214D01*
X93594Y335285D01*
X93120Y334811D01*
X92864Y334192D01*
Y333522D01*
X93120Y332902D01*
X93594Y332428D01*
X94214Y332172D01*
X94884D01*
X95503Y332428D01*
X95977Y332902D01*
X96234Y333522D01*
Y334192D01*
X95977Y334811D01*
X95503Y335285D01*
X94884Y335542D01*
D02*
G37*
G36*
X142540Y330916D02*
X141869D01*
X141250Y330659D01*
X141000Y330409D01*
X140089D01*
X139582Y330308D01*
X139152Y330021D01*
X136075Y326944D01*
X135971D01*
X135364Y326693D01*
X134900Y326229D01*
X134648Y325622D01*
Y324965D01*
X134900Y324359D01*
X135364Y323894D01*
X135971Y323643D01*
X136627D01*
X137234Y323894D01*
X137699Y324359D01*
X137950Y324965D01*
Y325070D01*
X140638Y327758D01*
X141356D01*
X141869Y327546D01*
X142540D01*
X143159Y327802D01*
X143633Y328276D01*
X143890Y328895D01*
Y329566D01*
X143633Y330185D01*
X143159Y330659D01*
X142540Y330916D01*
D02*
G37*
G36*
X358865Y335114D02*
X358209D01*
X357602Y334862D01*
X357137Y334398D01*
X356886Y333791D01*
Y333542D01*
X350599Y327255D01*
X349683D01*
X349507Y327431D01*
X348901Y327683D01*
X348244D01*
X347637Y327431D01*
X347173Y326967D01*
X346921Y326360D01*
Y325704D01*
X347173Y325097D01*
X347637Y324632D01*
X348244Y324381D01*
X348901D01*
X349507Y324632D01*
X349683Y324808D01*
X351106D01*
X351574Y324902D01*
X351971Y325167D01*
X356476Y329672D01*
X356938Y329480D01*
Y325068D01*
X357318D01*
X357525Y324568D01*
X357491Y324534D01*
X357126Y323903D01*
X356938Y323199D01*
Y322470D01*
X357126Y321767D01*
X357491Y321136D01*
X358006Y320621D01*
X358068Y320585D01*
Y320085D01*
X358006Y320049D01*
X357491Y319534D01*
X357126Y318903D01*
X356938Y318199D01*
Y317470D01*
X357126Y316767D01*
X357491Y316136D01*
X358006Y315621D01*
X358637Y315256D01*
X359341Y315068D01*
X360069D01*
X360773Y315256D01*
X361404Y315621D01*
X361919Y316136D01*
X361955Y316198D01*
X362455D01*
X362491Y316136D01*
X363006Y315621D01*
X363637Y315256D01*
X364340Y315068D01*
X365069D01*
X365773Y315256D01*
X366404Y315621D01*
X366919Y316136D01*
X367283Y316767D01*
X367472Y317470D01*
Y318199D01*
X367283Y318903D01*
X366919Y319534D01*
X366404Y320049D01*
X365773Y320413D01*
X365069Y320602D01*
X364340D01*
X363637Y320413D01*
X363006Y320049D01*
X362491Y319534D01*
X362455Y319471D01*
X361955D01*
X361919Y319534D01*
X361404Y320049D01*
X361342Y320085D01*
Y320585D01*
X361404Y320621D01*
X361919Y321136D01*
X362283Y321767D01*
X362472Y322470D01*
Y323199D01*
X362283Y323903D01*
X361919Y324534D01*
X361885Y324568D01*
X362092Y325068D01*
X362472D01*
Y325448D01*
X362972Y325655D01*
X363006Y325621D01*
X363637Y325256D01*
X364340Y325068D01*
X365069D01*
X365773Y325256D01*
X366404Y325621D01*
X366919Y326136D01*
X367283Y326767D01*
X367472Y327470D01*
Y328199D01*
X367283Y328903D01*
X366919Y329534D01*
X366404Y330049D01*
X365773Y330413D01*
X365069Y330602D01*
X364340D01*
X363637Y330413D01*
X363006Y330049D01*
X362972Y330015D01*
X362472Y330222D01*
Y330602D01*
X358059D01*
X357868Y331064D01*
X358616Y331812D01*
X358865D01*
X359472Y332064D01*
X359936Y332528D01*
X360188Y333135D01*
Y333791D01*
X359936Y334398D01*
X359472Y334862D01*
X358865Y335114D01*
D02*
G37*
G36*
X261999Y375797D02*
X244064D01*
Y368491D01*
X249510D01*
Y367740D01*
X239646D01*
X239372Y367685D01*
X239141Y367531D01*
X238986Y367299D01*
X238932Y367026D01*
Y359078D01*
X230197D01*
X229924Y359024D01*
X229692Y358869D01*
X229537Y358638D01*
X229483Y358365D01*
Y352459D01*
X229537Y352186D01*
X229677Y351977D01*
Y351956D01*
X229691D01*
X229692Y351954D01*
X229924Y351800D01*
X230197Y351745D01*
X238932D01*
Y343798D01*
X238986Y343525D01*
X239141Y343293D01*
X239372Y343138D01*
X239646Y343084D01*
X249510D01*
Y294696D01*
X242471Y287657D01*
X231378D01*
X231135Y287609D01*
X231043D01*
X230957Y287573D01*
X230715Y287525D01*
X230509Y287388D01*
X230423Y287352D01*
X230358Y287287D01*
X230152Y287149D01*
X230015Y286944D01*
X229949Y286878D01*
X229914Y286793D01*
X229777Y286587D01*
X229728Y286344D01*
X229693Y286259D01*
Y286166D01*
X229645Y285924D01*
X229693Y285681D01*
Y285589D01*
X229728Y285503D01*
X229777Y285260D01*
X229914Y285055D01*
X229949Y284969D01*
X230015Y284904D01*
X230152Y284698D01*
X230358Y284561D01*
X230423Y284495D01*
X230509Y284460D01*
X230715Y284322D01*
X230957Y284274D01*
X231043Y284239D01*
X231135D01*
X231378Y284190D01*
X243189D01*
X243852Y284322D01*
X244415Y284698D01*
X252469Y292752D01*
X252845Y293315D01*
X252976Y293978D01*
Y343084D01*
X267278D01*
Y342617D01*
X267333Y342343D01*
X267487Y342112D01*
X267490Y342110D01*
X267571Y341643D01*
X267571Y341501D01*
Y336897D01*
X268815D01*
Y334557D01*
X267571D01*
Y333509D01*
X263030D01*
Y335541D01*
X257457D01*
Y323905D01*
X263030D01*
Y330858D01*
X267571D01*
Y329810D01*
X272711D01*
Y334557D01*
X271466D01*
Y336897D01*
X272711D01*
Y341478D01*
X272711Y341643D01*
X272812Y342102D01*
X272828Y342112D01*
X272982Y342343D01*
X273037Y342617D01*
X273037Y347341D01*
X272982Y347614D01*
X272828Y347846D01*
X272596Y348000D01*
X272323Y348055D01*
X263588D01*
Y353777D01*
X303987D01*
X330826Y326938D01*
Y320569D01*
X330874Y320327D01*
Y320234D01*
X330909Y320149D01*
X330958Y319906D01*
X331095Y319700D01*
X331131Y319615D01*
X331196Y319549D01*
X331333Y319344D01*
X331539Y319206D01*
X331605Y319141D01*
X331690Y319105D01*
X331896Y318968D01*
X332138Y318920D01*
X332224Y318884D01*
X332316D01*
X332559Y318836D01*
X332802Y318884D01*
X332894D01*
X332980Y318920D01*
X333222Y318968D01*
X333428Y319105D01*
X333513Y319141D01*
X333579Y319206D01*
X333785Y319344D01*
X333922Y319549D01*
X333987Y319615D01*
X334023Y319700D01*
X334160Y319906D01*
X334209Y320149D01*
X334244Y320234D01*
Y320327D01*
X334292Y320569D01*
Y327656D01*
X334160Y328319D01*
X333785Y328882D01*
X305930Y356736D01*
X305368Y357112D01*
X304705Y357243D01*
X263588D01*
Y367026D01*
X263533Y367299D01*
X263379Y367531D01*
X263147Y367685D01*
X262874Y367740D01*
X252976D01*
Y368491D01*
X261999D01*
Y375797D01*
D02*
G37*
G36*
X181143Y313359D02*
X180486D01*
X179880Y313108D01*
X179595Y312824D01*
X171279D01*
X170994Y313108D01*
X170387Y313359D01*
X169731D01*
X169124Y313108D01*
X168659Y312644D01*
X168408Y312037D01*
Y311380D01*
X168597Y310924D01*
X168598D01*
X168777Y310656D01*
X169007Y310426D01*
X169277Y310245D01*
X169578Y310121D01*
X169896Y310058D01*
X170222D01*
X170540Y310121D01*
X170841Y310245D01*
X171111Y310426D01*
X171279Y310593D01*
X179595D01*
X179762Y310426D01*
X180033Y310245D01*
X180333Y310121D01*
X180652Y310058D01*
X180977D01*
X181296Y310121D01*
X181597Y310245D01*
X181867Y310426D01*
X182097Y310656D01*
X182276Y310924D01*
X182276D01*
X182466Y311380D01*
Y312037D01*
X182214Y312644D01*
X181750Y313108D01*
X181143Y313359D01*
D02*
G37*
G36*
X256122Y319262D02*
X255452D01*
X254833Y319006D01*
X254359Y318532D01*
X254102Y317912D01*
Y317242D01*
X254359Y316623D01*
X254462Y316520D01*
Y309068D01*
X254359Y308965D01*
X254102Y308346D01*
Y307676D01*
X254359Y307056D01*
X254833Y306582D01*
X255452Y306326D01*
X256122D01*
X256742Y306582D01*
X257216Y307056D01*
X257472Y307676D01*
Y308346D01*
X257216Y308965D01*
X257113Y309068D01*
Y316520D01*
X257216Y316623D01*
X257472Y317242D01*
Y317912D01*
X257216Y318532D01*
X256742Y319006D01*
X256122Y319262D01*
D02*
G37*
G36*
X214390Y325404D02*
X213720D01*
X213101Y325147D01*
X212627Y324673D01*
X212370Y324054D01*
Y323384D01*
X212627Y322764D01*
X212832Y322559D01*
Y311121D01*
X212925Y310652D01*
X213190Y310255D01*
X216307Y307138D01*
Y306848D01*
X216564Y306229D01*
X217038Y305755D01*
X217657Y305498D01*
X218327D01*
X218947Y305755D01*
X219421Y306229D01*
X219677Y306848D01*
Y306876D01*
X220336Y307535D01*
X232026D01*
X232055Y307506D01*
Y307478D01*
X232312Y306859D01*
X232786Y306385D01*
X233405Y306128D01*
X234075D01*
X234695Y306385D01*
X235169Y306859D01*
X235425Y307478D01*
Y308149D01*
X235169Y308768D01*
X234695Y309242D01*
X234075Y309498D01*
X233523D01*
X233398Y309623D01*
X233001Y309889D01*
X232533Y309982D01*
X219829D01*
X219361Y309889D01*
X218964Y309623D01*
X218209Y308869D01*
X218037D01*
X215279Y311627D01*
Y322559D01*
X215484Y322764D01*
X215740Y323384D01*
Y324054D01*
X215484Y324673D01*
X215010Y325147D01*
X214390Y325404D01*
D02*
G37*
G36*
X347724Y315476D02*
X347067D01*
X346460Y315225D01*
X345996Y314760D01*
X345744Y314153D01*
Y313497D01*
X345996Y312890D01*
X346277Y312609D01*
Y307800D01*
X346003Y307526D01*
X345751Y306919D01*
Y306262D01*
X346003Y305656D01*
X346467Y305191D01*
X347074Y304940D01*
X347730D01*
X348337Y305191D01*
X348802Y305656D01*
X349053Y306262D01*
Y306919D01*
X348802Y307526D01*
X348520Y307807D01*
Y312615D01*
X348795Y312890D01*
X349046Y313497D01*
Y314153D01*
X348795Y314760D01*
X348330Y315225D01*
X347724Y315476D01*
D02*
G37*
G36*
X169694Y309031D02*
X169440D01*
X169190Y308981D01*
X168955Y308884D01*
X168744Y308743D01*
X168564Y308563D01*
X168422Y308351D01*
X168325Y308116D01*
X168275Y307867D01*
Y307613D01*
X168325Y307363D01*
X168422Y307128D01*
X168564Y306917D01*
X168744Y306737D01*
X168955Y306595D01*
X169190Y306498D01*
X169411Y306454D01*
X169416Y306448D01*
X172226Y303639D01*
X172035Y303177D01*
X171619D01*
X171267Y303107D01*
X170969Y302907D01*
X170921D01*
X170623Y303107D01*
X170271Y303177D01*
X169060D01*
X168708Y303107D01*
X168410Y302907D01*
X168362D01*
X168063Y303107D01*
X167711Y303177D01*
X166501D01*
X166149Y303107D01*
X165851Y302907D01*
X165652Y302609D01*
X165582Y302257D01*
Y296480D01*
X165652Y296128D01*
X165851Y295830D01*
X166149Y295630D01*
X166501Y295560D01*
X167711D01*
X168063Y295630D01*
X168362Y295830D01*
X168410D01*
X168708Y295630D01*
X169060Y295560D01*
X170271D01*
X170623Y295630D01*
X170921Y295830D01*
X170969D01*
X171267Y295630D01*
X171619Y295560D01*
X172830D01*
X173181Y295630D01*
X173480Y295830D01*
X173528D01*
X173826Y295630D01*
X174178Y295560D01*
X175389D01*
X175741Y295630D01*
X176039Y295830D01*
X176238Y296128D01*
X176308Y296480D01*
Y302257D01*
X176238Y302609D01*
X176039Y302907D01*
X175741Y303107D01*
X175389Y303177D01*
X175279D01*
X175233Y303405D01*
X175012Y303736D01*
X173140Y305609D01*
X170858Y307890D01*
X170852Y307896D01*
X170809Y308116D01*
X170711Y308351D01*
X170570Y308563D01*
X170390Y308743D01*
X170179Y308884D01*
X169943Y308981D01*
X169694Y309031D01*
D02*
G37*
G36*
X273052Y309696D02*
X272381D01*
X271762Y309439D01*
X271288Y308965D01*
X271031Y308346D01*
Y307676D01*
X271288Y307056D01*
X271762Y306582D01*
X272381Y306326D01*
X272527D01*
X276780Y302073D01*
X277210Y301786D01*
X277717Y301685D01*
X280320D01*
X280423Y301582D01*
X281043Y301325D01*
X281713D01*
X282332Y301582D01*
X282806Y302056D01*
X283063Y302675D01*
Y303345D01*
X282806Y303965D01*
X282332Y304439D01*
X281713Y304695D01*
X281043D01*
X280423Y304439D01*
X280320Y304336D01*
X278266D01*
X274401Y308200D01*
Y308346D01*
X274145Y308965D01*
X273671Y309439D01*
X273052Y309696D01*
D02*
G37*
G36*
X160498Y317260D02*
X159827D01*
X159208Y317004D01*
X158734Y316530D01*
X158478Y315911D01*
Y315240D01*
X158734Y314621D01*
X159041Y314314D01*
Y300069D01*
X159041Y300069D01*
X159126Y299639D01*
X159370Y299275D01*
X160271Y298374D01*
Y297872D01*
X160527Y297253D01*
X161001Y296779D01*
X161621Y296522D01*
X162291D01*
X162910Y296779D01*
X163384Y297253D01*
X163576Y297716D01*
X163641Y298041D01*
Y298373D01*
X163576Y298699D01*
X163384Y299162D01*
X162910Y299636D01*
X162291Y299892D01*
X161925D01*
X161284Y300533D01*
Y314314D01*
X161591Y314621D01*
X161848Y315240D01*
Y315911D01*
X161591Y316530D01*
X161117Y317004D01*
X160498Y317260D01*
D02*
G37*
G36*
X145273Y326585D02*
X144603D01*
X143983Y326328D01*
X143509Y325854D01*
X143253Y325235D01*
Y325089D01*
X139422Y321259D01*
X139135Y320829D01*
X139034Y320322D01*
Y308520D01*
X139135Y308013D01*
X139422Y307583D01*
X139501Y307504D01*
Y297071D01*
X139427Y296996D01*
X139176Y296390D01*
Y295733D01*
X139427Y295126D01*
X139892Y294662D01*
X140498Y294411D01*
X141155D01*
X141762Y294662D01*
X142226Y295126D01*
X142478Y295733D01*
Y296390D01*
X142226Y296996D01*
X142152Y297071D01*
Y308053D01*
X142051Y308560D01*
X141764Y308990D01*
X141685Y309069D01*
Y319773D01*
X145127Y323215D01*
X145273D01*
X145892Y323471D01*
X146366Y323945D01*
X146623Y324565D01*
Y325235D01*
X146366Y325854D01*
X145892Y326328D01*
X145273Y326585D01*
D02*
G37*
G36*
X131313Y320895D02*
X130656D01*
X130049Y320643D01*
X129585Y320179D01*
X129333Y319572D01*
Y318916D01*
X129585Y318309D01*
X130049Y317845D01*
X130656Y317593D01*
X130761D01*
X134179Y314175D01*
Y297071D01*
X134105Y296996D01*
X133853Y296390D01*
Y295733D01*
X134105Y295126D01*
X134569Y294662D01*
X135176Y294411D01*
X135833D01*
X136439Y294662D01*
X136904Y295126D01*
X137155Y295733D01*
Y296390D01*
X136904Y296996D01*
X136830Y297071D01*
Y314724D01*
X136830Y314724D01*
X136729Y315231D01*
X136442Y315661D01*
X132635Y319468D01*
Y319572D01*
X132384Y320179D01*
X131919Y320643D01*
X131313Y320895D01*
D02*
G37*
G36*
X155532Y317136D02*
X154862D01*
X154242Y316880D01*
X153768Y316406D01*
X153512Y315786D01*
Y315116D01*
X153768Y314497D01*
X154075Y314190D01*
Y296790D01*
X154075Y296790D01*
X154161Y296361D01*
X154404Y295997D01*
X155579Y294822D01*
Y294388D01*
X155835Y293768D01*
X156309Y293294D01*
X156929Y293038D01*
X157599D01*
X158218Y293294D01*
X158692Y293768D01*
X158949Y294388D01*
Y295058D01*
X158692Y295677D01*
X158218Y296151D01*
X157599Y296408D01*
X157165D01*
X156318Y297254D01*
Y314190D01*
X156625Y314497D01*
X156882Y315116D01*
Y315786D01*
X156625Y316406D01*
X156151Y316880D01*
X155532Y317136D01*
D02*
G37*
G36*
X127101Y309813D02*
X126587D01*
X126113Y309617D01*
X125749Y309254D01*
X125553Y308779D01*
Y308265D01*
X125749Y307791D01*
X125825Y307715D01*
Y293562D01*
X125902Y293172D01*
X126123Y292841D01*
X127952Y291013D01*
X128282Y290791D01*
X128565Y290735D01*
X128755Y290545D01*
X129230Y290348D01*
X129744D01*
X130218Y290545D01*
X130582Y290908D01*
X130778Y291383D01*
Y291897D01*
X130582Y292371D01*
X130218Y292735D01*
X129744Y292931D01*
X129230D01*
X129009Y292839D01*
X127864Y293984D01*
Y307715D01*
X127939Y307791D01*
X128136Y308265D01*
Y308779D01*
X127939Y309254D01*
X127576Y309617D01*
X127101Y309813D01*
D02*
G37*
G36*
X127042Y317542D02*
X126385D01*
X125778Y317291D01*
X125314Y316827D01*
X125063Y316220D01*
Y315563D01*
X125314Y314956D01*
X125778Y314492D01*
X126385Y314241D01*
X126787D01*
X129994Y311034D01*
Y295423D01*
X129994Y295423D01*
X130079Y294996D01*
X130320Y294634D01*
X133853Y291101D01*
Y290699D01*
X134105Y290092D01*
X134569Y289628D01*
X135176Y289376D01*
X135833D01*
X136439Y289628D01*
X136904Y290092D01*
X137155Y290699D01*
Y291355D01*
X136904Y291962D01*
X136439Y292426D01*
X135833Y292678D01*
X135431D01*
X132224Y295884D01*
Y311496D01*
X132139Y311923D01*
X131897Y312284D01*
X131897Y312284D01*
X128364Y315818D01*
Y316220D01*
X128113Y316827D01*
X127648Y317291D01*
X127042Y317542D01*
D02*
G37*
G36*
X87163Y312535D02*
X86506D01*
X85899Y312284D01*
X85435Y311819D01*
X85184Y311212D01*
Y310556D01*
X85223Y310460D01*
X85211Y310397D01*
Y290919D01*
X85137Y290845D01*
X84886Y290239D01*
Y289582D01*
X85137Y288975D01*
X85601Y288511D01*
X86208Y288259D01*
X86865D01*
X87471Y288511D01*
X87936Y288975D01*
X88187Y289582D01*
Y290239D01*
X87936Y290845D01*
X87862Y290919D01*
Y309577D01*
X88234Y309949D01*
X88485Y310556D01*
Y311212D01*
X88234Y311819D01*
X87770Y312284D01*
X87163Y312535D01*
D02*
G37*
G36*
X281713Y310047D02*
X281043D01*
X280423Y309791D01*
X279949Y309317D01*
X279693Y308698D01*
Y308027D01*
X279949Y307408D01*
X280423Y306934D01*
X281043Y306677D01*
X281713D01*
X282332Y306934D01*
X282421Y307022D01*
X284777Y304666D01*
Y292241D01*
X283944Y291408D01*
X283799D01*
X283179Y291151D01*
X282705Y290677D01*
X282449Y290058D01*
Y289388D01*
X282705Y288768D01*
X283179Y288294D01*
X283799Y288038D01*
X284469D01*
X285088Y288294D01*
X285562Y288768D01*
X285819Y289388D01*
Y289534D01*
X287040Y290755D01*
X287327Y291185D01*
X287428Y291692D01*
Y305215D01*
X287327Y305722D01*
X287040Y306152D01*
X283892Y309300D01*
X283462Y309587D01*
X282955Y309688D01*
X282435D01*
X282332Y309791D01*
X281713Y310047D01*
D02*
G37*
G36*
X93680Y304438D02*
X93024D01*
X92417Y304187D01*
X91952Y303722D01*
X91701Y303115D01*
Y302459D01*
X91952Y301852D01*
X92026Y301778D01*
Y288614D01*
X91720Y288487D01*
X91255Y288022D01*
X91004Y287416D01*
Y286759D01*
X91255Y286152D01*
X91720Y285688D01*
X92326Y285437D01*
X92983D01*
X93590Y285688D01*
X94054Y286152D01*
X94305Y286759D01*
Y287061D01*
X94577Y287467D01*
X94677Y287974D01*
Y301778D01*
X94751Y301852D01*
X95003Y302459D01*
Y303115D01*
X94751Y303722D01*
X94287Y304187D01*
X93680Y304438D01*
D02*
G37*
G36*
X120983Y326445D02*
X120326D01*
X119719Y326194D01*
X119255Y325730D01*
X119004Y325123D01*
Y324466D01*
X119255Y323859D01*
X119431Y323683D01*
Y290500D01*
X119524Y290032D01*
X119789Y289635D01*
X123478Y285946D01*
Y285697D01*
X123730Y285090D01*
X124194Y284626D01*
X124801Y284374D01*
X125458D01*
X126064Y284626D01*
X126529Y285090D01*
X126780Y285697D01*
Y286353D01*
X126529Y286960D01*
X126064Y287425D01*
X125458Y287676D01*
X125209D01*
X121878Y291007D01*
Y323683D01*
X122054Y323859D01*
X122305Y324466D01*
Y325123D01*
X122054Y325730D01*
X121590Y326194D01*
X120983Y326445D01*
D02*
G37*
G36*
X178894Y294169D02*
X178238D01*
X177631Y293918D01*
X177166Y293453D01*
X176915Y292846D01*
Y292598D01*
X173800Y289482D01*
X173535Y289085D01*
X173442Y288617D01*
Y287202D01*
X173098Y286859D01*
X172847Y286252D01*
Y285595D01*
X173098Y284988D01*
X173563Y284524D01*
X174169Y284273D01*
X174826D01*
X175433Y284524D01*
X175897Y284988D01*
X176148Y285595D01*
Y286252D01*
X175897Y286859D01*
X175889Y286867D01*
Y288110D01*
X178646Y290867D01*
X178894D01*
X179501Y291119D01*
X179965Y291583D01*
X180217Y292190D01*
Y292846D01*
X179965Y293453D01*
X179501Y293918D01*
X178894Y294169D01*
D02*
G37*
G36*
X268721Y309696D02*
X268051D01*
X267431Y309439D01*
X266957Y308965D01*
X266701Y308346D01*
Y307676D01*
X266957Y307056D01*
X267060Y306953D01*
Y303796D01*
X250873Y287609D01*
X250728D01*
X250109Y287352D01*
X249635Y286878D01*
X249378Y286259D01*
Y285589D01*
X249635Y284969D01*
X250109Y284495D01*
X250728Y284239D01*
X251398D01*
X252017Y284495D01*
X252491Y284969D01*
X252748Y285589D01*
Y285734D01*
X269323Y302309D01*
X269610Y302739D01*
X269711Y303246D01*
Y306953D01*
X269814Y307056D01*
X270071Y307676D01*
Y308346D01*
X269814Y308965D01*
X269340Y309439D01*
X268721Y309696D01*
D02*
G37*
G36*
X360795Y289676D02*
X359678D01*
X358598Y289387D01*
X357631Y288829D01*
X356841Y288038D01*
X356282Y287071D01*
X355993Y285992D01*
Y284874D01*
X356282Y283795D01*
X356841Y282828D01*
X357631Y282038D01*
X358598Y281479D01*
X359678Y281190D01*
X360795D01*
X361874Y281479D01*
X362842Y282038D01*
X363632Y282828D01*
X364190Y283795D01*
X364479Y284874D01*
Y285992D01*
X364190Y287071D01*
X363632Y288038D01*
X362842Y288829D01*
X361874Y289387D01*
X360795Y289676D01*
D02*
G37*
G36*
X99890Y299057D02*
X99233D01*
X98626Y298805D01*
X98162Y298341D01*
X97910Y297734D01*
Y297440D01*
X97096Y296626D01*
X96809Y296196D01*
X96708Y295689D01*
Y283241D01*
X96634Y283167D01*
X96383Y282560D01*
Y281904D01*
X96634Y281297D01*
X97098Y280832D01*
X97705Y280581D01*
X98362D01*
X98968Y280832D01*
X99433Y281297D01*
X99684Y281904D01*
Y282560D01*
X99433Y283167D01*
X99359Y283241D01*
Y295140D01*
X100034Y295815D01*
X100496Y296006D01*
X100961Y296471D01*
X101212Y297077D01*
Y297734D01*
X100961Y298341D01*
X100496Y298805D01*
X99890Y299057D01*
D02*
G37*
G36*
X93680Y279171D02*
X93024D01*
X92417Y278920D01*
X92235Y278738D01*
X85380D01*
X84855Y278955D01*
X84198D01*
X83591Y278704D01*
X83127Y278239D01*
X82876Y277633D01*
Y276976D01*
X83127Y276369D01*
X83591Y275905D01*
X84198Y275654D01*
X84855D01*
X85461Y275905D01*
X85643Y276087D01*
X92499D01*
X93024Y275869D01*
X93680D01*
X94287Y276121D01*
X94751Y276585D01*
X95003Y277192D01*
Y277848D01*
X94751Y278455D01*
X94287Y278920D01*
X93680Y279171D01*
D02*
G37*
G36*
X109509Y291698D02*
X108852D01*
X108245Y291447D01*
X107781Y290982D01*
X107529Y290376D01*
Y289719D01*
X107781Y289112D01*
X108245Y288648D01*
X108285Y288631D01*
Y279903D01*
X108029Y279648D01*
X107778Y279041D01*
Y278384D01*
X108029Y277778D01*
X108494Y277313D01*
X109101Y277062D01*
X109757D01*
X110364Y277313D01*
X110828Y277778D01*
X111080Y278384D01*
Y279041D01*
X110828Y279648D01*
X110364Y280112D01*
X110324Y280129D01*
Y288857D01*
X110580Y289112D01*
X110831Y289719D01*
Y290376D01*
X110580Y290982D01*
X110115Y291447D01*
X109509Y291698D01*
D02*
G37*
G36*
X74503Y282558D02*
X73764D01*
X73050Y282367D01*
X72410Y281998D01*
X71888Y281475D01*
X71518Y280835D01*
X71327Y280122D01*
Y279383D01*
X71518Y278669D01*
X71888Y278029D01*
X72367Y277550D01*
X72418Y277277D01*
Y277228D01*
X72367Y276954D01*
X71931Y276519D01*
X71658Y276468D01*
X71609D01*
X71335Y276519D01*
X70856Y276998D01*
X70216Y277367D01*
X69503Y277558D01*
X68764D01*
X68050Y277367D01*
X67410Y276998D01*
X66931Y276519D01*
X66658Y276468D01*
X66609D01*
X66335Y276519D01*
X65856Y276998D01*
X65216Y277367D01*
X64503Y277558D01*
X63764D01*
X63050Y277367D01*
X62410Y276998D01*
X61931Y276519D01*
X61658Y276468D01*
X61609D01*
X61335Y276519D01*
X60856Y276998D01*
X60216Y277367D01*
X59503Y277558D01*
X58764D01*
X58050Y277367D01*
X57410Y276998D01*
X56931Y276519D01*
X56658Y276468D01*
X56609D01*
X56335Y276519D01*
X55856Y276998D01*
X55216Y277367D01*
X54503Y277558D01*
X53764D01*
X53050Y277367D01*
X52410Y276998D01*
X51888Y276475D01*
X51518Y275835D01*
X51327Y275122D01*
Y274383D01*
X51518Y273669D01*
X51888Y273029D01*
X52410Y272507D01*
X53050Y272137D01*
X53764Y271946D01*
X54503D01*
X55216Y272137D01*
X55856Y272507D01*
X56335Y272986D01*
X56609Y273037D01*
X56658D01*
X56931Y272986D01*
X57410Y272507D01*
X58050Y272137D01*
X58764Y271946D01*
X59503D01*
X60216Y272137D01*
X60856Y272507D01*
X61335Y272986D01*
X61609Y273037D01*
X61658D01*
X61931Y272986D01*
X62410Y272507D01*
X63050Y272137D01*
X63764Y271946D01*
X64503D01*
X65216Y272137D01*
X65856Y272507D01*
X66335Y272986D01*
X66609Y273037D01*
X66658D01*
X66931Y272986D01*
X67410Y272507D01*
X68050Y272137D01*
X68764Y271946D01*
X69503D01*
X70216Y272137D01*
X70856Y272507D01*
X71335Y272986D01*
X71609Y273037D01*
X71658D01*
X71931Y272986D01*
X72410Y272507D01*
X73050Y272137D01*
X73764Y271946D01*
X74503D01*
X75216Y272137D01*
X75856Y272507D01*
X76379Y273029D01*
X76748Y273669D01*
X76939Y274383D01*
Y275122D01*
X76748Y275835D01*
X76379Y276475D01*
X75900Y276954D01*
X75849Y277228D01*
Y277277D01*
X75900Y277550D01*
X76379Y278029D01*
X76748Y278669D01*
X76939Y279383D01*
Y280122D01*
X76748Y280835D01*
X76379Y281475D01*
X75856Y281998D01*
X75216Y282367D01*
X74503Y282558D01*
D02*
G37*
G36*
X114343Y308440D02*
X113686D01*
X113079Y308189D01*
X112615Y307725D01*
X112363Y307118D01*
Y306461D01*
X112615Y305855D01*
X113079Y305390D01*
X113686Y305139D01*
X113935D01*
X116254Y302820D01*
Y279656D01*
X116347Y279188D01*
X116612Y278791D01*
X117963Y277441D01*
Y277192D01*
X118214Y276585D01*
X118678Y276121D01*
X119285Y275869D01*
X119942D01*
X120548Y276121D01*
X121013Y276585D01*
X121264Y277192D01*
Y277848D01*
X121013Y278455D01*
X120548Y278920D01*
X119942Y279171D01*
X119693D01*
X118701Y280163D01*
Y303327D01*
X118608Y303795D01*
X118342Y304192D01*
X115665Y306869D01*
Y307118D01*
X115414Y307725D01*
X114949Y308189D01*
X114343Y308440D01*
D02*
G37*
G36*
X103753Y294060D02*
X103097D01*
X102490Y293809D01*
X102026Y293344D01*
X101774Y292738D01*
Y292081D01*
X102026Y291474D01*
X102100Y291400D01*
Y280679D01*
X100375Y278955D01*
X100271D01*
X99664Y278704D01*
X99200Y278239D01*
X98949Y277633D01*
Y276976D01*
X99200Y276369D01*
X99664Y275905D01*
X100271Y275654D01*
X100928D01*
X101534Y275905D01*
X101999Y276369D01*
X102250Y276976D01*
Y277081D01*
X104362Y279193D01*
X104650Y279623D01*
X104751Y280130D01*
Y291400D01*
X104825Y291474D01*
X105076Y292081D01*
Y292738D01*
X104825Y293344D01*
X104360Y293809D01*
X103753Y294060D01*
D02*
G37*
G36*
X114343D02*
X113686D01*
X113079Y293809D01*
X112615Y293344D01*
X112363Y292738D01*
Y292081D01*
X112615Y291474D01*
X112995Y291094D01*
Y276250D01*
X112615Y275870D01*
X112363Y275263D01*
Y274607D01*
X112615Y274000D01*
X113079Y273535D01*
X113686Y273284D01*
X114343D01*
X114949Y273535D01*
X115414Y274000D01*
X115665Y274607D01*
Y275263D01*
X115414Y275870D01*
X115034Y276250D01*
Y291094D01*
X115414Y291474D01*
X115665Y292081D01*
Y292738D01*
X115414Y293344D01*
X114949Y293809D01*
X114343Y294060D01*
D02*
G37*
G36*
X360795Y279834D02*
X359678D01*
X358598Y279545D01*
X357631Y278986D01*
X356841Y278196D01*
X356282Y277228D01*
X355993Y276149D01*
Y275032D01*
X356282Y273953D01*
X356841Y272985D01*
X357631Y272195D01*
X358598Y271636D01*
X359678Y271347D01*
X360795D01*
X361874Y271636D01*
X362842Y272195D01*
X363632Y272985D01*
X364190Y273953D01*
X364479Y275032D01*
Y276149D01*
X364190Y277228D01*
X363632Y278196D01*
X362842Y278986D01*
X361874Y279545D01*
X360795Y279834D01*
D02*
G37*
G36*
X350952D02*
X349835D01*
X348756Y279545D01*
X347788Y278986D01*
X346998Y278196D01*
X346440Y277228D01*
X346150Y276149D01*
Y275032D01*
X346440Y273953D01*
X346998Y272985D01*
X347788Y272195D01*
X348756Y271636D01*
X349835Y271347D01*
X350952D01*
X352032Y271636D01*
X352999Y272195D01*
X353789Y272985D01*
X354348Y273953D01*
X354637Y275032D01*
Y276149D01*
X354348Y277228D01*
X353789Y278196D01*
X352999Y278986D01*
X352032Y279545D01*
X350952Y279834D01*
D02*
G37*
G36*
X84304Y269775D02*
X83647D01*
X83041Y269523D01*
X82967Y269449D01*
X69697D01*
X69623Y269523D01*
X69016Y269775D01*
X68359D01*
X67752Y269523D01*
X67288Y269059D01*
X67037Y268452D01*
Y267795D01*
X67288Y267189D01*
X67752Y266724D01*
X68359Y266473D01*
X69016D01*
X69623Y266724D01*
X69697Y266798D01*
X82967D01*
X83041Y266724D01*
X83647Y266473D01*
X84304D01*
X84911Y266724D01*
X85375Y267189D01*
X85627Y267795D01*
Y268452D01*
X85375Y269059D01*
X84911Y269523D01*
X84304Y269775D01*
D02*
G37*
G36*
X130060Y283347D02*
X129546D01*
X129072Y283150D01*
X128708Y282787D01*
X128512Y282312D01*
Y281805D01*
X128467Y281582D01*
Y270921D01*
X128392Y270846D01*
X128196Y270371D01*
Y269858D01*
X128392Y269383D01*
X128755Y269020D01*
X129230Y268823D01*
X129744D01*
X130218Y269020D01*
X130582Y269383D01*
X130778Y269858D01*
Y270371D01*
X130582Y270846D01*
X130507Y270921D01*
Y280949D01*
X130535Y280960D01*
X130898Y281324D01*
X131095Y281798D01*
Y282312D01*
X130898Y282787D01*
X130535Y283150D01*
X130060Y283347D01*
D02*
G37*
G36*
X216359Y277520D02*
X215688D01*
X215069Y277263D01*
X214595Y276789D01*
X214338Y276170D01*
Y275500D01*
X214595Y274881D01*
X215069Y274407D01*
X215688Y274150D01*
X215834D01*
X219282Y270702D01*
Y269675D01*
X219070Y269162D01*
Y268491D01*
X219326Y267872D01*
X219800Y267398D01*
X220420Y267141D01*
X221090D01*
X221709Y267398D01*
X222183Y267872D01*
X222440Y268491D01*
Y269162D01*
X222183Y269781D01*
X221933Y270031D01*
Y271251D01*
X221832Y271758D01*
X221545Y272188D01*
X217709Y276025D01*
Y276170D01*
X217452Y276789D01*
X216978Y277263D01*
X216359Y277520D01*
D02*
G37*
G36*
X135643Y279171D02*
X134987D01*
X134380Y278920D01*
X133915Y278455D01*
X133664Y277848D01*
Y277192D01*
X133915Y276585D01*
X134307Y276193D01*
Y264867D01*
X134130Y264690D01*
X133879Y264084D01*
Y263427D01*
X134130Y262820D01*
X134595Y262356D01*
X135202Y262105D01*
X135858D01*
X136465Y262356D01*
X136929Y262820D01*
X137181Y263427D01*
Y264084D01*
X136929Y264690D01*
X136538Y265082D01*
Y276408D01*
X136714Y276585D01*
X136966Y277192D01*
Y277848D01*
X136714Y278455D01*
X136250Y278920D01*
X135643Y279171D01*
D02*
G37*
G36*
X360795Y269991D02*
X359678D01*
X358598Y269702D01*
X357631Y269144D01*
X356841Y268354D01*
X356282Y267386D01*
X355993Y266307D01*
Y265189D01*
X356282Y264110D01*
X356841Y263143D01*
X357631Y262352D01*
X358598Y261794D01*
X359678Y261505D01*
X360795D01*
X361874Y261794D01*
X362842Y262352D01*
X363632Y263143D01*
X364190Y264110D01*
X364479Y265189D01*
Y266307D01*
X364190Y267386D01*
X363632Y268354D01*
X362842Y269144D01*
X361874Y269702D01*
X360795Y269991D01*
D02*
G37*
G36*
X350952D02*
X349835D01*
X348756Y269702D01*
X347788Y269144D01*
X346998Y268354D01*
X346440Y267386D01*
X346150Y266307D01*
Y265189D01*
X346440Y264110D01*
X346998Y263143D01*
X347788Y262352D01*
X348756Y261794D01*
X349835Y261505D01*
X350952D01*
X352032Y261794D01*
X352999Y262352D01*
X353789Y263143D01*
X354348Y264110D01*
X354637Y265189D01*
Y266307D01*
X354348Y267386D01*
X353789Y268354D01*
X352999Y269144D01*
X352032Y269702D01*
X350952Y269991D01*
D02*
G37*
G36*
X39976Y258919D02*
X39320D01*
X38713Y258668D01*
X38582Y258537D01*
X38548D01*
X38488Y258577D01*
X38098Y258654D01*
X37498D01*
X37108Y258577D01*
X36777Y258356D01*
X29616Y251195D01*
X29079D01*
X28472Y250943D01*
X28008Y250479D01*
X27756Y249872D01*
Y249216D01*
X28008Y248609D01*
X28472Y248144D01*
X29079Y247893D01*
X29736D01*
X30342Y248144D01*
X30807Y248609D01*
X31058Y249216D01*
Y249753D01*
X37715Y256410D01*
X38249Y256333D01*
X38713Y255869D01*
X39320Y255618D01*
X39976D01*
X40583Y255869D01*
X41047Y256333D01*
X41299Y256940D01*
Y257597D01*
X41047Y258204D01*
X40583Y258668D01*
X39976Y258919D01*
D02*
G37*
G36*
X78980Y262368D02*
X78324D01*
X77717Y262117D01*
X77252Y261652D01*
X77001Y261046D01*
Y260508D01*
X74781Y258288D01*
X69759D01*
X69379Y258668D01*
X68773Y258919D01*
X68116D01*
X67509Y258668D01*
X67045Y258204D01*
X66794Y257597D01*
Y256940D01*
X67045Y256333D01*
X67509Y255869D01*
X68116Y255618D01*
X68773D01*
X69379Y255869D01*
X69759Y256249D01*
X75203D01*
X75594Y256327D01*
X75924Y256548D01*
X78443Y259066D01*
X78980D01*
X79587Y259318D01*
X80051Y259782D01*
X80303Y260389D01*
Y261046D01*
X80051Y261652D01*
X79587Y262117D01*
X78980Y262368D01*
D02*
G37*
G36*
X360795Y260149D02*
X359678D01*
X358598Y259860D01*
X357631Y259301D01*
X356841Y258511D01*
X356282Y257543D01*
X355993Y256464D01*
Y255347D01*
X356282Y254268D01*
X356841Y253300D01*
X357631Y252510D01*
X358598Y251951D01*
X359678Y251662D01*
X360795D01*
X361874Y251951D01*
X362842Y252510D01*
X363632Y253300D01*
X364190Y254268D01*
X364479Y255347D01*
Y256464D01*
X364190Y257543D01*
X363632Y258511D01*
X362842Y259301D01*
X361874Y259860D01*
X360795Y260149D01*
D02*
G37*
G36*
X354637D02*
X346150D01*
Y251662D01*
X354637D01*
Y260149D01*
D02*
G37*
G36*
X85360Y252160D02*
X84703D01*
X84096Y251908D01*
X83683Y251495D01*
X77383D01*
X77037Y251841D01*
X76430Y252092D01*
X75773D01*
X75167Y251841D01*
X74702Y251376D01*
X74451Y250770D01*
Y250113D01*
X74702Y249506D01*
X75167Y249042D01*
X75773Y248791D01*
X76430D01*
X77037Y249042D01*
X77451Y249456D01*
X83750D01*
X84096Y249110D01*
X84703Y248858D01*
X85360D01*
X85967Y249110D01*
X86431Y249574D01*
X86682Y250181D01*
Y250837D01*
X86431Y251444D01*
X85967Y251908D01*
X85360Y252160D01*
D02*
G37*
G36*
X85205Y244367D02*
X84549D01*
X83942Y244115D01*
X83658Y243831D01*
X77858D01*
X77574Y244115D01*
X76967Y244367D01*
X76310D01*
X75704Y244115D01*
X75239Y243651D01*
X74988Y243044D01*
Y242388D01*
X75239Y241781D01*
X75704Y241316D01*
X76310Y241065D01*
X76967D01*
X77574Y241316D01*
X77858Y241601D01*
X83658D01*
X83942Y241316D01*
X84549Y241065D01*
X85205D01*
X85812Y241316D01*
X86277Y241781D01*
X86528Y242388D01*
Y243044D01*
X86277Y243651D01*
X85812Y244115D01*
X85205Y244367D01*
D02*
G37*
G36*
X42461Y253677D02*
X41804D01*
X41197Y253426D01*
X40733Y252961D01*
X40481Y252355D01*
Y251748D01*
X34409Y245677D01*
X33941D01*
X33334Y245425D01*
X32870Y244961D01*
X32619Y244354D01*
Y243697D01*
X32870Y243091D01*
X33334Y242626D01*
X33941Y242375D01*
X34598D01*
X35205Y242626D01*
X35669Y243091D01*
X35920Y243697D01*
Y244304D01*
X41992Y250376D01*
X42461D01*
X43067Y250627D01*
X43532Y251091D01*
X43783Y251698D01*
Y252355D01*
X43532Y252961D01*
X43067Y253426D01*
X42461Y253677D01*
D02*
G37*
G36*
X114343Y233972D02*
X113686D01*
X113079Y233721D01*
X112869Y233511D01*
X107849D01*
X107707Y233653D01*
X107100Y233904D01*
X106443D01*
X105836Y233653D01*
X105372Y233188D01*
X105121Y232582D01*
Y231925D01*
X105372Y231318D01*
X105836Y230854D01*
X106443Y230602D01*
X107100D01*
X107707Y230854D01*
X107917Y231064D01*
X112937D01*
X113079Y230922D01*
X113686Y230670D01*
X114343D01*
X114949Y230922D01*
X115414Y231386D01*
X115665Y231993D01*
Y232649D01*
X115414Y233256D01*
X114949Y233721D01*
X114343Y233972D01*
D02*
G37*
G36*
X144028Y232078D02*
X143515D01*
X143040Y231881D01*
X142677Y231518D01*
X142480Y231043D01*
Y230530D01*
X142677Y230055D01*
X142803Y229929D01*
Y224666D01*
X142779Y224642D01*
X142583Y224168D01*
Y223654D01*
X142779Y223179D01*
X143143Y222816D01*
X143617Y222620D01*
X144131D01*
X144606Y222816D01*
X144969Y223179D01*
X145165Y223654D01*
Y224168D01*
X144969Y224642D01*
X144842Y224769D01*
Y230031D01*
X144866Y230055D01*
X145063Y230530D01*
Y231043D01*
X144866Y231518D01*
X144503Y231881D01*
X144028Y232078D01*
D02*
G37*
G36*
X194195Y222386D02*
X193539D01*
X192932Y222134D01*
X192468Y221670D01*
X192216Y221063D01*
Y220407D01*
X192468Y219800D01*
X192752Y219516D01*
Y216191D01*
X192468Y215907D01*
X192216Y215300D01*
Y214643D01*
X192468Y214036D01*
X192932Y213572D01*
X193539Y213321D01*
X194195D01*
X194802Y213572D01*
X195266Y214036D01*
X195518Y214643D01*
Y215300D01*
X195266Y215907D01*
X194982Y216191D01*
Y219516D01*
X195266Y219800D01*
X195518Y220407D01*
Y221063D01*
X195266Y221670D01*
X194802Y222134D01*
X194195Y222386D01*
D02*
G37*
G36*
X206506Y195363D02*
X205849D01*
X205243Y195111D01*
X205071Y194939D01*
X190534D01*
X190362Y195111D01*
X189755Y195363D01*
X189098D01*
X188491Y195111D01*
X188027Y194647D01*
X187776Y194040D01*
Y193383D01*
X188027Y192777D01*
X188491Y192312D01*
X189098Y192061D01*
X189755D01*
X190362Y192312D01*
X190534Y192484D01*
X205071D01*
X205243Y192312D01*
X205849Y192061D01*
X206506D01*
X207113Y192312D01*
X207577Y192777D01*
X207828Y193383D01*
Y194040D01*
X207577Y194647D01*
X207113Y195111D01*
X206506Y195363D01*
D02*
G37*
G36*
X39978Y174518D02*
X38938D01*
X37934Y174249D01*
X37034Y173729D01*
X36299Y172994D01*
X35779Y172094D01*
X35510Y171089D01*
Y170050D01*
X35779Y169046D01*
X36299Y168146D01*
X37034Y167411D01*
X37934Y166891D01*
X38938Y166622D01*
X39978D01*
X40982Y166891D01*
X41882Y167411D01*
X42617Y168146D01*
X43137Y169046D01*
X43406Y170050D01*
Y171089D01*
X43137Y172094D01*
X42617Y172994D01*
X41882Y173729D01*
X40982Y174249D01*
X39978Y174518D01*
D02*
G37*
G36*
X208482Y160916D02*
X207577D01*
X206741Y160570D01*
X206545Y160374D01*
X194028D01*
X193849Y160554D01*
X193012Y160900D01*
X192107D01*
X191271Y160554D01*
X190631Y159914D01*
X190284Y159077D01*
Y158172D01*
X190631Y157336D01*
X191271Y156695D01*
X192107Y156349D01*
X193012D01*
X193849Y156695D01*
X194061Y156907D01*
X206545D01*
X206741Y156712D01*
X207577Y156365D01*
X208482D01*
X209319Y156712D01*
X209959Y157352D01*
X210305Y158188D01*
Y159093D01*
X209959Y159930D01*
X209319Y160570D01*
X208482Y160916D01*
D02*
G37*
G36*
X39978Y164518D02*
X38938D01*
X37934Y164249D01*
X37034Y163729D01*
X36299Y162994D01*
X35779Y162094D01*
X35510Y161090D01*
Y160050D01*
X35779Y159046D01*
X36299Y158146D01*
X37034Y157411D01*
X37934Y156891D01*
X38938Y156622D01*
X39978D01*
X40982Y156891D01*
X41882Y157411D01*
X42617Y158146D01*
X43137Y159046D01*
X43406Y160050D01*
Y161090D01*
X43137Y162094D01*
X42617Y162994D01*
X41882Y163729D01*
X40982Y164249D01*
X39978Y164518D01*
D02*
G37*
G36*
X362786Y161149D02*
X361820D01*
X360887Y160899D01*
X360051Y160416D01*
X359368Y159733D01*
X358885Y158896D01*
X358635Y157963D01*
Y156997D01*
X358885Y156064D01*
X359368Y155228D01*
X360051Y154545D01*
X360887Y154062D01*
X361820Y153812D01*
X362786D01*
X363719Y154062D01*
X364556Y154545D01*
X365239Y155228D01*
X365722Y156064D01*
X365972Y156997D01*
Y157963D01*
X365722Y158896D01*
X365239Y159733D01*
X364556Y160416D01*
X363719Y160899D01*
X362786Y161149D01*
D02*
G37*
G36*
X195511Y155874D02*
X194997D01*
X194522Y155678D01*
X194159Y155314D01*
X193962Y154840D01*
Y154326D01*
X194159Y153851D01*
X194522Y153488D01*
X194997Y153291D01*
X195511D01*
X195985Y153488D01*
X196060Y153563D01*
X205800D01*
X205820Y153517D01*
X206183Y153154D01*
X206658Y152957D01*
X207171D01*
X207646Y153154D01*
X208009Y153517D01*
X208206Y153991D01*
Y154505D01*
X208009Y154980D01*
X207646Y155343D01*
X207171Y155540D01*
X206658D01*
X206620Y155524D01*
X206618Y155525D01*
X206228Y155603D01*
X196060D01*
X195985Y155678D01*
X195511Y155874D01*
D02*
G37*
G36*
X152387Y158108D02*
X151370D01*
X150389Y157845D01*
X149509Y157337D01*
X148790Y156618D01*
X148282Y155738D01*
X148019Y154756D01*
Y153740D01*
X148282Y152759D01*
X148790Y151878D01*
X149509Y151160D01*
X150389Y150652D01*
X151370Y150389D01*
X152387D01*
X153368Y150652D01*
X154248Y151160D01*
X154967Y151878D01*
X155475Y152759D01*
X155738Y153740D01*
Y154756D01*
X155475Y155738D01*
X154967Y156618D01*
X154248Y157337D01*
X153368Y157845D01*
X152387Y158108D01*
D02*
G37*
G36*
X43406Y154518D02*
X35510D01*
Y146622D01*
X43406D01*
Y154518D01*
D02*
G37*
G36*
X362786Y151306D02*
X361820D01*
X360887Y151056D01*
X360051Y150573D01*
X359368Y149890D01*
X358885Y149054D01*
X358635Y148121D01*
Y147155D01*
X358885Y146222D01*
X359368Y145385D01*
X360051Y144702D01*
X360887Y144219D01*
X361820Y143969D01*
X362786D01*
X363719Y144219D01*
X364556Y144702D01*
X365239Y145385D01*
X365722Y146222D01*
X365972Y147155D01*
Y148121D01*
X365722Y149054D01*
X365239Y149890D01*
X364556Y150573D01*
X363719Y151056D01*
X362786Y151306D01*
D02*
G37*
G36*
X155738Y148108D02*
X148019D01*
Y140389D01*
X155738D01*
Y148108D01*
D02*
G37*
G36*
X158437Y148205D02*
X157780D01*
X157173Y147954D01*
X156709Y147490D01*
X156457Y146883D01*
Y146226D01*
X156709Y145619D01*
X156993Y145335D01*
Y138723D01*
X156993Y138723D01*
X157078Y138296D01*
X157320Y137934D01*
X158163Y137091D01*
Y136689D01*
X158414Y136082D01*
X158879Y135617D01*
X159486Y135366D01*
X160142D01*
X160749Y135617D01*
X161214Y136082D01*
X161465Y136689D01*
Y137345D01*
X161214Y137952D01*
X160749Y138417D01*
X160142Y138668D01*
X159740D01*
X159223Y139185D01*
Y145335D01*
X159508Y145619D01*
X159759Y146226D01*
Y146883D01*
X159508Y147490D01*
X159043Y147954D01*
X158437Y148205D01*
D02*
G37*
G36*
X211191Y148537D02*
X210285D01*
X209449Y148191D01*
X208809Y147551D01*
X208463Y146714D01*
Y145809D01*
X208809Y144973D01*
X208908Y144874D01*
Y137187D01*
X208615Y136894D01*
X208269Y136058D01*
Y135153D01*
X208615Y134316D01*
X209255Y133676D01*
X210092Y133330D01*
X210997D01*
X211833Y133676D01*
X212474Y134316D01*
X212820Y135153D01*
Y136058D01*
X212474Y136894D01*
X212374Y136993D01*
Y144680D01*
X212667Y144973D01*
X213014Y145809D01*
Y146714D01*
X212667Y147551D01*
X212027Y148191D01*
X211191Y148537D01*
D02*
G37*
G36*
X358736Y117887D02*
X357800D01*
X356895Y117645D01*
X356084Y117176D01*
X355422Y116514D01*
X354954Y115703D01*
X354711Y114799D01*
Y113863D01*
X354954Y112958D01*
X355422Y112147D01*
X356084Y111485D01*
X356895Y111017D01*
X357800Y110774D01*
X358736D01*
X359640Y111017D01*
X360451Y111485D01*
X361114Y112147D01*
X361582Y112958D01*
X361824Y113863D01*
Y114799D01*
X361582Y115703D01*
X361114Y116514D01*
X360451Y117176D01*
X359640Y117645D01*
X358736Y117887D01*
D02*
G37*
G36*
X101820Y79961D02*
X100508D01*
X99241Y79621D01*
X98106Y78965D01*
X97178Y78038D01*
X96522Y76902D01*
X96183Y75635D01*
Y74323D01*
X96522Y73056D01*
X97178Y71920D01*
X98106Y70993D01*
X99241Y70337D01*
X100508Y69998D01*
X101820D01*
X103087Y70337D01*
X104223Y70993D01*
X105150Y71920D01*
X105806Y73056D01*
X106146Y74323D01*
Y75635D01*
X105806Y76902D01*
X105150Y78038D01*
X104223Y78965D01*
X103087Y79621D01*
X101820Y79961D01*
D02*
G37*
G36*
X340551Y77520D02*
X339084Y77327D01*
X337716Y76761D01*
X336542Y75859D01*
X335641Y74685D01*
X335075Y73318D01*
X334881Y71850D01*
Y62008D01*
X335075Y60540D01*
X335641Y59173D01*
X336542Y57999D01*
X337716Y57098D01*
X339084Y56531D01*
X340551Y56338D01*
X342019Y56531D01*
X343386Y57098D01*
X344560Y57999D01*
X345461Y59173D01*
X346028Y60540D01*
X346221Y62008D01*
Y71850D01*
X346028Y73318D01*
X345461Y74685D01*
X344560Y75859D01*
X343386Y76761D01*
X342019Y77327D01*
X340551Y77520D01*
D02*
G37*
G36*
X117530Y33196D02*
X116564D01*
X115631Y32946D01*
X114795Y32463D01*
X114112Y31780D01*
X113629Y30944D01*
X113379Y30011D01*
Y29045D01*
X113629Y28112D01*
X114112Y27275D01*
X114795Y26592D01*
X115631Y26109D01*
X116564Y25859D01*
X117530D01*
X118463Y26109D01*
X119300Y26592D01*
X119983Y27275D01*
X120466Y28112D01*
X120716Y29045D01*
Y30011D01*
X120466Y30944D01*
X119983Y31780D01*
X119300Y32463D01*
X118463Y32946D01*
X117530Y33196D01*
D02*
G37*
G36*
X86034D02*
X85068D01*
X84135Y32946D01*
X83299Y32463D01*
X82616Y31780D01*
X82133Y30944D01*
X81883Y30011D01*
Y29045D01*
X82133Y28112D01*
X82616Y27275D01*
X83299Y26592D01*
X84135Y26109D01*
X85068Y25859D01*
X86034D01*
X86967Y26109D01*
X87804Y26592D01*
X88487Y27275D01*
X88970Y28112D01*
X89220Y29045D01*
Y30011D01*
X88970Y30944D01*
X88487Y31780D01*
X87804Y32463D01*
X86967Y32946D01*
X86034Y33196D01*
D02*
G37*
G36*
X321546Y24336D02*
X320383D01*
X320314Y24322D01*
X320244D01*
X319103Y24095D01*
X319038Y24068D01*
X318969Y24055D01*
X317894Y23609D01*
X317836Y23570D01*
X317771Y23543D01*
X316804Y22897D01*
X316754Y22847D01*
X316695Y22808D01*
X315873Y21986D01*
X315834Y21927D01*
X315784Y21878D01*
X315138Y20910D01*
X315111Y20845D01*
X315072Y20787D01*
X314627Y19712D01*
X314613Y19643D01*
X314586Y19578D01*
X314359Y18437D01*
Y18367D01*
X314345Y18298D01*
Y17135D01*
X314359Y17066D01*
Y16996D01*
X314586Y15855D01*
X314613Y15790D01*
X314627Y15721D01*
X315072Y14646D01*
X315111Y14588D01*
X315138Y14523D01*
X315784Y13555D01*
X315834Y13506D01*
X315873Y13447D01*
X316695Y12625D01*
X316754Y12586D01*
X316804Y12536D01*
X317771Y11890D01*
X317836Y11863D01*
X317894Y11824D01*
X318969Y11379D01*
X319038Y11365D01*
X319103Y11338D01*
X320244Y11111D01*
X320314D01*
X320383Y11097D01*
X321546D01*
X321615Y11111D01*
X321685D01*
X322826Y11338D01*
X322891Y11365D01*
X322960Y11379D01*
X324035Y11824D01*
X324093Y11863D01*
X324158Y11890D01*
X325126Y12536D01*
X325175Y12586D01*
X325234Y12625D01*
X326056Y13447D01*
X326095Y13506D01*
X326145Y13555D01*
X326791Y14523D01*
X326818Y14588D01*
X326857Y14646D01*
X327303Y15721D01*
X327316Y15790D01*
X327343Y15855D01*
X327570Y16996D01*
Y17066D01*
X327584Y17135D01*
Y18298D01*
X327570Y18367D01*
Y18437D01*
X327343Y19578D01*
X327316Y19643D01*
X327303Y19712D01*
X326857Y20787D01*
X326818Y20845D01*
X326791Y20910D01*
X326145Y21878D01*
X326095Y21927D01*
X326056Y21986D01*
X325234Y22808D01*
X325175Y22847D01*
X325126Y22897D01*
X324158Y23543D01*
X324093Y23570D01*
X324035Y23609D01*
X322960Y24055D01*
X322891Y24068D01*
X322826Y24095D01*
X321685Y24322D01*
X321615D01*
X321546Y24336D01*
D02*
G37*
G36*
X53830D02*
X52666D01*
X52597Y24322D01*
X52527D01*
X51386Y24095D01*
X51321Y24068D01*
X51252Y24055D01*
X50178Y23609D01*
X50119Y23570D01*
X50054Y23543D01*
X49087Y22897D01*
X49037Y22847D01*
X48979Y22808D01*
X48156Y21986D01*
X48117Y21927D01*
X48068Y21878D01*
X47421Y20910D01*
X47394Y20845D01*
X47355Y20787D01*
X46910Y19712D01*
X46896Y19643D01*
X46870Y19578D01*
X46643Y18437D01*
Y18367D01*
X46629Y18298D01*
Y17135D01*
X46643Y17066D01*
Y16996D01*
X46870Y15855D01*
X46896Y15790D01*
X46910Y15721D01*
X47355Y14646D01*
X47394Y14588D01*
X47421Y14523D01*
X48068Y13555D01*
X48117Y13506D01*
X48156Y13447D01*
X48979Y12625D01*
X49037Y12586D01*
X49087Y12536D01*
X50054Y11890D01*
X50119Y11863D01*
X50178Y11824D01*
X51252Y11379D01*
X51321Y11365D01*
X51386Y11338D01*
X52527Y11111D01*
X52597D01*
X52666Y11097D01*
X53830D01*
X53899Y11111D01*
X53969D01*
X55110Y11338D01*
X55175Y11365D01*
X55244Y11379D01*
X56318Y11824D01*
X56377Y11863D01*
X56442Y11890D01*
X57409Y12536D01*
X57459Y12586D01*
X57517Y12625D01*
X58340Y13447D01*
X58379Y13506D01*
X58429Y13555D01*
X59075Y14523D01*
X59102Y14588D01*
X59141Y14646D01*
X59586Y15721D01*
X59600Y15790D01*
X59627Y15855D01*
X59854Y16996D01*
Y17066D01*
X59867Y17135D01*
Y18298D01*
X59854Y18367D01*
Y18437D01*
X59627Y19578D01*
X59600Y19643D01*
X59586Y19712D01*
X59141Y20787D01*
X59102Y20845D01*
X59075Y20910D01*
X58429Y21878D01*
X58379Y21927D01*
X58340Y21986D01*
X57517Y22808D01*
X57459Y22847D01*
X57409Y22897D01*
X56442Y23543D01*
X56377Y23570D01*
X56318Y23609D01*
X55244Y24055D01*
X55175Y24068D01*
X55110Y24095D01*
X53969Y24322D01*
X53899D01*
X53830Y24336D01*
D02*
G37*
%LPD*%
G36*
X167540Y341068D02*
X168057Y340854D01*
X167957Y340354D01*
X137284D01*
X137184Y340854D01*
X137254Y340883D01*
X137551Y341180D01*
X167427D01*
X167540Y341068D01*
D02*
G37*
G36*
X262874Y347341D02*
X272323D01*
X272323Y342617D01*
X267992D01*
Y343798D01*
X239646D01*
Y352459D01*
X230197D01*
Y358365D01*
X239646D01*
Y367026D01*
X262874D01*
X262874Y347341D01*
D02*
G37*
D10*
X169639Y352754D02*
X170407Y353522D01*
X154154Y352754D02*
X169639D01*
X170407Y353522D02*
X170708D01*
X51894Y380609D02*
X58481D01*
X80896Y374722D02*
X81549D01*
X80761Y374857D02*
X80896Y374722D01*
X170059Y311708D02*
X180815D01*
X81549Y374722D02*
X81761Y374509D01*
X80563Y374659D02*
X80761Y374857D01*
X69930Y374659D02*
X80563D01*
X135315Y277520D02*
X135422Y277413D01*
Y263863D02*
Y277413D01*
Y263863D02*
X135530Y263755D01*
X131109Y295423D02*
X135504Y291027D01*
X131109Y295423D02*
Y311496D01*
X126713Y315892D02*
X131109Y311496D01*
X158108Y138723D02*
Y146555D01*
Y138723D02*
X159814Y137017D01*
X76639Y242716D02*
X84877D01*
X193867Y214971D02*
Y220735D01*
D16*
X167066Y357184D02*
Y364078D01*
X153819Y357184D02*
X159843Y363207D01*
X162445D01*
X120654Y290500D02*
Y324795D01*
Y290500D02*
X125129Y286025D01*
X168402Y342404D02*
X168494Y342497D01*
X136299Y342311D02*
X136392Y342404D01*
X168402D01*
X174665Y286091D02*
Y288617D01*
X174498Y285924D02*
X174665Y286091D01*
Y288617D02*
X178566Y292518D01*
X348572Y326032D02*
X351106D01*
X358537Y333463D01*
X83246Y393660D02*
X90077Y400491D01*
X83246Y391129D02*
Y393660D01*
X90077Y400491D02*
X189704D01*
X117477Y279656D02*
X119613Y277520D01*
X114014Y306790D02*
X117477Y303327D01*
Y279656D02*
Y303327D01*
X145933Y298442D02*
X146180Y298195D01*
Y297578D02*
Y298195D01*
X145933Y298442D02*
Y320569D01*
X146180Y297578D02*
X146352Y297406D01*
X170846Y333857D02*
X174291Y330412D01*
X168494Y332764D02*
X172426Y328832D01*
X168494Y332764D02*
Y335837D01*
X168797Y336140D01*
X185421Y315384D02*
Y316723D01*
X182461Y319683D02*
Y320825D01*
Y319683D02*
X185421Y316723D01*
X189944Y321086D02*
X191786D01*
X189772Y321258D02*
X189944Y321086D01*
X191786D02*
X193189Y319683D01*
Y315786D02*
Y319683D01*
Y315786D02*
X194370Y314605D01*
X186890Y314113D02*
X193878D01*
X194370Y314605D01*
X185421Y315384D02*
X186693Y314113D01*
X186890D01*
X145933Y320569D02*
X149280Y323916D01*
X172426Y328832D02*
Y328832D01*
X167651Y364664D02*
X182067D01*
X167066Y364078D02*
X167651Y364664D01*
X164578Y333069D02*
X166761Y330886D01*
Y328038D02*
X169358Y325441D01*
X166761Y328038D02*
Y330886D01*
X169358Y322274D02*
Y325441D01*
Y322274D02*
X169665Y321967D01*
X106806Y232287D02*
X113980D01*
X114014Y232321D01*
X106772Y232253D02*
X106806Y232287D01*
X189704Y400491D02*
X192854Y403640D01*
X235118Y400884D02*
X235118D01*
X232362Y403640D02*
X235118Y400884D01*
X192854Y403640D02*
X232362D01*
X170846Y361711D02*
X182067D01*
X188930Y329231D02*
X193189D01*
X214055Y311121D02*
Y323719D01*
Y311121D02*
X217992Y307184D01*
X172426Y328832D02*
X173012Y328246D01*
X170570Y327197D02*
X172224Y325542D01*
Y321967D02*
Y325542D01*
X170570Y327197D02*
Y327459D01*
X175472Y328246D02*
X177342Y326376D01*
X173012Y328246D02*
X175472D01*
X177342Y321967D02*
Y326376D01*
X174291Y330412D02*
X187749D01*
X167106Y321967D02*
Y324884D01*
X165733Y326257D02*
X167106Y324884D01*
X164568Y326257D02*
X165733D01*
X162087Y328739D02*
X164568Y326257D01*
X187749Y330412D02*
X188930Y329231D01*
X177342Y321967D02*
X177342Y321967D01*
X170059Y360924D02*
X170846Y361711D01*
X167106Y321967D02*
X167106Y321967D01*
X219829Y308758D02*
X232533D01*
X233478Y307813D01*
X233740D01*
X218254Y307184D02*
X219829Y308758D01*
X217992Y307184D02*
X218254D01*
D20*
X162677Y394290D02*
D03*
X157559D02*
D03*
D25*
X270141Y339270D02*
D03*
Y344388D02*
D03*
Y327065D02*
D03*
Y332183D02*
D03*
D30*
X253031Y372144D02*
D03*
D32*
X233133Y355215D02*
D03*
Y348916D02*
D03*
X194370Y308306D02*
D03*
Y314605D02*
D03*
X121929Y386317D02*
D03*
Y392616D02*
D03*
D51*
X186890Y308798D02*
D03*
Y314113D02*
D03*
X114449Y386810D02*
D03*
Y392125D02*
D03*
D163*
X129487Y270114D02*
Y281582D01*
X129803Y281898D01*
Y282055D01*
X114014Y274935D02*
Y292409D01*
X109305Y278837D02*
X109429Y278713D01*
X109305Y278837D02*
Y289923D01*
X109180Y290047D02*
X109305Y289923D01*
X126844Y293562D02*
Y308522D01*
Y293562D02*
X128673Y291733D01*
X129393D02*
X129487Y291640D01*
X128673Y291733D02*
X129393D01*
X195254Y154583D02*
X206228D01*
X206563Y154248D01*
X206914D01*
X143823Y223962D02*
Y230735D01*
Y223962D02*
X143874Y223911D01*
X143772Y230787D02*
X143823Y230735D01*
X29407Y249544D02*
X37498Y257635D01*
X39399Y257517D02*
X39648Y257269D01*
X37498Y257635D02*
X38098D01*
X38215Y257517D02*
X39399D01*
X38098Y257635D02*
X38215Y257517D01*
X68444Y257269D02*
X75203D01*
X78652Y260717D01*
X76102Y250441D02*
X76136Y250475D01*
X84998D01*
X85032Y250509D01*
X34270Y244026D02*
Y244095D01*
X42132Y251957D01*
Y252026D01*
X169567Y307740D02*
X174291Y303015D01*
Y299861D02*
Y303015D01*
Y299861D02*
X174783Y299369D01*
D164*
X126525Y349122D02*
X168974D01*
X169001Y349095D01*
X125472Y348835D02*
X125696Y349059D01*
X126462D01*
X126525Y349122D01*
X169001Y349095D02*
X182706D01*
X193337Y349851D02*
X203524Y339664D01*
X182706Y349095D02*
X183462Y349851D01*
X193337D01*
X50598Y385677D02*
X58011D01*
X58158Y385530D01*
X50451Y385824D02*
X50598Y385677D01*
X155197Y296790D02*
X157264Y294723D01*
X155197Y296790D02*
Y315451D01*
X160163Y300069D02*
Y315575D01*
Y300069D02*
X161956Y298275D01*
Y298207D02*
Y298275D01*
X192845Y346652D02*
X200177Y339320D01*
X131659Y346652D02*
X192845D01*
X129803Y344796D02*
X131659Y346652D01*
X347399Y306594D02*
Y313822D01*
X347395Y313825D02*
X347399Y313822D01*
Y306594D02*
X347402Y306591D01*
X222815Y282605D02*
X233740Y271679D01*
X222815Y282605D02*
Y289063D01*
X226752Y293000D02*
Y295865D01*
X222815Y289063D02*
X226752Y293000D01*
X225257Y284232D02*
X233999Y275490D01*
X236890D01*
X225257Y284232D02*
Y287874D01*
X229902Y292518D01*
X204311Y307872D02*
Y327179D01*
X199783Y333168D02*
X204544D01*
X208839Y328874D01*
Y310825D02*
Y328874D01*
Y310825D02*
X220295Y299369D01*
X226594D01*
X229902Y296061D01*
X204311Y307872D02*
X216319Y295865D01*
X226752D01*
X229902Y292518D02*
Y296061D01*
D165*
X210641Y135702D02*
Y146165D01*
X210738Y146262D01*
X210544Y135605D02*
X210641Y135702D01*
X112995Y381886D02*
Y382120D01*
X108809Y386305D02*
X112995Y382120D01*
X86071Y384101D02*
X91733D01*
X93938Y386305D01*
X108809D01*
X84641Y385530D02*
X86071Y384101D01*
X81761Y385530D02*
X84641D01*
X69930Y363522D02*
X78534D01*
X151697Y394489D02*
X157360D01*
X114014Y392560D02*
X114449Y392125D01*
X114014Y392560D02*
Y398241D01*
X157360Y394489D02*
X157559Y394290D01*
X121683Y392371D02*
X121929Y392616D01*
X114449Y392125D02*
X114695Y392371D01*
X121683D01*
X72165Y306790D02*
Y307239D01*
X80817Y315892D01*
X95443D01*
X118173Y338621D01*
X192576Y158641D02*
X208030D01*
X192560Y158625D02*
X192576Y158641D01*
X118173Y338621D02*
X182937D01*
X185021Y336536D01*
X231378Y285924D02*
X243189D01*
X251243Y293978D01*
X185021Y336536D02*
X204146D01*
X157657Y389270D02*
X186693D01*
X186885Y389078D02*
X187377D01*
X186693Y389270D02*
X186885Y389078D01*
X157559Y389172D02*
X157657Y389270D01*
X211845Y328837D02*
X230377D01*
X204146Y336536D02*
X211845Y328837D01*
X230377D02*
X241357D01*
X251243Y370356D02*
X253031Y372144D01*
X251243Y355510D02*
Y370356D01*
X241357Y328837D02*
X242243Y329723D01*
X251243Y355510D02*
X304705D01*
X332559Y327656D01*
Y320569D02*
Y327656D01*
X251243Y293978D02*
Y355510D01*
D168*
X100599Y277304D02*
X103425Y280130D01*
Y292409D01*
X149280Y319244D02*
X151295Y321258D01*
X159638D01*
X165466Y315430D01*
X186608Y326489D02*
X193667D01*
X186594Y326475D02*
X186608Y326489D01*
X86834Y310695D02*
Y310884D01*
X86536Y289910D02*
Y310397D01*
X86834Y310695D01*
X98033Y295689D02*
X99561Y297217D01*
Y297406D01*
X98033Y282232D02*
Y295689D01*
X93352Y287974D02*
Y302787D01*
X159259Y377190D02*
X167106Y385038D01*
X162677Y394290D02*
X167106D01*
X157264Y373522D02*
X169173D01*
X154805Y377190D02*
X159259D01*
X145933Y368318D02*
X154805Y377190D01*
X145933Y364735D02*
Y368318D01*
Y364735D02*
X148367Y362302D01*
X179694Y321760D02*
X179902Y321967D01*
X179694Y318701D02*
Y321760D01*
X176423Y315430D02*
X179694Y318701D01*
X165466Y315430D02*
X176423D01*
X92655Y287277D02*
X93352Y287974D01*
X92655Y287087D02*
Y287277D01*
X193667Y326489D02*
X193681Y326502D01*
X136299Y325294D02*
X140089Y329084D01*
X142058D01*
X142205Y329231D01*
X130984Y319244D02*
X135504Y314724D01*
Y296061D02*
Y314724D01*
X140359Y308520D02*
X140827Y308053D01*
Y296061D02*
Y308053D01*
X140359Y308520D02*
Y320322D01*
X144938Y324900D01*
X68688Y268124D02*
X83976D01*
X84526Y277304D02*
X84634Y277412D01*
X93244D01*
X93352Y277520D01*
X345701Y335849D02*
X354795D01*
X216024Y275835D02*
X220608Y271251D01*
Y268973D02*
Y271251D01*
Y268973D02*
X220755Y268826D01*
X284134Y289723D02*
Y289723D01*
X286102Y291692D02*
Y305215D01*
X282955Y308362D02*
X286102Y305215D01*
X284134Y289723D02*
X286102Y291692D01*
X203031Y391165D02*
X206156Y394290D01*
X217992D01*
X221535Y390746D01*
X208839Y400884D02*
X215236D01*
X205583Y397628D02*
X208839Y400884D01*
X197913Y397628D02*
X205583D01*
X281378Y308362D02*
X282955D01*
X255787Y308011D02*
Y317577D01*
X272716Y308011D02*
X277717Y303010D01*
X281378D01*
X251063Y285924D02*
X268386Y303246D01*
Y308011D01*
X270354Y323325D02*
Y326852D01*
X270141Y327065D02*
X270354Y326852D01*
X270141Y332183D02*
Y339270D01*
X261730Y332183D02*
X270141D01*
X260243Y330697D02*
X261730Y332183D01*
X260243Y329723D02*
Y330697D01*
D169*
X70861Y381443D02*
X78464D01*
X78534Y381513D01*
X70791Y381373D02*
X70861Y381443D01*
X189427Y193712D02*
X206178D01*
D172*
X39458Y150570D02*
D03*
D173*
Y160570D02*
D03*
Y170570D02*
D03*
D174*
X362303Y147638D02*
D03*
Y157480D02*
D03*
X95551Y29528D02*
D03*
X85551D02*
D03*
X117047D02*
D03*
X127047D02*
D03*
D175*
X362303Y167323D02*
D03*
D176*
X358268Y104331D02*
D03*
Y114331D02*
D03*
D177*
X350394Y255906D02*
D03*
D178*
X360236D02*
D03*
X350394Y265748D02*
D03*
X360236D02*
D03*
X350394Y275590D02*
D03*
X360236D02*
D03*
X350394Y285433D02*
D03*
X360236D02*
D03*
D179*
X101164Y74979D02*
D03*
X22424D02*
D03*
D180*
X54133Y274752D02*
D03*
Y279752D02*
D03*
X59133Y274752D02*
D03*
Y279752D02*
D03*
X64133Y274752D02*
D03*
Y279752D02*
D03*
X69133Y274752D02*
D03*
Y279752D02*
D03*
X74133Y274752D02*
D03*
Y279752D02*
D03*
D181*
X81121Y200514D02*
D03*
Y197463D02*
D03*
Y203565D02*
D03*
X76987Y200514D02*
D03*
Y197463D02*
D03*
Y203565D02*
D03*
X84074Y200514D02*
D03*
X74035D02*
D03*
X129487Y270114D02*
D03*
X129803Y282055D02*
D03*
X126844Y308522D02*
D03*
X129487Y291640D02*
D03*
X206914Y154248D02*
D03*
X195254Y154583D02*
D03*
X143874Y223911D02*
D03*
X143772Y230787D02*
D03*
X167106Y317420D02*
D03*
X169567Y307740D02*
D03*
D182*
X151878Y144248D02*
D03*
D183*
Y154248D02*
D03*
D184*
X340551Y66929D02*
D03*
D185*
X364173D02*
D03*
D186*
X352362Y85433D02*
D03*
D187*
X364705Y317835D02*
D03*
X359705D02*
D03*
X364705Y322835D02*
D03*
X359705D02*
D03*
X364705Y327835D02*
D03*
D188*
X359705D02*
D03*
D189*
X289783Y6885D02*
D03*
Y33588D02*
D03*
X266698Y14436D02*
D03*
X266542Y6885D02*
D03*
X231058Y6809D02*
D03*
X218998D02*
D03*
X253606Y6885D02*
D03*
X241545D02*
D03*
X206363Y83870D02*
D03*
X170423Y110346D02*
D03*
X199644Y90775D02*
D03*
X263043Y43960D02*
D03*
Y53400D02*
D03*
X210544Y22626D02*
D03*
Y12806D02*
D03*
Y32180D02*
D03*
X216675Y62841D02*
D03*
Y69996D02*
D03*
X266698Y23622D02*
D03*
Y32180D02*
D03*
X301968Y13415D02*
D03*
X278758Y12806D02*
D03*
X299828Y29048D02*
D03*
X278758D02*
D03*
X198066Y68880D02*
D03*
X206363Y77266D02*
D03*
Y90728D02*
D03*
D190*
X221535Y306347D02*
D03*
X174498Y343109D02*
D03*
X180404Y343251D02*
D03*
X167066Y357184D02*
D03*
X162445Y363207D02*
D03*
X59780Y318160D02*
D03*
Y312593D02*
D03*
X67355Y201715D02*
D03*
X55310Y194018D02*
D03*
X55249Y189446D02*
D03*
X55221Y198879D02*
D03*
X168494Y342497D02*
D03*
X83246Y391129D02*
D03*
X149280Y319244D02*
D03*
X155197Y315451D02*
D03*
X129803Y373325D02*
D03*
Y344796D02*
D03*
X99418Y397341D02*
D03*
X129803Y362302D02*
D03*
X97126Y328522D02*
D03*
X136299Y342311D02*
D03*
X135315Y362302D02*
D03*
X125472Y348835D02*
D03*
X186594Y326475D02*
D03*
X94549Y333857D02*
D03*
X167106Y385038D02*
D03*
X169567Y397341D02*
D03*
X135315Y373325D02*
D03*
X167106Y394290D02*
D03*
X180565Y368522D02*
D03*
X160163Y315575D02*
D03*
X169173Y373522D02*
D03*
X140827Y362302D02*
D03*
X129803Y367813D02*
D03*
X135315D02*
D03*
X140827D02*
D03*
Y373325D02*
D03*
X170846Y333857D02*
D03*
X161956Y298207D02*
D03*
X157264Y294723D02*
D03*
X168494Y335837D02*
D03*
X149280Y323916D02*
D03*
X144938Y324900D02*
D03*
X164578Y333069D02*
D03*
X139048Y171188D02*
D03*
X141116Y136407D02*
D03*
X95683Y380601D02*
D03*
X95479Y377028D02*
D03*
X51188Y212638D02*
D03*
X51216Y221592D02*
D03*
Y203206D02*
D03*
X51249Y217210D02*
D03*
X51277Y207778D02*
D03*
Y226164D02*
D03*
X51188Y198879D02*
D03*
X55353Y207778D02*
D03*
X55386Y203396D02*
D03*
X59756Y201819D02*
D03*
X63901D02*
D03*
X90910Y204923D02*
D03*
X90971Y220334D02*
D03*
X91000Y229287D02*
D03*
Y210901D02*
D03*
X91032Y224905D02*
D03*
X91061Y233859D02*
D03*
Y215473D02*
D03*
X94433Y204937D02*
D03*
X94494Y220347D02*
D03*
X94523Y210915D02*
D03*
Y229301D02*
D03*
X94555Y224919D02*
D03*
X94584Y233873D02*
D03*
Y215487D02*
D03*
X51216Y189446D02*
D03*
X51277Y194018D02*
D03*
X60504Y125942D02*
D03*
X96283Y167195D02*
D03*
X96222Y162623D02*
D03*
X63688Y125942D02*
D03*
X63752Y130596D02*
D03*
X96222Y157889D02*
D03*
Y180847D02*
D03*
Y172265D02*
D03*
X60504Y131868D02*
D03*
X96283Y185419D02*
D03*
Y176837D02*
D03*
X99843Y171704D02*
D03*
Y157889D02*
D03*
X99871Y162272D02*
D03*
Y180658D02*
D03*
X99904Y176276D02*
D03*
X99932Y166843D02*
D03*
Y185230D02*
D03*
Y150379D02*
D03*
Y143401D02*
D03*
Y137017D02*
D03*
X141116Y133621D02*
D03*
X303464Y228792D02*
D03*
X324653Y280956D02*
D03*
X303464Y235000D02*
D03*
X324664Y267881D02*
D03*
X303464Y241974D02*
D03*
X136906Y133160D02*
D03*
Y136407D02*
D03*
X95091Y383522D02*
D03*
X142205Y329231D02*
D03*
X231378Y285924D02*
D03*
X100847Y377028D02*
D03*
X216024Y275835D02*
D03*
X233740Y271679D02*
D03*
X157559Y389172D02*
D03*
X193681Y326502D02*
D03*
X177427Y343109D02*
D03*
X182067Y361711D02*
D03*
Y364664D02*
D03*
X148367Y362302D02*
D03*
X64133Y312593D02*
D03*
Y318160D02*
D03*
X220755Y268826D02*
D03*
X199862Y286317D02*
D03*
X204429Y294023D02*
D03*
X49659Y352276D02*
D03*
X49490Y347879D02*
D03*
X235118Y400884D02*
D03*
X236890Y275490D02*
D03*
X289715Y291435D02*
D03*
X255787Y317577D02*
D03*
X235118Y372144D02*
D03*
X281378Y384742D02*
D03*
X281968Y345372D02*
D03*
X228425D02*
D03*
X272716Y308011D02*
D03*
X281378Y308362D02*
D03*
X281968Y352065D02*
D03*
X241811Y372144D02*
D03*
X259724Y384742D02*
D03*
X268386Y308011D02*
D03*
X255394Y384742D02*
D03*
X251063D02*
D03*
X214055Y323719D02*
D03*
X221732Y352065D02*
D03*
Y345372D02*
D03*
Y338680D02*
D03*
X281968D02*
D03*
Y358758D02*
D03*
X228425D02*
D03*
X275276Y345372D02*
D03*
Y352065D02*
D03*
Y358758D02*
D03*
X187377Y389078D02*
D03*
X324882Y315646D02*
D03*
Y311512D02*
D03*
X321142D02*
D03*
Y315646D02*
D03*
X300669Y295077D02*
D03*
X203031Y391165D02*
D03*
X213425D02*
D03*
X221535Y390746D02*
D03*
X215236Y400884D02*
D03*
X197913Y397628D02*
D03*
X197520Y400884D02*
D03*
X193189Y329231D02*
D03*
X204311Y327179D02*
D03*
X153819Y357184D02*
D03*
X157264Y373522D02*
D03*
X205833Y302257D02*
D03*
X203031Y344930D02*
D03*
X194468Y373719D02*
D03*
X190925D02*
D03*
X209831Y391239D02*
D03*
X232165Y396947D02*
D03*
X238858Y323178D02*
D03*
X222716Y324408D02*
D03*
X229902D02*
D03*
X222716Y319388D02*
D03*
X217205D02*
D03*
X282067Y331987D02*
D03*
X281968Y324900D02*
D03*
X289715Y320405D02*
D03*
X285709Y316790D02*
D03*
X289577Y360727D02*
D03*
Y364565D02*
D03*
X291737Y373719D02*
D03*
X287677D02*
D03*
X262874Y339846D02*
D03*
X255452Y339861D02*
D03*
X245689Y339664D02*
D03*
X238464D02*
D03*
X311053Y366829D02*
D03*
X307953Y366928D02*
D03*
X311053Y370963D02*
D03*
X307953D02*
D03*
X321142Y346553D02*
D03*
X316968Y350983D02*
D03*
X312874Y341348D02*
D03*
X306633D02*
D03*
X301063D02*
D03*
X339201Y321738D02*
D03*
X339314Y324588D02*
D03*
X225866Y274515D02*
D03*
X223358Y276976D02*
D03*
X240401Y299802D02*
D03*
Y296160D02*
D03*
Y303404D02*
D03*
X132577Y365038D02*
D03*
X132543Y370438D02*
D03*
X138010Y370608D02*
D03*
X138112Y364936D02*
D03*
X101051Y380601D02*
D03*
X101063Y383522D02*
D03*
X170570Y327459D02*
D03*
X162087Y328739D02*
D03*
X170059Y360924D02*
D03*
X200177Y339320D02*
D03*
X199783Y333168D02*
D03*
X203524Y339664D02*
D03*
X226752Y295865D02*
D03*
X229902Y296061D02*
D03*
X332559Y320569D02*
D03*
X284134Y289723D02*
D03*
X255787Y308011D02*
D03*
X281378Y303010D02*
D03*
X251063Y285924D02*
D03*
X233740Y307813D02*
D03*
X217992Y307184D02*
D03*
D191*
X170708Y353522D02*
D03*
X120654Y324795D02*
D03*
X154154Y352754D02*
D03*
X178566Y292518D02*
D03*
X174498Y285924D02*
D03*
X348572Y326032D02*
D03*
X358537Y333463D02*
D03*
X50451Y385824D02*
D03*
X58158Y385530D02*
D03*
X58481Y380609D02*
D03*
X51894D02*
D03*
X69930Y363522D02*
D03*
X78534D02*
D03*
X100599Y277304D02*
D03*
X151697Y394489D02*
D03*
X99561Y297406D02*
D03*
X81761Y374509D02*
D03*
X114014Y398241D02*
D03*
X93352Y302787D02*
D03*
X78534Y381513D02*
D03*
X86834Y310884D02*
D03*
X114014Y306790D02*
D03*
X103425Y292409D02*
D03*
X181722Y357446D02*
D03*
X180815Y311708D02*
D03*
X136299Y325294D02*
D03*
X135530Y263755D02*
D03*
X135315Y277520D02*
D03*
X135504Y296061D02*
D03*
X140827D02*
D03*
X146352Y297406D02*
D03*
X9422Y395073D02*
D03*
X189772Y321258D02*
D03*
X135504Y291027D02*
D03*
X125129Y286025D02*
D03*
X98033Y282232D02*
D03*
X119613Y277520D02*
D03*
X114014Y274935D02*
D03*
X109429Y278713D02*
D03*
X92655Y287087D02*
D03*
X86536Y289910D02*
D03*
X126713Y315892D02*
D03*
X130984Y319244D02*
D03*
X189427Y193712D02*
D03*
X159814Y137017D02*
D03*
X170059Y311708D02*
D03*
X68688Y268124D02*
D03*
X83976D02*
D03*
X84526Y277304D02*
D03*
X93352Y277520D02*
D03*
X177749Y157889D02*
D03*
X206178Y193712D02*
D03*
X114014Y232321D02*
D03*
X106772Y232253D02*
D03*
X127904Y208468D02*
D03*
X122604Y208448D02*
D03*
X130555Y239739D02*
D03*
X39648Y257269D02*
D03*
X78652Y260717D02*
D03*
X68444Y257269D02*
D03*
X29407Y249544D02*
D03*
X85032Y250509D02*
D03*
X76102Y250441D02*
D03*
X42132Y252026D02*
D03*
X34270Y244026D02*
D03*
X84877Y242716D02*
D03*
X76639D02*
D03*
X153084Y175968D02*
D03*
X149940D02*
D03*
X153084Y178790D02*
D03*
X149817D02*
D03*
X185135Y123459D02*
D03*
X184928Y127044D02*
D03*
X170423Y150758D02*
D03*
X166274D02*
D03*
X168551Y142216D02*
D03*
Y144853D02*
D03*
X168428Y147854D02*
D03*
X158108Y146555D02*
D03*
X182325Y123753D02*
D03*
X178807Y123752D02*
D03*
X182245Y126994D02*
D03*
X178791D02*
D03*
X189427Y139302D02*
D03*
X193867Y220735D02*
D03*
Y214971D02*
D03*
X70788Y395892D02*
D03*
X70791Y381373D02*
D03*
X50770Y234662D02*
D03*
X347395Y313825D02*
D03*
X347402Y306591D02*
D03*
X69930Y374659D02*
D03*
X114014Y292409D02*
D03*
X266542Y93537D02*
D03*
X128719Y91655D02*
D03*
X109180Y290047D02*
D03*
X192560Y230693D02*
D03*
X197391D02*
D03*
X213867Y214691D02*
D03*
X354795Y335849D02*
D03*
X345701D02*
D03*
X100599Y353522D02*
D03*
Y358522D02*
D03*
D192*
X210544Y135605D02*
D03*
X192560Y158625D02*
D03*
X208030Y158641D02*
D03*
X210738Y146262D02*
D03*
D193*
X112995Y381886D02*
D03*
X81761Y385530D02*
D03*
D194*
X72165Y306790D02*
D03*
D195*
X242243Y329723D02*
D03*
X260243D02*
D03*
D196*
X251243Y355510D02*
D03*
D197*
X230377Y328837D02*
D03*
Y339861D02*
D03*
D198*
X182461Y299369D02*
D03*
X179902D02*
D03*
X177342D02*
D03*
X174783D02*
D03*
X172224D02*
D03*
X169665D02*
D03*
X167106D02*
D03*
X164547D02*
D03*
Y321967D02*
D03*
X167106D02*
D03*
X169665D02*
D03*
X172224D02*
D03*
X174783D02*
D03*
X177342D02*
D03*
X179902D02*
D03*
X182461D02*
D03*
D199*
X166995Y317531D02*
X167106Y317420D01*
X165055Y318826D02*
X166349Y317531D01*
X165055Y318826D02*
Y321459D01*
X164547Y321967D02*
X165055Y321459D01*
X166349Y317531D02*
X166995D01*
M02*
