G04*
G04 #@! TF.GenerationSoftware,Altium Limited,Altium Designer,21.3.2 (30)*
G04*
G04 Layer_Color=128*
%FSLAX25Y25*%
%MOIN*%
G70*
G04*
G04 #@! TF.SameCoordinates,6E51047B-58C7-44D0-8EEE-2D495A345CE8*
G04*
G04*
G04 #@! TF.FilePolarity,Positive*
G04*
G01*
G75*
%ADD20R,0.03347X0.03740*%
%ADD25R,0.03740X0.03347*%
%ADD30R,0.16535X0.05906*%
%ADD32R,0.05512X0.05118*%
%ADD51R,0.03937X0.03543*%
%ADD195R,0.04173X0.10236*%
%ADD196R,0.22173X0.22441*%
%ADD197R,0.10630X0.05118*%
G04:AMPARAMS|DCode=198|XSize=61.81mil|YSize=16.14mil|CornerRadius=2.02mil|HoleSize=0mil|Usage=FLASHONLY|Rotation=90.000|XOffset=0mil|YOffset=0mil|HoleType=Round|Shape=RoundedRectangle|*
%AMROUNDEDRECTD198*
21,1,0.06181,0.01211,0,0,90.0*
21,1,0.05778,0.01614,0,0,90.0*
1,1,0.00404,0.00605,0.02889*
1,1,0.00404,0.00605,-0.02889*
1,1,0.00404,-0.00605,-0.02889*
1,1,0.00404,-0.00605,0.02889*
%
%ADD198ROUNDEDRECTD198*%
D20*
X162677Y394290D02*
D03*
X157559D02*
D03*
D25*
X270141Y339270D02*
D03*
Y344388D02*
D03*
Y327065D02*
D03*
Y332183D02*
D03*
D30*
X253031Y372144D02*
D03*
D32*
X233133Y355215D02*
D03*
Y348916D02*
D03*
X194370Y308306D02*
D03*
Y314605D02*
D03*
X121929Y386317D02*
D03*
Y392616D02*
D03*
D51*
X186890Y308798D02*
D03*
Y314113D02*
D03*
X114449Y386810D02*
D03*
Y392125D02*
D03*
D195*
X242243Y329723D02*
D03*
X260243D02*
D03*
D196*
X251243Y355510D02*
D03*
D197*
X230377Y328837D02*
D03*
Y339861D02*
D03*
D198*
X182461Y299369D02*
D03*
X179902D02*
D03*
X177342D02*
D03*
X174783D02*
D03*
X172224D02*
D03*
X169665D02*
D03*
X167106D02*
D03*
X164547D02*
D03*
Y321967D02*
D03*
X167106D02*
D03*
X169665D02*
D03*
X172224D02*
D03*
X174783D02*
D03*
X177342D02*
D03*
X179902D02*
D03*
X182461D02*
D03*
M02*
