M48
;Layer_Color=9474304
;FILE_FORMAT=4:4
METRIC,LZ
;TYPE=PLATED
T1F00S00C0.1500
T2F00S00C0.2000
T3F00S00C0.2540
T4F00S00C0.3000
T5F00S00C0.3810
T6F00S00C0.5000
T7F00S00C0.5080
T8F00S00C0.6000
T9F00S00C0.7000
T10F00S00C0.7112
T11F00S00C0.7500
T12F00S00C1.0000
T14F00S00C1.0700
T15F00S00C1.1000
T16F00S00C1.2000
T17F00S00C1.4500
%
T01
X00495945Y0039264
X00525563Y00391791
X0036544Y00568734
X0036518Y00586198
X00328897Y00686091
X003297Y0071642
X00328897Y00740765
X00322184Y00783646
X004307Y00781659
X0042445Y00806246
T02
X00195548Y00501556
Y00509306
X00188048
X00195548Y00517056
X00206048
Y00509306
X00213548
X00206048Y00501556
T03
X00326946Y00232805
X00405928Y00348023
X0042812Y00361227
Y00367927
X00481144Y00353826
X00469718Y00322691
X00462901Y00322564
X00463106Y00314332
X00470244Y00313586
X00454169Y0031433
X0045413Y00322564
X00677015Y00237583
X00451483Y00401037
X00481144Y00492028
X00523691
X00543223Y00545315
X00492422Y00546028
Y00560667
X00489102Y00585959
X00501372
X00453558Y00742996
X00443224Y00726246
X00371734Y00755411
X003577Y00751996
X00344181
Y00739209
X003437Y00704901
X00344246Y00669939
X00331609Y00608938
X00289596Y00590096
X002712Y00589923
X00215588Y00616498
X0021598Y00636293
X00193298Y00636121
X00194662Y00616498
X00199776Y00662221
X00213298Y00681034
X00214697Y00704353
X00237114Y00704901
X00255522Y00704353
X00249005Y00716869
X00235343Y00729202
X00219802Y00736372
X002627Y00742719
X00277318Y0073672
X00289596Y00742719
Y00698335
X00303818Y00704901
X0027795Y0070793
X00317828Y00726504
X00252886Y00755411
X00174466Y00681034
X00173848Y00653462
X00100706
X00107016Y00640147
X00074694Y00633842
X00087045Y00619826
X00128956Y00596041
X00311414Y00529459
X00324875Y00529507
X00380535Y00454128
X00380847Y00446959
X00388833
Y00454128
X00401595Y00372248
X00427808Y00375548
X00432874Y00382926
X00422336
X00023931Y01003485
X00128145Y00979993
X0013181Y00966746
X00148543
X00147722Y00979246
X00179809Y00968688
X00177623Y00951634
Y00923346
X00199477
X00207674Y00951253
X00199477Y00969042
X00179802Y01005566
X00289596Y01011533
X00385311Y01002001
X00391551Y00895996
X00433599Y00897946
X0043195Y00791739
X003327Y0081088
X00321852Y00802364
X00306462Y00824978
X003462Y00826246
X00289596Y00779246
X00237114Y00769079
X00220559Y00789646
X00255522Y00897946
Y00910646
X00461575Y00907912
X0048202Y00815996
X00459269Y00791739
X00882384Y00797115
X00882402Y0077874
X00885374Y00828121
X0087808Y00853057
X0090118
X00910684Y00846996
T04
X00153681Y00319894
X00161768
X00161929Y00331715
X00153681Y00334944
X00253828Y00348023
Y00364237
X00347741Y00346474
Y00338226
X00358434Y00339396
Y00346474
X0050765Y00727246
X0051925Y00746819
X00567329Y00703519
X005737Y00697269
X0061062Y00752246
Y00761496
X00735875Y00740246
X007637Y00749496
X00824618Y00713629
X00824647Y00680419
X00770799Y00614615
Y005969
Y00581132
X00240088Y00582424
X00231139Y00582389
X00231222Y0057126
X0024017Y00571294
X00240016Y00559682
X00231067Y00559647
X00231294Y00547301
X00240243Y00547336
X00240088Y00535723
X00231139Y00535689
X00230912Y00520504
X00239861Y00520539
X00244559Y00470963
X00253828Y00470483
X00253673Y00458871
X00244404Y00459351
X00244559Y00449165
X00253755Y00447741
X00253601Y00436129
X00244404Y00437553
X00244559Y00424676
X00253828Y00423783
X00253673Y0041217
X00244404Y00413063
Y00401037
X00253601
X00253828Y00381961
X00353182Y00434818
X00140332Y00481193
X00130089
X00130244Y00492806
X00140487
X0014026Y00505152
X00130016
X00130089Y00516143
X00140681Y00516626
X00140598Y00527756
X00130244
X00130016Y00540102
X00130171Y00551714
X00130089Y00562844
X00130244Y00574457
X0015178Y00512621
X00162309
X00171082Y00512355
X00231294Y00594002
X00240243Y00594037
X002467Y00834446
X00240154Y00847996
X00242518Y00957652
X00243036Y00966726
X00241532Y00974146
X002567
X0025667Y00966726
X00256152Y00957652
X00252522Y01009246
X003297Y00948246
X003437
X00350546Y00941344
X003437Y00934246
X00336658Y00940913
X003297Y00934246
Y00920246
X00336744Y00927197
X003437Y00920246
X00350805Y00926939
X003577Y00920246
Y00934246
Y00948246
X0039945Y00948746
X004002Y00988496
X0042445Y01001496
X004307Y01009246
X00443224Y00871496
X003462Y00869471
X00125706Y00883614
X00126133Y00894781
X00151842Y00808126
X00162898
Y00793987
X00151842
X0049195Y00829316
X005157Y00876121
X005632Y00877246
X005802
X005632Y00860246
Y00894246
X005802Y00911246
X005972Y00945246
X006142
X006377Y00977246
X006487
X006597
X007147
X007307Y00949246
X00741012
X00735525Y00925996
Y00916246
X007162Y00911246
Y00894246
X006992
Y00911246
Y00877246
X007162
Y00860246
X0071645Y00843246
X007162Y00825246
X007257Y00804646
X00735875Y00813827
X007647Y00867024
X00778849
X007947
X008157Y00880246
X008051Y00891496
X00790075Y00931746
X007822Y00931996
Y00942246
X00790075
X008157Y0080174
X008252
Y0079124
X008157
X006677Y0086321
X00648849Y00863246
X0062405Y00862746
X006057
X006067Y00820871
X0058395Y00823996
X005657
Y00811246
X005517
X005627Y00778122
X00522817Y00767733
X0061062Y00770646
X00458226Y00871857
X00450664Y00871496
X00458636Y00936046
X0048495Y00949246
X0049395
X00475938Y00988257
X005157Y00993559
X0053297Y00993746
X005421Y00993559
X005627Y00992496
X005467Y01018246
X005017
X005027Y01009976
X005897Y01008246
X005972Y01018246
X00861857Y00824453
X0086157Y00817213
T05
X00560717Y00682819
X005487Y00700621
X006017Y00699746
X005937Y00690066
X005877Y00726246
X0058395Y00751996
X0057595Y00751496
X006377Y00726246
X007217Y00735896
X00411368Y00757446
X0039945Y00748596
X003942Y00801246
X00406813Y00801561
X00379172Y0081088
Y00822746
X00368142Y00825246
X003612Y00836246
X004117Y00834996
X00418027Y00845996
X00427975Y00853027
X0043395Y00847996
X00433247Y00831746
X00427975Y00869941
X00424347Y00907246
X0043195Y00916746
X0041261Y00922546
X003907Y00907246
X00376852Y00920246
X004297Y00948746
X0042445Y00977996
X003297Y00875781
X003187Y00886042
X00211444Y00993469
X0046245Y00926246
Y00918746
X0047395Y00829246
X004907Y00836246
X0050745Y00846246
X0050845Y00861872
X0051695Y00862746
X0051895Y00831033
X005437Y00822246
X005537Y00780246
X005937Y00781846
X006497Y00782347
Y00806646
X006817Y00782347
X006927
X007147Y0078324
Y00769646
X008447Y00814246
T06
X00207674Y00979246
X00287006Y00969991
T07
X00183298Y00779246
T08
X00534782Y00344438
X00535275Y00371505
X00528395Y00402948
X00489102Y00402907
T09
X00137498Y00697871
Y00710571
X00150198
Y00697871
X00162898
Y00710571
X00175598
Y00697871
X00188298
Y00710571
T10
X00432874Y0028028
X00507096Y00230567
X00524163Y0023045
Y00213029
Y00196255
X00503087Y00174955
X00550356Y0017779
Y00159615
X00534782Y00081737
Y0005747
Y00032528
X00556254Y00017294
X00586888
X00613524Y00017489
X00644158
X00677015
X00677411Y00036666
Y0006
Y00081737
X00708045Y00073783
X00736049Y00085313
X00761563Y00073783
X00766998Y00034074
X00736049Y00017489
X00708045Y00032528
X0066813Y00111659
Y00135637
T11
X0091365Y008073
X0092635
Y0082
X0091365
Y008327
X0092635
T12
X002173Y00075
X002427
X002973
X003227
X0091Y00265
Y002904
X0092025Y00375
Y004
Y00425
T14
X00385771Y00366391
Y00391791
T15
X00100223Y00382447
Y00407847
Y00433247
T16
X0089Y0065
X00915
Y00675
X0089
Y007
X00915
Y00725
X0089
T17
X00056957Y00190447
X00256957
M30
