M48
;Layer_Color=9474304
;FILE_FORMAT=4:4
METRIC,LZ
;TYPE=PLATED
T1F00S00C0.2000
T2F00S00C0.2540
T3F00S00C0.3000
T4F00S00C0.3810
T5F00S00C0.4000
T6F00S00C0.5000
T7F00S00C0.7000
T8F00S00C0.7112
T9F00S00C0.7500
T11F00S00C1.1000
T12F00S00C1.3000
T13F00S00C1.3500
%
T01
X00916145Y00525329
X00924145
X00932145
X00940145
X00948145
X00952145Y00533329
X00944145
X00936145
X00928145
X00920145
X00836145Y0060533
X00828145Y00621329
X00820145
X00812145
X00804145
X00796145
X00800145Y0062933
X00832145
X00856145
X00864145
X00872145
X00868145Y0060533
X00876145
X00884145
X00892145
X00896145Y00597329
X00888145
X00880145
X00872145
X00864145
X00856145
X00860145Y00589329
X00868145
X00876145
X00884145
X00892145
X00908145
X00916145
X00924145
X00932145
X00940145
X00948145
X00952145Y00597329
X00944145
X00936145
X00928145
X00920145
X00912145
X00908145Y0060533
X00916145
X00924145
X00920145Y0061333
X00912145
Y0062933
X00920145
X00916145Y0063733
X00924145
X00928145Y0064533
X00936145
X00944145
X00952145
X00948145Y0065333
X00940145
X00932145
X00924145
X00916145
X00908145
X00912145Y0066133
X00920145
X00928145
X00936145
X00944145
X00952145
X00948145Y0066933
X00940145
X00932145
X00924145
X00916145
X00908145
X00900145
X00892145
X00884145
X00888145Y0066133
X00896145
X00904145
Y0067733
X00912145
X00920145
X00928145
X00936145
X00944145
X00952145
X00948145Y0068533
X00940145
X00932145
X00924145
X00916145
X00908145
X00900145
X00892145
X00896145Y0069333
X00904145
X00912145
X00920145
X00928145
X00936145
X00944145
X00952145
X00948145Y0070133
X00940145
X00932145
X00924145
X00916145
X00920145Y0070933
X00928145
X00936145
X00944145
X00952145
X00948145Y0071733
X00940145
X00932145
X00924145
X00916145
X00896145Y0067733
X00880145Y0066133
X00888145Y0064533
X00892145Y0063733
X00908145
X00912145Y0064533
X00920145
X00940145Y00621329
X00948145
X00952145Y00581329
X00944145
X00936145
X00928145
X00920145
X00916145Y0057333
X00924145
X00932145
X00940145
X00948145
X00952145Y0056533
X00944145
X00936145
X00928145
X00920145
X00916145Y00557329
X00924145
X00932145
X00940145
X00948145
X00952145Y00549329
X00944145
X00936145
X00928145
X00920145
X00916145Y00541329
X00924145
X00932145
X00940145
X00948145
X00860145Y0065333
X00852145
X00848145Y0064533
T02
X00395518Y0009207
X00660722Y00129416
X00688448Y0013082
X00740566Y00125207
X00783535Y00125181
X00816917Y00110323
X0082236Y00084923
X00822434Y00055064
X0085463Y00207279
X0086316Y00306101
X00855443Y00348286
X00877347Y00348795
X00913388Y00290502
X00936623Y00291097
X00839809Y00314632
X00798514Y00321615
X00799329Y00290502
X00798514Y00224539
X00822751Y00222606
X00816917Y00206611
X008348Y00207007
X00787222Y00205927
X00781136Y00141238
X00740566Y0014233
X00684619Y00142315
X00662932
X0067207Y00195338
X00670438Y00225332
X00702018Y00233545
X00686008Y00284037
X00677637Y00319621
X00682131Y00338203
X00599322Y00370577
X00577689Y00369426
X00539418Y00365704
X00525415Y00339636
X00519512Y0028352
X00530485Y00274693
X00521368Y00247896
X00487838
X0048939Y0028349
X0049071Y00299204
X00489789Y00310831
X00470416Y00369426
X00452579Y00409363
X00467337Y00439844
X00466561Y00468644
X00448452Y00461938
X00450504Y00500405
X00458972Y00507993
X0049071Y00504676
X00502215Y00524206
X00531532Y00507993
Y00492823
X00523315Y0047093
X00510361Y00469212
X00545691Y00464614
X00539594Y00454508
X00550896Y0048103
X00562307Y00430238
X00558709Y00418792
X00520819Y00432706
X00624232Y00460558
X00685086
X00698051Y00452138
X00714226Y00444657
X00729288Y00444123
X00749862Y00460558
X00768166Y00461773
X00797282Y00469297
X00787131Y00481158
X0081015Y00497908
X00698051Y0048103
X00674543Y00489221
X0064672Y00504583
X0056279Y00300522
X00569823Y00284501
X00571083Y0014233
X00556823Y00143116
X00534796Y00151067
X00539872Y00162615
X00446929Y0021436
X00446435Y00223018
X00438731Y00162615
X00431558
Y00154644
X00438556
X00274928Y00177959
X00263627
X00249746Y001781
X00249522Y00185413
X00249269Y0019315
X00248461Y00200652
X00237936Y002108
X00238103Y00219001
X00228661Y00218329
Y002108
X00237936Y00229533
X00199405Y00228627
X001833Y00228435
X00183422Y00212417
X00158709Y00222433
X00132373Y00191969
X001876Y00157448
X00178787Y00305017
X00191146Y00329501
X00248094Y00363328
X00248686Y003862
X00252235Y0042965
X00237936
X00225676Y00428221
X00217951Y00428669
X00270223Y00428304
Y00421097
Y00413496
X00292677Y00437447
X00315263Y00437004
X00314575Y00460538
X00329305Y00454125
X00342818Y00435882
X00366993Y00440159
X00367493Y00454713
X00360547Y00420163
X00350335Y00402735
X00334646Y00403487
X00336209Y00385418
X00351619Y00379307
X00366893Y0037195
X00342818Y00359135
X0032512Y00355898
X00346142Y00329501
X00362723Y00333733
X004178Y00339636
X00431558Y00334723
X00432693Y00361865
X00417673Y00365704
X00423133Y00394682
X00443374Y00393309
X00443677Y0038704
X0044391Y00381323
X00443709Y00400141
X00443374Y00405926
X0044391Y00437447
X00427073Y00436381
X00417673Y00428669
X00402089Y00428304
X00387359Y00405796
Y00393394
X00427073Y00461938
X0042489Y00507993
X00440773Y00507229
X00405732Y00507993
X00389915
X00396521Y00517182
X00379177Y00528641
X00347457Y00529437
X0034848Y00513581
X00336803Y00509953
X00324501Y00498339
X00283701Y00494714
X00283128Y00524206
X00294279Y00530716
X00260036Y00532258
X00268462Y00515928
X00219162Y00520087
X00205649Y00511685
X00215017Y0049834
X00198643Y00492144
X00292536Y00469237
X00106737Y00526546
X00013474Y00401843
X00106969Y0054851
X00097414Y00612344
X00097202Y00625745
X001076Y0065116
X00164218Y00662523
X00216611Y00661575
X00226386Y00650956
X00216611Y00623036
X00201037Y0062659
X00216186Y00702374
Y00724895
X00200782Y00738867
X0024839Y00739297
X00255681Y00715599
X00252569Y00701443
X00277983Y00701338
X0031551Y00701126
X00325699Y00709273
X0032264Y0065652
X00310101Y00668239
X00305198Y00648365
X00359975Y00643218
X00341092Y00619853
Y00602996
X00339521Y00573397
X00346805Y00555737
X00308436Y00559515
X00260739Y00555737
X00252201Y0055625
X00264568Y00586772
X00281239Y00598335
X00231747Y00709401
X00305112Y00753527
X00304145Y00764998
X004178Y00570588
X00414766Y00548139
X00428786Y00548396
X00440477
X00435255Y00582864
X00405732Y00555737
X00396521Y00541353
X00450375Y00548396
X00484366Y00545502
X00502215Y00548139
X00481684Y00570906
X00456425Y0058395
X00519712Y00597038
X00531793Y00602996
X00546895Y00600774
X0055258Y00592102
X00565374Y00591009
Y00600774
X00571085Y00615595
X00556843Y0062879
X00538023Y0062877
X00515261Y00639195
X00509823Y00609959
X00529625Y0057801
X00565374Y00576429
X00559452Y00568682
X0057956Y00578665
X005862Y00589646
X00586813Y00600499
X00586804Y00630021
Y00647257
X00602131Y00620368
X00615894Y00628753
X00626233Y00593814
X00652338Y00573793
X00659233Y00570906
X00668648
X00679013
X00600707Y00569307
X0054415Y00553155
X00526264Y0066512
X00534625Y00677586
X00516399Y00677773
X00505153Y00668239
X00494492Y0067277
X00494903Y0068527
X00484366Y00667048
X00505153Y00707838
X00494387Y00720636
X00517229Y00722
X00528983Y0073077
X00529625Y00740474
X00505698
X00483506Y00735992
Y00749271
X00493302Y00766548
X00567749Y00767816
X00551985Y00722
Y00705389
X00574879Y0068527
X00605868Y0079177
X00640697Y00801715
X00841452Y00628105
Y00584796
X00825324Y00540295
X00901775Y0060877
X00901452Y00640601
X00871657Y006637
X00857855Y00689893
T03
X0084458Y00407164
Y00414202
X00844627Y00421336
X00697253Y00412723
X00683328Y00408117
X00683973Y00401339
X00671425Y00400616
X00671313Y00407901
Y0041678
X00660131Y00410919
X0066092Y00401339
X00648486Y00401199
X00648374Y0041058
X00635113
X00635074Y00401199
X00622068Y00401339
X00622198Y00410917
X00610579Y00411087
X00610833Y00400925
X00539676Y00421387
X00530485Y00421703
X00530995Y00414606
X00522576Y00421703
X00513321Y00421753
Y00413496
X0049071Y00400575
X00471302Y00402735
X0046401Y00396138
X00463924Y00383522
X00454709Y00421387
X00443872Y00637734
X00443781Y00644967
X00443126Y00652088
X00434471Y00651736
X00434783Y00644881
X0043496Y00637028
X00434871Y00630057
X00443906Y00677703
Y00686842
Y00697651
Y00708704
Y00720636
Y00731636
X00428474Y00732035
X00414058Y00731169
X00402368
X003903
X00377263Y00732035
X00362871
X00348398
X00347457Y0074998
X003611
X0037414Y00749495
X00387265
X00401771
X0041429Y00749681
X0042949Y00749334
X0042897Y00767816
X0041429Y00767984
X00399784Y00768159
X00386659Y00768072
X00373619
X00359975Y00767986
X00347799Y00767986
X00339706Y00779084
X00331155Y0077927
X00321954Y00778992
X00313311
X00305226Y0077927
X00308641Y00721648
X00308829Y00712538
X00280109Y00725831
X00269142Y00725924
X00264678Y007341
X00275647Y00734102
X00351177Y00714574
X00365177
Y00700574
X00379177
X00391877Y00700405
X00402368Y00700804
X00414058Y00701373
X00427694
X00426909Y00714574
X00413537
X00402368
X00391877
X00379177
Y00686574
X00391877Y00686877
X00402368
X00414058
X00425405Y00686203
X00365177Y00686574
X00351177
Y00700574
X00439429Y00778341
X00219162Y00588074
X00211325
X00175186Y00590985
Y00600287
X00174724Y00609488
X00174056Y00618452
X00155592Y00606146
X00162223Y0059736
X00148673
X00148929Y00586787
X00157268
X0016614
X00138585
X00127717
X00118709
X00236991Y00558758
X00252201Y00548396
X00452343Y00638969
X00452342Y00645499
X00452019Y00652088
X00456346Y00676894
X00455199Y00702837
X00449281Y00778155
X0048113Y00778694
T04
X00165118Y00243396
X00191726Y00263702
T05
X00558709Y00497443
X00567261Y00492888
X00579818Y0049284
X00591343Y004932
X00559452Y00510333
X00560134Y00522885
X00559452Y00532116
X00046218Y00696598
X00046075Y00717295
X00046218Y00740419
X00046503Y00761402
X00061206Y00761668
X00079657
X00097911
X0011733
X0013466
Y00740308
X0011733
X00097911
X00079657
X00061206
X00060344Y00718175
X00078796
X0009705
X00116469
X00133799
X0013466Y00698168
X0011733
X00097911
X00079657
X00061206
X00062584Y00783996
X00081036
X0009929
X00118709
X00136039
X00623472Y00770581
X00624232Y00755924
Y00739057
Y00721683
X00636101Y00725389
X00653043Y00725566
X00652514Y00708977
X00636101Y00708094
X00624232Y00705389
X0062513Y0069141
X00635748Y00692035
X00653043Y00691506
X00635923Y00674213
X0062513Y0067841
Y00666034
X00625202Y00653109
X0062513Y00642814
X0063613
X00646792Y00643831
X00658919Y00642814
X00670909Y00642021
X0068463
X0072132Y0062727
X00737615
X00756977
X00773843
X0078842
Y00644828
Y00656612
X00805766Y00656973
X00806092Y00644828
X00807512Y0062727
X00805993Y00672473
X00806214Y00686251
X00806437Y00700113
Y0071698
Y00734354
Y00750648
X0078887Y00725215
X00788343Y007088
X0078887Y00691684
X00771578Y00691682
X00771224Y0070827
X00771399Y00725744
X007414Y00721683
X00741174Y00705389
X00740285Y00690269
X00723419
X00724308Y00705389
X00706933
X00706044Y00690269
X0068975
X00690639Y00705389
X0068975Y00721683
X00706205Y00722549
X00724916
X00717234Y00774554
X00700234
X00686713Y00759286
X00669417Y00759465
X00674007Y00770581
X00657141
X00639766
X00653712Y00807582
X00666699
X00683565
X0070094
X00717234
X00739429
X00756295
X0077367
X00789964
X00811089Y00807277
X0083313
X00833302Y00706688
X00833026Y00686982
X00788166Y00674387
X00734234Y00774554
X00559452Y00553155
Y00543918
X00879822Y0054959
Y00559149
Y00569563
X00855227Y00679473
X00843018
X00848501Y00779045
X0084734Y00790637
X00848199Y00805109
X00865066
X00864207Y00790637
X00864292Y00779045
X00882742
X00881581Y00790637
X0088244Y00805109
X00898734
X00897875Y00790637
X00898779Y00779045
T06
X0082578Y00159125
X00018341Y00446298
T07
X00381909Y00482273
X00394609
X00407309
X00420009
X00432709
Y00494973
X00420009
X00407309
X00394609
X00381909
T08
X00024549Y00010901
X00026422Y00038348
X00026746Y00065617
X00027864Y00091271
X00025283Y00135855
X00051832Y00136141
X00076955Y00135855
X00107078Y00118547
X00105561Y0009313
X00082141Y00091642
X000524Y00090527
X00050712Y00065617
X00049361Y00038348
X00051591Y00010901
X00077475
X00079101Y00039705
X00078966Y00063759
X00107766Y00065617
X00109456Y00038348
X00111444Y00012195
X00141798Y00014555
X00139568Y00038348
X00168408Y00038715
X00168056Y00014555
X00191865Y00015608
Y00040465
X00189764Y00068123
X00212171
X00235978Y00066723
X00256981Y00067775
X0024438Y00016308
X00218123Y00015608
X00273438Y00016308
X00286742Y00033463
X00166308Y00067773
X00140852Y00066733
X00108105Y00144691
X00107593Y00168783
X00108105Y00191488
X00108645Y00212417
X00075527Y00212935
X00075813Y00197234
X00075813Y00181817
Y00166402
X00076384Y00151557
X00051547Y00151842
X00052403Y00166687
X00051262Y00181246
X00050403Y00197236
X00051547Y0021322
X0005889Y0024403
X00067685Y00257232
X00081337Y00242876
X00168435Y00389322
X00193325
X00140303Y00478044
X00047029Y00256532
X00025673
X0003748Y0024403
X00024712Y00213506
X00026139Y00198661
X00025283Y00182103
X00025283Y00166973
Y00150986
T09
X00510094Y00486004
Y00498704
Y00511404
X00522794
Y00498704
Y00486004
T11
X00456533Y00320223
X00431133
X00405732
T12
X00389486Y00033546
X00440286
X00921338Y00049823
Y00100623
X00912701Y00167396
Y00218196
Y00268996
Y00319796
X00910401Y0039361
Y0044441
T13
X00043458Y00579527
Y00604927
Y00630327
M30
