G04*
G04 #@! TF.GenerationSoftware,Altium Limited,Altium Designer,21.3.2 (30)*
G04*
G04 Layer_Color=65535*
%FSLAX25Y25*%
%MOIN*%
G70*
G04*
G04 #@! TF.SameCoordinates,C802B3A6-08BF-4FCB-9CCF-05BD449E4A77*
G04*
G04*
G04 #@! TF.FilePolarity,Positive*
G04*
G01*
G75*
%ADD10C,0.00787*%
%ADD11C,0.00500*%
%ADD12C,0.03937*%
%ADD13C,0.01575*%
%ADD14C,0.00984*%
%ADD15C,0.00394*%
%ADD16C,0.00600*%
%ADD17C,0.00591*%
%ADD18C,0.01000*%
%ADD19C,0.00300*%
D10*
X68736Y55287D02*
G03*
X68736Y55287I-394J0D01*
G01*
X80783Y261998D02*
G03*
X80783Y261998I-394J0D01*
G01*
X321776Y196783D02*
G03*
X321776Y197571I0J394D01*
G01*
D02*
G03*
X321776Y196783I0J-394D01*
G01*
X152572Y126072D02*
G03*
X152572Y126072I-394J0D01*
G01*
X332193Y235692D02*
G03*
X332193Y235692I-394J0D01*
G01*
X95926Y117638D02*
G03*
X95926Y117638I-394J0D01*
G01*
X269716Y175134D02*
G03*
X268929Y175134I-394J0D01*
G01*
D02*
G03*
X269716Y175134I394J0D01*
G01*
X110070Y306525D02*
G03*
X110070Y306525I-394J0D01*
G01*
X318792Y317705D02*
G03*
X318792Y317705I-394J0D01*
G01*
X107190Y244273D02*
G03*
X106403Y244273I-394J0D01*
G01*
D02*
G03*
X107190Y244273I394J0D01*
G01*
X85506Y158893D02*
G03*
X85506Y158893I-394J0D01*
G01*
X338292Y243663D02*
G03*
X338292Y243663I-394J0D01*
G01*
X190923Y201340D02*
G03*
X190923Y201340I-394J0D01*
G01*
X133429Y189871D02*
G03*
X133035Y189871I-197J0D01*
G01*
D02*
G03*
X133429Y189871I197J0D01*
G01*
D02*
G03*
X133035Y189871I-197J0D01*
G01*
X94603Y60263D02*
Y79751D01*
X84761Y60263D02*
Y79751D01*
X345434Y142760D02*
X374961D01*
Y187169D01*
X345434D02*
X374961D01*
X345434Y142760D02*
Y187169D01*
X375724Y7411D02*
Y51820D01*
X346196Y7411D02*
X375724D01*
X346196D02*
Y51820D01*
X375724D01*
X86353Y146468D02*
X90487D01*
X141136Y215D02*
X185546D01*
X141136D02*
Y29743D01*
X185546D01*
Y215D02*
Y29743D01*
X213414Y277075D02*
X217745D01*
X130719Y60051D02*
X134653Y63985D01*
Y70681D01*
X101976Y60051D02*
X130719D01*
Y92729D02*
X134653Y88795D01*
Y82099D02*
Y88795D01*
X101976Y60051D02*
Y70681D01*
Y82099D02*
Y92729D01*
X130719D01*
X97247Y130942D02*
X103252D01*
X104629Y111040D02*
Y130332D01*
Y111040D02*
X117228D01*
Y130332D01*
X104629D02*
X117228D01*
X31508Y170292D02*
Y182891D01*
X12216Y170292D02*
X31508D01*
X12216D02*
Y182891D01*
X31508D01*
X32118Y184269D02*
Y190273D01*
X46550Y147810D02*
X73322D01*
Y158440D01*
Y169857D02*
Y180487D01*
X46550D02*
X73322D01*
X40644Y153716D02*
Y158440D01*
Y153716D02*
X46550Y147810D01*
X40644Y174582D02*
X46550Y180487D01*
X40644Y169857D02*
Y174582D01*
X12109Y220798D02*
Y248160D01*
Y220798D02*
X22838D01*
Y254144D01*
X17109D02*
X22838D01*
X187741Y149783D02*
X191874D01*
X301950Y157959D02*
X314549D01*
X301950D02*
Y177251D01*
X314549D01*
Y157959D02*
Y177251D01*
X315927Y157349D02*
X321931D01*
X301950Y132834D02*
X314549D01*
X301950D02*
Y152125D01*
X314549D01*
Y132834D02*
Y152125D01*
X315927Y132224D02*
X321931D01*
X249658Y213492D02*
Y219643D01*
Y199860D02*
Y206012D01*
X223674Y213492D02*
Y222744D01*
Y196760D02*
Y206012D01*
X246557Y222744D02*
X249658Y219643D01*
X246557Y196760D02*
X249658Y199860D01*
X223674Y222744D02*
X246557D01*
X223674Y196760D02*
X246557D01*
X347088Y276250D02*
X353240D01*
X333456D02*
X339608D01*
X347088Y302234D02*
X356340D01*
X330356D02*
X339608D01*
X353240Y276250D02*
X356340Y279350D01*
X330356D02*
X333456Y276250D01*
X356340Y279350D02*
Y302234D01*
X330356Y279350D02*
Y302234D01*
X141637Y206816D02*
X140587D01*
X141112D01*
Y204192D01*
X140587Y203668D01*
X140062D01*
X139538Y204192D01*
X142686Y206816D02*
X144785D01*
X143736D01*
Y203668D01*
X145835D02*
Y205767D01*
X146884Y206816D01*
X147934Y205767D01*
Y203668D01*
Y205242D01*
X145835D01*
X151082Y206291D02*
X150558Y206816D01*
X149508D01*
X148983Y206291D01*
Y204192D01*
X149508Y203668D01*
X150558D01*
X151082Y204192D01*
Y205242D01*
X150033D01*
X127900Y118799D02*
Y115257D01*
X129671D01*
X130262Y115847D01*
Y116438D01*
X129671Y117028D01*
X127900D01*
X129671D01*
X130262Y117619D01*
Y118209D01*
X129671Y118799D01*
X127900D01*
X131442Y115257D02*
X132623D01*
X132033D01*
Y118799D01*
X131442Y118209D01*
X340809Y56938D02*
Y55626D01*
Y56282D01*
X344089D01*
X344745Y55626D01*
Y54970D01*
X344089Y54314D01*
X340809Y58250D02*
Y60874D01*
X341465D01*
X344089Y58250D01*
X344745D01*
D11*
X18159Y313470D02*
G03*
X18159Y313470I-2784J0D01*
G01*
X48882Y48539D02*
Y88838D01*
X37752D02*
X48882D01*
X37752Y48539D02*
X48882D01*
X6714Y263470D02*
X67737D01*
Y322525D01*
X6714D02*
X67737D01*
X6714Y263470D02*
Y322525D01*
X21674Y311108D02*
Y315832D01*
X9076Y311108D02*
X11044D01*
X9076D02*
Y315832D01*
X13407Y307958D02*
X17737D01*
X11044Y311108D02*
Y315832D01*
Y317407D01*
X19706D01*
Y315832D02*
Y317407D01*
Y311108D02*
Y315832D01*
Y309533D02*
Y311108D01*
X17737Y309533D02*
X19706D01*
X13407D02*
X17737D01*
X11044D02*
X13407D01*
X11044D02*
Y311108D01*
X19706D02*
X21674D01*
X17737Y307958D02*
Y309533D01*
X13407Y307958D02*
Y309533D01*
X9076Y315832D02*
X11044D01*
X19706D02*
X21674D01*
X93874Y300187D02*
X98283D01*
X72496D02*
X76906D01*
X93874Y273809D02*
X98283D01*
X72496D02*
X76906D01*
X98283D02*
Y300187D01*
X72496Y273809D02*
Y300187D01*
X84957Y67645D02*
X94406D01*
X154737Y121328D02*
X184737D01*
X154737Y130816D02*
X184737D01*
Y121328D02*
Y130816D01*
X154737Y121328D02*
Y130816D01*
X5123Y93461D02*
Y106965D01*
Y129170D02*
Y142674D01*
X58273Y93461D02*
Y106965D01*
Y129170D02*
Y142674D01*
X5123Y93461D02*
X58273D01*
X5123Y142674D02*
X58273D01*
X337430Y239255D02*
Y243389D01*
X330107Y239255D02*
Y243389D01*
X102622Y43283D02*
X110299D01*
Y-13410D02*
Y18677D01*
X74866Y43283D02*
X82150D01*
X110299Y38756D02*
Y43283D01*
X74866Y-13410D02*
Y43283D01*
Y-13410D02*
X110299D01*
X84292Y116260D02*
Y118150D01*
Y122244D02*
Y124134D01*
X86930D01*
X84292Y116260D02*
X86930D01*
X114243Y212194D02*
X185109D01*
X114243Y335817D02*
X185109D01*
X114243Y310029D02*
Y335817D01*
X185109Y310029D02*
Y335817D01*
X233910Y308177D02*
Y314870D01*
X239028D01*
X233910Y236524D02*
Y244201D01*
Y236524D02*
X239028D01*
X321705D02*
X326823D01*
Y244201D01*
X321705Y314870D02*
X326823D01*
Y308177D02*
Y314870D01*
X378386Y238929D02*
Y250740D01*
X84227Y168440D02*
Y182338D01*
X103912Y168440D02*
Y182338D01*
X358263Y242899D02*
X362987D01*
X358263D02*
Y246836D01*
X362987D01*
Y242899D02*
Y246836D01*
X193285Y176438D02*
Y186389D01*
X195450Y188555D01*
X193285Y206291D02*
Y216242D01*
Y206291D02*
X195450Y204125D01*
X193285Y216242D02*
X213364D01*
Y176438D02*
Y216242D01*
X193285Y176438D02*
X213364D01*
X195450Y188555D02*
Y204125D01*
X159855Y134955D02*
Y131956D01*
X161354D01*
X161854Y132455D01*
Y132955D01*
X161354Y133455D01*
X159855D01*
X161354D01*
X161854Y133955D01*
Y134455D01*
X161354Y134955D01*
X159855D01*
X162854Y131956D02*
Y133955D01*
X163854Y134955D01*
X164853Y133955D01*
Y131956D01*
Y133455D01*
X162854D01*
X165853Y134955D02*
X167852D01*
X166853D01*
Y131956D01*
X168852Y134955D02*
X170851D01*
X169852D01*
Y131956D01*
X173850Y134955D02*
X171851D01*
Y131956D01*
X173850D01*
X171851Y133455D02*
X172851D01*
X174850Y131956D02*
Y134955D01*
X176350D01*
X176849Y134455D01*
Y133455D01*
X176350Y132955D01*
X174850D01*
X175850D02*
X176849Y131956D01*
X177849Y134955D02*
Y134455D01*
X178849Y133455D01*
X179848Y134455D01*
Y134955D01*
X178849Y133455D02*
Y131956D01*
X1226Y217356D02*
Y218689D01*
Y218022D01*
X3226D01*
Y219355D02*
X1226D01*
Y220355D01*
X1560Y220688D01*
X2226D01*
X2559Y220355D01*
Y219355D01*
X3559Y221355D02*
Y222688D01*
X1226Y223354D02*
X3226D01*
Y224687D01*
X1226Y225353D02*
Y226686D01*
Y226020D01*
X3226D01*
X1226Y227353D02*
X3226Y228686D01*
X1226D02*
X3226Y227353D01*
Y229352D02*
Y230019D01*
Y229685D01*
X1226D01*
X1560Y229352D01*
X7589Y205302D02*
X8922D01*
X8256D01*
Y203303D01*
X9588D02*
Y205302D01*
X10588D01*
X10921Y204969D01*
Y204303D01*
X10588Y203970D01*
X9588D01*
X11588Y202970D02*
X12921D01*
X13587Y205302D02*
Y203303D01*
X14920D01*
X15586D02*
Y205302D01*
X16586D01*
X16919Y204969D01*
Y204303D01*
X16586Y203970D01*
X15586D01*
X16253D02*
X16919Y203303D01*
X17586Y205302D02*
X18919Y203303D01*
Y205302D02*
X17586Y203303D01*
X19585D02*
X20252D01*
X19918D01*
Y205302D01*
X19585Y204969D01*
X324977Y175976D02*
Y177976D01*
X325976D01*
X326310Y177643D01*
Y176976D01*
X325976Y176643D01*
X324977D01*
X325643D02*
X326310Y175976D01*
X328309Y177976D02*
X327642Y177643D01*
X326976Y176976D01*
Y176310D01*
X327309Y175976D01*
X327976D01*
X328309Y176310D01*
Y176643D01*
X327976Y176976D01*
X326976D01*
X150309Y130750D02*
X149310D01*
X149809D01*
Y128250D01*
X149310Y127751D01*
X148810D01*
X148310Y128250D01*
X152808Y127751D02*
Y130750D01*
X151309Y129250D01*
X153308D01*
X291181Y165393D02*
X293181D01*
Y166393D01*
X292847Y166726D01*
X292514D01*
X292181Y166393D01*
Y165393D01*
Y166393D01*
X291848Y166726D01*
X291514D01*
X291181Y166393D01*
Y165393D01*
X293181Y168392D02*
X291181D01*
X292181Y167393D01*
Y168726D01*
D12*
X65375Y326462D02*
G03*
X65375Y326462I-394J0D01*
G01*
D13*
X93370Y48401D02*
G03*
X93370Y48401I-787J0D01*
G01*
D14*
X180988Y152024D02*
G03*
X180988Y152024I-492J0D01*
G01*
X245125Y225529D02*
G03*
X245125Y225529I-492J0D01*
G01*
D15*
X254614Y205543D02*
G03*
X254614Y205937I0J197D01*
G01*
D02*
G03*
X254614Y205543I0J-197D01*
G01*
X344596Y269094D02*
G03*
X344596Y268701I0J-197D01*
G01*
D02*
G03*
X344596Y269094I0J197D01*
G01*
X148960Y160276D02*
G03*
X148960Y160669I0J197D01*
G01*
D02*
G03*
X148960Y160276I0J-197D01*
G01*
X363972Y244867D02*
G03*
X363972Y244867I-197J0D01*
G01*
X291685Y224453D02*
X315307D01*
X291488Y198547D02*
X315504D01*
Y207563D02*
Y215500D01*
X346339Y138109D02*
X375867D01*
X346339Y53384D02*
Y138109D01*
Y53384D02*
X375867D01*
Y138109D01*
X242047Y145044D02*
Y168666D01*
X267952Y144847D02*
Y168862D01*
X250999D02*
X258937D01*
X108765Y223899D02*
Y240336D01*
X96167Y223899D02*
Y240336D01*
X135456Y182332D02*
Y202411D01*
X185259D01*
Y182332D02*
Y202411D01*
X150230Y184655D02*
X170486D01*
X147907Y182332D02*
X150230Y184655D01*
X135456Y182332D02*
X147907D01*
X170486Y184655D02*
X172809Y182332D01*
X185259D01*
X89601Y137807D02*
X87502D01*
X86453Y138856D01*
X87502Y139906D01*
X89601D01*
X88027D01*
Y137807D01*
X86453Y153161D02*
X89601D01*
X88552D01*
X86453Y155260D01*
X88027Y153686D01*
X89601Y155260D01*
X191775Y143090D02*
X188626D01*
X189676D01*
X191775Y140991D01*
X190201Y142566D01*
X188626Y140991D01*
Y158445D02*
X190725D01*
X191775Y157395D01*
X190725Y156346D01*
X188626D01*
X190201D01*
Y158445D01*
X6788Y168798D02*
Y170373D01*
X7575D01*
X7838Y170110D01*
Y169586D01*
X7575Y169323D01*
X6788D01*
X7313D02*
X7838Y168798D01*
X8363D02*
X8887D01*
X8625D01*
Y170373D01*
X8363Y170110D01*
X9674Y168798D02*
X10199D01*
X9937D01*
Y170373D01*
X9674Y170110D01*
X3621Y192711D02*
X2047D01*
Y193498D01*
X2310Y193760D01*
X2834D01*
X3097Y193498D01*
Y192711D01*
Y193236D02*
X3621Y193760D01*
Y195335D02*
Y194285D01*
X2572Y195335D01*
X2310D01*
X2047Y195072D01*
Y194548D01*
X2310Y194285D01*
X359422Y249826D02*
Y248514D01*
X359684Y248252D01*
X360209D01*
X360471Y248514D01*
Y249826D01*
X360996Y249564D02*
X361258Y249826D01*
X361783D01*
X362046Y249564D01*
Y249301D01*
X361783Y249039D01*
X362046Y248777D01*
Y248514D01*
X361783Y248252D01*
X361258D01*
X360996Y248514D01*
Y248777D01*
X361258Y249039D01*
X360996Y249301D01*
Y249564D01*
X361258Y249039D02*
X361783D01*
X338762Y240081D02*
X340730D01*
X341123Y240475D01*
Y241262D01*
X340730Y241655D01*
X338762D01*
Y244017D02*
X339156Y243230D01*
X339943Y242443D01*
X340730D01*
X341123Y242836D01*
Y243623D01*
X340730Y244017D01*
X340336D01*
X339943Y243623D01*
Y242443D01*
X254584Y335820D02*
X256683D01*
X255634D01*
Y332671D01*
X257733D02*
Y335820D01*
X259307D01*
X259832Y335295D01*
Y334246D01*
X259307Y333721D01*
X257733D01*
X260882Y332147D02*
X262981D01*
X264030Y332671D02*
Y335820D01*
X265604D01*
X266129Y335295D01*
Y334246D01*
X265604Y333721D01*
X264030D01*
X267179Y335820D02*
Y332671D01*
X268228Y333721D01*
X269278Y332671D01*
Y335820D01*
X270327Y332671D02*
Y335820D01*
X271902D01*
X272426Y335295D01*
Y334246D01*
X271902Y333721D01*
X270327D01*
X271377D02*
X272426Y332671D01*
X273476Y335820D02*
Y332671D01*
Y333721D01*
X275575Y335820D01*
X274001Y334246D01*
X275575Y332671D01*
X278724Y335820D02*
X276624D01*
Y332671D01*
X278724D01*
X276624Y334246D02*
X277674D01*
X279773Y335820D02*
Y335295D01*
X280823Y334246D01*
X281872Y335295D01*
Y335820D01*
X280823Y334246D02*
Y332671D01*
X324157Y202358D02*
X326256D01*
X325207D01*
Y199210D01*
X327306D02*
Y202358D01*
X328880D01*
X329405Y201833D01*
Y200784D01*
X328880Y200259D01*
X327306D01*
X330454Y198685D02*
X332553D01*
X333603Y201833D02*
X334128Y202358D01*
X335177D01*
X335702Y201833D01*
Y201309D01*
X335177Y200784D01*
X334652D01*
X335177D01*
X335702Y200259D01*
Y199734D01*
X335177Y199210D01*
X334128D01*
X333603Y199734D01*
X336752Y202358D02*
Y200259D01*
X337801Y199210D01*
X338851Y200259D01*
Y202358D01*
X339900Y201833D02*
X340425Y202358D01*
X341474D01*
X341999Y201833D01*
Y201309D01*
X341474Y200784D01*
X341999Y200259D01*
Y199734D01*
X341474Y199210D01*
X340425D01*
X339900Y199734D01*
Y200259D01*
X340425Y200784D01*
X339900Y201309D01*
Y201833D01*
X340425Y200784D02*
X341474D01*
X337549Y249935D02*
Y248361D01*
X338598D01*
X339123D02*
X339648D01*
X339385D01*
Y249935D01*
X339123Y249673D01*
X282721Y116072D02*
Y112924D01*
Y113973D01*
X284820Y116072D01*
X283245Y114498D01*
X284820Y112924D01*
X287968D02*
X285869D01*
X287968Y115023D01*
Y115548D01*
X287444Y116072D01*
X286394D01*
X285869Y115548D01*
X206240Y79790D02*
X205715Y79265D01*
Y78215D01*
X206240Y77691D01*
X208339D01*
X208863Y78215D01*
Y79265D01*
X208339Y79790D01*
X208863Y80839D02*
X205715D01*
Y82413D01*
X206240Y82938D01*
X207289D01*
X207814Y82413D01*
Y80839D01*
Y81889D02*
X208863Y82938D01*
Y86087D02*
Y83988D01*
X206764Y86087D01*
X206240D01*
X205715Y85562D01*
Y84512D01*
X206240Y83988D01*
X212797Y22958D02*
X212273Y23482D01*
X211223D01*
X210698Y22958D01*
Y20859D01*
X211223Y20334D01*
X212273D01*
X212797Y20859D01*
X213847Y20334D02*
Y23482D01*
X215421D01*
X215946Y22958D01*
Y21908D01*
X215421Y21383D01*
X213847D01*
X214896D02*
X215946Y20334D01*
X216995D02*
X218045D01*
X217520D01*
Y23482D01*
X216995Y22958D01*
X347398Y251573D02*
X347136Y251835D01*
X346611D01*
X346349Y251573D01*
Y250523D01*
X346611Y250261D01*
X347136D01*
X347398Y250523D01*
X348710Y250261D02*
Y251835D01*
X347923Y251048D01*
X348973D01*
X350547Y251835D02*
X350022Y251573D01*
X349497Y251048D01*
Y250523D01*
X349760Y250261D01*
X350284D01*
X350547Y250523D01*
Y250786D01*
X350284Y251048D01*
X349497D01*
X341693Y247304D02*
X341431Y247567D01*
X340906D01*
X340644Y247304D01*
Y246255D01*
X340906Y245992D01*
X341431D01*
X341693Y246255D01*
X343005Y245992D02*
Y247567D01*
X342218Y246779D01*
X343268D01*
X344580Y245992D02*
Y247567D01*
X343792Y246779D01*
X344842D01*
X152143Y153691D02*
X151619Y154215D01*
X150569D01*
X150044Y153691D01*
Y151592D01*
X150569Y151067D01*
X151619D01*
X152143Y151592D01*
X154767Y151067D02*
Y154215D01*
X153193Y152641D01*
X155292D01*
X156342Y153691D02*
X156866Y154215D01*
X157916D01*
X158441Y153691D01*
Y153166D01*
X157916Y152641D01*
X157391D01*
X157916D01*
X158441Y152116D01*
Y151592D01*
X157916Y151067D01*
X156866D01*
X156342Y151592D01*
X168138Y161299D02*
Y160643D01*
Y160971D01*
X166171D01*
Y161299D01*
Y160643D01*
X167810Y158347D02*
X168138Y158675D01*
Y159331D01*
X167810Y159659D01*
X166498D01*
X166171Y159331D01*
Y158675D01*
X166498Y158347D01*
X166171Y157692D02*
Y157036D01*
Y157363D01*
X168138D01*
X167810Y157692D01*
X97572Y99441D02*
X96917Y100097D01*
X95605D01*
X94949Y99441D01*
Y96817D01*
X95605Y96161D01*
X96917D01*
X97572Y96817D01*
X98884Y99441D02*
X99540Y100097D01*
X100852D01*
X101508Y99441D01*
Y98785D01*
X100852Y98129D01*
X100196D01*
X100852D01*
X101508Y97473D01*
Y96817D01*
X100852Y96161D01*
X99540D01*
X98884Y96817D01*
X102820Y100097D02*
X105444D01*
Y99441D01*
X102820Y96817D01*
Y96161D01*
X72162Y62247D02*
X71506Y62903D01*
X70194D01*
X69538Y62247D01*
Y59624D01*
X70194Y58968D01*
X71506D01*
X72162Y59624D01*
X73474Y62247D02*
X74130Y62903D01*
X75442D01*
X76098Y62247D01*
Y61591D01*
X75442Y60935D01*
X74786D01*
X75442D01*
X76098Y60280D01*
Y59624D01*
X75442Y58968D01*
X74130D01*
X73474Y59624D01*
X77410Y62247D02*
X78066Y62903D01*
X79378D01*
X80034Y62247D01*
Y61591D01*
X79378Y60935D01*
X78722D01*
X79378D01*
X80034Y60280D01*
Y59624D01*
X79378Y58968D01*
X78066D01*
X77410Y59624D01*
X2849Y97097D02*
Y93817D01*
X3505Y93161D01*
X4817D01*
X5472Y93817D01*
Y97097D01*
X6784D02*
X9408D01*
Y96441D01*
X6784Y93817D01*
Y93161D01*
X221615Y185733D02*
X222927D01*
X222271D01*
Y183765D01*
X223583D02*
Y185733D01*
X224567D01*
X224895Y185405D01*
Y184749D01*
X224567Y184421D01*
X223583D01*
X225551Y183437D02*
X226863D01*
X227519Y185733D02*
Y184421D01*
X228175Y183765D01*
X228831Y184421D01*
Y185733D01*
X229487D02*
Y183765D01*
X230471D01*
X230799Y184093D01*
Y184421D01*
X230471Y184749D01*
X229487D01*
X230471D01*
X230799Y185077D01*
Y185405D01*
X230471Y185733D01*
X229487D01*
X231455D02*
X232767D01*
X232111D01*
Y183765D01*
X233423Y185733D02*
Y185405D01*
X234079Y184749D01*
X234735Y185405D01*
Y185733D01*
X234079Y184749D02*
Y183765D01*
X235390Y183437D02*
X236702D01*
X238670Y185405D02*
X238342Y185733D01*
X237686D01*
X237358Y185405D01*
Y184093D01*
X237686Y183765D01*
X238342D01*
X238670Y184093D01*
X239326Y185733D02*
Y183765D01*
Y184749D01*
X240638D01*
Y185733D01*
Y183765D01*
X241294D02*
X241950D01*
X241622D01*
Y185733D01*
X241294Y185405D01*
X3342Y175940D02*
X1374D01*
Y176924D01*
X1702Y177252D01*
X2358D01*
X2686Y176924D01*
Y175940D01*
Y176596D02*
X3342Y177252D01*
X1702Y177908D02*
X1374Y178236D01*
Y178892D01*
X1702Y179220D01*
X2030D01*
X2358Y178892D01*
Y178564D01*
Y178892D01*
X2686Y179220D01*
X3014D01*
X3342Y178892D01*
Y178236D01*
X3014Y177908D01*
X1374Y181188D02*
Y179876D01*
X2358D01*
X2030Y180532D01*
Y180860D01*
X2358Y181188D01*
X3014D01*
X3342Y180860D01*
Y180204D01*
X3014Y179876D01*
X215724Y162855D02*
X217298D01*
Y162067D01*
X217036Y161805D01*
X216511D01*
X216249Y162067D01*
Y162855D01*
Y162330D02*
X215724Y161805D01*
X217036Y161280D02*
X217298Y161018D01*
Y160493D01*
X217036Y160231D01*
X216773D01*
X216511Y160493D01*
Y160756D01*
Y160493D01*
X216249Y160231D01*
X215986D01*
X215724Y160493D01*
Y161018D01*
X215986Y161280D01*
X215724Y158919D02*
X217298D01*
X216511Y159706D01*
Y158656D01*
X203727Y146565D02*
X202153D01*
Y147352D01*
X202415Y147614D01*
X202940D01*
X203202Y147352D01*
Y146565D01*
Y147090D02*
X203727Y147614D01*
X202415Y148139D02*
X202153Y148401D01*
Y148926D01*
X202415Y149189D01*
X202677D01*
X202940Y148926D01*
Y148664D01*
Y148926D01*
X203202Y149189D01*
X203465D01*
X203727Y148926D01*
Y148401D01*
X203465Y148139D01*
X202415Y149713D02*
X202153Y149976D01*
Y150501D01*
X202415Y150763D01*
X202677D01*
X202940Y150501D01*
Y150238D01*
Y150501D01*
X203202Y150763D01*
X203465D01*
X203727Y150501D01*
Y149976D01*
X203465Y149713D01*
X200268Y143444D02*
Y141477D01*
X199284D01*
X198956Y141805D01*
Y142461D01*
X199284Y142789D01*
X200268D01*
X199612D02*
X198956Y143444D01*
X198300Y141805D02*
X197972Y141477D01*
X197316D01*
X196988Y141805D01*
Y142132D01*
X197316Y142461D01*
X197644D01*
X197316D01*
X196988Y142789D01*
Y143116D01*
X197316Y143444D01*
X197972D01*
X198300Y143116D01*
X195020Y143444D02*
X196332D01*
X195020Y142132D01*
Y141805D01*
X195348Y141477D01*
X196004D01*
X196332Y141805D01*
X170466Y169434D02*
Y171402D01*
X171449D01*
X171777Y171074D01*
Y170418D01*
X171449Y170090D01*
X170466D01*
X171121D02*
X171777Y169434D01*
X172433Y171074D02*
X172761Y171402D01*
X173417D01*
X173745Y171074D01*
Y170746D01*
X173417Y170418D01*
X173089D01*
X173417D01*
X173745Y170090D01*
Y169762D01*
X173417Y169434D01*
X172761D01*
X172433Y169762D01*
X174401Y169434D02*
X175057D01*
X174729D01*
Y171402D01*
X174401Y171074D01*
X83939Y108203D02*
X81971D01*
Y109187D01*
X82299Y109515D01*
X82955D01*
X83283Y109187D01*
Y108203D01*
Y108859D02*
X83939Y109515D01*
Y111483D02*
Y110171D01*
X82627Y111483D01*
X82299D01*
X81971Y111155D01*
Y110499D01*
X82299Y110171D01*
X83939Y113451D02*
Y112139D01*
X82627Y113451D01*
X82299D01*
X81971Y113122D01*
Y112467D01*
X82299Y112139D01*
X185172Y153063D02*
X183204D01*
Y151751D01*
X185172Y149783D02*
Y151095D01*
X183204D01*
Y149783D01*
X184188Y151095D02*
Y150439D01*
X185172Y149127D02*
X183204D01*
Y148143D01*
X183532Y147816D01*
X184844D01*
X185172Y148143D01*
Y149127D01*
X183204Y147160D02*
Y146504D01*
Y146832D01*
X185172D01*
X184844Y147160D01*
X1535Y171240D02*
X1272Y171502D01*
X748D01*
X485Y171240D01*
Y170190D01*
X748Y169928D01*
X1272D01*
X1535Y170190D01*
X2059Y171240D02*
X2322Y171502D01*
X2847D01*
X3109Y171240D01*
Y170978D01*
X2847Y170715D01*
X2584D01*
X2847D01*
X3109Y170453D01*
Y170190D01*
X2847Y169928D01*
X2322D01*
X2059Y170190D01*
X4421Y169928D02*
Y171502D01*
X3634Y170715D01*
X4683D01*
X88537Y109795D02*
X88209Y109468D01*
Y108812D01*
X88537Y108484D01*
X89849D01*
X90177Y108812D01*
Y109468D01*
X89849Y109795D01*
X88209Y111763D02*
X88537Y111107D01*
X89193Y110451D01*
X89849D01*
X90177Y110780D01*
Y111435D01*
X89849Y111763D01*
X89521D01*
X89193Y111435D01*
Y110451D01*
X88537Y112419D02*
X88209Y112747D01*
Y113403D01*
X88537Y113731D01*
X89849D01*
X90177Y113403D01*
Y112747D01*
X89849Y112419D01*
X88537D01*
X51125Y176821D02*
X51781Y177476D01*
Y178788D01*
X51125Y179444D01*
X48501D01*
X47845Y178788D01*
Y177476D01*
X48501Y176821D01*
X51781Y172885D02*
Y175509D01*
X49813D01*
X50469Y174197D01*
Y173541D01*
X49813Y172885D01*
X48501D01*
X47845Y173541D01*
Y174853D01*
X48501Y175509D01*
Y171573D02*
X47845Y170917D01*
Y169605D01*
X48501Y168949D01*
X51125D01*
X51781Y169605D01*
Y170917D01*
X51125Y171573D01*
X50469D01*
X49813Y170917D01*
Y168949D01*
X51113Y146630D02*
X50458Y147286D01*
X49146D01*
X48490Y146630D01*
Y144006D01*
X49146Y143350D01*
X50458D01*
X51113Y144006D01*
X55049Y147286D02*
X52425D01*
Y145318D01*
X53737Y145974D01*
X54393D01*
X55049Y145318D01*
Y144006D01*
X54393Y143350D01*
X53081D01*
X52425Y144006D01*
X56361Y146630D02*
X57017Y147286D01*
X58329D01*
X58985Y146630D01*
Y145974D01*
X58329Y145318D01*
X58985Y144662D01*
Y144006D01*
X58329Y143350D01*
X57017D01*
X56361Y144006D01*
Y144662D01*
X57017Y145318D01*
X56361Y145974D01*
Y146630D01*
X57017Y145318D02*
X58329D01*
X91885Y54336D02*
X92541Y54992D01*
Y56304D01*
X91885Y56960D01*
X89261D01*
X88605Y56304D01*
Y54992D01*
X89261Y54336D01*
X92541Y50401D02*
Y53024D01*
X90573D01*
X91229Y51713D01*
Y51056D01*
X90573Y50401D01*
X89261D01*
X88605Y51056D01*
Y52368D01*
X89261Y53024D01*
X92541Y49089D02*
Y46465D01*
X91885D01*
X89261Y49089D01*
X88605D01*
X205236Y168742D02*
X204908Y169070D01*
X204252D01*
X203924Y168742D01*
Y167430D01*
X204252Y167102D01*
X204908D01*
X205236Y167430D01*
X207204Y169070D02*
X205892D01*
Y168086D01*
X206548Y168414D01*
X206876D01*
X207204Y168086D01*
Y167430D01*
X206876Y167102D01*
X206220D01*
X205892Y167430D01*
X207860Y168742D02*
X208188Y169070D01*
X208844D01*
X209172Y168742D01*
Y168414D01*
X208844Y168086D01*
X208516D01*
X208844D01*
X209172Y167758D01*
Y167430D01*
X208844Y167102D01*
X208188D01*
X207860Y167430D01*
X167400Y147646D02*
X167203Y147843D01*
X166810D01*
X166613Y147646D01*
Y146859D01*
X166810Y146662D01*
X167203D01*
X167400Y146859D01*
X168581Y147843D02*
X167794D01*
Y147253D01*
X168187Y147449D01*
X168384D01*
X168581Y147253D01*
Y146859D01*
X168384Y146662D01*
X167990D01*
X167794Y146859D01*
X168974Y147646D02*
X169171Y147843D01*
X169565D01*
X169762Y147646D01*
Y146859D01*
X169565Y146662D01*
X169171D01*
X168974Y146859D01*
Y147646D01*
X191885Y169968D02*
X191558Y170296D01*
X190902D01*
X190574Y169968D01*
Y168656D01*
X190902Y168328D01*
X191558D01*
X191885Y168656D01*
X193525Y168328D02*
Y170296D01*
X192542Y169312D01*
X193853D01*
X194509Y168656D02*
X194837Y168328D01*
X195493D01*
X195821Y168656D01*
Y169968D01*
X195493Y170296D01*
X194837D01*
X194509Y169968D01*
Y169640D01*
X194837Y169312D01*
X195821D01*
X37452Y180029D02*
X33516D01*
Y178061D01*
X34172Y177405D01*
X34828D01*
X35484Y178061D01*
Y180029D01*
Y178061D01*
X36140Y177405D01*
X36796D01*
X37452Y178061D01*
Y180029D01*
X33516Y173469D02*
Y176093D01*
X36140Y173469D01*
X36796D01*
X37452Y174125D01*
Y175437D01*
X36796Y176093D01*
X78728Y85331D02*
Y87299D01*
X79712D01*
X80040Y86971D01*
Y86315D01*
X79712Y85987D01*
X78728D01*
X79384D02*
X80040Y85331D01*
X80696Y86971D02*
X81024Y87299D01*
X81680D01*
X82008Y86971D01*
Y86643D01*
X81680Y86315D01*
X81352D01*
X81680D01*
X82008Y85987D01*
Y85659D01*
X81680Y85331D01*
X81024D01*
X80696Y85659D01*
X82664Y86971D02*
X82992Y87299D01*
X83648D01*
X83976Y86971D01*
Y85659D01*
X83648Y85331D01*
X82992D01*
X82664Y85659D01*
Y86971D01*
X151439Y177428D02*
X152619D01*
X152029D01*
Y173886D01*
X151439D01*
X152619D01*
X156752Y176837D02*
X156162Y177428D01*
X154981D01*
X154391Y176837D01*
Y174476D01*
X154981Y173886D01*
X156162D01*
X156752Y174476D01*
X157933Y176837D02*
X158523Y177428D01*
X159704D01*
X160294Y176837D01*
Y176247D01*
X159704Y175657D01*
X160294Y175066D01*
Y174476D01*
X159704Y173886D01*
X158523D01*
X157933Y174476D01*
Y175066D01*
X158523Y175657D01*
X157933Y176247D01*
Y176837D01*
X158523Y175657D02*
X159704D01*
X161547Y181263D02*
X160957Y180673D01*
Y179492D01*
X161547Y178902D01*
X163908D01*
X164499Y179492D01*
Y180673D01*
X163908Y181263D01*
X161547Y182444D02*
X160957Y183035D01*
Y184215D01*
X161547Y184806D01*
X162137D01*
X162728Y184215D01*
Y183625D01*
Y184215D01*
X163318Y184806D01*
X163908D01*
X164499Y184215D01*
Y183035D01*
X163908Y182444D01*
X143914Y179051D02*
X143324Y179641D01*
X142143D01*
X141553Y179051D01*
Y176689D01*
X142143Y176099D01*
X143324D01*
X143914Y176689D01*
X147457Y176099D02*
X145095D01*
X147457Y178460D01*
Y179051D01*
X146866Y179641D01*
X145686D01*
X145095Y179051D01*
X136702Y161130D02*
X137292Y160540D01*
X138473D01*
X139064Y161130D01*
Y163492D01*
X138473Y164082D01*
X137292D01*
X136702Y163492D01*
X135521Y164082D02*
X134341D01*
X134931D01*
Y160540D01*
X135521Y161130D01*
X66498Y110914D02*
X62562D01*
Y112881D01*
X63218Y113537D01*
X64530D01*
X65186Y112881D01*
Y110914D01*
Y112225D02*
X66498Y113537D01*
Y114849D02*
Y116161D01*
Y115505D01*
X62562D01*
X63218Y114849D01*
X94140Y60312D02*
X98075D01*
Y62280D01*
X97419Y62936D01*
X94796D01*
X94140Y62280D01*
Y60312D01*
X98075Y66215D02*
X94140D01*
X96108Y64248D01*
Y66871D01*
X88525Y125014D02*
X92461D01*
Y126982D01*
X91804Y127638D01*
X89181D01*
X88525Y126982D01*
Y125014D01*
X92461Y128950D02*
Y130262D01*
Y129606D01*
X88525D01*
X89181Y128950D01*
X61825Y216028D02*
X63924D01*
X62874D01*
Y212880D01*
X64973D02*
Y216028D01*
X66548D01*
X67072Y215504D01*
Y214454D01*
X66548Y213929D01*
X64973D01*
X68122Y212355D02*
X70221D01*
X73369Y215504D02*
X72845Y216028D01*
X71795D01*
X71271Y215504D01*
Y214979D01*
X71795Y214454D01*
X72845D01*
X73369Y213929D01*
Y213404D01*
X72845Y212880D01*
X71795D01*
X71271Y213404D01*
X74419Y216028D02*
Y212880D01*
X75993D01*
X76518Y213404D01*
Y215504D01*
X75993Y216028D01*
X74419D01*
X77568Y212880D02*
Y214979D01*
X78617Y216028D01*
X79667Y214979D01*
Y212880D01*
Y214454D01*
X77568D01*
X115528Y194108D02*
X117627D01*
X116577D01*
Y190959D01*
X118676D02*
Y194108D01*
X120251D01*
X120775Y193583D01*
Y192534D01*
X120251Y192009D01*
X118676D01*
X121825Y190435D02*
X123924D01*
X127073Y193583D02*
X126548Y194108D01*
X125498D01*
X124974Y193583D01*
Y193058D01*
X125498Y192534D01*
X126548D01*
X127073Y192009D01*
Y191484D01*
X126548Y190959D01*
X125498D01*
X124974Y191484D01*
X130221Y193583D02*
X129697Y194108D01*
X128647D01*
X128122Y193583D01*
Y191484D01*
X128647Y190959D01*
X129697D01*
X130221Y191484D01*
X131271Y194108D02*
Y190959D01*
X133370D01*
X190861Y190280D02*
Y189362D01*
Y189821D01*
X193157D01*
X193616Y189362D01*
Y188903D01*
X193157Y188444D01*
X193616Y191199D02*
Y192117D01*
Y191658D01*
X190861D01*
X191320Y191199D01*
Y193494D02*
X190861Y193954D01*
Y194872D01*
X191320Y195331D01*
X191779D01*
X192238Y194872D01*
Y194413D01*
Y194872D01*
X192697Y195331D01*
X193157D01*
X193616Y194872D01*
Y193954D01*
X193157Y193494D01*
X194083Y294022D02*
X195919D01*
X195001D01*
Y291266D01*
X196838D02*
Y294022D01*
X198215D01*
X198674Y293562D01*
Y292644D01*
X198215Y292185D01*
X196838D01*
X199593Y290807D02*
X201429D01*
X204184Y293562D02*
X203725Y294022D01*
X202807D01*
X202348Y293562D01*
Y293103D01*
X202807Y292644D01*
X203725D01*
X204184Y292185D01*
Y291726D01*
X203725Y291266D01*
X202807D01*
X202348Y291726D01*
X205103Y294022D02*
X206940D01*
X206021D01*
Y291266D01*
X207858D02*
Y293103D01*
X208776Y294022D01*
X209695Y293103D01*
Y291266D01*
Y292644D01*
X207858D01*
X210613Y294022D02*
X212450D01*
X211531D01*
Y291266D01*
X213368Y294022D02*
Y291726D01*
X213827Y291266D01*
X214745D01*
X215205Y291726D01*
Y294022D01*
X217959Y293562D02*
X217500Y294022D01*
X216582D01*
X216123Y293562D01*
Y293103D01*
X216582Y292644D01*
X217500D01*
X217959Y292185D01*
Y291726D01*
X217500Y291266D01*
X216582D01*
X216123Y291726D01*
X326215Y157342D02*
X328183D01*
Y156358D01*
X327855Y156030D01*
X327199D01*
X326871Y156358D01*
Y157342D01*
Y156686D02*
X326215Y156030D01*
Y155374D02*
Y154718D01*
Y155046D01*
X328183D01*
X327855Y155374D01*
X326215Y152422D02*
Y153734D01*
X327527Y152422D01*
X327855D01*
X328183Y152750D01*
Y153406D01*
X327855Y153734D01*
X326073Y147836D02*
X324105D01*
Y146852D01*
X324433Y146524D01*
X324761D01*
X325089Y146852D01*
Y147836D01*
Y146852D01*
X325417Y146524D01*
X325745D01*
X326073Y146852D01*
Y147836D01*
X325745Y145868D02*
X326073Y145540D01*
Y144884D01*
X325745Y144556D01*
X325417D01*
X325089Y144884D01*
Y145212D01*
Y144884D01*
X324761Y144556D01*
X324433D01*
X324105Y144884D01*
Y145540D01*
X324433Y145868D01*
X322099Y319987D02*
Y317691D01*
X322558Y317232D01*
X323476D01*
X323936Y317691D01*
Y319987D01*
X326231Y317232D02*
Y319987D01*
X324854Y318610D01*
X326691D01*
X167130Y208175D02*
X166081D01*
X166605D01*
Y205551D01*
X166081Y205026D01*
X165556D01*
X165031Y205551D01*
X170279Y205026D02*
X168180D01*
X170279Y207125D01*
Y207650D01*
X169754Y208175D01*
X168704D01*
X168180Y207650D01*
X71911Y256391D02*
X72239Y256063D01*
X72895D01*
X73223Y256391D01*
Y257703D01*
X72895Y258031D01*
X72239D01*
X71911Y257703D01*
X71255Y256391D02*
X70927Y256063D01*
X70271D01*
X69943Y256391D01*
Y256719D01*
X70271Y257047D01*
X70599D01*
X70271D01*
X69943Y257375D01*
Y257703D01*
X70271Y258031D01*
X70927D01*
X71255Y257703D01*
X69287D02*
X68959Y258031D01*
X68303D01*
X67975Y257703D01*
Y256391D01*
X68303Y256063D01*
X68959D01*
X69287Y256391D01*
Y256719D01*
X68959Y257047D01*
X67975D01*
X286525Y228802D02*
X287443D01*
X286984D01*
Y226047D01*
X286525D01*
X287443D01*
X290657Y228343D02*
X290198Y228802D01*
X289280D01*
X288820Y228343D01*
Y226507D01*
X289280Y226047D01*
X290198D01*
X290657Y226507D01*
X291575Y228343D02*
X292035Y228802D01*
X292953D01*
X293412Y228343D01*
Y227884D01*
X292953Y227425D01*
X292494D01*
X292953D01*
X293412Y226966D01*
Y226507D01*
X292953Y226047D01*
X292035D01*
X291575Y226507D01*
X200482Y312537D02*
X202581D01*
X201532D01*
Y309388D01*
X203631D02*
Y312537D01*
X205205D01*
X205730Y312012D01*
Y310963D01*
X205205Y310438D01*
X203631D01*
X206780Y308863D02*
X208878D01*
X209928Y309388D02*
Y312537D01*
X210978Y311487D01*
X212027Y312537D01*
Y309388D01*
X213077Y312537D02*
X215176D01*
X214126D01*
Y309388D01*
X216225Y312537D02*
X218324Y309388D01*
Y312537D02*
X216225Y309388D01*
X226440Y279934D02*
Y282033D01*
Y280983D01*
X229589D01*
Y283082D02*
X226440D01*
Y284657D01*
X226965Y285181D01*
X228014D01*
X228539Y284657D01*
Y283082D01*
X230113Y286231D02*
Y288330D01*
X229589Y289380D02*
X226440D01*
X227490Y290429D01*
X226440Y291479D01*
X229589D01*
Y292528D02*
X226440D01*
Y294102D01*
X226965Y294627D01*
X228014D01*
X228539Y294102D01*
Y292528D01*
Y293578D02*
X229589Y294627D01*
X226440Y295677D02*
X229589Y297776D01*
X226440D02*
X229589Y295677D01*
X271404Y144300D02*
X273240D01*
X272322D01*
Y141545D01*
X274159D02*
Y144300D01*
X275536D01*
X275995Y143841D01*
Y142923D01*
X275536Y142464D01*
X274159D01*
X276914Y141086D02*
X278750D01*
X279669Y143841D02*
X280128Y144300D01*
X281046D01*
X281505Y143841D01*
Y143382D01*
X281046Y142923D01*
X280587D01*
X281046D01*
X281505Y142464D01*
Y142004D01*
X281046Y141545D01*
X280128D01*
X279669Y142004D01*
X282424Y144300D02*
Y142464D01*
X283342Y141545D01*
X284260Y142464D01*
Y144300D01*
X285179Y143841D02*
X285638Y144300D01*
X286556D01*
X287016Y143841D01*
Y143382D01*
X286556Y142923D01*
X286097D01*
X286556D01*
X287016Y142464D01*
Y142004D01*
X286556Y141545D01*
X285638D01*
X285179Y142004D01*
X257160Y199828D02*
X259915D01*
Y201206D01*
X259456Y201665D01*
X257619D01*
X257160Y201206D01*
Y199828D01*
X259915Y204420D02*
Y202583D01*
X258079Y204420D01*
X257619D01*
X257160Y203961D01*
Y203043D01*
X257619Y202583D01*
X99219Y195289D02*
Y192993D01*
X99678Y192534D01*
X100597D01*
X101056Y192993D01*
Y195289D01*
X101974Y194829D02*
X102433Y195289D01*
X103352D01*
X103811Y194829D01*
Y194370D01*
X103352Y193911D01*
X102892D01*
X103352D01*
X103811Y193452D01*
Y192993D01*
X103352Y192534D01*
X102433D01*
X101974Y192993D01*
X107550Y323453D02*
Y321158D01*
X108009Y320698D01*
X108927D01*
X109387Y321158D01*
Y323453D01*
X112142Y320698D02*
X110305D01*
X112142Y322535D01*
Y322994D01*
X111682Y323453D01*
X110764D01*
X110305Y322994D01*
X270960Y140369D02*
X268664D01*
X268205Y139910D01*
Y138991D01*
X268664Y138532D01*
X270960D01*
X268205Y137614D02*
Y136696D01*
Y137155D01*
X270960D01*
X270501Y137614D01*
X92952Y226327D02*
X93411Y225868D01*
X94330D01*
X94789Y226327D01*
Y226786D01*
X94330Y227245D01*
X93411D01*
X92952Y227705D01*
Y228164D01*
X93411Y228623D01*
X94330D01*
X94789Y228164D01*
X92034Y228623D02*
X91115D01*
X91575D01*
Y225868D01*
X92034Y226327D01*
X220013Y239894D02*
Y242649D01*
X221391D01*
X221850Y242190D01*
Y241271D01*
X221391Y240812D01*
X220013D01*
X220931D02*
X221850Y239894D01*
X224605D02*
X222768D01*
X224605Y241730D01*
Y242190D01*
X224146Y242649D01*
X223227D01*
X222768Y242190D01*
X225523Y239894D02*
X226442D01*
X225982D01*
Y242649D01*
X225523Y242190D01*
X217179Y255791D02*
X214424D01*
Y257168D01*
X214883Y257627D01*
X215801D01*
X216261Y257168D01*
Y255791D01*
Y256709D02*
X217179Y257627D01*
Y260382D02*
Y258546D01*
X215342Y260382D01*
X214883D01*
X214424Y259923D01*
Y259005D01*
X214883Y258546D01*
Y261301D02*
X214424Y261760D01*
Y262678D01*
X214883Y263137D01*
X216720D01*
X217179Y262678D01*
Y261760D01*
X216720Y261301D01*
X214883D01*
X202124Y280200D02*
Y282955D01*
X203502D01*
X203961Y282496D01*
Y281577D01*
X203502Y281118D01*
X202124D01*
X203043D02*
X203961Y280200D01*
X204879D02*
X205798D01*
X205339D01*
Y282955D01*
X204879Y282496D01*
X208553Y280200D02*
Y282955D01*
X207175Y281577D01*
X209012D01*
X207567Y253059D02*
X204812D01*
Y254436D01*
X205271Y254896D01*
X206190D01*
X206649Y254436D01*
Y253059D01*
Y253977D02*
X207567Y254896D01*
Y255814D02*
Y256732D01*
Y256273D01*
X204812D01*
X205271Y255814D01*
Y258110D02*
X204812Y258569D01*
Y259487D01*
X205271Y259946D01*
X205731D01*
X206190Y259487D01*
Y259028D01*
Y259487D01*
X206649Y259946D01*
X207108D01*
X207567Y259487D01*
Y258569D01*
X207108Y258110D01*
X101788Y258657D02*
Y261412D01*
X103166D01*
X103625Y260953D01*
Y260034D01*
X103166Y259575D01*
X101788D01*
X102707D02*
X103625Y258657D01*
X104543Y260953D02*
X105002Y261412D01*
X105921D01*
X106380Y260953D01*
Y260494D01*
X105921Y260034D01*
X106380Y259575D01*
Y259116D01*
X105921Y258657D01*
X105002D01*
X104543Y259116D01*
Y259575D01*
X105002Y260034D01*
X104543Y260494D01*
Y260953D01*
X105002Y260034D02*
X105921D01*
X102821Y275626D02*
Y278381D01*
X104199D01*
X104658Y277922D01*
Y277003D01*
X104199Y276544D01*
X102821D01*
X103740D02*
X104658Y275626D01*
X105576Y278381D02*
X107413D01*
Y277922D01*
X105576Y276085D01*
Y275626D01*
X94476Y251162D02*
Y248407D01*
X93099D01*
X92640Y248867D01*
Y249785D01*
X93099Y250244D01*
X94476D01*
X93558D02*
X92640Y251162D01*
X89885Y248407D02*
X91721D01*
Y249785D01*
X90803Y249326D01*
X90344D01*
X89885Y249785D01*
Y250703D01*
X90344Y251162D01*
X91262D01*
X91721Y250703D01*
X282732Y199162D02*
Y201917D01*
X284110D01*
X284569Y201458D01*
Y200539D01*
X284110Y200080D01*
X282732D01*
X283651D02*
X284569Y199162D01*
X286865D02*
Y201917D01*
X285487Y200539D01*
X287324D01*
X298443Y188665D02*
Y185910D01*
X297065D01*
X296606Y186370D01*
Y187288D01*
X297065Y187747D01*
X298443D01*
X297524D02*
X296606Y188665D01*
X295688Y186370D02*
X295228Y185910D01*
X294310D01*
X293851Y186370D01*
Y186829D01*
X294310Y187288D01*
X294769D01*
X294310D01*
X293851Y187747D01*
Y188206D01*
X294310Y188665D01*
X295228D01*
X295688Y188206D01*
X219380Y266346D02*
Y268183D01*
X218921Y268642D01*
X218003D01*
X217544Y268183D01*
Y266346D01*
X218003Y265887D01*
X218921D01*
X218462Y266805D02*
X219380Y265887D01*
X218921D02*
X219380Y266346D01*
X220299Y265887D02*
X221217D01*
X220758D01*
Y268642D01*
X220299Y268183D01*
X368188Y235812D02*
X367270D01*
X367729D01*
Y233516D01*
X367270Y233057D01*
X366811D01*
X366352Y233516D01*
X369107Y233057D02*
X370025D01*
X369566D01*
Y235812D01*
X369107Y235353D01*
X373239Y233057D02*
X371403D01*
X373239Y234894D01*
Y235353D01*
X372780Y235812D01*
X371862D01*
X371403Y235353D01*
X347169Y267020D02*
Y264264D01*
X348547D01*
X349006Y264724D01*
Y266560D01*
X348547Y267020D01*
X347169D01*
X349924Y266560D02*
X350384Y267020D01*
X351302D01*
X351761Y266560D01*
Y266101D01*
X351302Y265642D01*
X350843D01*
X351302D01*
X351761Y265183D01*
Y264724D01*
X351302Y264264D01*
X350384D01*
X349924Y264724D01*
X211600Y226819D02*
X211075Y226294D01*
Y225244D01*
X211600Y224720D01*
X213699D01*
X214224Y225244D01*
Y226294D01*
X213699Y226819D01*
X214224Y229967D02*
Y227868D01*
X212125Y229967D01*
X211600D01*
X211075Y229443D01*
Y228393D01*
X211600Y227868D01*
Y231017D02*
X211075Y231542D01*
Y232591D01*
X211600Y233116D01*
X212125D01*
X212649Y232591D01*
X213174Y233116D01*
X213699D01*
X214224Y232591D01*
Y231542D01*
X213699Y231017D01*
X213174D01*
X212649Y231542D01*
X212125Y231017D01*
X211600D01*
X212649Y231542D02*
Y232591D01*
X260123Y219493D02*
X259664Y219034D01*
Y218116D01*
X260123Y217657D01*
X261959D01*
X262419Y218116D01*
Y219034D01*
X261959Y219493D01*
X262419Y222248D02*
Y220412D01*
X260582Y222248D01*
X260123D01*
X259664Y221789D01*
Y220871D01*
X260123Y220412D01*
X259664Y225003D02*
X260123Y224085D01*
X261041Y223167D01*
X261959D01*
X262419Y223626D01*
Y224544D01*
X261959Y225003D01*
X261500D01*
X261041Y224544D01*
Y223167D01*
X264454Y219493D02*
X263994Y219034D01*
Y218116D01*
X264454Y217657D01*
X266290D01*
X266749Y218116D01*
Y219034D01*
X266290Y219493D01*
X266749Y222248D02*
Y220412D01*
X264913Y222248D01*
X264454D01*
X263994Y221789D01*
Y220871D01*
X264454Y220412D01*
X263994Y225003D02*
Y223167D01*
X265372D01*
X264913Y224085D01*
Y224544D01*
X265372Y225003D01*
X266290D01*
X266749Y224544D01*
Y223626D01*
X266290Y223167D01*
X268634Y219493D02*
X268175Y219034D01*
Y218116D01*
X268634Y217657D01*
X270470D01*
X270930Y218116D01*
Y219034D01*
X270470Y219493D01*
X270930Y222248D02*
Y220412D01*
X269093Y222248D01*
X268634D01*
X268175Y221789D01*
Y220871D01*
X268634Y220412D01*
X270930Y224544D02*
X268175D01*
X269552Y223167D01*
Y225003D01*
X216260Y208045D02*
X215800Y207586D01*
Y206668D01*
X216260Y206208D01*
X218096D01*
X218555Y206668D01*
Y207586D01*
X218096Y208045D01*
X218555Y210800D02*
Y208963D01*
X216719Y210800D01*
X216260D01*
X215800Y210341D01*
Y209423D01*
X216260Y208963D01*
Y211719D02*
X215800Y212178D01*
Y213096D01*
X216260Y213555D01*
X216719D01*
X217178Y213096D01*
Y212637D01*
Y213096D01*
X217637Y213555D01*
X218096D01*
X218555Y213096D01*
Y212178D01*
X218096Y211719D01*
X328464Y251431D02*
X328005Y250972D01*
Y250054D01*
X328464Y249594D01*
X330301D01*
X330760Y250054D01*
Y250972D01*
X330301Y251431D01*
X330760Y254186D02*
Y252349D01*
X328924Y254186D01*
X328464D01*
X328005Y253727D01*
Y252808D01*
X328464Y252349D01*
X330760Y256941D02*
Y255104D01*
X328924Y256941D01*
X328464D01*
X328005Y256482D01*
Y255564D01*
X328464Y255104D01*
X333189Y251825D02*
X332730Y251366D01*
Y250447D01*
X333189Y249988D01*
X335026D01*
X335485Y250447D01*
Y251366D01*
X335026Y251825D01*
X335485Y254580D02*
Y252743D01*
X333648Y254580D01*
X333189D01*
X332730Y254121D01*
Y253202D01*
X333189Y252743D01*
X335485Y255498D02*
Y256416D01*
Y255957D01*
X332730D01*
X333189Y255498D01*
X338307Y251825D02*
X337848Y251366D01*
Y250447D01*
X338307Y249988D01*
X340144D01*
X340603Y250447D01*
Y251366D01*
X340144Y251825D01*
X340603Y254580D02*
Y252743D01*
X338766Y254580D01*
X338307D01*
X337848Y254121D01*
Y253202D01*
X338307Y252743D01*
Y255498D02*
X337848Y255957D01*
Y256876D01*
X338307Y257335D01*
X340144D01*
X340603Y256876D01*
Y255957D01*
X340144Y255498D01*
X338307D01*
X360220Y295997D02*
X359761Y296456D01*
X358843D01*
X358383Y295997D01*
Y294161D01*
X358843Y293701D01*
X359761D01*
X360220Y294161D01*
X361139Y293701D02*
X362057D01*
X361598D01*
Y296456D01*
X361139Y295997D01*
X363434Y294161D02*
X363894Y293701D01*
X364812D01*
X365271Y294161D01*
Y295997D01*
X364812Y296456D01*
X363894D01*
X363434Y295997D01*
Y295538D01*
X363894Y295079D01*
X365271D01*
X322668Y235648D02*
X322209Y236107D01*
X321290D01*
X320831Y235648D01*
Y233811D01*
X321290Y233352D01*
X322209D01*
X322668Y233811D01*
X323586Y233352D02*
X324505D01*
X324045D01*
Y236107D01*
X323586Y235648D01*
X325882D02*
X326341Y236107D01*
X327260D01*
X327719Y235648D01*
Y235189D01*
X327260Y234730D01*
X327719Y234270D01*
Y233811D01*
X327260Y233352D01*
X326341D01*
X325882Y233811D01*
Y234270D01*
X326341Y234730D01*
X325882Y235189D01*
Y235648D01*
X326341Y234730D02*
X327260D01*
X247342Y326614D02*
X246883Y327074D01*
X245964D01*
X245505Y326614D01*
Y324778D01*
X245964Y324319D01*
X246883D01*
X247342Y324778D01*
X248260Y324319D02*
X249179D01*
X248719D01*
Y327074D01*
X248260Y326614D01*
X252393Y327074D02*
X251474Y326614D01*
X250556Y325696D01*
Y324778D01*
X251015Y324319D01*
X251934D01*
X252393Y324778D01*
Y325237D01*
X251934Y325696D01*
X250556D01*
X95888Y204323D02*
X96347Y204783D01*
Y205701D01*
X95888Y206160D01*
X94051D01*
X93592Y205701D01*
Y204783D01*
X94051Y204323D01*
X93592Y203405D02*
Y202487D01*
Y202946D01*
X96347D01*
X95888Y203405D01*
X93592Y199732D02*
X96347D01*
X94969Y201109D01*
Y199273D01*
X86340Y211774D02*
X86799Y211315D01*
X87718D01*
X88177Y211774D01*
Y213611D01*
X87718Y214070D01*
X86799D01*
X86340Y213611D01*
X85422Y214070D02*
X84503D01*
X84963D01*
Y211315D01*
X85422Y211774D01*
X83126D02*
X82667Y211315D01*
X81748D01*
X81289Y211774D01*
Y212233D01*
X81748Y212692D01*
X82208D01*
X81748D01*
X81289Y213151D01*
Y213611D01*
X81748Y214070D01*
X82667D01*
X83126Y213611D01*
X102937Y314015D02*
X102478Y314474D01*
X101560D01*
X101101Y314015D01*
Y312178D01*
X101560Y311719D01*
X102478D01*
X102937Y312178D01*
X103856Y311719D02*
X104774D01*
X104315D01*
Y314474D01*
X103856Y314015D01*
X107988Y311719D02*
X106151D01*
X107988Y313556D01*
Y314015D01*
X107529Y314474D01*
X106611D01*
X106151Y314015D01*
X99492Y295906D02*
X99033Y295447D01*
Y294529D01*
X99492Y294070D01*
X101329D01*
X101788Y294529D01*
Y295447D01*
X101329Y295906D01*
X101788Y296825D02*
Y297743D01*
Y297284D01*
X99033D01*
X99492Y296825D01*
X101788Y299121D02*
Y300039D01*
Y299580D01*
X99033D01*
X99492Y299121D01*
X96910Y238654D02*
X96451Y238195D01*
Y237277D01*
X96910Y236818D01*
X98747D01*
X99206Y237277D01*
Y238195D01*
X98747Y238654D01*
X99206Y239573D02*
Y240491D01*
Y240032D01*
X96451D01*
X96910Y239573D01*
Y241868D02*
X96451Y242327D01*
Y243246D01*
X96910Y243705D01*
X98747D01*
X99206Y243246D01*
Y242327D01*
X98747Y241868D01*
X96910D01*
X273485Y212157D02*
X273026Y212616D01*
X272108D01*
X271649Y212157D01*
Y210320D01*
X272108Y209861D01*
X273026D01*
X273485Y210320D01*
X274404D02*
X274863Y209861D01*
X275781D01*
X276240Y210320D01*
Y212157D01*
X275781Y212616D01*
X274863D01*
X274404Y212157D01*
Y211698D01*
X274863Y211238D01*
X276240D01*
X334620Y212335D02*
X334161Y212794D01*
X333243D01*
X332783Y212335D01*
Y210498D01*
X333243Y210039D01*
X334161D01*
X334620Y210498D01*
X335538Y212335D02*
X335998Y212794D01*
X336916D01*
X337375Y212335D01*
Y211876D01*
X336916Y211416D01*
X337375Y210957D01*
Y210498D01*
X336916Y210039D01*
X335998D01*
X335538Y210498D01*
Y210957D01*
X335998Y211416D01*
X335538Y211876D01*
Y212335D01*
X335998Y211416D02*
X336916D01*
X282788Y156370D02*
X283247Y156829D01*
Y157747D01*
X282788Y158207D01*
X280951D01*
X280492Y157747D01*
Y156829D01*
X280951Y156370D01*
X283247Y155452D02*
Y153615D01*
X282788D01*
X280951Y155452D01*
X280492D01*
X221224Y162002D02*
X220765Y161543D01*
Y160624D01*
X221224Y160165D01*
X223060D01*
X223520Y160624D01*
Y161543D01*
X223060Y162002D01*
X220765Y164757D02*
X221224Y163839D01*
X222142Y162920D01*
X223060D01*
X223520Y163379D01*
Y164298D01*
X223060Y164757D01*
X222601D01*
X222142Y164298D01*
Y162920D01*
D16*
X52830Y244125D02*
X55030D01*
Y240925D02*
Y244125D01*
X43830D02*
X46030D01*
X43830Y240925D02*
Y244125D01*
X272503Y21484D02*
X280803D01*
X272503Y25384D02*
X280803D01*
X272503Y41484D02*
X280803D01*
X272503Y45384D02*
X280803D01*
X270603Y11934D02*
Y30984D01*
X277603D01*
Y35884D01*
X270603D02*
X277603D01*
X270603D02*
Y54934D01*
X231603D02*
X270603D01*
X231603Y47094D02*
Y54934D01*
Y11934D02*
X270603D01*
X231603D02*
Y19774D01*
X320555Y108971D02*
Y128771D01*
X293155Y108971D02*
X320555D01*
X293155D02*
Y128771D01*
X320555D01*
X210976Y27234D02*
Y39634D01*
X219676Y27234D02*
Y39634D01*
X309018Y19734D02*
Y47134D01*
Y19734D02*
X328818D01*
Y47134D01*
X309018D02*
X328818D01*
X304018Y67867D02*
X323818D01*
X304018D02*
Y95267D01*
X323818D01*
Y67867D02*
Y95267D01*
X272021Y108971D02*
Y128771D01*
X244621Y108971D02*
X272021D01*
X244621D02*
Y128771D01*
X272021D01*
X230906Y60496D02*
Y68336D01*
Y60496D02*
X269906D01*
X230906Y95656D02*
Y103496D01*
X269906D01*
Y84446D02*
Y103496D01*
Y84446D02*
X276906D01*
Y79546D02*
Y84446D01*
X269906Y79546D02*
X276906D01*
X269906Y60496D02*
Y79546D01*
X271806Y93946D02*
X280106D01*
X271806Y90046D02*
X280106D01*
X271806Y73946D02*
X280106D01*
X271806Y70046D02*
X280106D01*
X210299Y75796D02*
Y88196D01*
X218999Y75796D02*
Y88196D01*
X156017Y52366D02*
Y69066D01*
X176717Y52366D02*
Y69066D01*
D17*
X125987Y31536D02*
X126774D01*
Y23662D02*
Y31536D01*
X125987Y23662D02*
X126774D01*
X122837D02*
X123625D01*
X122837D02*
Y31536D01*
X123625D01*
X159340Y86929D02*
X160128D01*
Y79055D02*
Y86929D01*
X159340Y79055D02*
X160128D01*
X156191D02*
X156978D01*
X156191D02*
Y86929D01*
X156978D01*
X160587Y88171D02*
Y89746D01*
X173972D01*
Y88171D02*
Y89746D01*
Y82659D02*
Y84234D01*
X160587Y82659D02*
X173972D01*
X160587D02*
Y84234D01*
X167280Y82659D02*
Y89746D01*
X342920Y248865D02*
Y254377D01*
X348432Y248865D02*
Y250046D01*
X337408Y248865D02*
X348432D01*
X337408D02*
Y250046D01*
Y253196D02*
Y254377D01*
X348432D01*
Y253196D02*
Y254377D01*
X363396Y189846D02*
Y195358D01*
X368396Y189846D02*
Y190602D01*
X358396Y189846D02*
X368396D01*
X358396D02*
Y190602D01*
Y194602D02*
Y195358D01*
X368396D01*
Y194602D02*
Y195358D01*
X329942Y139980D02*
X330698D01*
X329942Y129980D02*
Y139980D01*
Y129980D02*
X330698D01*
X334699D02*
X335454D01*
Y139980D01*
X334699D02*
X335454D01*
X329942Y134980D02*
X335454D01*
X296079Y38434D02*
X296834D01*
X296079Y28434D02*
Y38434D01*
Y28434D02*
X296834D01*
X300834D02*
X301590D01*
Y38434D01*
X300834D02*
X301590D01*
X296079Y33434D02*
X301590D01*
X296079Y54693D02*
X301590D01*
X296079Y49693D02*
X296834D01*
X296079D02*
Y59693D01*
X296834D01*
X300834D02*
X301590D01*
Y49693D02*
Y59693D01*
X300834Y49693D02*
X301590D01*
X274974Y54035D02*
Y54535D01*
Y54035D02*
X283974D01*
Y54535D01*
Y57535D02*
Y58035D01*
X274974D02*
X283974D01*
X274974Y57535D02*
Y58035D01*
X279474Y54035D02*
Y58035D01*
X216781Y123268D02*
Y124024D01*
Y123268D02*
X226781D01*
Y124024D01*
Y128024D02*
Y128779D01*
X216781D02*
X226781D01*
X216781Y128024D02*
Y128779D01*
X221781Y123268D02*
Y128779D01*
X223620Y116114D02*
Y116870D01*
Y116114D02*
X233620D01*
Y116870D01*
Y120870D02*
Y121626D01*
X223620D02*
X233620D01*
X223620Y120870D02*
Y121626D01*
X228620Y116114D02*
Y121626D01*
X210369Y130442D02*
X210869D01*
X210369Y121442D02*
Y130442D01*
Y121442D02*
X210869D01*
X213869D02*
X214369D01*
Y130442D01*
X213869D02*
X214369D01*
X210369Y125942D02*
X214369D01*
X142478Y170303D02*
X146415D01*
X145234Y166760D02*
X146415D01*
Y173846D01*
X145234D02*
X146415D01*
X142478Y166760D02*
X143659D01*
X142478D02*
Y173846D01*
X143659D01*
X154438Y143287D02*
Y149586D01*
X161131Y143287D02*
Y144075D01*
X147746Y143287D02*
X161131D01*
X147746D02*
Y144075D01*
X161131Y148799D02*
Y149586D01*
X147746D02*
X161131D01*
X147746Y148799D02*
Y149586D01*
X83248Y134489D02*
Y138489D01*
X78748Y137989D02*
Y138489D01*
X87748D01*
Y137989D02*
Y138489D01*
Y134489D02*
Y134989D01*
X78748Y134489D02*
X87748D01*
X78748D02*
Y134989D01*
X73286Y131043D02*
X74073D01*
X73286D02*
Y138917D01*
X74073D01*
X76436D02*
X77223D01*
Y131043D02*
Y138917D01*
X76436Y131043D02*
X77223D01*
X49569Y251884D02*
Y257396D01*
X54569Y251884D02*
Y252640D01*
X44569Y251884D02*
X54569D01*
X44569D02*
Y252640D01*
Y256640D02*
Y257396D01*
X54569D01*
Y256640D02*
Y257396D01*
X320745Y240709D02*
Y241497D01*
X328619D01*
Y240709D02*
Y241497D01*
Y237560D02*
Y238347D01*
X320745Y237560D02*
X328619D01*
X320745D02*
Y238347D01*
X167804Y34209D02*
Y34996D01*
X159930Y34209D02*
X167804D01*
X159930D02*
Y34996D01*
Y37358D02*
Y38146D01*
X167804D01*
Y37358D02*
Y38146D01*
X163342Y80178D02*
Y80965D01*
X171216D01*
Y80178D02*
Y80965D01*
Y77028D02*
Y77816D01*
X163342Y77028D02*
X171216D01*
X163342D02*
Y77816D01*
X74853Y52309D02*
X80365D01*
X74853Y46797D02*
X76034D01*
X74853D02*
Y57821D01*
X76034D01*
X79184D02*
X80365D01*
Y46797D02*
Y57821D01*
X79184Y46797D02*
X80365D01*
X83226Y49318D02*
X84013D01*
X83226D02*
Y57192D01*
X84013D01*
X86375D02*
X87163D01*
Y49318D02*
Y57192D01*
X86375Y49318D02*
X87163D01*
X72948Y110940D02*
Y116451D01*
X67948Y115695D02*
Y116451D01*
X77948D01*
Y115695D02*
Y116451D01*
Y110940D02*
Y111695D01*
X67948Y110940D02*
X77948D01*
X67948D02*
Y111695D01*
X46036Y187397D02*
X51548D01*
X50367Y192908D02*
X51548D01*
Y181885D02*
Y192908D01*
X50367Y181885D02*
X51548D01*
X46036D02*
X47217D01*
X46036D02*
Y192908D01*
X47217D01*
X5119Y195860D02*
X9119D01*
X5119Y191923D02*
X5619D01*
X5119D02*
Y199797D01*
X5619D01*
X8619D02*
X9119D01*
Y191923D02*
Y199797D01*
X8619Y191923D02*
X9119D01*
X4363Y189702D02*
X5119D01*
X4363Y179702D02*
Y189702D01*
Y179702D02*
X5119D01*
X9119D02*
X9875D01*
Y189702D01*
X9119D02*
X9875D01*
X4363Y184702D02*
X9875D01*
X6059Y164053D02*
X10059D01*
X6059Y160116D02*
X6559D01*
X6059D02*
Y167990D01*
X6559D01*
X9559D02*
X10059D01*
Y160116D02*
Y167990D01*
X9559Y160116D02*
X10059D01*
X616Y160047D02*
X1403D01*
X616D02*
Y167921D01*
X1403D01*
X3765D02*
X4553D01*
Y160047D02*
Y167921D01*
X3765Y160047D02*
X4553D01*
X254908Y227435D02*
Y228222D01*
X247034D02*
X254908D01*
X247034Y227435D02*
Y228222D01*
Y224285D02*
Y225073D01*
Y224285D02*
X254908D01*
Y225073D01*
X164619Y148990D02*
Y150171D01*
Y148990D02*
X171706D01*
Y150171D01*
X164619Y151746D02*
Y152927D01*
X171706D01*
Y151746D02*
Y152927D01*
X168162Y148990D02*
Y152927D01*
X193398Y160488D02*
Y167575D01*
X200091Y166000D02*
Y167575D01*
X186705D02*
X200091D01*
X186705Y166000D02*
Y167575D01*
Y160488D02*
Y162063D01*
Y160488D02*
X200091D01*
Y162063D01*
X195723Y154283D02*
X196223D01*
X195723Y145283D02*
Y154283D01*
Y145283D02*
X196223D01*
X199223D02*
X199723D01*
Y154283D01*
X199223D02*
X199723D01*
X195723Y149783D02*
X199723D01*
X208703Y145147D02*
X209203D01*
Y154147D01*
X208703D02*
X209203D01*
X205203D02*
X205703D01*
X205203Y145147D02*
Y154147D01*
Y145147D02*
X205703D01*
X205203Y149647D02*
X209203D01*
X213971Y155488D02*
X214471D01*
Y164488D01*
X213971D02*
X214471D01*
X210471D02*
X210971D01*
X210471Y155488D02*
Y164488D01*
Y155488D02*
X210971D01*
X210471Y159988D02*
X214471D01*
X207006Y164457D02*
X207793D01*
Y156583D02*
Y164457D01*
X207006Y156583D02*
X207793D01*
X203856D02*
X204643D01*
X203856D02*
Y164457D01*
X204643D01*
X171997Y163145D02*
Y168657D01*
X176997Y163145D02*
Y163901D01*
X166998Y163145D02*
X176997D01*
X166998D02*
Y163901D01*
Y167901D02*
Y168657D01*
X176997D01*
Y167901D02*
Y168657D01*
X334495Y166907D02*
X335251D01*
Y176907D01*
X334495D02*
X335251D01*
X329739D02*
X330495D01*
X329739Y166907D02*
Y176907D01*
Y166907D02*
X330495D01*
X329739Y171907D02*
X335251D01*
X329772Y154236D02*
X335284D01*
X334528Y159237D02*
X335284D01*
Y149237D02*
Y159237D01*
X334528Y149237D02*
X335284D01*
X329772D02*
X330528D01*
X329772D02*
Y159237D01*
X330528D01*
X271139Y148196D02*
X272714D01*
X271139D02*
Y161582D01*
X272714D01*
X276651D02*
X278226D01*
Y148196D02*
Y161582D01*
X276651Y148196D02*
X278226D01*
X271139Y154889D02*
X278226D01*
X224963Y165516D02*
X237758D01*
X224963Y174867D02*
X226439D01*
X224963Y156166D02*
Y174867D01*
Y156166D02*
X226439D01*
X236282D02*
X237758D01*
Y174867D01*
X236282D02*
X237758D01*
X91752Y88576D02*
Y89332D01*
X79941Y88576D02*
X91752D01*
X79941D02*
Y89332D01*
Y92545D02*
Y93301D01*
X91752Y92545D02*
Y93301D01*
X79941D02*
X91752D01*
X85847Y88576D02*
Y93301D01*
X80138Y94602D02*
X80894D01*
X80138D02*
Y106413D01*
X80894D01*
X84107D02*
X84863D01*
X84107Y94602D02*
X84863D01*
Y106413D01*
X80138Y100507D02*
X84863D01*
X90768Y94995D02*
X91949D01*
Y106019D01*
X90768D02*
X91949D01*
X86437D02*
X87618D01*
X86437Y94995D02*
Y106019D01*
Y94995D02*
X87618D01*
X86437Y100507D02*
X91949D01*
X226238Y244350D02*
X226737D01*
Y253350D01*
X226238D02*
X226737D01*
X222738D02*
X223237D01*
X222738Y244350D02*
Y253350D01*
Y244350D02*
X223237D01*
X222738Y248850D02*
X226737D01*
X223084Y256547D02*
Y260547D01*
X227584Y256547D02*
Y257047D01*
X218584Y256547D02*
X227584D01*
X218584D02*
Y257047D01*
Y260047D02*
Y260547D01*
X227584D01*
Y260047D02*
Y260547D01*
X215014Y280057D02*
X215770D01*
Y290057D01*
X215014D02*
X215770D01*
X210258D02*
X211014D01*
X210258Y280057D02*
Y290057D01*
Y280057D02*
X211014D01*
X210258Y285057D02*
X215770D01*
X208717Y256208D02*
X212717D01*
X212217Y260708D02*
X212717D01*
Y251709D02*
Y260708D01*
X212217Y251709D02*
X212717D01*
X208717D02*
X209217D01*
X208717D02*
Y260708D01*
X209217D01*
X218732Y232746D02*
X219520D01*
Y224872D02*
Y232746D01*
X218732Y224872D02*
X219520D01*
X215583D02*
X216370D01*
X215583D02*
Y232746D01*
X216370D01*
X262419Y234192D02*
X263206D01*
Y226318D02*
Y234192D01*
X262419Y226318D02*
X263206D01*
X259269D02*
X260056D01*
X259269D02*
Y234192D01*
X260056D01*
X266749D02*
X267537D01*
Y226318D02*
Y234192D01*
X266749Y226318D02*
X267537D01*
X263600D02*
X264387D01*
X263600D02*
Y234192D01*
X264387D01*
X267930Y226318D02*
X268718D01*
X267930D02*
Y234192D01*
X268718D01*
X271080D02*
X271867D01*
Y226318D02*
Y234192D01*
X271080Y226318D02*
X271867D01*
X327611Y258571D02*
X328398D01*
X327611D02*
Y266445D01*
X328398D01*
X330760D02*
X331548D01*
Y258571D02*
Y266445D01*
X330760Y258571D02*
X331548D01*
X332335D02*
X333122D01*
X332335D02*
Y266445D01*
X333122D01*
X335485D02*
X336272D01*
Y258571D02*
Y266445D01*
X335485Y258571D02*
X336272D01*
X340209Y266445D02*
X340997D01*
Y258571D02*
Y266445D01*
X340209Y258571D02*
X340997D01*
X337059D02*
X337847D01*
X337059D02*
Y266445D01*
X337847D01*
X248579Y317295D02*
Y322807D01*
X254091Y317295D02*
Y318477D01*
X243067Y317295D02*
X254091D01*
X243067D02*
Y318477D01*
Y321626D02*
Y322807D01*
X254091D01*
Y321626D02*
Y322807D01*
X110532Y267748D02*
Y268504D01*
X100532D02*
X110532D01*
X100532Y267748D02*
Y268504D01*
Y262992D02*
Y263748D01*
Y262992D02*
X110532D01*
Y263748D01*
X105532Y262992D02*
Y268504D01*
Y268769D02*
Y274281D01*
X110532Y268769D02*
Y269525D01*
X100532Y268769D02*
X110532D01*
X100532D02*
Y269525D01*
Y273525D02*
Y274281D01*
X110532D01*
Y273525D02*
Y274281D01*
X94114Y235926D02*
X94870D01*
Y245926D01*
X94114D02*
X94870D01*
X89358D02*
X90114D01*
X89358Y235926D02*
Y245926D01*
Y235926D02*
X90114D01*
X89358Y240926D02*
X94870D01*
X110169Y309277D02*
Y310458D01*
X99145D02*
X110169D01*
X99145Y309277D02*
Y310458D01*
Y304946D02*
Y306128D01*
Y304946D02*
X110169D01*
Y306128D01*
X104657Y304946D02*
Y310458D01*
X102566Y297510D02*
X109652D01*
X102566Y304203D02*
X104141D01*
X102566Y290817D02*
Y304203D01*
Y290817D02*
X104141D01*
X108078D02*
X109652D01*
Y304203D01*
X108078D02*
X109652D01*
X89358Y228361D02*
X94870D01*
X89358Y222849D02*
X90539D01*
X89358D02*
Y233873D01*
X90539D01*
X93689D02*
X94870D01*
Y222849D02*
Y233873D01*
X93689Y222849D02*
X94870D01*
X92017Y218759D02*
X93198D01*
X92017Y207735D02*
Y218759D01*
Y207735D02*
X93198D01*
X96347D02*
X97529D01*
Y218759D01*
X96347D02*
X97529D01*
X92017Y213247D02*
X97529D01*
X81090Y221944D02*
X88177D01*
X86602Y215251D02*
X88177D01*
Y228637D01*
X86602D02*
X88177D01*
X81090D02*
X82665D01*
X81090Y215251D02*
Y228637D01*
Y215251D02*
X82665D01*
X160048Y179821D02*
Y180608D01*
X152174Y179821D02*
X160048D01*
X152174D02*
Y180608D01*
Y182970D02*
Y183758D01*
X160048D01*
Y182970D02*
Y183758D01*
X137332Y173846D02*
X138513D01*
X137332Y166760D02*
Y173846D01*
Y166760D02*
X138513D01*
X140088Y173846D02*
X141269D01*
Y166760D02*
Y173846D01*
X140088Y166760D02*
X141269D01*
X137332Y170303D02*
X141269D01*
X62323Y254977D02*
Y258914D01*
X65867Y257733D02*
Y258914D01*
X58780D02*
X65867D01*
X58780Y257733D02*
Y258914D01*
X65867Y254977D02*
Y256158D01*
X58780Y254977D02*
X65867D01*
X58780D02*
Y256158D01*
X65376Y246415D02*
Y253502D01*
X58683Y246415D02*
Y247990D01*
Y246415D02*
X72069D01*
Y247990D01*
Y251927D02*
Y253502D01*
X58683D02*
X72069D01*
X58683Y251927D02*
Y253502D01*
X35417Y234627D02*
X40929D01*
X40173Y239627D02*
X40929D01*
Y229627D02*
Y239627D01*
X40173Y229627D02*
X40929D01*
X35417D02*
X36173D01*
X35417D02*
Y239627D01*
X36173D01*
X357282Y246409D02*
Y247590D01*
X346259D02*
X357282D01*
X346259Y246409D02*
Y247590D01*
Y242078D02*
Y243260D01*
Y242078D02*
X357282D01*
Y243260D01*
X351770Y242078D02*
Y247590D01*
X274733Y207180D02*
X276307D01*
Y193794D02*
Y207180D01*
X274733Y193794D02*
X276307D01*
X269221D02*
X270796D01*
X269221D02*
Y207180D01*
X270796D01*
X269221Y200487D02*
X276307D01*
X334304Y214102D02*
Y226898D01*
X324953Y214102D02*
Y215579D01*
Y214102D02*
X343654D01*
Y215579D01*
Y225421D02*
Y226898D01*
X324953D02*
X343654D01*
X324953Y225421D02*
Y226898D01*
X284701Y192075D02*
Y197587D01*
X279701Y196831D02*
Y197587D01*
X289701D01*
Y196831D02*
Y197587D01*
Y192075D02*
Y192831D01*
X279701Y192075D02*
X289701D01*
X279701D02*
Y192831D01*
X297261Y189846D02*
Y195358D01*
X302261Y189846D02*
Y190602D01*
X292261Y189846D02*
X302261D01*
X292261D02*
Y190602D01*
Y194602D02*
Y195358D01*
X302261D01*
Y194602D02*
Y195358D01*
X201774Y24978D02*
X202561D01*
Y32852D01*
X201774D02*
X202561D01*
X198624D02*
X199411D01*
X198624Y24978D02*
Y32852D01*
Y24978D02*
X199411D01*
X196648Y35409D02*
X197435D01*
Y22023D02*
Y35409D01*
X196648Y22023D02*
X197435D01*
X190349Y35409D02*
X191136D01*
X190349Y22023D02*
Y35409D01*
Y22023D02*
X191136D01*
X190349Y28716D02*
X197435D01*
X129141Y22364D02*
X129929D01*
X129141D02*
Y35750D01*
X129929D01*
X135441Y22364D02*
X136228D01*
Y35750D01*
X135441D02*
X136228D01*
X129141Y29057D02*
X136228D01*
D18*
X342599Y129841D02*
X345749D01*
X342599Y121967D02*
Y129841D01*
Y121967D02*
X345749D01*
X342599Y109841D02*
X345749D01*
X342599Y101967D02*
Y109841D01*
Y101967D02*
X345749D01*
X342599Y89841D02*
X345749D01*
X342599Y81967D02*
Y89841D01*
Y81967D02*
X345749D01*
X342599Y69841D02*
X345749D01*
X342599Y61967D02*
Y69841D01*
Y61967D02*
X345749D01*
X330922Y66795D02*
X336920D01*
Y69794D01*
X335920Y70794D01*
X331922D01*
X330922Y69794D01*
Y66795D01*
Y72794D02*
Y74793D01*
Y73793D01*
X336920D01*
Y72794D01*
Y74793D01*
X331922Y81791D02*
X330922Y80791D01*
Y78792D01*
X331922Y77792D01*
X335920D01*
X336920Y78792D01*
Y80791D01*
X335920Y81791D01*
X333921D01*
Y79791D01*
X330922Y92787D02*
Y90788D01*
X331922Y89788D01*
X335920D01*
X336920Y90788D01*
Y92787D01*
X335920Y93787D01*
X331922D01*
X330922Y92787D01*
Y95786D02*
X335920D01*
X336920Y96786D01*
Y98785D01*
X335920Y99785D01*
X330922D01*
Y101784D02*
Y105783D01*
Y103784D01*
X336920D01*
X332151Y145182D02*
X338149D01*
Y148181D01*
X337149Y149181D01*
X333151D01*
X332151Y148181D01*
Y145182D01*
Y151180D02*
Y153180D01*
Y152180D01*
X338149D01*
Y151180D01*
Y153180D01*
X333151Y160177D02*
X332151Y159178D01*
Y157178D01*
X333151Y156178D01*
X337149D01*
X338149Y157178D01*
Y159178D01*
X337149Y160177D01*
X335150D01*
Y158178D01*
X332151Y168175D02*
Y170174D01*
Y169174D01*
X338149D01*
Y168175D01*
Y170174D01*
Y173173D02*
X332151D01*
X338149Y177172D01*
X332151D01*
X374168Y15315D02*
Y19314D01*
Y39307D02*
Y43306D01*
X372168Y41307D02*
X376167D01*
X331676Y8032D02*
X334972D01*
X336619Y9679D01*
X334972Y11327D01*
X331676D01*
Y12975D02*
Y14623D01*
Y13799D01*
X336619D01*
Y12975D01*
Y14623D01*
Y17094D02*
X331676D01*
X336619Y20390D01*
X331676D01*
Y26981D02*
Y30276D01*
Y28629D01*
X336619D01*
Y31924D02*
X331676D01*
Y34396D01*
X332500Y35219D01*
X334148D01*
X334972Y34396D01*
Y31924D01*
Y33572D02*
X336619Y35219D01*
Y36867D02*
X333324D01*
X331676Y38515D01*
X333324Y40163D01*
X336619D01*
X334148D01*
Y36867D01*
X332500Y45106D02*
X331676Y44282D01*
Y42634D01*
X332500Y41811D01*
X335796D01*
X336619Y42634D01*
Y44282D01*
X335796Y45106D01*
X331676Y46754D02*
Y50049D01*
Y48402D01*
X336619D01*
X152710Y34894D02*
X152055Y35550D01*
X150743D01*
X150087Y34894D01*
Y32271D01*
X150743Y31615D01*
X152055D01*
X152710Y32271D01*
X154022Y31615D02*
Y34238D01*
X155334Y35550D01*
X156646Y34238D01*
Y31615D01*
Y33582D01*
X154022D01*
X157958Y31615D02*
Y35550D01*
X160582Y31615D01*
Y35550D01*
X165830D02*
X167141D01*
X166486D01*
Y31615D01*
X165830D01*
X167141D01*
X169109D02*
Y35550D01*
X171733Y31615D01*
Y35550D01*
X159236Y120017D02*
X158236D01*
X157736Y119517D01*
Y117518D01*
X158236Y117018D01*
X159236D01*
X159735Y117518D01*
Y119517D01*
X159236Y120017D01*
X160735Y117018D02*
Y120017D01*
X162734Y117018D01*
Y120017D01*
X169732D02*
Y117018D01*
X175730Y120017D02*
X174731D01*
X174231Y119517D01*
Y117518D01*
X174731Y117018D01*
X175730D01*
X176230Y117518D01*
Y119517D01*
X175730Y120017D01*
X179229D02*
X177230D01*
Y118517D01*
X178229D01*
X177230D01*
Y117018D01*
X182228Y120017D02*
X180229D01*
Y118517D01*
X181228D01*
X180229D01*
Y117018D01*
X67821Y4166D02*
X70444D01*
X71756Y5478D01*
X70444Y6790D01*
X67821D01*
X71756Y8102D02*
Y9414D01*
Y8758D01*
X69133D01*
Y8102D01*
X71756Y11381D02*
X69133D01*
Y13349D01*
X69788Y14005D01*
X71756D01*
X71100Y19253D02*
X71756Y19909D01*
Y21221D01*
X71100Y21877D01*
X68476D01*
X67821Y21221D01*
Y19909D01*
X68476Y19253D01*
X69133D01*
X69788Y19909D01*
Y21877D01*
Y23189D02*
Y25813D01*
X68476Y27124D02*
X67821Y27780D01*
Y29092D01*
X68476Y29748D01*
X69133D01*
X69788Y29092D01*
Y28436D01*
Y29092D01*
X70444Y29748D01*
X71100D01*
X71756Y29092D01*
Y27780D01*
X71100Y27124D01*
X68476Y31060D02*
X67821Y31716D01*
Y33028D01*
X68476Y33684D01*
X71100D01*
X71756Y33028D01*
Y31716D01*
X71100Y31060D01*
X68476D01*
X67821Y38932D02*
X70444D01*
X71756Y40244D01*
X70444Y41555D01*
X67821D01*
Y42867D02*
X71756D01*
Y44835D01*
X71100Y45491D01*
X68476D01*
X67821Y44835D01*
Y42867D01*
X68476Y49427D02*
X67821Y48771D01*
Y47459D01*
X68476Y46803D01*
X71100D01*
X71756Y47459D01*
Y48771D01*
X71100Y49427D01*
X311769Y329009D02*
Y335007D01*
X314768D01*
X315768Y334007D01*
Y332008D01*
X314768Y331008D01*
X311769D01*
X313768D02*
X315768Y329009D01*
X317767Y335007D02*
X321766D01*
X319766D01*
Y329009D01*
X323765Y335007D02*
Y330008D01*
X324765Y329009D01*
X326764D01*
X327764Y330008D01*
Y335007D01*
X329763Y332008D02*
X333762D01*
X335761Y335007D02*
Y329009D01*
X339760D01*
X341759D02*
Y335007D01*
X343759Y333007D01*
X345758Y335007D01*
Y329009D01*
X351756Y334007D02*
X350757Y335007D01*
X348757D01*
X347758Y334007D01*
Y330008D01*
X348757Y329009D01*
X350757D01*
X351756Y330008D01*
Y332008D01*
X349757D01*
X353755Y329009D02*
Y330008D01*
X354755D01*
Y329009D01*
X353755D01*
X358754Y334007D02*
X359754Y335007D01*
X361753D01*
X362753Y334007D01*
Y330008D01*
X361753Y329009D01*
X359754D01*
X358754Y330008D01*
Y334007D01*
X364752D02*
X365752Y335007D01*
X367751D01*
X368751Y334007D01*
Y330008D01*
X367751Y329009D01*
X365752D01*
X364752Y330008D01*
Y334007D01*
X370750Y329009D02*
X372749D01*
X371750D01*
Y335007D01*
X370750Y334007D01*
X350671Y195792D02*
X348671D01*
X349671D01*
Y190794D01*
X348671Y189794D01*
X347672D01*
X346672Y190794D01*
X356669Y195792D02*
X352670D01*
Y192793D01*
X354669Y193793D01*
X355669D01*
X356669Y192793D01*
Y190794D01*
X355669Y189794D01*
X353670D01*
X352670Y190794D01*
X356729Y7215D02*
X354729D01*
X355729D01*
Y2216D01*
X354729Y1217D01*
X353730D01*
X352730Y2216D01*
X362727Y7215D02*
X360727Y6215D01*
X358728Y4216D01*
Y2216D01*
X359728Y1217D01*
X361727D01*
X362727Y2216D01*
Y3216D01*
X361727Y4216D01*
X358728D01*
X93168Y141111D02*
X96317D01*
Y143210D01*
X93168Y146359D02*
Y144260D01*
X96317D01*
Y146359D01*
X94743Y144260D02*
Y145309D01*
X93168Y147408D02*
X96317D01*
Y148983D01*
X95792Y149507D01*
X93693D01*
X93168Y148983D01*
Y147408D01*
X96317Y152656D02*
Y150557D01*
X94218Y152656D01*
X93693D01*
X93168Y152131D01*
Y151082D01*
X93693Y150557D01*
X302714Y101168D02*
Y98020D01*
Y99069D01*
X304813Y101168D01*
X303239Y99594D01*
X304813Y98020D01*
X307437D02*
Y101168D01*
X305863Y99594D01*
X307962D01*
X6266Y151432D02*
Y145434D01*
X10265D01*
X16263D02*
X12264D01*
X16263Y149433D01*
Y150432D01*
X15263Y151432D01*
X13264D01*
X12264Y150432D01*
X150004Y60976D02*
Y58477D01*
X150504Y57977D01*
X151504D01*
X152004Y58477D01*
Y60976D01*
X155003D02*
X153003D01*
Y59476D01*
X154003Y59976D01*
X154503D01*
X155003Y59476D01*
Y58477D01*
X154503Y57977D01*
X153503D01*
X153003Y58477D01*
X242713Y191542D02*
X245337D01*
X244025D01*
Y187606D01*
X246649D02*
Y191542D01*
X248617D01*
X249273Y190885D01*
Y189574D01*
X248617Y188918D01*
X246649D01*
X250585Y186950D02*
X253209D01*
X257144Y190885D02*
X256488Y191542D01*
X255176D01*
X254521Y190885D01*
Y188262D01*
X255176Y187606D01*
X256488D01*
X257144Y188262D01*
Y189574D01*
X255833D01*
X258456Y187606D02*
Y191542D01*
X261080Y187606D01*
Y191542D01*
X262392D02*
Y187606D01*
X264360D01*
X265016Y188262D01*
Y190885D01*
X264360Y191542D01*
X262392D01*
X266328Y187606D02*
X267640D01*
X266984D01*
Y191542D01*
X266328Y190885D01*
X84115Y318055D02*
X83115Y319054D01*
X81116D01*
X80116Y318055D01*
Y317055D01*
X81116Y316055D01*
X83115D01*
X84115Y315055D01*
Y314056D01*
X83115Y313056D01*
X81116D01*
X80116Y314056D01*
X90113Y313056D02*
X86115D01*
X90113Y317055D01*
Y318055D01*
X89113Y319054D01*
X87114D01*
X86115Y318055D01*
X294868Y61795D02*
Y64943D01*
X296442D01*
X296967Y64418D01*
Y63369D01*
X296442Y62844D01*
X294868D01*
X295918D02*
X296967Y61795D01*
X300116D02*
X298017D01*
X300116Y63894D01*
Y64418D01*
X299591Y64943D01*
X298541D01*
X298017Y64418D01*
X301165Y62319D02*
X301690Y61795D01*
X302740D01*
X303264Y62319D01*
Y64418D01*
X302740Y64943D01*
X301690D01*
X301165Y64418D01*
Y63894D01*
X301690Y63369D01*
X303264D01*
X275097Y60320D02*
Y63468D01*
X276671D01*
X277196Y62944D01*
Y61894D01*
X276671Y61369D01*
X275097D01*
X276146D02*
X277196Y60320D01*
X280345D02*
X278245D01*
X280345Y62419D01*
Y62944D01*
X279820Y63468D01*
X278770D01*
X278245Y62944D01*
X281394D02*
X281919Y63468D01*
X282968D01*
X283493Y62944D01*
Y62419D01*
X282968Y61894D01*
X283493Y61369D01*
Y60845D01*
X282968Y60320D01*
X281919D01*
X281394Y60845D01*
Y61369D01*
X281919Y61894D01*
X281394Y62419D01*
Y62944D01*
X281919Y61894D02*
X282968D01*
X294444Y29440D02*
X291296D01*
Y31014D01*
X291820Y31539D01*
X292870D01*
X293394Y31014D01*
Y29440D01*
Y30489D02*
X294444Y31539D01*
Y34687D02*
Y32588D01*
X292345Y34687D01*
X291820D01*
X291296Y34163D01*
Y33113D01*
X291820Y32588D01*
X291296Y35737D02*
Y37836D01*
X291820D01*
X293919Y35737D01*
X294444D01*
X207093Y121070D02*
X203944D01*
Y122644D01*
X204469Y123169D01*
X205519D01*
X206043Y122644D01*
Y121070D01*
Y122119D02*
X207093Y123169D01*
Y126317D02*
Y124218D01*
X204994Y126317D01*
X204469D01*
X203944Y125793D01*
Y124743D01*
X204469Y124218D01*
X203944Y129466D02*
X204469Y128416D01*
X205519Y127367D01*
X206568D01*
X207093Y127892D01*
Y128941D01*
X206568Y129466D01*
X206043D01*
X205519Y128941D01*
Y127367D01*
X327938Y134427D02*
X324790D01*
Y136001D01*
X325314Y136526D01*
X326364D01*
X326889Y136001D01*
Y134427D01*
Y135476D02*
X327938Y136526D01*
Y139674D02*
Y137575D01*
X325839Y139674D01*
X325314D01*
X324790Y139149D01*
Y138100D01*
X325314Y137575D01*
X324790Y142823D02*
Y140724D01*
X326364D01*
X325839Y141773D01*
Y142298D01*
X326364Y142823D01*
X327413D01*
X327938Y142298D01*
Y141249D01*
X327413Y140724D01*
X359055Y198136D02*
Y201284D01*
X360629D01*
X361154Y200760D01*
Y199710D01*
X360629Y199185D01*
X359055D01*
X360104D02*
X361154Y198136D01*
X364302D02*
X362204D01*
X364302Y200235D01*
Y200760D01*
X363778Y201284D01*
X362728D01*
X362204Y200760D01*
X366926Y198136D02*
Y201284D01*
X365352Y199710D01*
X367451D01*
X217846Y130038D02*
Y133187D01*
X219421D01*
X219945Y132662D01*
Y131613D01*
X219421Y131088D01*
X217846D01*
X218896D02*
X219945Y130038D01*
X223094D02*
X220995D01*
X223094Y132137D01*
Y132662D01*
X222569Y133187D01*
X221520D01*
X220995Y132662D01*
X224144D02*
X224668Y133187D01*
X225718D01*
X226243Y132662D01*
Y132137D01*
X225718Y131613D01*
X225193D01*
X225718D01*
X226243Y131088D01*
Y130563D01*
X225718Y130038D01*
X224668D01*
X224144Y130563D01*
X39103Y243211D02*
X35954D01*
Y244785D01*
X36479Y245310D01*
X37529D01*
X38054Y244785D01*
Y243211D01*
Y244260D02*
X39103Y245310D01*
Y246359D02*
Y247409D01*
Y246884D01*
X35954D01*
X36479Y246359D01*
X38578Y248983D02*
X39103Y249508D01*
Y250557D01*
X38578Y251082D01*
X36479D01*
X35954Y250557D01*
Y249508D01*
X36479Y248983D01*
X37004D01*
X37529Y249508D01*
Y251082D01*
X45839Y259294D02*
Y262442D01*
X47413D01*
X47938Y261917D01*
Y260868D01*
X47413Y260343D01*
X45839D01*
X46889D02*
X47938Y259294D01*
X48988D02*
X50037D01*
X49512D01*
Y262442D01*
X48988Y261917D01*
X51612D02*
X52136Y262442D01*
X53186D01*
X53711Y261917D01*
Y261393D01*
X53186Y260868D01*
X53711Y260343D01*
Y259818D01*
X53186Y259294D01*
X52136D01*
X51612Y259818D01*
Y260343D01*
X52136Y260868D01*
X51612Y261393D01*
Y261917D01*
X52136Y260868D02*
X53186D01*
X129849Y39061D02*
Y42060D01*
X131348D01*
X131848Y41560D01*
Y40560D01*
X131348Y40060D01*
X129849D01*
X130848D02*
X131848Y39061D01*
X132848D02*
X133847D01*
X133348D01*
Y42060D01*
X132848Y41560D01*
X135347Y42060D02*
X137346D01*
Y41560D01*
X135347Y39561D01*
Y39061D01*
X191049Y38661D02*
Y41660D01*
X192548D01*
X193048Y41160D01*
Y40160D01*
X192548Y39661D01*
X191049D01*
X192048D02*
X193048Y38661D01*
X194048D02*
X195047D01*
X194548D01*
Y41660D01*
X194048Y41160D01*
X198546Y41660D02*
X197547Y41160D01*
X196547Y40160D01*
Y39161D01*
X197047Y38661D01*
X198046D01*
X198546Y39161D01*
Y39661D01*
X198046Y40160D01*
X196547D01*
X225486Y111299D02*
Y114447D01*
X227061D01*
X227585Y113923D01*
Y112873D01*
X227061Y112348D01*
X225486D01*
X226536D02*
X227585Y111299D01*
X228635D02*
X229684D01*
X229160D01*
Y114447D01*
X228635Y113923D01*
X233358Y114447D02*
X231259D01*
Y112873D01*
X232308Y113398D01*
X232833D01*
X233358Y112873D01*
Y111824D01*
X232833Y111299D01*
X231784D01*
X231259Y111824D01*
X79134Y140883D02*
Y144031D01*
X80708D01*
X81233Y143507D01*
Y142457D01*
X80708Y141932D01*
X79134D01*
X80184D02*
X81233Y140883D01*
X82283Y141408D02*
X82807Y140883D01*
X83857D01*
X84382Y141408D01*
Y143507D01*
X83857Y144031D01*
X82807D01*
X82283Y143507D01*
Y142982D01*
X82807Y142457D01*
X84382D01*
X227373Y99437D02*
X225274D01*
X224749Y98913D01*
Y97863D01*
X225274Y97338D01*
X227373D01*
X227898Y97863D01*
Y98913D01*
X226848Y98388D02*
X227898Y99437D01*
Y98913D02*
X227373Y99437D01*
X225274Y100487D02*
X224749Y101012D01*
Y102061D01*
X225274Y102586D01*
X225799D01*
X226324Y102061D01*
Y101537D01*
Y102061D01*
X226848Y102586D01*
X227373D01*
X227898Y102061D01*
Y101012D01*
X227373Y100487D01*
X222372Y61520D02*
Y65518D01*
X221372Y66518D01*
X219373D01*
X218373Y65518D01*
Y61520D01*
X219373Y60520D01*
X221372D01*
X220373Y62519D02*
X222372Y60520D01*
X221372D02*
X222372Y61520D01*
X228370Y60520D02*
X224372D01*
X228370Y64519D01*
Y65518D01*
X227371Y66518D01*
X225371D01*
X224372Y65518D01*
X323667Y17948D02*
Y14800D01*
Y15849D01*
X325766Y17948D01*
X324192Y16374D01*
X325766Y14800D01*
X326815Y17424D02*
X327340Y17948D01*
X328390D01*
X328914Y17424D01*
Y16899D01*
X328390Y16374D01*
X327865D01*
X328390D01*
X328914Y15849D01*
Y15325D01*
X328390Y14800D01*
X327340D01*
X326815Y15325D01*
X274327Y124718D02*
X277476D01*
X276426D01*
X274327Y126817D01*
X275901Y125243D01*
X277476Y126817D01*
Y127866D02*
Y128916D01*
Y128391D01*
X274327D01*
X274852Y127866D01*
X136039Y9673D02*
X135040D01*
X135539D01*
Y7174D01*
X135040Y6674D01*
X134540D01*
X134040Y7174D01*
X137039D02*
X137539Y6674D01*
X138539D01*
X139038Y7174D01*
Y9174D01*
X138539Y9673D01*
X137539D01*
X137039Y9174D01*
Y8674D01*
X137539Y8174D01*
X139038D01*
X6171Y243393D02*
X4838D01*
X5505D01*
Y240060D01*
X4838Y239394D01*
X4172D01*
X3505Y240060D01*
X7504Y242726D02*
X8171Y243393D01*
X9504D01*
X10170Y242726D01*
Y242060D01*
X9504Y241393D01*
X8837D01*
X9504D01*
X10170Y240727D01*
Y240060D01*
X9504Y239394D01*
X8171D01*
X7504Y240060D01*
X45494Y228100D02*
X46544D01*
X46019D01*
Y224951D01*
X45494D01*
X46544D01*
X50217Y227575D02*
X49693Y228100D01*
X48643D01*
X48118Y227575D01*
Y225476D01*
X48643Y224951D01*
X49693D01*
X50217Y225476D01*
X53366Y228100D02*
X51267D01*
Y226525D01*
X52316Y227050D01*
X52841D01*
X53366Y226525D01*
Y225476D01*
X52841Y224951D01*
X51792D01*
X51267Y225476D01*
X3766Y334030D02*
X5765D01*
X4766D01*
Y328032D01*
X3766D01*
X5765D01*
X12763Y333030D02*
X11763Y334030D01*
X9764D01*
X8764Y333030D01*
Y329031D01*
X9764Y328032D01*
X11763D01*
X12763Y329031D01*
X18761Y328032D02*
X14762D01*
X18761Y332031D01*
Y333030D01*
X17761Y334030D01*
X15762D01*
X14762Y333030D01*
X61842Y244140D02*
X61317Y244665D01*
X60268D01*
X59743Y244140D01*
Y242041D01*
X60268Y241516D01*
X61317D01*
X61842Y242041D01*
X64466Y241516D02*
Y244665D01*
X62891Y243090D01*
X64990D01*
X68139Y241516D02*
X66040D01*
X68139Y243615D01*
Y244140D01*
X67614Y244665D01*
X66565D01*
X66040Y244140D01*
X64838Y136129D02*
X64313Y136654D01*
X63264D01*
X62739Y136129D01*
Y134030D01*
X63264Y133505D01*
X64313D01*
X64838Y134030D01*
X67462Y133505D02*
Y136654D01*
X65888Y135079D01*
X67987D01*
X69036Y133505D02*
X70086D01*
X69561D01*
Y136654D01*
X69036Y136129D01*
X150883Y80774D02*
X150383Y80274D01*
Y79275D01*
X150883Y78775D01*
X152882D01*
X153382Y79275D01*
Y80274D01*
X152882Y80774D01*
X150883Y81774D02*
X150383Y82274D01*
Y83274D01*
X150883Y83773D01*
X151383D01*
X151883Y83274D01*
Y82774D01*
Y83274D01*
X152382Y83773D01*
X152882D01*
X153382Y83274D01*
Y82274D01*
X152882Y81774D01*
X150383Y86772D02*
X150883Y85773D01*
X151883Y84773D01*
X152882D01*
X153382Y85273D01*
Y86273D01*
X152882Y86772D01*
X152382D01*
X151883Y86273D01*
Y84773D01*
X166335Y94471D02*
X165836Y94971D01*
X164836D01*
X164336Y94471D01*
Y92471D01*
X164836Y91972D01*
X165836D01*
X166335Y92471D01*
X167335Y94471D02*
X167835Y94971D01*
X168835D01*
X169334Y94471D01*
Y93971D01*
X168835Y93471D01*
X168335D01*
X168835D01*
X169334Y92971D01*
Y92471D01*
X168835Y91972D01*
X167835D01*
X167335Y92471D01*
X172334Y94971D02*
X170334D01*
Y93471D01*
X171334Y93971D01*
X171834D01*
X172334Y93471D01*
Y92471D01*
X171834Y91972D01*
X170834D01*
X170334Y92471D01*
X176181Y79997D02*
X175682Y80496D01*
X174682D01*
X174182Y79997D01*
Y77997D01*
X174682Y77497D01*
X175682D01*
X176181Y77997D01*
X177181Y79997D02*
X177681Y80496D01*
X178681D01*
X179181Y79997D01*
Y79497D01*
X178681Y78997D01*
X178181D01*
X178681D01*
X179181Y78497D01*
Y77997D01*
X178681Y77497D01*
X177681D01*
X177181Y77997D01*
X182180Y77497D02*
X180180D01*
X182180Y79497D01*
Y79997D01*
X181680Y80496D01*
X180680D01*
X180180Y79997D01*
X121094Y36187D02*
X120594Y36687D01*
X119594D01*
X119094Y36187D01*
Y34188D01*
X119594Y33688D01*
X120594D01*
X121094Y34188D01*
X122093Y36187D02*
X122593Y36687D01*
X123593D01*
X124093Y36187D01*
Y35687D01*
X123593Y35187D01*
X123093D01*
X123593D01*
X124093Y34688D01*
Y34188D01*
X123593Y33688D01*
X122593D01*
X122093Y34188D01*
X125092Y33688D02*
X126092D01*
X125592D01*
Y36687D01*
X125092Y36187D01*
X162648Y43960D02*
X162148Y44460D01*
X161149D01*
X160649Y43960D01*
Y41961D01*
X161149Y41461D01*
X162148D01*
X162648Y41961D01*
X163648Y43960D02*
X164148Y44460D01*
X165147D01*
X165647Y43960D01*
Y43460D01*
X165147Y42960D01*
X164647D01*
X165147D01*
X165647Y42461D01*
Y41961D01*
X165147Y41461D01*
X164148D01*
X163648Y41961D01*
X166647Y43960D02*
X167147Y44460D01*
X168146D01*
X168646Y43960D01*
Y41961D01*
X168146Y41461D01*
X167147D01*
X166647Y41961D01*
Y43960D01*
X201348Y38660D02*
X200848Y39160D01*
X199848D01*
X199349Y38660D01*
Y36661D01*
X199848Y36161D01*
X200848D01*
X201348Y36661D01*
X204347Y36161D02*
X202348D01*
X204347Y38160D01*
Y38660D01*
X203847Y39160D01*
X202848D01*
X202348Y38660D01*
X205347Y36661D02*
X205847Y36161D01*
X206846D01*
X207346Y36661D01*
Y38660D01*
X206846Y39160D01*
X205847D01*
X205347Y38660D01*
Y38160D01*
X205847Y37660D01*
X207346D01*
X118170Y44366D02*
Y45678D01*
Y45022D01*
X114891D01*
X114235Y45678D01*
Y46334D01*
X114891Y46990D01*
X114235Y43054D02*
Y41742D01*
Y42398D01*
X118170D01*
X117514Y43054D01*
D19*
X287438Y17184D02*
X290770Y20517D01*
Y17184D02*
X287438Y20517D01*
X289104Y17184D02*
Y20517D01*
X290770Y18850D02*
X287438D01*
X328055Y108005D02*
X324723Y111338D01*
X328055D02*
X324723Y108005D01*
X328055Y109672D02*
X324723D01*
X326389Y111338D02*
Y108005D01*
X303052Y60367D02*
X306384Y63699D01*
Y60367D02*
X303052Y63699D01*
X304718Y60367D02*
Y63699D01*
X306384Y62033D02*
X303052D01*
X286740Y65746D02*
X290072Y69078D01*
Y65746D02*
X286740Y69078D01*
X288406Y65746D02*
Y69078D01*
X290072Y67412D02*
X286740D01*
X329783Y54634D02*
X326451Y51302D01*
Y54634D02*
X329783Y51302D01*
X328117Y54634D02*
Y51302D01*
X326451Y52968D02*
X329783D01*
X216991Y45184D02*
X213659Y41852D01*
Y45184D02*
X216991Y41852D01*
X215325Y45184D02*
Y41852D01*
X213659Y43518D02*
X216991D01*
X279521Y108005D02*
X276189Y111338D01*
X279521D02*
X276189Y108005D01*
X279521Y109672D02*
X276189D01*
X277855Y111338D02*
Y108005D01*
X179629Y73680D02*
X176297Y70347D01*
Y73680D02*
X179629Y70347D01*
X177963Y73680D02*
Y70347D01*
X176297Y72013D02*
X179629D01*
X235771Y230866D02*
Y230533D01*
Y230700D01*
X234771D01*
Y230866D01*
Y230533D01*
X235604Y229367D02*
X235771Y229533D01*
Y229867D01*
X235604Y230033D01*
X234938D01*
X234771Y229867D01*
Y229533D01*
X234938Y229367D01*
X234771Y228534D02*
X235771D01*
X235271Y229034D01*
Y228367D01*
X257352Y225588D02*
X257519Y225754D01*
Y226087D01*
X257352Y226254D01*
X256685D01*
X256519Y226087D01*
Y225754D01*
X256685Y225588D01*
X256519Y224588D02*
Y225254D01*
X257185Y224588D01*
X257352D01*
X257519Y224754D01*
Y225088D01*
X257352Y225254D01*
X257519Y224255D02*
Y223588D01*
X257352D01*
X256685Y224255D01*
X256519D01*
M02*
