G04*
G04 #@! TF.GenerationSoftware,Altium Limited,Altium Designer,21.3.2 (30)*
G04*
G04 Layer_Color=32896*
%FSLAX25Y25*%
%MOIN*%
G70*
G04*
G04 #@! TF.SameCoordinates,C802B3A6-08BF-4FCB-9CCF-05BD449E4A77*
G04*
G04*
G04 #@! TF.FilePolarity,Positive*
G04*
G01*
G75*
%ADD11C,0.00500*%
%ADD15C,0.00394*%
%ADD17C,0.00591*%
%ADD18C,0.01000*%
D11*
X352350Y56583D02*
Y60520D01*
X350381Y58552D02*
X354318D01*
X13767Y56583D02*
X17704D01*
X32370Y81485D02*
X335716D01*
X32370Y185D02*
X335716D01*
Y26859D01*
Y54811D02*
Y81485D01*
X32370Y185D02*
Y26859D01*
Y54811D02*
Y81485D01*
D15*
X128967Y295398D02*
X131722D01*
Y296775D01*
X131263Y297235D01*
X130344D01*
X129885Y296775D01*
Y295398D01*
Y296316D02*
X128967Y297235D01*
Y298153D02*
Y299071D01*
Y298612D01*
X131722D01*
X131263Y298153D01*
Y300449D02*
X131722Y300908D01*
Y301826D01*
X131263Y302285D01*
X129426D01*
X128967Y301826D01*
Y300908D01*
X129426Y300449D01*
X131263D01*
X133163Y288117D02*
X132704Y287658D01*
X131785D01*
X131326Y288117D01*
Y289953D01*
X131785Y290413D01*
X132704D01*
X133163Y289953D01*
X134081Y290413D02*
X135000D01*
X134540D01*
Y287658D01*
X134081Y288117D01*
X138214Y287658D02*
X136377D01*
Y289035D01*
X137295Y288576D01*
X137755D01*
X138214Y289035D01*
Y289953D01*
X137755Y290413D01*
X136836D01*
X136377Y289953D01*
D17*
X122232Y293420D02*
X122988D01*
X122232D02*
Y303420D01*
X122988D01*
X126988D02*
X127744D01*
Y293420D02*
Y303420D01*
X126988Y293420D02*
X127744D01*
X122232Y298420D02*
X127744D01*
X124596Y285550D02*
Y291062D01*
X119084Y285550D02*
Y286731D01*
Y285550D02*
X130107D01*
Y286731D01*
Y289881D02*
Y291062D01*
X119084D02*
X130107D01*
X119084Y289881D02*
Y291062D01*
D18*
X27049Y91559D02*
Y85561D01*
X24050D01*
X23050Y86560D01*
Y87560D01*
X24050Y88560D01*
X27049D01*
X24050D01*
X23050Y89560D01*
Y90559D01*
X24050Y91559D01*
X27049D01*
X21051D02*
X17052D01*
X19051D01*
Y85561D01*
X15053D02*
X13053D01*
X14053D01*
Y91559D01*
X15053Y90559D01*
X370338Y149052D02*
Y147740D01*
X370994Y147084D01*
X373617D01*
X374273Y147740D01*
Y149052D01*
X373617Y149708D01*
X370994D01*
X370338Y149052D01*
X374273Y151020D02*
X370338D01*
X374273Y153644D01*
X370338D01*
X374273Y162827D02*
X370338D01*
Y164795D01*
X370994Y165451D01*
X372305D01*
X372961Y164795D01*
Y162827D01*
X370338Y166763D02*
X373617D01*
X374273Y167419D01*
Y168731D01*
X373617Y169386D01*
X370338D01*
Y173322D02*
Y170698D01*
X374273D01*
Y173322D01*
X372305Y170698D02*
Y172010D01*
X374273Y174634D02*
X370338D01*
Y176602D01*
X370994Y177258D01*
X372305D01*
X372961Y176602D01*
Y174634D01*
Y175946D02*
X374273Y177258D01*
X370338Y178570D02*
Y181194D01*
Y179882D01*
X374273D01*
Y182506D02*
X371650D01*
X370338Y183818D01*
X371650Y185129D01*
X374273D01*
X372305D01*
Y182506D01*
X368959Y61632D02*
Y59008D01*
X372895D01*
Y61632D01*
X370927Y59008D02*
Y60320D01*
X372895Y62943D02*
X368959D01*
X372895Y65567D01*
X368959D01*
X369615Y69503D02*
X368959Y68847D01*
Y67535D01*
X369615Y66879D01*
X372239D01*
X372895Y67535D01*
Y68847D01*
X372239Y69503D01*
X370927Y70815D02*
Y73439D01*
X368959Y81310D02*
Y78686D01*
X372895D01*
Y81310D01*
X370927Y78686D02*
Y79998D01*
X372895Y82622D02*
X368959D01*
X372895Y85246D01*
X368959D01*
X369615Y89182D02*
X368959Y88526D01*
Y87214D01*
X369615Y86558D01*
X372239D01*
X372895Y87214D01*
Y88526D01*
X372239Y89182D01*
X370927Y90494D02*
Y93117D01*
X369615Y91805D02*
X372239D01*
X369615Y104925D02*
X368959Y104269D01*
Y102957D01*
X369615Y102301D01*
X370271D01*
X370927Y102957D01*
Y104269D01*
X371583Y104925D01*
X372239D01*
X372895Y104269D01*
Y102957D01*
X372239Y102301D01*
X368959Y106237D02*
Y107548D01*
Y106893D01*
X372895D01*
Y106237D01*
Y107548D01*
Y109516D02*
X368959D01*
Y111484D01*
X369615Y112140D01*
X370927D01*
X371583Y111484D01*
Y109516D01*
Y110828D02*
X372895Y112140D01*
X370927Y113452D02*
Y116076D01*
X369615Y127883D02*
X368959Y127227D01*
Y125915D01*
X369615Y125259D01*
X370271D01*
X370927Y125915D01*
Y127227D01*
X371583Y127883D01*
X372239D01*
X372895Y127227D01*
Y125915D01*
X372239Y125259D01*
X368959Y129195D02*
Y130507D01*
Y129851D01*
X372895D01*
Y129195D01*
Y130507D01*
Y132475D02*
X368959D01*
Y134443D01*
X369615Y135099D01*
X370927D01*
X371583Y134443D01*
Y132475D01*
Y133787D02*
X372895Y135099D01*
X370927Y136411D02*
Y139034D01*
X369615Y137723D02*
X372239D01*
X152568Y7666D02*
Y1668D01*
X156567D01*
X170562Y7666D02*
Y1668D01*
Y4667D01*
X174561D01*
Y7666D01*
Y1668D01*
M02*
