G04*
G04 #@! TF.GenerationSoftware,Altium Limited,Altium Designer,21.3.2 (30)*
G04*
G04 Layer_Color=16711935*
%FSLAX25Y25*%
%MOIN*%
G70*
G04*
G04 #@! TF.SameCoordinates,C802B3A6-08BF-4FCB-9CCF-05BD449E4A77*
G04*
G04*
G04 #@! TF.FilePolarity,Negative*
G04*
G01*
G75*
%ADD93R,0.04343X0.04737*%
%ADD97R,0.04540X0.04147*%
%ADD143C,0.10209*%
%ADD144C,0.14383*%
%ADD145C,0.08477*%
%ADD146C,0.07296*%
%ADD147R,0.07296X0.07296*%
%ADD148O,0.09658X0.18517*%
%ADD149O,0.18517X0.09658*%
%ADD150O,0.20485X0.10642*%
%ADD151R,0.08772X0.08772*%
%ADD152C,0.08772*%
%ADD153R,0.04934X0.04934*%
%ADD154C,0.04934*%
%ADD155C,0.05013*%
%ADD156C,0.02700*%
%ADD157C,0.05800*%
%ADD158C,0.03162*%
%ADD159C,0.02769*%
%ADD160C,0.02800*%
%ADD161C,0.02375*%
%ADD162C,0.02300*%
%ADD163C,0.03556*%
%ADD201R,0.30170X0.26272*%
D93*
X127253Y288306D02*
D03*
X121938D02*
D03*
D97*
X124988Y300979D02*
D03*
Y295861D02*
D03*
D143*
X325066Y72331D02*
D03*
D144*
X75381D02*
D03*
X292704Y9339D02*
D03*
D145*
X358426Y174964D02*
D03*
Y154964D02*
D03*
X359331Y65904D02*
D03*
Y85904D02*
D03*
Y105904D02*
D03*
Y125904D02*
D03*
X362732Y39615D02*
D03*
Y19615D02*
D03*
X173341Y13207D02*
D03*
X153341D02*
D03*
D146*
X179737Y126072D02*
D03*
X169737D02*
D03*
D147*
X159737D02*
D03*
D148*
X111087Y28716D02*
D03*
D149*
X92583Y16905D02*
D03*
D150*
Y40527D02*
D03*
D151*
X17109Y248160D02*
D03*
D152*
Y238160D02*
D03*
Y228160D02*
D03*
D153*
X200824Y201340D02*
D03*
D154*
X205824D02*
D03*
X200824Y196340D02*
D03*
X205824D02*
D03*
X200824Y191340D02*
D03*
X205824D02*
D03*
D155*
X170358Y194871D02*
D03*
Y189871D02*
D03*
X165358Y194871D02*
D03*
Y189871D02*
D03*
X160358Y194871D02*
D03*
Y189871D02*
D03*
X155358Y194871D02*
D03*
Y189871D02*
D03*
X150358Y194871D02*
D03*
Y189871D02*
D03*
D156*
X110724Y235565D02*
D03*
X321621Y43434D02*
D03*
X108239Y70062D02*
D03*
X103790D02*
D03*
X52115Y75578D02*
D03*
X144682Y179021D02*
D03*
X144486Y173291D02*
D03*
X242478Y247540D02*
D03*
X192062Y97597D02*
D03*
X205263D02*
D03*
X80964Y201451D02*
D03*
X85113Y285392D02*
D03*
X212439Y178940D02*
D03*
X206029Y185405D02*
D03*
X200929Y184729D02*
D03*
X302428Y181800D02*
D03*
X230788Y232144D02*
D03*
X231029Y236417D02*
D03*
X100662Y281732D02*
D03*
X97791Y291062D02*
D03*
X79048Y290893D02*
D03*
X64653Y260836D02*
D03*
X42362Y256362D02*
D03*
X38269Y246356D02*
D03*
X38352Y241080D02*
D03*
X99436Y276159D02*
D03*
X109442Y276117D02*
D03*
X124216Y276034D02*
D03*
X128228Y279241D02*
D03*
X337738Y271611D02*
D03*
X203307Y266840D02*
D03*
X207191Y261858D02*
D03*
X120123Y296664D02*
D03*
X119742Y301180D02*
D03*
X141947Y165419D02*
D03*
X204532Y111622D02*
D03*
X137197Y202197D02*
D03*
X111694Y194769D02*
D03*
X132599Y200769D02*
D03*
X127757Y196196D02*
D03*
X343172Y261299D02*
D03*
X331280Y247286D02*
D03*
Y230235D02*
D03*
X127024Y258472D02*
D03*
X152504Y154880D02*
D03*
X137927Y158557D02*
D03*
X99305Y169153D02*
D03*
X88849Y168591D02*
D03*
X85807Y168767D02*
D03*
X93676Y169153D02*
D03*
X192830Y122374D02*
D03*
X192673Y111610D02*
D03*
X142804Y131391D02*
D03*
X134968Y141392D02*
D03*
X128000Y140117D02*
D03*
X132366Y151739D02*
D03*
X131750Y158853D02*
D03*
X78206Y193758D02*
D03*
X86284Y204759D02*
D03*
X84652Y196197D02*
D03*
X106387Y165786D02*
D03*
Y162794D02*
D03*
Y168624D02*
D03*
X105694Y203121D02*
D03*
X122087Y263086D02*
D03*
X134288Y237400D02*
D03*
Y244037D02*
D03*
X141723Y253236D02*
D03*
X121432Y220282D02*
D03*
X205047Y170357D02*
D03*
X214839Y182919D02*
D03*
X219964Y164879D02*
D03*
X221381Y169385D02*
D03*
X212369Y143978D02*
D03*
X206856Y133715D02*
D03*
X208852Y108147D02*
D03*
X216888Y189382D02*
D03*
X214232Y217778D02*
D03*
X220256Y223890D02*
D03*
X228173Y227821D02*
D03*
X222588Y236525D02*
D03*
X219230Y247555D02*
D03*
X223523Y302290D02*
D03*
X194213Y301790D02*
D03*
X185203Y145443D02*
D03*
X224340Y112008D02*
D03*
X175762Y87802D02*
D03*
X175956Y84394D02*
D03*
X169905Y64022D02*
D03*
Y60883D02*
D03*
X172660D02*
D03*
X172729Y64022D02*
D03*
X155716Y36248D02*
D03*
X183685Y184505D02*
D03*
X238530Y311720D02*
D03*
X252243Y315636D02*
D03*
X90024Y85956D02*
D03*
Y82992D02*
D03*
X98325Y70118D02*
D03*
X98237Y72997D02*
D03*
X98137Y76043D02*
D03*
X97819Y78997D02*
D03*
X93676Y82992D02*
D03*
X93741Y86221D02*
D03*
X93676Y90367D02*
D03*
X237059Y244239D02*
D03*
X211820Y247547D02*
D03*
X198879Y278676D02*
D03*
X203633Y284252D02*
D03*
X210482Y266766D02*
D03*
X208261Y287705D02*
D03*
X217317Y277712D02*
D03*
Y284252D02*
D03*
X199094Y291525D02*
D03*
X190357Y289760D02*
D03*
Y294989D02*
D03*
X209265Y194025D02*
D03*
X183991Y173167D02*
D03*
X177364Y197010D02*
D03*
X173416Y215904D02*
D03*
X180698Y199997D02*
D03*
X173533Y199696D02*
D03*
X179695Y229902D02*
D03*
X209265Y199997D02*
D03*
X208514Y227563D02*
D03*
X222588Y226940D02*
D03*
X209367Y237400D02*
D03*
X200718Y240141D02*
D03*
X204611Y235054D02*
D03*
X202859Y251652D02*
D03*
X194641Y283715D02*
D03*
X198879Y263086D02*
D03*
X208514Y291525D02*
D03*
X194844Y269791D02*
D03*
X194682Y264870D02*
D03*
X190695Y262617D02*
D03*
Y214765D02*
D03*
X193193Y198691D02*
D03*
X274823Y189382D02*
D03*
Y178007D02*
D03*
X281191Y175062D02*
D03*
X287121Y174852D02*
D03*
X309894Y189432D02*
D03*
X42114Y215949D02*
D03*
X85280Y245290D02*
D03*
X89128Y256282D02*
D03*
X91239Y279292D02*
D03*
X136538Y218794D02*
D03*
X133670Y225747D02*
D03*
X136794Y208440D02*
D03*
X153510Y199997D02*
D03*
X156111Y203615D02*
D03*
X167280Y199997D02*
D03*
X171360Y229474D02*
D03*
X164488Y224641D02*
D03*
X159737Y218794D02*
D03*
X156111Y213131D02*
D03*
X159737Y199997D02*
D03*
X104161Y231013D02*
D03*
X102653Y218794D02*
D03*
X102376Y209551D02*
D03*
X111468Y206380D02*
D03*
X115858Y208943D02*
D03*
X149282Y208126D02*
D03*
X168139Y171804D02*
D03*
Y181865D02*
D03*
X176556D02*
D03*
X42022Y207301D02*
D03*
X120157Y255262D02*
D03*
X189639Y224766D02*
D03*
X197723Y206380D02*
D03*
Y215803D02*
D03*
X224837Y242360D02*
D03*
X152504Y159762D02*
D03*
X168814Y215904D02*
D03*
X174768Y172223D02*
D03*
X164438Y168767D02*
D03*
X166588Y155387D02*
D03*
X158303Y168624D02*
D03*
X138433Y149334D02*
D03*
X124119Y172049D02*
D03*
X134968Y171607D02*
D03*
X163294Y215803D02*
D03*
X177313Y215904D02*
D03*
X215313Y236525D02*
D03*
X217551Y233111D02*
D03*
X222588Y232681D02*
D03*
X236499Y224136D02*
D03*
X256826Y225903D02*
D03*
X267328Y224766D02*
D03*
X263247D02*
D03*
X259541D02*
D03*
X246548Y233785D02*
D03*
X226330Y269791D02*
D03*
X235954Y145896D02*
D03*
X227437Y145443D02*
D03*
X324931Y212714D02*
D03*
X318957Y196027D02*
D03*
X295221Y181322D02*
D03*
X269719D02*
D03*
X245760D02*
D03*
X313891Y184763D02*
D03*
X355029Y239673D02*
D03*
X354902Y252205D02*
D03*
X254614Y198655D02*
D03*
X265568Y192607D02*
D03*
X308478Y49284D02*
D03*
X291561Y49294D02*
D03*
X323793Y21679D02*
D03*
X271042Y51504D02*
D03*
X260127Y50951D02*
D03*
X263952Y88713D02*
D03*
X264595Y76905D02*
D03*
X212548Y64022D02*
D03*
X219222Y56345D02*
D03*
X210550Y59475D02*
D03*
X144446Y146437D02*
D03*
X164488Y133715D02*
D03*
X164438Y143978D02*
D03*
X169905Y131781D02*
D03*
X170352Y142466D02*
D03*
X336469Y81606D02*
D03*
X328661Y81499D02*
D03*
X321621Y81343D02*
D03*
X309930Y81073D02*
D03*
X62484Y87572D02*
D03*
X73858Y61987D02*
D03*
X72214Y83629D02*
D03*
X129648Y178789D02*
D03*
X123848Y181314D02*
D03*
X79149Y246689D02*
D03*
X99292Y218996D02*
D03*
X75254Y129725D02*
D03*
X115227Y172223D02*
D03*
X115172Y184739D02*
D03*
X70389Y120085D02*
D03*
X78506Y90010D02*
D03*
X72165Y89935D02*
D03*
X136276Y129725D02*
D03*
X221571Y118316D02*
D03*
X193193Y117797D02*
D03*
X270082Y111825D02*
D03*
X276385Y91947D02*
D03*
X323764Y33434D02*
D03*
X368749Y114605D02*
D03*
X359601Y114371D02*
D03*
X339827Y120512D02*
D03*
X330633Y123871D02*
D03*
X336788Y137120D02*
D03*
X345412Y137321D02*
D03*
X314375Y126620D02*
D03*
X268555Y133151D02*
D03*
X266786Y125835D02*
D03*
X97908Y152047D02*
D03*
X97675Y143043D02*
D03*
X224836Y56035D02*
D03*
X260997Y56030D02*
D03*
X269535D02*
D03*
X314375Y88401D02*
D03*
X323918Y87640D02*
D03*
X291561Y56035D02*
D03*
X307534Y55606D02*
D03*
X314696Y114371D02*
D03*
X5305Y158206D02*
D03*
X85113Y276525D02*
D03*
X85280Y260462D02*
D03*
X231025Y248040D02*
D03*
Y254826D02*
D03*
D157*
X20630Y35641D02*
D03*
X41559Y36665D02*
D03*
X30297Y53486D02*
D03*
X32339Y36080D02*
D03*
X42157Y46672D02*
D03*
X14756Y96075D02*
D03*
X23185D02*
D03*
X29735Y83833D02*
D03*
X29848Y77651D02*
D03*
X29847Y71582D02*
D03*
Y65512D02*
D03*
X30072Y59668D02*
D03*
X20406Y53599D02*
D03*
X20294Y59780D02*
D03*
X20631Y65625D02*
D03*
X20182Y71357D02*
D03*
X19844Y77652D02*
D03*
X20294Y83945D02*
D03*
X9729Y84057D02*
D03*
X10291Y78213D02*
D03*
X9954Y71694D02*
D03*
X9954Y65737D02*
D03*
Y59443D02*
D03*
Y53486D02*
D03*
X32022Y95621D02*
D03*
X26648Y101273D02*
D03*
X18516Y100997D02*
D03*
X10108D02*
D03*
X42774Y83629D02*
D03*
X101174Y26683D02*
D03*
X92905Y26269D02*
D03*
X83532Y26820D02*
D03*
X112891Y13174D02*
D03*
X107653Y6421D02*
D03*
X96213D02*
D03*
X85875Y6145D02*
D03*
X75537D02*
D03*
Y15931D02*
D03*
X74710Y26820D02*
D03*
X65475Y26682D02*
D03*
X66302Y15242D02*
D03*
X66164Y5731D02*
D03*
X10970Y35933D02*
D03*
X19966Y25834D02*
D03*
X31089Y25102D02*
D03*
X10530Y25834D02*
D03*
X42428D02*
D03*
X55826Y5731D02*
D03*
X55454Y26273D02*
D03*
X54948Y15098D02*
D03*
X43876Y4801D02*
D03*
X31142Y15632D02*
D03*
X76112Y153276D02*
D03*
X66313D02*
D03*
X55238Y188206D02*
D03*
X42561Y75389D02*
D03*
X42359Y66450D02*
D03*
X42561Y56965D02*
D03*
X43093Y15098D02*
D03*
X19433D02*
D03*
X10402D02*
D03*
X30502Y4292D02*
D03*
X20311D02*
D03*
X9665D02*
D03*
D158*
X18308Y299765D02*
D03*
X18196Y291504D02*
D03*
X18140Y282400D02*
D03*
X18196Y274251D02*
D03*
X263550Y299002D02*
D03*
X270360Y298932D02*
D03*
X310302Y265507D02*
D03*
X310579Y272317D02*
D03*
X303771Y272316D02*
D03*
X310371Y279055D02*
D03*
X303632Y278847D02*
D03*
X303700Y285726D02*
D03*
X310579Y285518D02*
D03*
X250363Y265438D02*
D03*
X257104Y272246D02*
D03*
X250295Y272455D02*
D03*
X256895Y279125D02*
D03*
X250434Y278777D02*
D03*
X257104Y285656D02*
D03*
X271555Y284127D02*
D03*
X250434Y285586D02*
D03*
X38548Y274869D02*
D03*
X336703Y267509D02*
D03*
X328072Y278223D02*
D03*
X219964Y195844D02*
D03*
X289068Y304942D02*
D03*
X220256Y209495D02*
D03*
Y214141D02*
D03*
X232812Y194173D02*
D03*
X228275Y194032D02*
D03*
X223331Y194050D02*
D03*
X220256Y200919D02*
D03*
X220525Y205860D02*
D03*
X220256Y217778D02*
D03*
X275683Y304942D02*
D03*
X282376D02*
D03*
X331897Y267509D02*
D03*
X327963Y270465D02*
D03*
X317320Y264753D02*
D03*
X317407Y270178D02*
D03*
X257367Y317946D02*
D03*
X291890Y284127D02*
D03*
X285400Y284468D02*
D03*
X278033D02*
D03*
X271905Y277712D02*
D03*
X278320D02*
D03*
X285160D02*
D03*
X291801D02*
D03*
X319327Y317826D02*
D03*
X328004D02*
D03*
X269539Y252764D02*
D03*
X264137D02*
D03*
X259417Y253076D02*
D03*
X254643Y253477D02*
D03*
X250445Y253076D02*
D03*
X246114D02*
D03*
X246143Y257130D02*
D03*
X246114Y262218D02*
D03*
Y267090D02*
D03*
Y272208D02*
D03*
X334055Y306711D02*
D03*
X340272D02*
D03*
X347536D02*
D03*
X353850D02*
D03*
X317359Y253869D02*
D03*
X317231Y258651D02*
D03*
X310402Y258509D02*
D03*
Y253869D02*
D03*
Y246957D02*
D03*
X23757Y282746D02*
D03*
X24097Y274869D02*
D03*
Y291460D02*
D03*
Y299869D02*
D03*
X24639Y308660D02*
D03*
X31022Y282746D02*
D03*
X31361Y299869D02*
D03*
Y291460D02*
D03*
Y274869D02*
D03*
X31904Y308660D02*
D03*
X38208Y282746D02*
D03*
X38548Y299869D02*
D03*
Y291460D02*
D03*
X39090Y308660D02*
D03*
X46193Y274869D02*
D03*
X53016D02*
D03*
X45854Y282746D02*
D03*
X52677D02*
D03*
X46193Y291460D02*
D03*
X53016D02*
D03*
X46193Y299869D02*
D03*
X53016D02*
D03*
X46736Y308660D02*
D03*
X53558D02*
D03*
X317495Y275635D02*
D03*
X333598Y311274D02*
D03*
X340239D02*
D03*
X347079D02*
D03*
X353494D02*
D03*
X333937Y316972D02*
D03*
X340577D02*
D03*
X347417D02*
D03*
X353832D02*
D03*
X245760Y277712D02*
D03*
X262480Y317946D02*
D03*
X251876Y303378D02*
D03*
X245760Y284127D02*
D03*
Y290967D02*
D03*
X245462Y303378D02*
D03*
X258717D02*
D03*
X245760Y297608D02*
D03*
X271555Y271759D02*
D03*
X283984Y246957D02*
D03*
X290399D02*
D03*
X277970Y271759D02*
D03*
X346387Y216374D02*
D03*
Y220137D02*
D03*
Y224237D02*
D03*
X304663Y246957D02*
D03*
X317918D02*
D03*
X298022D02*
D03*
X291451Y271759D02*
D03*
X282376Y317946D02*
D03*
X275960D02*
D03*
X265357Y303378D02*
D03*
X291114Y317946D02*
D03*
X284810Y271759D02*
D03*
X297754Y317946D02*
D03*
X269120D02*
D03*
X304594D02*
D03*
X311009D02*
D03*
X317495Y295531D02*
D03*
Y289116D02*
D03*
Y282276D02*
D03*
D159*
X171209Y248054D02*
D03*
X179664Y266494D02*
D03*
X104204Y289016D02*
D03*
X120168Y306799D02*
D03*
X133742Y306726D02*
D03*
X121586Y280527D02*
D03*
X121512Y284114D02*
D03*
X105961Y285797D02*
D03*
X110279Y285760D02*
D03*
X136794Y295268D02*
D03*
X126754Y306690D02*
D03*
X212471Y165901D02*
D03*
X189421Y306572D02*
D03*
X108523Y289017D02*
D03*
X123351Y306690D02*
D03*
X130376Y306799D02*
D03*
X168691Y288203D02*
D03*
X163015Y287862D02*
D03*
X158413D02*
D03*
X153662D02*
D03*
X148529Y288203D02*
D03*
X142862D02*
D03*
X137164D02*
D03*
X167482Y270159D02*
D03*
X168383Y276131D02*
D03*
X168075Y281328D02*
D03*
X163015Y270424D02*
D03*
Y276131D02*
D03*
X162810Y281328D02*
D03*
X158413Y270424D02*
D03*
Y275907D02*
D03*
Y281328D02*
D03*
X154282Y270424D02*
D03*
Y275750D02*
D03*
Y281328D02*
D03*
X332512Y160301D02*
D03*
X332530Y165880D02*
D03*
X269027Y160676D02*
D03*
X269281Y158007D02*
D03*
X264340Y157723D02*
D03*
X264297Y164087D02*
D03*
X260205Y158007D02*
D03*
X255309Y157952D02*
D03*
X250029D02*
D03*
X244909Y158007D02*
D03*
X240486Y157845D02*
D03*
X209053Y163231D02*
D03*
X202095Y162794D02*
D03*
X178088Y251563D02*
D03*
X174753Y251076D02*
D03*
X178088Y254133D02*
D03*
X174717Y253924D02*
D03*
X177960Y256728D02*
D03*
X174459D02*
D03*
X171244Y250798D02*
D03*
X171175Y253890D02*
D03*
X171052Y256589D02*
D03*
X179212Y276707D02*
D03*
X65409Y231018D02*
D03*
X46736D02*
D03*
X61257Y238640D02*
D03*
X58533Y235181D02*
D03*
X63867D02*
D03*
X50282Y231018D02*
D03*
X54561D02*
D03*
X58633D02*
D03*
X61917D02*
D03*
X68971Y232671D02*
D03*
Y236333D02*
D03*
X68789Y239956D02*
D03*
X68526Y243485D02*
D03*
X83199Y231525D02*
D03*
X99292Y215904D02*
D03*
X93304Y219983D02*
D03*
X86284Y231525D02*
D03*
X208852Y166025D02*
D03*
X332512Y163072D02*
D03*
X202095Y166044D02*
D03*
X179019Y165901D02*
D03*
X205739Y166025D02*
D03*
X274509Y162489D02*
D03*
X264297Y160591D02*
D03*
X240386Y161845D02*
D03*
X250044Y161646D02*
D03*
X255265D02*
D03*
X244960Y161778D02*
D03*
X259894Y161779D02*
D03*
X143770Y275817D02*
D03*
X149282Y281328D02*
D03*
X138259Y270305D02*
D03*
X149282D02*
D03*
Y275817D02*
D03*
X143770Y270305D02*
D03*
Y281328D02*
D03*
X138259Y275817D02*
D03*
Y281328D02*
D03*
X176882Y306360D02*
D03*
X173004Y306433D02*
D03*
X174766Y266812D02*
D03*
Y270410D02*
D03*
Y274666D02*
D03*
Y279017D02*
D03*
Y283715D02*
D03*
Y288046D02*
D03*
X169091Y295013D02*
D03*
X163106Y295150D02*
D03*
X158177Y295077D02*
D03*
X152467D02*
D03*
X147299D02*
D03*
X142166Y295268D02*
D03*
X168886Y302290D02*
D03*
X163106Y302356D02*
D03*
X157395Y302425D02*
D03*
X152228Y302391D02*
D03*
X147094D02*
D03*
X141723Y302357D02*
D03*
X136929Y302357D02*
D03*
D160*
X75483Y103820D02*
D03*
X65007Y95825D02*
D03*
D161*
X373286Y282413D02*
D03*
X374860Y279264D02*
D03*
X373286Y276114D02*
D03*
X374860Y272964D02*
D03*
X373286Y269815D02*
D03*
X374860Y266665D02*
D03*
X373286Y263516D02*
D03*
X374860Y260366D02*
D03*
X373286Y257216D02*
D03*
X374860Y254067D02*
D03*
X373286Y244618D02*
D03*
X374860Y235169D02*
D03*
X373286Y232019D02*
D03*
X374860Y228870D02*
D03*
X373286Y225720D02*
D03*
X374860Y222571D02*
D03*
X373286Y219421D02*
D03*
X374860Y216271D02*
D03*
X373286Y213122D02*
D03*
X374860Y209972D02*
D03*
X373286Y206823D02*
D03*
X370136Y282413D02*
D03*
X371711Y279264D02*
D03*
X370136Y276114D02*
D03*
X371711Y272964D02*
D03*
X370136Y269815D02*
D03*
X371711Y266665D02*
D03*
X370136Y263516D02*
D03*
X371711Y260366D02*
D03*
X370136Y257216D02*
D03*
X371711Y254067D02*
D03*
X370136Y244618D02*
D03*
X371711Y235169D02*
D03*
X370136Y232019D02*
D03*
X371711Y228870D02*
D03*
X370136Y225720D02*
D03*
X371711Y222571D02*
D03*
X370136Y219421D02*
D03*
X371711Y216271D02*
D03*
X370136Y213122D02*
D03*
X371711Y209972D02*
D03*
X370136Y206823D02*
D03*
X366986Y282413D02*
D03*
X368561Y279264D02*
D03*
X366986Y276114D02*
D03*
X368561Y272964D02*
D03*
X366986Y269815D02*
D03*
X368561Y266665D02*
D03*
X366986Y263516D02*
D03*
X368561Y260366D02*
D03*
X366986Y257216D02*
D03*
X368561Y254067D02*
D03*
Y235169D02*
D03*
X366986Y232019D02*
D03*
X368561Y228870D02*
D03*
X366986Y225720D02*
D03*
X368561Y222571D02*
D03*
X366986Y219421D02*
D03*
X368561Y216271D02*
D03*
X366986Y213122D02*
D03*
X368561Y209972D02*
D03*
X366986Y206823D02*
D03*
X363837Y282413D02*
D03*
X365411Y279264D02*
D03*
X363837Y276114D02*
D03*
X365411Y272964D02*
D03*
X363837Y269815D02*
D03*
X365411Y266665D02*
D03*
X363837Y263516D02*
D03*
X365411Y260366D02*
D03*
X363837Y257216D02*
D03*
X365411Y254067D02*
D03*
X363837Y250917D02*
D03*
Y238319D02*
D03*
X365411Y235169D02*
D03*
X363837Y232019D02*
D03*
X365411Y228870D02*
D03*
X363837Y225720D02*
D03*
X365411Y222571D02*
D03*
X363837Y219421D02*
D03*
X365411Y216271D02*
D03*
X363837Y213122D02*
D03*
X365411Y209972D02*
D03*
X363837Y206823D02*
D03*
X360687Y282413D02*
D03*
X362262Y279264D02*
D03*
X360687Y276114D02*
D03*
X362262Y272964D02*
D03*
X360687Y269815D02*
D03*
X362262Y266665D02*
D03*
X360687Y263516D02*
D03*
X362262Y260366D02*
D03*
X360687Y257216D02*
D03*
X362262Y254067D02*
D03*
X360687Y250917D02*
D03*
X362262Y247767D02*
D03*
Y241468D02*
D03*
X360687Y238319D02*
D03*
X362262Y235169D02*
D03*
X360687Y232019D02*
D03*
X362262Y228870D02*
D03*
X360687Y225720D02*
D03*
X362262Y222571D02*
D03*
X360687Y219421D02*
D03*
X362262Y216271D02*
D03*
X360687Y213122D02*
D03*
X362262Y209972D02*
D03*
X360687Y206823D02*
D03*
X359112Y272964D02*
D03*
X357537Y269815D02*
D03*
X359112Y266665D02*
D03*
X357537Y263516D02*
D03*
X359112Y260366D02*
D03*
X357537Y257216D02*
D03*
X359112Y254067D02*
D03*
X357537Y250917D02*
D03*
X359112Y247767D02*
D03*
Y241468D02*
D03*
X357537Y238319D02*
D03*
X359112Y235169D02*
D03*
X357537Y232019D02*
D03*
X355963Y272964D02*
D03*
X354388Y269815D02*
D03*
X355963Y266665D02*
D03*
X354388Y263516D02*
D03*
X355963Y260366D02*
D03*
X352813Y272964D02*
D03*
X351238Y269815D02*
D03*
X352813Y266665D02*
D03*
X351238Y263516D02*
D03*
X352813Y260366D02*
D03*
X351238Y250917D02*
D03*
Y238319D02*
D03*
X352813Y235169D02*
D03*
X351238Y232019D02*
D03*
X348089Y263516D02*
D03*
X349663Y260366D02*
D03*
Y254067D02*
D03*
X348089Y238319D02*
D03*
X349663Y235169D02*
D03*
X348089Y232019D02*
D03*
X346514Y260366D02*
D03*
X344939Y238319D02*
D03*
X346514Y235169D02*
D03*
X344939Y232019D02*
D03*
X343364Y247767D02*
D03*
X341789Y238319D02*
D03*
X343364Y235169D02*
D03*
X341789Y232019D02*
D03*
X338640Y257216D02*
D03*
X340215Y247767D02*
D03*
Y235169D02*
D03*
X338640Y232019D02*
D03*
X335490Y257216D02*
D03*
X337065Y247767D02*
D03*
Y235169D02*
D03*
X333915Y254067D02*
D03*
X329191Y238319D02*
D03*
X327616Y247767D02*
D03*
X326041Y244618D02*
D03*
X322892D02*
D03*
X319742D02*
D03*
X316593D02*
D03*
X315018Y247767D02*
D03*
X313443Y244618D02*
D03*
X182681Y155960D02*
D03*
X185552Y158557D02*
D03*
X193193Y157707D02*
D03*
X182647Y150993D02*
D03*
D162*
X174688Y157536D02*
D03*
X174557Y159813D02*
D03*
X178181Y161166D02*
D03*
X174557Y154846D02*
D03*
X174676Y152378D02*
D03*
X174768Y150127D02*
D03*
D163*
X325110Y62648D02*
D03*
X7221Y175708D02*
D03*
D201*
X27862Y40835D02*
D03*
X340224D02*
D03*
M02*
