G04*
G04 #@! TF.GenerationSoftware,Altium Limited,Altium Designer,21.3.2 (30)*
G04*
G04 Layer_Physical_Order=2*
G04 Layer_Color=16711680*
%FSLAX25Y25*%
%MOIN*%
G70*
G04*
G04 #@! TF.SameCoordinates,C802B3A6-08BF-4FCB-9CCF-05BD449E4A77*
G04*
G04*
G04 #@! TF.FilePolarity,Positive*
G04*
G01*
G75*
%ADD10C,0.00787*%
%ADD16C,0.00600*%
%ADD18C,0.01000*%
%ADD34R,0.03543X0.03937*%
%ADD38R,0.03740X0.03347*%
%ADD164C,0.01200*%
%ADD169C,0.02500*%
%ADD170C,0.02000*%
%ADD173C,0.00800*%
%ADD174C,0.01201*%
%ADD175C,0.01181*%
%ADD176C,0.01968*%
%ADD178C,0.09409*%
%ADD179C,0.13583*%
%ADD180C,0.07677*%
%ADD181C,0.06496*%
%ADD182R,0.06496X0.06496*%
%ADD183O,0.08858X0.17717*%
%ADD184O,0.17717X0.08858*%
%ADD185O,0.19685X0.09843*%
%ADD186R,0.07972X0.07972*%
%ADD187C,0.07972*%
%ADD188R,0.04134X0.04134*%
%ADD189C,0.04134*%
%ADD190C,0.04213*%
%ADD191C,0.01900*%
%ADD192C,0.05000*%
%ADD193C,0.02362*%
%ADD194C,0.01968*%
%ADD195C,0.02000*%
%ADD196C,0.01575*%
%ADD197C,0.01500*%
%ADD198C,0.02756*%
%ADD199R,0.29370X0.25472*%
%ADD200C,0.00598*%
G36*
X2436Y337107D02*
X85897D01*
Y310133D01*
X215407D01*
Y337107D01*
X377741D01*
X377741Y333D01*
X404D01*
X404Y337407D01*
X2135D01*
X2436Y337107D01*
D02*
G37*
%LPC*%
G36*
X252572Y317286D02*
X251915D01*
X251308Y317035D01*
X251132Y316859D01*
X246508D01*
X246039Y316766D01*
X245642Y316501D01*
X241639Y312498D01*
X241611D01*
X241341Y312679D01*
X240873Y312772D01*
X239814D01*
X239466Y313120D01*
X238859Y313371D01*
X238202D01*
X237595Y313120D01*
X237131Y312655D01*
X236880Y312049D01*
Y311392D01*
X237131Y310785D01*
X237595Y310321D01*
X238202Y310069D01*
X238859D01*
X239466Y310321D01*
X239469Y310325D01*
X240408D01*
X240678Y310144D01*
X241146Y310051D01*
X242146D01*
X242615Y310144D01*
X243011Y310409D01*
X247014Y314412D01*
X251132D01*
X251308Y314236D01*
X251915Y313985D01*
X252572D01*
X253178Y314236D01*
X253643Y314701D01*
X253894Y315307D01*
Y315964D01*
X253643Y316571D01*
X253178Y317035D01*
X252572Y317286D01*
D02*
G37*
G36*
X223852Y303941D02*
X223195D01*
X222588Y303689D01*
X222124Y303225D01*
X221952Y302809D01*
X195529D01*
X195149Y303190D01*
X194542Y303441D01*
X193885D01*
X193278Y303190D01*
X192814Y302726D01*
X192563Y302119D01*
Y301462D01*
X192814Y300855D01*
X193278Y300391D01*
X193885Y300140D01*
X194542D01*
X195149Y300391D01*
X195529Y300772D01*
X222672D01*
X222809Y300799D01*
X223195Y300639D01*
X223852D01*
X224459Y300890D01*
X224923Y301355D01*
X225174Y301961D01*
Y302618D01*
X224923Y303225D01*
X224459Y303689D01*
X223852Y303941D01*
D02*
G37*
G36*
X127558Y303352D02*
X122418D01*
Y302914D01*
X119742D01*
X119079Y302782D01*
X118516Y302406D01*
X118141Y301844D01*
X118009Y301180D01*
X118141Y300517D01*
X118516Y299955D01*
X119079Y299579D01*
X119742Y299447D01*
X122418D01*
Y298734D01*
X122418Y298606D01*
Y298234D01*
X122051Y297786D01*
X121336D01*
X121058Y298064D01*
X120451Y298315D01*
X119794D01*
X119188Y298064D01*
X118723Y297599D01*
X118472Y296993D01*
Y296336D01*
X118723Y295729D01*
X119188Y295265D01*
X119794Y295013D01*
X120451D01*
X121058Y295265D01*
X121336Y295543D01*
X122418D01*
Y293488D01*
X123387D01*
X123866Y293445D01*
X123952Y293016D01*
X124195Y292652D01*
X125373Y291474D01*
X125166Y290974D01*
X124781D01*
Y285637D01*
X126304D01*
Y281791D01*
X126304Y281791D01*
X126390Y281362D01*
X126633Y280998D01*
X126890Y280741D01*
Y280238D01*
X126828Y280176D01*
X126577Y279570D01*
Y278913D01*
X126828Y278306D01*
X127293Y277842D01*
X127900Y277590D01*
X128556D01*
X129163Y277842D01*
X129627Y278306D01*
X129879Y278913D01*
Y279570D01*
X129627Y280176D01*
X129163Y280641D01*
X129139Y280651D01*
Y281200D01*
X129139Y281200D01*
X129053Y281629D01*
X128810Y281993D01*
X128810Y281993D01*
X128547Y282256D01*
Y285637D01*
X129725D01*
Y290974D01*
X127872D01*
Y291683D01*
X127872Y291683D01*
X127787Y292112D01*
X127544Y292476D01*
X127543Y292476D01*
X126994Y293026D01*
X127185Y293488D01*
X127558D01*
Y298106D01*
X127558Y298234D01*
Y298606D01*
X127558Y298734D01*
Y303352D01*
D02*
G37*
G36*
X98120Y292712D02*
X97463D01*
X96856Y292461D01*
X96533Y292138D01*
X84475D01*
X84366Y292159D01*
X84257Y292138D01*
X80137D01*
X79983Y292292D01*
X79376Y292544D01*
X78720D01*
X78113Y292292D01*
X77648Y291828D01*
X77397Y291221D01*
Y290564D01*
X77648Y289958D01*
X78113Y289493D01*
X78720Y289242D01*
X79376D01*
X79983Y289493D01*
X80181Y289691D01*
X96828D01*
X96856Y289662D01*
X97463Y289411D01*
X98120D01*
X98726Y289662D01*
X99191Y290127D01*
X99442Y290733D01*
Y291390D01*
X99191Y291997D01*
X98726Y292461D01*
X98120Y292712D01*
D02*
G37*
G36*
X190685Y296639D02*
X190029D01*
X189422Y296388D01*
X188957Y295924D01*
X188706Y295317D01*
Y294660D01*
X188957Y294054D01*
X189422Y293589D01*
X190029Y293338D01*
X190685D01*
X191292Y293589D01*
X191570Y293867D01*
X197011D01*
X197762Y293116D01*
Y292528D01*
X197694Y292460D01*
X197443Y291854D01*
Y291197D01*
X197694Y290590D01*
X198159Y290126D01*
X198766Y289875D01*
X199422D01*
X200029Y290126D01*
X200493Y290590D01*
X200745Y291197D01*
Y291854D01*
X200493Y292460D01*
X200029Y292925D01*
X200005Y292935D01*
Y293581D01*
X200005Y293581D01*
X199920Y294010D01*
X199677Y294374D01*
X199676Y294374D01*
X198269Y295782D01*
X197905Y296025D01*
X197476Y296110D01*
X197476Y296110D01*
X191570D01*
X191292Y296388D01*
X190685Y296639D01*
D02*
G37*
G36*
Y291411D02*
X190029D01*
X189422Y291160D01*
X188957Y290696D01*
X188706Y290089D01*
Y289432D01*
X188957Y288825D01*
X189422Y288361D01*
X190029Y288110D01*
X190421D01*
X191620Y286912D01*
X191620Y286912D01*
X191984Y286668D01*
X192413Y286583D01*
X192413Y286583D01*
X207048D01*
X207326Y286305D01*
X207933Y286054D01*
X208590D01*
X209196Y286305D01*
X209661Y286770D01*
X209912Y287376D01*
Y288033D01*
X209661Y288640D01*
X209196Y289104D01*
X208590Y289355D01*
X207933D01*
X207326Y289104D01*
X207048Y288826D01*
X192877D01*
X192008Y289696D01*
Y290089D01*
X191756Y290696D01*
X191292Y291160D01*
X190685Y291411D01*
D02*
G37*
G36*
X217645Y285903D02*
X216989D01*
X216382Y285651D01*
X216104Y285373D01*
X204846D01*
X204568Y285651D01*
X203962Y285903D01*
X203305D01*
X202698Y285651D01*
X202234Y285187D01*
X201982Y284580D01*
Y283924D01*
X202234Y283317D01*
X202698Y282852D01*
X203305Y282601D01*
X203962D01*
X204568Y282852D01*
X204846Y283130D01*
X216104D01*
X216382Y282852D01*
X216989Y282601D01*
X217645D01*
X218252Y282852D01*
X218716Y283317D01*
X218968Y283924D01*
Y284580D01*
X218716Y285187D01*
X218252Y285651D01*
X217645Y285903D01*
D02*
G37*
G36*
X100990Y283383D02*
X100333D01*
X99727Y283131D01*
X99262Y282667D01*
X99011Y282060D01*
Y281658D01*
X97760Y280407D01*
X92458D01*
X92174Y280691D01*
X91567Y280942D01*
X90911D01*
X90304Y280691D01*
X89840Y280227D01*
X89588Y279620D01*
Y278963D01*
X89840Y278357D01*
X90304Y277892D01*
X90911Y277641D01*
X91567D01*
X92174Y277892D01*
X92458Y278176D01*
X98221D01*
X98221Y278176D01*
X98648Y278261D01*
X99010Y278503D01*
X100588Y280081D01*
X100990D01*
X101597Y280332D01*
X102061Y280797D01*
X102313Y281403D01*
Y282060D01*
X102061Y282667D01*
X101597Y283131D01*
X100990Y283383D01*
D02*
G37*
G36*
X85441Y287043D02*
X84784D01*
X84178Y286791D01*
X83713Y286327D01*
X83462Y285720D01*
Y285064D01*
X83713Y284457D01*
X83889Y284281D01*
Y277636D01*
X83713Y277460D01*
X83462Y276854D01*
Y276197D01*
X83713Y275590D01*
X84178Y275126D01*
X84784Y274874D01*
X85441D01*
X86048Y275126D01*
X86512Y275590D01*
X86763Y276197D01*
Y276854D01*
X86512Y277460D01*
X86336Y277636D01*
Y284281D01*
X86512Y284457D01*
X86763Y285064D01*
Y285720D01*
X86512Y286327D01*
X86048Y286791D01*
X85441Y287043D01*
D02*
G37*
G36*
X99765Y277809D02*
X99108D01*
X98501Y277558D01*
X98037Y277094D01*
X97786Y276487D01*
Y275830D01*
X98037Y275223D01*
X98501Y274759D01*
X99108Y274508D01*
X99765D01*
X100372Y274759D01*
X100836Y275223D01*
X101087Y275830D01*
Y276487D01*
X100836Y277094D01*
X100372Y277558D01*
X99765Y277809D01*
D02*
G37*
G36*
X109771Y277768D02*
X109114D01*
X108507Y277517D01*
X108043Y277052D01*
X107791Y276446D01*
Y275789D01*
X108043Y275182D01*
X108507Y274718D01*
X109114Y274466D01*
X109771D01*
X110377Y274718D01*
X110614Y274954D01*
X122962D01*
X123281Y274634D01*
X123888Y274383D01*
X124545D01*
X125152Y274634D01*
X125616Y275099D01*
X125867Y275705D01*
Y276362D01*
X125616Y276969D01*
X125152Y277433D01*
X124545Y277685D01*
X123888D01*
X123281Y277433D01*
X123045Y277197D01*
X110697D01*
X110377Y277517D01*
X109771Y277768D01*
D02*
G37*
G36*
X203635Y268491D02*
X202978D01*
X202372Y268239D01*
X201907Y267775D01*
X201656Y267168D01*
Y266511D01*
X201907Y265905D01*
X202372Y265440D01*
X202978Y265189D01*
X203635D01*
X204242Y265440D01*
X204446Y265645D01*
X209269D01*
X209547Y265367D01*
X210154Y265115D01*
X210811D01*
X211417Y265367D01*
X211882Y265831D01*
X212133Y266438D01*
Y267094D01*
X211882Y267701D01*
X211417Y268166D01*
X210811Y268417D01*
X210154D01*
X209547Y268166D01*
X209269Y267888D01*
X204593D01*
X204242Y268239D01*
X203635Y268491D01*
D02*
G37*
G36*
X195172Y271442D02*
X194516D01*
X193909Y271191D01*
X193444Y270726D01*
X193193Y270120D01*
Y269463D01*
X193444Y268856D01*
X193641Y268659D01*
Y266164D01*
X193283Y265805D01*
X193031Y265198D01*
Y264542D01*
X193283Y263935D01*
X193747Y263470D01*
X194354Y263219D01*
X195010D01*
X195617Y263470D01*
X196081Y263935D01*
X196333Y264542D01*
Y265198D01*
X196081Y265805D01*
X195885Y266002D01*
Y268497D01*
X196243Y268856D01*
X196495Y269463D01*
Y270120D01*
X196243Y270726D01*
X195779Y271191D01*
X195172Y271442D01*
D02*
G37*
G36*
X199208Y280327D02*
X198551D01*
X197944Y280076D01*
X197480Y279611D01*
X197228Y279005D01*
Y278348D01*
X197480Y277741D01*
X197758Y277463D01*
Y264299D01*
X197480Y264021D01*
X197228Y263415D01*
Y262758D01*
X197480Y262151D01*
X197944Y261687D01*
X198551Y261436D01*
X199208D01*
X199814Y261687D01*
X200279Y262151D01*
X200530Y262758D01*
Y263415D01*
X200279Y264021D01*
X200001Y264299D01*
Y277463D01*
X200279Y277741D01*
X200530Y278348D01*
Y279005D01*
X200279Y279611D01*
X199814Y280076D01*
X199208Y280327D01*
D02*
G37*
G36*
X194969Y285366D02*
X194312D01*
X193706Y285114D01*
X193241Y284650D01*
X192990Y284043D01*
Y283505D01*
X192400Y282915D01*
X192157Y282551D01*
X192071Y282122D01*
X192072Y282122D01*
Y273426D01*
X189902Y271256D01*
X189659Y270893D01*
X189574Y270463D01*
X189574Y270463D01*
Y263830D01*
X189296Y263552D01*
X189044Y262946D01*
Y262289D01*
X189296Y261682D01*
X189760Y261218D01*
X190367Y260966D01*
X191024D01*
X191630Y261218D01*
X192095Y261682D01*
X192346Y262289D01*
Y262946D01*
X192095Y263552D01*
X191817Y263830D01*
Y269999D01*
X193986Y272168D01*
X193986Y272168D01*
X194229Y272532D01*
X194315Y272961D01*
X194315Y272961D01*
Y281657D01*
X194721Y282064D01*
X194969D01*
X195576Y282315D01*
X196040Y282780D01*
X196291Y283386D01*
Y284043D01*
X196040Y284650D01*
X195576Y285114D01*
X194969Y285366D01*
D02*
G37*
G36*
X338067Y273262D02*
X337410D01*
X336803Y273011D01*
X336339Y272547D01*
X336087Y271940D01*
Y271283D01*
X336339Y270676D01*
X336677Y270338D01*
Y270309D01*
X336770Y269841D01*
X337035Y269444D01*
X341949Y264531D01*
Y262410D01*
X341773Y262234D01*
X341521Y261628D01*
Y260971D01*
X341773Y260364D01*
X342237Y259900D01*
X342844Y259648D01*
X343500D01*
X344107Y259900D01*
X344571Y260364D01*
X344823Y260971D01*
Y261628D01*
X344571Y262234D01*
X344395Y262410D01*
Y265038D01*
X344302Y265506D01*
X344037Y265903D01*
X339175Y270765D01*
X339389Y271283D01*
Y271940D01*
X339138Y272547D01*
X338673Y273011D01*
X338067Y273262D01*
D02*
G37*
G36*
X64981Y262487D02*
X64324D01*
X63718Y262235D01*
X63253Y261771D01*
X63002Y261164D01*
Y260915D01*
X59672Y257586D01*
X43474D01*
X43297Y257762D01*
X42691Y258013D01*
X42034D01*
X41427Y257762D01*
X40963Y257297D01*
X40712Y256690D01*
Y256034D01*
X40963Y255427D01*
X41427Y254962D01*
X42034Y254711D01*
X42691D01*
X43297Y254962D01*
X43474Y255138D01*
X60179D01*
X60647Y255232D01*
X61044Y255497D01*
X64732Y259185D01*
X64981D01*
X65588Y259436D01*
X66052Y259901D01*
X66303Y260507D01*
Y261164D01*
X66052Y261771D01*
X65588Y262235D01*
X64981Y262487D01*
D02*
G37*
G36*
X122415Y264737D02*
X121759D01*
X121152Y264486D01*
X120688Y264021D01*
X120436Y263415D01*
Y262758D01*
X120688Y262151D01*
X121152Y261687D01*
X121759Y261436D01*
X122313D01*
X125373Y258376D01*
Y258144D01*
X125624Y257537D01*
X126089Y257073D01*
X126695Y256821D01*
X127352D01*
X127959Y257073D01*
X128423Y257537D01*
X128674Y258144D01*
Y258801D01*
X128423Y259407D01*
X127959Y259872D01*
X127352Y260123D01*
X126798D01*
X123738Y263183D01*
Y263415D01*
X123487Y264021D01*
X123022Y264486D01*
X122415Y264737D01*
D02*
G37*
G36*
X120485Y256912D02*
X119828D01*
X119222Y256661D01*
X118757Y256197D01*
X118506Y255590D01*
Y254933D01*
X118757Y254327D01*
X119222Y253862D01*
X119828Y253611D01*
X120221D01*
X121390Y252443D01*
X121390Y252443D01*
X121754Y252199D01*
X122183Y252114D01*
X122183Y252114D01*
X140510D01*
X140787Y251836D01*
X141394Y251585D01*
X142051D01*
X142658Y251836D01*
X143122Y252301D01*
X143373Y252907D01*
Y253564D01*
X143122Y254171D01*
X142658Y254635D01*
X142051Y254886D01*
X141394D01*
X140787Y254635D01*
X140510Y254357D01*
X122647D01*
X121808Y255197D01*
Y255590D01*
X121556Y256197D01*
X121092Y256661D01*
X120485Y256912D01*
D02*
G37*
G36*
X231354Y256476D02*
X230697D01*
X230090Y256225D01*
X229626Y255761D01*
X229375Y255154D01*
Y254497D01*
X229626Y253890D01*
X229802Y253714D01*
Y249151D01*
X229626Y248975D01*
X229375Y248368D01*
Y247711D01*
X229626Y247105D01*
X230090Y246640D01*
X230697Y246389D01*
X231354D01*
X231960Y246640D01*
X232425Y247105D01*
X232676Y247711D01*
Y248368D01*
X232425Y248975D01*
X232249Y249151D01*
Y253714D01*
X232425Y253890D01*
X232676Y254497D01*
Y255154D01*
X232425Y255761D01*
X231960Y256225D01*
X231354Y256476D01*
D02*
G37*
G36*
X85609Y262113D02*
X84952D01*
X84345Y261862D01*
X83881Y261398D01*
X83629Y260791D01*
Y260676D01*
X78283Y255330D01*
X78018Y254934D01*
X77925Y254465D01*
Y247800D01*
X77749Y247624D01*
X77498Y247018D01*
Y246361D01*
X77749Y245754D01*
X78213Y245290D01*
X78820Y245038D01*
X79477D01*
X80084Y245290D01*
X80548Y245754D01*
X80799Y246361D01*
Y247018D01*
X80548Y247624D01*
X80372Y247800D01*
Y253959D01*
X85225Y258812D01*
X85609D01*
X86215Y259063D01*
X86680Y259527D01*
X86931Y260134D01*
Y260791D01*
X86680Y261398D01*
X86215Y261862D01*
X85609Y262113D01*
D02*
G37*
G36*
X89457Y257932D02*
X88800D01*
X88193Y257681D01*
X87729Y257217D01*
X87478Y256610D01*
Y255953D01*
X87729Y255347D01*
X88013Y255062D01*
Y249600D01*
X85354Y246940D01*
X84952D01*
X84345Y246689D01*
X83881Y246225D01*
X83629Y245618D01*
Y244961D01*
X83881Y244355D01*
X84345Y243890D01*
X84952Y243639D01*
X85609D01*
X86215Y243890D01*
X86680Y244355D01*
X86931Y244961D01*
Y245363D01*
X89917Y248349D01*
X89917Y248349D01*
X90159Y248711D01*
X90244Y249138D01*
X90244Y249138D01*
Y255062D01*
X90528Y255347D01*
X90779Y255953D01*
Y256610D01*
X90528Y257217D01*
X90064Y257681D01*
X89457Y257932D01*
D02*
G37*
G36*
X21796Y252846D02*
X12423D01*
Y243474D01*
X21796D01*
Y252846D01*
D02*
G37*
G36*
X38597Y248007D02*
X37940D01*
X37333Y247756D01*
X36869Y247291D01*
X36618Y246685D01*
Y246028D01*
X36869Y245421D01*
X37087Y245203D01*
Y242149D01*
X36952Y242015D01*
X36701Y241409D01*
Y240752D01*
X36952Y240145D01*
X37417Y239681D01*
X38024Y239429D01*
X38680D01*
X39287Y239681D01*
X39751Y240145D01*
X40003Y240752D01*
Y241409D01*
X39751Y242015D01*
X39534Y242233D01*
Y245287D01*
X39668Y245421D01*
X39919Y246028D01*
Y246685D01*
X39668Y247291D01*
X39204Y247756D01*
X38597Y248007D01*
D02*
G37*
G36*
X203187Y253302D02*
X202530D01*
X201924Y253051D01*
X201459Y252587D01*
X201208Y251980D01*
Y251323D01*
X201459Y250716D01*
X201625Y250551D01*
X200765Y249692D01*
X200765Y249692D01*
X200765Y249692D01*
X200199Y249126D01*
X199956Y248762D01*
X199871Y248333D01*
X199871Y248333D01*
Y243129D01*
X199681Y242846D01*
X199596Y242417D01*
X199596Y242416D01*
Y241354D01*
X199318Y241076D01*
X199067Y240470D01*
Y239813D01*
X199318Y239206D01*
X199783Y238742D01*
X200389Y238491D01*
X201046D01*
X201653Y238742D01*
X202117Y239206D01*
X202368Y239813D01*
Y240470D01*
X202117Y241076D01*
X201839Y241354D01*
Y241979D01*
X202029Y242262D01*
X202114Y242691D01*
X202114Y242691D01*
Y247868D01*
X202351Y248105D01*
X202351Y248105D01*
X203652Y249406D01*
X203652Y249406D01*
X203895Y249770D01*
X203980Y250199D01*
Y250438D01*
X204258Y250716D01*
X204509Y251323D01*
Y251980D01*
X204258Y252587D01*
X203794Y253051D01*
X203187Y253302D01*
D02*
G37*
G36*
X134617Y245688D02*
X133960D01*
X133353Y245436D01*
X132889Y244972D01*
X132638Y244365D01*
Y243708D01*
X132889Y243102D01*
X133353Y242637D01*
X133960Y242386D01*
X134362D01*
X136049Y240699D01*
Y238670D01*
X135549Y238474D01*
X135223Y238800D01*
X134617Y239051D01*
X133960D01*
X133353Y238800D01*
X133177Y238624D01*
X124080D01*
X123162Y239542D01*
X122765Y239807D01*
X122297Y239900D01*
X107944D01*
X107476Y239807D01*
X107079Y239542D01*
X103296Y235759D01*
X103030Y235362D01*
X102937Y234894D01*
Y232124D01*
X102761Y231948D01*
X102510Y231341D01*
Y230684D01*
X102761Y230078D01*
X103226Y229613D01*
X103832Y229362D01*
X104489D01*
X105096Y229613D01*
X105560Y230078D01*
X105812Y230684D01*
Y231341D01*
X105560Y231948D01*
X105384Y232124D01*
Y234387D01*
X108451Y237453D01*
X121790D01*
X122708Y236535D01*
X123105Y236270D01*
X123573Y236177D01*
X133177D01*
X133353Y236001D01*
X133960Y235749D01*
X134617D01*
X135223Y236001D01*
X135549Y236326D01*
X136049Y236130D01*
Y230005D01*
X133442Y227398D01*
X133341D01*
X132735Y227146D01*
X132270Y226682D01*
X132019Y226075D01*
Y225418D01*
X132270Y224812D01*
X132735Y224347D01*
X133341Y224096D01*
X133998D01*
X134605Y224347D01*
X135069Y224812D01*
X135320Y225418D01*
Y226075D01*
X135307Y226108D01*
X137953Y228754D01*
X137953Y228754D01*
X138195Y229116D01*
X138280Y229543D01*
X138280Y229543D01*
Y241161D01*
X138280Y241161D01*
X138195Y241587D01*
X137953Y241949D01*
X135939Y243963D01*
Y244365D01*
X135688Y244972D01*
X135223Y245436D01*
X134617Y245688D01*
D02*
G37*
G36*
X355231Y253856D02*
X354574D01*
X353967Y253605D01*
X353503Y253140D01*
X353252Y252534D01*
Y251877D01*
X353503Y251270D01*
X353650Y251123D01*
Y240628D01*
X353630Y240608D01*
X353379Y240001D01*
Y239345D01*
X353630Y238738D01*
X354094Y238274D01*
X354701Y238022D01*
X355358D01*
X355964Y238274D01*
X356429Y238738D01*
X356680Y239345D01*
Y240001D01*
X356429Y240608D01*
X356282Y240755D01*
Y251250D01*
X356302Y251270D01*
X356553Y251877D01*
Y252534D01*
X356302Y253140D01*
X355837Y253605D01*
X355231Y253856D01*
D02*
G37*
G36*
X212148Y249198D02*
X211492D01*
X210885Y248946D01*
X210421Y248482D01*
X210169Y247875D01*
Y247473D01*
X209922Y247226D01*
X209680Y246864D01*
X209595Y246438D01*
X209595Y246438D01*
Y239205D01*
X209441Y239051D01*
X209039D01*
X208432Y238800D01*
X207968Y238335D01*
X207716Y237729D01*
Y237072D01*
X207968Y236465D01*
X208432Y236001D01*
X209039Y235749D01*
X209696D01*
X210302Y236001D01*
X210767Y236465D01*
X211018Y237072D01*
Y237474D01*
X211499Y237955D01*
X211741Y238317D01*
X211826Y238743D01*
X211826Y238743D01*
Y245896D01*
X212148D01*
X212755Y246148D01*
X213220Y246612D01*
X213471Y247219D01*
Y247875D01*
X213220Y248482D01*
X212755Y248946D01*
X212148Y249198D01*
D02*
G37*
G36*
X219558Y249206D02*
X218901D01*
X218295Y248955D01*
X217830Y248490D01*
X217579Y247883D01*
Y247227D01*
X217830Y246620D01*
X218107Y246344D01*
Y240896D01*
X215387Y238176D01*
X214985D01*
X214378Y237925D01*
X213914Y237460D01*
X213662Y236854D01*
Y236197D01*
X213914Y235590D01*
X214378Y235126D01*
X214985Y234875D01*
X215641D01*
X216248Y235126D01*
X216713Y235590D01*
X216964Y236197D01*
Y236599D01*
X220010Y239645D01*
X220010Y239645D01*
X220252Y240007D01*
X220337Y240434D01*
X220337Y240434D01*
Y246328D01*
X220629Y246620D01*
X220880Y247227D01*
Y247883D01*
X220629Y248490D01*
X220165Y248955D01*
X219558Y249206D01*
D02*
G37*
G36*
X222917Y238176D02*
X222260D01*
X221653Y237925D01*
X221189Y237460D01*
X220937Y236854D01*
Y236197D01*
X221189Y235590D01*
X221653Y235126D01*
X222260Y234875D01*
X222917D01*
X223523Y235126D01*
X223747Y235350D01*
X229762D01*
X230094Y235018D01*
X230700Y234766D01*
X231357D01*
X231964Y235018D01*
X232428Y235482D01*
X232680Y236089D01*
Y236746D01*
X232428Y237352D01*
X231964Y237817D01*
X231357Y238068D01*
X230700D01*
X230094Y237817D01*
X229870Y237593D01*
X223855D01*
X223523Y237925D01*
X222917Y238176D01*
D02*
G37*
G36*
X17726Y242846D02*
X16492D01*
X15301Y242527D01*
X14232Y241910D01*
X13360Y241038D01*
X12743Y239969D01*
X12423Y238777D01*
Y237543D01*
X12743Y236351D01*
X13360Y235283D01*
X14232Y234410D01*
X15301Y233793D01*
X16492Y233474D01*
X17726D01*
X18918Y233793D01*
X19987Y234410D01*
X20859Y235283D01*
X21476Y236351D01*
X21796Y237543D01*
Y238777D01*
X21476Y239969D01*
X20859Y241038D01*
X19987Y241910D01*
X18918Y242527D01*
X17726Y242846D01*
D02*
G37*
G36*
X207519Y263509D02*
X206862D01*
X206256Y263258D01*
X205791Y262793D01*
X205540Y262187D01*
Y261530D01*
X205791Y260923D01*
X206203Y260512D01*
Y246214D01*
X203818Y243829D01*
X203575Y243465D01*
X203489Y243036D01*
X203489Y243036D01*
Y236267D01*
X203211Y235989D01*
X202960Y235383D01*
Y234726D01*
X203211Y234119D01*
X203676Y233655D01*
X204283Y233403D01*
X204939D01*
X205546Y233655D01*
X206011Y234119D01*
X206262Y234726D01*
Y235383D01*
X206011Y235989D01*
X205732Y236267D01*
Y242571D01*
X208118Y244956D01*
X208361Y245320D01*
X208446Y245749D01*
X208446Y245749D01*
Y260779D01*
X208590Y260923D01*
X208841Y261530D01*
Y262187D01*
X208590Y262793D01*
X208126Y263258D01*
X207519Y263509D01*
D02*
G37*
G36*
X180023Y231552D02*
X179367D01*
X178760Y231301D01*
X178296Y230837D01*
X178193Y230589D01*
X172580D01*
X172295Y230873D01*
X171689Y231125D01*
X171032D01*
X170425Y230873D01*
X169961Y230409D01*
X169710Y229802D01*
Y229146D01*
X169961Y228539D01*
X170425Y228075D01*
X171032Y227823D01*
X171689D01*
X172295Y228075D01*
X172580Y228359D01*
X178966D01*
X178966Y228359D01*
X179060Y228378D01*
X179367Y228251D01*
X180023D01*
X180630Y228502D01*
X181095Y228966D01*
X181346Y229573D01*
Y230230D01*
X181095Y230837D01*
X180630Y231301D01*
X180023Y231552D01*
D02*
G37*
G36*
X222917Y234331D02*
X222260D01*
X221653Y234080D01*
X221189Y233616D01*
X220937Y233009D01*
Y232352D01*
X221189Y231746D01*
X221653Y231281D01*
X222260Y231030D01*
X222917D01*
X223523Y231281D01*
X223801Y231559D01*
X229243D01*
X229388Y231209D01*
X229853Y230745D01*
X230459Y230493D01*
X231116D01*
X231723Y230745D01*
X232187Y231209D01*
X232438Y231816D01*
Y232473D01*
X232187Y233079D01*
X231723Y233544D01*
X231116Y233795D01*
X230459D01*
X230307Y233732D01*
X229954Y233802D01*
X229953Y233802D01*
X223801D01*
X223523Y234080D01*
X222917Y234331D01*
D02*
G37*
G36*
X331609Y248936D02*
X330952D01*
X330345Y248685D01*
X329881Y248221D01*
X329630Y247614D01*
Y246957D01*
X329881Y246350D01*
X330345Y245886D01*
X330682Y245747D01*
Y231773D01*
X330345Y231634D01*
X329881Y231170D01*
X329630Y230563D01*
Y229906D01*
X329881Y229299D01*
X330345Y228835D01*
X330952Y228584D01*
X331609D01*
X332216Y228835D01*
X332680Y229299D01*
X332931Y229906D01*
Y230478D01*
X333036Y230635D01*
X333129Y231103D01*
Y246417D01*
X333036Y246885D01*
X332931Y247042D01*
Y247614D01*
X332680Y248221D01*
X332216Y248685D01*
X331609Y248936D01*
D02*
G37*
G36*
X189968Y226417D02*
X189311D01*
X188704Y226166D01*
X188364Y225825D01*
X165639D01*
X165424Y226040D01*
X164817Y226292D01*
X164160D01*
X163553Y226040D01*
X163089Y225576D01*
X162838Y224969D01*
Y224313D01*
X163089Y223706D01*
X163553Y223241D01*
X164160Y222990D01*
X164817D01*
X165424Y223241D01*
X165764Y223582D01*
X188489D01*
X188704Y223366D01*
X189311Y223115D01*
X189968D01*
X190574Y223366D01*
X191039Y223831D01*
X191290Y224438D01*
Y225094D01*
X191039Y225701D01*
X190574Y226166D01*
X189968Y226417D01*
D02*
G37*
G36*
X208842Y229214D02*
X208185D01*
X207579Y228962D01*
X207114Y228498D01*
X206863Y227891D01*
Y227235D01*
X207114Y226628D01*
X207579Y226164D01*
X208185Y225912D01*
X208842D01*
X208935Y225951D01*
X209005Y225904D01*
X209434Y225819D01*
X219292D01*
X219392Y225319D01*
X219321Y225290D01*
X218857Y224826D01*
X218606Y224219D01*
Y223637D01*
X214397Y219428D01*
X213904D01*
X213297Y219177D01*
X212833Y218713D01*
X212581Y218106D01*
Y217449D01*
X212833Y216843D01*
X213297Y216378D01*
X213904Y216127D01*
X214561D01*
X215167Y216378D01*
X215632Y216843D01*
X215883Y217449D01*
Y218031D01*
X220092Y222240D01*
X220585D01*
X221192Y222491D01*
X221656Y222955D01*
X221907Y223562D01*
Y224219D01*
X221656Y224826D01*
X221518Y224964D01*
X221649Y225540D01*
X221674Y225533D01*
X222260Y225290D01*
X222917D01*
X223523Y225541D01*
X223988Y226005D01*
X224239Y226612D01*
Y227269D01*
X223988Y227876D01*
X223523Y228340D01*
X222917Y228591D01*
X222260D01*
X221653Y228340D01*
X221375Y228062D01*
X210094D01*
X209913Y228498D01*
X209449Y228962D01*
X208842Y229214D01*
D02*
G37*
G36*
X228502Y229472D02*
X227845D01*
X227238Y229220D01*
X226774Y228756D01*
X226523Y228149D01*
Y227492D01*
X226774Y226886D01*
X227238Y226421D01*
X227845Y226170D01*
X228197D01*
X231024Y223343D01*
X231024Y223343D01*
X231388Y223100D01*
X231817Y223015D01*
X235286D01*
X235564Y222737D01*
X236171Y222486D01*
X236827D01*
X237434Y222737D01*
X237898Y223201D01*
X238150Y223808D01*
Y224465D01*
X237898Y225072D01*
X237434Y225536D01*
X236827Y225787D01*
X236171D01*
X235564Y225536D01*
X235286Y225258D01*
X232282D01*
X229824Y227715D01*
Y228149D01*
X229573Y228756D01*
X229109Y229220D01*
X228502Y229472D01*
D02*
G37*
G36*
X121760Y221932D02*
X121103D01*
X120496Y221681D01*
X120032Y221217D01*
X119781Y220610D01*
Y219953D01*
X120032Y219346D01*
X120496Y218882D01*
X121103Y218631D01*
X121604D01*
X122199Y218035D01*
X122561Y217794D01*
X122988Y217709D01*
X123424D01*
X123574Y217679D01*
X123574Y217679D01*
X135318D01*
X135602Y217395D01*
X136209Y217143D01*
X136866D01*
X137473Y217395D01*
X137937Y217859D01*
X138188Y218466D01*
Y219123D01*
X137937Y219729D01*
X137473Y220194D01*
X136866Y220445D01*
X136209D01*
X135602Y220194D01*
X135318Y219909D01*
X123695D01*
X123545Y219939D01*
X123545Y219939D01*
X123450D01*
X123082Y220306D01*
Y220610D01*
X122831Y221217D01*
X122367Y221681D01*
X121760Y221932D01*
D02*
G37*
G36*
X102982Y220445D02*
X102325D01*
X101718Y220194D01*
X101254Y219729D01*
X101003Y219123D01*
Y218466D01*
X101254Y217859D01*
X101400Y217713D01*
Y210909D01*
X100977Y210486D01*
X100725Y209879D01*
Y209222D01*
X100977Y208615D01*
X101441Y208151D01*
X102048Y207900D01*
X102705D01*
X103311Y208151D01*
X103776Y208615D01*
X104027Y209222D01*
Y209879D01*
X103776Y210486D01*
X103630Y210631D01*
Y217436D01*
X104053Y217859D01*
X104304Y218466D01*
Y219123D01*
X104053Y219729D01*
X103588Y220194D01*
X102982Y220445D01*
D02*
G37*
G36*
X116186Y210594D02*
X115530D01*
X114923Y210343D01*
X114458Y209878D01*
X114207Y209272D01*
Y208615D01*
X114458Y208008D01*
X114923Y207544D01*
X115530Y207293D01*
X116186D01*
X116793Y207544D01*
X117077Y207828D01*
X135260D01*
X135394Y207505D01*
X135859Y207041D01*
X136466Y206789D01*
X137122D01*
X137729Y207041D01*
X138193Y207505D01*
X138445Y208112D01*
Y208768D01*
X138193Y209375D01*
X137729Y209839D01*
X137122Y210091D01*
X136466D01*
X136258Y210005D01*
X135989Y210059D01*
X135989Y210059D01*
X117077D01*
X116793Y210343D01*
X116186Y210594D01*
D02*
G37*
G36*
X42442Y217600D02*
X41785D01*
X41179Y217348D01*
X40714Y216884D01*
X40463Y216277D01*
Y215620D01*
X40714Y215014D01*
X40845Y214883D01*
Y208458D01*
X40623Y208237D01*
X40372Y207630D01*
Y206973D01*
X40623Y206366D01*
X41087Y205902D01*
X41694Y205651D01*
X42351D01*
X42957Y205902D01*
X43422Y206366D01*
X43673Y206973D01*
Y207630D01*
X43422Y208237D01*
X43292Y208367D01*
Y214792D01*
X43513Y215014D01*
X43765Y215620D01*
Y216277D01*
X43513Y216884D01*
X43049Y217348D01*
X42442Y217600D01*
D02*
G37*
G36*
X198051Y217454D02*
X197394D01*
X196788Y217202D01*
X196323Y216738D01*
X196072Y216131D01*
Y215474D01*
X196323Y214868D01*
X196601Y214590D01*
Y207593D01*
X196323Y207315D01*
X196072Y206709D01*
Y206052D01*
X196323Y205445D01*
X196788Y204981D01*
X197394Y204730D01*
X198051D01*
X198658Y204981D01*
X199122Y205445D01*
X199373Y206052D01*
Y206709D01*
X199122Y207315D01*
X198844Y207593D01*
Y214590D01*
X199122Y214868D01*
X199373Y215474D01*
Y216131D01*
X199122Y216738D01*
X198658Y217202D01*
X198051Y217454D01*
D02*
G37*
G36*
X206189Y204107D02*
X205460D01*
X204756Y203919D01*
X204125Y203554D01*
X204091Y203520D01*
X203591Y203727D01*
Y204107D01*
X198057D01*
Y198573D01*
X198437D01*
X198644Y198073D01*
X198610Y198039D01*
X198246Y197408D01*
X198057Y196704D01*
Y195976D01*
X198246Y195272D01*
X198610Y194641D01*
X199126Y194126D01*
X199188Y194090D01*
Y193590D01*
X199126Y193554D01*
X198610Y193039D01*
X198246Y192408D01*
X198057Y191704D01*
Y190976D01*
X198246Y190272D01*
X198610Y189641D01*
X199126Y189126D01*
X199756Y188762D01*
X200460Y188573D01*
X201189D01*
X201892Y188762D01*
X202523Y189126D01*
X203039Y189641D01*
X203074Y189703D01*
X203574D01*
X203610Y189641D01*
X204125Y189126D01*
X204756Y188762D01*
X204805Y188749D01*
Y186516D01*
X204630Y186340D01*
X204379Y185734D01*
Y185077D01*
X204630Y184470D01*
X205094Y184006D01*
X205701Y183755D01*
X206358D01*
X206964Y184006D01*
X207429Y184470D01*
X207680Y185077D01*
Y185734D01*
X207429Y186340D01*
X207049Y186721D01*
Y188852D01*
X207523Y189126D01*
X208038Y189641D01*
X208403Y190272D01*
X208591Y190976D01*
Y191704D01*
X208516Y191987D01*
X208912Y192384D01*
X208936Y192374D01*
X209593D01*
X210200Y192625D01*
X210664Y193090D01*
X210915Y193696D01*
Y194353D01*
X210664Y194960D01*
X210200Y195424D01*
X209593Y195676D01*
X208936D01*
X208330Y195424D01*
X207865Y194960D01*
X207614Y194353D01*
Y194258D01*
X207135Y193779D01*
X206892Y193919D01*
X206189Y194107D01*
X205460D01*
X204756Y193919D01*
X204125Y193554D01*
X203610Y193039D01*
X203574Y192977D01*
X203074D01*
X203039Y193039D01*
X202523Y193554D01*
X202461Y193590D01*
Y194090D01*
X202523Y194126D01*
X203039Y194641D01*
X203403Y195272D01*
X203591Y195976D01*
Y196704D01*
X203403Y197408D01*
X203039Y198039D01*
X203004Y198073D01*
X203211Y198573D01*
X203591D01*
Y198953D01*
X204091Y199160D01*
X204125Y199126D01*
X204756Y198762D01*
X205460Y198573D01*
X206189D01*
X206892Y198762D01*
X207341Y199021D01*
X207700Y199049D01*
X208016Y198911D01*
X208330Y198598D01*
X208936Y198347D01*
X209593D01*
X210200Y198598D01*
X210484Y198882D01*
X212381D01*
X215773Y195490D01*
Y190601D01*
X215489Y190317D01*
X215237Y189710D01*
Y189053D01*
X215489Y188447D01*
X215953Y187982D01*
X216560Y187731D01*
X217217D01*
X217823Y187982D01*
X218288Y188447D01*
X218539Y189053D01*
Y189710D01*
X218288Y190317D01*
X218003Y190601D01*
Y195952D01*
X218004Y195952D01*
X217919Y196379D01*
X217677Y196741D01*
X213632Y200786D01*
X213270Y201028D01*
X212843Y201113D01*
X212843Y201113D01*
X210484D01*
X210200Y201397D01*
X209593Y201648D01*
X208936D01*
X208509Y202012D01*
X208403Y202408D01*
X208038Y203039D01*
X207523Y203554D01*
X206892Y203919D01*
X206189Y204107D01*
D02*
G37*
G36*
X156439Y214782D02*
X155782D01*
X155176Y214531D01*
X154711Y214066D01*
X154460Y213460D01*
Y212803D01*
X154711Y212196D01*
X154996Y211912D01*
Y204835D01*
X154711Y204550D01*
X154460Y203943D01*
Y203287D01*
X154711Y202680D01*
X155176Y202216D01*
X155782Y201964D01*
X156439D01*
X157046Y202216D01*
X157510Y202680D01*
X157762Y203287D01*
Y203943D01*
X157510Y204550D01*
X157226Y204835D01*
Y211912D01*
X157510Y212196D01*
X157762Y212803D01*
Y213460D01*
X157510Y214066D01*
X157046Y214531D01*
X156439Y214782D01*
D02*
G37*
G36*
X111796Y208031D02*
X111139D01*
X110532Y207780D01*
X110068Y207315D01*
X109817Y206709D01*
Y206052D01*
X110068Y205445D01*
X110532Y204981D01*
X111139Y204730D01*
X111541D01*
X112771Y203500D01*
X112771Y203500D01*
X113133Y203258D01*
X113559Y203174D01*
X134643D01*
X135546Y202271D01*
Y201869D01*
X135797Y201262D01*
X136262Y200798D01*
X136868Y200546D01*
X137525D01*
X138132Y200798D01*
X138596Y201262D01*
X138848Y201869D01*
Y202525D01*
X138596Y203132D01*
X138132Y203597D01*
X137525Y203848D01*
X137123D01*
X135894Y205077D01*
X135532Y205319D01*
X135105Y205404D01*
X135105Y205404D01*
X114021D01*
X113118Y206307D01*
Y206709D01*
X112867Y207315D01*
X112403Y207780D01*
X111796Y208031D01*
D02*
G37*
G36*
X106022Y204772D02*
X105365D01*
X104759Y204521D01*
X104294Y204056D01*
X104043Y203450D01*
Y202793D01*
X104294Y202186D01*
X104759Y201722D01*
X105365Y201470D01*
X105614D01*
X106704Y200381D01*
X107101Y200115D01*
X107569Y200022D01*
X129021D01*
X129408Y199764D01*
X129876Y199671D01*
X131363D01*
X131664Y199370D01*
X132271Y199118D01*
X132928D01*
X133535Y199370D01*
X133999Y199834D01*
X134250Y200441D01*
Y201097D01*
X133999Y201704D01*
X133535Y202168D01*
X132928Y202420D01*
X132271D01*
X131664Y202168D01*
X131613Y202117D01*
X130380D01*
X129993Y202376D01*
X129525Y202469D01*
X108076D01*
X107344Y203201D01*
Y203450D01*
X107093Y204056D01*
X106629Y204521D01*
X106022Y204772D01*
D02*
G37*
G36*
X177641Y217555D02*
X176985D01*
X176378Y217304D01*
X175914Y216839D01*
X175662Y216232D01*
Y215576D01*
X175914Y214969D01*
X176378Y214505D01*
X176985Y214253D01*
X177522D01*
X179678Y212097D01*
Y201312D01*
X179298Y200933D01*
X179047Y200326D01*
Y199669D01*
X179298Y199062D01*
X179763Y198598D01*
X180369Y198347D01*
X181026D01*
X181633Y198598D01*
X182097Y199062D01*
X182349Y199669D01*
Y200326D01*
X182097Y200933D01*
X181717Y201312D01*
Y212519D01*
X181640Y212910D01*
X181419Y213240D01*
X178964Y215695D01*
Y216232D01*
X178712Y216839D01*
X178248Y217304D01*
X177641Y217555D01*
D02*
G37*
G36*
X163622Y217454D02*
X162965D01*
X162359Y217202D01*
X161894Y216738D01*
X161643Y216131D01*
Y215474D01*
X161894Y214868D01*
X162179Y214583D01*
Y203983D01*
X162179Y203983D01*
X162263Y203556D01*
X162505Y203195D01*
X165629Y200071D01*
Y199669D01*
X165880Y199062D01*
X166344Y198598D01*
X166951Y198347D01*
X167608D01*
X168215Y198598D01*
X168679Y199062D01*
X168930Y199669D01*
Y200326D01*
X168679Y200933D01*
X168215Y201397D01*
X167608Y201648D01*
X167206D01*
X164409Y204445D01*
Y214583D01*
X164693Y214868D01*
X164945Y215474D01*
Y216131D01*
X164693Y216738D01*
X164229Y217202D01*
X163622Y217454D01*
D02*
G37*
G36*
X160066Y220445D02*
X159409D01*
X158802Y220194D01*
X158338Y219729D01*
X158086Y219123D01*
Y218466D01*
X158338Y217859D01*
X158622Y217575D01*
Y201217D01*
X158338Y200933D01*
X158086Y200326D01*
Y199669D01*
X158338Y199062D01*
X158802Y198598D01*
X159409Y198347D01*
X160066D01*
X160672Y198598D01*
X161137Y199062D01*
X161388Y199669D01*
Y200326D01*
X161137Y200933D01*
X160852Y201217D01*
Y217575D01*
X161137Y217859D01*
X161388Y218466D01*
Y219123D01*
X161137Y219729D01*
X160672Y220194D01*
X160066Y220445D01*
D02*
G37*
G36*
X149610Y209777D02*
X148954D01*
X148347Y209526D01*
X147883Y209061D01*
X147631Y208455D01*
Y207798D01*
X147883Y207191D01*
X148347Y206727D01*
X148954Y206475D01*
X149356D01*
X150847Y204984D01*
Y201545D01*
X150847Y201545D01*
X150932Y201118D01*
X151174Y200756D01*
X151859Y200071D01*
Y199669D01*
X152110Y199062D01*
X152575Y198598D01*
X153182Y198347D01*
X153838D01*
X154445Y198598D01*
X154909Y199062D01*
X155161Y199669D01*
Y200326D01*
X154909Y200933D01*
X154445Y201397D01*
X153838Y201648D01*
X153436D01*
X153077Y202007D01*
Y205446D01*
X153077Y205446D01*
X152993Y205873D01*
X152751Y206235D01*
X150933Y208053D01*
Y208455D01*
X150682Y209061D01*
X150217Y209526D01*
X149610Y209777D01*
D02*
G37*
G36*
X169142Y217555D02*
X168485D01*
X167878Y217304D01*
X167414Y216839D01*
X167163Y216232D01*
Y215576D01*
X167414Y214969D01*
X167698Y214685D01*
Y212044D01*
X167698Y212044D01*
X167783Y211617D01*
X168025Y211255D01*
X172418Y206863D01*
Y200916D01*
X172133Y200631D01*
X171882Y200025D01*
Y199368D01*
X172133Y198761D01*
X172598Y198297D01*
X173204Y198046D01*
X173861D01*
X174468Y198297D01*
X174932Y198761D01*
X175184Y199368D01*
Y200025D01*
X174932Y200631D01*
X174648Y200916D01*
Y207325D01*
X174563Y207751D01*
X174321Y208113D01*
X174321Y208113D01*
X169929Y212506D01*
Y214685D01*
X170213Y214969D01*
X170464Y215576D01*
Y216232D01*
X170213Y216839D01*
X169749Y217304D01*
X169142Y217555D01*
D02*
G37*
G36*
X191024Y216416D02*
X190367D01*
X189760Y216164D01*
X189296Y215700D01*
X189044Y215093D01*
Y214436D01*
X189296Y213830D01*
X189760Y213365D01*
X190367Y213114D01*
X190760D01*
X192072Y211802D01*
Y199904D01*
X191794Y199627D01*
X191542Y199020D01*
Y198363D01*
X191794Y197756D01*
X192258Y197292D01*
X192865Y197041D01*
X193521D01*
X194128Y197292D01*
X194593Y197756D01*
X194844Y198363D01*
Y199020D01*
X194593Y199627D01*
X194315Y199904D01*
Y212267D01*
X194315Y212267D01*
X194229Y212696D01*
X193986Y213060D01*
X193986Y213060D01*
X192346Y214700D01*
Y215093D01*
X192095Y215700D01*
X191630Y216164D01*
X191024Y216416D01*
D02*
G37*
G36*
X170727Y197678D02*
X169988D01*
X169275Y197486D01*
X168635Y197117D01*
X168156Y196638D01*
X167882Y196587D01*
X167833D01*
X167560Y196638D01*
X167081Y197117D01*
X166441Y197486D01*
X165727Y197678D01*
X164988D01*
X164275Y197486D01*
X163635Y197117D01*
X163156Y196638D01*
X162882Y196587D01*
X162833D01*
X162560Y196638D01*
X162081Y197117D01*
X161441Y197486D01*
X160727Y197678D01*
X159988D01*
X159275Y197486D01*
X158635Y197117D01*
X158156Y196638D01*
X157882Y196587D01*
X157833D01*
X157560Y196638D01*
X157081Y197117D01*
X156441Y197486D01*
X155727Y197678D01*
X154988D01*
X154275Y197486D01*
X153635Y197117D01*
X153156Y196638D01*
X152882Y196587D01*
X152833D01*
X152560Y196638D01*
X152081Y197117D01*
X151441Y197486D01*
X150727Y197678D01*
X149988D01*
X149275Y197486D01*
X148635Y197117D01*
X148112Y196595D01*
X147743Y195955D01*
X147552Y195241D01*
Y194502D01*
X147743Y193788D01*
X148112Y193148D01*
X148591Y192669D01*
X148642Y192396D01*
Y192347D01*
X148591Y192074D01*
X148112Y191595D01*
X147743Y190955D01*
X147552Y190241D01*
Y189502D01*
X147743Y188788D01*
X148112Y188148D01*
X148635Y187626D01*
X149275Y187256D01*
X149988Y187065D01*
X150727D01*
X151441Y187256D01*
X152081Y187626D01*
X152603Y188148D01*
X152973Y188788D01*
X153164Y189502D01*
Y190241D01*
X152973Y190955D01*
X152603Y191595D01*
X152124Y192074D01*
X152073Y192347D01*
Y192396D01*
X152124Y192669D01*
X152560Y193105D01*
X152833Y193156D01*
X152882D01*
X153156Y193105D01*
X153635Y192626D01*
X154275Y192256D01*
X154988Y192065D01*
X155727D01*
X156441Y192256D01*
X157081Y192626D01*
X157560Y193105D01*
X157833Y193156D01*
X157882D01*
X158156Y193105D01*
X158635Y192626D01*
X159275Y192256D01*
X159988Y192065D01*
X160727D01*
X161441Y192256D01*
X162081Y192626D01*
X162560Y193105D01*
X162833Y193156D01*
X162882D01*
X163156Y193105D01*
X163635Y192626D01*
X164275Y192256D01*
X164988Y192065D01*
X165727D01*
X166441Y192256D01*
X167081Y192626D01*
X167560Y193105D01*
X167833Y193156D01*
X167882D01*
X168156Y193105D01*
X168635Y192626D01*
X169275Y192256D01*
X169988Y192065D01*
X170727D01*
X171441Y192256D01*
X172081Y192626D01*
X172603Y193148D01*
X172973Y193788D01*
X173164Y194502D01*
Y195241D01*
X172973Y195955D01*
X172603Y196595D01*
X172081Y197117D01*
X171441Y197486D01*
X170727Y197678D01*
D02*
G37*
G36*
X128085Y197847D02*
X127428D01*
X126821Y197596D01*
X126357Y197131D01*
X126106Y196525D01*
Y196123D01*
X125868Y195884D01*
X112913D01*
X112629Y196169D01*
X112022Y196420D01*
X111365D01*
X110758Y196169D01*
X110294Y195704D01*
X110043Y195098D01*
Y194441D01*
X110294Y193834D01*
X110758Y193370D01*
X111365Y193119D01*
X112022D01*
X112629Y193370D01*
X112913Y193654D01*
X126329D01*
X126330Y193654D01*
X126756Y193739D01*
X127118Y193981D01*
X127683Y194545D01*
X128085D01*
X128692Y194797D01*
X129156Y195261D01*
X129407Y195868D01*
Y196525D01*
X129156Y197131D01*
X128692Y197596D01*
X128085Y197847D01*
D02*
G37*
G36*
X173744Y217555D02*
X173088D01*
X172481Y217304D01*
X172017Y216839D01*
X171765Y216232D01*
Y215576D01*
X172017Y214969D01*
X172295Y214691D01*
Y212851D01*
X172295Y212851D01*
X172380Y212422D01*
X172623Y212058D01*
X176242Y208439D01*
Y198223D01*
X175964Y197945D01*
X175713Y197338D01*
Y196682D01*
X175964Y196075D01*
X176429Y195610D01*
X177035Y195359D01*
X177692D01*
X178299Y195610D01*
X178763Y196075D01*
X179015Y196682D01*
Y197338D01*
X178763Y197945D01*
X178485Y198223D01*
Y208903D01*
X178485Y208903D01*
X178400Y209332D01*
X178157Y209696D01*
X178157Y209696D01*
X174538Y213316D01*
Y214691D01*
X174816Y214969D01*
X175067Y215576D01*
Y216232D01*
X174816Y216839D01*
X174351Y217304D01*
X173744Y217555D01*
D02*
G37*
G36*
X86284Y206476D02*
X85627Y206345D01*
X85070Y205973D01*
X84698Y205416D01*
X84567Y204759D01*
Y198540D01*
X83438Y197411D01*
X83066Y196854D01*
X82935Y196197D01*
X83066Y195540D01*
X83438Y194983D01*
X83995Y194610D01*
X84652Y194480D01*
X85309Y194610D01*
X85867Y194983D01*
X87498Y196615D01*
X87871Y197172D01*
X88001Y197829D01*
Y204759D01*
X87871Y205416D01*
X87498Y205973D01*
X86941Y206345D01*
X86284Y206476D01*
D02*
G37*
G36*
X324931Y214448D02*
X324267Y214316D01*
X323705Y213940D01*
X323329Y213378D01*
X323197Y212714D01*
Y202719D01*
X317731Y197252D01*
X317355Y196690D01*
X317224Y196027D01*
X317355Y195363D01*
X317731Y194801D01*
X318293Y194425D01*
X318957Y194293D01*
X319620Y194425D01*
X320182Y194801D01*
X326156Y200775D01*
X326532Y201337D01*
X326664Y202001D01*
Y212714D01*
X326532Y213378D01*
X326156Y213940D01*
X325594Y214316D01*
X324931Y214448D01*
D02*
G37*
G36*
X81292Y203101D02*
X80636D01*
X80029Y202850D01*
X79564Y202386D01*
X79313Y201779D01*
Y201242D01*
X77485Y199414D01*
X77264Y199083D01*
X77186Y198693D01*
Y195073D01*
X76806Y194693D01*
X76555Y194086D01*
Y193429D01*
X76806Y192823D01*
X77271Y192358D01*
X77878Y192107D01*
X78534D01*
X79141Y192358D01*
X79606Y192823D01*
X79857Y193429D01*
Y194086D01*
X79606Y194693D01*
X79226Y195073D01*
Y198270D01*
X80755Y199800D01*
X81292D01*
X81899Y200051D01*
X82363Y200516D01*
X82615Y201122D01*
Y201779D01*
X82363Y202386D01*
X81899Y202850D01*
X81292Y203101D01*
D02*
G37*
G36*
X314219Y186413D02*
X313562D01*
X312955Y186162D01*
X312882Y186088D01*
X305390D01*
X304882Y185987D01*
X304452Y185700D01*
X302203Y183451D01*
X302099D01*
X301492Y183200D01*
X301028Y182735D01*
X300777Y182129D01*
Y181472D01*
X301028Y180865D01*
X301492Y180401D01*
X302099Y180149D01*
X302756D01*
X303363Y180401D01*
X303827Y180865D01*
X304078Y181472D01*
Y181576D01*
X305939Y183437D01*
X312882D01*
X312955Y183363D01*
X313562Y183112D01*
X314219D01*
X314826Y183363D01*
X315290Y183827D01*
X315541Y184434D01*
Y185091D01*
X315290Y185698D01*
X314826Y186162D01*
X314219Y186413D01*
D02*
G37*
G36*
X201258Y186380D02*
X200601D01*
X199994Y186129D01*
X199530Y185664D01*
X199279Y185057D01*
Y184401D01*
X199530Y183794D01*
X199994Y183330D01*
X200601Y183078D01*
X200916D01*
X204087Y179907D01*
Y171732D01*
X203647Y171292D01*
X203396Y170685D01*
Y170028D01*
X203647Y169422D01*
X204112Y168957D01*
X204719Y168706D01*
X205375D01*
X205982Y168957D01*
X206446Y169422D01*
X206698Y170028D01*
Y170685D01*
X206446Y171292D01*
X206318Y171420D01*
Y176088D01*
X206818Y176295D01*
X218314Y164799D01*
Y164550D01*
X218565Y163944D01*
X219029Y163479D01*
X219636Y163228D01*
X220293D01*
X220899Y163479D01*
X221364Y163944D01*
X221615Y164550D01*
Y165207D01*
X221364Y165814D01*
X220899Y166278D01*
X220293Y166530D01*
X220044D01*
X208458Y178115D01*
Y179385D01*
X210768Y181695D01*
X213728D01*
X213904Y181519D01*
X214511Y181268D01*
X215167D01*
X215774Y181519D01*
X216239Y181984D01*
X216490Y182591D01*
Y183247D01*
X216239Y183854D01*
X215774Y184318D01*
X215167Y184570D01*
X214511D01*
X213904Y184318D01*
X213728Y184142D01*
X210262D01*
X209793Y184049D01*
X209397Y183784D01*
X206655Y181042D01*
X206020Y181115D01*
X205991Y181158D01*
X205991Y181158D01*
X202580Y184568D01*
Y185057D01*
X202329Y185664D01*
X201865Y186129D01*
X201258Y186380D01*
D02*
G37*
G36*
X309894Y191165D02*
X303331D01*
X302668Y191034D01*
X302106Y190658D01*
X293995Y182548D01*
X293620Y181985D01*
X293488Y181322D01*
X293620Y180659D01*
X293995Y180096D01*
X294558Y179721D01*
X295221Y179589D01*
X295884Y179721D01*
X296447Y180096D01*
X304049Y187699D01*
X309894D01*
X310557Y187831D01*
X311120Y188207D01*
X311495Y188769D01*
X311627Y189432D01*
X311495Y190095D01*
X311120Y190658D01*
X310557Y191034D01*
X309894Y191165D01*
D02*
G37*
G36*
X269719Y183055D02*
X245760D01*
X245097Y182923D01*
X244535Y182548D01*
X244159Y181985D01*
X244027Y181322D01*
X244159Y180659D01*
X244535Y180096D01*
X245097Y179721D01*
X245760Y179589D01*
X269719D01*
X270382Y179721D01*
X270945Y180096D01*
X271320Y180659D01*
X271452Y181322D01*
X271320Y181985D01*
X270945Y182548D01*
X270382Y182923D01*
X269719Y183055D01*
D02*
G37*
G36*
X275151Y191033D02*
X274495D01*
X273888Y190781D01*
X273424Y190317D01*
X273172Y189710D01*
Y189053D01*
X273424Y188447D01*
X273702Y188169D01*
Y179220D01*
X273424Y178942D01*
X273172Y178335D01*
Y177679D01*
X273424Y177072D01*
X273888Y176608D01*
X274495Y176356D01*
X275151D01*
X275758Y176608D01*
X276223Y177072D01*
X276474Y177679D01*
Y178335D01*
X276223Y178942D01*
X275945Y179220D01*
Y188169D01*
X276223Y188447D01*
X276474Y189053D01*
Y189710D01*
X276223Y190317D01*
X275758Y190781D01*
X275151Y191033D01*
D02*
G37*
G36*
X281520Y176713D02*
X280863D01*
X280256Y176461D01*
X279792Y175997D01*
X279541Y175390D01*
Y174733D01*
X279792Y174127D01*
X280256Y173662D01*
X280863Y173411D01*
X281520D01*
X282127Y173662D01*
X282194Y173730D01*
X285908D01*
X286186Y173452D01*
X286793Y173201D01*
X287450D01*
X288056Y173452D01*
X288521Y173916D01*
X288772Y174523D01*
Y175180D01*
X288521Y175787D01*
X288056Y176251D01*
X287450Y176502D01*
X286793D01*
X286186Y176251D01*
X285908Y175973D01*
X282601D01*
X282591Y175997D01*
X282127Y176461D01*
X281520Y176713D01*
D02*
G37*
G36*
X145011Y180672D02*
X144354D01*
X143747Y180420D01*
X143283Y179956D01*
X143032Y179349D01*
Y178693D01*
X143283Y178086D01*
X143564Y177804D01*
Y174696D01*
X143551Y174691D01*
X143086Y174226D01*
X142835Y173619D01*
Y172963D01*
X143086Y172356D01*
X143551Y171892D01*
X144157Y171640D01*
X144814D01*
X145421Y171892D01*
X145885Y172356D01*
X146136Y172963D01*
Y173619D01*
X145885Y174226D01*
X145604Y174508D01*
Y177616D01*
X145617Y177621D01*
X146082Y178086D01*
X146333Y178693D01*
Y179349D01*
X146082Y179956D01*
X145617Y180420D01*
X145011Y180672D01*
D02*
G37*
G36*
X184014Y186156D02*
X183357D01*
X182750Y185905D01*
X182286Y185441D01*
X182034Y184834D01*
Y184177D01*
X182286Y183570D01*
X182750Y183106D01*
X182819Y183078D01*
Y174329D01*
X182592Y174102D01*
X182340Y173495D01*
Y172838D01*
X182592Y172232D01*
X183056Y171767D01*
X183663Y171516D01*
X184319D01*
X184926Y171767D01*
X185390Y172232D01*
X185642Y172838D01*
Y173495D01*
X185390Y174102D01*
X184926Y174566D01*
X184858Y174595D01*
Y183343D01*
X185085Y183570D01*
X185336Y184177D01*
Y184834D01*
X185085Y185441D01*
X184620Y185905D01*
X184014Y186156D01*
D02*
G37*
G36*
X176884Y183516D02*
X176228D01*
X175621Y183265D01*
X175156Y182800D01*
X174905Y182194D01*
Y181537D01*
X175156Y180930D01*
X175441Y180646D01*
Y174473D01*
X174842Y173874D01*
X174440D01*
X173833Y173623D01*
X173369Y173158D01*
X173117Y172552D01*
Y171895D01*
X173369Y171288D01*
X173833Y170824D01*
X174440Y170572D01*
X175096D01*
X175703Y170824D01*
X176167Y171288D01*
X176419Y171895D01*
Y172297D01*
X177345Y173223D01*
X177345Y173223D01*
X177586Y173584D01*
X177671Y174011D01*
X177671Y174011D01*
Y180646D01*
X177955Y180930D01*
X178207Y181537D01*
Y182194D01*
X177955Y182800D01*
X177491Y183265D01*
X176884Y183516D01*
D02*
G37*
G36*
X115500Y186390D02*
X114843D01*
X114237Y186139D01*
X113772Y185674D01*
X113521Y185067D01*
Y184411D01*
X113772Y183804D01*
X113806Y183771D01*
Y178594D01*
X113901Y178112D01*
Y173232D01*
X113828Y173158D01*
X113576Y172552D01*
Y171895D01*
X113828Y171288D01*
X114292Y170824D01*
X114899Y170572D01*
X115555D01*
X116162Y170824D01*
X116627Y171288D01*
X116878Y171895D01*
Y172552D01*
X116627Y173158D01*
X116552Y173232D01*
Y178498D01*
X116457Y178980D01*
Y183689D01*
X116571Y183804D01*
X116823Y184411D01*
Y185067D01*
X116571Y185674D01*
X116107Y186139D01*
X115500Y186390D01*
D02*
G37*
G36*
X359023Y179503D02*
X357828D01*
X356674Y179194D01*
X355639Y178596D01*
X354794Y177751D01*
X354196Y176716D01*
X353887Y175562D01*
Y174367D01*
X354196Y173213D01*
X354794Y172178D01*
X355639Y171333D01*
X356674Y170735D01*
X357828Y170426D01*
X359023D01*
X360177Y170735D01*
X361212Y171333D01*
X362057Y172178D01*
X362655Y173213D01*
X362964Y174367D01*
Y175562D01*
X362655Y176716D01*
X362057Y177751D01*
X361212Y178596D01*
X360177Y179194D01*
X359023Y179503D01*
D02*
G37*
G36*
X124177Y182965D02*
X123520D01*
X122913Y182714D01*
X122449Y182249D01*
X122197Y181642D01*
Y180986D01*
X122449Y180379D01*
X122819Y180009D01*
Y173083D01*
X122720Y172984D01*
X122468Y172377D01*
Y171720D01*
X122720Y171114D01*
X123184Y170649D01*
X123791Y170398D01*
X124448D01*
X125054Y170649D01*
X125519Y171114D01*
X125770Y171720D01*
Y172377D01*
X125519Y172984D01*
X125062Y173441D01*
Y180193D01*
X125248Y180379D01*
X125499Y180986D01*
Y181642D01*
X125248Y182249D01*
X124783Y182714D01*
X124177Y182965D01*
D02*
G37*
G36*
X168467Y183516D02*
X167810D01*
X167204Y183265D01*
X166739Y182800D01*
X166488Y182194D01*
Y181537D01*
X166739Y180930D01*
X167017Y180652D01*
Y173017D01*
X166739Y172739D01*
X166488Y172132D01*
Y171475D01*
X166739Y170869D01*
X167204Y170404D01*
X167810Y170153D01*
X168467D01*
X169074Y170404D01*
X169538Y170869D01*
X169790Y171475D01*
Y172132D01*
X169538Y172739D01*
X169261Y173017D01*
Y180652D01*
X169538Y180930D01*
X169790Y181537D01*
Y182194D01*
X169538Y182800D01*
X169074Y183265D01*
X168467Y183516D01*
D02*
G37*
G36*
X129976Y180440D02*
X129319D01*
X128712Y180189D01*
X128248Y179725D01*
X127997Y179118D01*
Y178461D01*
X128248Y177854D01*
X128712Y177390D01*
X129319Y177139D01*
X129712D01*
X133636Y173215D01*
Y172609D01*
X133568Y172542D01*
X133317Y171935D01*
Y171279D01*
X133568Y170672D01*
X134033Y170208D01*
X134640Y169956D01*
X135296D01*
X135903Y170208D01*
X136367Y170672D01*
X136619Y171279D01*
Y171935D01*
X136367Y172542D01*
X135903Y173006D01*
X135879Y173016D01*
Y173680D01*
X135794Y174109D01*
X135550Y174473D01*
X135550Y174473D01*
X131298Y178725D01*
Y179118D01*
X131047Y179725D01*
X130583Y180189D01*
X129976Y180440D01*
D02*
G37*
G36*
X212767Y180591D02*
X212110D01*
X211504Y180340D01*
X211039Y179875D01*
X210788Y179268D01*
Y178612D01*
X211039Y178005D01*
X211504Y177541D01*
X212110Y177289D01*
X212767D01*
X213374Y177541D01*
X213570Y177737D01*
X216090D01*
X220157Y173670D01*
Y170496D01*
X219981Y170320D01*
X219730Y169713D01*
Y169057D01*
X219981Y168450D01*
X220446Y167986D01*
X221052Y167734D01*
X221709D01*
X222316Y167986D01*
X222780Y168450D01*
X223031Y169057D01*
Y169713D01*
X222780Y170320D01*
X222604Y170496D01*
Y174177D01*
X222511Y174645D01*
X222246Y175042D01*
X217462Y179825D01*
X217065Y180090D01*
X216597Y180184D01*
X213530D01*
X213374Y180340D01*
X212767Y180591D01*
D02*
G37*
G36*
X185848Y160045D02*
X185256D01*
X184709Y159819D01*
X184290Y159400D01*
X184064Y158853D01*
Y158261D01*
X184290Y157714D01*
X184709Y157296D01*
X185256Y157069D01*
X185848D01*
X186395Y157296D01*
X186541Y157442D01*
X191668D01*
X191709Y157401D01*
X191931Y156864D01*
X192350Y156445D01*
X192897Y156219D01*
X193489D01*
X194036Y156445D01*
X194455Y156864D01*
X194681Y157411D01*
Y158003D01*
X194455Y158550D01*
X194036Y158968D01*
X193489Y159195D01*
X193069D01*
X192918Y159346D01*
X192556Y159587D01*
X192130Y159672D01*
X192130Y159672D01*
X186541D01*
X186395Y159819D01*
X185848Y160045D01*
D02*
G37*
G36*
X164767Y170418D02*
X164110D01*
X163503Y170167D01*
X163039Y169703D01*
X162788Y169096D01*
Y168439D01*
X163039Y167832D01*
X163323Y167548D01*
Y157536D01*
X163323Y157536D01*
X163408Y157109D01*
X163650Y156747D01*
X164937Y155460D01*
Y155058D01*
X165188Y154452D01*
X165653Y153987D01*
X166259Y153736D01*
X166916D01*
X167523Y153987D01*
X167987Y154452D01*
X168238Y155058D01*
Y155715D01*
X167987Y156322D01*
X167523Y156786D01*
X166916Y157037D01*
X166514D01*
X165553Y157998D01*
Y167548D01*
X165838Y167832D01*
X166089Y168439D01*
Y169096D01*
X165838Y169703D01*
X165374Y170167D01*
X164767Y170418D01*
D02*
G37*
G36*
X152832Y161413D02*
X152175D01*
X151568Y161161D01*
X151104Y160697D01*
X150853Y160090D01*
Y159434D01*
X151104Y158827D01*
X151382Y158549D01*
Y156093D01*
X151104Y155815D01*
X150853Y155208D01*
Y154551D01*
X151104Y153945D01*
X151568Y153480D01*
X152175Y153229D01*
X152832D01*
X153439Y153480D01*
X153903Y153945D01*
X154154Y154551D01*
Y155208D01*
X153903Y155815D01*
X153625Y156093D01*
Y158549D01*
X153903Y158827D01*
X154154Y159434D01*
Y160090D01*
X153903Y160697D01*
X153439Y161161D01*
X152832Y161413D01*
D02*
G37*
G36*
X359023Y159503D02*
X357828D01*
X356674Y159194D01*
X355639Y158596D01*
X354794Y157751D01*
X354196Y156716D01*
X353887Y155562D01*
Y154367D01*
X354196Y153213D01*
X354794Y152178D01*
X355639Y151333D01*
X356674Y150735D01*
X357828Y150426D01*
X359023D01*
X360177Y150735D01*
X361212Y151333D01*
X362057Y152178D01*
X362655Y153213D01*
X362964Y154367D01*
Y155562D01*
X362655Y156716D01*
X362057Y157751D01*
X361212Y158596D01*
X360177Y159194D01*
X359023Y159503D01*
D02*
G37*
G36*
X132079Y160504D02*
X131422D01*
X130815Y160253D01*
X130351Y159788D01*
X130100Y159181D01*
Y158525D01*
X130351Y157918D01*
X130731Y157538D01*
Y152706D01*
X130808Y152316D01*
X130814Y152307D01*
X130715Y152068D01*
Y151411D01*
X130966Y150804D01*
X131430Y150340D01*
X132037Y150089D01*
X132694D01*
X133301Y150340D01*
X133765Y150804D01*
X134016Y151411D01*
Y152068D01*
X133765Y152674D01*
X133301Y153139D01*
X132770Y153359D01*
Y157538D01*
X133150Y157918D01*
X133401Y158525D01*
Y159181D01*
X133150Y159788D01*
X132685Y160253D01*
X132079Y160504D01*
D02*
G37*
G36*
X182977Y157448D02*
X182385D01*
X181838Y157221D01*
X181420Y156803D01*
X181193Y156256D01*
Y155664D01*
X181420Y155117D01*
X181560Y154977D01*
Y152010D01*
X181386Y151836D01*
X181159Y151289D01*
Y150697D01*
X181386Y150150D01*
X181804Y149731D01*
X182351Y149505D01*
X182943D01*
X183490Y149731D01*
X183909Y150150D01*
X184135Y150697D01*
Y151289D01*
X183909Y151836D01*
X183803Y151942D01*
Y154977D01*
X183943Y155117D01*
X184169Y155664D01*
Y156256D01*
X183943Y156803D01*
X183524Y157221D01*
X182977Y157448D01*
D02*
G37*
G36*
X138256Y160208D02*
X137599D01*
X136992Y159957D01*
X136528Y159492D01*
X136276Y158886D01*
Y158229D01*
X136528Y157622D01*
X136992Y157158D01*
X137107Y157110D01*
Y150343D01*
X137033Y150269D01*
X136782Y149662D01*
Y149005D01*
X137033Y148398D01*
X137498Y147934D01*
X138104Y147683D01*
X138761D01*
X139368Y147934D01*
X139832Y148398D01*
X140084Y149005D01*
Y149662D01*
X139832Y150269D01*
X139758Y150343D01*
Y157862D01*
X139657Y158370D01*
X139578Y158488D01*
Y158886D01*
X139327Y159492D01*
X138862Y159957D01*
X138256Y160208D01*
D02*
G37*
G36*
X236282Y147547D02*
X235625D01*
X235018Y147296D01*
X234554Y146832D01*
X234486Y146667D01*
X228548D01*
X228372Y146843D01*
X227765Y147094D01*
X227108D01*
X226501Y146843D01*
X226037Y146378D01*
X225786Y145772D01*
Y145115D01*
X226037Y144508D01*
X226501Y144044D01*
X227108Y143792D01*
X227765D01*
X228372Y144044D01*
X228548Y144220D01*
X235257D01*
X235548Y144278D01*
X235625Y144246D01*
X236282D01*
X236889Y144497D01*
X237353Y144961D01*
X237604Y145568D01*
Y146225D01*
X237353Y146832D01*
X236889Y147296D01*
X236282Y147547D01*
D02*
G37*
G36*
X98236Y153698D02*
X97579D01*
X96973Y153447D01*
X96508Y152982D01*
X96257Y152375D01*
Y151719D01*
X96349Y151496D01*
Y144052D01*
X96275Y143978D01*
X96024Y143371D01*
Y142714D01*
X96275Y142108D01*
X96740Y141643D01*
X97346Y141392D01*
X98003D01*
X98610Y141643D01*
X99074Y142108D01*
X99326Y142714D01*
Y143371D01*
X99074Y143978D01*
X99000Y144052D01*
Y150805D01*
X99307Y151112D01*
X99559Y151719D01*
Y152375D01*
X99307Y152982D01*
X98843Y153447D01*
X98236Y153698D01*
D02*
G37*
G36*
X345412Y139309D02*
X336989D01*
X336228Y139158D01*
X335583Y138727D01*
X335383Y138526D01*
X334951Y137881D01*
X334800Y137120D01*
X334951Y136360D01*
X335383Y135714D01*
X336028Y135284D01*
X336788Y135132D01*
X337549Y135284D01*
X337623Y135333D01*
X345412D01*
X346173Y135484D01*
X346818Y135915D01*
X347249Y136560D01*
X347400Y137321D01*
X347249Y138082D01*
X346818Y138727D01*
X346173Y139158D01*
X345412Y139309D01*
D02*
G37*
G36*
X212698Y145629D02*
X212041D01*
X211434Y145377D01*
X210970Y144913D01*
X210718Y144306D01*
Y143649D01*
X210970Y143043D01*
X211146Y142867D01*
Y139735D01*
X206777Y135366D01*
X206528D01*
X205921Y135115D01*
X205457Y134650D01*
X205206Y134043D01*
Y133387D01*
X205457Y132780D01*
X205921Y132316D01*
X206528Y132064D01*
X207185D01*
X207791Y132316D01*
X208256Y132780D01*
X208507Y133387D01*
Y133635D01*
X213234Y138363D01*
X213500Y138760D01*
X213593Y139228D01*
Y142867D01*
X213769Y143043D01*
X214020Y143649D01*
Y144306D01*
X213769Y144913D01*
X213304Y145377D01*
X212698Y145629D01*
D02*
G37*
G36*
X164767D02*
X164110D01*
X163503Y145377D01*
X163039Y144913D01*
X162788Y144306D01*
Y143649D01*
X163039Y143043D01*
X163138Y142944D01*
Y134699D01*
X163089Y134650D01*
X162838Y134043D01*
Y133387D01*
X163089Y132780D01*
X163553Y132316D01*
X164160Y132064D01*
X164817D01*
X165424Y132316D01*
X165888Y132780D01*
X166139Y133387D01*
Y134043D01*
X165888Y134650D01*
X165789Y134749D01*
Y142994D01*
X165838Y143043D01*
X166089Y143649D01*
Y144306D01*
X165838Y144913D01*
X165374Y145377D01*
X164767Y145629D01*
D02*
G37*
G36*
X135296Y143043D02*
X134640D01*
X134033Y142791D01*
X133568Y142327D01*
X133317Y141720D01*
Y141063D01*
X133568Y140457D01*
X134033Y139992D01*
X134640Y139741D01*
X135177D01*
X141785Y133133D01*
Y132706D01*
X141405Y132326D01*
X141154Y131719D01*
Y131063D01*
X141405Y130456D01*
X141869Y129991D01*
X142476Y129740D01*
X143133D01*
X143739Y129991D01*
X144204Y130456D01*
X144455Y131063D01*
Y131719D01*
X144204Y132326D01*
X143824Y132706D01*
Y133555D01*
X143746Y133946D01*
X143525Y134276D01*
X136619Y141183D01*
Y141720D01*
X136367Y142327D01*
X135903Y142791D01*
X135296Y143043D01*
D02*
G37*
G36*
X128328Y141768D02*
X127672D01*
X127065Y141517D01*
X126600Y141052D01*
X126349Y140446D01*
Y139789D01*
X126600Y139182D01*
X127065Y138718D01*
X127672Y138466D01*
X127776D01*
X134951Y131291D01*
Y130734D01*
X134877Y130660D01*
X134626Y130053D01*
Y129396D01*
X134877Y128790D01*
X135341Y128325D01*
X135948Y128074D01*
X136605D01*
X137212Y128325D01*
X137676Y128790D01*
X137927Y129396D01*
Y130053D01*
X137676Y130660D01*
X137602Y130734D01*
Y131841D01*
X137501Y132348D01*
X137214Y132778D01*
X129651Y140341D01*
Y140446D01*
X129399Y141052D01*
X128935Y141517D01*
X128328Y141768D01*
D02*
G37*
G36*
X268555Y134884D02*
X267892Y134752D01*
X267330Y134377D01*
X265561Y132607D01*
X265185Y132045D01*
X265053Y131381D01*
Y125835D01*
X265185Y125172D01*
X265561Y124610D01*
X266123Y124234D01*
X266786Y124102D01*
X267449Y124234D01*
X268012Y124610D01*
X268388Y125172D01*
X268519Y125835D01*
Y130664D01*
X269781Y131925D01*
X270157Y132488D01*
X270289Y133151D01*
X270157Y133814D01*
X269781Y134377D01*
X269219Y134752D01*
X268555Y134884D01*
D02*
G37*
G36*
X180257Y130020D02*
X179217D01*
X178213Y129751D01*
X177313Y129231D01*
X176578Y128496D01*
X176058Y127596D01*
X175789Y126592D01*
Y125552D01*
X176058Y124548D01*
X176578Y123648D01*
X177313Y122913D01*
X178213Y122393D01*
X179217Y122124D01*
X180257D01*
X181261Y122393D01*
X182161Y122913D01*
X182896Y123648D01*
X183416Y124548D01*
X183685Y125552D01*
Y126592D01*
X183416Y127596D01*
X182896Y128496D01*
X182161Y129231D01*
X181261Y129751D01*
X180257Y130020D01*
D02*
G37*
G36*
X170680Y144117D02*
X170023D01*
X169416Y143866D01*
X168952Y143402D01*
X168701Y142795D01*
Y142368D01*
X168680Y142338D01*
X168579Y141830D01*
Y132790D01*
X168505Y132716D01*
X168254Y132109D01*
Y131452D01*
X168505Y130845D01*
X168898Y130452D01*
X168876Y130116D01*
X168803Y129909D01*
X168213Y129751D01*
X167313Y129231D01*
X166578Y128496D01*
X166058Y127596D01*
X165789Y126592D01*
Y125552D01*
X166058Y124548D01*
X166578Y123648D01*
X167313Y122913D01*
X168213Y122393D01*
X169217Y122124D01*
X170257D01*
X171261Y122393D01*
X172161Y122913D01*
X172896Y123648D01*
X173416Y124548D01*
X173685Y125552D01*
Y126592D01*
X173416Y127596D01*
X172896Y128496D01*
X172161Y129231D01*
X171261Y129751D01*
X170875Y129855D01*
X170840Y130381D01*
X171304Y130845D01*
X171556Y131452D01*
Y132109D01*
X171304Y132716D01*
X171230Y132790D01*
Y141044D01*
X171287Y141067D01*
X171751Y141531D01*
X172002Y142138D01*
Y142795D01*
X171751Y143402D01*
X171287Y143866D01*
X170680Y144117D01*
D02*
G37*
G36*
X163685Y130020D02*
X155789D01*
Y122124D01*
X163685D01*
Y130020D01*
D02*
G37*
G36*
X359929Y130443D02*
X358734D01*
X357579Y130133D01*
X356544Y129536D01*
X355699Y128691D01*
X355102Y127656D01*
X354793Y126502D01*
Y125307D01*
X355102Y124152D01*
X355699Y123117D01*
X356544Y122272D01*
X357579Y121675D01*
X358734Y121365D01*
X359929D01*
X361083Y121675D01*
X362118Y122272D01*
X362963Y123117D01*
X363561Y124152D01*
X363870Y125307D01*
Y126502D01*
X363561Y127656D01*
X362963Y128691D01*
X362118Y129536D01*
X361083Y130133D01*
X359929Y130443D01*
D02*
G37*
G36*
X185531Y147094D02*
X184875D01*
X184268Y146843D01*
X183804Y146378D01*
X183552Y145772D01*
Y145115D01*
X183804Y144508D01*
X184268Y144044D01*
X184875Y143792D01*
X185124D01*
X191607Y137309D01*
Y123485D01*
X191431Y123310D01*
X191180Y122703D01*
Y122046D01*
X191431Y121439D01*
X191895Y120975D01*
X192502Y120724D01*
X193159D01*
X193765Y120975D01*
X194230Y121439D01*
X194481Y122046D01*
Y122703D01*
X194230Y123310D01*
X194054Y123485D01*
Y137816D01*
X193961Y138284D01*
X193696Y138681D01*
X186854Y145523D01*
Y145772D01*
X186603Y146378D01*
X186138Y146843D01*
X185531Y147094D01*
D02*
G37*
G36*
X221899Y119966D02*
X221242D01*
X220636Y119715D01*
X220171Y119251D01*
X220118Y119122D01*
X194202D01*
X194128Y119196D01*
X193521Y119448D01*
X192865D01*
X192258Y119196D01*
X191794Y118732D01*
X191542Y118125D01*
Y117469D01*
X191794Y116862D01*
X192258Y116397D01*
X192865Y116146D01*
X193521D01*
X194128Y116397D01*
X194202Y116471D01*
X220863D01*
X221370Y116572D01*
X221508Y116665D01*
X221899D01*
X222506Y116916D01*
X222970Y117381D01*
X223222Y117987D01*
Y118644D01*
X222970Y119251D01*
X222506Y119715D01*
X221899Y119966D01*
D02*
G37*
G36*
X336469Y125604D02*
X330633D01*
X329970Y125472D01*
X329408Y125096D01*
X329032Y124534D01*
X328900Y123871D01*
X329032Y123207D01*
X329408Y122645D01*
X329970Y122269D01*
X330633Y122137D01*
X335751D01*
X338601Y119287D01*
X339164Y118911D01*
X339827Y118779D01*
X340490Y118911D01*
X341053Y119287D01*
X341428Y119849D01*
X341560Y120512D01*
X341428Y121176D01*
X341053Y121738D01*
X337694Y125096D01*
X337132Y125472D01*
X336469Y125604D01*
D02*
G37*
G36*
X204861Y113273D02*
X204204D01*
X203597Y113022D01*
X203415Y112840D01*
X193779D01*
X193608Y113010D01*
X193002Y113261D01*
X192345D01*
X191738Y113010D01*
X191274Y112546D01*
X191023Y111939D01*
Y111282D01*
X191274Y110675D01*
X191738Y110211D01*
X192345Y109960D01*
X193002D01*
X193608Y110211D01*
X193790Y110393D01*
X203427D01*
X203597Y110223D01*
X204204Y109971D01*
X204861D01*
X205468Y110223D01*
X205932Y110687D01*
X206183Y111294D01*
Y111951D01*
X205932Y112557D01*
X205468Y113022D01*
X204861Y113273D01*
D02*
G37*
G36*
X314704Y128271D02*
X314047D01*
X313440Y128019D01*
X312976Y127555D01*
X312725Y126948D01*
Y126292D01*
X312976Y125685D01*
X313050Y125611D01*
Y118795D01*
X313151Y118288D01*
X313371Y117959D01*
Y115380D01*
X313297Y115306D01*
X313046Y114699D01*
Y114042D01*
X313297Y113436D01*
X313761Y112971D01*
X314368Y112720D01*
X315025D01*
X315631Y112971D01*
X316096Y113436D01*
X316347Y114042D01*
Y114699D01*
X316096Y115306D01*
X316022Y115380D01*
Y118474D01*
X315921Y118982D01*
X315701Y119311D01*
Y125611D01*
X315775Y125685D01*
X316026Y126292D01*
Y126948D01*
X315775Y127555D01*
X315311Y128019D01*
X314704Y128271D01*
D02*
G37*
G36*
X368749Y116339D02*
X368086Y116207D01*
X367933Y116104D01*
X359601D01*
X358938Y115972D01*
X358376Y115596D01*
X358000Y115034D01*
X357868Y114371D01*
X358000Y113707D01*
X358376Y113145D01*
X358938Y112769D01*
X359601Y112637D01*
X368515D01*
X369178Y112769D01*
X369740Y113145D01*
X369975Y113380D01*
X370351Y113942D01*
X370482Y114605D01*
X370351Y115269D01*
X369975Y115831D01*
X369412Y116207D01*
X368749Y116339D01*
D02*
G37*
G36*
X224668Y113659D02*
X224011D01*
X223405Y113408D01*
X223229Y113232D01*
X212714D01*
X212246Y113139D01*
X211849Y112873D01*
X208773Y109798D01*
X208524D01*
X207917Y109546D01*
X207453Y109082D01*
X207202Y108475D01*
Y107818D01*
X207453Y107212D01*
X207917Y106747D01*
X208524Y106496D01*
X209181D01*
X209787Y106747D01*
X210252Y107212D01*
X210503Y107818D01*
Y108067D01*
X213221Y110785D01*
X223229D01*
X223405Y110609D01*
X224011Y110357D01*
X224668D01*
X225275Y110609D01*
X225739Y111073D01*
X225991Y111680D01*
Y112337D01*
X225739Y112943D01*
X225275Y113408D01*
X224668Y113659D01*
D02*
G37*
G36*
X359929Y110443D02*
X358734D01*
X357579Y110133D01*
X356544Y109536D01*
X355699Y108691D01*
X355102Y107656D01*
X354793Y106502D01*
Y105307D01*
X355102Y104152D01*
X355699Y103117D01*
X356544Y102272D01*
X357579Y101675D01*
X358734Y101365D01*
X359929D01*
X361083Y101675D01*
X362118Y102272D01*
X362963Y103117D01*
X363561Y104152D01*
X363870Y105307D01*
Y106502D01*
X363561Y107656D01*
X362963Y108691D01*
X362118Y109536D01*
X361083Y110133D01*
X359929Y110443D01*
D02*
G37*
G36*
X205592Y99247D02*
X204935D01*
X204328Y98996D01*
X204152Y98820D01*
X193173D01*
X192997Y98996D01*
X192391Y99247D01*
X191734D01*
X191127Y98996D01*
X190663Y98532D01*
X190411Y97925D01*
Y97268D01*
X190663Y96662D01*
X191127Y96197D01*
X191734Y95946D01*
X192391D01*
X192997Y96197D01*
X193173Y96373D01*
X204152D01*
X204328Y96197D01*
X204935Y95946D01*
X205592D01*
X206198Y96197D01*
X206663Y96662D01*
X206914Y97268D01*
Y97925D01*
X206663Y98532D01*
X206198Y98996D01*
X205592Y99247D01*
D02*
G37*
G36*
X75483Y105553D02*
X73001D01*
X72338Y105421D01*
X71776Y105045D01*
X63781Y97051D01*
X63689Y96912D01*
X63565Y96789D01*
X63498Y96627D01*
X63406Y96489D01*
X63373Y96325D01*
X63306Y96164D01*
Y95989D01*
X63274Y95825D01*
X63306Y95662D01*
Y95487D01*
X63373Y95325D01*
X63406Y95162D01*
X63498Y95024D01*
X63565Y94862D01*
X63689Y94738D01*
X63781Y94600D01*
X63920Y94507D01*
X64044Y94384D01*
X64205Y94317D01*
X64344Y94224D01*
X64507Y94191D01*
X64669Y94125D01*
X64844D01*
X65007Y94092D01*
X65171Y94125D01*
X65345D01*
X65507Y94191D01*
X65670Y94224D01*
X65809Y94317D01*
X65970Y94384D01*
X66094Y94507D01*
X66233Y94600D01*
X73720Y102086D01*
X75483D01*
X75646Y102119D01*
X75821D01*
X75982Y102186D01*
X76146Y102218D01*
X76284Y102311D01*
X76446Y102378D01*
X76570Y102502D01*
X76708Y102594D01*
X76801Y102733D01*
X76925Y102856D01*
X76991Y103018D01*
X77084Y103156D01*
X77117Y103320D01*
X77183Y103481D01*
Y103656D01*
X77216Y103820D01*
X77183Y103983D01*
Y104158D01*
X77117Y104320D01*
X77084Y104483D01*
X76991Y104622D01*
X76925Y104783D01*
X76801Y104907D01*
X76708Y105045D01*
X76570Y105138D01*
X76446Y105262D01*
X76284Y105329D01*
X76146Y105421D01*
X75982Y105454D01*
X75821Y105521D01*
X75646D01*
X75483Y105553D01*
D02*
G37*
G36*
X78834Y91661D02*
X78177D01*
X77571Y91410D01*
X77421Y91261D01*
X73175D01*
X73101Y91335D01*
X72494Y91586D01*
X71837D01*
X71230Y91335D01*
X70766Y90870D01*
X70515Y90263D01*
Y89607D01*
X70766Y89000D01*
X71230Y88536D01*
X71837Y88284D01*
X72494D01*
X73101Y88536D01*
X73175Y88610D01*
X77574D01*
X78177Y88360D01*
X78834D01*
X79441Y88611D01*
X79905Y89075D01*
X80157Y89682D01*
Y90339D01*
X79905Y90946D01*
X79441Y91410D01*
X78834Y91661D01*
D02*
G37*
G36*
X270082Y113814D02*
X269321Y113662D01*
X268676Y113231D01*
X268245Y112586D01*
X268094Y111825D01*
Y111726D01*
X268245Y110965D01*
X268676Y110320D01*
X274397Y104599D01*
Y91947D01*
X274548Y91186D01*
X274979Y90541D01*
X275624Y90110D01*
X276385Y89959D01*
X277146Y90110D01*
X277791Y90541D01*
X278222Y91186D01*
X278373Y91947D01*
Y105423D01*
X278222Y106184D01*
X277791Y106829D01*
X271688Y112932D01*
X271488Y113231D01*
X270843Y113662D01*
X270082Y113814D01*
D02*
G37*
G36*
X323157Y90134D02*
X314375D01*
X313712Y90002D01*
X313150Y89627D01*
X312774Y89064D01*
X312642Y88401D01*
X312774Y87738D01*
X313150Y87175D01*
X313712Y86800D01*
X314375Y86668D01*
X322439D01*
X322692Y86415D01*
X323254Y86039D01*
X323918Y85907D01*
X324581Y86039D01*
X325143Y86415D01*
X325519Y86977D01*
X325651Y87640D01*
X325519Y88304D01*
X325143Y88866D01*
X324382Y89627D01*
X323820Y90002D01*
X323157Y90134D01*
D02*
G37*
G36*
X359929Y90443D02*
X358734D01*
X357579Y90133D01*
X356544Y89536D01*
X355699Y88691D01*
X355102Y87656D01*
X354793Y86502D01*
Y85307D01*
X355102Y84152D01*
X355699Y83117D01*
X356544Y82272D01*
X357579Y81675D01*
X358734Y81366D01*
X359929D01*
X361083Y81675D01*
X362118Y82272D01*
X362963Y83117D01*
X363561Y84152D01*
X363870Y85307D01*
Y86502D01*
X363561Y87656D01*
X362963Y88691D01*
X362118Y89536D01*
X361083Y90133D01*
X359929Y90443D01*
D02*
G37*
G36*
X336469Y83594D02*
X335929Y83487D01*
X328661D01*
X327901Y83336D01*
X327255Y82905D01*
X326824Y82260D01*
X326673Y81499D01*
X326824Y80738D01*
X327255Y80093D01*
X327901Y79662D01*
X328661Y79510D01*
X336361D01*
X337122Y79662D01*
X337767Y80093D01*
X337874Y80200D01*
X338305Y80845D01*
X338457Y81606D01*
X338305Y82367D01*
X337874Y83012D01*
X337229Y83443D01*
X336469Y83594D01*
D02*
G37*
G36*
X321621Y83331D02*
X320860Y83180D01*
X320683Y83062D01*
X309930D01*
X309169Y82910D01*
X308524Y82479D01*
X308093Y81834D01*
X307942Y81073D01*
X308093Y80313D01*
X308524Y79668D01*
X309169Y79237D01*
X309930Y79085D01*
X321351D01*
X322112Y79237D01*
X322757Y79668D01*
X323027Y79937D01*
X323458Y80582D01*
X323609Y81343D01*
X323458Y82104D01*
X323027Y82749D01*
X322382Y83180D01*
X321621Y83331D01*
D02*
G37*
G36*
X218299Y87709D02*
X210999D01*
X210726Y87655D01*
X210494Y87501D01*
X210340Y87269D01*
X210285Y86996D01*
Y76996D01*
X210340Y76723D01*
X210494Y76491D01*
X210726Y76336D01*
X210999Y76282D01*
X218299D01*
X218572Y76336D01*
X218804Y76491D01*
X218958Y76723D01*
X219013Y76996D01*
Y86996D01*
X218958Y87269D01*
X218804Y87501D01*
X218572Y87655D01*
X218299Y87709D01*
D02*
G37*
G36*
X263952Y90702D02*
X263191Y90550D01*
X262546Y90119D01*
X262115Y89474D01*
X261964Y88713D01*
Y77547D01*
X262115Y76786D01*
X262546Y76141D01*
X263189Y75499D01*
X263834Y75068D01*
X264595Y74916D01*
X265355Y75068D01*
X266000Y75499D01*
X266431Y76144D01*
X266583Y76905D01*
X266431Y77666D01*
X266000Y78311D01*
X265940Y78371D01*
Y88713D01*
X265789Y89474D01*
X265358Y90119D01*
X264713Y90550D01*
X263952Y90702D01*
D02*
G37*
G36*
X62812Y89223D02*
X62155D01*
X61549Y88971D01*
X61084Y88507D01*
X60833Y87900D01*
Y87796D01*
X51312Y78275D01*
X51025Y77845D01*
X50924Y77337D01*
Y76721D01*
X50716Y76513D01*
X50464Y75907D01*
Y75250D01*
X50716Y74643D01*
X51180Y74179D01*
X51787Y73928D01*
X52444D01*
X53050Y74179D01*
X53515Y74643D01*
X53766Y75250D01*
Y75907D01*
X53575Y76369D01*
Y76788D01*
X62708Y85921D01*
X62812D01*
X63419Y86172D01*
X63883Y86637D01*
X64135Y87243D01*
Y87900D01*
X63883Y88507D01*
X63419Y88971D01*
X62812Y89223D01*
D02*
G37*
G36*
X325778Y77736D02*
X324355D01*
X322980Y77368D01*
X321748Y76656D01*
X320742Y75650D01*
X320030Y74417D01*
X319662Y73043D01*
Y71619D01*
X320030Y70245D01*
X320742Y69012D01*
X321748Y68006D01*
X322980Y67295D01*
X324355Y66926D01*
X325778D01*
X327152Y67295D01*
X328385Y68006D01*
X329391Y69012D01*
X330103Y70245D01*
X330471Y71619D01*
Y73043D01*
X330103Y74417D01*
X329391Y75650D01*
X328385Y76656D01*
X327152Y77368D01*
X325778Y77736D01*
D02*
G37*
G36*
X72214Y85617D02*
X71453Y85466D01*
X70808Y85035D01*
X70377Y84390D01*
X70225Y83629D01*
Y82349D01*
X65234Y77358D01*
X64803Y76713D01*
X64652Y75952D01*
Y68710D01*
X64803Y67949D01*
X65234Y67304D01*
X71957Y60581D01*
X72602Y60150D01*
X73363Y59999D01*
X73858D01*
X74619Y60150D01*
X75264Y60581D01*
X75695Y61227D01*
X75846Y61987D01*
X75695Y62748D01*
X75264Y63393D01*
X74619Y63824D01*
X74268Y63894D01*
X73631Y64531D01*
X73877Y64992D01*
X74643Y64840D01*
X76119D01*
X77566Y65128D01*
X78930Y65692D01*
X80157Y66512D01*
X81200Y67556D01*
X82020Y68783D01*
X82585Y70146D01*
X82873Y71593D01*
Y73069D01*
X82585Y74516D01*
X82020Y75880D01*
X81200Y77106D01*
X80157Y78150D01*
X78930Y78970D01*
X77566Y79535D01*
X76119Y79822D01*
X74643D01*
X73877Y79670D01*
X73634Y80093D01*
X73626Y80130D01*
X74050Y80765D01*
X74202Y81525D01*
Y83629D01*
X74050Y84390D01*
X73619Y85035D01*
X72974Y85466D01*
X72214Y85617D01*
D02*
G37*
G36*
X359929Y70443D02*
X358734D01*
X357579Y70133D01*
X356544Y69536D01*
X355699Y68691D01*
X355102Y67656D01*
X354793Y66502D01*
Y65307D01*
X355102Y64152D01*
X355699Y63117D01*
X356544Y62272D01*
X357579Y61675D01*
X358734Y61365D01*
X359929D01*
X361083Y61675D01*
X362118Y62272D01*
X362963Y63117D01*
X363561Y64152D01*
X363870Y65307D01*
Y66502D01*
X363561Y67656D01*
X362963Y68691D01*
X362118Y69536D01*
X361083Y70133D01*
X359929Y70443D01*
D02*
G37*
G36*
X269863Y57680D02*
X269207D01*
X268600Y57429D01*
X268526Y57355D01*
X262006D01*
X261932Y57429D01*
X261325Y57680D01*
X260668D01*
X260062Y57429D01*
X259597Y56965D01*
X259346Y56358D01*
Y55701D01*
X259597Y55095D01*
X260062Y54630D01*
X260668Y54379D01*
X261325D01*
X261932Y54630D01*
X262006Y54704D01*
X268526D01*
X268600Y54630D01*
X269207Y54379D01*
X269863D01*
X270470Y54630D01*
X270935Y55095D01*
X271186Y55701D01*
Y56358D01*
X270935Y56965D01*
X270470Y57429D01*
X269863Y57680D01*
D02*
G37*
G36*
X210878Y61126D02*
X210221D01*
X209615Y60875D01*
X209150Y60410D01*
X208899Y59804D01*
Y59147D01*
X209150Y58540D01*
X209615Y58076D01*
X210221Y57824D01*
X210878D01*
X211485Y58076D01*
X211559Y58150D01*
X215542D01*
X217571Y56121D01*
Y56017D01*
X217822Y55410D01*
X218286Y54945D01*
X218893Y54694D01*
X219550D01*
X220157Y54945D01*
X220621Y55410D01*
X220872Y56017D01*
Y56673D01*
X220621Y57280D01*
X220157Y57744D01*
X219550Y57996D01*
X219445D01*
X217028Y60413D01*
X216599Y60700D01*
X216091Y60801D01*
X211559D01*
X211485Y60875D01*
X210878Y61126D01*
D02*
G37*
G36*
X212876Y65673D02*
X212220D01*
X211613Y65421D01*
X211149Y64957D01*
X210897Y64350D01*
Y63693D01*
X211149Y63087D01*
X211613Y62622D01*
X212220Y62371D01*
X212876D01*
X213483Y62622D01*
X213557Y62696D01*
X216300D01*
X223185Y55812D01*
Y55707D01*
X223436Y55100D01*
X223901Y54636D01*
X224507Y54384D01*
X225164D01*
X225771Y54636D01*
X226235Y55100D01*
X226486Y55707D01*
Y56364D01*
X226235Y56970D01*
X225771Y57435D01*
X225164Y57686D01*
X225059D01*
X217786Y64959D01*
X217356Y65246D01*
X216849Y65347D01*
X213557D01*
X213483Y65421D01*
X212876Y65673D01*
D02*
G37*
G36*
X291561Y57769D02*
X290898Y57637D01*
X290336Y57261D01*
X289960Y56699D01*
X289828Y56035D01*
X289960Y55372D01*
X290336Y54810D01*
X290765Y54380D01*
X291328Y54004D01*
X291991Y53872D01*
X291991Y53872D01*
X307534D01*
X308197Y54004D01*
X308759Y54380D01*
X309135Y54942D01*
X309267Y55606D01*
X309135Y56269D01*
X308759Y56831D01*
X308197Y57207D01*
X307534Y57339D01*
X292670D01*
X292225Y57637D01*
X291561Y57769D01*
D02*
G37*
G36*
X271371Y53155D02*
X270714D01*
X270107Y52903D01*
X269643Y52439D01*
X269576Y52276D01*
X261136D01*
X261062Y52350D01*
X260455Y52602D01*
X259799D01*
X259192Y52350D01*
X258727Y51886D01*
X258476Y51279D01*
Y50623D01*
X258727Y50016D01*
X259192Y49552D01*
X259799Y49300D01*
X260455D01*
X261062Y49552D01*
X261136Y49626D01*
X270300D01*
X270808Y49727D01*
X270997Y49853D01*
X271371D01*
X271978Y50104D01*
X272442Y50569D01*
X272693Y51175D01*
Y51832D01*
X272442Y52439D01*
X271978Y52903D01*
X271371Y53155D01*
D02*
G37*
G36*
X291890Y50945D02*
X291233D01*
X290626Y50694D01*
X290162Y50229D01*
X289911Y49623D01*
Y48966D01*
X290162Y48359D01*
X290626Y47895D01*
X291233Y47643D01*
X291890D01*
X292496Y47895D01*
X292565Y47964D01*
X307464D01*
X307543Y47884D01*
X308150Y47633D01*
X308807D01*
X309414Y47884D01*
X309878Y48349D01*
X310129Y48956D01*
Y49612D01*
X309878Y50219D01*
X309414Y50683D01*
X308807Y50935D01*
X308150D01*
X307543Y50683D01*
X307474Y50615D01*
X292576D01*
X292496Y50694D01*
X291890Y50945D01*
D02*
G37*
G36*
X355609Y54271D02*
X324839D01*
Y44760D01*
X322630D01*
X322556Y44834D01*
X321949Y45085D01*
X321292D01*
X320686Y44834D01*
X320221Y44369D01*
X319970Y43763D01*
Y43106D01*
X320221Y42499D01*
X320686Y42035D01*
X321292Y41783D01*
X321949D01*
X322556Y42035D01*
X322630Y42109D01*
X324839D01*
Y35316D01*
X324339Y35053D01*
X323764Y35168D01*
X323100Y35036D01*
X322538Y34660D01*
X322162Y34098D01*
X322030Y33434D01*
X322060Y33286D01*
Y21679D01*
X322192Y21015D01*
X322568Y20453D01*
X323130Y20077D01*
X323793Y19945D01*
X324456Y20077D01*
X325019Y20453D01*
X325395Y21015D01*
X325526Y21679D01*
Y27399D01*
X355609D01*
Y54271D01*
D02*
G37*
G36*
X363329Y44154D02*
X362134D01*
X360980Y43845D01*
X359945Y43247D01*
X359100Y42402D01*
X358502Y41367D01*
X358193Y40213D01*
Y39018D01*
X358502Y37863D01*
X359100Y36829D01*
X359945Y35983D01*
X360980Y35386D01*
X362134Y35077D01*
X363329D01*
X364483Y35386D01*
X365518Y35983D01*
X366363Y36829D01*
X366961Y37863D01*
X367270Y39018D01*
Y40213D01*
X366961Y41367D01*
X366363Y42402D01*
X365518Y43247D01*
X364483Y43845D01*
X363329Y44154D01*
D02*
G37*
G36*
X97504Y46197D02*
X87661D01*
X86194Y46004D01*
X84827Y45437D01*
X83652Y44536D01*
X82751Y43362D01*
X82185Y41995D01*
X81992Y40527D01*
X82185Y39060D01*
X82751Y37692D01*
X83652Y36518D01*
X84827Y35617D01*
X86194Y35051D01*
X87661Y34857D01*
X97504D01*
X98971Y35051D01*
X100339Y35617D01*
X101513Y36518D01*
X102414Y37692D01*
X102981Y39060D01*
X103174Y40527D01*
X102981Y41995D01*
X102414Y43362D01*
X101513Y44536D01*
X100339Y45437D01*
X98971Y46004D01*
X97504Y46197D01*
D02*
G37*
G36*
X218976Y39148D02*
X211676D01*
X211403Y39094D01*
X211172Y38939D01*
X211017Y38707D01*
X210963Y38434D01*
Y28434D01*
X211017Y28161D01*
X211172Y27930D01*
X211403Y27775D01*
X211676Y27721D01*
X218976D01*
X219249Y27775D01*
X219481Y27930D01*
X219636Y28161D01*
X219690Y28434D01*
Y38434D01*
X219636Y38707D01*
X219481Y38939D01*
X219249Y39094D01*
X218976Y39148D01*
D02*
G37*
G36*
X363329Y24154D02*
X362134D01*
X360980Y23845D01*
X359945Y23247D01*
X359100Y22402D01*
X358502Y21367D01*
X358193Y20213D01*
Y19018D01*
X358502Y17864D01*
X359100Y16829D01*
X359945Y15983D01*
X360980Y15386D01*
X362134Y15077D01*
X363329D01*
X364483Y15386D01*
X365518Y15983D01*
X366363Y16829D01*
X366961Y17864D01*
X367270Y19018D01*
Y20213D01*
X366961Y21367D01*
X366363Y22402D01*
X365518Y23247D01*
X364483Y23845D01*
X363329Y24154D01*
D02*
G37*
G36*
X173939Y17746D02*
X172744D01*
X171589Y17436D01*
X170554Y16839D01*
X169709Y15994D01*
X169112Y14959D01*
X168802Y13805D01*
Y12610D01*
X169112Y11455D01*
X169709Y10420D01*
X170554Y9575D01*
X171589Y8978D01*
X172744Y8669D01*
X173939D01*
X175093Y8978D01*
X176128Y9575D01*
X176973Y10420D01*
X177570Y11455D01*
X177880Y12610D01*
Y13805D01*
X177570Y14959D01*
X176973Y15994D01*
X176128Y16839D01*
X175093Y17436D01*
X173939Y17746D01*
D02*
G37*
G36*
X153939D02*
X152744D01*
X151589Y17436D01*
X150554Y16839D01*
X149709Y15994D01*
X149112Y14959D01*
X148802Y13805D01*
Y12610D01*
X149112Y11455D01*
X149709Y10420D01*
X150554Y9575D01*
X151589Y8978D01*
X152744Y8669D01*
X153939D01*
X155093Y8978D01*
X156128Y9575D01*
X156973Y10420D01*
X157570Y11455D01*
X157880Y12610D01*
Y13805D01*
X157570Y14959D01*
X156973Y15994D01*
X156128Y16839D01*
X155093Y17436D01*
X153939Y17746D01*
D02*
G37*
G36*
X293442Y16830D02*
X291966D01*
X290519Y16542D01*
X289156Y15978D01*
X287929Y15158D01*
X286885Y14114D01*
X286065Y12887D01*
X285501Y11524D01*
X285213Y10077D01*
Y8601D01*
X285501Y7154D01*
X286065Y5790D01*
X286885Y4563D01*
X287929Y3520D01*
X289156Y2700D01*
X290519Y2135D01*
X291966Y1848D01*
X293442D01*
X294889Y2135D01*
X296253Y2700D01*
X297480Y3520D01*
X298523Y4563D01*
X299343Y5790D01*
X299908Y7154D01*
X300196Y8601D01*
Y10077D01*
X299908Y11524D01*
X299343Y12887D01*
X298523Y14114D01*
X297480Y15158D01*
X296253Y15978D01*
X294889Y16542D01*
X293442Y16830D01*
D02*
G37*
%LPD*%
D10*
X200929Y184642D02*
X205203Y180369D01*
X200929Y184642D02*
Y184729D01*
X91239Y279292D02*
X98221D01*
X100662Y281732D01*
X135105Y204289D02*
X137197Y202197D01*
X113559Y204289D02*
X135105D01*
X111468Y206380D02*
X113559Y204289D01*
X126330Y194769D02*
X127757Y196196D01*
X111694Y194769D02*
X126330D01*
X137164Y229543D02*
Y241161D01*
X133670Y226048D02*
X137164Y229543D01*
X134288Y244037D02*
X137164Y241161D01*
X133670Y225747D02*
Y226048D01*
X122988Y218824D02*
X123545D01*
X121530Y220282D02*
X122988Y218824D01*
X121432Y220282D02*
X121530D01*
X123545Y218824D02*
X123574Y218794D01*
X136538D01*
X205047Y170357D02*
X205203Y170512D01*
Y180369D01*
X216888Y189382D02*
Y195952D01*
X212843Y199997D02*
X216888Y195952D01*
X219222Y240434D02*
Y247547D01*
X219230Y247555D01*
X215313Y236525D02*
X219222Y240434D01*
X210711Y246438D02*
X211820Y247547D01*
X209367Y237400D02*
X210711Y238743D01*
Y246438D01*
X211820Y247547D02*
X211820D01*
X173533Y199696D02*
Y207325D01*
X168814Y212044D02*
X173533Y207325D01*
X168814Y212044D02*
Y215904D01*
X179394Y229902D02*
X179695D01*
X178966Y229474D02*
X179394Y229902D01*
X209265Y199997D02*
X212843D01*
X89128Y249138D02*
Y256282D01*
X85280Y245290D02*
X89128Y249138D01*
X135989Y208943D02*
X136493Y208440D01*
X136794D01*
X151962Y201545D02*
X153510Y199997D01*
X151962Y201545D02*
Y205446D01*
X149282Y208126D02*
X151962Y205446D01*
X156111Y203615D02*
Y213131D01*
X163294Y203983D02*
Y215803D01*
Y203983D02*
X167280Y199997D01*
X171360Y229474D02*
X178966D01*
X159737Y199997D02*
Y218794D01*
X102515Y218656D02*
X102653Y218794D01*
X102376Y209551D02*
X102515Y209689D01*
Y218656D01*
X115858Y208943D02*
X135989D01*
X176556Y174011D02*
Y181865D01*
X174768Y172223D02*
X176556Y174011D01*
X164438Y157536D02*
X166588Y155387D01*
X164438Y157536D02*
Y168767D01*
X185552Y158557D02*
X192130D01*
X192980Y157707D02*
X193193D01*
X192130Y158557D02*
X192980Y157707D01*
D16*
X144584Y173389D02*
Y178923D01*
X144682Y179021D01*
X144486Y173291D02*
X144584Y173389D01*
X78206Y198693D02*
X80964Y201451D01*
X78206Y193758D02*
Y198693D01*
X142804Y131391D02*
Y133555D01*
X134968Y141392D02*
X142804Y133555D01*
X131750Y152706D02*
X132366Y152091D01*
Y151739D02*
Y152091D01*
X131750Y152706D02*
Y158853D01*
X220256Y223846D02*
Y223890D01*
X214232Y217822D02*
X220256Y223846D01*
X214232Y217778D02*
Y217822D01*
X183685Y184505D02*
X183838Y184353D01*
Y173320D02*
Y184353D01*
Y173320D02*
X183991Y173167D01*
X180698Y199997D02*
Y212519D01*
X177313Y215904D02*
X180698Y212519D01*
D18*
X104161Y234894D02*
X107944Y238677D01*
X104161Y231013D02*
Y234894D01*
X107944Y238677D02*
X122297D01*
X192062Y97597D02*
X205263D01*
X212439Y178940D02*
X212459Y178960D01*
X216597D01*
X221381Y174177D01*
X210262Y182919D02*
X214839D01*
X207234Y179892D02*
X210262Y182919D01*
X207234Y177609D02*
Y179892D01*
X331280Y230235D02*
Y230478D01*
X331906Y231103D02*
Y246417D01*
X331280Y247042D02*
Y247286D01*
Y230478D02*
X331906Y231103D01*
X331280Y247042D02*
X331906Y246417D01*
X84344Y290914D02*
X97644D01*
X97791Y291062D01*
X85113Y276525D02*
Y285392D01*
X79048Y290893D02*
X79070Y290914D01*
X84344D01*
X84366Y290936D01*
X60179Y256362D02*
X64653Y260836D01*
X42362Y256362D02*
X60179D01*
X38269Y246356D02*
X38310Y246314D01*
Y241122D02*
X38352Y241080D01*
X38310Y241122D02*
Y246314D01*
X337738Y271611D02*
X337901Y271449D01*
Y270309D02*
X343172Y265038D01*
Y261299D02*
Y265038D01*
X337901Y270309D02*
Y271449D01*
X204526Y111616D02*
X204532Y111622D01*
X192679Y111616D02*
X204526D01*
X129876Y200894D02*
X132475D01*
X132599Y200769D01*
X129525Y201246D02*
X129876Y200894D01*
X107569Y201246D02*
X129525D01*
X105694Y203121D02*
X107569Y201246D01*
X192830Y122374D02*
Y137816D01*
X192673Y111610D02*
X192679Y111616D01*
X123573Y237400D02*
X134288D01*
X122297Y238677D02*
X123573Y237400D01*
X221381Y169385D02*
Y174177D01*
X207234Y177609D02*
X219964Y164879D01*
X212369Y139228D02*
Y143978D01*
X206856Y133715D02*
X212369Y139228D01*
X212714Y112008D02*
X224340D01*
X208852Y108147D02*
X212714Y112008D01*
X185203Y145443D02*
X192830Y137816D01*
X240873Y311548D02*
X241146Y311274D01*
X242146D01*
X238530Y311720D02*
X238703Y311548D01*
X240873D01*
X242146Y311274D02*
X246508Y315636D01*
X252243D01*
X42068Y207347D02*
Y215903D01*
X42114Y215949D01*
X42022Y207301D02*
X42068Y207347D01*
X227437Y145443D02*
X235257D01*
X235710Y145896D01*
X235954D01*
X79149Y246689D02*
Y254465D01*
X84871Y260188D02*
X85006D01*
X85280Y260462D01*
X79149Y254465D02*
X84871Y260188D01*
X231025Y248040D02*
Y254826D01*
D34*
X127253Y288306D02*
D03*
X121938D02*
D03*
D38*
X124988Y300979D02*
D03*
Y295861D02*
D03*
D164*
X321621Y43434D02*
X337625D01*
X340224Y40835D01*
X137927Y158368D02*
Y158557D01*
Y158368D02*
X138433Y157862D01*
X136276Y129725D02*
Y131841D01*
X128000Y140117D02*
X136276Y131841D01*
X138433Y149334D02*
Y157862D01*
X308473Y49289D02*
X308478Y49284D01*
X291561Y49294D02*
X291567Y49289D01*
X308473D01*
X260127Y50951D02*
X270300D01*
X270853Y51504D01*
X271042D01*
X212548Y64022D02*
X216849D01*
X210550Y59475D02*
X216091D01*
X219222Y56345D01*
X164463Y133740D02*
Y143953D01*
X164438Y143978D02*
X164463Y143953D01*
Y133740D02*
X164488Y133715D01*
X169905Y131781D02*
Y141830D01*
X170352Y142277D01*
Y142466D01*
X52115Y75578D02*
X52249Y75712D01*
Y77337D02*
X62484Y87572D01*
X52249Y75712D02*
Y77337D01*
X115227Y172223D02*
Y178498D01*
X115131Y178594D02*
X115227Y178498D01*
X115131Y178594D02*
Y184699D01*
X115172Y184739D01*
X78430Y89935D02*
X78506Y90010D01*
X72165Y89935D02*
X78430D01*
X193193Y117797D02*
X220863D01*
X221381Y118316D01*
X221571D01*
X314375Y118795D02*
Y126620D01*
X97908Y151858D02*
Y152047D01*
X97675Y143043D02*
Y151625D01*
X97908Y151858D01*
X216849Y64022D02*
X224836Y56035D01*
X260997Y56030D02*
X269535D01*
X314375Y118795D02*
X314696Y118474D01*
Y114371D02*
Y118474D01*
D169*
X263952Y77547D02*
Y88713D01*
Y77547D02*
X264595Y76905D01*
X336361Y81499D02*
X336469Y81606D01*
X328661Y81499D02*
X336361D01*
X321351Y81073D02*
X321621Y81343D01*
X309930Y81073D02*
X321351D01*
X66640Y68710D02*
Y75952D01*
X72214Y81525D02*
Y83629D01*
X66640Y75952D02*
X72214Y81525D01*
X66640Y68710D02*
X73363Y61987D01*
X73858D01*
X270082Y111726D02*
Y111825D01*
Y111726D02*
X276385Y105423D01*
Y91947D02*
Y105423D01*
X336989Y137321D02*
X345412D01*
X336788Y137120D02*
X336989Y137321D01*
D170*
X65007Y95825D02*
X73001Y103820D01*
X75483D01*
X124343Y301180D02*
X124555Y301392D01*
X119742Y301180D02*
X124343D01*
X295221Y181322D02*
X303331Y189432D01*
X309894D01*
X318957Y196027D02*
X324931Y202001D01*
Y212714D01*
X245760Y181322D02*
X269719D01*
X323793Y21679D02*
Y33405D01*
X323764Y33434D02*
X323793Y33405D01*
X368515Y114371D02*
X368749Y114605D01*
X359601Y114371D02*
X368515D01*
X336469Y123871D02*
X339827Y120512D01*
X330633Y123871D02*
X336469D01*
X266786Y131381D02*
X268555Y133151D01*
X266786Y125835D02*
Y131381D01*
X323157Y88401D02*
X323918Y87640D01*
X314375Y88401D02*
X323157D01*
X291561Y56035D02*
X291991Y55606D01*
X307534D01*
X192830Y64645D02*
X193193Y64282D01*
X192830Y64645D02*
Y72487D01*
D173*
X205927Y185508D02*
Y190985D01*
X208967Y194025D01*
X205927Y185508D02*
X206029Y185405D01*
X230490Y232144D02*
X230788D01*
X222588Y232681D02*
X229954D01*
X230490Y232144D01*
X222588Y236525D02*
X222642Y236471D01*
X230975D02*
X231029Y236417D01*
X222642Y236471D02*
X230975D01*
X99289Y276159D02*
X99436D01*
X109484Y276076D02*
X124175D01*
X109442Y276117D02*
X109484Y276076D01*
X124175D02*
X124216Y276034D01*
X127426Y281791D02*
X128017Y281200D01*
Y279452D02*
X128228Y279241D01*
X128017Y279452D02*
Y281200D01*
X127426Y281791D02*
Y287968D01*
X127425Y287969D02*
X127426Y287968D01*
X203307Y266840D02*
X203380Y266766D01*
X210482D01*
X207324Y245749D02*
Y261725D01*
X207191Y261858D02*
X207324Y261725D01*
X124988Y293445D02*
Y295861D01*
Y293445D02*
X126751Y291683D01*
Y289699D02*
Y291683D01*
Y289699D02*
X127553Y288897D01*
X120123Y296664D02*
X123753D01*
X124767Y295651D01*
X123940Y172228D02*
Y181610D01*
X126862Y258472D02*
X127024D01*
X122248Y263086D02*
X126862Y258472D01*
X122087Y263086D02*
X122248D01*
X152504Y154880D02*
Y159762D01*
X120157Y255262D02*
X122183Y253236D01*
X141723D01*
X208967Y194025D02*
X209265D01*
X228173Y227780D02*
Y227821D01*
Y227780D02*
X231817Y224136D01*
X204611Y243036D02*
X207324Y245749D01*
X198879Y263086D02*
Y278676D01*
X203633Y284252D02*
X217317D01*
X192413Y287705D02*
X208261D01*
X190357Y289760D02*
X192413Y287705D01*
X198883Y291736D02*
X199094Y291525D01*
X198883Y291736D02*
Y293581D01*
X197476Y294989D02*
X198883Y293581D01*
X190357Y294989D02*
X197476D01*
X173416Y212851D02*
X177364Y208903D01*
Y197010D02*
Y208903D01*
X173416Y212851D02*
Y215904D01*
X209434Y226940D02*
X222588D01*
X208514Y227563D02*
X208811D01*
X209434Y226940D01*
X200718Y240141D02*
Y242417D01*
X200992Y242691D01*
Y248333D01*
X204611Y235054D02*
Y243036D01*
X201558Y248899D02*
X202859Y250199D01*
Y251652D01*
X193193Y272961D02*
Y282122D01*
X194641Y283570D02*
Y283715D01*
X193193Y282122D02*
X194641Y283570D01*
X190695Y270463D02*
X193193Y272961D01*
X194682Y264870D02*
X194763Y264951D01*
Y269710D01*
X194844Y269791D01*
X190695Y262617D02*
Y270463D01*
X201558Y248899D02*
X201558D01*
X200992Y248333D02*
X201558Y248899D01*
X193193Y198691D02*
Y212267D01*
X190695Y214765D02*
X193193Y212267D01*
X274823Y178007D02*
Y189382D01*
X281191Y175062D02*
X281402Y174852D01*
X287121D01*
X164488Y224641D02*
X164551Y224704D01*
X189577D01*
X189639Y224766D01*
X168139Y171804D02*
Y181865D01*
X197723Y206380D02*
Y215803D01*
X123940Y172228D02*
X124119Y172049D01*
X134757Y171818D02*
X134968Y171607D01*
X129648Y178789D02*
X134757Y173680D01*
Y171818D02*
Y173680D01*
X182681Y151027D02*
Y155960D01*
X182647Y150993D02*
X182681Y151027D01*
X231817Y224136D02*
X236499D01*
X354902Y252205D02*
X354966Y252142D01*
Y239737D02*
X355029Y239673D01*
X123761Y181789D02*
X123940Y181610D01*
D174*
X302428Y181800D02*
X305390Y184763D01*
X313891D01*
D175*
X354966Y239737D02*
Y252142D01*
D176*
X86284Y197829D02*
Y204759D01*
X84652Y196197D02*
X86284Y197829D01*
D178*
X325066Y72331D02*
D03*
D179*
X75381D02*
D03*
X292704Y9339D02*
D03*
D180*
X358426Y174964D02*
D03*
Y154964D02*
D03*
X359331Y65904D02*
D03*
Y85904D02*
D03*
Y105904D02*
D03*
Y125904D02*
D03*
X362732Y39615D02*
D03*
Y19615D02*
D03*
X173341Y13207D02*
D03*
X153341D02*
D03*
D181*
X179737Y126072D02*
D03*
X169737D02*
D03*
D182*
X159737D02*
D03*
D183*
X111087Y28716D02*
D03*
D184*
X92583Y16905D02*
D03*
D185*
Y40527D02*
D03*
D186*
X17109Y248160D02*
D03*
D187*
Y238160D02*
D03*
Y228160D02*
D03*
D188*
X200824Y201340D02*
D03*
D189*
X205824D02*
D03*
X200824Y196340D02*
D03*
X205824D02*
D03*
X200824Y191340D02*
D03*
X205824D02*
D03*
D190*
X170358Y194871D02*
D03*
Y189871D02*
D03*
X165358Y194871D02*
D03*
Y189871D02*
D03*
X160358Y194871D02*
D03*
Y189871D02*
D03*
X155358Y194871D02*
D03*
Y189871D02*
D03*
X150358Y194871D02*
D03*
Y189871D02*
D03*
D191*
X110724Y235565D02*
D03*
X321621Y43434D02*
D03*
X108239Y70062D02*
D03*
X103790D02*
D03*
X52115Y75578D02*
D03*
X144682Y179021D02*
D03*
X144486Y173291D02*
D03*
X242478Y247540D02*
D03*
X192062Y97597D02*
D03*
X205263D02*
D03*
X80964Y201451D02*
D03*
X85113Y285392D02*
D03*
X212439Y178940D02*
D03*
X206029Y185405D02*
D03*
X200929Y184729D02*
D03*
X302428Y181800D02*
D03*
X230788Y232144D02*
D03*
X231029Y236417D02*
D03*
X100662Y281732D02*
D03*
X97791Y291062D02*
D03*
X79048Y290893D02*
D03*
X64653Y260836D02*
D03*
X42362Y256362D02*
D03*
X38269Y246356D02*
D03*
X38352Y241080D02*
D03*
X99436Y276159D02*
D03*
X109442Y276117D02*
D03*
X124216Y276034D02*
D03*
X128228Y279241D02*
D03*
X337738Y271611D02*
D03*
X203307Y266840D02*
D03*
X207191Y261858D02*
D03*
X120123Y296664D02*
D03*
X119742Y301180D02*
D03*
X141947Y165419D02*
D03*
X204532Y111622D02*
D03*
X137197Y202197D02*
D03*
X111694Y194769D02*
D03*
X132599Y200769D02*
D03*
X127757Y196196D02*
D03*
X343172Y261299D02*
D03*
X331280Y247286D02*
D03*
Y230235D02*
D03*
X127024Y258472D02*
D03*
X152504Y154880D02*
D03*
X137927Y158557D02*
D03*
X99305Y169153D02*
D03*
X88849Y168591D02*
D03*
X85807Y168767D02*
D03*
X93676Y169153D02*
D03*
X192830Y122374D02*
D03*
X192673Y111610D02*
D03*
X142804Y131391D02*
D03*
X134968Y141392D02*
D03*
X128000Y140117D02*
D03*
X132366Y151739D02*
D03*
X131750Y158853D02*
D03*
X78206Y193758D02*
D03*
X86284Y204759D02*
D03*
X84652Y196197D02*
D03*
X106387Y165786D02*
D03*
Y162794D02*
D03*
Y168624D02*
D03*
X105694Y203121D02*
D03*
X122087Y263086D02*
D03*
X134288Y237400D02*
D03*
Y244037D02*
D03*
X141723Y253236D02*
D03*
X121432Y220282D02*
D03*
X205047Y170357D02*
D03*
X214839Y182919D02*
D03*
X219964Y164879D02*
D03*
X221381Y169385D02*
D03*
X212369Y143978D02*
D03*
X206856Y133715D02*
D03*
X208852Y108147D02*
D03*
X216888Y189382D02*
D03*
X214232Y217778D02*
D03*
X220256Y223890D02*
D03*
X228173Y227821D02*
D03*
X222588Y236525D02*
D03*
X219230Y247555D02*
D03*
X223523Y302290D02*
D03*
X194213Y301790D02*
D03*
X185203Y145443D02*
D03*
X224340Y112008D02*
D03*
X175762Y87802D02*
D03*
X175956Y84394D02*
D03*
X169905Y64022D02*
D03*
Y60883D02*
D03*
X172660D02*
D03*
X172729Y64022D02*
D03*
X155716Y36248D02*
D03*
X183685Y184505D02*
D03*
X238530Y311720D02*
D03*
X252243Y315636D02*
D03*
X90024Y85956D02*
D03*
Y82992D02*
D03*
X98325Y70118D02*
D03*
X98237Y72997D02*
D03*
X98137Y76043D02*
D03*
X97819Y78997D02*
D03*
X93676Y82992D02*
D03*
X93741Y86221D02*
D03*
X93676Y90367D02*
D03*
X237059Y244239D02*
D03*
X211820Y247547D02*
D03*
X198879Y278676D02*
D03*
X203633Y284252D02*
D03*
X210482Y266766D02*
D03*
X208261Y287705D02*
D03*
X217317Y277712D02*
D03*
Y284252D02*
D03*
X199094Y291525D02*
D03*
X190357Y289760D02*
D03*
Y294989D02*
D03*
X209265Y194025D02*
D03*
X183991Y173167D02*
D03*
X177364Y197010D02*
D03*
X173416Y215904D02*
D03*
X180698Y199997D02*
D03*
X173533Y199696D02*
D03*
X179695Y229902D02*
D03*
X209265Y199997D02*
D03*
X208514Y227563D02*
D03*
X222588Y226940D02*
D03*
X209367Y237400D02*
D03*
X200718Y240141D02*
D03*
X204611Y235054D02*
D03*
X202859Y251652D02*
D03*
X194641Y283715D02*
D03*
X198879Y263086D02*
D03*
X208514Y291525D02*
D03*
X194844Y269791D02*
D03*
X194682Y264870D02*
D03*
X190695Y262617D02*
D03*
Y214765D02*
D03*
X193193Y198691D02*
D03*
X274823Y189382D02*
D03*
Y178007D02*
D03*
X281191Y175062D02*
D03*
X287121Y174852D02*
D03*
X309894Y189432D02*
D03*
X42114Y215949D02*
D03*
X85280Y245290D02*
D03*
X89128Y256282D02*
D03*
X91239Y279292D02*
D03*
X136538Y218794D02*
D03*
X133670Y225747D02*
D03*
X136794Y208440D02*
D03*
X153510Y199997D02*
D03*
X156111Y203615D02*
D03*
X167280Y199997D02*
D03*
X171360Y229474D02*
D03*
X164488Y224641D02*
D03*
X159737Y218794D02*
D03*
X156111Y213131D02*
D03*
X159737Y199997D02*
D03*
X104161Y231013D02*
D03*
X102653Y218794D02*
D03*
X102376Y209551D02*
D03*
X111468Y206380D02*
D03*
X115858Y208943D02*
D03*
X149282Y208126D02*
D03*
X168139Y171804D02*
D03*
Y181865D02*
D03*
X176556D02*
D03*
X42022Y207301D02*
D03*
X120157Y255262D02*
D03*
X189639Y224766D02*
D03*
X197723Y206380D02*
D03*
Y215803D02*
D03*
X224837Y242360D02*
D03*
X152504Y159762D02*
D03*
X168814Y215904D02*
D03*
X174768Y172223D02*
D03*
X164438Y168767D02*
D03*
X166588Y155387D02*
D03*
X158303Y168624D02*
D03*
X138433Y149334D02*
D03*
X124119Y172049D02*
D03*
X134968Y171607D02*
D03*
X163294Y215803D02*
D03*
X177313Y215904D02*
D03*
X215313Y236525D02*
D03*
X217551Y233111D02*
D03*
X222588Y232681D02*
D03*
X236499Y224136D02*
D03*
X256826Y225903D02*
D03*
X267328Y224766D02*
D03*
X263247D02*
D03*
X259541D02*
D03*
X246548Y233785D02*
D03*
X226330Y269791D02*
D03*
X235954Y145896D02*
D03*
X227437Y145443D02*
D03*
X324931Y212714D02*
D03*
X318957Y196027D02*
D03*
X295221Y181322D02*
D03*
X269719D02*
D03*
X245760D02*
D03*
X313891Y184763D02*
D03*
X355029Y239673D02*
D03*
X354902Y252205D02*
D03*
X254614Y198655D02*
D03*
X265568Y192607D02*
D03*
X308478Y49284D02*
D03*
X291561Y49294D02*
D03*
X323793Y21679D02*
D03*
X271042Y51504D02*
D03*
X260127Y50951D02*
D03*
X263952Y88713D02*
D03*
X264595Y76905D02*
D03*
X212548Y64022D02*
D03*
X219222Y56345D02*
D03*
X210550Y59475D02*
D03*
X144446Y146437D02*
D03*
X164488Y133715D02*
D03*
X164438Y143978D02*
D03*
X169905Y131781D02*
D03*
X170352Y142466D02*
D03*
X336469Y81606D02*
D03*
X328661Y81499D02*
D03*
X321621Y81343D02*
D03*
X309930Y81073D02*
D03*
X62484Y87572D02*
D03*
X73858Y61987D02*
D03*
X72214Y83629D02*
D03*
X129648Y178789D02*
D03*
X123848Y181314D02*
D03*
X79149Y246689D02*
D03*
X99292Y218996D02*
D03*
X75254Y129725D02*
D03*
X115227Y172223D02*
D03*
X115172Y184739D02*
D03*
X70389Y120085D02*
D03*
X78506Y90010D02*
D03*
X72165Y89935D02*
D03*
X136276Y129725D02*
D03*
X221571Y118316D02*
D03*
X193193Y117797D02*
D03*
X270082Y111825D02*
D03*
X276385Y91947D02*
D03*
X323764Y33434D02*
D03*
X368749Y114605D02*
D03*
X359601Y114371D02*
D03*
X339827Y120512D02*
D03*
X330633Y123871D02*
D03*
X336788Y137120D02*
D03*
X345412Y137321D02*
D03*
X314375Y126620D02*
D03*
X268555Y133151D02*
D03*
X266786Y125835D02*
D03*
X97908Y152047D02*
D03*
X97675Y143043D02*
D03*
X224836Y56035D02*
D03*
X260997Y56030D02*
D03*
X269535D02*
D03*
X314375Y88401D02*
D03*
X323918Y87640D02*
D03*
X291561Y56035D02*
D03*
X307534Y55606D02*
D03*
X314696Y114371D02*
D03*
X5305Y158206D02*
D03*
X85113Y276525D02*
D03*
X85280Y260462D02*
D03*
X231025Y248040D02*
D03*
Y254826D02*
D03*
D192*
X20630Y35641D02*
D03*
X41559Y36665D02*
D03*
X30297Y53486D02*
D03*
X32339Y36080D02*
D03*
X42157Y46672D02*
D03*
X14756Y96075D02*
D03*
X23185D02*
D03*
X29735Y83833D02*
D03*
X29848Y77651D02*
D03*
X29847Y71582D02*
D03*
Y65512D02*
D03*
X30072Y59668D02*
D03*
X20406Y53599D02*
D03*
X20294Y59780D02*
D03*
X20631Y65625D02*
D03*
X20182Y71357D02*
D03*
X19844Y77652D02*
D03*
X20294Y83945D02*
D03*
X9729Y84057D02*
D03*
X10291Y78213D02*
D03*
X9954Y71694D02*
D03*
X9954Y65737D02*
D03*
Y59443D02*
D03*
Y53486D02*
D03*
X32022Y95621D02*
D03*
X26648Y101273D02*
D03*
X18516Y100997D02*
D03*
X10108D02*
D03*
X42774Y83629D02*
D03*
X101174Y26683D02*
D03*
X92905Y26269D02*
D03*
X83532Y26820D02*
D03*
X112891Y13174D02*
D03*
X107653Y6421D02*
D03*
X96213D02*
D03*
X85875Y6145D02*
D03*
X75537D02*
D03*
Y15931D02*
D03*
X74710Y26820D02*
D03*
X65475Y26682D02*
D03*
X66302Y15242D02*
D03*
X66164Y5731D02*
D03*
X10970Y35933D02*
D03*
X19966Y25834D02*
D03*
X31089Y25102D02*
D03*
X10530Y25834D02*
D03*
X42428D02*
D03*
X55826Y5731D02*
D03*
X55454Y26273D02*
D03*
X54948Y15098D02*
D03*
X43876Y4801D02*
D03*
X31142Y15632D02*
D03*
X76112Y153276D02*
D03*
X66313D02*
D03*
X55238Y188206D02*
D03*
X42561Y75389D02*
D03*
X42359Y66450D02*
D03*
X42561Y56965D02*
D03*
X43093Y15098D02*
D03*
X19433D02*
D03*
X10402D02*
D03*
X30502Y4292D02*
D03*
X20311D02*
D03*
X9665D02*
D03*
D193*
X18308Y299765D02*
D03*
X18196Y291504D02*
D03*
X18140Y282400D02*
D03*
X18196Y274251D02*
D03*
X263550Y299002D02*
D03*
X270360Y298932D02*
D03*
X310302Y265507D02*
D03*
X310579Y272317D02*
D03*
X303771Y272316D02*
D03*
X310371Y279055D02*
D03*
X303632Y278847D02*
D03*
X303700Y285726D02*
D03*
X310579Y285518D02*
D03*
X250363Y265438D02*
D03*
X257104Y272246D02*
D03*
X250295Y272455D02*
D03*
X256895Y279125D02*
D03*
X250434Y278777D02*
D03*
X257104Y285656D02*
D03*
X271555Y284127D02*
D03*
X250434Y285586D02*
D03*
X38548Y274869D02*
D03*
X336703Y267509D02*
D03*
X328072Y278223D02*
D03*
X219964Y195844D02*
D03*
X289068Y304942D02*
D03*
X220256Y209495D02*
D03*
Y214141D02*
D03*
X232812Y194173D02*
D03*
X228275Y194032D02*
D03*
X223331Y194050D02*
D03*
X220256Y200919D02*
D03*
X220525Y205860D02*
D03*
X220256Y217778D02*
D03*
X275683Y304942D02*
D03*
X282376D02*
D03*
X331897Y267509D02*
D03*
X327963Y270465D02*
D03*
X317320Y264753D02*
D03*
X317407Y270178D02*
D03*
X257367Y317946D02*
D03*
X291890Y284127D02*
D03*
X285400Y284468D02*
D03*
X278033D02*
D03*
X271905Y277712D02*
D03*
X278320D02*
D03*
X285160D02*
D03*
X291801D02*
D03*
X319327Y317826D02*
D03*
X328004D02*
D03*
X269539Y252764D02*
D03*
X264137D02*
D03*
X259417Y253076D02*
D03*
X254643Y253477D02*
D03*
X250445Y253076D02*
D03*
X246114D02*
D03*
X246143Y257130D02*
D03*
X246114Y262218D02*
D03*
Y267090D02*
D03*
Y272208D02*
D03*
X334055Y306711D02*
D03*
X340272D02*
D03*
X347536D02*
D03*
X353850D02*
D03*
X317359Y253869D02*
D03*
X317231Y258651D02*
D03*
X310402Y258509D02*
D03*
Y253869D02*
D03*
Y246957D02*
D03*
X23757Y282746D02*
D03*
X24097Y274869D02*
D03*
Y291460D02*
D03*
Y299869D02*
D03*
X24639Y308660D02*
D03*
X31022Y282746D02*
D03*
X31361Y299869D02*
D03*
Y291460D02*
D03*
Y274869D02*
D03*
X31904Y308660D02*
D03*
X38208Y282746D02*
D03*
X38548Y299869D02*
D03*
Y291460D02*
D03*
X39090Y308660D02*
D03*
X46193Y274869D02*
D03*
X53016D02*
D03*
X45854Y282746D02*
D03*
X52677D02*
D03*
X46193Y291460D02*
D03*
X53016D02*
D03*
X46193Y299869D02*
D03*
X53016D02*
D03*
X46736Y308660D02*
D03*
X53558D02*
D03*
X317495Y275635D02*
D03*
X333598Y311274D02*
D03*
X340239D02*
D03*
X347079D02*
D03*
X353494D02*
D03*
X333937Y316972D02*
D03*
X340577D02*
D03*
X347417D02*
D03*
X353832D02*
D03*
X245760Y277712D02*
D03*
X262480Y317946D02*
D03*
X251876Y303378D02*
D03*
X245760Y284127D02*
D03*
Y290967D02*
D03*
X245462Y303378D02*
D03*
X258717D02*
D03*
X245760Y297608D02*
D03*
X271555Y271759D02*
D03*
X283984Y246957D02*
D03*
X290399D02*
D03*
X277970Y271759D02*
D03*
X346387Y216374D02*
D03*
Y220137D02*
D03*
Y224237D02*
D03*
X304663Y246957D02*
D03*
X317918D02*
D03*
X298022D02*
D03*
X291451Y271759D02*
D03*
X282376Y317946D02*
D03*
X275960D02*
D03*
X265357Y303378D02*
D03*
X291114Y317946D02*
D03*
X284810Y271759D02*
D03*
X297754Y317946D02*
D03*
X269120D02*
D03*
X304594D02*
D03*
X311009D02*
D03*
X317495Y295531D02*
D03*
Y289116D02*
D03*
Y282276D02*
D03*
D194*
X171209Y248054D02*
D03*
X179664Y266494D02*
D03*
X104204Y289016D02*
D03*
X120168Y306799D02*
D03*
X133742Y306726D02*
D03*
X121586Y280527D02*
D03*
X121512Y284114D02*
D03*
X105961Y285797D02*
D03*
X110279Y285760D02*
D03*
X136794Y295268D02*
D03*
X126754Y306690D02*
D03*
X212471Y165901D02*
D03*
X189421Y306572D02*
D03*
X108523Y289017D02*
D03*
X123351Y306690D02*
D03*
X130376Y306799D02*
D03*
X168691Y288203D02*
D03*
X163015Y287862D02*
D03*
X158413D02*
D03*
X153662D02*
D03*
X148529Y288203D02*
D03*
X142862D02*
D03*
X137164D02*
D03*
X167482Y270159D02*
D03*
X168383Y276131D02*
D03*
X168075Y281328D02*
D03*
X163015Y270424D02*
D03*
Y276131D02*
D03*
X162810Y281328D02*
D03*
X158413Y270424D02*
D03*
Y275907D02*
D03*
Y281328D02*
D03*
X154282Y270424D02*
D03*
Y275750D02*
D03*
Y281328D02*
D03*
X332512Y160301D02*
D03*
X332530Y165880D02*
D03*
X269027Y160676D02*
D03*
X269281Y158007D02*
D03*
X264340Y157723D02*
D03*
X264297Y164087D02*
D03*
X260205Y158007D02*
D03*
X255309Y157952D02*
D03*
X250029D02*
D03*
X244909Y158007D02*
D03*
X240486Y157845D02*
D03*
X209053Y163231D02*
D03*
X202095Y162794D02*
D03*
X178088Y251563D02*
D03*
X174753Y251076D02*
D03*
X178088Y254133D02*
D03*
X174717Y253924D02*
D03*
X177960Y256728D02*
D03*
X174459D02*
D03*
X171244Y250798D02*
D03*
X171175Y253890D02*
D03*
X171052Y256589D02*
D03*
X179212Y276707D02*
D03*
X65409Y231018D02*
D03*
X46736D02*
D03*
X61257Y238640D02*
D03*
X58533Y235181D02*
D03*
X63867D02*
D03*
X50282Y231018D02*
D03*
X54561D02*
D03*
X58633D02*
D03*
X61917D02*
D03*
X68971Y232671D02*
D03*
Y236333D02*
D03*
X68789Y239956D02*
D03*
X68526Y243485D02*
D03*
X83199Y231525D02*
D03*
X99292Y215904D02*
D03*
X93304Y219983D02*
D03*
X86284Y231525D02*
D03*
X208852Y166025D02*
D03*
X332512Y163072D02*
D03*
X202095Y166044D02*
D03*
X179019Y165901D02*
D03*
X205739Y166025D02*
D03*
X274509Y162489D02*
D03*
X264297Y160591D02*
D03*
X240386Y161845D02*
D03*
X250044Y161646D02*
D03*
X255265D02*
D03*
X244960Y161778D02*
D03*
X259894Y161779D02*
D03*
X143770Y275817D02*
D03*
X149282Y281328D02*
D03*
X138259Y270305D02*
D03*
X149282D02*
D03*
Y275817D02*
D03*
X143770Y270305D02*
D03*
Y281328D02*
D03*
X138259Y275817D02*
D03*
Y281328D02*
D03*
X176882Y306360D02*
D03*
X173004Y306433D02*
D03*
X174766Y266812D02*
D03*
Y270410D02*
D03*
Y274666D02*
D03*
Y279017D02*
D03*
Y283715D02*
D03*
Y288046D02*
D03*
X169091Y295013D02*
D03*
X163106Y295150D02*
D03*
X158177Y295077D02*
D03*
X152467D02*
D03*
X147299D02*
D03*
X142166Y295268D02*
D03*
X168886Y302290D02*
D03*
X163106Y302356D02*
D03*
X157395Y302425D02*
D03*
X152228Y302391D02*
D03*
X147094D02*
D03*
X141723Y302357D02*
D03*
X136929Y302357D02*
D03*
D195*
X75483Y103820D02*
D03*
X65007Y95825D02*
D03*
D196*
X373286Y282413D02*
D03*
X374860Y279264D02*
D03*
X373286Y276114D02*
D03*
X374860Y272964D02*
D03*
X373286Y269815D02*
D03*
X374860Y266665D02*
D03*
X373286Y263516D02*
D03*
X374860Y260366D02*
D03*
X373286Y257216D02*
D03*
X374860Y254067D02*
D03*
X373286Y244618D02*
D03*
X374860Y235169D02*
D03*
X373286Y232019D02*
D03*
X374860Y228870D02*
D03*
X373286Y225720D02*
D03*
X374860Y222571D02*
D03*
X373286Y219421D02*
D03*
X374860Y216271D02*
D03*
X373286Y213122D02*
D03*
X374860Y209972D02*
D03*
X373286Y206823D02*
D03*
X370136Y282413D02*
D03*
X371711Y279264D02*
D03*
X370136Y276114D02*
D03*
X371711Y272964D02*
D03*
X370136Y269815D02*
D03*
X371711Y266665D02*
D03*
X370136Y263516D02*
D03*
X371711Y260366D02*
D03*
X370136Y257216D02*
D03*
X371711Y254067D02*
D03*
X370136Y244618D02*
D03*
X371711Y235169D02*
D03*
X370136Y232019D02*
D03*
X371711Y228870D02*
D03*
X370136Y225720D02*
D03*
X371711Y222571D02*
D03*
X370136Y219421D02*
D03*
X371711Y216271D02*
D03*
X370136Y213122D02*
D03*
X371711Y209972D02*
D03*
X370136Y206823D02*
D03*
X366986Y282413D02*
D03*
X368561Y279264D02*
D03*
X366986Y276114D02*
D03*
X368561Y272964D02*
D03*
X366986Y269815D02*
D03*
X368561Y266665D02*
D03*
X366986Y263516D02*
D03*
X368561Y260366D02*
D03*
X366986Y257216D02*
D03*
X368561Y254067D02*
D03*
Y235169D02*
D03*
X366986Y232019D02*
D03*
X368561Y228870D02*
D03*
X366986Y225720D02*
D03*
X368561Y222571D02*
D03*
X366986Y219421D02*
D03*
X368561Y216271D02*
D03*
X366986Y213122D02*
D03*
X368561Y209972D02*
D03*
X366986Y206823D02*
D03*
X363837Y282413D02*
D03*
X365411Y279264D02*
D03*
X363837Y276114D02*
D03*
X365411Y272964D02*
D03*
X363837Y269815D02*
D03*
X365411Y266665D02*
D03*
X363837Y263516D02*
D03*
X365411Y260366D02*
D03*
X363837Y257216D02*
D03*
X365411Y254067D02*
D03*
X363837Y250917D02*
D03*
Y238319D02*
D03*
X365411Y235169D02*
D03*
X363837Y232019D02*
D03*
X365411Y228870D02*
D03*
X363837Y225720D02*
D03*
X365411Y222571D02*
D03*
X363837Y219421D02*
D03*
X365411Y216271D02*
D03*
X363837Y213122D02*
D03*
X365411Y209972D02*
D03*
X363837Y206823D02*
D03*
X360687Y282413D02*
D03*
X362262Y279264D02*
D03*
X360687Y276114D02*
D03*
X362262Y272964D02*
D03*
X360687Y269815D02*
D03*
X362262Y266665D02*
D03*
X360687Y263516D02*
D03*
X362262Y260366D02*
D03*
X360687Y257216D02*
D03*
X362262Y254067D02*
D03*
X360687Y250917D02*
D03*
X362262Y247767D02*
D03*
Y241468D02*
D03*
X360687Y238319D02*
D03*
X362262Y235169D02*
D03*
X360687Y232019D02*
D03*
X362262Y228870D02*
D03*
X360687Y225720D02*
D03*
X362262Y222571D02*
D03*
X360687Y219421D02*
D03*
X362262Y216271D02*
D03*
X360687Y213122D02*
D03*
X362262Y209972D02*
D03*
X360687Y206823D02*
D03*
X359112Y272964D02*
D03*
X357537Y269815D02*
D03*
X359112Y266665D02*
D03*
X357537Y263516D02*
D03*
X359112Y260366D02*
D03*
X357537Y257216D02*
D03*
X359112Y254067D02*
D03*
X357537Y250917D02*
D03*
X359112Y247767D02*
D03*
Y241468D02*
D03*
X357537Y238319D02*
D03*
X359112Y235169D02*
D03*
X357537Y232019D02*
D03*
X355963Y272964D02*
D03*
X354388Y269815D02*
D03*
X355963Y266665D02*
D03*
X354388Y263516D02*
D03*
X355963Y260366D02*
D03*
X352813Y272964D02*
D03*
X351238Y269815D02*
D03*
X352813Y266665D02*
D03*
X351238Y263516D02*
D03*
X352813Y260366D02*
D03*
X351238Y250917D02*
D03*
Y238319D02*
D03*
X352813Y235169D02*
D03*
X351238Y232019D02*
D03*
X348089Y263516D02*
D03*
X349663Y260366D02*
D03*
Y254067D02*
D03*
X348089Y238319D02*
D03*
X349663Y235169D02*
D03*
X348089Y232019D02*
D03*
X346514Y260366D02*
D03*
X344939Y238319D02*
D03*
X346514Y235169D02*
D03*
X344939Y232019D02*
D03*
X343364Y247767D02*
D03*
X341789Y238319D02*
D03*
X343364Y235169D02*
D03*
X341789Y232019D02*
D03*
X338640Y257216D02*
D03*
X340215Y247767D02*
D03*
Y235169D02*
D03*
X338640Y232019D02*
D03*
X335490Y257216D02*
D03*
X337065Y247767D02*
D03*
Y235169D02*
D03*
X333915Y254067D02*
D03*
X329191Y238319D02*
D03*
X327616Y247767D02*
D03*
X326041Y244618D02*
D03*
X322892D02*
D03*
X319742D02*
D03*
X316593D02*
D03*
X315018Y247767D02*
D03*
X313443Y244618D02*
D03*
X182681Y155960D02*
D03*
X185552Y158557D02*
D03*
X193193Y157707D02*
D03*
X182647Y150993D02*
D03*
D197*
X174688Y157536D02*
D03*
X174557Y159813D02*
D03*
X178181Y161166D02*
D03*
X174557Y154846D02*
D03*
X174676Y152378D02*
D03*
X174768Y150127D02*
D03*
D198*
X325110Y62648D02*
D03*
X7221Y175708D02*
D03*
D199*
X27862Y40835D02*
D03*
X340224D02*
D03*
D200*
X194213Y301790D02*
X222672D01*
X223171Y302290D01*
X223523D01*
M02*
