G04*
G04 #@! TF.GenerationSoftware,Altium Limited,Altium Designer,21.3.2 (30)*
G04*
G04 Layer_Color=8421504*
%FSLAX25Y25*%
%MOIN*%
G70*
G04*
G04 #@! TF.SameCoordinates,C802B3A6-08BF-4FCB-9CCF-05BD449E4A77*
G04*
G04*
G04 #@! TF.FilePolarity,Positive*
G04*
G01*
G75*
%ADD20C,0.01595*%
%ADD21R,0.12008X0.04000*%
%ADD22R,0.07087X0.02756*%
%ADD23R,0.02756X0.07087*%
%ADD24R,0.04449X0.09606*%
%ADD25R,0.03937X0.05512*%
%ADD26R,0.13800X0.04100*%
%ADD27R,0.30300X0.24700*%
%ADD28R,0.06000X0.02200*%
%ADD29R,0.04900X0.03800*%
%ADD30R,0.06102X0.08858*%
%ADD31R,0.02520X0.02362*%
%ADD32R,0.05118X0.05512*%
%ADD33R,0.16535X0.05906*%
%ADD34R,0.03543X0.03937*%
%ADD35R,0.10236X0.04173*%
%ADD36R,0.22441X0.22173*%
%ADD37R,0.03347X0.03740*%
%ADD38R,0.03740X0.03347*%
%ADD39R,0.02200X0.06000*%
%ADD40R,0.02953X0.02362*%
%ADD41R,0.02362X0.02953*%
%ADD42R,0.01968X0.01575*%
%ADD43R,0.03543X0.04724*%
%ADD44R,0.05709X0.04724*%
%ADD45R,0.12205X0.19685*%
%ADD46R,0.02362X0.02520*%
G04:AMPARAMS|DCode=47|XSize=29.92mil|YSize=8.66mil|CornerRadius=1.08mil|HoleSize=0mil|Usage=FLASHONLY|Rotation=90.000|XOffset=0mil|YOffset=0mil|HoleType=Round|Shape=RoundedRectangle|*
%AMROUNDEDRECTD47*
21,1,0.02992,0.00650,0,0,90.0*
21,1,0.02776,0.00866,0,0,90.0*
1,1,0.00217,0.00325,0.01388*
1,1,0.00217,0.00325,-0.01388*
1,1,0.00217,-0.00325,-0.01388*
1,1,0.00217,-0.00325,0.01388*
%
%ADD47ROUNDEDRECTD47*%
%ADD48R,0.02097X0.05728*%
%ADD49R,0.04331X0.01575*%
%ADD50R,0.16535X0.08661*%
%ADD51R,0.03937X0.03543*%
%ADD52R,0.06004X0.02756*%
G04:AMPARAMS|DCode=53|XSize=46.85mil|YSize=15.75mil|CornerRadius=1.97mil|HoleSize=0mil|Usage=FLASHONLY|Rotation=180.000|XOffset=0mil|YOffset=0mil|HoleType=Round|Shape=RoundedRectangle|*
%AMROUNDEDRECTD53*
21,1,0.04685,0.01181,0,0,180.0*
21,1,0.04291,0.01575,0,0,180.0*
1,1,0.00394,-0.02146,0.00591*
1,1,0.00394,0.02146,0.00591*
1,1,0.00394,0.02146,-0.00591*
1,1,0.00394,-0.02146,-0.00591*
%
%ADD53ROUNDEDRECTD53*%
%ADD54R,0.02362X0.01968*%
%ADD55R,0.02756X0.06004*%
%ADD56R,0.17913X0.09055*%
%ADD57R,0.05906X0.16535*%
%ADD58R,0.01575X0.01968*%
%ADD59R,0.03937X0.06299*%
%ADD60R,0.02953X0.00787*%
%ADD61R,0.05512X0.05118*%
%ADD62R,0.04173X0.10236*%
%ADD63R,0.22173X0.22441*%
%ADD64R,0.10630X0.05118*%
%ADD65R,0.03543X0.03150*%
%ADD66R,0.03150X0.03543*%
%ADD67R,0.05906X0.03543*%
%ADD68R,0.03543X0.03543*%
%ADD69R,0.02362X0.01378*%
%ADD70R,0.08661X0.04134*%
%ADD71R,0.04134X0.03937*%
%ADD72R,0.03543X0.00787*%
%ADD73R,0.12992X0.05118*%
%ADD74R,0.05118X0.12992*%
%ADD75R,0.02756X0.03937*%
G04:AMPARAMS|DCode=76|XSize=61.81mil|YSize=16.14mil|CornerRadius=2.02mil|HoleSize=0mil|Usage=FLASHONLY|Rotation=90.000|XOffset=0mil|YOffset=0mil|HoleType=Round|Shape=RoundedRectangle|*
%AMROUNDEDRECTD76*
21,1,0.06181,0.01211,0,0,90.0*
21,1,0.05778,0.01614,0,0,90.0*
1,1,0.00404,0.00605,0.02889*
1,1,0.00404,0.00605,-0.02889*
1,1,0.00404,-0.00605,-0.02889*
1,1,0.00404,-0.00605,0.02889*
%
%ADD76ROUNDEDRECTD76*%
%ADD77R,0.02756X0.03543*%
%ADD78R,0.01575X0.03543*%
%ADD79R,0.00709X0.00984*%
%ADD80R,0.05118X0.10630*%
%ADD81R,0.02126X0.02362*%
%ADD82R,0.05315X0.04528*%
G36*
X319441Y313646D02*
X319465D01*
X319485Y313642D01*
X319504Y313638D01*
X319524Y313630D01*
X319544Y313622D01*
X319563Y313614D01*
X319579Y313606D01*
X319599Y313598D01*
X319615Y313586D01*
X319634Y313575D01*
X319650Y313563D01*
X319666Y313547D01*
X319682Y313535D01*
X319693Y313520D01*
X319709Y313504D01*
X319721Y313488D01*
X319733Y313468D01*
X319744Y313453D01*
X319752Y313433D01*
X319760Y313417D01*
X319768Y313398D01*
X319776Y313378D01*
X319784Y313358D01*
X319788Y313338D01*
X319792Y313319D01*
Y313295D01*
X319796Y313275D01*
Y310165D01*
X319792Y310145D01*
Y310122D01*
X319788Y310102D01*
X319784Y310083D01*
X319776Y310063D01*
X319768Y310043D01*
X319760Y310023D01*
X319752Y310008D01*
X319744Y309988D01*
X319733Y309972D01*
X319721Y309953D01*
X319709Y309937D01*
X319693Y309921D01*
X319682Y309905D01*
X319666Y309893D01*
X319650Y309878D01*
X319634Y309866D01*
X319615Y309854D01*
X319599Y309842D01*
X319579Y309835D01*
X319563Y309827D01*
X319544Y309819D01*
X319524Y309811D01*
X319504Y309803D01*
X319485Y309799D01*
X319465Y309795D01*
X319441D01*
X319422Y309791D01*
X317689D01*
X317670Y309795D01*
X317646D01*
X317626Y309799D01*
X317607Y309803D01*
X317587Y309811D01*
X317567Y309819D01*
X317548Y309827D01*
X317532Y309835D01*
X317512Y309842D01*
X317496Y309854D01*
X317477Y309866D01*
X317461Y309878D01*
X317445Y309893D01*
X317429Y309905D01*
X317418Y309921D01*
X317402Y309937D01*
X317390Y309953D01*
X317378Y309972D01*
X317367Y309988D01*
X317359Y310008D01*
X317351Y310023D01*
X317343Y310043D01*
X317335Y310063D01*
X317327Y310083D01*
X317323Y310102D01*
X317319Y310122D01*
Y310145D01*
X317315Y310165D01*
Y313275D01*
X317319Y313295D01*
Y313319D01*
X317323Y313338D01*
X317327Y313358D01*
X317335Y313378D01*
X317343Y313398D01*
X317351Y313417D01*
X317359Y313433D01*
X317367Y313453D01*
X317378Y313468D01*
X317390Y313488D01*
X317402Y313504D01*
X317418Y313520D01*
X317429Y313535D01*
X317445Y313547D01*
X317461Y313563D01*
X317477Y313575D01*
X317496Y313586D01*
X317512Y313598D01*
X317532Y313606D01*
X317548Y313614D01*
X317567Y313622D01*
X317587Y313630D01*
X317607Y313638D01*
X317626Y313642D01*
X317646Y313646D01*
X317670D01*
X317689Y313649D01*
X319422D01*
X319441Y313646D01*
D02*
G37*
G36*
X315111D02*
X315134D01*
X315154Y313642D01*
X315174Y313638D01*
X315193Y313630D01*
X315213Y313622D01*
X315233Y313614D01*
X315248Y313606D01*
X315268Y313598D01*
X315284Y313586D01*
X315304Y313575D01*
X315319Y313563D01*
X315335Y313547D01*
X315351Y313535D01*
X315363Y313520D01*
X315378Y313504D01*
X315390Y313488D01*
X315402Y313468D01*
X315414Y313453D01*
X315422Y313433D01*
X315429Y313417D01*
X315437Y313398D01*
X315445Y313378D01*
X315453Y313358D01*
X315457Y313338D01*
X315461Y313319D01*
Y313295D01*
X315465Y313275D01*
Y310165D01*
X315461Y310145D01*
Y310122D01*
X315457Y310102D01*
X315453Y310083D01*
X315445Y310063D01*
X315437Y310043D01*
X315429Y310023D01*
X315422Y310008D01*
X315414Y309988D01*
X315402Y309972D01*
X315390Y309953D01*
X315378Y309937D01*
X315363Y309921D01*
X315351Y309905D01*
X315335Y309893D01*
X315319Y309878D01*
X315304Y309866D01*
X315284Y309854D01*
X315268Y309842D01*
X315248Y309835D01*
X315233Y309827D01*
X315213Y309819D01*
X315193Y309811D01*
X315174Y309803D01*
X315154Y309799D01*
X315134Y309795D01*
X315111D01*
X315091Y309791D01*
X313359D01*
X313339Y309795D01*
X313315D01*
X313296Y309799D01*
X313276Y309803D01*
X313256Y309811D01*
X313237Y309819D01*
X313217Y309827D01*
X313201Y309835D01*
X313181Y309842D01*
X313166Y309854D01*
X313146Y309866D01*
X313130Y309878D01*
X313115Y309893D01*
X313099Y309905D01*
X313087Y309921D01*
X313071Y309937D01*
X313059Y309953D01*
X313048Y309972D01*
X313036Y309988D01*
X313028Y310008D01*
X313020Y310023D01*
X313012Y310043D01*
X313004Y310063D01*
X312997Y310083D01*
X312993Y310102D01*
X312989Y310122D01*
Y310145D01*
X312985Y310165D01*
Y313275D01*
X312989Y313295D01*
Y313319D01*
X312993Y313338D01*
X312997Y313358D01*
X313004Y313378D01*
X313012Y313398D01*
X313020Y313417D01*
X313028Y313433D01*
X313036Y313453D01*
X313048Y313468D01*
X313059Y313488D01*
X313071Y313504D01*
X313087Y313520D01*
X313099Y313535D01*
X313115Y313547D01*
X313130Y313563D01*
X313146Y313575D01*
X313166Y313586D01*
X313181Y313598D01*
X313201Y313606D01*
X313217Y313614D01*
X313237Y313622D01*
X313256Y313630D01*
X313276Y313638D01*
X313296Y313642D01*
X313315Y313646D01*
X313339D01*
X313359Y313649D01*
X315091D01*
X315111Y313646D01*
D02*
G37*
G36*
X310780D02*
X310804D01*
X310823Y313642D01*
X310843Y313638D01*
X310863Y313630D01*
X310882Y313622D01*
X310902Y313614D01*
X310918Y313606D01*
X310937Y313598D01*
X310953Y313586D01*
X310973Y313575D01*
X310989Y313563D01*
X311004Y313547D01*
X311020Y313535D01*
X311032Y313520D01*
X311048Y313504D01*
X311059Y313488D01*
X311071Y313468D01*
X311083Y313453D01*
X311091Y313433D01*
X311099Y313417D01*
X311107Y313398D01*
X311115Y313378D01*
X311122Y313358D01*
X311126Y313338D01*
X311130Y313319D01*
Y313295D01*
X311134Y313275D01*
Y310165D01*
X311130Y310145D01*
Y310122D01*
X311126Y310102D01*
X311122Y310083D01*
X311115Y310063D01*
X311107Y310043D01*
X311099Y310023D01*
X311091Y310008D01*
X311083Y309988D01*
X311071Y309972D01*
X311059Y309953D01*
X311048Y309937D01*
X311032Y309921D01*
X311020Y309905D01*
X311004Y309893D01*
X310989Y309878D01*
X310973Y309866D01*
X310953Y309854D01*
X310937Y309842D01*
X310918Y309835D01*
X310902Y309827D01*
X310882Y309819D01*
X310863Y309811D01*
X310843Y309803D01*
X310823Y309799D01*
X310804Y309795D01*
X310780D01*
X310760Y309791D01*
X309028D01*
X309008Y309795D01*
X308985D01*
X308965Y309799D01*
X308945Y309803D01*
X308926Y309811D01*
X308906Y309819D01*
X308886Y309827D01*
X308871Y309835D01*
X308851Y309842D01*
X308835Y309854D01*
X308815Y309866D01*
X308800Y309878D01*
X308784Y309893D01*
X308768Y309905D01*
X308756Y309921D01*
X308741Y309937D01*
X308729Y309953D01*
X308717Y309972D01*
X308705Y309988D01*
X308697Y310008D01*
X308689Y310023D01*
X308682Y310043D01*
X308674Y310063D01*
X308666Y310083D01*
X308662Y310102D01*
X308658Y310122D01*
Y310145D01*
X308654Y310165D01*
Y313275D01*
X308658Y313295D01*
Y313319D01*
X308662Y313338D01*
X308666Y313358D01*
X308674Y313378D01*
X308682Y313398D01*
X308689Y313417D01*
X308697Y313433D01*
X308705Y313453D01*
X308717Y313468D01*
X308729Y313488D01*
X308741Y313504D01*
X308756Y313520D01*
X308768Y313535D01*
X308784Y313547D01*
X308800Y313563D01*
X308815Y313575D01*
X308835Y313586D01*
X308851Y313598D01*
X308871Y313606D01*
X308886Y313614D01*
X308906Y313622D01*
X308926Y313630D01*
X308945Y313638D01*
X308965Y313642D01*
X308985Y313646D01*
X309008D01*
X309028Y313649D01*
X310760D01*
X310780Y313646D01*
D02*
G37*
G36*
X306449D02*
X306473D01*
X306492Y313642D01*
X306512Y313638D01*
X306532Y313630D01*
X306552Y313622D01*
X306571Y313614D01*
X306587Y313606D01*
X306607Y313598D01*
X306623Y313586D01*
X306642Y313575D01*
X306658Y313563D01*
X306674Y313547D01*
X306689Y313535D01*
X306701Y313520D01*
X306717Y313504D01*
X306729Y313488D01*
X306741Y313468D01*
X306752Y313453D01*
X306760Y313433D01*
X306768Y313417D01*
X306776Y313398D01*
X306784Y313378D01*
X306792Y313358D01*
X306796Y313338D01*
X306800Y313319D01*
Y313295D01*
X306804Y313275D01*
Y310165D01*
X306800Y310145D01*
Y310122D01*
X306796Y310102D01*
X306792Y310083D01*
X306784Y310063D01*
X306776Y310043D01*
X306768Y310023D01*
X306760Y310008D01*
X306752Y309988D01*
X306741Y309972D01*
X306729Y309953D01*
X306717Y309937D01*
X306701Y309921D01*
X306689Y309905D01*
X306674Y309893D01*
X306658Y309878D01*
X306642Y309866D01*
X306623Y309854D01*
X306607Y309842D01*
X306587Y309835D01*
X306571Y309827D01*
X306552Y309819D01*
X306532Y309811D01*
X306512Y309803D01*
X306492Y309799D01*
X306473Y309795D01*
X306449D01*
X306430Y309791D01*
X304697D01*
X304678Y309795D01*
X304654D01*
X304634Y309799D01*
X304615Y309803D01*
X304595Y309811D01*
X304575Y309819D01*
X304556Y309827D01*
X304540Y309835D01*
X304520Y309842D01*
X304504Y309854D01*
X304485Y309866D01*
X304469Y309878D01*
X304453Y309893D01*
X304437Y309905D01*
X304426Y309921D01*
X304410Y309937D01*
X304398Y309953D01*
X304386Y309972D01*
X304374Y309988D01*
X304367Y310008D01*
X304359Y310023D01*
X304351Y310043D01*
X304343Y310063D01*
X304335Y310083D01*
X304331Y310102D01*
X304327Y310122D01*
Y310145D01*
X304323Y310165D01*
Y313275D01*
X304327Y313295D01*
Y313319D01*
X304331Y313338D01*
X304335Y313358D01*
X304343Y313378D01*
X304351Y313398D01*
X304359Y313417D01*
X304367Y313433D01*
X304374Y313453D01*
X304386Y313468D01*
X304398Y313488D01*
X304410Y313504D01*
X304426Y313520D01*
X304437Y313535D01*
X304453Y313547D01*
X304469Y313563D01*
X304485Y313575D01*
X304504Y313586D01*
X304520Y313598D01*
X304540Y313606D01*
X304556Y313614D01*
X304575Y313622D01*
X304595Y313630D01*
X304615Y313638D01*
X304634Y313642D01*
X304654Y313646D01*
X304678D01*
X304697Y313649D01*
X306430D01*
X306449Y313646D01*
D02*
G37*
G36*
X302118D02*
X302142D01*
X302162Y313642D01*
X302182Y313638D01*
X302201Y313630D01*
X302221Y313622D01*
X302241Y313614D01*
X302256Y313606D01*
X302276Y313598D01*
X302292Y313586D01*
X302311Y313575D01*
X302327Y313563D01*
X302343Y313547D01*
X302359Y313535D01*
X302371Y313520D01*
X302386Y313504D01*
X302398Y313488D01*
X302410Y313468D01*
X302422Y313453D01*
X302430Y313433D01*
X302437Y313417D01*
X302445Y313398D01*
X302453Y313378D01*
X302461Y313358D01*
X302465Y313338D01*
X302469Y313319D01*
Y313295D01*
X302473Y313275D01*
Y310165D01*
X302469Y310145D01*
Y310122D01*
X302465Y310102D01*
X302461Y310083D01*
X302453Y310063D01*
X302445Y310043D01*
X302437Y310023D01*
X302430Y310008D01*
X302422Y309988D01*
X302410Y309972D01*
X302398Y309953D01*
X302386Y309937D01*
X302371Y309921D01*
X302359Y309905D01*
X302343Y309893D01*
X302327Y309878D01*
X302311Y309866D01*
X302292Y309854D01*
X302276Y309842D01*
X302256Y309835D01*
X302241Y309827D01*
X302221Y309819D01*
X302201Y309811D01*
X302182Y309803D01*
X302162Y309799D01*
X302142Y309795D01*
X302118D01*
X302099Y309791D01*
X300367D01*
X300347Y309795D01*
X300323D01*
X300304Y309799D01*
X300284Y309803D01*
X300264Y309811D01*
X300244Y309819D01*
X300225Y309827D01*
X300209Y309835D01*
X300189Y309842D01*
X300174Y309854D01*
X300154Y309866D01*
X300138Y309878D01*
X300122Y309893D01*
X300107Y309905D01*
X300095Y309921D01*
X300079Y309937D01*
X300067Y309953D01*
X300056Y309972D01*
X300044Y309988D01*
X300036Y310008D01*
X300028Y310023D01*
X300020Y310043D01*
X300012Y310063D01*
X300004Y310083D01*
X300000Y310102D01*
X299996Y310122D01*
Y310145D01*
X299992Y310165D01*
Y313275D01*
X299996Y313295D01*
Y313319D01*
X300000Y313338D01*
X300004Y313358D01*
X300012Y313378D01*
X300020Y313398D01*
X300028Y313417D01*
X300036Y313433D01*
X300044Y313453D01*
X300056Y313468D01*
X300067Y313488D01*
X300079Y313504D01*
X300095Y313520D01*
X300107Y313535D01*
X300122Y313547D01*
X300138Y313563D01*
X300154Y313575D01*
X300174Y313586D01*
X300189Y313598D01*
X300209Y313606D01*
X300225Y313614D01*
X300244Y313622D01*
X300264Y313630D01*
X300284Y313638D01*
X300304Y313642D01*
X300323Y313646D01*
X300347D01*
X300367Y313649D01*
X302099D01*
X302118Y313646D01*
D02*
G37*
G36*
X297788D02*
X297811D01*
X297831Y313642D01*
X297851Y313638D01*
X297870Y313630D01*
X297890Y313622D01*
X297910Y313614D01*
X297926Y313606D01*
X297945Y313598D01*
X297961Y313586D01*
X297981Y313575D01*
X297996Y313563D01*
X298012Y313547D01*
X298028Y313535D01*
X298040Y313520D01*
X298056Y313504D01*
X298067Y313488D01*
X298079Y313468D01*
X298091Y313453D01*
X298099Y313433D01*
X298107Y313417D01*
X298115Y313398D01*
X298123Y313378D01*
X298130Y313358D01*
X298134Y313338D01*
X298138Y313319D01*
Y313295D01*
X298142Y313275D01*
Y310165D01*
X298138Y310145D01*
Y310122D01*
X298134Y310102D01*
X298130Y310083D01*
X298123Y310063D01*
X298115Y310043D01*
X298107Y310023D01*
X298099Y310008D01*
X298091Y309988D01*
X298079Y309972D01*
X298067Y309953D01*
X298056Y309937D01*
X298040Y309921D01*
X298028Y309905D01*
X298012Y309893D01*
X297996Y309878D01*
X297981Y309866D01*
X297961Y309854D01*
X297945Y309842D01*
X297926Y309835D01*
X297910Y309827D01*
X297890Y309819D01*
X297870Y309811D01*
X297851Y309803D01*
X297831Y309799D01*
X297811Y309795D01*
X297788D01*
X297768Y309791D01*
X296036D01*
X296016Y309795D01*
X295992D01*
X295973Y309799D01*
X295953Y309803D01*
X295934Y309811D01*
X295914Y309819D01*
X295894Y309827D01*
X295878Y309835D01*
X295859Y309842D01*
X295843Y309854D01*
X295823Y309866D01*
X295808Y309878D01*
X295792Y309893D01*
X295776Y309905D01*
X295764Y309921D01*
X295748Y309937D01*
X295737Y309953D01*
X295725Y309972D01*
X295713Y309988D01*
X295705Y310008D01*
X295697Y310023D01*
X295689Y310043D01*
X295682Y310063D01*
X295674Y310083D01*
X295670Y310102D01*
X295666Y310122D01*
Y310145D01*
X295662Y310165D01*
Y313275D01*
X295666Y313295D01*
Y313319D01*
X295670Y313338D01*
X295674Y313358D01*
X295682Y313378D01*
X295689Y313398D01*
X295697Y313417D01*
X295705Y313433D01*
X295713Y313453D01*
X295725Y313468D01*
X295737Y313488D01*
X295748Y313504D01*
X295764Y313520D01*
X295776Y313535D01*
X295792Y313547D01*
X295808Y313563D01*
X295823Y313575D01*
X295843Y313586D01*
X295859Y313598D01*
X295878Y313606D01*
X295894Y313614D01*
X295914Y313622D01*
X295934Y313630D01*
X295953Y313638D01*
X295973Y313642D01*
X295992Y313646D01*
X296016D01*
X296036Y313649D01*
X297768D01*
X297788Y313646D01*
D02*
G37*
G36*
X293457D02*
X293481D01*
X293500Y313642D01*
X293520Y313638D01*
X293540Y313630D01*
X293560Y313622D01*
X293579Y313614D01*
X293595Y313606D01*
X293615Y313598D01*
X293630Y313586D01*
X293650Y313575D01*
X293666Y313563D01*
X293682Y313547D01*
X293697Y313535D01*
X293709Y313520D01*
X293725Y313504D01*
X293737Y313488D01*
X293748Y313468D01*
X293760Y313453D01*
X293768Y313433D01*
X293776Y313417D01*
X293784Y313398D01*
X293792Y313378D01*
X293800Y313358D01*
X293804Y313338D01*
X293808Y313319D01*
Y313295D01*
X293811Y313275D01*
Y310165D01*
X293808Y310145D01*
Y310122D01*
X293804Y310102D01*
X293800Y310083D01*
X293792Y310063D01*
X293784Y310043D01*
X293776Y310023D01*
X293768Y310008D01*
X293760Y309988D01*
X293748Y309972D01*
X293737Y309953D01*
X293725Y309937D01*
X293709Y309921D01*
X293697Y309905D01*
X293682Y309893D01*
X293666Y309878D01*
X293650Y309866D01*
X293630Y309854D01*
X293615Y309842D01*
X293595Y309835D01*
X293579Y309827D01*
X293560Y309819D01*
X293540Y309811D01*
X293520Y309803D01*
X293500Y309799D01*
X293481Y309795D01*
X293457D01*
X293437Y309791D01*
X291705D01*
X291685Y309795D01*
X291662D01*
X291642Y309799D01*
X291622Y309803D01*
X291603Y309811D01*
X291583Y309819D01*
X291563Y309827D01*
X291548Y309835D01*
X291528Y309842D01*
X291512Y309854D01*
X291493Y309866D01*
X291477Y309878D01*
X291461Y309893D01*
X291445Y309905D01*
X291434Y309921D01*
X291418Y309937D01*
X291406Y309953D01*
X291394Y309972D01*
X291382Y309988D01*
X291374Y310008D01*
X291367Y310023D01*
X291359Y310043D01*
X291351Y310063D01*
X291343Y310083D01*
X291339Y310102D01*
X291335Y310122D01*
Y310145D01*
X291331Y310165D01*
Y313275D01*
X291335Y313295D01*
Y313319D01*
X291339Y313338D01*
X291343Y313358D01*
X291351Y313378D01*
X291359Y313398D01*
X291367Y313417D01*
X291374Y313433D01*
X291382Y313453D01*
X291394Y313468D01*
X291406Y313488D01*
X291418Y313504D01*
X291434Y313520D01*
X291445Y313535D01*
X291461Y313547D01*
X291477Y313563D01*
X291493Y313575D01*
X291512Y313586D01*
X291528Y313598D01*
X291548Y313606D01*
X291563Y313614D01*
X291583Y313622D01*
X291603Y313630D01*
X291622Y313638D01*
X291642Y313642D01*
X291662Y313646D01*
X291685D01*
X291705Y313649D01*
X293437D01*
X293457Y313646D01*
D02*
G37*
G36*
X289126D02*
X289150D01*
X289170Y313642D01*
X289189Y313638D01*
X289209Y313630D01*
X289229Y313622D01*
X289248Y313614D01*
X289264Y313606D01*
X289284Y313598D01*
X289300Y313586D01*
X289319Y313575D01*
X289335Y313563D01*
X289351Y313547D01*
X289367Y313535D01*
X289378Y313520D01*
X289394Y313504D01*
X289406Y313488D01*
X289418Y313468D01*
X289429Y313453D01*
X289437Y313433D01*
X289445Y313417D01*
X289453Y313398D01*
X289461Y313378D01*
X289469Y313358D01*
X289473Y313338D01*
X289477Y313319D01*
Y313295D01*
X289481Y313275D01*
Y310165D01*
X289477Y310145D01*
Y310122D01*
X289473Y310102D01*
X289469Y310083D01*
X289461Y310063D01*
X289453Y310043D01*
X289445Y310023D01*
X289437Y310008D01*
X289429Y309988D01*
X289418Y309972D01*
X289406Y309953D01*
X289394Y309937D01*
X289378Y309921D01*
X289367Y309905D01*
X289351Y309893D01*
X289335Y309878D01*
X289319Y309866D01*
X289300Y309854D01*
X289284Y309842D01*
X289264Y309835D01*
X289248Y309827D01*
X289229Y309819D01*
X289209Y309811D01*
X289189Y309803D01*
X289170Y309799D01*
X289150Y309795D01*
X289126D01*
X289107Y309791D01*
X287374D01*
X287355Y309795D01*
X287331D01*
X287311Y309799D01*
X287292Y309803D01*
X287272Y309811D01*
X287252Y309819D01*
X287233Y309827D01*
X287217Y309835D01*
X287197Y309842D01*
X287181Y309854D01*
X287162Y309866D01*
X287146Y309878D01*
X287130Y309893D01*
X287115Y309905D01*
X287103Y309921D01*
X287087Y309937D01*
X287075Y309953D01*
X287063Y309972D01*
X287052Y309988D01*
X287044Y310008D01*
X287036Y310023D01*
X287028Y310043D01*
X287020Y310063D01*
X287012Y310083D01*
X287008Y310102D01*
X287004Y310122D01*
Y310145D01*
X287000Y310165D01*
Y313275D01*
X287004Y313295D01*
Y313319D01*
X287008Y313338D01*
X287012Y313358D01*
X287020Y313378D01*
X287028Y313398D01*
X287036Y313417D01*
X287044Y313433D01*
X287052Y313453D01*
X287063Y313468D01*
X287075Y313488D01*
X287087Y313504D01*
X287103Y313520D01*
X287115Y313535D01*
X287130Y313547D01*
X287146Y313563D01*
X287162Y313575D01*
X287181Y313586D01*
X287197Y313598D01*
X287217Y313606D01*
X287233Y313614D01*
X287252Y313622D01*
X287272Y313630D01*
X287292Y313638D01*
X287311Y313642D01*
X287331Y313646D01*
X287355D01*
X287374Y313649D01*
X289107D01*
X289126Y313646D01*
D02*
G37*
G36*
X284796D02*
X284819D01*
X284839Y313642D01*
X284859Y313638D01*
X284878Y313630D01*
X284898Y313622D01*
X284918Y313614D01*
X284933Y313606D01*
X284953Y313598D01*
X284969Y313586D01*
X284989Y313575D01*
X285004Y313563D01*
X285020Y313547D01*
X285036Y313535D01*
X285048Y313520D01*
X285063Y313504D01*
X285075Y313488D01*
X285087Y313468D01*
X285099Y313453D01*
X285107Y313433D01*
X285115Y313417D01*
X285122Y313398D01*
X285130Y313378D01*
X285138Y313358D01*
X285142Y313338D01*
X285146Y313319D01*
Y313295D01*
X285150Y313275D01*
Y310165D01*
X285146Y310145D01*
Y310122D01*
X285142Y310102D01*
X285138Y310083D01*
X285130Y310063D01*
X285122Y310043D01*
X285115Y310023D01*
X285107Y310008D01*
X285099Y309988D01*
X285087Y309972D01*
X285075Y309953D01*
X285063Y309937D01*
X285048Y309921D01*
X285036Y309905D01*
X285020Y309893D01*
X285004Y309878D01*
X284989Y309866D01*
X284969Y309854D01*
X284953Y309842D01*
X284933Y309835D01*
X284918Y309827D01*
X284898Y309819D01*
X284878Y309811D01*
X284859Y309803D01*
X284839Y309799D01*
X284819Y309795D01*
X284796D01*
X284776Y309791D01*
X283044D01*
X283024Y309795D01*
X283000D01*
X282981Y309799D01*
X282961Y309803D01*
X282941Y309811D01*
X282922Y309819D01*
X282902Y309827D01*
X282886Y309835D01*
X282867Y309842D01*
X282851Y309854D01*
X282831Y309866D01*
X282815Y309878D01*
X282800Y309893D01*
X282784Y309905D01*
X282772Y309921D01*
X282756Y309937D01*
X282745Y309953D01*
X282733Y309972D01*
X282721Y309988D01*
X282713Y310008D01*
X282705Y310023D01*
X282697Y310043D01*
X282689Y310063D01*
X282681Y310083D01*
X282678Y310102D01*
X282674Y310122D01*
Y310145D01*
X282670Y310165D01*
Y313275D01*
X282674Y313295D01*
Y313319D01*
X282678Y313338D01*
X282681Y313358D01*
X282689Y313378D01*
X282697Y313398D01*
X282705Y313417D01*
X282713Y313433D01*
X282721Y313453D01*
X282733Y313468D01*
X282745Y313488D01*
X282756Y313504D01*
X282772Y313520D01*
X282784Y313535D01*
X282800Y313547D01*
X282815Y313563D01*
X282831Y313575D01*
X282851Y313586D01*
X282867Y313598D01*
X282886Y313606D01*
X282902Y313614D01*
X282922Y313622D01*
X282941Y313630D01*
X282961Y313638D01*
X282981Y313642D01*
X283000Y313646D01*
X283024D01*
X283044Y313649D01*
X284776D01*
X284796Y313646D01*
D02*
G37*
G36*
X280465D02*
X280489D01*
X280508Y313642D01*
X280528Y313638D01*
X280548Y313630D01*
X280567Y313622D01*
X280587Y313614D01*
X280603Y313606D01*
X280623Y313598D01*
X280638Y313586D01*
X280658Y313575D01*
X280674Y313563D01*
X280689Y313547D01*
X280705Y313535D01*
X280717Y313520D01*
X280733Y313504D01*
X280745Y313488D01*
X280756Y313468D01*
X280768Y313453D01*
X280776Y313433D01*
X280784Y313417D01*
X280792Y313398D01*
X280800Y313378D01*
X280807Y313358D01*
X280811Y313338D01*
X280815Y313319D01*
Y313295D01*
X280819Y313275D01*
Y310165D01*
X280815Y310145D01*
Y310122D01*
X280811Y310102D01*
X280807Y310083D01*
X280800Y310063D01*
X280792Y310043D01*
X280784Y310023D01*
X280776Y310008D01*
X280768Y309988D01*
X280756Y309972D01*
X280745Y309953D01*
X280733Y309937D01*
X280717Y309921D01*
X280705Y309905D01*
X280689Y309893D01*
X280674Y309878D01*
X280658Y309866D01*
X280638Y309854D01*
X280623Y309842D01*
X280603Y309835D01*
X280587Y309827D01*
X280567Y309819D01*
X280548Y309811D01*
X280528Y309803D01*
X280508Y309799D01*
X280489Y309795D01*
X280465D01*
X280445Y309791D01*
X278713D01*
X278693Y309795D01*
X278670D01*
X278650Y309799D01*
X278630Y309803D01*
X278611Y309811D01*
X278591Y309819D01*
X278571Y309827D01*
X278555Y309835D01*
X278536Y309842D01*
X278520Y309854D01*
X278500Y309866D01*
X278485Y309878D01*
X278469Y309893D01*
X278453Y309905D01*
X278441Y309921D01*
X278426Y309937D01*
X278414Y309953D01*
X278402Y309972D01*
X278390Y309988D01*
X278382Y310008D01*
X278374Y310023D01*
X278367Y310043D01*
X278359Y310063D01*
X278351Y310083D01*
X278347Y310102D01*
X278343Y310122D01*
Y310145D01*
X278339Y310165D01*
Y313275D01*
X278343Y313295D01*
Y313319D01*
X278347Y313338D01*
X278351Y313358D01*
X278359Y313378D01*
X278367Y313398D01*
X278374Y313417D01*
X278382Y313433D01*
X278390Y313453D01*
X278402Y313468D01*
X278414Y313488D01*
X278426Y313504D01*
X278441Y313520D01*
X278453Y313535D01*
X278469Y313547D01*
X278485Y313563D01*
X278500Y313575D01*
X278520Y313586D01*
X278536Y313598D01*
X278555Y313606D01*
X278571Y313614D01*
X278591Y313622D01*
X278611Y313630D01*
X278630Y313638D01*
X278650Y313642D01*
X278670Y313646D01*
X278693D01*
X278713Y313649D01*
X280445D01*
X280465Y313646D01*
D02*
G37*
G36*
X273772D02*
X273796D01*
X273815Y313642D01*
X273835Y313638D01*
X273855Y313630D01*
X273874Y313622D01*
X273894Y313614D01*
X273910Y313606D01*
X273930Y313598D01*
X273945Y313586D01*
X273965Y313575D01*
X273981Y313563D01*
X273996Y313547D01*
X274012Y313535D01*
X274024Y313520D01*
X274040Y313504D01*
X274052Y313488D01*
X274063Y313468D01*
X274075Y313453D01*
X274083Y313433D01*
X274091Y313417D01*
X274099Y313398D01*
X274107Y313378D01*
X274115Y313358D01*
X274118Y313338D01*
X274123Y313319D01*
Y313295D01*
X274126Y313275D01*
Y310165D01*
X274123Y310145D01*
Y310122D01*
X274118Y310102D01*
X274115Y310083D01*
X274107Y310063D01*
X274099Y310043D01*
X274091Y310023D01*
X274083Y310008D01*
X274075Y309988D01*
X274063Y309972D01*
X274052Y309953D01*
X274040Y309937D01*
X274024Y309921D01*
X274012Y309905D01*
X273996Y309893D01*
X273981Y309878D01*
X273965Y309866D01*
X273945Y309854D01*
X273930Y309842D01*
X273910Y309835D01*
X273894Y309827D01*
X273874Y309819D01*
X273855Y309811D01*
X273835Y309803D01*
X273815Y309799D01*
X273796Y309795D01*
X273772D01*
X273752Y309791D01*
X272020D01*
X272000Y309795D01*
X271977D01*
X271957Y309799D01*
X271937Y309803D01*
X271918Y309811D01*
X271898Y309819D01*
X271878Y309827D01*
X271863Y309835D01*
X271843Y309842D01*
X271827Y309854D01*
X271808Y309866D01*
X271792Y309878D01*
X271776Y309893D01*
X271760Y309905D01*
X271748Y309921D01*
X271733Y309937D01*
X271721Y309953D01*
X271709Y309972D01*
X271697Y309988D01*
X271689Y310008D01*
X271681Y310023D01*
X271674Y310043D01*
X271666Y310063D01*
X271658Y310083D01*
X271654Y310102D01*
X271650Y310122D01*
Y310145D01*
X271646Y310165D01*
Y313275D01*
X271650Y313295D01*
Y313319D01*
X271654Y313338D01*
X271658Y313358D01*
X271666Y313378D01*
X271674Y313398D01*
X271681Y313417D01*
X271689Y313433D01*
X271697Y313453D01*
X271709Y313468D01*
X271721Y313488D01*
X271733Y313504D01*
X271748Y313520D01*
X271760Y313535D01*
X271776Y313547D01*
X271792Y313563D01*
X271808Y313575D01*
X271827Y313586D01*
X271843Y313598D01*
X271863Y313606D01*
X271878Y313614D01*
X271898Y313622D01*
X271918Y313630D01*
X271937Y313638D01*
X271957Y313642D01*
X271977Y313646D01*
X272000D01*
X272020Y313649D01*
X273752D01*
X273772Y313646D01*
D02*
G37*
G36*
X269441D02*
X269465D01*
X269485Y313642D01*
X269504Y313638D01*
X269524Y313630D01*
X269544Y313622D01*
X269563Y313614D01*
X269579Y313606D01*
X269599Y313598D01*
X269615Y313586D01*
X269634Y313575D01*
X269650Y313563D01*
X269666Y313547D01*
X269682Y313535D01*
X269693Y313520D01*
X269709Y313504D01*
X269721Y313488D01*
X269733Y313468D01*
X269744Y313453D01*
X269752Y313433D01*
X269760Y313417D01*
X269768Y313398D01*
X269776Y313378D01*
X269784Y313358D01*
X269788Y313338D01*
X269792Y313319D01*
Y313295D01*
X269796Y313275D01*
Y310165D01*
X269792Y310145D01*
Y310122D01*
X269788Y310102D01*
X269784Y310083D01*
X269776Y310063D01*
X269768Y310043D01*
X269760Y310023D01*
X269752Y310008D01*
X269744Y309988D01*
X269733Y309972D01*
X269721Y309953D01*
X269709Y309937D01*
X269693Y309921D01*
X269682Y309905D01*
X269666Y309893D01*
X269650Y309878D01*
X269634Y309866D01*
X269615Y309854D01*
X269599Y309842D01*
X269579Y309835D01*
X269563Y309827D01*
X269544Y309819D01*
X269524Y309811D01*
X269504Y309803D01*
X269485Y309799D01*
X269465Y309795D01*
X269441D01*
X269422Y309791D01*
X267689D01*
X267670Y309795D01*
X267646D01*
X267626Y309799D01*
X267607Y309803D01*
X267587Y309811D01*
X267567Y309819D01*
X267548Y309827D01*
X267532Y309835D01*
X267512Y309842D01*
X267496Y309854D01*
X267477Y309866D01*
X267461Y309878D01*
X267445Y309893D01*
X267429Y309905D01*
X267418Y309921D01*
X267402Y309937D01*
X267390Y309953D01*
X267378Y309972D01*
X267367Y309988D01*
X267359Y310008D01*
X267351Y310023D01*
X267343Y310043D01*
X267335Y310063D01*
X267327Y310083D01*
X267323Y310102D01*
X267319Y310122D01*
Y310145D01*
X267315Y310165D01*
Y313275D01*
X267319Y313295D01*
Y313319D01*
X267323Y313338D01*
X267327Y313358D01*
X267335Y313378D01*
X267343Y313398D01*
X267351Y313417D01*
X267359Y313433D01*
X267367Y313453D01*
X267378Y313468D01*
X267390Y313488D01*
X267402Y313504D01*
X267418Y313520D01*
X267429Y313535D01*
X267445Y313547D01*
X267461Y313563D01*
X267477Y313575D01*
X267496Y313586D01*
X267512Y313598D01*
X267532Y313606D01*
X267548Y313614D01*
X267567Y313622D01*
X267587Y313630D01*
X267607Y313638D01*
X267626Y313642D01*
X267646Y313646D01*
X267670D01*
X267689Y313649D01*
X269422D01*
X269441Y313646D01*
D02*
G37*
G36*
X265111D02*
X265134D01*
X265154Y313642D01*
X265174Y313638D01*
X265193Y313630D01*
X265213Y313622D01*
X265233Y313614D01*
X265248Y313606D01*
X265268Y313598D01*
X265284Y313586D01*
X265304Y313575D01*
X265319Y313563D01*
X265335Y313547D01*
X265351Y313535D01*
X265363Y313520D01*
X265378Y313504D01*
X265390Y313488D01*
X265402Y313468D01*
X265414Y313453D01*
X265422Y313433D01*
X265429Y313417D01*
X265437Y313398D01*
X265445Y313378D01*
X265453Y313358D01*
X265457Y313338D01*
X265461Y313319D01*
Y313295D01*
X265465Y313275D01*
Y310165D01*
X265461Y310145D01*
Y310122D01*
X265457Y310102D01*
X265453Y310083D01*
X265445Y310063D01*
X265437Y310043D01*
X265429Y310023D01*
X265422Y310008D01*
X265414Y309988D01*
X265402Y309972D01*
X265390Y309953D01*
X265378Y309937D01*
X265363Y309921D01*
X265351Y309905D01*
X265335Y309893D01*
X265319Y309878D01*
X265304Y309866D01*
X265284Y309854D01*
X265268Y309842D01*
X265248Y309835D01*
X265233Y309827D01*
X265213Y309819D01*
X265193Y309811D01*
X265174Y309803D01*
X265154Y309799D01*
X265134Y309795D01*
X265111D01*
X265091Y309791D01*
X263359D01*
X263339Y309795D01*
X263315D01*
X263296Y309799D01*
X263276Y309803D01*
X263256Y309811D01*
X263237Y309819D01*
X263217Y309827D01*
X263201Y309835D01*
X263181Y309842D01*
X263166Y309854D01*
X263146Y309866D01*
X263130Y309878D01*
X263115Y309893D01*
X263099Y309905D01*
X263087Y309921D01*
X263071Y309937D01*
X263059Y309953D01*
X263048Y309972D01*
X263036Y309988D01*
X263028Y310008D01*
X263020Y310023D01*
X263012Y310043D01*
X263004Y310063D01*
X262997Y310083D01*
X262993Y310102D01*
X262989Y310122D01*
Y310145D01*
X262985Y310165D01*
Y313275D01*
X262989Y313295D01*
Y313319D01*
X262993Y313338D01*
X262997Y313358D01*
X263004Y313378D01*
X263012Y313398D01*
X263020Y313417D01*
X263028Y313433D01*
X263036Y313453D01*
X263048Y313468D01*
X263059Y313488D01*
X263071Y313504D01*
X263087Y313520D01*
X263099Y313535D01*
X263115Y313547D01*
X263130Y313563D01*
X263146Y313575D01*
X263166Y313586D01*
X263181Y313598D01*
X263201Y313606D01*
X263217Y313614D01*
X263237Y313622D01*
X263256Y313630D01*
X263276Y313638D01*
X263296Y313642D01*
X263315Y313646D01*
X263339D01*
X263359Y313649D01*
X265091D01*
X265111Y313646D01*
D02*
G37*
G36*
X260780D02*
X260804D01*
X260823Y313642D01*
X260843Y313638D01*
X260863Y313630D01*
X260882Y313622D01*
X260902Y313614D01*
X260918Y313606D01*
X260937Y313598D01*
X260953Y313586D01*
X260973Y313575D01*
X260989Y313563D01*
X261004Y313547D01*
X261020Y313535D01*
X261032Y313520D01*
X261048Y313504D01*
X261059Y313488D01*
X261071Y313468D01*
X261083Y313453D01*
X261091Y313433D01*
X261099Y313417D01*
X261107Y313398D01*
X261115Y313378D01*
X261122Y313358D01*
X261126Y313338D01*
X261130Y313319D01*
Y313295D01*
X261134Y313275D01*
Y310165D01*
X261130Y310145D01*
Y310122D01*
X261126Y310102D01*
X261122Y310083D01*
X261115Y310063D01*
X261107Y310043D01*
X261099Y310023D01*
X261091Y310008D01*
X261083Y309988D01*
X261071Y309972D01*
X261059Y309953D01*
X261048Y309937D01*
X261032Y309921D01*
X261020Y309905D01*
X261004Y309893D01*
X260989Y309878D01*
X260973Y309866D01*
X260953Y309854D01*
X260937Y309842D01*
X260918Y309835D01*
X260902Y309827D01*
X260882Y309819D01*
X260863Y309811D01*
X260843Y309803D01*
X260823Y309799D01*
X260804Y309795D01*
X260780D01*
X260760Y309791D01*
X259028D01*
X259008Y309795D01*
X258985D01*
X258965Y309799D01*
X258945Y309803D01*
X258926Y309811D01*
X258906Y309819D01*
X258886Y309827D01*
X258871Y309835D01*
X258851Y309842D01*
X258835Y309854D01*
X258815Y309866D01*
X258800Y309878D01*
X258784Y309893D01*
X258768Y309905D01*
X258756Y309921D01*
X258741Y309937D01*
X258729Y309953D01*
X258717Y309972D01*
X258705Y309988D01*
X258697Y310008D01*
X258689Y310023D01*
X258682Y310043D01*
X258674Y310063D01*
X258666Y310083D01*
X258662Y310102D01*
X258658Y310122D01*
Y310145D01*
X258654Y310165D01*
Y313275D01*
X258658Y313295D01*
Y313319D01*
X258662Y313338D01*
X258666Y313358D01*
X258674Y313378D01*
X258682Y313398D01*
X258689Y313417D01*
X258697Y313433D01*
X258705Y313453D01*
X258717Y313468D01*
X258729Y313488D01*
X258741Y313504D01*
X258756Y313520D01*
X258768Y313535D01*
X258784Y313547D01*
X258800Y313563D01*
X258815Y313575D01*
X258835Y313586D01*
X258851Y313598D01*
X258871Y313606D01*
X258886Y313614D01*
X258906Y313622D01*
X258926Y313630D01*
X258945Y313638D01*
X258965Y313642D01*
X258985Y313646D01*
X259008D01*
X259028Y313649D01*
X260760D01*
X260780Y313646D01*
D02*
G37*
G36*
X256449D02*
X256473D01*
X256492Y313642D01*
X256512Y313638D01*
X256532Y313630D01*
X256552Y313622D01*
X256571Y313614D01*
X256587Y313606D01*
X256607Y313598D01*
X256623Y313586D01*
X256642Y313575D01*
X256658Y313563D01*
X256674Y313547D01*
X256689Y313535D01*
X256701Y313520D01*
X256717Y313504D01*
X256729Y313488D01*
X256741Y313468D01*
X256752Y313453D01*
X256760Y313433D01*
X256768Y313417D01*
X256776Y313398D01*
X256784Y313378D01*
X256792Y313358D01*
X256796Y313338D01*
X256800Y313319D01*
Y313295D01*
X256804Y313275D01*
Y310165D01*
X256800Y310145D01*
Y310122D01*
X256796Y310102D01*
X256792Y310083D01*
X256784Y310063D01*
X256776Y310043D01*
X256768Y310023D01*
X256760Y310008D01*
X256752Y309988D01*
X256741Y309972D01*
X256729Y309953D01*
X256717Y309937D01*
X256701Y309921D01*
X256689Y309905D01*
X256674Y309893D01*
X256658Y309878D01*
X256642Y309866D01*
X256623Y309854D01*
X256607Y309842D01*
X256587Y309835D01*
X256571Y309827D01*
X256552Y309819D01*
X256532Y309811D01*
X256512Y309803D01*
X256492Y309799D01*
X256473Y309795D01*
X256449D01*
X256430Y309791D01*
X254697D01*
X254678Y309795D01*
X254654D01*
X254634Y309799D01*
X254615Y309803D01*
X254595Y309811D01*
X254575Y309819D01*
X254556Y309827D01*
X254540Y309835D01*
X254520Y309842D01*
X254504Y309854D01*
X254485Y309866D01*
X254469Y309878D01*
X254453Y309893D01*
X254437Y309905D01*
X254426Y309921D01*
X254410Y309937D01*
X254398Y309953D01*
X254386Y309972D01*
X254374Y309988D01*
X254367Y310008D01*
X254359Y310023D01*
X254351Y310043D01*
X254343Y310063D01*
X254335Y310083D01*
X254331Y310102D01*
X254327Y310122D01*
Y310145D01*
X254323Y310165D01*
Y313275D01*
X254327Y313295D01*
Y313319D01*
X254331Y313338D01*
X254335Y313358D01*
X254343Y313378D01*
X254351Y313398D01*
X254359Y313417D01*
X254367Y313433D01*
X254374Y313453D01*
X254386Y313468D01*
X254398Y313488D01*
X254410Y313504D01*
X254426Y313520D01*
X254437Y313535D01*
X254453Y313547D01*
X254469Y313563D01*
X254485Y313575D01*
X254504Y313586D01*
X254520Y313598D01*
X254540Y313606D01*
X254556Y313614D01*
X254575Y313622D01*
X254595Y313630D01*
X254615Y313638D01*
X254634Y313642D01*
X254654Y313646D01*
X254678D01*
X254697Y313649D01*
X256430D01*
X256449Y313646D01*
D02*
G37*
G36*
X252118D02*
X252142D01*
X252162Y313642D01*
X252182Y313638D01*
X252201Y313630D01*
X252221Y313622D01*
X252241Y313614D01*
X252256Y313606D01*
X252276Y313598D01*
X252292Y313586D01*
X252311Y313575D01*
X252327Y313563D01*
X252343Y313547D01*
X252359Y313535D01*
X252371Y313520D01*
X252386Y313504D01*
X252398Y313488D01*
X252410Y313468D01*
X252422Y313453D01*
X252430Y313433D01*
X252437Y313417D01*
X252445Y313398D01*
X252453Y313378D01*
X252461Y313358D01*
X252465Y313338D01*
X252469Y313319D01*
Y313295D01*
X252473Y313275D01*
Y310165D01*
X252469Y310145D01*
Y310122D01*
X252465Y310102D01*
X252461Y310083D01*
X252453Y310063D01*
X252445Y310043D01*
X252437Y310023D01*
X252430Y310008D01*
X252422Y309988D01*
X252410Y309972D01*
X252398Y309953D01*
X252386Y309937D01*
X252371Y309921D01*
X252359Y309905D01*
X252343Y309893D01*
X252327Y309878D01*
X252311Y309866D01*
X252292Y309854D01*
X252276Y309842D01*
X252256Y309835D01*
X252241Y309827D01*
X252221Y309819D01*
X252201Y309811D01*
X252182Y309803D01*
X252162Y309799D01*
X252142Y309795D01*
X252118D01*
X252099Y309791D01*
X250367D01*
X250347Y309795D01*
X250323D01*
X250304Y309799D01*
X250284Y309803D01*
X250264Y309811D01*
X250244Y309819D01*
X250225Y309827D01*
X250209Y309835D01*
X250189Y309842D01*
X250174Y309854D01*
X250154Y309866D01*
X250138Y309878D01*
X250122Y309893D01*
X250107Y309905D01*
X250095Y309921D01*
X250079Y309937D01*
X250067Y309953D01*
X250056Y309972D01*
X250044Y309988D01*
X250036Y310008D01*
X250028Y310023D01*
X250020Y310043D01*
X250012Y310063D01*
X250004Y310083D01*
X250000Y310102D01*
X249996Y310122D01*
Y310145D01*
X249992Y310165D01*
Y313275D01*
X249996Y313295D01*
Y313319D01*
X250000Y313338D01*
X250004Y313358D01*
X250012Y313378D01*
X250020Y313398D01*
X250028Y313417D01*
X250036Y313433D01*
X250044Y313453D01*
X250056Y313468D01*
X250067Y313488D01*
X250079Y313504D01*
X250095Y313520D01*
X250107Y313535D01*
X250122Y313547D01*
X250138Y313563D01*
X250154Y313575D01*
X250174Y313586D01*
X250189Y313598D01*
X250209Y313606D01*
X250225Y313614D01*
X250244Y313622D01*
X250264Y313630D01*
X250284Y313638D01*
X250304Y313642D01*
X250323Y313646D01*
X250347D01*
X250367Y313649D01*
X252099D01*
X252118Y313646D01*
D02*
G37*
G36*
X247788D02*
X247811D01*
X247831Y313642D01*
X247851Y313638D01*
X247870Y313630D01*
X247890Y313622D01*
X247910Y313614D01*
X247926Y313606D01*
X247945Y313598D01*
X247961Y313586D01*
X247981Y313575D01*
X247996Y313563D01*
X248012Y313547D01*
X248028Y313535D01*
X248040Y313520D01*
X248056Y313504D01*
X248067Y313488D01*
X248079Y313468D01*
X248091Y313453D01*
X248099Y313433D01*
X248107Y313417D01*
X248115Y313398D01*
X248123Y313378D01*
X248130Y313358D01*
X248134Y313338D01*
X248138Y313319D01*
Y313295D01*
X248142Y313275D01*
Y310165D01*
X248138Y310145D01*
Y310122D01*
X248134Y310102D01*
X248130Y310083D01*
X248123Y310063D01*
X248115Y310043D01*
X248107Y310023D01*
X248099Y310008D01*
X248091Y309988D01*
X248079Y309972D01*
X248067Y309953D01*
X248056Y309937D01*
X248040Y309921D01*
X248028Y309905D01*
X248012Y309893D01*
X247996Y309878D01*
X247981Y309866D01*
X247961Y309854D01*
X247945Y309842D01*
X247926Y309835D01*
X247910Y309827D01*
X247890Y309819D01*
X247870Y309811D01*
X247851Y309803D01*
X247831Y309799D01*
X247811Y309795D01*
X247788D01*
X247768Y309791D01*
X246036D01*
X246016Y309795D01*
X245992D01*
X245973Y309799D01*
X245953Y309803D01*
X245934Y309811D01*
X245914Y309819D01*
X245894Y309827D01*
X245878Y309835D01*
X245859Y309842D01*
X245843Y309854D01*
X245823Y309866D01*
X245808Y309878D01*
X245792Y309893D01*
X245776Y309905D01*
X245764Y309921D01*
X245748Y309937D01*
X245737Y309953D01*
X245725Y309972D01*
X245713Y309988D01*
X245705Y310008D01*
X245697Y310023D01*
X245689Y310043D01*
X245682Y310063D01*
X245674Y310083D01*
X245670Y310102D01*
X245666Y310122D01*
Y310145D01*
X245662Y310165D01*
Y313275D01*
X245666Y313295D01*
Y313319D01*
X245670Y313338D01*
X245674Y313358D01*
X245682Y313378D01*
X245689Y313398D01*
X245697Y313417D01*
X245705Y313433D01*
X245713Y313453D01*
X245725Y313468D01*
X245737Y313488D01*
X245748Y313504D01*
X245764Y313520D01*
X245776Y313535D01*
X245792Y313547D01*
X245808Y313563D01*
X245823Y313575D01*
X245843Y313586D01*
X245859Y313598D01*
X245878Y313606D01*
X245894Y313614D01*
X245914Y313622D01*
X245934Y313630D01*
X245953Y313638D01*
X245973Y313642D01*
X245992Y313646D01*
X246016D01*
X246036Y313649D01*
X247768D01*
X247788Y313646D01*
D02*
G37*
G36*
X243457D02*
X243481D01*
X243500Y313642D01*
X243520Y313638D01*
X243540Y313630D01*
X243560Y313622D01*
X243579Y313614D01*
X243595Y313606D01*
X243615Y313598D01*
X243630Y313586D01*
X243650Y313575D01*
X243666Y313563D01*
X243682Y313547D01*
X243697Y313535D01*
X243709Y313520D01*
X243725Y313504D01*
X243737Y313488D01*
X243748Y313468D01*
X243760Y313453D01*
X243768Y313433D01*
X243776Y313417D01*
X243784Y313398D01*
X243792Y313378D01*
X243800Y313358D01*
X243804Y313338D01*
X243808Y313319D01*
Y313295D01*
X243811Y313275D01*
Y310165D01*
X243808Y310145D01*
Y310122D01*
X243804Y310102D01*
X243800Y310083D01*
X243792Y310063D01*
X243784Y310043D01*
X243776Y310023D01*
X243768Y310008D01*
X243760Y309988D01*
X243748Y309972D01*
X243737Y309953D01*
X243725Y309937D01*
X243709Y309921D01*
X243697Y309905D01*
X243682Y309893D01*
X243666Y309878D01*
X243650Y309866D01*
X243630Y309854D01*
X243615Y309842D01*
X243595Y309835D01*
X243579Y309827D01*
X243560Y309819D01*
X243540Y309811D01*
X243520Y309803D01*
X243500Y309799D01*
X243481Y309795D01*
X243457D01*
X243437Y309791D01*
X241705D01*
X241685Y309795D01*
X241662D01*
X241642Y309799D01*
X241622Y309803D01*
X241603Y309811D01*
X241583Y309819D01*
X241563Y309827D01*
X241548Y309835D01*
X241528Y309842D01*
X241512Y309854D01*
X241493Y309866D01*
X241477Y309878D01*
X241461Y309893D01*
X241445Y309905D01*
X241434Y309921D01*
X241418Y309937D01*
X241406Y309953D01*
X241394Y309972D01*
X241382Y309988D01*
X241374Y310008D01*
X241367Y310023D01*
X241359Y310043D01*
X241351Y310063D01*
X241343Y310083D01*
X241339Y310102D01*
X241335Y310122D01*
Y310145D01*
X241331Y310165D01*
Y313275D01*
X241335Y313295D01*
Y313319D01*
X241339Y313338D01*
X241343Y313358D01*
X241351Y313378D01*
X241359Y313398D01*
X241367Y313417D01*
X241374Y313433D01*
X241382Y313453D01*
X241394Y313468D01*
X241406Y313488D01*
X241418Y313504D01*
X241434Y313520D01*
X241445Y313535D01*
X241461Y313547D01*
X241477Y313563D01*
X241493Y313575D01*
X241512Y313586D01*
X241528Y313598D01*
X241548Y313606D01*
X241563Y313614D01*
X241583Y313622D01*
X241603Y313630D01*
X241622Y313638D01*
X241642Y313642D01*
X241662Y313646D01*
X241685D01*
X241705Y313649D01*
X243437D01*
X243457Y313646D01*
D02*
G37*
G36*
X325248Y306264D02*
X325272D01*
X325292Y306260D01*
X325311Y306256D01*
X325331Y306248D01*
X325351Y306240D01*
X325371Y306232D01*
X325386Y306224D01*
X325406Y306216D01*
X325422Y306205D01*
X325441Y306193D01*
X325457Y306181D01*
X325473Y306165D01*
X325489Y306153D01*
X325500Y306138D01*
X325516Y306122D01*
X325528Y306106D01*
X325540Y306086D01*
X325552Y306071D01*
X325559Y306051D01*
X325567Y306035D01*
X325575Y306016D01*
X325583Y305996D01*
X325591Y305976D01*
X325595Y305957D01*
X325599Y305937D01*
Y305913D01*
X325603Y305893D01*
Y304161D01*
X325599Y304142D01*
Y304118D01*
X325595Y304098D01*
X325591Y304079D01*
X325583Y304059D01*
X325575Y304039D01*
X325567Y304019D01*
X325559Y304004D01*
X325552Y303984D01*
X325540Y303968D01*
X325528Y303949D01*
X325516Y303933D01*
X325500Y303917D01*
X325489Y303901D01*
X325473Y303890D01*
X325457Y303874D01*
X325441Y303862D01*
X325422Y303850D01*
X325406Y303838D01*
X325386Y303831D01*
X325371Y303823D01*
X325351Y303815D01*
X325331Y303807D01*
X325311Y303799D01*
X325292Y303795D01*
X325272Y303791D01*
X325248D01*
X325229Y303787D01*
X322118D01*
X322099Y303791D01*
X322075D01*
X322056Y303795D01*
X322036Y303799D01*
X322016Y303807D01*
X321996Y303815D01*
X321977Y303823D01*
X321961Y303831D01*
X321941Y303838D01*
X321926Y303850D01*
X321906Y303862D01*
X321890Y303874D01*
X321874Y303890D01*
X321859Y303901D01*
X321847Y303917D01*
X321831Y303933D01*
X321819Y303949D01*
X321808Y303968D01*
X321796Y303984D01*
X321788Y304004D01*
X321780Y304019D01*
X321772Y304039D01*
X321764Y304059D01*
X321756Y304079D01*
X321752Y304098D01*
X321748Y304118D01*
Y304142D01*
X321744Y304161D01*
Y305893D01*
X321748Y305913D01*
Y305937D01*
X321752Y305957D01*
X321756Y305976D01*
X321764Y305996D01*
X321772Y306016D01*
X321780Y306035D01*
X321788Y306051D01*
X321796Y306071D01*
X321808Y306086D01*
X321819Y306106D01*
X321831Y306122D01*
X321847Y306138D01*
X321859Y306153D01*
X321874Y306165D01*
X321890Y306181D01*
X321906Y306193D01*
X321926Y306205D01*
X321941Y306216D01*
X321961Y306224D01*
X321977Y306232D01*
X321996Y306240D01*
X322016Y306248D01*
X322036Y306256D01*
X322056Y306260D01*
X322075Y306264D01*
X322099D01*
X322118Y306268D01*
X325229D01*
X325248Y306264D01*
D02*
G37*
G36*
X238634D02*
X238658D01*
X238678Y306260D01*
X238697Y306256D01*
X238717Y306248D01*
X238737Y306240D01*
X238756Y306232D01*
X238772Y306224D01*
X238792Y306216D01*
X238808Y306205D01*
X238827Y306193D01*
X238843Y306181D01*
X238859Y306165D01*
X238874Y306153D01*
X238886Y306138D01*
X238902Y306122D01*
X238914Y306106D01*
X238926Y306086D01*
X238937Y306071D01*
X238945Y306051D01*
X238953Y306035D01*
X238961Y306016D01*
X238969Y305996D01*
X238977Y305976D01*
X238981Y305957D01*
X238985Y305937D01*
Y305913D01*
X238989Y305893D01*
Y304161D01*
X238985Y304142D01*
Y304118D01*
X238981Y304098D01*
X238977Y304079D01*
X238969Y304059D01*
X238961Y304039D01*
X238953Y304019D01*
X238945Y304004D01*
X238937Y303984D01*
X238926Y303968D01*
X238914Y303949D01*
X238902Y303933D01*
X238886Y303917D01*
X238874Y303901D01*
X238859Y303890D01*
X238843Y303874D01*
X238827Y303862D01*
X238808Y303850D01*
X238792Y303838D01*
X238772Y303831D01*
X238756Y303823D01*
X238737Y303815D01*
X238717Y303807D01*
X238697Y303799D01*
X238678Y303795D01*
X238658Y303791D01*
X238634D01*
X238615Y303787D01*
X235504D01*
X235485Y303791D01*
X235461D01*
X235441Y303795D01*
X235422Y303799D01*
X235402Y303807D01*
X235382Y303815D01*
X235363Y303823D01*
X235347Y303831D01*
X235327Y303838D01*
X235311Y303850D01*
X235292Y303862D01*
X235276Y303874D01*
X235260Y303890D01*
X235244Y303901D01*
X235233Y303917D01*
X235217Y303933D01*
X235205Y303949D01*
X235193Y303968D01*
X235181Y303984D01*
X235174Y304004D01*
X235166Y304019D01*
X235158Y304039D01*
X235150Y304059D01*
X235142Y304079D01*
X235138Y304098D01*
X235134Y304118D01*
Y304142D01*
X235130Y304161D01*
Y305893D01*
X235134Y305913D01*
Y305937D01*
X235138Y305957D01*
X235142Y305976D01*
X235150Y305996D01*
X235158Y306016D01*
X235166Y306035D01*
X235174Y306051D01*
X235181Y306071D01*
X235193Y306086D01*
X235205Y306106D01*
X235217Y306122D01*
X235233Y306138D01*
X235244Y306153D01*
X235260Y306165D01*
X235276Y306181D01*
X235292Y306193D01*
X235311Y306205D01*
X235327Y306216D01*
X235347Y306224D01*
X235363Y306232D01*
X235382Y306240D01*
X235402Y306248D01*
X235422Y306256D01*
X235441Y306260D01*
X235461Y306264D01*
X235485D01*
X235504Y306268D01*
X238615D01*
X238634Y306264D01*
D02*
G37*
G36*
X325248Y301933D02*
X325272D01*
X325292Y301929D01*
X325311Y301925D01*
X325331Y301917D01*
X325351Y301909D01*
X325371Y301901D01*
X325386Y301893D01*
X325406Y301886D01*
X325422Y301874D01*
X325441Y301862D01*
X325457Y301850D01*
X325473Y301835D01*
X325489Y301823D01*
X325500Y301807D01*
X325516Y301791D01*
X325528Y301775D01*
X325540Y301756D01*
X325552Y301740D01*
X325559Y301720D01*
X325567Y301705D01*
X325575Y301685D01*
X325583Y301665D01*
X325591Y301645D01*
X325595Y301626D01*
X325599Y301606D01*
Y301583D01*
X325603Y301563D01*
Y299831D01*
X325599Y299811D01*
Y299787D01*
X325595Y299768D01*
X325591Y299748D01*
X325583Y299728D01*
X325575Y299709D01*
X325567Y299689D01*
X325559Y299673D01*
X325552Y299653D01*
X325540Y299638D01*
X325528Y299618D01*
X325516Y299602D01*
X325500Y299587D01*
X325489Y299571D01*
X325473Y299559D01*
X325457Y299543D01*
X325441Y299531D01*
X325422Y299519D01*
X325406Y299508D01*
X325386Y299500D01*
X325371Y299492D01*
X325351Y299484D01*
X325331Y299476D01*
X325311Y299468D01*
X325292Y299464D01*
X325272Y299461D01*
X325248D01*
X325229Y299457D01*
X322118D01*
X322099Y299461D01*
X322075D01*
X322056Y299464D01*
X322036Y299468D01*
X322016Y299476D01*
X321996Y299484D01*
X321977Y299492D01*
X321961Y299500D01*
X321941Y299508D01*
X321926Y299519D01*
X321906Y299531D01*
X321890Y299543D01*
X321874Y299559D01*
X321859Y299571D01*
X321847Y299587D01*
X321831Y299602D01*
X321819Y299618D01*
X321808Y299638D01*
X321796Y299653D01*
X321788Y299673D01*
X321780Y299689D01*
X321772Y299709D01*
X321764Y299728D01*
X321756Y299748D01*
X321752Y299768D01*
X321748Y299787D01*
Y299811D01*
X321744Y299831D01*
Y301563D01*
X321748Y301583D01*
Y301606D01*
X321752Y301626D01*
X321756Y301645D01*
X321764Y301665D01*
X321772Y301685D01*
X321780Y301705D01*
X321788Y301720D01*
X321796Y301740D01*
X321808Y301756D01*
X321819Y301775D01*
X321831Y301791D01*
X321847Y301807D01*
X321859Y301823D01*
X321874Y301835D01*
X321890Y301850D01*
X321906Y301862D01*
X321926Y301874D01*
X321941Y301886D01*
X321961Y301893D01*
X321977Y301901D01*
X321996Y301909D01*
X322016Y301917D01*
X322036Y301925D01*
X322056Y301929D01*
X322075Y301933D01*
X322099D01*
X322118Y301937D01*
X325229D01*
X325248Y301933D01*
D02*
G37*
G36*
X238634D02*
X238658D01*
X238678Y301929D01*
X238697Y301925D01*
X238717Y301917D01*
X238737Y301909D01*
X238756Y301901D01*
X238772Y301893D01*
X238792Y301886D01*
X238808Y301874D01*
X238827Y301862D01*
X238843Y301850D01*
X238859Y301835D01*
X238874Y301823D01*
X238886Y301807D01*
X238902Y301791D01*
X238914Y301775D01*
X238926Y301756D01*
X238937Y301740D01*
X238945Y301720D01*
X238953Y301705D01*
X238961Y301685D01*
X238969Y301665D01*
X238977Y301645D01*
X238981Y301626D01*
X238985Y301606D01*
Y301583D01*
X238989Y301563D01*
Y299831D01*
X238985Y299811D01*
Y299787D01*
X238981Y299768D01*
X238977Y299748D01*
X238969Y299728D01*
X238961Y299709D01*
X238953Y299689D01*
X238945Y299673D01*
X238937Y299653D01*
X238926Y299638D01*
X238914Y299618D01*
X238902Y299602D01*
X238886Y299587D01*
X238874Y299571D01*
X238859Y299559D01*
X238843Y299543D01*
X238827Y299531D01*
X238808Y299519D01*
X238792Y299508D01*
X238772Y299500D01*
X238756Y299492D01*
X238737Y299484D01*
X238717Y299476D01*
X238697Y299468D01*
X238678Y299464D01*
X238658Y299461D01*
X238634D01*
X238615Y299457D01*
X235504D01*
X235485Y299461D01*
X235461D01*
X235441Y299464D01*
X235422Y299468D01*
X235402Y299476D01*
X235382Y299484D01*
X235363Y299492D01*
X235347Y299500D01*
X235327Y299508D01*
X235311Y299519D01*
X235292Y299531D01*
X235276Y299543D01*
X235260Y299559D01*
X235244Y299571D01*
X235233Y299587D01*
X235217Y299602D01*
X235205Y299618D01*
X235193Y299638D01*
X235181Y299653D01*
X235174Y299673D01*
X235166Y299689D01*
X235158Y299709D01*
X235150Y299728D01*
X235142Y299748D01*
X235138Y299768D01*
X235134Y299787D01*
Y299811D01*
X235130Y299831D01*
Y301563D01*
X235134Y301583D01*
Y301606D01*
X235138Y301626D01*
X235142Y301645D01*
X235150Y301665D01*
X235158Y301685D01*
X235166Y301705D01*
X235174Y301720D01*
X235181Y301740D01*
X235193Y301756D01*
X235205Y301775D01*
X235217Y301791D01*
X235233Y301807D01*
X235244Y301823D01*
X235260Y301835D01*
X235276Y301850D01*
X235292Y301862D01*
X235311Y301874D01*
X235327Y301886D01*
X235347Y301893D01*
X235363Y301901D01*
X235382Y301909D01*
X235402Y301917D01*
X235422Y301925D01*
X235441Y301929D01*
X235461Y301933D01*
X235485D01*
X235504Y301937D01*
X238615D01*
X238634Y301933D01*
D02*
G37*
G36*
X325248Y297602D02*
X325272D01*
X325292Y297598D01*
X325311Y297594D01*
X325331Y297586D01*
X325351Y297579D01*
X325371Y297571D01*
X325386Y297563D01*
X325406Y297555D01*
X325422Y297543D01*
X325441Y297531D01*
X325457Y297519D01*
X325473Y297504D01*
X325489Y297492D01*
X325500Y297476D01*
X325516Y297461D01*
X325528Y297445D01*
X325540Y297425D01*
X325552Y297409D01*
X325559Y297390D01*
X325567Y297374D01*
X325575Y297354D01*
X325583Y297335D01*
X325591Y297315D01*
X325595Y297295D01*
X325599Y297275D01*
Y297252D01*
X325603Y297232D01*
Y295500D01*
X325599Y295480D01*
Y295457D01*
X325595Y295437D01*
X325591Y295417D01*
X325583Y295397D01*
X325575Y295378D01*
X325567Y295358D01*
X325559Y295342D01*
X325552Y295323D01*
X325540Y295307D01*
X325528Y295287D01*
X325516Y295271D01*
X325500Y295256D01*
X325489Y295240D01*
X325473Y295228D01*
X325457Y295212D01*
X325441Y295201D01*
X325422Y295189D01*
X325406Y295177D01*
X325386Y295169D01*
X325371Y295161D01*
X325351Y295153D01*
X325331Y295146D01*
X325311Y295138D01*
X325292Y295134D01*
X325272Y295130D01*
X325248D01*
X325229Y295126D01*
X322118D01*
X322099Y295130D01*
X322075D01*
X322056Y295134D01*
X322036Y295138D01*
X322016Y295146D01*
X321996Y295153D01*
X321977Y295161D01*
X321961Y295169D01*
X321941Y295177D01*
X321926Y295189D01*
X321906Y295201D01*
X321890Y295212D01*
X321874Y295228D01*
X321859Y295240D01*
X321847Y295256D01*
X321831Y295271D01*
X321819Y295287D01*
X321808Y295307D01*
X321796Y295323D01*
X321788Y295342D01*
X321780Y295358D01*
X321772Y295378D01*
X321764Y295397D01*
X321756Y295417D01*
X321752Y295437D01*
X321748Y295457D01*
Y295480D01*
X321744Y295500D01*
Y297232D01*
X321748Y297252D01*
Y297275D01*
X321752Y297295D01*
X321756Y297315D01*
X321764Y297335D01*
X321772Y297354D01*
X321780Y297374D01*
X321788Y297390D01*
X321796Y297409D01*
X321808Y297425D01*
X321819Y297445D01*
X321831Y297461D01*
X321847Y297476D01*
X321859Y297492D01*
X321874Y297504D01*
X321890Y297519D01*
X321906Y297531D01*
X321926Y297543D01*
X321941Y297555D01*
X321961Y297563D01*
X321977Y297571D01*
X321996Y297579D01*
X322016Y297586D01*
X322036Y297594D01*
X322056Y297598D01*
X322075Y297602D01*
X322099D01*
X322118Y297606D01*
X325229D01*
X325248Y297602D01*
D02*
G37*
G36*
X238634D02*
X238658D01*
X238678Y297598D01*
X238697Y297594D01*
X238717Y297586D01*
X238737Y297579D01*
X238756Y297571D01*
X238772Y297563D01*
X238792Y297555D01*
X238808Y297543D01*
X238827Y297531D01*
X238843Y297519D01*
X238859Y297504D01*
X238874Y297492D01*
X238886Y297476D01*
X238902Y297461D01*
X238914Y297445D01*
X238926Y297425D01*
X238937Y297409D01*
X238945Y297390D01*
X238953Y297374D01*
X238961Y297354D01*
X238969Y297335D01*
X238977Y297315D01*
X238981Y297295D01*
X238985Y297275D01*
Y297252D01*
X238989Y297232D01*
Y295500D01*
X238985Y295480D01*
Y295457D01*
X238981Y295437D01*
X238977Y295417D01*
X238969Y295397D01*
X238961Y295378D01*
X238953Y295358D01*
X238945Y295342D01*
X238937Y295323D01*
X238926Y295307D01*
X238914Y295287D01*
X238902Y295271D01*
X238886Y295256D01*
X238874Y295240D01*
X238859Y295228D01*
X238843Y295212D01*
X238827Y295201D01*
X238808Y295189D01*
X238792Y295177D01*
X238772Y295169D01*
X238756Y295161D01*
X238737Y295153D01*
X238717Y295146D01*
X238697Y295138D01*
X238678Y295134D01*
X238658Y295130D01*
X238634D01*
X238615Y295126D01*
X235504D01*
X235485Y295130D01*
X235461D01*
X235441Y295134D01*
X235422Y295138D01*
X235402Y295146D01*
X235382Y295153D01*
X235363Y295161D01*
X235347Y295169D01*
X235327Y295177D01*
X235311Y295189D01*
X235292Y295201D01*
X235276Y295212D01*
X235260Y295228D01*
X235244Y295240D01*
X235233Y295256D01*
X235217Y295271D01*
X235205Y295287D01*
X235193Y295307D01*
X235181Y295323D01*
X235174Y295342D01*
X235166Y295358D01*
X235158Y295378D01*
X235150Y295397D01*
X235142Y295417D01*
X235138Y295437D01*
X235134Y295457D01*
Y295480D01*
X235130Y295500D01*
Y297232D01*
X235134Y297252D01*
Y297275D01*
X235138Y297295D01*
X235142Y297315D01*
X235150Y297335D01*
X235158Y297354D01*
X235166Y297374D01*
X235174Y297390D01*
X235181Y297409D01*
X235193Y297425D01*
X235205Y297445D01*
X235217Y297461D01*
X235233Y297476D01*
X235244Y297492D01*
X235260Y297504D01*
X235276Y297519D01*
X235292Y297531D01*
X235311Y297543D01*
X235327Y297555D01*
X235347Y297563D01*
X235363Y297571D01*
X235382Y297579D01*
X235402Y297586D01*
X235422Y297594D01*
X235441Y297598D01*
X235461Y297602D01*
X235485D01*
X235504Y297606D01*
X238615D01*
X238634Y297602D01*
D02*
G37*
G36*
X325248Y293271D02*
X325272D01*
X325292Y293268D01*
X325311Y293264D01*
X325331Y293256D01*
X325351Y293248D01*
X325371Y293240D01*
X325386Y293232D01*
X325406Y293224D01*
X325422Y293212D01*
X325441Y293201D01*
X325457Y293189D01*
X325473Y293173D01*
X325489Y293161D01*
X325500Y293145D01*
X325516Y293130D01*
X325528Y293114D01*
X325540Y293094D01*
X325552Y293079D01*
X325559Y293059D01*
X325567Y293043D01*
X325575Y293023D01*
X325583Y293004D01*
X325591Y292984D01*
X325595Y292964D01*
X325599Y292945D01*
Y292921D01*
X325603Y292901D01*
Y291169D01*
X325599Y291149D01*
Y291126D01*
X325595Y291106D01*
X325591Y291087D01*
X325583Y291067D01*
X325575Y291047D01*
X325567Y291027D01*
X325559Y291012D01*
X325552Y290992D01*
X325540Y290976D01*
X325528Y290956D01*
X325516Y290941D01*
X325500Y290925D01*
X325489Y290909D01*
X325473Y290897D01*
X325457Y290882D01*
X325441Y290870D01*
X325422Y290858D01*
X325406Y290846D01*
X325386Y290838D01*
X325371Y290830D01*
X325351Y290823D01*
X325331Y290815D01*
X325311Y290807D01*
X325292Y290803D01*
X325272Y290799D01*
X325248D01*
X325229Y290795D01*
X322118D01*
X322099Y290799D01*
X322075D01*
X322056Y290803D01*
X322036Y290807D01*
X322016Y290815D01*
X321996Y290823D01*
X321977Y290830D01*
X321961Y290838D01*
X321941Y290846D01*
X321926Y290858D01*
X321906Y290870D01*
X321890Y290882D01*
X321874Y290897D01*
X321859Y290909D01*
X321847Y290925D01*
X321831Y290941D01*
X321819Y290956D01*
X321808Y290976D01*
X321796Y290992D01*
X321788Y291012D01*
X321780Y291027D01*
X321772Y291047D01*
X321764Y291067D01*
X321756Y291087D01*
X321752Y291106D01*
X321748Y291126D01*
Y291149D01*
X321744Y291169D01*
Y292901D01*
X321748Y292921D01*
Y292945D01*
X321752Y292964D01*
X321756Y292984D01*
X321764Y293004D01*
X321772Y293023D01*
X321780Y293043D01*
X321788Y293059D01*
X321796Y293079D01*
X321808Y293094D01*
X321819Y293114D01*
X321831Y293130D01*
X321847Y293145D01*
X321859Y293161D01*
X321874Y293173D01*
X321890Y293189D01*
X321906Y293201D01*
X321926Y293212D01*
X321941Y293224D01*
X321961Y293232D01*
X321977Y293240D01*
X321996Y293248D01*
X322016Y293256D01*
X322036Y293264D01*
X322056Y293268D01*
X322075Y293271D01*
X322099D01*
X322118Y293275D01*
X325229D01*
X325248Y293271D01*
D02*
G37*
G36*
X238634D02*
X238658D01*
X238678Y293268D01*
X238697Y293264D01*
X238717Y293256D01*
X238737Y293248D01*
X238756Y293240D01*
X238772Y293232D01*
X238792Y293224D01*
X238808Y293212D01*
X238827Y293201D01*
X238843Y293189D01*
X238859Y293173D01*
X238874Y293161D01*
X238886Y293145D01*
X238902Y293130D01*
X238914Y293114D01*
X238926Y293094D01*
X238937Y293079D01*
X238945Y293059D01*
X238953Y293043D01*
X238961Y293023D01*
X238969Y293004D01*
X238977Y292984D01*
X238981Y292964D01*
X238985Y292945D01*
Y292921D01*
X238989Y292901D01*
Y291169D01*
X238985Y291149D01*
Y291126D01*
X238981Y291106D01*
X238977Y291087D01*
X238969Y291067D01*
X238961Y291047D01*
X238953Y291027D01*
X238945Y291012D01*
X238937Y290992D01*
X238926Y290976D01*
X238914Y290956D01*
X238902Y290941D01*
X238886Y290925D01*
X238874Y290909D01*
X238859Y290897D01*
X238843Y290882D01*
X238827Y290870D01*
X238808Y290858D01*
X238792Y290846D01*
X238772Y290838D01*
X238756Y290830D01*
X238737Y290823D01*
X238717Y290815D01*
X238697Y290807D01*
X238678Y290803D01*
X238658Y290799D01*
X238634D01*
X238615Y290795D01*
X235504D01*
X235485Y290799D01*
X235461D01*
X235441Y290803D01*
X235422Y290807D01*
X235402Y290815D01*
X235382Y290823D01*
X235363Y290830D01*
X235347Y290838D01*
X235327Y290846D01*
X235311Y290858D01*
X235292Y290870D01*
X235276Y290882D01*
X235260Y290897D01*
X235244Y290909D01*
X235233Y290925D01*
X235217Y290941D01*
X235205Y290956D01*
X235193Y290976D01*
X235181Y290992D01*
X235174Y291012D01*
X235166Y291027D01*
X235158Y291047D01*
X235150Y291067D01*
X235142Y291087D01*
X235138Y291106D01*
X235134Y291126D01*
Y291149D01*
X235130Y291169D01*
Y292901D01*
X235134Y292921D01*
Y292945D01*
X235138Y292964D01*
X235142Y292984D01*
X235150Y293004D01*
X235158Y293023D01*
X235166Y293043D01*
X235174Y293059D01*
X235181Y293079D01*
X235193Y293094D01*
X235205Y293114D01*
X235217Y293130D01*
X235233Y293145D01*
X235244Y293161D01*
X235260Y293173D01*
X235276Y293189D01*
X235292Y293201D01*
X235311Y293212D01*
X235327Y293224D01*
X235347Y293232D01*
X235363Y293240D01*
X235382Y293248D01*
X235402Y293256D01*
X235422Y293264D01*
X235441Y293268D01*
X235461Y293271D01*
X235485D01*
X235504Y293275D01*
X238615D01*
X238634Y293271D01*
D02*
G37*
G36*
X325248Y288941D02*
X325272D01*
X325292Y288937D01*
X325311Y288933D01*
X325331Y288925D01*
X325351Y288917D01*
X325371Y288909D01*
X325386Y288901D01*
X325406Y288894D01*
X325422Y288882D01*
X325441Y288870D01*
X325457Y288858D01*
X325473Y288842D01*
X325489Y288830D01*
X325500Y288815D01*
X325516Y288799D01*
X325528Y288783D01*
X325540Y288764D01*
X325552Y288748D01*
X325559Y288728D01*
X325567Y288712D01*
X325575Y288693D01*
X325583Y288673D01*
X325591Y288653D01*
X325595Y288634D01*
X325599Y288614D01*
Y288590D01*
X325603Y288571D01*
Y286838D01*
X325599Y286819D01*
Y286795D01*
X325595Y286775D01*
X325591Y286756D01*
X325583Y286736D01*
X325575Y286716D01*
X325567Y286697D01*
X325559Y286681D01*
X325552Y286661D01*
X325540Y286646D01*
X325528Y286626D01*
X325516Y286610D01*
X325500Y286594D01*
X325489Y286579D01*
X325473Y286567D01*
X325457Y286551D01*
X325441Y286539D01*
X325422Y286527D01*
X325406Y286516D01*
X325386Y286508D01*
X325371Y286500D01*
X325351Y286492D01*
X325331Y286484D01*
X325311Y286476D01*
X325292Y286472D01*
X325272Y286468D01*
X325248D01*
X325229Y286464D01*
X322118D01*
X322099Y286468D01*
X322075D01*
X322056Y286472D01*
X322036Y286476D01*
X322016Y286484D01*
X321996Y286492D01*
X321977Y286500D01*
X321961Y286508D01*
X321941Y286516D01*
X321926Y286527D01*
X321906Y286539D01*
X321890Y286551D01*
X321874Y286567D01*
X321859Y286579D01*
X321847Y286594D01*
X321831Y286610D01*
X321819Y286626D01*
X321808Y286646D01*
X321796Y286661D01*
X321788Y286681D01*
X321780Y286697D01*
X321772Y286716D01*
X321764Y286736D01*
X321756Y286756D01*
X321752Y286775D01*
X321748Y286795D01*
Y286819D01*
X321744Y286838D01*
Y288571D01*
X321748Y288590D01*
Y288614D01*
X321752Y288634D01*
X321756Y288653D01*
X321764Y288673D01*
X321772Y288693D01*
X321780Y288712D01*
X321788Y288728D01*
X321796Y288748D01*
X321808Y288764D01*
X321819Y288783D01*
X321831Y288799D01*
X321847Y288815D01*
X321859Y288830D01*
X321874Y288842D01*
X321890Y288858D01*
X321906Y288870D01*
X321926Y288882D01*
X321941Y288894D01*
X321961Y288901D01*
X321977Y288909D01*
X321996Y288917D01*
X322016Y288925D01*
X322036Y288933D01*
X322056Y288937D01*
X322075Y288941D01*
X322099D01*
X322118Y288945D01*
X325229D01*
X325248Y288941D01*
D02*
G37*
G36*
X238634D02*
X238658D01*
X238678Y288937D01*
X238697Y288933D01*
X238717Y288925D01*
X238737Y288917D01*
X238756Y288909D01*
X238772Y288901D01*
X238792Y288894D01*
X238808Y288882D01*
X238827Y288870D01*
X238843Y288858D01*
X238859Y288842D01*
X238874Y288830D01*
X238886Y288815D01*
X238902Y288799D01*
X238914Y288783D01*
X238926Y288764D01*
X238937Y288748D01*
X238945Y288728D01*
X238953Y288712D01*
X238961Y288693D01*
X238969Y288673D01*
X238977Y288653D01*
X238981Y288634D01*
X238985Y288614D01*
Y288590D01*
X238989Y288571D01*
Y286838D01*
X238985Y286819D01*
Y286795D01*
X238981Y286775D01*
X238977Y286756D01*
X238969Y286736D01*
X238961Y286716D01*
X238953Y286697D01*
X238945Y286681D01*
X238937Y286661D01*
X238926Y286646D01*
X238914Y286626D01*
X238902Y286610D01*
X238886Y286594D01*
X238874Y286579D01*
X238859Y286567D01*
X238843Y286551D01*
X238827Y286539D01*
X238808Y286527D01*
X238792Y286516D01*
X238772Y286508D01*
X238756Y286500D01*
X238737Y286492D01*
X238717Y286484D01*
X238697Y286476D01*
X238678Y286472D01*
X238658Y286468D01*
X238634D01*
X238615Y286464D01*
X235504D01*
X235485Y286468D01*
X235461D01*
X235441Y286472D01*
X235422Y286476D01*
X235402Y286484D01*
X235382Y286492D01*
X235363Y286500D01*
X235347Y286508D01*
X235327Y286516D01*
X235311Y286527D01*
X235292Y286539D01*
X235276Y286551D01*
X235260Y286567D01*
X235244Y286579D01*
X235233Y286594D01*
X235217Y286610D01*
X235205Y286626D01*
X235193Y286646D01*
X235181Y286661D01*
X235174Y286681D01*
X235166Y286697D01*
X235158Y286716D01*
X235150Y286736D01*
X235142Y286756D01*
X235138Y286775D01*
X235134Y286795D01*
Y286819D01*
X235130Y286838D01*
Y288571D01*
X235134Y288590D01*
Y288614D01*
X235138Y288634D01*
X235142Y288653D01*
X235150Y288673D01*
X235158Y288693D01*
X235166Y288712D01*
X235174Y288728D01*
X235181Y288748D01*
X235193Y288764D01*
X235205Y288783D01*
X235217Y288799D01*
X235233Y288815D01*
X235244Y288830D01*
X235260Y288842D01*
X235276Y288858D01*
X235292Y288870D01*
X235311Y288882D01*
X235327Y288894D01*
X235347Y288901D01*
X235363Y288909D01*
X235382Y288917D01*
X235402Y288925D01*
X235422Y288933D01*
X235441Y288937D01*
X235461Y288941D01*
X235485D01*
X235504Y288945D01*
X238615D01*
X238634Y288941D01*
D02*
G37*
G36*
X325248Y284610D02*
X325272D01*
X325292Y284606D01*
X325311Y284602D01*
X325331Y284594D01*
X325351Y284587D01*
X325371Y284579D01*
X325386Y284571D01*
X325406Y284563D01*
X325422Y284551D01*
X325441Y284539D01*
X325457Y284527D01*
X325473Y284512D01*
X325489Y284500D01*
X325500Y284484D01*
X325516Y284468D01*
X325528Y284453D01*
X325540Y284433D01*
X325552Y284417D01*
X325559Y284398D01*
X325567Y284382D01*
X325575Y284362D01*
X325583Y284342D01*
X325591Y284323D01*
X325595Y284303D01*
X325599Y284283D01*
Y284260D01*
X325603Y284240D01*
Y282508D01*
X325599Y282488D01*
Y282464D01*
X325595Y282445D01*
X325591Y282425D01*
X325583Y282405D01*
X325575Y282386D01*
X325567Y282366D01*
X325559Y282350D01*
X325552Y282330D01*
X325540Y282315D01*
X325528Y282295D01*
X325516Y282279D01*
X325500Y282264D01*
X325489Y282248D01*
X325473Y282236D01*
X325457Y282220D01*
X325441Y282208D01*
X325422Y282197D01*
X325406Y282185D01*
X325386Y282177D01*
X325371Y282169D01*
X325351Y282161D01*
X325331Y282153D01*
X325311Y282146D01*
X325292Y282142D01*
X325272Y282138D01*
X325248D01*
X325229Y282134D01*
X322118D01*
X322099Y282138D01*
X322075D01*
X322056Y282142D01*
X322036Y282146D01*
X322016Y282153D01*
X321996Y282161D01*
X321977Y282169D01*
X321961Y282177D01*
X321941Y282185D01*
X321926Y282197D01*
X321906Y282208D01*
X321890Y282220D01*
X321874Y282236D01*
X321859Y282248D01*
X321847Y282264D01*
X321831Y282279D01*
X321819Y282295D01*
X321808Y282315D01*
X321796Y282330D01*
X321788Y282350D01*
X321780Y282366D01*
X321772Y282386D01*
X321764Y282405D01*
X321756Y282425D01*
X321752Y282445D01*
X321748Y282464D01*
Y282488D01*
X321744Y282508D01*
Y284240D01*
X321748Y284260D01*
Y284283D01*
X321752Y284303D01*
X321756Y284323D01*
X321764Y284342D01*
X321772Y284362D01*
X321780Y284382D01*
X321788Y284398D01*
X321796Y284417D01*
X321808Y284433D01*
X321819Y284453D01*
X321831Y284468D01*
X321847Y284484D01*
X321859Y284500D01*
X321874Y284512D01*
X321890Y284527D01*
X321906Y284539D01*
X321926Y284551D01*
X321941Y284563D01*
X321961Y284571D01*
X321977Y284579D01*
X321996Y284587D01*
X322016Y284594D01*
X322036Y284602D01*
X322056Y284606D01*
X322075Y284610D01*
X322099D01*
X322118Y284614D01*
X325229D01*
X325248Y284610D01*
D02*
G37*
G36*
X238634D02*
X238658D01*
X238678Y284606D01*
X238697Y284602D01*
X238717Y284594D01*
X238737Y284587D01*
X238756Y284579D01*
X238772Y284571D01*
X238792Y284563D01*
X238808Y284551D01*
X238827Y284539D01*
X238843Y284527D01*
X238859Y284512D01*
X238874Y284500D01*
X238886Y284484D01*
X238902Y284468D01*
X238914Y284453D01*
X238926Y284433D01*
X238937Y284417D01*
X238945Y284398D01*
X238953Y284382D01*
X238961Y284362D01*
X238969Y284342D01*
X238977Y284323D01*
X238981Y284303D01*
X238985Y284283D01*
Y284260D01*
X238989Y284240D01*
Y282508D01*
X238985Y282488D01*
Y282464D01*
X238981Y282445D01*
X238977Y282425D01*
X238969Y282405D01*
X238961Y282386D01*
X238953Y282366D01*
X238945Y282350D01*
X238937Y282330D01*
X238926Y282315D01*
X238914Y282295D01*
X238902Y282279D01*
X238886Y282264D01*
X238874Y282248D01*
X238859Y282236D01*
X238843Y282220D01*
X238827Y282208D01*
X238808Y282197D01*
X238792Y282185D01*
X238772Y282177D01*
X238756Y282169D01*
X238737Y282161D01*
X238717Y282153D01*
X238697Y282146D01*
X238678Y282142D01*
X238658Y282138D01*
X238634D01*
X238615Y282134D01*
X235504D01*
X235485Y282138D01*
X235461D01*
X235441Y282142D01*
X235422Y282146D01*
X235402Y282153D01*
X235382Y282161D01*
X235363Y282169D01*
X235347Y282177D01*
X235327Y282185D01*
X235311Y282197D01*
X235292Y282208D01*
X235276Y282220D01*
X235260Y282236D01*
X235244Y282248D01*
X235233Y282264D01*
X235217Y282279D01*
X235205Y282295D01*
X235193Y282315D01*
X235181Y282330D01*
X235174Y282350D01*
X235166Y282366D01*
X235158Y282386D01*
X235150Y282405D01*
X235142Y282425D01*
X235138Y282445D01*
X235134Y282464D01*
Y282488D01*
X235130Y282508D01*
Y284240D01*
X235134Y284260D01*
Y284283D01*
X235138Y284303D01*
X235142Y284323D01*
X235150Y284342D01*
X235158Y284362D01*
X235166Y284382D01*
X235174Y284398D01*
X235181Y284417D01*
X235193Y284433D01*
X235205Y284453D01*
X235217Y284468D01*
X235233Y284484D01*
X235244Y284500D01*
X235260Y284512D01*
X235276Y284527D01*
X235292Y284539D01*
X235311Y284551D01*
X235327Y284563D01*
X235347Y284571D01*
X235363Y284579D01*
X235382Y284587D01*
X235402Y284594D01*
X235422Y284602D01*
X235441Y284606D01*
X235461Y284610D01*
X235485D01*
X235504Y284614D01*
X238615D01*
X238634Y284610D01*
D02*
G37*
G36*
X325248Y274768D02*
X325272D01*
X325292Y274764D01*
X325311Y274760D01*
X325331Y274752D01*
X325351Y274744D01*
X325371Y274736D01*
X325386Y274728D01*
X325406Y274720D01*
X325422Y274709D01*
X325441Y274697D01*
X325457Y274685D01*
X325473Y274669D01*
X325489Y274657D01*
X325500Y274642D01*
X325516Y274626D01*
X325528Y274610D01*
X325540Y274590D01*
X325552Y274575D01*
X325559Y274555D01*
X325567Y274539D01*
X325575Y274519D01*
X325583Y274500D01*
X325591Y274480D01*
X325595Y274461D01*
X325599Y274441D01*
Y274417D01*
X325603Y274397D01*
Y272665D01*
X325599Y272645D01*
Y272622D01*
X325595Y272602D01*
X325591Y272583D01*
X325583Y272563D01*
X325575Y272543D01*
X325567Y272523D01*
X325559Y272508D01*
X325552Y272488D01*
X325540Y272472D01*
X325528Y272453D01*
X325516Y272437D01*
X325500Y272421D01*
X325489Y272405D01*
X325473Y272393D01*
X325457Y272378D01*
X325441Y272366D01*
X325422Y272354D01*
X325406Y272342D01*
X325386Y272335D01*
X325371Y272327D01*
X325351Y272319D01*
X325331Y272311D01*
X325311Y272303D01*
X325292Y272299D01*
X325272Y272295D01*
X325248D01*
X325229Y272291D01*
X322118D01*
X322099Y272295D01*
X322075D01*
X322056Y272299D01*
X322036Y272303D01*
X322016Y272311D01*
X321996Y272319D01*
X321977Y272327D01*
X321961Y272335D01*
X321941Y272342D01*
X321926Y272354D01*
X321906Y272366D01*
X321890Y272378D01*
X321874Y272393D01*
X321859Y272405D01*
X321847Y272421D01*
X321831Y272437D01*
X321819Y272453D01*
X321808Y272472D01*
X321796Y272488D01*
X321788Y272508D01*
X321780Y272523D01*
X321772Y272543D01*
X321764Y272563D01*
X321756Y272583D01*
X321752Y272602D01*
X321748Y272622D01*
Y272645D01*
X321744Y272665D01*
Y274397D01*
X321748Y274417D01*
Y274441D01*
X321752Y274461D01*
X321756Y274480D01*
X321764Y274500D01*
X321772Y274519D01*
X321780Y274539D01*
X321788Y274555D01*
X321796Y274575D01*
X321808Y274590D01*
X321819Y274610D01*
X321831Y274626D01*
X321847Y274642D01*
X321859Y274657D01*
X321874Y274669D01*
X321890Y274685D01*
X321906Y274697D01*
X321926Y274709D01*
X321941Y274720D01*
X321961Y274728D01*
X321977Y274736D01*
X321996Y274744D01*
X322016Y274752D01*
X322036Y274760D01*
X322056Y274764D01*
X322075Y274768D01*
X322099D01*
X322118Y274771D01*
X325229D01*
X325248Y274768D01*
D02*
G37*
G36*
X238634D02*
X238658D01*
X238678Y274764D01*
X238697Y274760D01*
X238717Y274752D01*
X238737Y274744D01*
X238756Y274736D01*
X238772Y274728D01*
X238792Y274720D01*
X238808Y274709D01*
X238827Y274697D01*
X238843Y274685D01*
X238859Y274669D01*
X238874Y274657D01*
X238886Y274642D01*
X238902Y274626D01*
X238914Y274610D01*
X238926Y274590D01*
X238937Y274575D01*
X238945Y274555D01*
X238953Y274539D01*
X238961Y274519D01*
X238969Y274500D01*
X238977Y274480D01*
X238981Y274461D01*
X238985Y274441D01*
Y274417D01*
X238989Y274397D01*
Y272665D01*
X238985Y272645D01*
Y272622D01*
X238981Y272602D01*
X238977Y272583D01*
X238969Y272563D01*
X238961Y272543D01*
X238953Y272523D01*
X238945Y272508D01*
X238937Y272488D01*
X238926Y272472D01*
X238914Y272453D01*
X238902Y272437D01*
X238886Y272421D01*
X238874Y272405D01*
X238859Y272393D01*
X238843Y272378D01*
X238827Y272366D01*
X238808Y272354D01*
X238792Y272342D01*
X238772Y272335D01*
X238756Y272327D01*
X238737Y272319D01*
X238717Y272311D01*
X238697Y272303D01*
X238678Y272299D01*
X238658Y272295D01*
X238634D01*
X238615Y272291D01*
X235504D01*
X235485Y272295D01*
X235461D01*
X235441Y272299D01*
X235422Y272303D01*
X235402Y272311D01*
X235382Y272319D01*
X235363Y272327D01*
X235347Y272335D01*
X235327Y272342D01*
X235311Y272354D01*
X235292Y272366D01*
X235276Y272378D01*
X235260Y272393D01*
X235244Y272405D01*
X235233Y272421D01*
X235217Y272437D01*
X235205Y272453D01*
X235193Y272472D01*
X235181Y272488D01*
X235174Y272508D01*
X235166Y272523D01*
X235158Y272543D01*
X235150Y272563D01*
X235142Y272583D01*
X235138Y272602D01*
X235134Y272622D01*
Y272645D01*
X235130Y272665D01*
Y274397D01*
X235134Y274417D01*
Y274441D01*
X235138Y274461D01*
X235142Y274480D01*
X235150Y274500D01*
X235158Y274519D01*
X235166Y274539D01*
X235174Y274555D01*
X235181Y274575D01*
X235193Y274590D01*
X235205Y274610D01*
X235217Y274626D01*
X235233Y274642D01*
X235244Y274657D01*
X235260Y274669D01*
X235276Y274685D01*
X235292Y274697D01*
X235311Y274709D01*
X235327Y274720D01*
X235347Y274728D01*
X235363Y274736D01*
X235382Y274744D01*
X235402Y274752D01*
X235422Y274760D01*
X235441Y274764D01*
X235461Y274768D01*
X235485D01*
X235504Y274771D01*
X238615D01*
X238634Y274768D01*
D02*
G37*
G36*
X325248Y270437D02*
X325272D01*
X325292Y270433D01*
X325311Y270429D01*
X325331Y270421D01*
X325351Y270413D01*
X325371Y270405D01*
X325386Y270397D01*
X325406Y270390D01*
X325422Y270378D01*
X325441Y270366D01*
X325457Y270354D01*
X325473Y270338D01*
X325489Y270327D01*
X325500Y270311D01*
X325516Y270295D01*
X325528Y270279D01*
X325540Y270260D01*
X325552Y270244D01*
X325559Y270224D01*
X325567Y270209D01*
X325575Y270189D01*
X325583Y270169D01*
X325591Y270149D01*
X325595Y270130D01*
X325599Y270110D01*
Y270087D01*
X325603Y270067D01*
Y268335D01*
X325599Y268315D01*
Y268291D01*
X325595Y268271D01*
X325591Y268252D01*
X325583Y268232D01*
X325575Y268212D01*
X325567Y268193D01*
X325559Y268177D01*
X325552Y268157D01*
X325540Y268142D01*
X325528Y268122D01*
X325516Y268106D01*
X325500Y268090D01*
X325489Y268075D01*
X325473Y268063D01*
X325457Y268047D01*
X325441Y268035D01*
X325422Y268023D01*
X325406Y268012D01*
X325386Y268004D01*
X325371Y267996D01*
X325351Y267988D01*
X325331Y267980D01*
X325311Y267972D01*
X325292Y267968D01*
X325272Y267964D01*
X325248D01*
X325229Y267961D01*
X322118D01*
X322099Y267964D01*
X322075D01*
X322056Y267968D01*
X322036Y267972D01*
X322016Y267980D01*
X321996Y267988D01*
X321977Y267996D01*
X321961Y268004D01*
X321941Y268012D01*
X321926Y268023D01*
X321906Y268035D01*
X321890Y268047D01*
X321874Y268063D01*
X321859Y268075D01*
X321847Y268090D01*
X321831Y268106D01*
X321819Y268122D01*
X321808Y268142D01*
X321796Y268157D01*
X321788Y268177D01*
X321780Y268193D01*
X321772Y268212D01*
X321764Y268232D01*
X321756Y268252D01*
X321752Y268271D01*
X321748Y268291D01*
Y268315D01*
X321744Y268335D01*
Y270067D01*
X321748Y270087D01*
Y270110D01*
X321752Y270130D01*
X321756Y270149D01*
X321764Y270169D01*
X321772Y270189D01*
X321780Y270209D01*
X321788Y270224D01*
X321796Y270244D01*
X321808Y270260D01*
X321819Y270279D01*
X321831Y270295D01*
X321847Y270311D01*
X321859Y270327D01*
X321874Y270338D01*
X321890Y270354D01*
X321906Y270366D01*
X321926Y270378D01*
X321941Y270390D01*
X321961Y270397D01*
X321977Y270405D01*
X321996Y270413D01*
X322016Y270421D01*
X322036Y270429D01*
X322056Y270433D01*
X322075Y270437D01*
X322099D01*
X322118Y270441D01*
X325229D01*
X325248Y270437D01*
D02*
G37*
G36*
X238634D02*
X238658D01*
X238678Y270433D01*
X238697Y270429D01*
X238717Y270421D01*
X238737Y270413D01*
X238756Y270405D01*
X238772Y270397D01*
X238792Y270390D01*
X238808Y270378D01*
X238827Y270366D01*
X238843Y270354D01*
X238859Y270338D01*
X238874Y270327D01*
X238886Y270311D01*
X238902Y270295D01*
X238914Y270279D01*
X238926Y270260D01*
X238937Y270244D01*
X238945Y270224D01*
X238953Y270209D01*
X238961Y270189D01*
X238969Y270169D01*
X238977Y270149D01*
X238981Y270130D01*
X238985Y270110D01*
Y270087D01*
X238989Y270067D01*
Y268335D01*
X238985Y268315D01*
Y268291D01*
X238981Y268271D01*
X238977Y268252D01*
X238969Y268232D01*
X238961Y268212D01*
X238953Y268193D01*
X238945Y268177D01*
X238937Y268157D01*
X238926Y268142D01*
X238914Y268122D01*
X238902Y268106D01*
X238886Y268090D01*
X238874Y268075D01*
X238859Y268063D01*
X238843Y268047D01*
X238827Y268035D01*
X238808Y268023D01*
X238792Y268012D01*
X238772Y268004D01*
X238756Y267996D01*
X238737Y267988D01*
X238717Y267980D01*
X238697Y267972D01*
X238678Y267968D01*
X238658Y267964D01*
X238634D01*
X238615Y267961D01*
X235504D01*
X235485Y267964D01*
X235461D01*
X235441Y267968D01*
X235422Y267972D01*
X235402Y267980D01*
X235382Y267988D01*
X235363Y267996D01*
X235347Y268004D01*
X235327Y268012D01*
X235311Y268023D01*
X235292Y268035D01*
X235276Y268047D01*
X235260Y268063D01*
X235244Y268075D01*
X235233Y268090D01*
X235217Y268106D01*
X235205Y268122D01*
X235193Y268142D01*
X235181Y268157D01*
X235174Y268177D01*
X235166Y268193D01*
X235158Y268212D01*
X235150Y268232D01*
X235142Y268252D01*
X235138Y268271D01*
X235134Y268291D01*
Y268315D01*
X235130Y268335D01*
Y270067D01*
X235134Y270087D01*
Y270110D01*
X235138Y270130D01*
X235142Y270149D01*
X235150Y270169D01*
X235158Y270189D01*
X235166Y270209D01*
X235174Y270224D01*
X235181Y270244D01*
X235193Y270260D01*
X235205Y270279D01*
X235217Y270295D01*
X235233Y270311D01*
X235244Y270327D01*
X235260Y270338D01*
X235276Y270354D01*
X235292Y270366D01*
X235311Y270378D01*
X235327Y270390D01*
X235347Y270397D01*
X235363Y270405D01*
X235382Y270413D01*
X235402Y270421D01*
X235422Y270429D01*
X235441Y270433D01*
X235461Y270437D01*
X235485D01*
X235504Y270441D01*
X238615D01*
X238634Y270437D01*
D02*
G37*
G36*
X325248Y266106D02*
X325272D01*
X325292Y266102D01*
X325311Y266098D01*
X325331Y266090D01*
X325351Y266083D01*
X325371Y266075D01*
X325386Y266067D01*
X325406Y266059D01*
X325422Y266047D01*
X325441Y266035D01*
X325457Y266023D01*
X325473Y266008D01*
X325489Y265996D01*
X325500Y265980D01*
X325516Y265964D01*
X325528Y265949D01*
X325540Y265929D01*
X325552Y265913D01*
X325559Y265894D01*
X325567Y265878D01*
X325575Y265858D01*
X325583Y265838D01*
X325591Y265819D01*
X325595Y265799D01*
X325599Y265779D01*
Y265756D01*
X325603Y265736D01*
Y264004D01*
X325599Y263984D01*
Y263961D01*
X325595Y263941D01*
X325591Y263921D01*
X325583Y263901D01*
X325575Y263882D01*
X325567Y263862D01*
X325559Y263846D01*
X325552Y263827D01*
X325540Y263811D01*
X325528Y263791D01*
X325516Y263775D01*
X325500Y263760D01*
X325489Y263744D01*
X325473Y263732D01*
X325457Y263716D01*
X325441Y263705D01*
X325422Y263693D01*
X325406Y263681D01*
X325386Y263673D01*
X325371Y263665D01*
X325351Y263657D01*
X325331Y263649D01*
X325311Y263642D01*
X325292Y263638D01*
X325272Y263634D01*
X325248D01*
X325229Y263630D01*
X322118D01*
X322099Y263634D01*
X322075D01*
X322056Y263638D01*
X322036Y263642D01*
X322016Y263649D01*
X321996Y263657D01*
X321977Y263665D01*
X321961Y263673D01*
X321941Y263681D01*
X321926Y263693D01*
X321906Y263705D01*
X321890Y263716D01*
X321874Y263732D01*
X321859Y263744D01*
X321847Y263760D01*
X321831Y263775D01*
X321819Y263791D01*
X321808Y263811D01*
X321796Y263827D01*
X321788Y263846D01*
X321780Y263862D01*
X321772Y263882D01*
X321764Y263901D01*
X321756Y263921D01*
X321752Y263941D01*
X321748Y263961D01*
Y263984D01*
X321744Y264004D01*
Y265736D01*
X321748Y265756D01*
Y265779D01*
X321752Y265799D01*
X321756Y265819D01*
X321764Y265838D01*
X321772Y265858D01*
X321780Y265878D01*
X321788Y265894D01*
X321796Y265913D01*
X321808Y265929D01*
X321819Y265949D01*
X321831Y265964D01*
X321847Y265980D01*
X321859Y265996D01*
X321874Y266008D01*
X321890Y266023D01*
X321906Y266035D01*
X321926Y266047D01*
X321941Y266059D01*
X321961Y266067D01*
X321977Y266075D01*
X321996Y266083D01*
X322016Y266090D01*
X322036Y266098D01*
X322056Y266102D01*
X322075Y266106D01*
X322099D01*
X322118Y266110D01*
X325229D01*
X325248Y266106D01*
D02*
G37*
G36*
X238634D02*
X238658D01*
X238678Y266102D01*
X238697Y266098D01*
X238717Y266090D01*
X238737Y266083D01*
X238756Y266075D01*
X238772Y266067D01*
X238792Y266059D01*
X238808Y266047D01*
X238827Y266035D01*
X238843Y266023D01*
X238859Y266008D01*
X238874Y265996D01*
X238886Y265980D01*
X238902Y265964D01*
X238914Y265949D01*
X238926Y265929D01*
X238937Y265913D01*
X238945Y265894D01*
X238953Y265878D01*
X238961Y265858D01*
X238969Y265838D01*
X238977Y265819D01*
X238981Y265799D01*
X238985Y265779D01*
Y265756D01*
X238989Y265736D01*
Y264004D01*
X238985Y263984D01*
Y263961D01*
X238981Y263941D01*
X238977Y263921D01*
X238969Y263901D01*
X238961Y263882D01*
X238953Y263862D01*
X238945Y263846D01*
X238937Y263827D01*
X238926Y263811D01*
X238914Y263791D01*
X238902Y263775D01*
X238886Y263760D01*
X238874Y263744D01*
X238859Y263732D01*
X238843Y263716D01*
X238827Y263705D01*
X238808Y263693D01*
X238792Y263681D01*
X238772Y263673D01*
X238756Y263665D01*
X238737Y263657D01*
X238717Y263649D01*
X238697Y263642D01*
X238678Y263638D01*
X238658Y263634D01*
X238634D01*
X238615Y263630D01*
X235504D01*
X235485Y263634D01*
X235461D01*
X235441Y263638D01*
X235422Y263642D01*
X235402Y263649D01*
X235382Y263657D01*
X235363Y263665D01*
X235347Y263673D01*
X235327Y263681D01*
X235311Y263693D01*
X235292Y263705D01*
X235276Y263716D01*
X235260Y263732D01*
X235244Y263744D01*
X235233Y263760D01*
X235217Y263775D01*
X235205Y263791D01*
X235193Y263811D01*
X235181Y263827D01*
X235174Y263846D01*
X235166Y263862D01*
X235158Y263882D01*
X235150Y263901D01*
X235142Y263921D01*
X235138Y263941D01*
X235134Y263961D01*
Y263984D01*
X235130Y264004D01*
Y265736D01*
X235134Y265756D01*
Y265779D01*
X235138Y265799D01*
X235142Y265819D01*
X235150Y265838D01*
X235158Y265858D01*
X235166Y265878D01*
X235174Y265894D01*
X235181Y265913D01*
X235193Y265929D01*
X235205Y265949D01*
X235217Y265964D01*
X235233Y265980D01*
X235244Y265996D01*
X235260Y266008D01*
X235276Y266023D01*
X235292Y266035D01*
X235311Y266047D01*
X235327Y266059D01*
X235347Y266067D01*
X235363Y266075D01*
X235382Y266083D01*
X235402Y266090D01*
X235422Y266098D01*
X235441Y266102D01*
X235461Y266106D01*
X235485D01*
X235504Y266110D01*
X238615D01*
X238634Y266106D01*
D02*
G37*
G36*
X325248Y261775D02*
X325272D01*
X325292Y261771D01*
X325311Y261768D01*
X325331Y261760D01*
X325351Y261752D01*
X325371Y261744D01*
X325386Y261736D01*
X325406Y261728D01*
X325422Y261716D01*
X325441Y261705D01*
X325457Y261693D01*
X325473Y261677D01*
X325489Y261665D01*
X325500Y261649D01*
X325516Y261634D01*
X325528Y261618D01*
X325540Y261598D01*
X325552Y261582D01*
X325559Y261563D01*
X325567Y261547D01*
X325575Y261527D01*
X325583Y261508D01*
X325591Y261488D01*
X325595Y261468D01*
X325599Y261449D01*
Y261425D01*
X325603Y261405D01*
Y259673D01*
X325599Y259653D01*
Y259630D01*
X325595Y259610D01*
X325591Y259590D01*
X325583Y259571D01*
X325575Y259551D01*
X325567Y259531D01*
X325559Y259516D01*
X325552Y259496D01*
X325540Y259480D01*
X325528Y259460D01*
X325516Y259445D01*
X325500Y259429D01*
X325489Y259413D01*
X325473Y259401D01*
X325457Y259386D01*
X325441Y259374D01*
X325422Y259362D01*
X325406Y259350D01*
X325386Y259342D01*
X325371Y259334D01*
X325351Y259327D01*
X325331Y259319D01*
X325311Y259311D01*
X325292Y259307D01*
X325272Y259303D01*
X325248D01*
X325229Y259299D01*
X322118D01*
X322099Y259303D01*
X322075D01*
X322056Y259307D01*
X322036Y259311D01*
X322016Y259319D01*
X321996Y259327D01*
X321977Y259334D01*
X321961Y259342D01*
X321941Y259350D01*
X321926Y259362D01*
X321906Y259374D01*
X321890Y259386D01*
X321874Y259401D01*
X321859Y259413D01*
X321847Y259429D01*
X321831Y259445D01*
X321819Y259460D01*
X321808Y259480D01*
X321796Y259496D01*
X321788Y259516D01*
X321780Y259531D01*
X321772Y259551D01*
X321764Y259571D01*
X321756Y259590D01*
X321752Y259610D01*
X321748Y259630D01*
Y259653D01*
X321744Y259673D01*
Y261405D01*
X321748Y261425D01*
Y261449D01*
X321752Y261468D01*
X321756Y261488D01*
X321764Y261508D01*
X321772Y261527D01*
X321780Y261547D01*
X321788Y261563D01*
X321796Y261582D01*
X321808Y261598D01*
X321819Y261618D01*
X321831Y261634D01*
X321847Y261649D01*
X321859Y261665D01*
X321874Y261677D01*
X321890Y261693D01*
X321906Y261705D01*
X321926Y261716D01*
X321941Y261728D01*
X321961Y261736D01*
X321977Y261744D01*
X321996Y261752D01*
X322016Y261760D01*
X322036Y261768D01*
X322056Y261771D01*
X322075Y261775D01*
X322099D01*
X322118Y261779D01*
X325229D01*
X325248Y261775D01*
D02*
G37*
G36*
X238634D02*
X238658D01*
X238678Y261771D01*
X238697Y261768D01*
X238717Y261760D01*
X238737Y261752D01*
X238756Y261744D01*
X238772Y261736D01*
X238792Y261728D01*
X238808Y261716D01*
X238827Y261705D01*
X238843Y261693D01*
X238859Y261677D01*
X238874Y261665D01*
X238886Y261649D01*
X238902Y261634D01*
X238914Y261618D01*
X238926Y261598D01*
X238937Y261582D01*
X238945Y261563D01*
X238953Y261547D01*
X238961Y261527D01*
X238969Y261508D01*
X238977Y261488D01*
X238981Y261468D01*
X238985Y261449D01*
Y261425D01*
X238989Y261405D01*
Y259673D01*
X238985Y259653D01*
Y259630D01*
X238981Y259610D01*
X238977Y259590D01*
X238969Y259571D01*
X238961Y259551D01*
X238953Y259531D01*
X238945Y259516D01*
X238937Y259496D01*
X238926Y259480D01*
X238914Y259460D01*
X238902Y259445D01*
X238886Y259429D01*
X238874Y259413D01*
X238859Y259401D01*
X238843Y259386D01*
X238827Y259374D01*
X238808Y259362D01*
X238792Y259350D01*
X238772Y259342D01*
X238756Y259334D01*
X238737Y259327D01*
X238717Y259319D01*
X238697Y259311D01*
X238678Y259307D01*
X238658Y259303D01*
X238634D01*
X238615Y259299D01*
X235504D01*
X235485Y259303D01*
X235461D01*
X235441Y259307D01*
X235422Y259311D01*
X235402Y259319D01*
X235382Y259327D01*
X235363Y259334D01*
X235347Y259342D01*
X235327Y259350D01*
X235311Y259362D01*
X235292Y259374D01*
X235276Y259386D01*
X235260Y259401D01*
X235244Y259413D01*
X235233Y259429D01*
X235217Y259445D01*
X235205Y259460D01*
X235193Y259480D01*
X235181Y259496D01*
X235174Y259516D01*
X235166Y259531D01*
X235158Y259551D01*
X235150Y259571D01*
X235142Y259590D01*
X235138Y259610D01*
X235134Y259630D01*
Y259653D01*
X235130Y259673D01*
Y261405D01*
X235134Y261425D01*
Y261449D01*
X235138Y261468D01*
X235142Y261488D01*
X235150Y261508D01*
X235158Y261527D01*
X235166Y261547D01*
X235174Y261563D01*
X235181Y261582D01*
X235193Y261598D01*
X235205Y261618D01*
X235217Y261634D01*
X235233Y261649D01*
X235244Y261665D01*
X235260Y261677D01*
X235276Y261693D01*
X235292Y261705D01*
X235311Y261716D01*
X235327Y261728D01*
X235347Y261736D01*
X235363Y261744D01*
X235382Y261752D01*
X235402Y261760D01*
X235422Y261768D01*
X235441Y261771D01*
X235461Y261775D01*
X235485D01*
X235504Y261779D01*
X238615D01*
X238634Y261775D01*
D02*
G37*
G36*
X325248Y257445D02*
X325272D01*
X325292Y257441D01*
X325311Y257437D01*
X325331Y257429D01*
X325351Y257421D01*
X325371Y257413D01*
X325386Y257405D01*
X325406Y257398D01*
X325422Y257386D01*
X325441Y257374D01*
X325457Y257362D01*
X325473Y257346D01*
X325489Y257334D01*
X325500Y257319D01*
X325516Y257303D01*
X325528Y257287D01*
X325540Y257268D01*
X325552Y257252D01*
X325559Y257232D01*
X325567Y257216D01*
X325575Y257197D01*
X325583Y257177D01*
X325591Y257157D01*
X325595Y257138D01*
X325599Y257118D01*
Y257094D01*
X325603Y257075D01*
Y255342D01*
X325599Y255323D01*
Y255299D01*
X325595Y255279D01*
X325591Y255260D01*
X325583Y255240D01*
X325575Y255220D01*
X325567Y255201D01*
X325559Y255185D01*
X325552Y255165D01*
X325540Y255149D01*
X325528Y255130D01*
X325516Y255114D01*
X325500Y255098D01*
X325489Y255083D01*
X325473Y255071D01*
X325457Y255055D01*
X325441Y255043D01*
X325422Y255031D01*
X325406Y255019D01*
X325386Y255012D01*
X325371Y255004D01*
X325351Y254996D01*
X325331Y254988D01*
X325311Y254980D01*
X325292Y254976D01*
X325272Y254972D01*
X325248D01*
X325229Y254968D01*
X322118D01*
X322099Y254972D01*
X322075D01*
X322056Y254976D01*
X322036Y254980D01*
X322016Y254988D01*
X321996Y254996D01*
X321977Y255004D01*
X321961Y255012D01*
X321941Y255019D01*
X321926Y255031D01*
X321906Y255043D01*
X321890Y255055D01*
X321874Y255071D01*
X321859Y255083D01*
X321847Y255098D01*
X321831Y255114D01*
X321819Y255130D01*
X321808Y255149D01*
X321796Y255165D01*
X321788Y255185D01*
X321780Y255201D01*
X321772Y255220D01*
X321764Y255240D01*
X321756Y255260D01*
X321752Y255279D01*
X321748Y255299D01*
Y255323D01*
X321744Y255342D01*
Y257075D01*
X321748Y257094D01*
Y257118D01*
X321752Y257138D01*
X321756Y257157D01*
X321764Y257177D01*
X321772Y257197D01*
X321780Y257216D01*
X321788Y257232D01*
X321796Y257252D01*
X321808Y257268D01*
X321819Y257287D01*
X321831Y257303D01*
X321847Y257319D01*
X321859Y257334D01*
X321874Y257346D01*
X321890Y257362D01*
X321906Y257374D01*
X321926Y257386D01*
X321941Y257398D01*
X321961Y257405D01*
X321977Y257413D01*
X321996Y257421D01*
X322016Y257429D01*
X322036Y257437D01*
X322056Y257441D01*
X322075Y257445D01*
X322099D01*
X322118Y257449D01*
X325229D01*
X325248Y257445D01*
D02*
G37*
G36*
X238634D02*
X238658D01*
X238678Y257441D01*
X238697Y257437D01*
X238717Y257429D01*
X238737Y257421D01*
X238756Y257413D01*
X238772Y257405D01*
X238792Y257398D01*
X238808Y257386D01*
X238827Y257374D01*
X238843Y257362D01*
X238859Y257346D01*
X238874Y257334D01*
X238886Y257319D01*
X238902Y257303D01*
X238914Y257287D01*
X238926Y257268D01*
X238937Y257252D01*
X238945Y257232D01*
X238953Y257216D01*
X238961Y257197D01*
X238969Y257177D01*
X238977Y257157D01*
X238981Y257138D01*
X238985Y257118D01*
Y257094D01*
X238989Y257075D01*
Y255342D01*
X238985Y255323D01*
Y255299D01*
X238981Y255279D01*
X238977Y255260D01*
X238969Y255240D01*
X238961Y255220D01*
X238953Y255201D01*
X238945Y255185D01*
X238937Y255165D01*
X238926Y255149D01*
X238914Y255130D01*
X238902Y255114D01*
X238886Y255098D01*
X238874Y255083D01*
X238859Y255071D01*
X238843Y255055D01*
X238827Y255043D01*
X238808Y255031D01*
X238792Y255019D01*
X238772Y255012D01*
X238756Y255004D01*
X238737Y254996D01*
X238717Y254988D01*
X238697Y254980D01*
X238678Y254976D01*
X238658Y254972D01*
X238634D01*
X238615Y254968D01*
X235504D01*
X235485Y254972D01*
X235461D01*
X235441Y254976D01*
X235422Y254980D01*
X235402Y254988D01*
X235382Y254996D01*
X235363Y255004D01*
X235347Y255012D01*
X235327Y255019D01*
X235311Y255031D01*
X235292Y255043D01*
X235276Y255055D01*
X235260Y255071D01*
X235244Y255083D01*
X235233Y255098D01*
X235217Y255114D01*
X235205Y255130D01*
X235193Y255149D01*
X235181Y255165D01*
X235174Y255185D01*
X235166Y255201D01*
X235158Y255220D01*
X235150Y255240D01*
X235142Y255260D01*
X235138Y255279D01*
X235134Y255299D01*
Y255323D01*
X235130Y255342D01*
Y257075D01*
X235134Y257094D01*
Y257118D01*
X235138Y257138D01*
X235142Y257157D01*
X235150Y257177D01*
X235158Y257197D01*
X235166Y257216D01*
X235174Y257232D01*
X235181Y257252D01*
X235193Y257268D01*
X235205Y257287D01*
X235217Y257303D01*
X235233Y257319D01*
X235244Y257334D01*
X235260Y257346D01*
X235276Y257362D01*
X235292Y257374D01*
X235311Y257386D01*
X235327Y257398D01*
X235347Y257405D01*
X235363Y257413D01*
X235382Y257421D01*
X235402Y257429D01*
X235422Y257437D01*
X235441Y257441D01*
X235461Y257445D01*
X235485D01*
X235504Y257449D01*
X238615D01*
X238634Y257445D01*
D02*
G37*
G36*
X325248Y253114D02*
X325272D01*
X325292Y253110D01*
X325311Y253106D01*
X325331Y253098D01*
X325351Y253090D01*
X325371Y253082D01*
X325386Y253075D01*
X325406Y253067D01*
X325422Y253055D01*
X325441Y253043D01*
X325457Y253031D01*
X325473Y253016D01*
X325489Y253004D01*
X325500Y252988D01*
X325516Y252972D01*
X325528Y252957D01*
X325540Y252937D01*
X325552Y252921D01*
X325559Y252901D01*
X325567Y252886D01*
X325575Y252866D01*
X325583Y252846D01*
X325591Y252827D01*
X325595Y252807D01*
X325599Y252787D01*
Y252764D01*
X325603Y252744D01*
Y251012D01*
X325599Y250992D01*
Y250968D01*
X325595Y250949D01*
X325591Y250929D01*
X325583Y250909D01*
X325575Y250890D01*
X325567Y250870D01*
X325559Y250854D01*
X325552Y250834D01*
X325540Y250819D01*
X325528Y250799D01*
X325516Y250783D01*
X325500Y250768D01*
X325489Y250752D01*
X325473Y250740D01*
X325457Y250724D01*
X325441Y250712D01*
X325422Y250701D01*
X325406Y250689D01*
X325386Y250681D01*
X325371Y250673D01*
X325351Y250665D01*
X325331Y250657D01*
X325311Y250649D01*
X325292Y250645D01*
X325272Y250642D01*
X325248D01*
X325229Y250638D01*
X322118D01*
X322099Y250642D01*
X322075D01*
X322056Y250645D01*
X322036Y250649D01*
X322016Y250657D01*
X321996Y250665D01*
X321977Y250673D01*
X321961Y250681D01*
X321941Y250689D01*
X321926Y250701D01*
X321906Y250712D01*
X321890Y250724D01*
X321874Y250740D01*
X321859Y250752D01*
X321847Y250768D01*
X321831Y250783D01*
X321819Y250799D01*
X321808Y250819D01*
X321796Y250834D01*
X321788Y250854D01*
X321780Y250870D01*
X321772Y250890D01*
X321764Y250909D01*
X321756Y250929D01*
X321752Y250949D01*
X321748Y250968D01*
Y250992D01*
X321744Y251012D01*
Y252744D01*
X321748Y252764D01*
Y252787D01*
X321752Y252807D01*
X321756Y252827D01*
X321764Y252846D01*
X321772Y252866D01*
X321780Y252886D01*
X321788Y252901D01*
X321796Y252921D01*
X321808Y252937D01*
X321819Y252957D01*
X321831Y252972D01*
X321847Y252988D01*
X321859Y253004D01*
X321874Y253016D01*
X321890Y253031D01*
X321906Y253043D01*
X321926Y253055D01*
X321941Y253067D01*
X321961Y253075D01*
X321977Y253082D01*
X321996Y253090D01*
X322016Y253098D01*
X322036Y253106D01*
X322056Y253110D01*
X322075Y253114D01*
X322099D01*
X322118Y253118D01*
X325229D01*
X325248Y253114D01*
D02*
G37*
G36*
X238634D02*
X238658D01*
X238678Y253110D01*
X238697Y253106D01*
X238717Y253098D01*
X238737Y253090D01*
X238756Y253082D01*
X238772Y253075D01*
X238792Y253067D01*
X238808Y253055D01*
X238827Y253043D01*
X238843Y253031D01*
X238859Y253016D01*
X238874Y253004D01*
X238886Y252988D01*
X238902Y252972D01*
X238914Y252957D01*
X238926Y252937D01*
X238937Y252921D01*
X238945Y252901D01*
X238953Y252886D01*
X238961Y252866D01*
X238969Y252846D01*
X238977Y252827D01*
X238981Y252807D01*
X238985Y252787D01*
Y252764D01*
X238989Y252744D01*
Y251012D01*
X238985Y250992D01*
Y250968D01*
X238981Y250949D01*
X238977Y250929D01*
X238969Y250909D01*
X238961Y250890D01*
X238953Y250870D01*
X238945Y250854D01*
X238937Y250834D01*
X238926Y250819D01*
X238914Y250799D01*
X238902Y250783D01*
X238886Y250768D01*
X238874Y250752D01*
X238859Y250740D01*
X238843Y250724D01*
X238827Y250712D01*
X238808Y250701D01*
X238792Y250689D01*
X238772Y250681D01*
X238756Y250673D01*
X238737Y250665D01*
X238717Y250657D01*
X238697Y250649D01*
X238678Y250645D01*
X238658Y250642D01*
X238634D01*
X238615Y250638D01*
X235504D01*
X235485Y250642D01*
X235461D01*
X235441Y250645D01*
X235422Y250649D01*
X235402Y250657D01*
X235382Y250665D01*
X235363Y250673D01*
X235347Y250681D01*
X235327Y250689D01*
X235311Y250701D01*
X235292Y250712D01*
X235276Y250724D01*
X235260Y250740D01*
X235244Y250752D01*
X235233Y250768D01*
X235217Y250783D01*
X235205Y250799D01*
X235193Y250819D01*
X235181Y250834D01*
X235174Y250854D01*
X235166Y250870D01*
X235158Y250890D01*
X235150Y250909D01*
X235142Y250929D01*
X235138Y250949D01*
X235134Y250968D01*
Y250992D01*
X235130Y251012D01*
Y252744D01*
X235134Y252764D01*
Y252787D01*
X235138Y252807D01*
X235142Y252827D01*
X235150Y252846D01*
X235158Y252866D01*
X235166Y252886D01*
X235174Y252901D01*
X235181Y252921D01*
X235193Y252937D01*
X235205Y252957D01*
X235217Y252972D01*
X235233Y252988D01*
X235244Y253004D01*
X235260Y253016D01*
X235276Y253031D01*
X235292Y253043D01*
X235311Y253055D01*
X235327Y253067D01*
X235347Y253075D01*
X235363Y253082D01*
X235382Y253090D01*
X235402Y253098D01*
X235422Y253106D01*
X235441Y253110D01*
X235461Y253114D01*
X235485D01*
X235504Y253118D01*
X238615D01*
X238634Y253114D01*
D02*
G37*
G36*
X325248Y248783D02*
X325272D01*
X325292Y248779D01*
X325311Y248775D01*
X325331Y248768D01*
X325351Y248760D01*
X325371Y248752D01*
X325386Y248744D01*
X325406Y248736D01*
X325422Y248724D01*
X325441Y248712D01*
X325457Y248701D01*
X325473Y248685D01*
X325489Y248673D01*
X325500Y248657D01*
X325516Y248642D01*
X325528Y248626D01*
X325540Y248606D01*
X325552Y248590D01*
X325559Y248571D01*
X325567Y248555D01*
X325575Y248535D01*
X325583Y248516D01*
X325591Y248496D01*
X325595Y248476D01*
X325599Y248457D01*
Y248433D01*
X325603Y248413D01*
Y246681D01*
X325599Y246661D01*
Y246638D01*
X325595Y246618D01*
X325591Y246598D01*
X325583Y246579D01*
X325575Y246559D01*
X325567Y246539D01*
X325559Y246523D01*
X325552Y246504D01*
X325540Y246488D01*
X325528Y246468D01*
X325516Y246453D01*
X325500Y246437D01*
X325489Y246421D01*
X325473Y246409D01*
X325457Y246393D01*
X325441Y246382D01*
X325422Y246370D01*
X325406Y246358D01*
X325386Y246350D01*
X325371Y246342D01*
X325351Y246335D01*
X325331Y246327D01*
X325311Y246319D01*
X325292Y246315D01*
X325272Y246311D01*
X325248D01*
X325229Y246307D01*
X322118D01*
X322099Y246311D01*
X322075D01*
X322056Y246315D01*
X322036Y246319D01*
X322016Y246327D01*
X321996Y246335D01*
X321977Y246342D01*
X321961Y246350D01*
X321941Y246358D01*
X321926Y246370D01*
X321906Y246382D01*
X321890Y246393D01*
X321874Y246409D01*
X321859Y246421D01*
X321847Y246437D01*
X321831Y246453D01*
X321819Y246468D01*
X321808Y246488D01*
X321796Y246504D01*
X321788Y246523D01*
X321780Y246539D01*
X321772Y246559D01*
X321764Y246579D01*
X321756Y246598D01*
X321752Y246618D01*
X321748Y246638D01*
Y246661D01*
X321744Y246681D01*
Y248413D01*
X321748Y248433D01*
Y248457D01*
X321752Y248476D01*
X321756Y248496D01*
X321764Y248516D01*
X321772Y248535D01*
X321780Y248555D01*
X321788Y248571D01*
X321796Y248590D01*
X321808Y248606D01*
X321819Y248626D01*
X321831Y248642D01*
X321847Y248657D01*
X321859Y248673D01*
X321874Y248685D01*
X321890Y248701D01*
X321906Y248712D01*
X321926Y248724D01*
X321941Y248736D01*
X321961Y248744D01*
X321977Y248752D01*
X321996Y248760D01*
X322016Y248768D01*
X322036Y248775D01*
X322056Y248779D01*
X322075Y248783D01*
X322099D01*
X322118Y248787D01*
X325229D01*
X325248Y248783D01*
D02*
G37*
G36*
X238634D02*
X238658D01*
X238678Y248779D01*
X238697Y248775D01*
X238717Y248768D01*
X238737Y248760D01*
X238756Y248752D01*
X238772Y248744D01*
X238792Y248736D01*
X238808Y248724D01*
X238827Y248712D01*
X238843Y248701D01*
X238859Y248685D01*
X238874Y248673D01*
X238886Y248657D01*
X238902Y248642D01*
X238914Y248626D01*
X238926Y248606D01*
X238937Y248590D01*
X238945Y248571D01*
X238953Y248555D01*
X238961Y248535D01*
X238969Y248516D01*
X238977Y248496D01*
X238981Y248476D01*
X238985Y248457D01*
Y248433D01*
X238989Y248413D01*
Y246681D01*
X238985Y246661D01*
Y246638D01*
X238981Y246618D01*
X238977Y246598D01*
X238969Y246579D01*
X238961Y246559D01*
X238953Y246539D01*
X238945Y246523D01*
X238937Y246504D01*
X238926Y246488D01*
X238914Y246468D01*
X238902Y246453D01*
X238886Y246437D01*
X238874Y246421D01*
X238859Y246409D01*
X238843Y246393D01*
X238827Y246382D01*
X238808Y246370D01*
X238792Y246358D01*
X238772Y246350D01*
X238756Y246342D01*
X238737Y246335D01*
X238717Y246327D01*
X238697Y246319D01*
X238678Y246315D01*
X238658Y246311D01*
X238634D01*
X238615Y246307D01*
X235504D01*
X235485Y246311D01*
X235461D01*
X235441Y246315D01*
X235422Y246319D01*
X235402Y246327D01*
X235382Y246335D01*
X235363Y246342D01*
X235347Y246350D01*
X235327Y246358D01*
X235311Y246370D01*
X235292Y246382D01*
X235276Y246393D01*
X235260Y246409D01*
X235244Y246421D01*
X235233Y246437D01*
X235217Y246453D01*
X235205Y246468D01*
X235193Y246488D01*
X235181Y246504D01*
X235174Y246523D01*
X235166Y246539D01*
X235158Y246559D01*
X235150Y246579D01*
X235142Y246598D01*
X235138Y246618D01*
X235134Y246638D01*
Y246661D01*
X235130Y246681D01*
Y248413D01*
X235134Y248433D01*
Y248457D01*
X235138Y248476D01*
X235142Y248496D01*
X235150Y248516D01*
X235158Y248535D01*
X235166Y248555D01*
X235174Y248571D01*
X235181Y248590D01*
X235193Y248606D01*
X235205Y248626D01*
X235217Y248642D01*
X235233Y248657D01*
X235244Y248673D01*
X235260Y248685D01*
X235276Y248701D01*
X235292Y248712D01*
X235311Y248724D01*
X235327Y248736D01*
X235347Y248744D01*
X235363Y248752D01*
X235382Y248760D01*
X235402Y248768D01*
X235422Y248775D01*
X235441Y248779D01*
X235461Y248783D01*
X235485D01*
X235504Y248787D01*
X238615D01*
X238634Y248783D01*
D02*
G37*
G36*
X319441Y241598D02*
X319465D01*
X319485Y241594D01*
X319504Y241590D01*
X319524Y241582D01*
X319544Y241575D01*
X319563Y241567D01*
X319579Y241559D01*
X319599Y241551D01*
X319615Y241539D01*
X319634Y241527D01*
X319650Y241516D01*
X319666Y241500D01*
X319682Y241488D01*
X319693Y241472D01*
X319709Y241457D01*
X319721Y241441D01*
X319733Y241421D01*
X319744Y241405D01*
X319752Y241386D01*
X319760Y241370D01*
X319768Y241350D01*
X319776Y241331D01*
X319784Y241311D01*
X319788Y241291D01*
X319792Y241271D01*
Y241248D01*
X319796Y241228D01*
Y238118D01*
X319792Y238098D01*
Y238075D01*
X319788Y238055D01*
X319784Y238035D01*
X319776Y238016D01*
X319768Y237996D01*
X319760Y237976D01*
X319752Y237961D01*
X319744Y237941D01*
X319733Y237925D01*
X319721Y237905D01*
X319709Y237890D01*
X319693Y237874D01*
X319682Y237858D01*
X319666Y237846D01*
X319650Y237830D01*
X319634Y237819D01*
X319615Y237807D01*
X319599Y237795D01*
X319579Y237787D01*
X319563Y237779D01*
X319544Y237772D01*
X319524Y237764D01*
X319504Y237756D01*
X319485Y237752D01*
X319465Y237748D01*
X319441D01*
X319422Y237744D01*
X317689D01*
X317670Y237748D01*
X317646D01*
X317626Y237752D01*
X317607Y237756D01*
X317587Y237764D01*
X317567Y237772D01*
X317548Y237779D01*
X317532Y237787D01*
X317512Y237795D01*
X317496Y237807D01*
X317477Y237819D01*
X317461Y237830D01*
X317445Y237846D01*
X317429Y237858D01*
X317418Y237874D01*
X317402Y237890D01*
X317390Y237905D01*
X317378Y237925D01*
X317367Y237941D01*
X317359Y237961D01*
X317351Y237976D01*
X317343Y237996D01*
X317335Y238016D01*
X317327Y238035D01*
X317323Y238055D01*
X317319Y238075D01*
Y238098D01*
X317315Y238118D01*
Y241228D01*
X317319Y241248D01*
Y241271D01*
X317323Y241291D01*
X317327Y241311D01*
X317335Y241331D01*
X317343Y241350D01*
X317351Y241370D01*
X317359Y241386D01*
X317367Y241405D01*
X317378Y241421D01*
X317390Y241441D01*
X317402Y241457D01*
X317418Y241472D01*
X317429Y241488D01*
X317445Y241500D01*
X317461Y241516D01*
X317477Y241527D01*
X317496Y241539D01*
X317512Y241551D01*
X317532Y241559D01*
X317548Y241567D01*
X317567Y241575D01*
X317587Y241582D01*
X317607Y241590D01*
X317626Y241594D01*
X317646Y241598D01*
X317670D01*
X317689Y241602D01*
X319422D01*
X319441Y241598D01*
D02*
G37*
G36*
X315111D02*
X315134D01*
X315154Y241594D01*
X315174Y241590D01*
X315193Y241582D01*
X315213Y241575D01*
X315233Y241567D01*
X315248Y241559D01*
X315268Y241551D01*
X315284Y241539D01*
X315304Y241527D01*
X315319Y241516D01*
X315335Y241500D01*
X315351Y241488D01*
X315363Y241472D01*
X315378Y241457D01*
X315390Y241441D01*
X315402Y241421D01*
X315414Y241405D01*
X315422Y241386D01*
X315429Y241370D01*
X315437Y241350D01*
X315445Y241331D01*
X315453Y241311D01*
X315457Y241291D01*
X315461Y241271D01*
Y241248D01*
X315465Y241228D01*
Y238118D01*
X315461Y238098D01*
Y238075D01*
X315457Y238055D01*
X315453Y238035D01*
X315445Y238016D01*
X315437Y237996D01*
X315429Y237976D01*
X315422Y237961D01*
X315414Y237941D01*
X315402Y237925D01*
X315390Y237905D01*
X315378Y237890D01*
X315363Y237874D01*
X315351Y237858D01*
X315335Y237846D01*
X315319Y237830D01*
X315304Y237819D01*
X315284Y237807D01*
X315268Y237795D01*
X315248Y237787D01*
X315233Y237779D01*
X315213Y237772D01*
X315193Y237764D01*
X315174Y237756D01*
X315154Y237752D01*
X315134Y237748D01*
X315111D01*
X315091Y237744D01*
X313359D01*
X313339Y237748D01*
X313315D01*
X313296Y237752D01*
X313276Y237756D01*
X313256Y237764D01*
X313237Y237772D01*
X313217Y237779D01*
X313201Y237787D01*
X313181Y237795D01*
X313166Y237807D01*
X313146Y237819D01*
X313130Y237830D01*
X313115Y237846D01*
X313099Y237858D01*
X313087Y237874D01*
X313071Y237890D01*
X313059Y237905D01*
X313048Y237925D01*
X313036Y237941D01*
X313028Y237961D01*
X313020Y237976D01*
X313012Y237996D01*
X313004Y238016D01*
X312997Y238035D01*
X312993Y238055D01*
X312989Y238075D01*
Y238098D01*
X312985Y238118D01*
Y241228D01*
X312989Y241248D01*
Y241271D01*
X312993Y241291D01*
X312997Y241311D01*
X313004Y241331D01*
X313012Y241350D01*
X313020Y241370D01*
X313028Y241386D01*
X313036Y241405D01*
X313048Y241421D01*
X313059Y241441D01*
X313071Y241457D01*
X313087Y241472D01*
X313099Y241488D01*
X313115Y241500D01*
X313130Y241516D01*
X313146Y241527D01*
X313166Y241539D01*
X313181Y241551D01*
X313201Y241559D01*
X313217Y241567D01*
X313237Y241575D01*
X313256Y241582D01*
X313276Y241590D01*
X313296Y241594D01*
X313315Y241598D01*
X313339D01*
X313359Y241602D01*
X315091D01*
X315111Y241598D01*
D02*
G37*
G36*
X310780D02*
X310804D01*
X310823Y241594D01*
X310843Y241590D01*
X310863Y241582D01*
X310882Y241575D01*
X310902Y241567D01*
X310918Y241559D01*
X310937Y241551D01*
X310953Y241539D01*
X310973Y241527D01*
X310989Y241516D01*
X311004Y241500D01*
X311020Y241488D01*
X311032Y241472D01*
X311048Y241457D01*
X311059Y241441D01*
X311071Y241421D01*
X311083Y241405D01*
X311091Y241386D01*
X311099Y241370D01*
X311107Y241350D01*
X311115Y241331D01*
X311122Y241311D01*
X311126Y241291D01*
X311130Y241271D01*
Y241248D01*
X311134Y241228D01*
Y238118D01*
X311130Y238098D01*
Y238075D01*
X311126Y238055D01*
X311122Y238035D01*
X311115Y238016D01*
X311107Y237996D01*
X311099Y237976D01*
X311091Y237961D01*
X311083Y237941D01*
X311071Y237925D01*
X311059Y237905D01*
X311048Y237890D01*
X311032Y237874D01*
X311020Y237858D01*
X311004Y237846D01*
X310989Y237830D01*
X310973Y237819D01*
X310953Y237807D01*
X310937Y237795D01*
X310918Y237787D01*
X310902Y237779D01*
X310882Y237772D01*
X310863Y237764D01*
X310843Y237756D01*
X310823Y237752D01*
X310804Y237748D01*
X310780D01*
X310760Y237744D01*
X309028D01*
X309008Y237748D01*
X308985D01*
X308965Y237752D01*
X308945Y237756D01*
X308926Y237764D01*
X308906Y237772D01*
X308886Y237779D01*
X308871Y237787D01*
X308851Y237795D01*
X308835Y237807D01*
X308815Y237819D01*
X308800Y237830D01*
X308784Y237846D01*
X308768Y237858D01*
X308756Y237874D01*
X308741Y237890D01*
X308729Y237905D01*
X308717Y237925D01*
X308705Y237941D01*
X308697Y237961D01*
X308689Y237976D01*
X308682Y237996D01*
X308674Y238016D01*
X308666Y238035D01*
X308662Y238055D01*
X308658Y238075D01*
Y238098D01*
X308654Y238118D01*
Y241228D01*
X308658Y241248D01*
Y241271D01*
X308662Y241291D01*
X308666Y241311D01*
X308674Y241331D01*
X308682Y241350D01*
X308689Y241370D01*
X308697Y241386D01*
X308705Y241405D01*
X308717Y241421D01*
X308729Y241441D01*
X308741Y241457D01*
X308756Y241472D01*
X308768Y241488D01*
X308784Y241500D01*
X308800Y241516D01*
X308815Y241527D01*
X308835Y241539D01*
X308851Y241551D01*
X308871Y241559D01*
X308886Y241567D01*
X308906Y241575D01*
X308926Y241582D01*
X308945Y241590D01*
X308965Y241594D01*
X308985Y241598D01*
X309008D01*
X309028Y241602D01*
X310760D01*
X310780Y241598D01*
D02*
G37*
G36*
X306449D02*
X306473D01*
X306492Y241594D01*
X306512Y241590D01*
X306532Y241582D01*
X306552Y241575D01*
X306571Y241567D01*
X306587Y241559D01*
X306607Y241551D01*
X306623Y241539D01*
X306642Y241527D01*
X306658Y241516D01*
X306674Y241500D01*
X306689Y241488D01*
X306701Y241472D01*
X306717Y241457D01*
X306729Y241441D01*
X306741Y241421D01*
X306752Y241405D01*
X306760Y241386D01*
X306768Y241370D01*
X306776Y241350D01*
X306784Y241331D01*
X306792Y241311D01*
X306796Y241291D01*
X306800Y241271D01*
Y241248D01*
X306804Y241228D01*
Y238118D01*
X306800Y238098D01*
Y238075D01*
X306796Y238055D01*
X306792Y238035D01*
X306784Y238016D01*
X306776Y237996D01*
X306768Y237976D01*
X306760Y237961D01*
X306752Y237941D01*
X306741Y237925D01*
X306729Y237905D01*
X306717Y237890D01*
X306701Y237874D01*
X306689Y237858D01*
X306674Y237846D01*
X306658Y237830D01*
X306642Y237819D01*
X306623Y237807D01*
X306607Y237795D01*
X306587Y237787D01*
X306571Y237779D01*
X306552Y237772D01*
X306532Y237764D01*
X306512Y237756D01*
X306492Y237752D01*
X306473Y237748D01*
X306449D01*
X306430Y237744D01*
X304697D01*
X304678Y237748D01*
X304654D01*
X304634Y237752D01*
X304615Y237756D01*
X304595Y237764D01*
X304575Y237772D01*
X304556Y237779D01*
X304540Y237787D01*
X304520Y237795D01*
X304504Y237807D01*
X304485Y237819D01*
X304469Y237830D01*
X304453Y237846D01*
X304437Y237858D01*
X304426Y237874D01*
X304410Y237890D01*
X304398Y237905D01*
X304386Y237925D01*
X304374Y237941D01*
X304367Y237961D01*
X304359Y237976D01*
X304351Y237996D01*
X304343Y238016D01*
X304335Y238035D01*
X304331Y238055D01*
X304327Y238075D01*
Y238098D01*
X304323Y238118D01*
Y241228D01*
X304327Y241248D01*
Y241271D01*
X304331Y241291D01*
X304335Y241311D01*
X304343Y241331D01*
X304351Y241350D01*
X304359Y241370D01*
X304367Y241386D01*
X304374Y241405D01*
X304386Y241421D01*
X304398Y241441D01*
X304410Y241457D01*
X304426Y241472D01*
X304437Y241488D01*
X304453Y241500D01*
X304469Y241516D01*
X304485Y241527D01*
X304504Y241539D01*
X304520Y241551D01*
X304540Y241559D01*
X304556Y241567D01*
X304575Y241575D01*
X304595Y241582D01*
X304615Y241590D01*
X304634Y241594D01*
X304654Y241598D01*
X304678D01*
X304697Y241602D01*
X306430D01*
X306449Y241598D01*
D02*
G37*
G36*
X302118D02*
X302142D01*
X302162Y241594D01*
X302182Y241590D01*
X302201Y241582D01*
X302221Y241575D01*
X302241Y241567D01*
X302256Y241559D01*
X302276Y241551D01*
X302292Y241539D01*
X302311Y241527D01*
X302327Y241516D01*
X302343Y241500D01*
X302359Y241488D01*
X302371Y241472D01*
X302386Y241457D01*
X302398Y241441D01*
X302410Y241421D01*
X302422Y241405D01*
X302430Y241386D01*
X302437Y241370D01*
X302445Y241350D01*
X302453Y241331D01*
X302461Y241311D01*
X302465Y241291D01*
X302469Y241271D01*
Y241248D01*
X302473Y241228D01*
Y238118D01*
X302469Y238098D01*
Y238075D01*
X302465Y238055D01*
X302461Y238035D01*
X302453Y238016D01*
X302445Y237996D01*
X302437Y237976D01*
X302430Y237961D01*
X302422Y237941D01*
X302410Y237925D01*
X302398Y237905D01*
X302386Y237890D01*
X302371Y237874D01*
X302359Y237858D01*
X302343Y237846D01*
X302327Y237830D01*
X302311Y237819D01*
X302292Y237807D01*
X302276Y237795D01*
X302256Y237787D01*
X302241Y237779D01*
X302221Y237772D01*
X302201Y237764D01*
X302182Y237756D01*
X302162Y237752D01*
X302142Y237748D01*
X302118D01*
X302099Y237744D01*
X300367D01*
X300347Y237748D01*
X300323D01*
X300304Y237752D01*
X300284Y237756D01*
X300264Y237764D01*
X300244Y237772D01*
X300225Y237779D01*
X300209Y237787D01*
X300189Y237795D01*
X300174Y237807D01*
X300154Y237819D01*
X300138Y237830D01*
X300122Y237846D01*
X300107Y237858D01*
X300095Y237874D01*
X300079Y237890D01*
X300067Y237905D01*
X300056Y237925D01*
X300044Y237941D01*
X300036Y237961D01*
X300028Y237976D01*
X300020Y237996D01*
X300012Y238016D01*
X300004Y238035D01*
X300000Y238055D01*
X299996Y238075D01*
Y238098D01*
X299992Y238118D01*
Y241228D01*
X299996Y241248D01*
Y241271D01*
X300000Y241291D01*
X300004Y241311D01*
X300012Y241331D01*
X300020Y241350D01*
X300028Y241370D01*
X300036Y241386D01*
X300044Y241405D01*
X300056Y241421D01*
X300067Y241441D01*
X300079Y241457D01*
X300095Y241472D01*
X300107Y241488D01*
X300122Y241500D01*
X300138Y241516D01*
X300154Y241527D01*
X300174Y241539D01*
X300189Y241551D01*
X300209Y241559D01*
X300225Y241567D01*
X300244Y241575D01*
X300264Y241582D01*
X300284Y241590D01*
X300304Y241594D01*
X300323Y241598D01*
X300347D01*
X300367Y241602D01*
X302099D01*
X302118Y241598D01*
D02*
G37*
G36*
X297788D02*
X297811D01*
X297831Y241594D01*
X297851Y241590D01*
X297870Y241582D01*
X297890Y241575D01*
X297910Y241567D01*
X297926Y241559D01*
X297945Y241551D01*
X297961Y241539D01*
X297981Y241527D01*
X297996Y241516D01*
X298012Y241500D01*
X298028Y241488D01*
X298040Y241472D01*
X298056Y241457D01*
X298067Y241441D01*
X298079Y241421D01*
X298091Y241405D01*
X298099Y241386D01*
X298107Y241370D01*
X298115Y241350D01*
X298123Y241331D01*
X298130Y241311D01*
X298134Y241291D01*
X298138Y241271D01*
Y241248D01*
X298142Y241228D01*
Y238118D01*
X298138Y238098D01*
Y238075D01*
X298134Y238055D01*
X298130Y238035D01*
X298123Y238016D01*
X298115Y237996D01*
X298107Y237976D01*
X298099Y237961D01*
X298091Y237941D01*
X298079Y237925D01*
X298067Y237905D01*
X298056Y237890D01*
X298040Y237874D01*
X298028Y237858D01*
X298012Y237846D01*
X297996Y237830D01*
X297981Y237819D01*
X297961Y237807D01*
X297945Y237795D01*
X297926Y237787D01*
X297910Y237779D01*
X297890Y237772D01*
X297870Y237764D01*
X297851Y237756D01*
X297831Y237752D01*
X297811Y237748D01*
X297788D01*
X297768Y237744D01*
X296036D01*
X296016Y237748D01*
X295992D01*
X295973Y237752D01*
X295953Y237756D01*
X295934Y237764D01*
X295914Y237772D01*
X295894Y237779D01*
X295878Y237787D01*
X295859Y237795D01*
X295843Y237807D01*
X295823Y237819D01*
X295808Y237830D01*
X295792Y237846D01*
X295776Y237858D01*
X295764Y237874D01*
X295748Y237890D01*
X295737Y237905D01*
X295725Y237925D01*
X295713Y237941D01*
X295705Y237961D01*
X295697Y237976D01*
X295689Y237996D01*
X295682Y238016D01*
X295674Y238035D01*
X295670Y238055D01*
X295666Y238075D01*
Y238098D01*
X295662Y238118D01*
Y241228D01*
X295666Y241248D01*
Y241271D01*
X295670Y241291D01*
X295674Y241311D01*
X295682Y241331D01*
X295689Y241350D01*
X295697Y241370D01*
X295705Y241386D01*
X295713Y241405D01*
X295725Y241421D01*
X295737Y241441D01*
X295748Y241457D01*
X295764Y241472D01*
X295776Y241488D01*
X295792Y241500D01*
X295808Y241516D01*
X295823Y241527D01*
X295843Y241539D01*
X295859Y241551D01*
X295878Y241559D01*
X295894Y241567D01*
X295914Y241575D01*
X295934Y241582D01*
X295953Y241590D01*
X295973Y241594D01*
X295992Y241598D01*
X296016D01*
X296036Y241602D01*
X297768D01*
X297788Y241598D01*
D02*
G37*
G36*
X293457D02*
X293481D01*
X293500Y241594D01*
X293520Y241590D01*
X293540Y241582D01*
X293560Y241575D01*
X293579Y241567D01*
X293595Y241559D01*
X293615Y241551D01*
X293630Y241539D01*
X293650Y241527D01*
X293666Y241516D01*
X293682Y241500D01*
X293697Y241488D01*
X293709Y241472D01*
X293725Y241457D01*
X293737Y241441D01*
X293748Y241421D01*
X293760Y241405D01*
X293768Y241386D01*
X293776Y241370D01*
X293784Y241350D01*
X293792Y241331D01*
X293800Y241311D01*
X293804Y241291D01*
X293808Y241271D01*
Y241248D01*
X293811Y241228D01*
Y238118D01*
X293808Y238098D01*
Y238075D01*
X293804Y238055D01*
X293800Y238035D01*
X293792Y238016D01*
X293784Y237996D01*
X293776Y237976D01*
X293768Y237961D01*
X293760Y237941D01*
X293748Y237925D01*
X293737Y237905D01*
X293725Y237890D01*
X293709Y237874D01*
X293697Y237858D01*
X293682Y237846D01*
X293666Y237830D01*
X293650Y237819D01*
X293630Y237807D01*
X293615Y237795D01*
X293595Y237787D01*
X293579Y237779D01*
X293560Y237772D01*
X293540Y237764D01*
X293520Y237756D01*
X293500Y237752D01*
X293481Y237748D01*
X293457D01*
X293437Y237744D01*
X291705D01*
X291685Y237748D01*
X291662D01*
X291642Y237752D01*
X291622Y237756D01*
X291603Y237764D01*
X291583Y237772D01*
X291563Y237779D01*
X291548Y237787D01*
X291528Y237795D01*
X291512Y237807D01*
X291493Y237819D01*
X291477Y237830D01*
X291461Y237846D01*
X291445Y237858D01*
X291434Y237874D01*
X291418Y237890D01*
X291406Y237905D01*
X291394Y237925D01*
X291382Y237941D01*
X291374Y237961D01*
X291367Y237976D01*
X291359Y237996D01*
X291351Y238016D01*
X291343Y238035D01*
X291339Y238055D01*
X291335Y238075D01*
Y238098D01*
X291331Y238118D01*
Y241228D01*
X291335Y241248D01*
Y241271D01*
X291339Y241291D01*
X291343Y241311D01*
X291351Y241331D01*
X291359Y241350D01*
X291367Y241370D01*
X291374Y241386D01*
X291382Y241405D01*
X291394Y241421D01*
X291406Y241441D01*
X291418Y241457D01*
X291434Y241472D01*
X291445Y241488D01*
X291461Y241500D01*
X291477Y241516D01*
X291493Y241527D01*
X291512Y241539D01*
X291528Y241551D01*
X291548Y241559D01*
X291563Y241567D01*
X291583Y241575D01*
X291603Y241582D01*
X291622Y241590D01*
X291642Y241594D01*
X291662Y241598D01*
X291685D01*
X291705Y241602D01*
X293437D01*
X293457Y241598D01*
D02*
G37*
G36*
X289126D02*
X289150D01*
X289170Y241594D01*
X289189Y241590D01*
X289209Y241582D01*
X289229Y241575D01*
X289248Y241567D01*
X289264Y241559D01*
X289284Y241551D01*
X289300Y241539D01*
X289319Y241527D01*
X289335Y241516D01*
X289351Y241500D01*
X289367Y241488D01*
X289378Y241472D01*
X289394Y241457D01*
X289406Y241441D01*
X289418Y241421D01*
X289429Y241405D01*
X289437Y241386D01*
X289445Y241370D01*
X289453Y241350D01*
X289461Y241331D01*
X289469Y241311D01*
X289473Y241291D01*
X289477Y241271D01*
Y241248D01*
X289481Y241228D01*
Y238118D01*
X289477Y238098D01*
Y238075D01*
X289473Y238055D01*
X289469Y238035D01*
X289461Y238016D01*
X289453Y237996D01*
X289445Y237976D01*
X289437Y237961D01*
X289429Y237941D01*
X289418Y237925D01*
X289406Y237905D01*
X289394Y237890D01*
X289378Y237874D01*
X289367Y237858D01*
X289351Y237846D01*
X289335Y237830D01*
X289319Y237819D01*
X289300Y237807D01*
X289284Y237795D01*
X289264Y237787D01*
X289248Y237779D01*
X289229Y237772D01*
X289209Y237764D01*
X289189Y237756D01*
X289170Y237752D01*
X289150Y237748D01*
X289126D01*
X289107Y237744D01*
X287374D01*
X287355Y237748D01*
X287331D01*
X287311Y237752D01*
X287292Y237756D01*
X287272Y237764D01*
X287252Y237772D01*
X287233Y237779D01*
X287217Y237787D01*
X287197Y237795D01*
X287181Y237807D01*
X287162Y237819D01*
X287146Y237830D01*
X287130Y237846D01*
X287115Y237858D01*
X287103Y237874D01*
X287087Y237890D01*
X287075Y237905D01*
X287063Y237925D01*
X287052Y237941D01*
X287044Y237961D01*
X287036Y237976D01*
X287028Y237996D01*
X287020Y238016D01*
X287012Y238035D01*
X287008Y238055D01*
X287004Y238075D01*
Y238098D01*
X287000Y238118D01*
Y241228D01*
X287004Y241248D01*
Y241271D01*
X287008Y241291D01*
X287012Y241311D01*
X287020Y241331D01*
X287028Y241350D01*
X287036Y241370D01*
X287044Y241386D01*
X287052Y241405D01*
X287063Y241421D01*
X287075Y241441D01*
X287087Y241457D01*
X287103Y241472D01*
X287115Y241488D01*
X287130Y241500D01*
X287146Y241516D01*
X287162Y241527D01*
X287181Y241539D01*
X287197Y241551D01*
X287217Y241559D01*
X287233Y241567D01*
X287252Y241575D01*
X287272Y241582D01*
X287292Y241590D01*
X287311Y241594D01*
X287331Y241598D01*
X287355D01*
X287374Y241602D01*
X289107D01*
X289126Y241598D01*
D02*
G37*
G36*
X284796D02*
X284819D01*
X284839Y241594D01*
X284859Y241590D01*
X284878Y241582D01*
X284898Y241575D01*
X284918Y241567D01*
X284933Y241559D01*
X284953Y241551D01*
X284969Y241539D01*
X284989Y241527D01*
X285004Y241516D01*
X285020Y241500D01*
X285036Y241488D01*
X285048Y241472D01*
X285063Y241457D01*
X285075Y241441D01*
X285087Y241421D01*
X285099Y241405D01*
X285107Y241386D01*
X285115Y241370D01*
X285122Y241350D01*
X285130Y241331D01*
X285138Y241311D01*
X285142Y241291D01*
X285146Y241271D01*
Y241248D01*
X285150Y241228D01*
Y238118D01*
X285146Y238098D01*
Y238075D01*
X285142Y238055D01*
X285138Y238035D01*
X285130Y238016D01*
X285122Y237996D01*
X285115Y237976D01*
X285107Y237961D01*
X285099Y237941D01*
X285087Y237925D01*
X285075Y237905D01*
X285063Y237890D01*
X285048Y237874D01*
X285036Y237858D01*
X285020Y237846D01*
X285004Y237830D01*
X284989Y237819D01*
X284969Y237807D01*
X284953Y237795D01*
X284933Y237787D01*
X284918Y237779D01*
X284898Y237772D01*
X284878Y237764D01*
X284859Y237756D01*
X284839Y237752D01*
X284819Y237748D01*
X284796D01*
X284776Y237744D01*
X283044D01*
X283024Y237748D01*
X283000D01*
X282981Y237752D01*
X282961Y237756D01*
X282941Y237764D01*
X282922Y237772D01*
X282902Y237779D01*
X282886Y237787D01*
X282867Y237795D01*
X282851Y237807D01*
X282831Y237819D01*
X282815Y237830D01*
X282800Y237846D01*
X282784Y237858D01*
X282772Y237874D01*
X282756Y237890D01*
X282745Y237905D01*
X282733Y237925D01*
X282721Y237941D01*
X282713Y237961D01*
X282705Y237976D01*
X282697Y237996D01*
X282689Y238016D01*
X282681Y238035D01*
X282678Y238055D01*
X282674Y238075D01*
Y238098D01*
X282670Y238118D01*
Y241228D01*
X282674Y241248D01*
Y241271D01*
X282678Y241291D01*
X282681Y241311D01*
X282689Y241331D01*
X282697Y241350D01*
X282705Y241370D01*
X282713Y241386D01*
X282721Y241405D01*
X282733Y241421D01*
X282745Y241441D01*
X282756Y241457D01*
X282772Y241472D01*
X282784Y241488D01*
X282800Y241500D01*
X282815Y241516D01*
X282831Y241527D01*
X282851Y241539D01*
X282867Y241551D01*
X282886Y241559D01*
X282902Y241567D01*
X282922Y241575D01*
X282941Y241582D01*
X282961Y241590D01*
X282981Y241594D01*
X283000Y241598D01*
X283024D01*
X283044Y241602D01*
X284776D01*
X284796Y241598D01*
D02*
G37*
G36*
X280465D02*
X280489D01*
X280508Y241594D01*
X280528Y241590D01*
X280548Y241582D01*
X280567Y241575D01*
X280587Y241567D01*
X280603Y241559D01*
X280623Y241551D01*
X280638Y241539D01*
X280658Y241527D01*
X280674Y241516D01*
X280689Y241500D01*
X280705Y241488D01*
X280717Y241472D01*
X280733Y241457D01*
X280745Y241441D01*
X280756Y241421D01*
X280768Y241405D01*
X280776Y241386D01*
X280784Y241370D01*
X280792Y241350D01*
X280800Y241331D01*
X280807Y241311D01*
X280811Y241291D01*
X280815Y241271D01*
Y241248D01*
X280819Y241228D01*
Y238118D01*
X280815Y238098D01*
Y238075D01*
X280811Y238055D01*
X280807Y238035D01*
X280800Y238016D01*
X280792Y237996D01*
X280784Y237976D01*
X280776Y237961D01*
X280768Y237941D01*
X280756Y237925D01*
X280745Y237905D01*
X280733Y237890D01*
X280717Y237874D01*
X280705Y237858D01*
X280689Y237846D01*
X280674Y237830D01*
X280658Y237819D01*
X280638Y237807D01*
X280623Y237795D01*
X280603Y237787D01*
X280587Y237779D01*
X280567Y237772D01*
X280548Y237764D01*
X280528Y237756D01*
X280508Y237752D01*
X280489Y237748D01*
X280465D01*
X280445Y237744D01*
X278713D01*
X278693Y237748D01*
X278670D01*
X278650Y237752D01*
X278630Y237756D01*
X278611Y237764D01*
X278591Y237772D01*
X278571Y237779D01*
X278555Y237787D01*
X278536Y237795D01*
X278520Y237807D01*
X278500Y237819D01*
X278485Y237830D01*
X278469Y237846D01*
X278453Y237858D01*
X278441Y237874D01*
X278426Y237890D01*
X278414Y237905D01*
X278402Y237925D01*
X278390Y237941D01*
X278382Y237961D01*
X278374Y237976D01*
X278367Y237996D01*
X278359Y238016D01*
X278351Y238035D01*
X278347Y238055D01*
X278343Y238075D01*
Y238098D01*
X278339Y238118D01*
Y241228D01*
X278343Y241248D01*
Y241271D01*
X278347Y241291D01*
X278351Y241311D01*
X278359Y241331D01*
X278367Y241350D01*
X278374Y241370D01*
X278382Y241386D01*
X278390Y241405D01*
X278402Y241421D01*
X278414Y241441D01*
X278426Y241457D01*
X278441Y241472D01*
X278453Y241488D01*
X278469Y241500D01*
X278485Y241516D01*
X278500Y241527D01*
X278520Y241539D01*
X278536Y241551D01*
X278555Y241559D01*
X278571Y241567D01*
X278591Y241575D01*
X278611Y241582D01*
X278630Y241590D01*
X278650Y241594D01*
X278670Y241598D01*
X278693D01*
X278713Y241602D01*
X280445D01*
X280465Y241598D01*
D02*
G37*
G36*
X273772D02*
X273796D01*
X273815Y241594D01*
X273835Y241590D01*
X273855Y241582D01*
X273874Y241575D01*
X273894Y241567D01*
X273910Y241559D01*
X273930Y241551D01*
X273945Y241539D01*
X273965Y241527D01*
X273981Y241516D01*
X273996Y241500D01*
X274012Y241488D01*
X274024Y241472D01*
X274040Y241457D01*
X274052Y241441D01*
X274063Y241421D01*
X274075Y241405D01*
X274083Y241386D01*
X274091Y241370D01*
X274099Y241350D01*
X274107Y241331D01*
X274115Y241311D01*
X274118Y241291D01*
X274123Y241271D01*
Y241248D01*
X274126Y241228D01*
Y238118D01*
X274123Y238098D01*
Y238075D01*
X274118Y238055D01*
X274115Y238035D01*
X274107Y238016D01*
X274099Y237996D01*
X274091Y237976D01*
X274083Y237961D01*
X274075Y237941D01*
X274063Y237925D01*
X274052Y237905D01*
X274040Y237890D01*
X274024Y237874D01*
X274012Y237858D01*
X273996Y237846D01*
X273981Y237830D01*
X273965Y237819D01*
X273945Y237807D01*
X273930Y237795D01*
X273910Y237787D01*
X273894Y237779D01*
X273874Y237772D01*
X273855Y237764D01*
X273835Y237756D01*
X273815Y237752D01*
X273796Y237748D01*
X273772D01*
X273752Y237744D01*
X272020D01*
X272000Y237748D01*
X271977D01*
X271957Y237752D01*
X271937Y237756D01*
X271918Y237764D01*
X271898Y237772D01*
X271878Y237779D01*
X271863Y237787D01*
X271843Y237795D01*
X271827Y237807D01*
X271808Y237819D01*
X271792Y237830D01*
X271776Y237846D01*
X271760Y237858D01*
X271748Y237874D01*
X271733Y237890D01*
X271721Y237905D01*
X271709Y237925D01*
X271697Y237941D01*
X271689Y237961D01*
X271681Y237976D01*
X271674Y237996D01*
X271666Y238016D01*
X271658Y238035D01*
X271654Y238055D01*
X271650Y238075D01*
Y238098D01*
X271646Y238118D01*
Y241228D01*
X271650Y241248D01*
Y241271D01*
X271654Y241291D01*
X271658Y241311D01*
X271666Y241331D01*
X271674Y241350D01*
X271681Y241370D01*
X271689Y241386D01*
X271697Y241405D01*
X271709Y241421D01*
X271721Y241441D01*
X271733Y241457D01*
X271748Y241472D01*
X271760Y241488D01*
X271776Y241500D01*
X271792Y241516D01*
X271808Y241527D01*
X271827Y241539D01*
X271843Y241551D01*
X271863Y241559D01*
X271878Y241567D01*
X271898Y241575D01*
X271918Y241582D01*
X271937Y241590D01*
X271957Y241594D01*
X271977Y241598D01*
X272000D01*
X272020Y241602D01*
X273752D01*
X273772Y241598D01*
D02*
G37*
G36*
X269441D02*
X269465D01*
X269485Y241594D01*
X269504Y241590D01*
X269524Y241582D01*
X269544Y241575D01*
X269563Y241567D01*
X269579Y241559D01*
X269599Y241551D01*
X269615Y241539D01*
X269634Y241527D01*
X269650Y241516D01*
X269666Y241500D01*
X269682Y241488D01*
X269693Y241472D01*
X269709Y241457D01*
X269721Y241441D01*
X269733Y241421D01*
X269744Y241405D01*
X269752Y241386D01*
X269760Y241370D01*
X269768Y241350D01*
X269776Y241331D01*
X269784Y241311D01*
X269788Y241291D01*
X269792Y241271D01*
Y241248D01*
X269796Y241228D01*
Y238118D01*
X269792Y238098D01*
Y238075D01*
X269788Y238055D01*
X269784Y238035D01*
X269776Y238016D01*
X269768Y237996D01*
X269760Y237976D01*
X269752Y237961D01*
X269744Y237941D01*
X269733Y237925D01*
X269721Y237905D01*
X269709Y237890D01*
X269693Y237874D01*
X269682Y237858D01*
X269666Y237846D01*
X269650Y237830D01*
X269634Y237819D01*
X269615Y237807D01*
X269599Y237795D01*
X269579Y237787D01*
X269563Y237779D01*
X269544Y237772D01*
X269524Y237764D01*
X269504Y237756D01*
X269485Y237752D01*
X269465Y237748D01*
X269441D01*
X269422Y237744D01*
X267689D01*
X267670Y237748D01*
X267646D01*
X267626Y237752D01*
X267607Y237756D01*
X267587Y237764D01*
X267567Y237772D01*
X267548Y237779D01*
X267532Y237787D01*
X267512Y237795D01*
X267496Y237807D01*
X267477Y237819D01*
X267461Y237830D01*
X267445Y237846D01*
X267429Y237858D01*
X267418Y237874D01*
X267402Y237890D01*
X267390Y237905D01*
X267378Y237925D01*
X267367Y237941D01*
X267359Y237961D01*
X267351Y237976D01*
X267343Y237996D01*
X267335Y238016D01*
X267327Y238035D01*
X267323Y238055D01*
X267319Y238075D01*
Y238098D01*
X267315Y238118D01*
Y241228D01*
X267319Y241248D01*
Y241271D01*
X267323Y241291D01*
X267327Y241311D01*
X267335Y241331D01*
X267343Y241350D01*
X267351Y241370D01*
X267359Y241386D01*
X267367Y241405D01*
X267378Y241421D01*
X267390Y241441D01*
X267402Y241457D01*
X267418Y241472D01*
X267429Y241488D01*
X267445Y241500D01*
X267461Y241516D01*
X267477Y241527D01*
X267496Y241539D01*
X267512Y241551D01*
X267532Y241559D01*
X267548Y241567D01*
X267567Y241575D01*
X267587Y241582D01*
X267607Y241590D01*
X267626Y241594D01*
X267646Y241598D01*
X267670D01*
X267689Y241602D01*
X269422D01*
X269441Y241598D01*
D02*
G37*
G36*
X265111D02*
X265134D01*
X265154Y241594D01*
X265174Y241590D01*
X265193Y241582D01*
X265213Y241575D01*
X265233Y241567D01*
X265248Y241559D01*
X265268Y241551D01*
X265284Y241539D01*
X265304Y241527D01*
X265319Y241516D01*
X265335Y241500D01*
X265351Y241488D01*
X265363Y241472D01*
X265378Y241457D01*
X265390Y241441D01*
X265402Y241421D01*
X265414Y241405D01*
X265422Y241386D01*
X265429Y241370D01*
X265437Y241350D01*
X265445Y241331D01*
X265453Y241311D01*
X265457Y241291D01*
X265461Y241271D01*
Y241248D01*
X265465Y241228D01*
Y238118D01*
X265461Y238098D01*
Y238075D01*
X265457Y238055D01*
X265453Y238035D01*
X265445Y238016D01*
X265437Y237996D01*
X265429Y237976D01*
X265422Y237961D01*
X265414Y237941D01*
X265402Y237925D01*
X265390Y237905D01*
X265378Y237890D01*
X265363Y237874D01*
X265351Y237858D01*
X265335Y237846D01*
X265319Y237830D01*
X265304Y237819D01*
X265284Y237807D01*
X265268Y237795D01*
X265248Y237787D01*
X265233Y237779D01*
X265213Y237772D01*
X265193Y237764D01*
X265174Y237756D01*
X265154Y237752D01*
X265134Y237748D01*
X265111D01*
X265091Y237744D01*
X263359D01*
X263339Y237748D01*
X263315D01*
X263296Y237752D01*
X263276Y237756D01*
X263256Y237764D01*
X263237Y237772D01*
X263217Y237779D01*
X263201Y237787D01*
X263181Y237795D01*
X263166Y237807D01*
X263146Y237819D01*
X263130Y237830D01*
X263115Y237846D01*
X263099Y237858D01*
X263087Y237874D01*
X263071Y237890D01*
X263059Y237905D01*
X263048Y237925D01*
X263036Y237941D01*
X263028Y237961D01*
X263020Y237976D01*
X263012Y237996D01*
X263004Y238016D01*
X262997Y238035D01*
X262993Y238055D01*
X262989Y238075D01*
Y238098D01*
X262985Y238118D01*
Y241228D01*
X262989Y241248D01*
Y241271D01*
X262993Y241291D01*
X262997Y241311D01*
X263004Y241331D01*
X263012Y241350D01*
X263020Y241370D01*
X263028Y241386D01*
X263036Y241405D01*
X263048Y241421D01*
X263059Y241441D01*
X263071Y241457D01*
X263087Y241472D01*
X263099Y241488D01*
X263115Y241500D01*
X263130Y241516D01*
X263146Y241527D01*
X263166Y241539D01*
X263181Y241551D01*
X263201Y241559D01*
X263217Y241567D01*
X263237Y241575D01*
X263256Y241582D01*
X263276Y241590D01*
X263296Y241594D01*
X263315Y241598D01*
X263339D01*
X263359Y241602D01*
X265091D01*
X265111Y241598D01*
D02*
G37*
G36*
X260780D02*
X260804D01*
X260823Y241594D01*
X260843Y241590D01*
X260863Y241582D01*
X260882Y241575D01*
X260902Y241567D01*
X260918Y241559D01*
X260937Y241551D01*
X260953Y241539D01*
X260973Y241527D01*
X260989Y241516D01*
X261004Y241500D01*
X261020Y241488D01*
X261032Y241472D01*
X261048Y241457D01*
X261059Y241441D01*
X261071Y241421D01*
X261083Y241405D01*
X261091Y241386D01*
X261099Y241370D01*
X261107Y241350D01*
X261115Y241331D01*
X261122Y241311D01*
X261126Y241291D01*
X261130Y241271D01*
Y241248D01*
X261134Y241228D01*
Y238118D01*
X261130Y238098D01*
Y238075D01*
X261126Y238055D01*
X261122Y238035D01*
X261115Y238016D01*
X261107Y237996D01*
X261099Y237976D01*
X261091Y237961D01*
X261083Y237941D01*
X261071Y237925D01*
X261059Y237905D01*
X261048Y237890D01*
X261032Y237874D01*
X261020Y237858D01*
X261004Y237846D01*
X260989Y237830D01*
X260973Y237819D01*
X260953Y237807D01*
X260937Y237795D01*
X260918Y237787D01*
X260902Y237779D01*
X260882Y237772D01*
X260863Y237764D01*
X260843Y237756D01*
X260823Y237752D01*
X260804Y237748D01*
X260780D01*
X260760Y237744D01*
X259028D01*
X259008Y237748D01*
X258985D01*
X258965Y237752D01*
X258945Y237756D01*
X258926Y237764D01*
X258906Y237772D01*
X258886Y237779D01*
X258871Y237787D01*
X258851Y237795D01*
X258835Y237807D01*
X258815Y237819D01*
X258800Y237830D01*
X258784Y237846D01*
X258768Y237858D01*
X258756Y237874D01*
X258741Y237890D01*
X258729Y237905D01*
X258717Y237925D01*
X258705Y237941D01*
X258697Y237961D01*
X258689Y237976D01*
X258682Y237996D01*
X258674Y238016D01*
X258666Y238035D01*
X258662Y238055D01*
X258658Y238075D01*
Y238098D01*
X258654Y238118D01*
Y241228D01*
X258658Y241248D01*
Y241271D01*
X258662Y241291D01*
X258666Y241311D01*
X258674Y241331D01*
X258682Y241350D01*
X258689Y241370D01*
X258697Y241386D01*
X258705Y241405D01*
X258717Y241421D01*
X258729Y241441D01*
X258741Y241457D01*
X258756Y241472D01*
X258768Y241488D01*
X258784Y241500D01*
X258800Y241516D01*
X258815Y241527D01*
X258835Y241539D01*
X258851Y241551D01*
X258871Y241559D01*
X258886Y241567D01*
X258906Y241575D01*
X258926Y241582D01*
X258945Y241590D01*
X258965Y241594D01*
X258985Y241598D01*
X259008D01*
X259028Y241602D01*
X260760D01*
X260780Y241598D01*
D02*
G37*
G36*
X256449D02*
X256473D01*
X256492Y241594D01*
X256512Y241590D01*
X256532Y241582D01*
X256552Y241575D01*
X256571Y241567D01*
X256587Y241559D01*
X256607Y241551D01*
X256623Y241539D01*
X256642Y241527D01*
X256658Y241516D01*
X256674Y241500D01*
X256689Y241488D01*
X256701Y241472D01*
X256717Y241457D01*
X256729Y241441D01*
X256741Y241421D01*
X256752Y241405D01*
X256760Y241386D01*
X256768Y241370D01*
X256776Y241350D01*
X256784Y241331D01*
X256792Y241311D01*
X256796Y241291D01*
X256800Y241271D01*
Y241248D01*
X256804Y241228D01*
Y238118D01*
X256800Y238098D01*
Y238075D01*
X256796Y238055D01*
X256792Y238035D01*
X256784Y238016D01*
X256776Y237996D01*
X256768Y237976D01*
X256760Y237961D01*
X256752Y237941D01*
X256741Y237925D01*
X256729Y237905D01*
X256717Y237890D01*
X256701Y237874D01*
X256689Y237858D01*
X256674Y237846D01*
X256658Y237830D01*
X256642Y237819D01*
X256623Y237807D01*
X256607Y237795D01*
X256587Y237787D01*
X256571Y237779D01*
X256552Y237772D01*
X256532Y237764D01*
X256512Y237756D01*
X256492Y237752D01*
X256473Y237748D01*
X256449D01*
X256430Y237744D01*
X254697D01*
X254678Y237748D01*
X254654D01*
X254634Y237752D01*
X254615Y237756D01*
X254595Y237764D01*
X254575Y237772D01*
X254556Y237779D01*
X254540Y237787D01*
X254520Y237795D01*
X254504Y237807D01*
X254485Y237819D01*
X254469Y237830D01*
X254453Y237846D01*
X254437Y237858D01*
X254426Y237874D01*
X254410Y237890D01*
X254398Y237905D01*
X254386Y237925D01*
X254374Y237941D01*
X254367Y237961D01*
X254359Y237976D01*
X254351Y237996D01*
X254343Y238016D01*
X254335Y238035D01*
X254331Y238055D01*
X254327Y238075D01*
Y238098D01*
X254323Y238118D01*
Y241228D01*
X254327Y241248D01*
Y241271D01*
X254331Y241291D01*
X254335Y241311D01*
X254343Y241331D01*
X254351Y241350D01*
X254359Y241370D01*
X254367Y241386D01*
X254374Y241405D01*
X254386Y241421D01*
X254398Y241441D01*
X254410Y241457D01*
X254426Y241472D01*
X254437Y241488D01*
X254453Y241500D01*
X254469Y241516D01*
X254485Y241527D01*
X254504Y241539D01*
X254520Y241551D01*
X254540Y241559D01*
X254556Y241567D01*
X254575Y241575D01*
X254595Y241582D01*
X254615Y241590D01*
X254634Y241594D01*
X254654Y241598D01*
X254678D01*
X254697Y241602D01*
X256430D01*
X256449Y241598D01*
D02*
G37*
G36*
X252118D02*
X252142D01*
X252162Y241594D01*
X252182Y241590D01*
X252201Y241582D01*
X252221Y241575D01*
X252241Y241567D01*
X252256Y241559D01*
X252276Y241551D01*
X252292Y241539D01*
X252311Y241527D01*
X252327Y241516D01*
X252343Y241500D01*
X252359Y241488D01*
X252371Y241472D01*
X252386Y241457D01*
X252398Y241441D01*
X252410Y241421D01*
X252422Y241405D01*
X252430Y241386D01*
X252437Y241370D01*
X252445Y241350D01*
X252453Y241331D01*
X252461Y241311D01*
X252465Y241291D01*
X252469Y241271D01*
Y241248D01*
X252473Y241228D01*
Y238118D01*
X252469Y238098D01*
Y238075D01*
X252465Y238055D01*
X252461Y238035D01*
X252453Y238016D01*
X252445Y237996D01*
X252437Y237976D01*
X252430Y237961D01*
X252422Y237941D01*
X252410Y237925D01*
X252398Y237905D01*
X252386Y237890D01*
X252371Y237874D01*
X252359Y237858D01*
X252343Y237846D01*
X252327Y237830D01*
X252311Y237819D01*
X252292Y237807D01*
X252276Y237795D01*
X252256Y237787D01*
X252241Y237779D01*
X252221Y237772D01*
X252201Y237764D01*
X252182Y237756D01*
X252162Y237752D01*
X252142Y237748D01*
X252118D01*
X252099Y237744D01*
X250367D01*
X250347Y237748D01*
X250323D01*
X250304Y237752D01*
X250284Y237756D01*
X250264Y237764D01*
X250244Y237772D01*
X250225Y237779D01*
X250209Y237787D01*
X250189Y237795D01*
X250174Y237807D01*
X250154Y237819D01*
X250138Y237830D01*
X250122Y237846D01*
X250107Y237858D01*
X250095Y237874D01*
X250079Y237890D01*
X250067Y237905D01*
X250056Y237925D01*
X250044Y237941D01*
X250036Y237961D01*
X250028Y237976D01*
X250020Y237996D01*
X250012Y238016D01*
X250004Y238035D01*
X250000Y238055D01*
X249996Y238075D01*
Y238098D01*
X249992Y238118D01*
Y241228D01*
X249996Y241248D01*
Y241271D01*
X250000Y241291D01*
X250004Y241311D01*
X250012Y241331D01*
X250020Y241350D01*
X250028Y241370D01*
X250036Y241386D01*
X250044Y241405D01*
X250056Y241421D01*
X250067Y241441D01*
X250079Y241457D01*
X250095Y241472D01*
X250107Y241488D01*
X250122Y241500D01*
X250138Y241516D01*
X250154Y241527D01*
X250174Y241539D01*
X250189Y241551D01*
X250209Y241559D01*
X250225Y241567D01*
X250244Y241575D01*
X250264Y241582D01*
X250284Y241590D01*
X250304Y241594D01*
X250323Y241598D01*
X250347D01*
X250367Y241602D01*
X252099D01*
X252118Y241598D01*
D02*
G37*
G36*
X247788D02*
X247811D01*
X247831Y241594D01*
X247851Y241590D01*
X247870Y241582D01*
X247890Y241575D01*
X247910Y241567D01*
X247926Y241559D01*
X247945Y241551D01*
X247961Y241539D01*
X247981Y241527D01*
X247996Y241516D01*
X248012Y241500D01*
X248028Y241488D01*
X248040Y241472D01*
X248056Y241457D01*
X248067Y241441D01*
X248079Y241421D01*
X248091Y241405D01*
X248099Y241386D01*
X248107Y241370D01*
X248115Y241350D01*
X248123Y241331D01*
X248130Y241311D01*
X248134Y241291D01*
X248138Y241271D01*
Y241248D01*
X248142Y241228D01*
Y238118D01*
X248138Y238098D01*
Y238075D01*
X248134Y238055D01*
X248130Y238035D01*
X248123Y238016D01*
X248115Y237996D01*
X248107Y237976D01*
X248099Y237961D01*
X248091Y237941D01*
X248079Y237925D01*
X248067Y237905D01*
X248056Y237890D01*
X248040Y237874D01*
X248028Y237858D01*
X248012Y237846D01*
X247996Y237830D01*
X247981Y237819D01*
X247961Y237807D01*
X247945Y237795D01*
X247926Y237787D01*
X247910Y237779D01*
X247890Y237772D01*
X247870Y237764D01*
X247851Y237756D01*
X247831Y237752D01*
X247811Y237748D01*
X247788D01*
X247768Y237744D01*
X246036D01*
X246016Y237748D01*
X245992D01*
X245973Y237752D01*
X245953Y237756D01*
X245934Y237764D01*
X245914Y237772D01*
X245894Y237779D01*
X245878Y237787D01*
X245859Y237795D01*
X245843Y237807D01*
X245823Y237819D01*
X245808Y237830D01*
X245792Y237846D01*
X245776Y237858D01*
X245764Y237874D01*
X245748Y237890D01*
X245737Y237905D01*
X245725Y237925D01*
X245713Y237941D01*
X245705Y237961D01*
X245697Y237976D01*
X245689Y237996D01*
X245682Y238016D01*
X245674Y238035D01*
X245670Y238055D01*
X245666Y238075D01*
Y238098D01*
X245662Y238118D01*
Y241228D01*
X245666Y241248D01*
Y241271D01*
X245670Y241291D01*
X245674Y241311D01*
X245682Y241331D01*
X245689Y241350D01*
X245697Y241370D01*
X245705Y241386D01*
X245713Y241405D01*
X245725Y241421D01*
X245737Y241441D01*
X245748Y241457D01*
X245764Y241472D01*
X245776Y241488D01*
X245792Y241500D01*
X245808Y241516D01*
X245823Y241527D01*
X245843Y241539D01*
X245859Y241551D01*
X245878Y241559D01*
X245894Y241567D01*
X245914Y241575D01*
X245934Y241582D01*
X245953Y241590D01*
X245973Y241594D01*
X245992Y241598D01*
X246016D01*
X246036Y241602D01*
X247768D01*
X247788Y241598D01*
D02*
G37*
G36*
X243457D02*
X243481D01*
X243500Y241594D01*
X243520Y241590D01*
X243540Y241582D01*
X243560Y241575D01*
X243579Y241567D01*
X243595Y241559D01*
X243615Y241551D01*
X243630Y241539D01*
X243650Y241527D01*
X243666Y241516D01*
X243682Y241500D01*
X243697Y241488D01*
X243709Y241472D01*
X243725Y241457D01*
X243737Y241441D01*
X243748Y241421D01*
X243760Y241405D01*
X243768Y241386D01*
X243776Y241370D01*
X243784Y241350D01*
X243792Y241331D01*
X243800Y241311D01*
X243804Y241291D01*
X243808Y241271D01*
Y241248D01*
X243811Y241228D01*
Y238118D01*
X243808Y238098D01*
Y238075D01*
X243804Y238055D01*
X243800Y238035D01*
X243792Y238016D01*
X243784Y237996D01*
X243776Y237976D01*
X243768Y237961D01*
X243760Y237941D01*
X243748Y237925D01*
X243737Y237905D01*
X243725Y237890D01*
X243709Y237874D01*
X243697Y237858D01*
X243682Y237846D01*
X243666Y237830D01*
X243650Y237819D01*
X243630Y237807D01*
X243615Y237795D01*
X243595Y237787D01*
X243579Y237779D01*
X243560Y237772D01*
X243540Y237764D01*
X243520Y237756D01*
X243500Y237752D01*
X243481Y237748D01*
X243457D01*
X243437Y237744D01*
X241705D01*
X241685Y237748D01*
X241662D01*
X241642Y237752D01*
X241622Y237756D01*
X241603Y237764D01*
X241583Y237772D01*
X241563Y237779D01*
X241548Y237787D01*
X241528Y237795D01*
X241512Y237807D01*
X241493Y237819D01*
X241477Y237830D01*
X241461Y237846D01*
X241445Y237858D01*
X241434Y237874D01*
X241418Y237890D01*
X241406Y237905D01*
X241394Y237925D01*
X241382Y237941D01*
X241374Y237961D01*
X241367Y237976D01*
X241359Y237996D01*
X241351Y238016D01*
X241343Y238035D01*
X241339Y238055D01*
X241335Y238075D01*
Y238098D01*
X241331Y238118D01*
Y241228D01*
X241335Y241248D01*
Y241271D01*
X241339Y241291D01*
X241343Y241311D01*
X241351Y241331D01*
X241359Y241350D01*
X241367Y241370D01*
X241374Y241386D01*
X241382Y241405D01*
X241394Y241421D01*
X241406Y241441D01*
X241418Y241457D01*
X241434Y241472D01*
X241445Y241488D01*
X241461Y241500D01*
X241477Y241516D01*
X241493Y241527D01*
X241512Y241539D01*
X241528Y241551D01*
X241548Y241559D01*
X241563Y241567D01*
X241583Y241575D01*
X241603Y241582D01*
X241622Y241590D01*
X241642Y241594D01*
X241662Y241598D01*
X241685D01*
X241705Y241602D01*
X243437D01*
X243457Y241598D01*
D02*
G37*
G36*
X33110Y81566D02*
X26614D01*
Y86291D01*
X33110D01*
Y81566D01*
D02*
G37*
G36*
X23244D02*
X16748D01*
Y86291D01*
X23244D01*
Y81566D01*
D02*
G37*
G36*
X13378D02*
X6882D01*
Y86291D01*
X13378D01*
Y81566D01*
D02*
G37*
G36*
X33110Y75470D02*
X26614D01*
Y80194D01*
X33110D01*
Y75470D01*
D02*
G37*
G36*
X23244D02*
X16748D01*
Y80194D01*
X23244D01*
Y75470D01*
D02*
G37*
G36*
X13378D02*
X6882D01*
Y80194D01*
X13378D01*
Y75470D01*
D02*
G37*
G36*
X33110Y69374D02*
X26614D01*
Y74098D01*
X33110D01*
Y69374D01*
D02*
G37*
G36*
X23244D02*
X16748D01*
Y74098D01*
X23244D01*
Y69374D01*
D02*
G37*
G36*
X13378D02*
X6882D01*
Y74098D01*
X13378D01*
Y69374D01*
D02*
G37*
G36*
X33110Y63278D02*
X26614D01*
Y68002D01*
X33110D01*
Y63278D01*
D02*
G37*
G36*
X23244D02*
X16748D01*
Y68002D01*
X23244D01*
Y63278D01*
D02*
G37*
G36*
X13378D02*
X6882D01*
Y68002D01*
X13378D01*
Y63278D01*
D02*
G37*
G36*
X33110Y57182D02*
X26614D01*
Y61906D01*
X33110D01*
Y57182D01*
D02*
G37*
G36*
X23244D02*
X16748D01*
Y61906D01*
X23244D01*
Y57182D01*
D02*
G37*
G36*
X13378D02*
X6882D01*
Y61906D01*
X13378D01*
Y57182D01*
D02*
G37*
G36*
X33110Y51086D02*
X26614D01*
Y55810D01*
X33110D01*
Y51086D01*
D02*
G37*
G36*
X23244D02*
X16748D01*
Y55810D01*
X23244D01*
Y51086D01*
D02*
G37*
G36*
X13378D02*
X6882D01*
Y55810D01*
X13378D01*
Y51086D01*
D02*
G37*
D20*
X311282Y279043D02*
G03*
X311282Y279043I-797J0D01*
G01*
Y285736D02*
G03*
X311282Y285736I-797J0D01*
G01*
Y265657D02*
G03*
X311282Y265657I-797J0D01*
G01*
Y272350D02*
G03*
X311282Y272350I-797J0D01*
G01*
X304589Y279043D02*
G03*
X304589Y279043I-797J0D01*
G01*
Y285736D02*
G03*
X304589Y285736I-797J0D01*
G01*
Y265657D02*
G03*
X304589Y265657I-797J0D01*
G01*
Y272350D02*
G03*
X304589Y272350I-797J0D01*
G01*
X297896Y252272D02*
G03*
X297896Y252272I-797J0D01*
G01*
Y258964D02*
G03*
X297896Y258964I-797J0D01*
G01*
X291203Y252272D02*
G03*
X291203Y252272I-797J0D01*
G01*
Y258964D02*
G03*
X291203Y258964I-797J0D01*
G01*
X284510Y252272D02*
G03*
X284510Y252272I-797J0D01*
G01*
Y258964D02*
G03*
X284510Y258964I-797J0D01*
G01*
X277817Y252272D02*
G03*
X277817Y252272I-797J0D01*
G01*
Y258964D02*
G03*
X277817Y258964I-797J0D01*
G01*
X271124Y252272D02*
G03*
X271124Y252272I-797J0D01*
G01*
Y258964D02*
G03*
X271124Y258964I-797J0D01*
G01*
X264432Y252272D02*
G03*
X264432Y252272I-797J0D01*
G01*
Y258964D02*
G03*
X264432Y258964I-797J0D01*
G01*
X251046Y272350D02*
G03*
X251046Y272350I-797J0D01*
G01*
Y265657D02*
G03*
X251046Y265657I-797J0D01*
G01*
Y285736D02*
G03*
X251046Y285736I-797J0D01*
G01*
Y279043D02*
G03*
X251046Y279043I-797J0D01*
G01*
X257739Y272350D02*
G03*
X257739Y272350I-797J0D01*
G01*
Y265657D02*
G03*
X257739Y265657I-797J0D01*
G01*
Y285736D02*
G03*
X257739Y285736I-797J0D01*
G01*
Y279043D02*
G03*
X257739Y279043I-797J0D01*
G01*
X264432Y299122D02*
G03*
X264432Y299122I-797J0D01*
G01*
Y292429D02*
G03*
X264432Y292429I-797J0D01*
G01*
X271124Y299122D02*
G03*
X271124Y299122I-797J0D01*
G01*
Y292429D02*
G03*
X271124Y292429I-797J0D01*
G01*
X277817Y299122D02*
G03*
X277817Y299122I-797J0D01*
G01*
Y292429D02*
G03*
X277817Y292429I-797J0D01*
G01*
X284510Y299122D02*
G03*
X284510Y299122I-797J0D01*
G01*
Y292429D02*
G03*
X284510Y292429I-797J0D01*
G01*
X291203Y299122D02*
G03*
X291203Y299122I-797J0D01*
G01*
Y292429D02*
G03*
X291203Y292429I-797J0D01*
G01*
X297896Y299122D02*
G03*
X297896Y299122I-797J0D01*
G01*
Y292429D02*
G03*
X297896Y292429I-797J0D01*
G01*
D21*
X60567Y55287D02*
D03*
Y61987D02*
D03*
Y68688D02*
D03*
Y75389D02*
D03*
Y82090D02*
D03*
D22*
X66418Y290990D02*
D03*
X8151D02*
D03*
Y287053D02*
D03*
Y283116D02*
D03*
Y279179D02*
D03*
X66418D02*
D03*
Y283116D02*
D03*
Y287053D02*
D03*
Y294927D02*
D03*
Y298864D02*
D03*
Y302801D02*
D03*
Y306738D02*
D03*
D23*
X59863Y322308D02*
D03*
X55926D02*
D03*
X51989D02*
D03*
X48052D02*
D03*
X44115D02*
D03*
X40178D02*
D03*
X36241D02*
D03*
X32304D02*
D03*
X28367D02*
D03*
X24430D02*
D03*
X20493D02*
D03*
X16556D02*
D03*
Y264041D02*
D03*
X20493D02*
D03*
X24430D02*
D03*
X44115D02*
D03*
X48052D02*
D03*
X51989D02*
D03*
X55926D02*
D03*
X59863D02*
D03*
D24*
X90390Y270069D02*
D03*
Y303927D02*
D03*
X80390Y270069D02*
D03*
Y303927D02*
D03*
D25*
X49430Y245856D02*
D03*
X53170Y237194D02*
D03*
X45690D02*
D03*
D26*
X289103Y23434D02*
D03*
Y43434D02*
D03*
X288406Y91996D02*
D03*
Y71996D02*
D03*
D27*
X238653Y33434D02*
D03*
X237956Y81996D02*
D03*
D28*
X287905Y113871D02*
D03*
Y123871D02*
D03*
X325805D02*
D03*
Y113871D02*
D03*
X239371D02*
D03*
Y123871D02*
D03*
X277271D02*
D03*
Y113871D02*
D03*
D29*
X215326Y40534D02*
D03*
Y26334D02*
D03*
X214649Y89096D02*
D03*
Y74896D02*
D03*
D30*
X89682Y77881D02*
D03*
Y62133D02*
D03*
D31*
X124806Y29331D02*
D03*
Y25866D02*
D03*
X158159Y84724D02*
D03*
Y81260D02*
D03*
X75254Y133247D02*
D03*
Y136712D02*
D03*
X85194Y51523D02*
D03*
Y54987D02*
D03*
X2584Y162252D02*
D03*
Y165717D02*
D03*
X205824Y162252D02*
D03*
Y158787D02*
D03*
X217551Y230541D02*
D03*
Y227077D02*
D03*
X261238Y231987D02*
D03*
Y228523D02*
D03*
X265568Y231987D02*
D03*
Y228523D02*
D03*
X269899Y228523D02*
D03*
Y231987D02*
D03*
X329579Y260775D02*
D03*
Y264240D02*
D03*
X334303Y260775D02*
D03*
Y264240D02*
D03*
X339028Y264240D02*
D03*
Y260775D02*
D03*
X200592Y30647D02*
D03*
Y27183D02*
D03*
D32*
X164130Y86203D02*
D03*
X170429D02*
D03*
X190248Y164031D02*
D03*
X196547D02*
D03*
X68526Y249959D02*
D03*
X62227D02*
D03*
D33*
X268555Y328393D02*
D03*
X332698Y194640D02*
D03*
X14200Y209843D02*
D03*
X257126Y181322D02*
D03*
X209974Y297620D02*
D03*
X209403Y305287D02*
D03*
X70746Y207301D02*
D03*
X126073Y186610D02*
D03*
X234194Y178960D02*
D03*
X278786Y136903D02*
D03*
D34*
X340263Y251621D02*
D03*
X345578D02*
D03*
X245921Y320051D02*
D03*
X251237D02*
D03*
X107314Y307702D02*
D03*
X101999D02*
D03*
X354428Y244834D02*
D03*
X349113D02*
D03*
D35*
X316390Y202500D02*
D03*
Y220500D02*
D03*
D36*
X290602Y211500D02*
D03*
D37*
X365955Y192602D02*
D03*
X360837D02*
D03*
X224340Y126024D02*
D03*
X219222D02*
D03*
X231179Y118870D02*
D03*
X226061D02*
D03*
X52128Y254640D02*
D03*
X47010D02*
D03*
X70389Y113695D02*
D03*
X75507D02*
D03*
X174557Y165901D02*
D03*
X169439D02*
D03*
X102973Y265748D02*
D03*
X108091D02*
D03*
Y271525D02*
D03*
X102973D02*
D03*
X282142Y194831D02*
D03*
X287260D02*
D03*
X299820Y192602D02*
D03*
X294702D02*
D03*
D38*
X332698Y132421D02*
D03*
Y137539D02*
D03*
X298834Y30875D02*
D03*
Y35993D02*
D03*
Y52134D02*
D03*
Y57252D02*
D03*
X7119Y182143D02*
D03*
Y187261D02*
D03*
X332495Y174466D02*
D03*
Y169348D02*
D03*
X332528Y156796D02*
D03*
Y151678D02*
D03*
X213014Y287616D02*
D03*
Y282498D02*
D03*
X92114Y243485D02*
D03*
Y238367D02*
D03*
X38173Y237186D02*
D03*
Y232068D02*
D03*
D39*
X323918Y52384D02*
D03*
X313918D02*
D03*
Y14484D02*
D03*
X323918D02*
D03*
X308918Y100517D02*
D03*
X318918D02*
D03*
Y62617D02*
D03*
X308918D02*
D03*
D40*
X277210Y56035D02*
D03*
X281738D02*
D03*
X85512Y136489D02*
D03*
X80985D02*
D03*
X220821Y258547D02*
D03*
X225348D02*
D03*
D41*
X212369Y128206D02*
D03*
Y123679D02*
D03*
X197723Y152047D02*
D03*
Y147520D02*
D03*
X207203Y147383D02*
D03*
Y151911D02*
D03*
X212471Y157724D02*
D03*
Y162252D02*
D03*
X224738Y246587D02*
D03*
Y251114D02*
D03*
X210717Y253945D02*
D03*
Y258472D02*
D03*
D42*
X144446Y171878D02*
D03*
Y168728D02*
D03*
X139301D02*
D03*
Y171878D02*
D03*
D43*
X158572Y146437D02*
D03*
X150305D02*
D03*
D44*
X88420Y143122D02*
D03*
Y149815D02*
D03*
X189807Y146437D02*
D03*
Y153130D02*
D03*
D45*
X53548Y118067D02*
D03*
X9848D02*
D03*
D46*
X322949Y239528D02*
D03*
X326414D02*
D03*
X165599Y36177D02*
D03*
X162135D02*
D03*
X165547Y78997D02*
D03*
X169012D02*
D03*
X249239Y226254D02*
D03*
X252703D02*
D03*
X157843Y181789D02*
D03*
X154378D02*
D03*
D47*
X331800Y243172D02*
D03*
X333768D02*
D03*
X335737D02*
D03*
Y239471D02*
D03*
X333768D02*
D03*
X331800D02*
D03*
D48*
X173867Y71430D02*
D03*
X168867D02*
D03*
X163867D02*
D03*
X158867D02*
D03*
Y50002D02*
D03*
X163867D02*
D03*
X168867D02*
D03*
X173867D02*
D03*
D49*
X215580Y274909D02*
D03*
Y272350D02*
D03*
Y269791D02*
D03*
X222666D02*
D03*
Y272350D02*
D03*
Y274909D02*
D03*
D50*
X132685Y76390D02*
D03*
X103945D02*
D03*
D51*
X77609Y54967D02*
D03*
Y49652D02*
D03*
X48792Y184739D02*
D03*
Y190054D02*
D03*
X89193Y97850D02*
D03*
Y103165D02*
D03*
X92114Y231019D02*
D03*
Y225704D02*
D03*
X94773Y215904D02*
D03*
Y210589D02*
D03*
D52*
X121606Y128186D02*
D03*
Y123186D02*
D03*
Y118186D02*
D03*
Y113186D02*
D03*
X100251D02*
D03*
Y118186D02*
D03*
Y123186D02*
D03*
Y128186D02*
D03*
X318927Y160105D02*
D03*
Y165105D02*
D03*
Y170105D02*
D03*
Y175105D02*
D03*
X297572D02*
D03*
Y170105D02*
D03*
Y165105D02*
D03*
Y160105D02*
D03*
X318927Y134980D02*
D03*
Y139980D02*
D03*
Y144980D02*
D03*
Y149980D02*
D03*
X297572D02*
D03*
Y144980D02*
D03*
Y139980D02*
D03*
Y134980D02*
D03*
D53*
X90532Y117638D02*
D03*
Y122756D02*
D03*
X82973Y120197D02*
D03*
D54*
X7119Y197828D02*
D03*
Y193891D02*
D03*
X8059Y166022D02*
D03*
Y162085D02*
D03*
D55*
X29362Y187269D02*
D03*
X24362D02*
D03*
X19362D02*
D03*
X14362D02*
D03*
Y165914D02*
D03*
X19362D02*
D03*
X24362D02*
D03*
X29362D02*
D03*
D56*
X71944Y164149D02*
D03*
X42022D02*
D03*
D57*
X7434Y223278D02*
D03*
X222067Y288587D02*
D03*
D58*
X169737Y150958D02*
D03*
X166588D02*
D03*
X60749Y256946D02*
D03*
X63898D02*
D03*
D59*
X174688Y157536D02*
D03*
D60*
X170358Y154386D02*
D03*
Y155961D02*
D03*
Y157536D02*
D03*
Y159111D02*
D03*
Y160685D02*
D03*
X179019D02*
D03*
Y159111D02*
D03*
Y157536D02*
D03*
Y155961D02*
D03*
Y154386D02*
D03*
D61*
X274682Y151739D02*
D03*
Y158038D02*
D03*
X106109Y294361D02*
D03*
Y300660D02*
D03*
X84633Y225093D02*
D03*
Y218794D02*
D03*
X272764Y203637D02*
D03*
Y197338D02*
D03*
D62*
X264000Y169748D02*
D03*
X246000D02*
D03*
D63*
X254999Y143961D02*
D03*
D64*
X231361Y160004D02*
D03*
Y171028D02*
D03*
D65*
X89193Y90938D02*
D03*
X82500D02*
D03*
D66*
Y97161D02*
D03*
Y103854D02*
D03*
D67*
X115227Y306525D02*
D03*
Y301525D02*
D03*
Y296525D02*
D03*
Y291525D02*
D03*
Y286525D02*
D03*
Y281525D02*
D03*
Y276525D02*
D03*
Y271525D02*
D03*
Y266525D02*
D03*
Y261525D02*
D03*
Y256525D02*
D03*
Y251525D02*
D03*
Y246525D02*
D03*
Y241525D02*
D03*
Y236525D02*
D03*
Y231525D02*
D03*
Y226525D02*
D03*
Y221525D02*
D03*
Y216525D02*
D03*
X184125Y306525D02*
D03*
Y301525D02*
D03*
Y296525D02*
D03*
Y291525D02*
D03*
Y286525D02*
D03*
Y281525D02*
D03*
Y276525D02*
D03*
Y271525D02*
D03*
Y266525D02*
D03*
Y261525D02*
D03*
Y256525D02*
D03*
Y251525D02*
D03*
Y246525D02*
D03*
Y241525D02*
D03*
Y236525D02*
D03*
Y231525D02*
D03*
Y226525D02*
D03*
Y221525D02*
D03*
Y216525D02*
D03*
D68*
X138259Y275817D02*
D03*
X143770D02*
D03*
X149282D02*
D03*
X138259Y281328D02*
D03*
X143770D02*
D03*
X149282D02*
D03*
X138259Y270305D02*
D03*
X143770D02*
D03*
X149282D02*
D03*
D69*
X254614Y201220D02*
D03*
Y203780D02*
D03*
X344596Y266937D02*
D03*
Y264378D02*
D03*
D70*
X372481Y250641D02*
D03*
Y239027D02*
D03*
D71*
X366477Y244834D02*
D03*
D72*
X238530Y227891D02*
D03*
Y229466D02*
D03*
Y231041D02*
D03*
Y232616D02*
D03*
X242861D02*
D03*
Y231041D02*
D03*
Y229466D02*
D03*
Y227891D02*
D03*
D73*
X249264Y209752D02*
D03*
X224067D02*
D03*
D74*
X343348Y276644D02*
D03*
Y301840D02*
D03*
D75*
X106698Y240926D02*
D03*
Y223210D02*
D03*
X98233Y240926D02*
D03*
Y223210D02*
D03*
D76*
X85113Y164090D02*
D03*
X87672D02*
D03*
X90231D02*
D03*
X92790D02*
D03*
X95349D02*
D03*
X97908D02*
D03*
X100467D02*
D03*
X103026D02*
D03*
Y186688D02*
D03*
X100467D02*
D03*
X97908D02*
D03*
X95349D02*
D03*
X92790D02*
D03*
X90231D02*
D03*
X87672D02*
D03*
X85113D02*
D03*
D77*
X149157Y171299D02*
D03*
X161362D02*
D03*
Y163425D02*
D03*
X149157D02*
D03*
D78*
X152504Y171299D02*
D03*
X155260D02*
D03*
X158015D02*
D03*
Y163425D02*
D03*
X155260D02*
D03*
X152504D02*
D03*
D79*
X362141Y244867D02*
D03*
X360625Y245851D02*
D03*
Y243883D02*
D03*
X359109Y245851D02*
D03*
Y243883D02*
D03*
D80*
X328792Y220500D02*
D03*
X339815D02*
D03*
D81*
X344324Y243663D02*
D03*
X340922D02*
D03*
D82*
X193892Y32161D02*
D03*
Y25271D02*
D03*
X132685Y25612D02*
D03*
Y32502D02*
D03*
M02*
