G04*
G04 #@! TF.GenerationSoftware,Altium Limited,Altium Designer,21.3.2 (30)*
G04*
G04 Layer_Physical_Order=1*
G04 Layer_Color=255*
%FSLAX25Y25*%
%MOIN*%
G70*
G04*
G04 #@! TF.SameCoordinates,C802B3A6-08BF-4FCB-9CCF-05BD449E4A77*
G04*
G04*
G04 #@! TF.FilePolarity,Positive*
G04*
G01*
G75*
%ADD10C,0.00787*%
%ADD12C,0.03937*%
%ADD16C,0.00600*%
%ADD18C,0.01000*%
%ADD21R,0.12008X0.04000*%
%ADD22R,0.07087X0.02756*%
%ADD23R,0.02756X0.07087*%
%ADD24R,0.04449X0.09606*%
%ADD25R,0.03937X0.05512*%
%ADD26R,0.13800X0.04100*%
%ADD27R,0.30300X0.24700*%
%ADD28R,0.06000X0.02200*%
%ADD29R,0.04900X0.03800*%
%ADD30R,0.06102X0.08858*%
%ADD31R,0.02520X0.02362*%
%ADD32R,0.05118X0.05512*%
%ADD33R,0.16535X0.05906*%
%ADD34R,0.03543X0.03937*%
%ADD35R,0.10236X0.04173*%
%ADD36R,0.22441X0.22173*%
%ADD37R,0.03347X0.03740*%
%ADD38R,0.03740X0.03347*%
%ADD39R,0.02200X0.06000*%
%ADD40R,0.02953X0.02362*%
%ADD41R,0.02362X0.02953*%
%ADD42R,0.01968X0.01575*%
%ADD43R,0.03543X0.04724*%
%ADD44R,0.05709X0.04724*%
%ADD45R,0.12205X0.19685*%
%ADD46R,0.02362X0.02520*%
G04:AMPARAMS|DCode=47|XSize=29.92mil|YSize=8.66mil|CornerRadius=1.08mil|HoleSize=0mil|Usage=FLASHONLY|Rotation=90.000|XOffset=0mil|YOffset=0mil|HoleType=Round|Shape=RoundedRectangle|*
%AMROUNDEDRECTD47*
21,1,0.02992,0.00650,0,0,90.0*
21,1,0.02776,0.00866,0,0,90.0*
1,1,0.00217,0.00325,0.01388*
1,1,0.00217,0.00325,-0.01388*
1,1,0.00217,-0.00325,-0.01388*
1,1,0.00217,-0.00325,0.01388*
%
%ADD47ROUNDEDRECTD47*%
%ADD48R,0.02097X0.05728*%
%ADD49R,0.04331X0.01575*%
%ADD50R,0.16535X0.08661*%
%ADD51R,0.03937X0.03543*%
%ADD52R,0.06004X0.02756*%
G04:AMPARAMS|DCode=53|XSize=46.85mil|YSize=15.75mil|CornerRadius=1.97mil|HoleSize=0mil|Usage=FLASHONLY|Rotation=180.000|XOffset=0mil|YOffset=0mil|HoleType=Round|Shape=RoundedRectangle|*
%AMROUNDEDRECTD53*
21,1,0.04685,0.01181,0,0,180.0*
21,1,0.04291,0.01575,0,0,180.0*
1,1,0.00394,-0.02146,0.00591*
1,1,0.00394,0.02146,0.00591*
1,1,0.00394,0.02146,-0.00591*
1,1,0.00394,-0.02146,-0.00591*
%
%ADD53ROUNDEDRECTD53*%
%ADD54R,0.02362X0.01968*%
%ADD55R,0.02756X0.06004*%
%ADD56R,0.17913X0.09055*%
%ADD57R,0.05906X0.16535*%
%ADD58R,0.01575X0.01968*%
%ADD59R,0.03937X0.06299*%
%ADD60R,0.02953X0.00787*%
%ADD61R,0.05512X0.05118*%
%ADD62R,0.04173X0.10236*%
%ADD63R,0.22173X0.22441*%
%ADD64R,0.10630X0.05118*%
%ADD65R,0.03543X0.03150*%
%ADD66R,0.03150X0.03543*%
%ADD67R,0.05906X0.03543*%
%ADD68R,0.03543X0.03543*%
%ADD69R,0.02362X0.01378*%
%ADD70R,0.08661X0.04134*%
%ADD71R,0.04134X0.03937*%
%ADD72R,0.03543X0.00787*%
%ADD73R,0.12992X0.05118*%
%ADD74R,0.05118X0.12992*%
%ADD75R,0.02756X0.03937*%
G04:AMPARAMS|DCode=76|XSize=61.81mil|YSize=16.14mil|CornerRadius=2.02mil|HoleSize=0mil|Usage=FLASHONLY|Rotation=90.000|XOffset=0mil|YOffset=0mil|HoleType=Round|Shape=RoundedRectangle|*
%AMROUNDEDRECTD76*
21,1,0.06181,0.01211,0,0,90.0*
21,1,0.05778,0.01614,0,0,90.0*
1,1,0.00404,0.00605,0.02889*
1,1,0.00404,0.00605,-0.02889*
1,1,0.00404,-0.00605,-0.02889*
1,1,0.00404,-0.00605,0.02889*
%
%ADD76ROUNDEDRECTD76*%
%ADD77R,0.02756X0.03543*%
%ADD78R,0.01575X0.03543*%
%ADD79R,0.00709X0.00984*%
%ADD80R,0.05118X0.10630*%
%ADD81R,0.02126X0.02362*%
%ADD82R,0.05315X0.04528*%
%ADD164C,0.01200*%
%ADD165R,0.32992X0.41968*%
%ADD166R,0.03937X0.03937*%
%ADD167R,0.04331X0.02756*%
%ADD168R,0.02756X0.04331*%
%ADD169C,0.02500*%
%ADD170C,0.02000*%
%ADD171C,0.05000*%
%ADD172C,0.02953*%
%ADD173C,0.00800*%
%ADD174C,0.01201*%
%ADD175C,0.01181*%
%ADD176C,0.01968*%
%ADD177C,0.03000*%
%ADD178C,0.09409*%
%ADD179C,0.13583*%
%ADD180C,0.07677*%
%ADD181C,0.06496*%
%ADD182R,0.06496X0.06496*%
%ADD183O,0.08858X0.17717*%
%ADD184O,0.17717X0.08858*%
%ADD185O,0.19685X0.09843*%
%ADD186R,0.07972X0.07972*%
%ADD187C,0.07972*%
%ADD188R,0.04134X0.04134*%
%ADD189C,0.04134*%
%ADD190C,0.04213*%
%ADD191C,0.01900*%
%ADD192C,0.05000*%
%ADD193C,0.02362*%
%ADD194C,0.01968*%
%ADD195C,0.02000*%
%ADD196C,0.01575*%
%ADD197C,0.01500*%
%ADD198C,0.02756*%
G36*
X356917Y289592D02*
X355029Y287705D01*
X331767D01*
Y269352D01*
X342051D01*
Y264870D01*
X342096D01*
X342385Y265159D01*
X345678D01*
X345678Y265159D01*
X345739Y265305D01*
X349118D01*
Y275112D01*
X349149Y275186D01*
X359728D01*
Y283819D01*
X360827Y284918D01*
X377658D01*
Y211591D01*
X377292Y211225D01*
X377658Y210859D01*
Y204054D01*
X358631D01*
X358412Y204145D01*
Y229008D01*
X356355D01*
Y238664D01*
X356429Y238738D01*
X356680Y239345D01*
Y240001D01*
X356429Y240608D01*
X355964Y241073D01*
X355358Y241324D01*
X354701D01*
X354094Y241073D01*
X353630Y240608D01*
X353379Y240001D01*
Y239345D01*
X353630Y238738D01*
X353703Y238664D01*
Y229008D01*
X335505D01*
X335140Y229351D01*
Y232814D01*
X335359Y233032D01*
X333308Y235083D01*
X312307D01*
X312089Y235302D01*
Y244184D01*
X280144D01*
X279690Y244665D01*
Y249981D01*
X279689Y249981D01*
Y254940D01*
X274352D01*
Y250498D01*
X273993Y250150D01*
X259561Y250578D01*
X240232D01*
Y281171D01*
Y299122D01*
Y308705D01*
X255431D01*
X255431Y308855D01*
X257316D01*
X257641Y308855D01*
X258141Y308855D01*
X261647D01*
X261972Y308855D01*
X262472Y308855D01*
X265978D01*
X266303Y308855D01*
X266803Y308855D01*
X270308D01*
X270634Y308855D01*
X271133Y308855D01*
X274964D01*
Y314586D01*
X271133D01*
X270808Y314586D01*
X270308Y314586D01*
X266803D01*
X266478Y314586D01*
X265978Y314586D01*
X262472D01*
X262147Y314586D01*
X261647Y314586D01*
X258141D01*
X257816Y314586D01*
X257316Y314586D01*
X255811D01*
X255459Y314940D01*
X255487Y321238D01*
X255487D01*
Y321238D01*
X260515Y321272D01*
X356917D01*
Y289592D01*
D02*
G37*
G36*
X110389Y297377D02*
X110389Y292895D01*
X110389Y288898D01*
X118876D01*
Y289054D01*
X118880D01*
Y291179D01*
X118991Y291290D01*
X124239D01*
Y288983D01*
X124154Y288898D01*
X124220D01*
Y284722D01*
X124220Y284406D01*
X124293Y284252D01*
X124293Y284252D01*
X124293D01*
X124293Y283752D01*
Y278332D01*
X119536D01*
X119097Y278771D01*
Y284187D01*
X102632D01*
X102119Y284699D01*
X102192Y284772D01*
Y297306D01*
X102653Y297401D01*
Y297401D01*
X109565D01*
Y297592D01*
X110018Y297701D01*
X110389Y297377D01*
D02*
G37*
G36*
X191290Y308407D02*
Y304106D01*
X179695D01*
X178201Y302612D01*
Y278676D01*
X187992D01*
X187992Y274882D01*
X187639Y274529D01*
X178900D01*
X178337Y274529D01*
X178269Y274461D01*
X178541Y274189D01*
X178541Y274029D01*
Y268477D01*
X187380D01*
X187720Y268118D01*
Y264533D01*
X132580D01*
Y267835D01*
X132586Y267868D01*
X132501Y268297D01*
X132392Y268460D01*
Y284252D01*
Y304242D01*
X111783D01*
X111468Y304373D01*
Y305686D01*
X105856D01*
Y309002D01*
X190695D01*
X191290Y308407D01*
D02*
G37*
G36*
X22265Y317886D02*
X28221Y311929D01*
X61000D01*
Y269449D01*
X57202D01*
Y260019D01*
X57076Y259714D01*
X54241D01*
Y268771D01*
X22469D01*
Y268284D01*
X22352D01*
Y259835D01*
X22333Y259816D01*
X14464D01*
Y315986D01*
X15414Y316936D01*
X18805D01*
Y325551D01*
X19279Y326025D01*
X19764Y326094D01*
X22265D01*
Y317886D01*
D02*
G37*
G36*
X187380Y249755D02*
X176951D01*
X176788Y249592D01*
X173416Y246753D01*
X168313D01*
X168139Y246825D01*
Y258241D01*
X187380Y258241D01*
Y249755D01*
D02*
G37*
G36*
X65087Y259018D02*
X65478Y258702D01*
Y254185D01*
X65816Y254524D01*
X71883D01*
Y253838D01*
X71688Y253547D01*
X71595Y253079D01*
Y232263D01*
X69665Y228814D01*
X34951D01*
Y233223D01*
X34979Y233291D01*
X50282D01*
Y239736D01*
X51223Y240676D01*
X53907D01*
X54292Y240753D01*
X65410D01*
Y246503D01*
X65486D01*
Y252700D01*
X65818Y253033D01*
X65486Y253050D01*
Y253415D01*
X62281D01*
X62227Y253545D01*
Y255262D01*
X62236D01*
Y258630D01*
X62507Y259018D01*
X65087D01*
D02*
G37*
G36*
X271133Y222754D02*
X256104D01*
Y225027D01*
X251417D01*
Y227336D01*
X258717Y227336D01*
Y229466D01*
X271133D01*
Y222754D01*
D02*
G37*
G36*
X88181Y234224D02*
X88057Y234101D01*
Y222339D01*
X81798D01*
X81222Y222448D01*
X81153Y222543D01*
X81258Y223177D01*
X81324Y223243D01*
Y234641D01*
X87891D01*
X88181Y234224D01*
D02*
G37*
G36*
X348487Y218522D02*
Y213519D01*
X334676D01*
X334324Y226254D01*
X334676Y226597D01*
X334676D01*
X334948Y226985D01*
X348487D01*
Y218522D01*
D02*
G37*
G36*
X100467Y213654D02*
X100050Y213363D01*
X91113D01*
Y220708D01*
X91113Y221084D01*
X91577Y221173D01*
X100467D01*
Y213654D01*
D02*
G37*
G36*
X308532Y224136D02*
Y215767D01*
X321054D01*
X321261Y215267D01*
X320808Y214815D01*
Y207400D01*
X309118D01*
X307854Y206136D01*
Y196298D01*
X297269D01*
X296727Y195756D01*
X296902Y195581D01*
Y191295D01*
X296365Y190758D01*
X292415D01*
X292165Y191008D01*
Y198655D01*
X277970D01*
Y201340D01*
X268555D01*
Y207400D01*
X243225D01*
X243033Y207862D01*
X243068Y207897D01*
Y212375D01*
X250283D01*
X251343Y212375D01*
X251344Y212376D01*
X251417Y212714D01*
X275156D01*
X275960Y213519D01*
Y225027D01*
X307641D01*
X308532Y224136D01*
D02*
G37*
G36*
X236499Y194025D02*
X235113Y192639D01*
X216435D01*
Y219550D01*
X216671Y219952D01*
X236499D01*
Y194025D01*
D02*
G37*
G36*
X32935Y191676D02*
X12372D01*
X12314Y191814D01*
Y200919D01*
X32935D01*
Y191676D01*
D02*
G37*
G36*
X214819Y160756D02*
X214649Y160685D01*
X194573D01*
X194209Y166934D01*
X194682Y167419D01*
X214819D01*
Y160756D01*
D02*
G37*
G36*
X108239Y160442D02*
X102116D01*
Y168020D01*
X90841D01*
Y160685D01*
X84071D01*
X84067Y169899D01*
X84421Y170252D01*
X108239D01*
Y160442D01*
D02*
G37*
G36*
X306552Y172049D02*
Y158269D01*
X306552Y158269D01*
X301786D01*
Y178837D01*
X306552D01*
Y172049D01*
D02*
G37*
G36*
X266340Y163702D02*
X266498Y163859D01*
X278855D01*
Y155782D01*
X278650Y155697D01*
X266786D01*
Y155881D01*
X243213D01*
Y155697D01*
X224836D01*
Y163499D01*
X224837Y163499D01*
X261834D01*
Y174798D01*
X261946Y175068D01*
X266340D01*
Y163702D01*
D02*
G37*
G36*
X63657Y168389D02*
X80613D01*
Y150455D01*
X80500Y150183D01*
X62227D01*
Y168108D01*
X62507Y168389D01*
X63657Y168389D01*
X63657Y168389D01*
D02*
G37*
G36*
X180827Y161826D02*
Y160591D01*
X180460Y160224D01*
X179113D01*
X179014Y160204D01*
X176843D01*
Y158017D01*
Y153293D01*
X177023D01*
Y147889D01*
X172330D01*
Y153293D01*
X172534D01*
Y158017D01*
Y161779D01*
X172996Y161871D01*
X180782D01*
X180827Y161826D01*
D02*
G37*
G36*
X306389Y146586D02*
Y132807D01*
X306389Y132807D01*
X301623D01*
Y154154D01*
X306389D01*
Y146586D01*
D02*
G37*
G36*
X314696Y172188D02*
Y158332D01*
Y146418D01*
Y132561D01*
X313685D01*
X313685Y132579D01*
X313685Y132579D01*
X309930Y132638D01*
Y158409D01*
Y179756D01*
X314696D01*
Y172188D01*
D02*
G37*
G36*
X110002Y95193D02*
X94604D01*
Y108225D01*
X104543D01*
Y115792D01*
X103897Y116438D01*
X96792D01*
Y129191D01*
X97292Y129536D01*
X97410Y129494D01*
X102010Y129571D01*
X110002D01*
Y95193D01*
D02*
G37*
G36*
X39303Y154634D02*
X26361D01*
X26140Y154413D01*
Y131672D01*
X26149Y108852D01*
X25796Y108499D01*
X3615D01*
Y131672D01*
X20241D01*
Y153755D01*
X19141D01*
Y154413D01*
X12625D01*
X12624Y161221D01*
X13124Y161721D01*
X33156D01*
Y171590D01*
X12623D01*
Y181789D01*
X12977Y182143D01*
X39303D01*
Y154634D01*
D02*
G37*
G36*
X124812Y130059D02*
Y112008D01*
X117634D01*
Y108432D01*
X127915D01*
Y95348D01*
X113479D01*
Y129031D01*
X113479Y129532D01*
Y130112D01*
X124758D01*
X124812Y130059D01*
D02*
G37*
G36*
X95349Y92634D02*
Y80952D01*
X95544Y80757D01*
X112773D01*
Y69830D01*
X112124Y67968D01*
X84522D01*
Y83527D01*
X84421Y83629D01*
X87349Y86558D01*
X87456D01*
Y92136D01*
X87809Y92635D01*
X95349Y92634D01*
D02*
G37*
G36*
X178181Y82992D02*
X170352D01*
X170429Y82915D01*
Y76538D01*
X170429Y65495D01*
X174768D01*
Y48034D01*
X174413Y47682D01*
X172908Y47697D01*
Y57231D01*
X172729Y57410D01*
X168016D01*
Y90010D01*
X178181Y90010D01*
Y82992D01*
D02*
G37*
G36*
X36820Y105474D02*
X48320Y93973D01*
X48429Y93375D01*
Y32535D01*
X104566D01*
Y38760D01*
X104737Y39174D01*
X116970D01*
Y33801D01*
X117109Y33662D01*
Y1064D01*
X4167D01*
X3866Y44356D01*
X4218Y44711D01*
X36355D01*
Y92253D01*
X3877Y92253D01*
Y105474D01*
X36820Y105474D01*
D02*
G37*
%LPC*%
G36*
X303485Y314586D02*
X302985Y314586D01*
X299480D01*
X299155Y314586D01*
X298655Y314586D01*
X295149D01*
X294824Y314586D01*
X294324Y314586D01*
X290493D01*
Y308855D01*
X294324D01*
X294649Y308855D01*
X295149Y308855D01*
X298655D01*
X298980Y308855D01*
X299480Y308855D01*
X302985D01*
X303311Y308855D01*
X303811Y308855D01*
X307641D01*
Y314586D01*
X303485Y314586D01*
D02*
G37*
G36*
X316478D02*
X315978Y314586D01*
X312147D01*
Y308855D01*
X315978D01*
X316303Y308855D01*
X316803Y308855D01*
X320634D01*
Y314586D01*
X316478Y314586D01*
D02*
G37*
G36*
X299767Y301790D02*
X294430D01*
Y296453D01*
X299767D01*
Y301790D01*
D02*
G37*
G36*
X293074D02*
X287737D01*
Y296453D01*
X293074D01*
Y301790D01*
D02*
G37*
G36*
X286382D02*
X281045D01*
Y296453D01*
X286382D01*
Y301790D01*
D02*
G37*
G36*
X279689D02*
X274352D01*
Y296453D01*
X279689D01*
Y301790D01*
D02*
G37*
G36*
X326539Y298444D02*
X320808D01*
Y294288D01*
X326539D01*
Y298444D01*
D02*
G37*
G36*
X299767Y295097D02*
X294430D01*
Y289760D01*
X299767D01*
Y295097D01*
D02*
G37*
G36*
X293074D02*
X287737D01*
Y289760D01*
X293074D01*
Y295097D01*
D02*
G37*
G36*
X286382D02*
X281045D01*
Y289760D01*
X286382D01*
Y295097D01*
D02*
G37*
G36*
X279689D02*
X274352D01*
Y289760D01*
X279689D01*
Y295097D01*
D02*
G37*
G36*
X272996D02*
X267659D01*
Y289760D01*
X272996D01*
Y295097D01*
D02*
G37*
G36*
X266303D02*
X260966D01*
Y289760D01*
X266303D01*
Y295097D01*
D02*
G37*
G36*
X326539Y285452D02*
X320808D01*
Y281296D01*
X326539D01*
Y285452D01*
D02*
G37*
G36*
Y275609D02*
X320808D01*
Y271453D01*
X326539D01*
Y275609D01*
D02*
G37*
G36*
X306460Y268326D02*
X301123D01*
Y262989D01*
X306460D01*
Y268326D01*
D02*
G37*
G36*
X259610D02*
X254273D01*
Y262989D01*
X259610D01*
Y268326D01*
D02*
G37*
G36*
X332799Y262965D02*
X320114D01*
Y262117D01*
Y250450D01*
X320808D01*
Y249800D01*
X326539D01*
Y250450D01*
X329771D01*
X329974Y250248D01*
Y248313D01*
X329881Y248221D01*
X329630Y247614D01*
Y246957D01*
X329881Y246350D01*
X330345Y245886D01*
X330814Y245692D01*
X330918Y245257D01*
X330908Y245153D01*
X330892Y245143D01*
X330714Y244875D01*
X330651Y244560D01*
Y244287D01*
X330103D01*
X329595Y244186D01*
X329165Y243899D01*
X326755Y241488D01*
X321068D01*
X321068Y241488D01*
Y241488D01*
X321068Y241488D01*
X320634Y241646D01*
Y242538D01*
X316478D01*
Y236808D01*
X320634D01*
Y237411D01*
X321068Y237569D01*
Y237569D01*
X328295D01*
Y239279D01*
X330283Y241267D01*
X330892Y241201D01*
X331159Y241023D01*
X331475Y240960D01*
X332124D01*
X332440Y241023D01*
X332784Y241169D01*
X333128Y241023D01*
X333443Y240960D01*
X334093D01*
X334098Y240961D01*
X334155Y240949D01*
X334588Y240587D01*
Y238083D01*
X334650Y237768D01*
X334829Y237501D01*
X335097Y237322D01*
X335412Y237259D01*
X336062D01*
X336377Y237322D01*
X336644Y237501D01*
X336823Y237768D01*
X336886Y238083D01*
Y238405D01*
X337840Y238800D01*
X338316Y239165D01*
X338691Y239454D01*
X338697Y239460D01*
X339042Y239818D01*
X341006Y241782D01*
X346087D01*
Y242338D01*
X346641D01*
Y242166D01*
X351456D01*
X351585Y242166D01*
X351956D01*
X352085Y242166D01*
X356900D01*
Y242768D01*
X358055D01*
Y242691D01*
X360164D01*
Y243577D01*
X360225Y243883D01*
X360164Y244189D01*
Y245075D01*
X358055D01*
Y244998D01*
X356900D01*
Y247503D01*
X352085D01*
X351956Y247503D01*
X351585D01*
X351456Y247503D01*
X346641D01*
Y244989D01*
X346087D01*
Y245545D01*
X339159D01*
Y243684D01*
X337386Y241910D01*
X336886Y242118D01*
Y244560D01*
X336823Y244875D01*
X336644Y245143D01*
X336377Y245321D01*
X336163Y245364D01*
Y248478D01*
X337329Y249644D01*
X337791Y249452D01*
Y248952D01*
X342735D01*
Y252316D01*
X342850Y252489D01*
X342950Y252993D01*
Y255154D01*
X343755Y255959D01*
X351152D01*
X353565Y253545D01*
Y253202D01*
X353503Y253140D01*
X353252Y252534D01*
Y251877D01*
X353503Y251270D01*
X353967Y250806D01*
X354574Y250554D01*
X355231D01*
X355837Y250806D01*
X356302Y251270D01*
X356553Y251877D01*
Y252534D01*
X356302Y253140D01*
X356197Y253245D01*
Y254090D01*
X356097Y254594D01*
X355811Y255021D01*
X352627Y258205D01*
X352200Y258490D01*
X351697Y258591D01*
X343210D01*
X342706Y258490D01*
X342279Y258205D01*
X340704Y256630D01*
X340419Y256203D01*
X340319Y255700D01*
Y254289D01*
X337791D01*
Y253010D01*
X337519D01*
X337015Y252910D01*
X336588Y252624D01*
X333917Y249953D01*
X333632Y249527D01*
X333532Y249023D01*
Y245530D01*
X333298Y245484D01*
X333148Y245383D01*
X332707Y245143D01*
X332440Y245321D01*
X332250Y245359D01*
X332163Y245818D01*
X332168Y245866D01*
X332216Y245886D01*
X332680Y246350D01*
X332931Y246957D01*
Y247614D01*
X332680Y248221D01*
X332421Y248480D01*
Y250450D01*
X332799D01*
Y258894D01*
X336263D01*
Y259552D01*
X337068D01*
Y258894D01*
X340988D01*
Y259674D01*
X342527D01*
X342699Y259708D01*
X342844Y259648D01*
X343500D01*
X344107Y259900D01*
X344571Y260364D01*
X344823Y260971D01*
Y261628D01*
X344571Y262234D01*
X344107Y262699D01*
X343500Y262950D01*
X342844D01*
X342237Y262699D01*
X341773Y262234D01*
X341726Y262121D01*
X340988D01*
Y262656D01*
X337068D01*
Y261999D01*
X336263D01*
Y262656D01*
X332799D01*
Y262965D01*
D02*
G37*
G36*
X299767Y261633D02*
X294430D01*
Y256296D01*
X299767D01*
Y261633D01*
D02*
G37*
G36*
X293074D02*
X287737D01*
Y256296D01*
X293074D01*
Y261633D01*
D02*
G37*
G36*
X286382D02*
X281045D01*
Y256296D01*
X286382D01*
Y261633D01*
D02*
G37*
G36*
X279689D02*
X274352D01*
Y256296D01*
X279689D01*
Y261633D01*
D02*
G37*
G36*
X272996D02*
X267659D01*
Y256296D01*
X272996D01*
Y261633D01*
D02*
G37*
G36*
X266303D02*
X260966D01*
Y256296D01*
X266303D01*
Y261633D01*
D02*
G37*
G36*
X299767Y254940D02*
X294430D01*
Y250043D01*
X294369Y249981D01*
X294430D01*
Y249603D01*
X299767D01*
Y249885D01*
Y254940D01*
D02*
G37*
G36*
X293074D02*
X287737D01*
Y250100D01*
X287614Y249981D01*
X287737D01*
Y249603D01*
X293074D01*
Y249603D01*
Y254940D01*
D02*
G37*
G36*
X286382D02*
X281045D01*
Y250299D01*
X280716Y249981D01*
X281045D01*
Y249603D01*
X286382D01*
Y249782D01*
Y254940D01*
D02*
G37*
G36*
X369244Y247503D02*
X363710D01*
Y246091D01*
X362141D01*
X361983Y246059D01*
X361087D01*
Y245449D01*
X361011Y245335D01*
X360917Y244867D01*
X361011Y244399D01*
X361087Y244285D01*
Y243675D01*
X361983D01*
X362141Y243644D01*
X363710D01*
Y242166D01*
X369244D01*
Y247503D01*
D02*
G37*
%LPD*%
D10*
X102653Y225361D02*
X107981Y230688D01*
Y237315D01*
X102601Y209551D02*
X105771Y206380D01*
X111468D01*
X102376Y209551D02*
X102601D01*
X194253Y191405D02*
X200929Y184729D01*
X193127Y191405D02*
X194253D01*
X186664Y197869D02*
X193127Y191405D01*
X181547Y204370D02*
X186664Y199253D01*
Y197869D02*
Y199253D01*
X171652Y204370D02*
X181547D01*
X182996Y205860D02*
X187516Y201340D01*
X200824D01*
X155326Y205860D02*
X182996D01*
X100868Y281525D02*
X115227D01*
X100662Y281732D02*
X100868Y281525D01*
X131465Y246861D02*
Y267868D01*
X118900Y276485D02*
X129648Y265737D01*
X131465Y246861D02*
X134288Y244037D01*
X129648Y233438D02*
Y265737D01*
X119483Y270410D02*
X124874Y265019D01*
X115227Y271525D02*
X116342Y270410D01*
X124874Y211869D02*
Y265019D01*
X116342Y270410D02*
X119483D01*
X115227Y276525D02*
X115267Y276485D01*
X118900D01*
X137197Y202197D02*
X137227Y202227D01*
X146072D01*
X150358Y194871D02*
Y197941D01*
X148188Y200111D02*
X148188D01*
X146072Y202227D02*
X148188Y200111D01*
X148188D02*
X150358Y197941D01*
X111906Y194982D02*
X112565D01*
X133670Y216087D02*
Y225747D01*
X112565Y194982D02*
X133670Y216087D01*
X111694Y194769D02*
X111906Y194982D01*
X112621Y199616D02*
X124874Y211869D01*
X93046Y199616D02*
X112621D01*
X133508Y212083D02*
X154129D01*
X113486Y192062D02*
X133508Y212083D01*
X109864Y192062D02*
X113486D01*
X107778Y194148D02*
X109864Y192062D01*
X96746Y194148D02*
X107778D01*
X95349Y192751D02*
X96746Y194148D01*
X133170Y204370D02*
X153835D01*
X127757Y196196D02*
Y198957D01*
X133170Y204370D01*
X159737Y218794D02*
X162094Y221151D01*
X166185D02*
X171360Y226326D01*
X162094Y221151D02*
X166185D01*
X355045Y243884D02*
X355045Y243883D01*
X359109D01*
X129648Y233438D02*
X142804Y220282D01*
X89627Y196197D02*
X93046Y199616D01*
X118657Y230147D02*
X119273Y229531D01*
X116339Y211159D02*
X119119Y213939D01*
X115227Y231525D02*
X116605Y230147D01*
X118657D01*
X119119Y213939D02*
Y214146D01*
X119273Y214301D01*
Y229531D01*
X119137Y241525D02*
X121432Y239230D01*
Y220282D02*
Y239230D01*
X205047Y170357D02*
X214669D01*
X216888Y168138D01*
Y160052D02*
Y168138D01*
X213258Y158807D02*
X215643D01*
X216888Y160052D01*
X212471Y158020D02*
X213258Y158807D01*
X212471Y157724D02*
Y158020D01*
X216888Y189382D02*
X274823D01*
X219738Y248364D02*
Y257759D01*
X219230Y247856D02*
X219738Y248364D01*
X219230Y247555D02*
Y247856D01*
X213014Y220594D02*
X213945Y221525D01*
X227652D01*
X115858Y210698D02*
X116319Y211159D01*
X115858Y208943D02*
Y210698D01*
X116319Y211159D02*
X116339D01*
X211820Y247547D02*
Y247848D01*
X210717Y248951D02*
Y253945D01*
Y248951D02*
X211820Y247848D01*
X220525Y258547D02*
X220821D01*
X219738Y257759D02*
X220525Y258547D01*
X173533Y199696D02*
X173558Y199671D01*
Y184863D02*
Y199671D01*
Y184863D02*
X176556Y181865D01*
X154129Y212083D02*
X155223Y210988D01*
X198879D01*
X153835Y204370D02*
X155326Y205860D01*
X167280Y199997D02*
X171652Y204370D01*
X173503Y220594D02*
Y242983D01*
X168814Y215904D02*
X173503Y220594D01*
Y242983D02*
X177045Y246525D01*
X179996Y229902D02*
X180242Y230147D01*
X182747D01*
X179695Y229902D02*
X179996D01*
X205824Y201340D02*
X206465Y200700D01*
X208261D01*
X208963Y199997D01*
X209265D01*
X211820Y226940D02*
Y234947D01*
X209367Y237400D02*
X211820Y234947D01*
X205937Y239543D02*
X212295D01*
X202032Y235638D02*
X205937Y239543D01*
X212295D02*
X215313Y236525D01*
X198879Y210988D02*
X202032Y214141D01*
Y235638D01*
X3244Y190442D02*
X3359Y190328D01*
X3244Y190442D02*
Y198414D01*
X6922Y202092D01*
X22086D01*
X29439Y209444D02*
X44485D01*
X46080Y207850D01*
X56123D01*
X22086Y202092D02*
X29439Y209444D01*
X56123Y207850D02*
X64740Y216467D01*
X69497D01*
X76112Y223082D01*
Y236122D01*
X85280Y245290D01*
X87072Y264813D02*
X89128Y262756D01*
X91038Y279292D02*
X91239D01*
X87072Y275325D02*
X91038Y279292D01*
X87072Y264813D02*
Y275325D01*
X89128Y256282D02*
Y262756D01*
X155242Y215803D02*
X163294D01*
X150763Y220282D02*
X155242Y215803D01*
X142804Y220282D02*
X150763D01*
X150147Y218794D02*
X155810Y213131D01*
X136538Y218794D02*
X150147D01*
X136951Y208283D02*
X149125D01*
X136794Y208440D02*
X136951Y208283D01*
X95349Y186688D02*
Y192751D01*
X155047Y195182D02*
X155358Y194871D01*
X155047Y195182D02*
Y198460D01*
X153510Y199997D02*
X155047Y198460D01*
X156275Y203780D02*
X160270D01*
X165358Y198691D01*
X156111Y203615D02*
X156275Y203780D01*
X182747Y230147D02*
X184125Y231525D01*
X171360Y226326D02*
Y229474D01*
X155810Y213131D02*
X156111D01*
X165358Y194871D02*
Y198691D01*
X160358Y194871D02*
Y199076D01*
X159737Y199696D02*
X160358Y199076D01*
X159737Y199696D02*
Y199997D01*
X102653Y218794D02*
Y225361D01*
X111141Y247069D02*
X114684D01*
X109170Y245097D02*
X111141Y247069D01*
X114684D02*
X115227Y246525D01*
X109170Y238505D02*
Y245097D01*
X107981Y237315D02*
X109170Y238505D01*
X149125Y208283D02*
X149282Y208126D01*
X115227Y241525D02*
X119137D01*
X165220Y173947D02*
X173045D01*
X174768Y172223D01*
X164438Y168767D02*
Y173165D01*
X165220Y173947D01*
X166889Y155387D02*
X167463Y155961D01*
X170358D01*
X166588Y155387D02*
X166889D01*
X177045Y246525D02*
X184125D01*
X182478Y158557D02*
X185552D01*
X180698Y157536D02*
X181457D01*
X182478Y158557D01*
X234018Y227891D02*
X238530D01*
X232652Y226525D02*
X234018Y227891D01*
X232652Y226525D02*
Y226525D01*
X227652Y221525D02*
X232652Y226525D01*
X87672Y194242D02*
X89627Y196197D01*
X108091Y271525D02*
X115227D01*
X87672Y186688D02*
Y194242D01*
X194573Y157536D02*
X197723Y154386D01*
Y152047D02*
Y154386D01*
X193193Y157707D02*
X193364Y157536D01*
X194573D01*
X211168Y151911D02*
Y151916D01*
X207203Y151911D02*
X211168D01*
X213014Y153762D02*
Y157181D01*
X205824Y158787D02*
X208421D01*
X209484Y157724D01*
X212471D01*
X213014Y157181D01*
X211168Y151916D02*
X213014Y153762D01*
D12*
X132712Y67302D02*
Y74061D01*
X130406Y64996D02*
X132712Y67302D01*
X122061Y64996D02*
X130406D01*
X120747Y63681D02*
X122061Y64996D01*
X112317Y55251D02*
X120747Y63681D01*
X126386Y74028D02*
X127275Y74917D01*
Y76214D01*
X97473Y55251D02*
X112317D01*
X48792Y166708D02*
Y184447D01*
X42022Y164149D02*
X46233D01*
X48792Y166708D01*
D16*
X154202Y174071D02*
X154801Y173472D01*
Y171758D02*
Y173472D01*
X150207Y173471D02*
X150807Y174071D01*
X150207Y172771D02*
Y173471D01*
X154801Y171758D02*
X155260Y171299D01*
X150807Y174071D02*
X154202D01*
X149261Y172558D02*
X149995D01*
X150207Y172771D01*
X144446Y171878D02*
X144486Y171917D01*
Y173291D01*
X148411Y171878D02*
X148503Y171969D01*
X144446Y171878D02*
X148411D01*
X139301D02*
X144446D01*
X149157Y163799D02*
Y171299D01*
X149122Y163764D02*
X149157Y163799D01*
X81316Y201451D02*
X81734Y201033D01*
X83238D02*
X83261Y201010D01*
X80964Y201451D02*
X81316D01*
X81734Y201033D02*
X83238D01*
X83261Y201010D02*
X112044D01*
X226443Y228918D02*
Y238788D01*
X224920Y240311D02*
X226443Y238788D01*
X225276Y227751D02*
X226443Y228918D01*
X112044Y201010D02*
X123481Y212446D01*
Y257236D01*
X119192Y261525D02*
X123481Y257236D01*
X115227Y261525D02*
X119192D01*
X78206Y181290D02*
X85456Y174040D01*
X78206Y181290D02*
Y193758D01*
X85456Y174040D02*
X109909D01*
X195021Y127550D02*
X197723Y124848D01*
X185033Y119792D02*
X192792Y127550D01*
X195021D01*
X197723Y95568D02*
Y124848D01*
X142873Y128452D02*
X151533Y119792D01*
X142873Y128452D02*
Y131322D01*
X142804Y131391D02*
X142873Y131322D01*
X151533Y119792D02*
X185033D01*
X184331Y82177D02*
X197723Y95568D01*
X184331Y75293D02*
Y82177D01*
X180467Y71430D02*
X184331Y75293D01*
X173867Y71430D02*
X180467D01*
X132366Y143994D02*
X134968Y141392D01*
X132366Y143994D02*
Y151739D01*
X125096Y158853D02*
X131750D01*
X109909Y174040D02*
X125096Y158853D01*
X212471Y207697D02*
Y216016D01*
Y207697D02*
X214839Y205329D01*
X212471Y216016D02*
X214232Y217778D01*
X214839Y182919D02*
Y205329D01*
X220256Y223890D02*
X224924D01*
X225276Y224242D01*
Y227751D01*
X223576Y240311D02*
X224920D01*
X214649Y249238D02*
X223576Y240311D01*
X214649Y249238D02*
Y259609D01*
X219222Y264181D02*
Y276525D01*
X214649Y259609D02*
X219222Y264181D01*
Y276525D02*
X221858Y279162D01*
X225276D01*
X226019Y279905D01*
X223523Y302290D02*
X226019Y299794D01*
Y279905D02*
Y299794D01*
X184390Y301790D02*
X194213D01*
X184125Y301525D02*
X184390Y301790D01*
X183685Y184505D02*
Y197010D01*
X183930Y173106D02*
X183991Y173167D01*
X183930Y162252D02*
Y173106D01*
X180698Y199997D02*
X183685Y197010D01*
X177313Y234143D02*
X179695Y236525D01*
X177313Y215904D02*
Y234143D01*
X179695Y236525D02*
X184125D01*
X180882Y159204D02*
X183930Y162252D01*
X179113Y159204D02*
X180882D01*
X179019Y159111D02*
X179113Y159204D01*
X228062Y240451D02*
X233134D01*
X238530Y232616D02*
Y235054D01*
X233134Y240451D02*
X238530Y235054D01*
X90750Y133247D02*
X92790Y135287D01*
Y164090D01*
X84522Y133247D02*
X90750D01*
X80985Y136489D02*
X81280D01*
X84522Y133247D01*
X75254Y136712D02*
X80762D01*
X80985Y136489D01*
X391277Y138101D02*
X390291Y139115D01*
X390319Y141114D01*
X391333Y142100D01*
X392332Y142086D01*
X393318Y141072D01*
X394331Y142058D01*
X395331Y142044D01*
X396317Y141030D01*
X396288Y139031D01*
X395275Y138045D01*
X394275Y138059D01*
X393290Y139073D01*
X392276Y138087D01*
X391277Y138101D01*
X393290Y139073D02*
X393318Y141072D01*
X390417Y148111D02*
X390361Y144113D01*
X393360Y144071D01*
X392388Y146084D01*
X392402Y147083D01*
X393416Y148069D01*
X395415Y148041D01*
X396400Y147028D01*
X396373Y145028D01*
X395359Y144043D01*
X396443Y150026D02*
X395443Y150040D01*
X395457Y151040D01*
X396457Y151026D01*
X396443Y150026D01*
X390515Y155108D02*
X390571Y159106D01*
X391570Y159092D01*
X395513Y155038D01*
X396513Y155024D01*
X391599Y161092D02*
X390613Y162105D01*
X390641Y164104D01*
X391654Y165090D01*
X392654Y165076D01*
X393640Y164062D01*
X394653Y165048D01*
X395653Y165034D01*
X396638Y164020D01*
X396610Y162021D01*
X395597Y161036D01*
X394597Y161050D01*
X393612Y162063D01*
X392598Y161078D01*
X391599Y161092D01*
X393612Y162063D02*
X393640Y164062D01*
X395681Y167033D02*
X396694Y168019D01*
X396722Y170018D01*
X395737Y171031D01*
X391739Y171087D01*
X390725Y170102D01*
X390697Y168103D01*
X391683Y167089D01*
X392682Y167075D01*
X393696Y168061D01*
X393738Y171059D01*
X396876Y181013D02*
X394849Y179042D01*
X392850Y179070D01*
X390879Y181097D01*
X396918Y184012D02*
X392920Y184068D01*
X392934Y185067D01*
X393948Y186053D01*
X396946Y186011D01*
X393948Y186053D01*
X392962Y187067D01*
X393975Y188052D01*
X396974Y188010D01*
X397002Y190009D02*
X393004Y190065D01*
X393018Y191065D01*
X394032Y192051D01*
X397030Y192009D01*
X394032Y192051D01*
X393046Y193064D01*
X394059Y194050D01*
X397058Y194008D01*
X397086Y196007D02*
X395115Y198034D01*
X393116Y198062D01*
X391089Y196091D01*
X160030Y343052D02*
X161023Y342046D01*
X163023Y342034D01*
X164029Y343027D01*
X164053Y347026D01*
X163060Y348031D01*
X161061Y348044D01*
X160055Y347050D01*
X160049Y346051D01*
X161042Y345045D01*
X164041Y345026D01*
X170058Y347988D02*
X168052Y347001D01*
X166040Y345014D01*
X166028Y343015D01*
X167021Y342009D01*
X169021Y341996D01*
X170027Y342990D01*
X170033Y343989D01*
X169039Y344995D01*
X166040Y345014D01*
X172020Y341978D02*
X172026Y342977D01*
X173026Y342971D01*
X173019Y341971D01*
X172020Y341978D01*
X180017Y341928D02*
X180054Y347926D01*
X177037Y344945D01*
X181035Y344920D01*
X183016Y341909D02*
X185015Y341897D01*
X184016Y341903D01*
X184053Y347901D01*
X183047Y346907D01*
X188020Y342878D02*
X189014Y341872D01*
X191013Y341859D01*
X192019Y342853D01*
X192044Y346851D01*
X191050Y347857D01*
X189051Y347870D01*
X188045Y346876D01*
X188039Y345877D01*
X189032Y344871D01*
X192031Y344852D01*
X202009Y341791D02*
X200023Y343802D01*
X200035Y345802D01*
X202047Y347789D01*
X205008Y341772D02*
X205033Y345771D01*
X206033Y345764D01*
X207026Y344759D01*
X207008Y341760D01*
X207026Y344759D01*
X208032Y345752D01*
X209026Y344746D01*
X209007Y341747D01*
X211006Y341735D02*
X211031Y345733D01*
X212031Y345727D01*
X213024Y344721D01*
X213005Y341722D01*
X213024Y344721D01*
X214030Y345715D01*
X215023Y344709D01*
X215005Y341710D01*
X217004Y341697D02*
X219016Y343684D01*
X219028Y345684D01*
X217041Y347695D01*
D18*
X365162Y244797D02*
G03*
X364994Y244867I-168J-168D01*
G01*
X140093Y178960D02*
X204862D01*
X136810Y182243D02*
Y196340D01*
Y182243D02*
X140093Y178960D01*
X127218Y44401D02*
X162165D01*
X121223Y26452D02*
Y38405D01*
X127218Y44401D01*
X157474Y98014D02*
X191026D01*
X154278Y83629D02*
Y94817D01*
X157474Y98014D01*
X191890Y97769D02*
X192062Y97597D01*
X191271Y97769D02*
X191890D01*
X191026Y98014D02*
X191271Y97769D01*
X205263Y97597D02*
X208852Y101186D01*
Y108147D01*
X90390Y303927D02*
Y306153D01*
X87251Y307877D02*
X88665D01*
X84023Y311105D02*
X87251Y307877D01*
X74366Y311105D02*
X84023D01*
X88665Y307877D02*
X90390Y306153D01*
X68529Y316942D02*
X74366Y311105D01*
X61032Y316942D02*
X68529D01*
X73819Y307066D02*
X78665D01*
X80390Y305342D01*
Y303927D02*
Y305342D01*
X65977Y314908D02*
X73819Y307066D01*
X58633Y314908D02*
X65977D01*
X60446Y317528D02*
X61032Y316942D01*
X60446Y317528D02*
Y321725D01*
X59863Y322308D02*
X60446Y321725D01*
X56276Y317265D02*
X58633Y314908D01*
X80390Y303927D02*
X81297Y303020D01*
X81798Y204594D02*
X83883Y202510D01*
X94643D01*
X81798Y204594D02*
Y209166D01*
X89974Y290253D02*
Y303512D01*
X85113Y285392D02*
X89974Y290253D01*
Y303512D02*
X90390Y303927D01*
X204862Y178960D02*
X212419D01*
X212439Y178940D01*
X99309Y276286D02*
X99522D01*
X96863Y284803D02*
Y286629D01*
Y278732D02*
Y284803D01*
Y278732D02*
X99309Y276286D01*
X94541Y282124D02*
Y303770D01*
X94493Y282076D02*
X94541Y282124D01*
X83448Y282076D02*
X94493D01*
X94541Y277121D02*
X99292Y272370D01*
X94541Y277121D02*
Y282124D01*
X94541Y303770D02*
X99194Y308423D01*
X99292Y272370D02*
X102376D01*
X96863Y286629D02*
X97791Y287558D01*
Y291062D01*
X81297Y285432D02*
Y303020D01*
X80117Y284252D02*
X81297Y285432D01*
X71999Y279453D02*
X79048Y286502D01*
Y290893D01*
X71992Y279453D02*
X71999D01*
X71406Y267589D02*
Y278868D01*
X71992Y279453D01*
X80117Y284252D02*
X80117D01*
X73106Y277241D02*
X80117Y284252D01*
X73106Y253366D02*
Y277241D01*
X72819Y229204D02*
Y253079D01*
X73106Y253366D01*
X64653Y260836D02*
X71406Y267589D01*
X76965Y254144D02*
Y275593D01*
X38269Y246356D02*
Y252268D01*
X42362Y256362D01*
X38173Y237186D02*
X38352Y237365D01*
Y241080D01*
X43554Y241900D02*
X53907D01*
X102973Y271525D02*
Y271774D01*
X102376Y272370D02*
X102973Y271774D01*
Y265748D02*
Y271525D01*
X343348Y275292D02*
Y276644D01*
Y273670D02*
Y275292D01*
X337738Y271611D02*
X341289D01*
X343348Y273670D01*
X141873Y165493D02*
Y168728D01*
Y165493D02*
X141947Y165419D01*
X394468Y337542D02*
X396468Y337514D01*
X389740Y-176D02*
X391740Y-204D01*
X395468Y337528D02*
X397384Y331500D01*
X393384Y331556D02*
X395468Y337528D01*
X390740Y-190D02*
X392824Y5782D01*
X388824Y5838D02*
X390740Y-190D01*
X393546Y200256D02*
X395468Y337528D01*
X390740Y-190D02*
X392662Y137082D01*
X379927Y343282D02*
X379939Y345282D01*
X333Y345646D02*
X345Y347646D01*
X373921Y342319D02*
X379933Y344282D01*
X373946Y346319D02*
X379933Y344282D01*
X339Y346646D02*
X6326Y344608D01*
X339Y346646D02*
X6351Y348608D01*
X221226Y345270D02*
X379933Y344282D01*
X339Y346646D02*
X159046Y345657D01*
X204532Y111622D02*
Y131391D01*
X206856Y133715D01*
X132599Y200551D02*
X136810Y196340D01*
X132599Y200551D02*
Y200769D01*
X338780Y260898D02*
X342527D01*
X342929Y261299D02*
X343172D01*
X342527Y260898D02*
X342929Y261299D01*
X362141Y244867D02*
X364994D01*
X331197Y247369D02*
X331280Y247286D01*
X331197Y247369D02*
Y250754D01*
X327646Y254305D02*
X331197Y250754D01*
X303056Y227871D02*
X328917D01*
X331280Y230235D01*
X99194Y308423D02*
X102466D01*
X158015Y151573D02*
X158867D01*
X94643Y202510D02*
X95255Y203121D01*
X105694D01*
X192830Y122374D02*
X193003Y122202D01*
X194334D01*
X196223Y120314D01*
X156197Y111610D02*
X192673D01*
X196223Y96190D02*
Y120314D01*
X195226Y95193D02*
X196223Y96190D01*
X164866Y95193D02*
X195226D01*
X152504Y107917D02*
X156197Y111610D01*
X152504Y77306D02*
Y107917D01*
X134288Y237400D02*
X138433Y241545D01*
Y256718D01*
X143240Y261525D01*
X213014Y187112D02*
Y205033D01*
X204862Y178960D02*
X213014Y187112D01*
X210693Y207354D02*
X213014Y205033D01*
X219964Y151573D02*
Y164879D01*
X222974Y149905D02*
Y167548D01*
X221381Y169142D02*
X222974Y167548D01*
X221381Y169142D02*
Y169385D01*
X212369Y143978D02*
X219964Y151573D01*
X210693Y218273D02*
X213014Y220594D01*
X210693Y207354D02*
Y218273D01*
X217106Y224582D02*
Y226631D01*
X217551Y227077D01*
X213014Y224582D02*
Y225747D01*
Y220594D02*
Y224582D01*
X217106D01*
X154278Y83629D02*
X155965Y81941D01*
X152504Y77306D02*
X157478Y72331D01*
X158319D01*
X158867Y71430D02*
Y71783D01*
X158319Y72331D02*
X158867Y71783D01*
X185203Y145443D02*
Y149018D01*
X189315Y153130D02*
X189807D01*
X185203Y149018D02*
X189315Y153130D01*
X164130Y94457D02*
X164866Y95193D01*
X164130Y86203D02*
Y94457D01*
X247206Y112069D02*
Y122109D01*
X247567Y122471D01*
X245598Y110461D02*
X247206Y112069D01*
X233308Y110461D02*
X245598D01*
X224340Y112008D02*
X231761D01*
X233308Y110461D01*
X155965Y81941D02*
X157478D01*
X158159Y81260D01*
X158867Y50002D02*
Y54967D01*
X161362Y57462D01*
Y78136D01*
X158159Y81260D02*
X158238D01*
X161362Y78136D01*
X164130Y86203D02*
X165547Y84785D01*
Y78997D02*
Y84785D01*
X162652Y84724D02*
X164130Y86203D01*
X158159Y84724D02*
X162652D01*
X168867Y71430D02*
X168939Y71502D01*
Y78925D02*
X169012Y78997D01*
X168939Y71502D02*
Y78925D01*
X163867Y71430D02*
X164130Y71692D01*
Y75748D01*
X164866Y76484D01*
Y78316D01*
X165547Y78997D01*
X155751Y36213D02*
X162100D01*
X155716Y36248D02*
X155751Y36213D01*
X162100D02*
X162135Y36177D01*
X168867Y45885D02*
Y50002D01*
Y45885D02*
X170352Y44401D01*
X202095D01*
X204561Y28096D02*
Y41934D01*
X202095Y44401D02*
X204561Y41934D01*
X203648Y27183D02*
X204561Y28096D01*
X200592Y27183D02*
X203648D01*
X163867Y46102D02*
Y50002D01*
X162165Y44401D02*
X163867Y46102D01*
X121809Y25866D02*
X124806D01*
X121223Y26452D02*
X121809Y25866D01*
X124806Y35816D02*
X124966Y35976D01*
X124806Y29331D02*
Y35816D01*
X124966Y37181D02*
X127719Y39933D01*
X124966Y35976D02*
Y37181D01*
X162284Y39933D02*
X196849D01*
X127719D02*
X162284D01*
X162135Y36177D02*
X162284Y36326D01*
Y39933D01*
X196849D02*
X200592Y36190D01*
Y30647D02*
Y36190D01*
X193892Y25271D02*
X198602D01*
X200514Y27183D02*
X200592D01*
X198602Y25271D02*
X200514Y27183D01*
X124806Y25866D02*
X132430D01*
X132685Y25612D01*
X17109Y238160D02*
X24269D01*
X26856Y215466D02*
Y235573D01*
X24269Y238160D02*
X26856Y235573D01*
X229121Y311720D02*
X238530D01*
X252243Y315636D02*
X252487D01*
X253037Y315086D01*
X253108D01*
X253761Y314311D02*
Y314433D01*
X253108Y315086D02*
X253761Y314433D01*
Y314311D02*
X255563Y312508D01*
Y311720D02*
Y312508D01*
X143240Y261525D02*
X184125D01*
X34809Y212738D02*
X56353D01*
X57057Y211038D02*
X74519Y228500D01*
X26856Y215466D02*
X31285Y211038D01*
X56353Y212738D02*
X72819Y229204D01*
X31285Y211038D02*
X57057D01*
X30368Y217179D02*
X34809Y212738D01*
X74519Y228500D02*
Y242059D01*
X30368Y217179D02*
Y244648D01*
X64760Y214233D02*
X76732D01*
X81798Y209166D01*
X56783Y206256D02*
X64760Y214233D01*
X43068Y206256D02*
X56783D01*
X38068Y215949D02*
X42114D01*
X74519Y242059D02*
X79149Y246689D01*
X104161Y231013D02*
X106387Y233239D01*
X92120Y231013D02*
X104161D01*
X92114Y231019D02*
X92120Y231013D01*
X106387Y240615D02*
X106698Y240926D01*
X106387Y233239D02*
Y240615D01*
X149157Y175759D02*
X149439Y176040D01*
X42022Y207301D02*
X43068Y206256D01*
X33156Y220860D02*
Y239707D01*
X36818Y243370D02*
X42084D01*
X33156Y239707D02*
X36818Y243370D01*
X52128Y250028D02*
Y254640D01*
Y250028D02*
X55460Y246696D01*
X53907Y241900D02*
X55460Y243453D01*
Y246696D01*
X42084Y243370D02*
X43554Y241900D01*
X26856Y248160D02*
X30368Y244648D01*
X17109Y248160D02*
X26856D01*
X33156Y220860D02*
X38068Y215949D01*
X323674Y256208D02*
Y260539D01*
X158015Y171299D02*
X158159Y171156D01*
Y168767D02*
X158303Y168624D01*
X158159Y168767D02*
Y171156D01*
X222974Y149905D02*
X227437Y145443D01*
X211820Y226940D02*
X213014Y225747D01*
X232487Y300697D02*
X237059D01*
X229975Y277568D02*
Y298185D01*
X232487Y300697D01*
X225044Y272638D02*
X229975Y277568D01*
X222954Y272638D02*
X225044D01*
X222666Y272350D02*
X222954Y272638D01*
X253064Y145896D02*
X254999Y143961D01*
X235954Y145896D02*
X253064D01*
X92114Y231019D02*
Y238367D01*
X320114Y209752D02*
X320365D01*
X324931Y197093D02*
Y205186D01*
X320365Y209752D02*
X324931Y205186D01*
X327383Y194640D02*
X332698D01*
X324931Y197093D02*
X327383Y194640D01*
X299767Y224582D02*
X303056Y227871D01*
X327646Y254305D02*
Y256208D01*
X141873Y168728D02*
X144446D01*
X139301D02*
X141873D01*
X92114Y243485D02*
Y246503D01*
X89818Y248799D02*
X92114Y246503D01*
X82310Y248799D02*
X89818D01*
X9249Y225093D02*
Y245473D01*
X7434Y223278D02*
X9249Y225093D01*
X7119Y187261D02*
X7274Y187107D01*
X14200D01*
X14362Y187269D01*
X22466Y209843D02*
X26856Y214233D01*
Y215466D01*
X11936Y248160D02*
X17109D01*
X9249Y245473D02*
X11936Y248160D01*
X85280Y260462D02*
Y276358D01*
X85113Y276525D02*
X85280Y276358D01*
X84071Y251581D02*
X115172D01*
X80390Y255262D02*
X84071Y251581D01*
X76965Y254144D02*
X82310Y248799D01*
X80390Y255262D02*
Y270069D01*
X76965Y275593D02*
X83448Y282076D01*
X108091Y265748D02*
X114450D01*
X115227Y266525D01*
X115172Y251581D02*
X115227Y251525D01*
X95163Y256525D02*
X115227D01*
X92114Y259574D02*
Y268345D01*
Y259574D02*
X95163Y256525D01*
X90390Y270069D02*
X92114Y268345D01*
X51402Y263453D02*
X51989Y264041D01*
X51402Y259714D02*
Y263453D01*
X50706Y259018D02*
X51402Y259714D01*
X48228Y259018D02*
X50706D01*
X47010Y249064D02*
Y254640D01*
Y257800D01*
X48228Y259018D01*
X47010Y249064D02*
X49430Y246643D01*
X38173Y237186D02*
X45681D01*
X45690Y237194D01*
X49430Y245856D02*
Y246643D01*
X56276Y317265D02*
Y321959D01*
X55926Y322308D02*
X56276Y321959D01*
X344596Y266937D02*
Y274044D01*
X252555Y209752D02*
X254614Y207693D01*
X249264Y209752D02*
X252555D01*
X249264D02*
X249418Y209905D01*
X294702Y192602D02*
Y207400D01*
X272764Y203637D02*
X274823Y205696D01*
X284798D01*
X254614Y203780D02*
Y207693D01*
X260459Y209905D02*
X262053Y211500D01*
X284798Y205696D02*
X290602Y211500D01*
X294702Y207400D01*
X249418Y209905D02*
X260459D01*
X262053Y211500D02*
X290602D01*
X334304Y260775D02*
X339028D01*
X323674Y256208D02*
X327646D01*
X329077Y257639D01*
Y260273D01*
X329579Y260775D01*
X334303D02*
X334304Y260775D01*
X329579Y260775D02*
X334303D01*
X343348Y275292D02*
X344596Y274044D01*
X225043Y251715D02*
Y258241D01*
Y251715D02*
X225206Y251878D01*
X225043Y258241D02*
X225348Y258547D01*
X225206Y251878D02*
X237059D01*
X231025Y254826D02*
X231269D01*
X232652Y256208D01*
X237059D01*
D21*
X60567Y55287D02*
D03*
Y61987D02*
D03*
Y68688D02*
D03*
Y75389D02*
D03*
Y82090D02*
D03*
D22*
X66418Y290990D02*
D03*
X8151D02*
D03*
Y287053D02*
D03*
Y283116D02*
D03*
Y279179D02*
D03*
X66418D02*
D03*
Y283116D02*
D03*
Y287053D02*
D03*
Y294927D02*
D03*
Y298864D02*
D03*
Y302801D02*
D03*
Y306738D02*
D03*
D23*
X59863Y322308D02*
D03*
X55926D02*
D03*
X51989D02*
D03*
X48052D02*
D03*
X44115D02*
D03*
X40178D02*
D03*
X36241D02*
D03*
X32304D02*
D03*
X28367D02*
D03*
X24430D02*
D03*
X20493D02*
D03*
X16556D02*
D03*
Y264041D02*
D03*
X20493D02*
D03*
X24430D02*
D03*
X44115D02*
D03*
X48052D02*
D03*
X51989D02*
D03*
X55926D02*
D03*
X59863D02*
D03*
D24*
X90390Y270069D02*
D03*
Y303927D02*
D03*
X80390Y270069D02*
D03*
Y303927D02*
D03*
D25*
X49430Y245856D02*
D03*
X53170Y237194D02*
D03*
X45690D02*
D03*
D26*
X289103Y23434D02*
D03*
Y43434D02*
D03*
X288406Y91996D02*
D03*
Y71996D02*
D03*
D27*
X238653Y33434D02*
D03*
X237956Y81996D02*
D03*
D28*
X287905Y113871D02*
D03*
Y123871D02*
D03*
X325805D02*
D03*
Y113871D02*
D03*
X239371D02*
D03*
Y123871D02*
D03*
X277271D02*
D03*
Y113871D02*
D03*
D29*
X215326Y40534D02*
D03*
Y26334D02*
D03*
X214649Y89096D02*
D03*
Y74896D02*
D03*
D30*
X89682Y77881D02*
D03*
Y62133D02*
D03*
D31*
X124806Y29331D02*
D03*
Y25866D02*
D03*
X158159Y84724D02*
D03*
Y81260D02*
D03*
X75254Y133247D02*
D03*
Y136712D02*
D03*
X85194Y51523D02*
D03*
Y54987D02*
D03*
X2584Y162252D02*
D03*
Y165717D02*
D03*
X205824Y162252D02*
D03*
Y158787D02*
D03*
X217551Y230541D02*
D03*
Y227077D02*
D03*
X261238Y231987D02*
D03*
Y228523D02*
D03*
X265568Y231987D02*
D03*
Y228523D02*
D03*
X269899Y228523D02*
D03*
Y231987D02*
D03*
X329579Y260775D02*
D03*
Y264240D02*
D03*
X334303Y260775D02*
D03*
Y264240D02*
D03*
X339028Y264240D02*
D03*
Y260775D02*
D03*
X200592Y30647D02*
D03*
Y27183D02*
D03*
D32*
X164130Y86203D02*
D03*
X170429D02*
D03*
X190248Y164031D02*
D03*
X196547D02*
D03*
X68526Y249959D02*
D03*
X62227D02*
D03*
D33*
X268555Y328393D02*
D03*
X332698Y194640D02*
D03*
X14200Y209843D02*
D03*
X257126Y181322D02*
D03*
X209974Y297620D02*
D03*
X209403Y305287D02*
D03*
X70746Y207301D02*
D03*
X126073Y186610D02*
D03*
X234194Y178960D02*
D03*
X278786Y136903D02*
D03*
D34*
X340263Y251621D02*
D03*
X345578D02*
D03*
X245921Y320051D02*
D03*
X251237D02*
D03*
X107314Y307702D02*
D03*
X101999D02*
D03*
X354428Y244834D02*
D03*
X349113D02*
D03*
D35*
X316390Y202500D02*
D03*
Y220500D02*
D03*
D36*
X290602Y211500D02*
D03*
D37*
X365955Y192602D02*
D03*
X360837D02*
D03*
X224340Y126024D02*
D03*
X219222D02*
D03*
X231179Y118870D02*
D03*
X226061D02*
D03*
X52128Y254640D02*
D03*
X47010D02*
D03*
X70389Y113695D02*
D03*
X75507D02*
D03*
X174557Y165901D02*
D03*
X169439D02*
D03*
X102973Y265748D02*
D03*
X108091D02*
D03*
Y271525D02*
D03*
X102973D02*
D03*
X282142Y194831D02*
D03*
X287260D02*
D03*
X299820Y192602D02*
D03*
X294702D02*
D03*
D38*
X332698Y132421D02*
D03*
Y137539D02*
D03*
X298834Y30875D02*
D03*
Y35993D02*
D03*
Y52134D02*
D03*
Y57252D02*
D03*
X7119Y182143D02*
D03*
Y187261D02*
D03*
X332495Y174466D02*
D03*
Y169348D02*
D03*
X332528Y156796D02*
D03*
Y151678D02*
D03*
X213014Y287616D02*
D03*
Y282498D02*
D03*
X92114Y243485D02*
D03*
Y238367D02*
D03*
X38173Y237186D02*
D03*
Y232068D02*
D03*
D39*
X323918Y52384D02*
D03*
X313918D02*
D03*
Y14484D02*
D03*
X323918D02*
D03*
X308918Y100517D02*
D03*
X318918D02*
D03*
Y62617D02*
D03*
X308918D02*
D03*
D40*
X277210Y56035D02*
D03*
X281738D02*
D03*
X85512Y136489D02*
D03*
X80985D02*
D03*
X220821Y258547D02*
D03*
X225348D02*
D03*
D41*
X212369Y128206D02*
D03*
Y123679D02*
D03*
X197723Y152047D02*
D03*
Y147520D02*
D03*
X207203Y147383D02*
D03*
Y151911D02*
D03*
X212471Y157724D02*
D03*
Y162252D02*
D03*
X224738Y246587D02*
D03*
Y251114D02*
D03*
X210717Y253945D02*
D03*
Y258472D02*
D03*
D42*
X144446Y171878D02*
D03*
Y168728D02*
D03*
X139301D02*
D03*
Y171878D02*
D03*
D43*
X158572Y146437D02*
D03*
X150305D02*
D03*
D44*
X88420Y143122D02*
D03*
Y149815D02*
D03*
X189807Y146437D02*
D03*
Y153130D02*
D03*
D45*
X53548Y118067D02*
D03*
X9848D02*
D03*
D46*
X322949Y239528D02*
D03*
X326414D02*
D03*
X165599Y36177D02*
D03*
X162135D02*
D03*
X165547Y78997D02*
D03*
X169012D02*
D03*
X249239Y226254D02*
D03*
X252703D02*
D03*
X157843Y181789D02*
D03*
X154378D02*
D03*
D47*
X331800Y243172D02*
D03*
X333768D02*
D03*
X335737D02*
D03*
Y239471D02*
D03*
X333768D02*
D03*
X331800D02*
D03*
D48*
X173867Y71430D02*
D03*
X168867D02*
D03*
X163867D02*
D03*
X158867D02*
D03*
Y50002D02*
D03*
X163867D02*
D03*
X168867D02*
D03*
X173867D02*
D03*
D49*
X215580Y274909D02*
D03*
Y272350D02*
D03*
Y269791D02*
D03*
X222666D02*
D03*
Y272350D02*
D03*
Y274909D02*
D03*
D50*
X132685Y76390D02*
D03*
X103945D02*
D03*
D51*
X77609Y54967D02*
D03*
Y49652D02*
D03*
X48792Y184739D02*
D03*
Y190054D02*
D03*
X89193Y97850D02*
D03*
Y103165D02*
D03*
X92114Y231019D02*
D03*
Y225704D02*
D03*
X94773Y215904D02*
D03*
Y210589D02*
D03*
D52*
X121606Y128186D02*
D03*
Y123186D02*
D03*
Y118186D02*
D03*
Y113186D02*
D03*
X100251D02*
D03*
Y118186D02*
D03*
Y123186D02*
D03*
Y128186D02*
D03*
X318927Y160105D02*
D03*
Y165105D02*
D03*
Y170105D02*
D03*
Y175105D02*
D03*
X297572D02*
D03*
Y170105D02*
D03*
Y165105D02*
D03*
Y160105D02*
D03*
X318927Y134980D02*
D03*
Y139980D02*
D03*
Y144980D02*
D03*
Y149980D02*
D03*
X297572D02*
D03*
Y144980D02*
D03*
Y139980D02*
D03*
Y134980D02*
D03*
D53*
X90532Y117638D02*
D03*
Y122756D02*
D03*
X82973Y120197D02*
D03*
D54*
X7119Y197828D02*
D03*
Y193891D02*
D03*
X8059Y166022D02*
D03*
Y162085D02*
D03*
D55*
X29362Y187269D02*
D03*
X24362D02*
D03*
X19362D02*
D03*
X14362D02*
D03*
Y165914D02*
D03*
X19362D02*
D03*
X24362D02*
D03*
X29362D02*
D03*
D56*
X71944Y164149D02*
D03*
X42022D02*
D03*
D57*
X7434Y223278D02*
D03*
X222067Y288587D02*
D03*
D58*
X169737Y150958D02*
D03*
X166588D02*
D03*
X60749Y256946D02*
D03*
X63898D02*
D03*
D59*
X174688Y157536D02*
D03*
D60*
X170358Y154386D02*
D03*
Y155961D02*
D03*
Y157536D02*
D03*
Y159111D02*
D03*
Y160685D02*
D03*
X179019D02*
D03*
Y159111D02*
D03*
Y157536D02*
D03*
Y155961D02*
D03*
Y154386D02*
D03*
D61*
X274682Y151739D02*
D03*
Y158038D02*
D03*
X106109Y294361D02*
D03*
Y300660D02*
D03*
X84633Y225093D02*
D03*
Y218794D02*
D03*
X272764Y203637D02*
D03*
Y197338D02*
D03*
D62*
X264000Y169748D02*
D03*
X246000D02*
D03*
D63*
X254999Y143961D02*
D03*
D64*
X231361Y160004D02*
D03*
Y171028D02*
D03*
D65*
X89193Y90938D02*
D03*
X82500D02*
D03*
D66*
Y97161D02*
D03*
Y103854D02*
D03*
D67*
X115227Y306525D02*
D03*
Y301525D02*
D03*
Y296525D02*
D03*
Y291525D02*
D03*
Y286525D02*
D03*
Y281525D02*
D03*
Y276525D02*
D03*
Y271525D02*
D03*
Y266525D02*
D03*
Y261525D02*
D03*
Y256525D02*
D03*
Y251525D02*
D03*
Y246525D02*
D03*
Y241525D02*
D03*
Y236525D02*
D03*
Y231525D02*
D03*
Y226525D02*
D03*
Y221525D02*
D03*
Y216525D02*
D03*
X184125Y306525D02*
D03*
Y301525D02*
D03*
Y296525D02*
D03*
Y291525D02*
D03*
Y286525D02*
D03*
Y281525D02*
D03*
Y276525D02*
D03*
Y271525D02*
D03*
Y266525D02*
D03*
Y261525D02*
D03*
Y256525D02*
D03*
Y251525D02*
D03*
Y246525D02*
D03*
Y241525D02*
D03*
Y236525D02*
D03*
Y231525D02*
D03*
Y226525D02*
D03*
Y221525D02*
D03*
Y216525D02*
D03*
D68*
X138259Y275817D02*
D03*
X143770D02*
D03*
X149282D02*
D03*
X138259Y281328D02*
D03*
X143770D02*
D03*
X149282D02*
D03*
X138259Y270305D02*
D03*
X143770D02*
D03*
X149282D02*
D03*
D69*
X254614Y201220D02*
D03*
Y203780D02*
D03*
X344596Y266937D02*
D03*
Y264378D02*
D03*
D70*
X372481Y250641D02*
D03*
Y239027D02*
D03*
D71*
X366477Y244834D02*
D03*
D72*
X238530Y227891D02*
D03*
Y229466D02*
D03*
Y231041D02*
D03*
Y232616D02*
D03*
X242861D02*
D03*
Y231041D02*
D03*
Y229466D02*
D03*
Y227891D02*
D03*
D73*
X249264Y209752D02*
D03*
X224067D02*
D03*
D74*
X343348Y276644D02*
D03*
Y301840D02*
D03*
D75*
X106698Y240926D02*
D03*
Y223210D02*
D03*
X98233Y240926D02*
D03*
Y223210D02*
D03*
D76*
X85113Y164090D02*
D03*
X87672D02*
D03*
X90231D02*
D03*
X92790D02*
D03*
X95349D02*
D03*
X97908D02*
D03*
X100467D02*
D03*
X103026D02*
D03*
Y186688D02*
D03*
X100467D02*
D03*
X97908D02*
D03*
X95349D02*
D03*
X92790D02*
D03*
X90231D02*
D03*
X87672D02*
D03*
X85113D02*
D03*
D77*
X149157Y171299D02*
D03*
X161362D02*
D03*
Y163425D02*
D03*
X149157D02*
D03*
D78*
X152504Y171299D02*
D03*
X155260D02*
D03*
X158015D02*
D03*
Y163425D02*
D03*
X155260D02*
D03*
X152504D02*
D03*
D79*
X362141Y244867D02*
D03*
X360625Y245851D02*
D03*
Y243883D02*
D03*
X359109Y245851D02*
D03*
Y243883D02*
D03*
D80*
X328792Y220500D02*
D03*
X339815D02*
D03*
D81*
X344324Y243663D02*
D03*
X340922D02*
D03*
D82*
X193892Y32161D02*
D03*
Y25271D02*
D03*
X132685Y25612D02*
D03*
Y32502D02*
D03*
D164*
X348118Y243663D02*
G03*
X349575Y244267I0J2060D01*
G01*
X336152Y239609D02*
G03*
X337752Y240402I-368J2753D01*
G01*
X110858Y235699D02*
X112896D01*
X113722Y236525D01*
X110724Y235565D02*
X110858Y235699D01*
X60378Y75578D02*
X60567Y75389D01*
X52115Y75578D02*
X60378D01*
X170352Y142466D02*
X206291D01*
X207203Y146610D02*
X207572Y146980D01*
X207203Y143378D02*
Y146610D01*
X206291Y142466D02*
X207203Y143378D01*
X141769Y140117D02*
X215313D01*
X219222Y136209D01*
X138433Y143454D02*
X141769Y140117D01*
X151148Y137964D02*
X207109D01*
X212369Y132704D01*
X198824Y136064D02*
X202095Y132793D01*
X151935Y136064D02*
X198824D01*
X151739Y135868D02*
X151935Y136064D01*
X104849Y135868D02*
X151739D01*
X269899Y231987D02*
X276189D01*
X276239Y231938D01*
X276446Y232765D02*
X276514Y232697D01*
Y224838D02*
Y232697D01*
X276446Y232765D02*
Y241875D01*
X326995Y240188D02*
X327330D01*
X326414Y239607D02*
X326995Y240188D01*
X327330D02*
X330103Y242961D01*
X326414Y239528D02*
Y239607D01*
X330103Y242961D02*
X331633D01*
X202095Y70106D02*
Y132793D01*
Y70106D02*
X208180Y64022D01*
X103026Y186688D02*
X114450D01*
X115038Y186100D01*
Y184873D02*
X115172Y184739D01*
X115038Y184873D02*
Y186100D01*
X344324Y243663D02*
X348118D01*
X337752Y240402D02*
X340537Y243188D01*
X319223Y239547D02*
X319261Y239510D01*
X174557Y159813D02*
Y165901D01*
Y157668D02*
X174688Y157536D01*
X174557Y157668D02*
Y159813D01*
X157478Y151573D02*
X158015D01*
X134968Y155376D02*
Y155387D01*
X137793Y158691D02*
X137927Y158557D01*
X137793Y158691D02*
Y159239D01*
X135312Y161721D02*
X137793Y159239D01*
X191511Y129822D02*
X196621D01*
X164418Y121392D02*
X183081D01*
X191511Y129822D01*
X199323Y67302D02*
Y127120D01*
X196621Y129822D02*
X199323Y127120D01*
X159737Y126072D02*
X164418Y121392D01*
X148205Y117797D02*
X193193D01*
X136276Y129725D02*
X148205Y117797D01*
X199323Y67302D02*
X207148Y59476D01*
X97675Y143043D02*
X104849Y135868D01*
X107764Y137768D02*
X150952D01*
X95349Y150183D02*
X107764Y137768D01*
X150952D02*
X151148Y137964D01*
X128000Y140117D02*
Y147983D01*
X121460Y154524D02*
X128000Y147983D01*
X105912Y154524D02*
X121460D01*
X138433Y143454D02*
Y145443D01*
Y149334D01*
X126262Y161721D02*
X135312D01*
X115893Y172089D02*
X126262Y161721D01*
X226061Y118870D02*
X227134Y117797D01*
X228620Y113871D02*
X239371D01*
X227134Y115357D02*
Y117797D01*
Y115357D02*
X228620Y113871D01*
X219222Y111610D02*
X222685Y108147D01*
X219222Y126024D02*
Y136209D01*
Y111610D02*
Y126024D01*
X165547Y32502D02*
X193552D01*
X193892Y32161D01*
X132685Y32502D02*
X165547D01*
X165599Y32554D02*
Y36177D01*
X165547Y32502D02*
X165599Y32554D01*
X229121Y311720D02*
X233721Y316321D01*
X228062Y310662D02*
X229121Y311720D01*
X278033Y220171D02*
X278320Y219884D01*
X237059Y244239D02*
Y247547D01*
X247680Y243209D02*
X248765Y244294D01*
X274026D01*
X247680Y240451D02*
Y243209D01*
X217145Y275097D02*
Y277351D01*
X217317Y277523D01*
X215580Y274909D02*
X216957D01*
X217145Y275097D01*
X217317Y277523D02*
Y277712D01*
X212311Y291525D02*
X213014Y290822D01*
Y287616D02*
Y290822D01*
X208514Y291525D02*
X212311D01*
X287260Y191596D02*
X289423Y189432D01*
X298747Y191265D02*
Y191529D01*
X289423Y189432D02*
X296914D01*
X298747Y191529D02*
X299820Y192602D01*
X296914Y189432D02*
X298747Y191265D01*
X287260Y191596D02*
Y194831D01*
X222666Y269791D02*
X226330D01*
X224044Y274909D02*
X228062Y278927D01*
Y310662D01*
X222666Y274909D02*
X224044D01*
X309177Y192602D02*
X315230Y198655D01*
X299820Y192602D02*
X309177D01*
X254614Y198655D02*
Y201220D01*
X245921Y320051D02*
X246902Y321032D01*
Y322920D01*
X252375Y328393D02*
X268555D01*
X246902Y322920D02*
X252375Y328393D01*
X316929Y43434D02*
X321621D01*
X308478Y49284D02*
X308612Y49150D01*
X311213D01*
X316929Y43434D01*
X284701Y49294D02*
X291561D01*
X282491Y51504D02*
X284701Y49294D01*
X271042Y51504D02*
X282491D01*
X224616Y50951D02*
X260127D01*
X219222Y56345D02*
X224616Y50951D01*
X208180Y64022D02*
X212548D01*
X207148Y59476D02*
X210549D01*
X210550Y59475D01*
X162385Y128720D02*
Y131612D01*
X159737Y126072D02*
X162385Y128720D01*
Y131612D02*
X164488Y133715D01*
X158572Y146437D02*
X161979D01*
X164438Y143978D01*
X212369Y128206D02*
Y132704D01*
X169821Y126156D02*
Y131697D01*
X169905Y131781D01*
X169737Y126072D02*
X169821Y126156D01*
X64847Y89935D02*
X72165D01*
X62484Y87572D02*
X64847Y89935D01*
X115361Y172089D02*
X115893D01*
X115227Y172223D02*
X115361Y172089D01*
X88849Y97505D02*
X89193Y97850D01*
X82500Y97161D02*
X82845Y97505D01*
X88849D01*
X82500Y90938D02*
Y97161D01*
X79532Y90938D02*
X82500D01*
X78604Y90010D02*
X79532Y90938D01*
X78506Y90010D02*
X78604D01*
X95349Y150183D02*
Y164090D01*
X225506Y118316D02*
X226061Y118870D01*
X221571Y118316D02*
X225506D01*
X316422Y126486D02*
X316526Y126382D01*
X314375Y126620D02*
X314509Y126486D01*
X316422D01*
X317725Y126382D02*
X323764Y132421D01*
X316526Y126382D02*
X317725D01*
X90719Y122943D02*
X98010D01*
X98197Y122756D01*
X90532D02*
X90719Y122943D01*
X222685Y108147D02*
X223072D01*
X97908Y152047D02*
Y164090D01*
X224836Y56035D02*
X225110D01*
X225115Y56030D01*
X260997D01*
X269535D02*
X269541Y56035D01*
X277210D01*
X100674Y159762D02*
X105912Y154524D01*
X100674Y159762D02*
Y163883D01*
X323764Y132421D02*
X332698D01*
X314886Y114371D02*
X315386Y113871D01*
X325805D01*
X314696Y114371D02*
X314886D01*
X318927Y149980D02*
X318957Y149950D01*
X330633Y149980D02*
X332331Y151678D01*
X318927Y149980D02*
X330633D01*
X332331Y151678D02*
X332528D01*
X100467Y164090D02*
X100674Y163883D01*
X5259Y158252D02*
X5305Y158206D01*
X5259Y158252D02*
Y159085D01*
X5321Y162169D02*
X7975D01*
X2668D02*
X5321D01*
Y159148D02*
Y162169D01*
X2816Y165869D02*
X3244Y166298D01*
X2663Y165717D02*
X2816Y165869D01*
X7906D01*
X2584Y165717D02*
X2663D01*
X3244Y166298D02*
Y166377D01*
X3359Y166491D02*
Y190328D01*
X3244Y166377D02*
X3359Y166491D01*
X6922Y193891D02*
X7119D01*
X3359Y190328D02*
X6922Y193891D01*
X7906Y165869D02*
X8059Y166022D01*
X7975Y162169D02*
X8059Y162085D01*
X2584Y162252D02*
X2668Y162169D01*
X8059Y162085D02*
X8255D01*
X242571Y239673D02*
X246902D01*
X247680Y240451D01*
X274026Y244294D02*
X276446Y241875D01*
X269899Y231987D02*
X270300Y232388D01*
X189807Y163590D02*
X190248Y164031D01*
X174557Y165901D02*
X179019D01*
X189807Y153130D02*
Y163590D01*
X319246Y174785D02*
X332176D01*
X318927Y175105D02*
X319246Y174785D01*
X332176D02*
X332495Y174466D01*
X242388Y316321D02*
X245921Y319854D01*
Y320051D01*
X315230Y198655D02*
Y201340D01*
X316390Y202500D01*
X233721Y316321D02*
X242388D01*
D165*
X19996Y68688D02*
D03*
D166*
X303792Y285736D02*
D03*
Y279043D02*
D03*
Y272350D02*
D03*
Y265657D02*
D03*
X297099Y258964D02*
D03*
X290406D02*
D03*
X283713D02*
D03*
X277020D02*
D03*
X270327D02*
D03*
X263634D02*
D03*
X256941Y265657D02*
D03*
Y272350D02*
D03*
Y279043D02*
D03*
Y285736D02*
D03*
X263634Y292429D02*
D03*
X270327D02*
D03*
X277020D02*
D03*
X283713D02*
D03*
X290406D02*
D03*
X297099D02*
D03*
X310485Y285736D02*
D03*
Y279043D02*
D03*
Y272350D02*
D03*
Y265657D02*
D03*
X297099Y252272D02*
D03*
X290406D02*
D03*
X283713D02*
D03*
X277020D02*
D03*
X270327D02*
D03*
X263634D02*
D03*
X250248Y265657D02*
D03*
Y272350D02*
D03*
Y279043D02*
D03*
Y285736D02*
D03*
X263634Y299122D02*
D03*
X270327D02*
D03*
X277020D02*
D03*
X283713D02*
D03*
X290406D02*
D03*
X297099D02*
D03*
D167*
X323674Y305027D02*
D03*
Y300697D02*
D03*
Y296366D02*
D03*
Y292035D02*
D03*
Y287705D02*
D03*
Y283374D02*
D03*
Y273531D02*
D03*
Y269201D02*
D03*
Y264870D02*
D03*
Y260539D02*
D03*
Y256208D02*
D03*
Y251878D02*
D03*
Y247547D02*
D03*
X237059D02*
D03*
Y251878D02*
D03*
Y256208D02*
D03*
Y260539D02*
D03*
Y264870D02*
D03*
Y269201D02*
D03*
Y273531D02*
D03*
Y283374D02*
D03*
Y287705D02*
D03*
Y292035D02*
D03*
Y296366D02*
D03*
Y300697D02*
D03*
Y305027D02*
D03*
D168*
X318555Y239673D02*
D03*
X314225D02*
D03*
X309894D02*
D03*
X305563D02*
D03*
X301233D02*
D03*
X296902D02*
D03*
X292571D02*
D03*
X288241D02*
D03*
X283910D02*
D03*
X279579D02*
D03*
X272886D02*
D03*
X268555D02*
D03*
X264225D02*
D03*
X259894D02*
D03*
X255563D02*
D03*
X251233D02*
D03*
X246902D02*
D03*
X242571D02*
D03*
Y311720D02*
D03*
X246902D02*
D03*
X251233D02*
D03*
X255563D02*
D03*
X259894D02*
D03*
X264225D02*
D03*
X268555D02*
D03*
X272886D02*
D03*
X279579D02*
D03*
X283910D02*
D03*
X288241D02*
D03*
X292571D02*
D03*
X296902D02*
D03*
X301233D02*
D03*
X305563D02*
D03*
X309894D02*
D03*
X314225D02*
D03*
X318555D02*
D03*
D169*
X113878Y236357D02*
X114046Y236525D01*
X336469Y81289D02*
Y81606D01*
Y81289D02*
X349816Y67942D01*
X355893D01*
X356940Y66895D01*
X358058D01*
X357973Y154511D02*
X358426Y154964D01*
X350426Y137321D02*
X357973Y144868D01*
Y154511D01*
X358426Y174964D02*
Y181139D01*
X365955Y188668D02*
Y192602D01*
X358426Y181139D02*
X365955Y188668D01*
X95095Y55026D02*
X96454D01*
X96454Y55026D01*
X19996Y68688D02*
X33398Y82090D01*
X297572Y134980D02*
X297700Y135108D01*
X303874D01*
X304081Y135315D01*
X304324Y140106D02*
X304461Y140242D01*
X297572Y139980D02*
X297699Y140106D01*
X304324D01*
X302962Y144980D02*
X303255Y144688D01*
X297572Y144980D02*
X302962D01*
X297572Y149980D02*
X303378D01*
X303599Y150201D01*
X359296Y39957D02*
X359601Y39652D01*
X29362Y195267D02*
X29488Y195141D01*
X114046Y236525D02*
X115227D01*
X225348Y171012D02*
X231344D01*
X239925Y171028D02*
X245163D01*
X231361D02*
X239925D01*
X276639Y149980D02*
X297572D01*
X231344Y171012D02*
X231361Y171028D01*
X337891Y26578D02*
X344817Y19652D01*
X303424Y39775D02*
X316621Y26578D01*
X337891D01*
X264595Y42750D02*
Y76905D01*
X263952Y88713D02*
Y91947D01*
X321621Y81343D02*
X328506D01*
X328661Y81499D01*
X72214Y83629D02*
X72933D01*
X75507Y86203D01*
Y92634D01*
X332512Y163072D02*
Y169331D01*
Y156812D02*
Y163072D01*
X98106Y218890D02*
Y223082D01*
X92114Y221173D02*
X94493Y218794D01*
X98106Y223082D02*
X98233Y223210D01*
X98010Y218794D02*
X98106Y218890D01*
X94493Y216184D02*
X94773Y215904D01*
X94493Y216184D02*
Y218794D01*
X92114Y221173D02*
Y225704D01*
X84633Y225093D02*
X91504D01*
X92114Y225704D01*
X49268Y189532D02*
X53235D01*
X54561Y188206D02*
X55238D01*
X48915Y189885D02*
X49268Y189532D01*
X53235D02*
X54561Y188206D01*
X58401Y109475D02*
X58666D01*
X53548Y114327D02*
X58401Y109475D01*
X58666D02*
X75507Y92634D01*
X53548Y114327D02*
Y118067D01*
X275671Y123871D02*
X277271D01*
X270082Y118281D02*
X275671Y123871D01*
X270082Y111825D02*
Y118281D01*
X276434Y91996D02*
X288406D01*
X276385Y91947D02*
X276434Y91996D01*
X271346Y99341D02*
X295823D01*
X306942Y110461D01*
X263952Y91947D02*
X271346Y99341D01*
X339652Y110461D02*
X344277Y105835D01*
X306942Y110461D02*
X339652D01*
X344277Y105835D02*
X355991D01*
X332698Y137539D02*
X333117Y137120D01*
X336788D01*
X345412Y137321D02*
X350426D01*
X299031Y43434D02*
X302740D01*
X289103D02*
X299031D01*
Y36190D02*
Y43434D01*
X298834Y35993D02*
X299031Y36190D01*
X303424Y42750D02*
Y47741D01*
Y39775D02*
Y42750D01*
X302740Y43434D02*
X303424Y42750D01*
X298834Y52134D02*
X299031D01*
X303424Y47741D01*
X344817Y19652D02*
X359601D01*
X238878Y81073D02*
X309930D01*
X230856Y89096D02*
X237956Y81996D01*
X238878Y81073D01*
X215326Y26334D02*
X231553D01*
X238653Y33434D01*
X214649Y89096D02*
X230856D01*
X298834Y23434D02*
Y30875D01*
X313918Y14484D02*
Y15357D01*
X313768Y15507D02*
X313918Y15357D01*
X306762Y15507D02*
X313768D01*
X289103Y23434D02*
X298834D01*
X306762Y15507D01*
X243501Y38283D02*
X260127D01*
X238653Y33434D02*
X243501Y38283D01*
X260127D02*
X264595Y42750D01*
X332512Y156812D02*
X332528Y156796D01*
X332495Y169348D02*
X332512Y169331D01*
X100251Y118186D02*
Y123186D01*
X98197Y122756D02*
X98628Y123186D01*
X100251D01*
Y128186D01*
X24490Y187397D02*
Y192506D01*
X29362Y187269D02*
Y193758D01*
X19362Y187269D02*
Y195141D01*
X24490Y192506D02*
X25868Y193884D01*
X29362Y193758D02*
X29488Y193884D01*
Y195141D01*
X24362Y187269D02*
X24490Y187397D01*
X29362Y159085D02*
Y165914D01*
X19362Y159787D02*
Y165914D01*
X14362Y159915D02*
Y165786D01*
X14490Y165914D01*
X14362Y159915D02*
X14490Y159787D01*
X23660Y159085D02*
X24362Y159787D01*
X14362Y165786D02*
Y165914D01*
X24362Y159787D02*
Y165914D01*
X274682Y138605D02*
X276385Y136903D01*
X274682Y138605D02*
Y151739D01*
X262778D02*
X274682D01*
X274879D01*
X276639Y149980D01*
X297572Y139980D02*
Y144980D01*
Y149980D01*
Y134980D02*
Y139980D01*
X246000Y169748D02*
Y170192D01*
X245163Y171028D02*
X246000Y170192D01*
X254999Y143961D02*
X262778Y151739D01*
D170*
X77619Y54977D02*
X95046D01*
X95095Y55026D01*
X19935Y110022D02*
X40258D01*
X16903Y113055D02*
X19935Y110022D01*
X40258D02*
X54593Y95688D01*
X64869D01*
X72891Y183648D02*
X84499Y172040D01*
X70314Y198044D02*
X72891Y195466D01*
Y183648D02*
Y195466D01*
X32770Y198044D02*
X70314D01*
X31361Y196635D02*
X32770Y198044D01*
X150443Y176040D02*
X150474Y176071D01*
X217533D02*
X227437Y185975D01*
X150474Y176071D02*
X217533D01*
X86284Y176040D02*
X149439D01*
X85113Y177212D02*
Y186688D01*
Y177212D02*
X86284Y176040D01*
X149439D02*
X150443D01*
X267404Y185832D02*
X307228D01*
X311738Y181322D01*
X267261Y185975D02*
X267404Y185832D01*
X82500Y103854D02*
X82845Y103509D01*
X88610D01*
X88920Y103199D01*
X75483Y103820D02*
X81614D01*
X81822Y104027D01*
X64869Y95688D02*
X65007Y95825D01*
X115572Y301180D02*
X115999Y300754D01*
X115227Y301525D02*
X115572Y301180D01*
X119742D01*
X358405Y39957D02*
X358488Y40041D01*
X325942Y39957D02*
X358405D01*
X323764Y37780D02*
X325942Y39957D01*
X323764Y33434D02*
Y37780D01*
X349644Y85835D02*
X355991D01*
X359601Y39652D02*
X360046Y40096D01*
X364828D02*
X366000Y41268D01*
Y85835D01*
X355991D02*
X366000D01*
X360046Y40096D02*
X364828D01*
X345579Y89901D02*
X349644Y85835D01*
X345579Y89901D02*
Y97045D01*
X322316Y239673D02*
X322571Y239418D01*
X318555Y239673D02*
X322316D01*
X125725Y155387D02*
X134968D01*
X109072Y172040D02*
X125725Y155387D01*
X84499Y172040D02*
X109072D01*
X221548Y173106D02*
X223642Y171012D01*
X193713Y173106D02*
X221548D01*
X190248Y169641D02*
X193713Y173106D01*
X190248Y164031D02*
Y169641D01*
X223642Y171012D02*
X225348D01*
X247567Y122471D02*
X251168Y126072D01*
X243966Y118870D02*
X247206Y122109D01*
X223072Y108147D02*
X284701D01*
X287001Y110447D01*
X208180Y11602D02*
Y53697D01*
Y11602D02*
X213987Y5794D01*
X208180Y53697D02*
X210518Y56035D01*
X193892Y19648D02*
Y25271D01*
X184190Y13207D02*
X184260Y13277D01*
X173341Y13207D02*
X184190D01*
X187450Y13206D02*
X193892Y19648D01*
X184260Y13277D02*
X184331Y13206D01*
X187450D01*
X132685Y19578D02*
X139127Y13136D01*
X132685Y19578D02*
Y25612D01*
X142246Y13136D02*
X142317Y13207D01*
X139127Y13136D02*
X142246D01*
X142317Y13207D02*
X153341D01*
X132685Y76390D02*
X134158Y74917D01*
X319996Y7999D02*
X323818Y11821D01*
X298366Y19326D02*
X309693Y7999D01*
X319996D01*
X348546Y120512D02*
X354688Y114371D01*
X339827Y120512D02*
X348546D01*
X257170Y320051D02*
X257367Y319854D01*
X251237Y320051D02*
X257170D01*
X237059Y247547D02*
X243068D01*
X244324Y248803D01*
Y253319D01*
X309894Y189432D02*
X312362D01*
X227437Y185975D02*
X267261D01*
X271739Y192607D02*
Y196313D01*
X272764Y197338D01*
X273135Y194831D02*
X282142D01*
X272764Y194460D02*
X273135Y194831D01*
X78206Y220705D02*
Y234328D01*
X87364Y243485D01*
X78206Y220705D02*
X80117Y218794D01*
X87364Y243485D02*
X92114D01*
X324574Y220500D02*
X328792D01*
X316390D02*
X324574D01*
Y213071D02*
Y220500D01*
Y213071D02*
X324931Y212714D01*
X312362Y189432D02*
X318957Y196027D01*
X269719Y181322D02*
X295221D01*
X244324D02*
X245760D01*
X239925Y171028D02*
Y176923D01*
X244324Y181322D01*
X318555Y239673D02*
X318570Y239659D01*
X265568Y192607D02*
X271739D01*
X323918Y12584D02*
Y21554D01*
X323793Y21679D02*
X323918Y21554D01*
X323818Y11821D02*
Y12484D01*
X323918Y12584D01*
X258812Y86935D02*
X259984Y85763D01*
X311738D01*
X314375Y88401D01*
X258812Y86935D02*
Y95990D01*
X214988Y40873D02*
Y56035D01*
X215297Y56345D01*
X210518Y56035D02*
X214988D01*
X215297Y56345D02*
Y74248D01*
X214988Y40873D02*
X215326Y40534D01*
X144446Y146437D02*
X150305D01*
X323918Y87640D02*
X328865D01*
X332376Y84129D01*
X331205Y53254D02*
X332376Y54426D01*
Y84129D01*
X324018Y53254D02*
X331205D01*
X323918Y53154D02*
X324018Y53254D01*
X323918Y52384D02*
Y53154D01*
X285835Y19326D02*
X298366D01*
X272303Y5794D02*
X285835Y19326D01*
X213987Y5794D02*
X272303D01*
X98516Y77881D02*
X100008Y76390D01*
X89682Y77881D02*
X98516D01*
X77609Y49652D02*
X83245D01*
X85115Y51523D01*
X85194D01*
X43971Y39500D02*
X67260D01*
X77412Y49652D01*
X77609D01*
Y54967D02*
X77619Y54977D01*
X318918Y83100D02*
Y100517D01*
X297572Y71996D02*
X307814D01*
X318918Y83100D01*
X311738Y179308D02*
Y181322D01*
Y179308D02*
X313039Y178007D01*
X80117Y218794D02*
X84633D01*
X70389Y113695D02*
Y120085D01*
X69879Y113186D02*
X70389Y113695D01*
X76863Y113186D02*
X90532D01*
X211168Y111622D02*
Y119792D01*
X212188Y123497D02*
X212369Y123679D01*
X211168Y111622D02*
X218528Y104262D01*
X211168Y119792D02*
X212188Y120812D01*
Y123497D01*
X359601Y19652D02*
X359643Y19693D01*
X364995D01*
X370255Y24954D01*
X368749Y114605D02*
X370255Y113099D01*
Y24954D02*
Y113099D01*
X366000Y85835D02*
Y121675D01*
X355991Y125835D02*
X361840D01*
X366000Y121675D01*
X354688Y114371D02*
X359601D01*
X336788Y105835D02*
X345579Y97045D01*
X312336Y105835D02*
X336788D01*
X308918Y102417D02*
X312336Y105835D01*
X308918Y100517D02*
Y102417D01*
X325805Y123871D02*
X330633D01*
X331426Y118371D02*
X341395Y128341D01*
Y178007D02*
X355991Y192602D01*
X280886Y118371D02*
X331426D01*
X341395Y128341D02*
Y178007D01*
X304288Y123871D02*
X325805D01*
X278583Y116068D02*
X280886Y118371D01*
X281971Y121071D02*
X301488D01*
X279474Y130402D02*
X286005Y123871D01*
X277271D02*
X279171D01*
X301488Y121071D02*
X304288Y123871D01*
X279171D02*
X281971Y121071D01*
X278083Y113871D02*
X278583Y114371D01*
Y116068D01*
X277271Y113871D02*
X278083D01*
X90532Y113186D02*
X100251D01*
X264000Y169748D02*
Y179369D01*
X257126Y181322D02*
X262047D01*
X264000Y179369D01*
X287101Y113871D02*
X287905D01*
X287001Y110447D02*
Y113771D01*
X287101Y113871D01*
X230505Y119543D02*
Y123057D01*
X228409Y125154D02*
X230505Y123057D01*
Y119543D02*
X231179Y118870D01*
X224340Y125827D02*
Y126024D01*
Y125827D02*
X225013Y125154D01*
X228409D01*
X232601Y125042D02*
Y157131D01*
Y125042D02*
X233772Y123871D01*
X239371D01*
X240640D01*
X276385Y136903D02*
X278786D01*
X273471D02*
X276385D01*
X269719Y133151D02*
X273471Y136903D01*
X268555Y133151D02*
X269719D01*
X266549Y126072D02*
X266786Y125835D01*
X251168Y126072D02*
X266549D01*
X231179Y118870D02*
X243966D01*
X214649Y74896D02*
X215297Y74248D01*
X218528Y104262D02*
X250540D01*
X258812Y95990D01*
X319944Y56849D02*
X322526Y59430D01*
Y61466D01*
X316482Y56849D02*
X319944D01*
X325079Y62617D02*
X325110Y62648D01*
X318918Y62617D02*
X325079D01*
X313918Y52384D02*
Y54284D01*
X316482Y56849D01*
X281738Y56035D02*
X291561D01*
X308918Y56989D02*
Y62617D01*
X307534Y55606D02*
X308918Y56989D01*
X288406Y71996D02*
X297572D01*
X298855Y60800D02*
Y70713D01*
X297572Y71996D02*
X298855Y70713D01*
X298834Y60780D02*
X298855Y60800D01*
X298834Y57252D02*
Y60780D01*
X232601Y157131D02*
X232652Y157181D01*
X240640Y123871D02*
X240740Y123971D01*
Y127550D01*
X243591Y130402D02*
X279474D01*
X240740Y127550D02*
X243591Y130402D01*
X286005Y123871D02*
X287905D01*
X355991Y192602D02*
X360837D01*
X90532Y113186D02*
Y117638D01*
X7119Y176592D02*
Y182143D01*
X265568Y231987D02*
X269899D01*
X261238D02*
X265568D01*
X269899D02*
X269899Y231987D01*
X297572Y170105D02*
X304850D01*
X297572Y165105D02*
Y170105D01*
Y165105D02*
X303210D01*
X303226Y165120D01*
X297572Y160105D02*
X303780D01*
X297572D02*
Y165105D01*
X312682Y169748D02*
X313039Y170105D01*
X311807Y160105D02*
X318927D01*
X313039Y170105D02*
X318927D01*
Y160105D02*
Y165105D01*
Y170105D01*
X312313Y144980D02*
X318927D01*
Y139980D02*
Y144980D01*
Y134980D02*
Y139980D01*
X312313Y134980D02*
X318927D01*
X313677Y139980D02*
X318927D01*
X313484Y140173D02*
X313677Y139980D01*
X297572Y170105D02*
Y175105D01*
X318620Y174798D02*
X318927Y175105D01*
X105912Y300660D02*
X106109D01*
X102466Y304106D02*
Y308423D01*
Y304106D02*
X105912Y300660D01*
X106542Y301093D02*
X114794D01*
X115227Y301525D01*
X106109Y300660D02*
X106542Y301093D01*
X57977Y290990D02*
X66418D01*
X57507Y291460D02*
X57977Y290990D01*
D171*
X111152Y43999D02*
X121400Y54248D01*
X102287Y43999D02*
X111152D01*
X121400Y54248D02*
X134867D01*
X98814Y40527D02*
X102287Y43999D01*
X92583Y40527D02*
X98814D01*
X8124Y87420D02*
X8462Y87757D01*
Y94276D01*
X8124Y49431D02*
X8237Y49319D01*
Y42688D02*
Y49319D01*
X134867Y54248D02*
X148587Y67968D01*
Y90213D01*
X121223Y101709D02*
X124785D01*
X124966Y101890D01*
X136910D01*
X148587Y90213D01*
X103026Y92634D02*
Y101709D01*
Y92634D02*
X109103Y86558D01*
X128000D01*
X130929Y78146D02*
Y83629D01*
X128000Y86558D02*
X130929Y83629D01*
Y78146D02*
X132685Y76390D01*
D172*
X97247Y55026D02*
X97473Y55251D01*
X96454Y55026D02*
X97247D01*
X47557Y82090D02*
X60567D01*
X47354Y82292D02*
X47557Y82090D01*
X46470Y68688D02*
X60567D01*
X46034Y69123D02*
X46470Y68688D01*
D173*
X182647Y142689D02*
X182804Y142532D01*
X182647Y142689D02*
Y150993D01*
X155260Y159111D02*
X170358D01*
X162028Y151573D02*
X163497Y153042D01*
X167831D01*
X168215Y152658D01*
X169737D02*
Y154380D01*
X168215Y152658D02*
X169737D01*
Y150958D02*
Y152658D01*
X169744Y154386D02*
X170358D01*
X204699Y183777D02*
X206029Y185108D01*
X204133Y181789D02*
X204699Y182355D01*
X206029Y185108D02*
Y185405D01*
X204699Y182355D02*
Y183777D01*
X209127Y187555D02*
X211414Y189841D01*
X201462Y188709D02*
X202617Y187555D01*
X209127D01*
X235659Y231766D02*
Y231787D01*
X231029Y236417D02*
X235659Y231787D01*
Y231766D02*
X236384Y231041D01*
X238530D01*
X228062Y230878D02*
Y240451D01*
Y230878D02*
X228173Y230767D01*
X222588Y227044D02*
X225043Y229498D01*
X224574Y238677D02*
X225043Y238208D01*
X222677Y238677D02*
X224574D01*
X225043Y229498D02*
Y238208D01*
X230788Y231846D02*
X233168Y229466D01*
X238530D01*
X230788Y231846D02*
Y232144D01*
X57740Y256946D02*
X60749D01*
X55434Y254640D02*
X57740Y256946D01*
X130887Y284940D02*
Y290977D01*
Y284223D02*
Y284940D01*
X99457Y276138D02*
X109422D01*
X99436Y276159D02*
X99457Y276138D01*
X109422D02*
X109442Y276117D01*
X124216Y276034D02*
X124641D01*
X125652Y277045D01*
Y279705D01*
X130887Y284940D01*
X127425Y271907D02*
X131465Y267868D01*
X127425Y271907D02*
Y275024D01*
X128228Y275827D01*
Y279241D01*
X130887Y284223D02*
X130972Y284138D01*
X129452Y292412D02*
X130887Y290977D01*
X115227Y291525D02*
X116114Y292412D01*
X129452D01*
X201028Y256980D02*
Y267410D01*
X201088Y267470D01*
X203307Y272081D02*
X205824Y274598D01*
X203307Y266840D02*
Y272081D01*
X202528Y256359D02*
Y260658D01*
X205824Y263954D02*
Y272229D01*
X202528Y260658D02*
X204573Y262703D01*
X204573D01*
X205824Y263954D01*
X207324Y261992D02*
Y271161D01*
X207191Y261858D02*
X207324Y261992D01*
X185382Y297783D02*
X192500D01*
X194682Y283756D02*
Y295601D01*
X192500Y297783D02*
X194682Y295601D01*
X184125Y296525D02*
X185382Y297783D01*
X115227Y296525D02*
X115366Y296664D01*
X120123D01*
X183912Y207354D02*
X187812Y203454D01*
X194796D02*
X197723Y206380D01*
X187812Y203454D02*
X194796D01*
X153788Y207354D02*
X183912D01*
X196810Y280745D02*
X198879Y278676D01*
X196810Y280745D02*
Y297802D01*
X123848Y184385D02*
X126073Y186610D01*
X124214Y184897D02*
X126293Y186976D01*
X94023Y198099D02*
X113217D01*
X127024Y211906D02*
Y258472D01*
X113217Y198099D02*
X127024Y211906D01*
X114217Y190377D02*
X116340Y192501D01*
X108547Y190377D02*
X114217D01*
X115565Y188877D02*
X132665Y205977D01*
X107926Y188877D02*
X115565D01*
X105924Y190879D02*
X107926Y188877D01*
X106546Y192379D02*
X108547Y190377D01*
X101882Y190879D02*
X105924D01*
X100822Y192379D02*
X106546D01*
X132665Y205977D02*
X152411D01*
X98315Y189871D02*
X100822Y192379D01*
X116143Y192267D02*
X134466Y210589D01*
X90638Y194714D02*
X94023Y198099D01*
X100874Y189871D02*
X101882Y190879D01*
X123848Y181810D02*
Y184385D01*
Y181810D02*
X124023Y181634D01*
X123848Y181314D02*
Y181789D01*
X90638Y183505D02*
X93095Y181048D01*
X122830D01*
X123638Y181104D02*
X123848Y181314D01*
X122885Y181104D02*
X123638D01*
X122830Y181048D02*
X122885Y181104D01*
X100813Y189318D02*
X100874Y189379D01*
Y189871D01*
X98315Y187095D02*
Y189871D01*
X134466Y210589D02*
X153510D01*
X175323Y218010D02*
Y238663D01*
X178185Y241525D01*
X174300Y216988D02*
X175323Y218010D01*
X141723Y243409D02*
Y253236D01*
Y243409D02*
X160280Y224851D01*
X164278D01*
X158867Y151573D02*
X162028D01*
X147120Y154880D02*
X160242D01*
X162898Y157536D01*
X134968Y169153D02*
X146586Y157536D01*
X134968Y169153D02*
Y171607D01*
X129951Y172049D02*
X147120Y154880D01*
X146586Y157536D02*
X153841D01*
X155260Y158955D01*
X91025Y178789D02*
X129648D01*
X87672Y182143D02*
X91025Y178789D01*
X87672Y182143D02*
Y186688D01*
X162898Y157536D02*
X170358D01*
X76057Y201245D02*
Y204749D01*
X73504Y207301D02*
X76057Y204749D01*
X70746Y207301D02*
X73504D01*
X76057Y201245D02*
X78909Y198393D01*
X81544D02*
X81591Y198346D01*
X78909Y198393D02*
X81544D01*
X87478Y198346D02*
X89627Y196197D01*
X81591Y198346D02*
X87478D01*
X120020Y265154D02*
X122087Y263086D01*
X115227Y256525D02*
X115471Y256282D01*
X119137D02*
X120157Y255262D01*
X115471Y256282D02*
X119137D01*
X180080Y181789D02*
X204133D01*
X177364Y184505D02*
X180080Y181789D01*
X211414Y189841D02*
Y204370D01*
X208514Y207270D02*
X211414Y204370D01*
X228173Y227821D02*
Y230767D01*
X204104Y244037D02*
X217317D01*
X222677Y238677D01*
X216577Y242537D02*
X222588Y236525D01*
X203483Y242537D02*
X216577D01*
X202862Y241037D02*
X214232D01*
X222588Y232681D01*
X174300Y216988D02*
Y216988D01*
X173416Y216104D02*
X174300Y216988D01*
X173416Y215904D02*
Y216104D01*
X189807Y146437D02*
X196935D01*
X197723Y147224D02*
Y147520D01*
X196935Y146437D02*
X197723Y147224D01*
X199094Y291525D02*
X201028Y289591D01*
X197330Y271632D02*
X201028Y275330D01*
Y289591D01*
X205824Y274598D02*
Y293451D01*
X203633Y275162D02*
Y284252D01*
X201088Y272617D02*
X203633Y275162D01*
X201088Y267642D02*
Y272617D01*
X208261Y274666D02*
Y287705D01*
X205824Y272229D02*
X208261Y274666D01*
X208377Y296004D02*
X209403D01*
X205824Y293451D02*
X208377Y296004D01*
X210717Y266306D02*
X211387Y266977D01*
X207324Y271161D02*
X208514Y272350D01*
X210693Y266977D02*
X211387D01*
X208514Y272350D02*
X211387D01*
X210482Y266766D02*
X210693Y266977D01*
X211387Y272350D02*
X215580D01*
X211387D02*
Y275974D01*
X213014Y277601D01*
Y282498D01*
X217317Y284252D02*
X219514D01*
X222067Y286805D02*
Y288587D01*
X219514Y284252D02*
X222067Y286805D01*
X184812Y287212D02*
X187809D01*
X190357Y289760D02*
Y289760D01*
X184125Y286525D02*
X184812Y287212D01*
X187809D02*
X190357Y289760D01*
X188265Y292897D02*
X190357Y294989D01*
X184125Y291525D02*
X185496Y292897D01*
X188265D01*
X197330Y271632D02*
X197330D01*
X195054Y270002D02*
X195700D01*
X194844Y269791D02*
X195054Y270002D01*
X195700D02*
X197330Y271632D01*
X196810Y297802D02*
X201536Y302528D01*
X208967Y194025D02*
X209265D01*
X205824Y191340D02*
X206282D01*
X208967Y194025D01*
X177364Y184505D02*
Y197010D01*
X154604Y209495D02*
X201633D01*
X153510Y210589D02*
X154604Y209495D01*
X152411Y205977D02*
X153788Y207354D01*
X178185Y241525D02*
X184125D01*
X201462Y188709D02*
Y190702D01*
X200824Y191340D02*
X201462Y190702D01*
X208514Y207270D02*
Y227563D01*
X222588Y226940D02*
Y227044D01*
X197723Y237146D02*
X200718Y240141D01*
X201501Y242397D02*
X202862Y241037D01*
X199094Y246926D02*
X203483Y242537D01*
X200594Y247547D02*
X204104Y244037D01*
X199391Y242397D02*
X201501D01*
X204611Y212472D02*
Y235054D01*
X199094Y255046D02*
X201028Y256980D01*
X199094Y246926D02*
Y255046D01*
X200594Y247547D02*
Y254424D01*
X202528Y256359D01*
X197594Y244194D02*
Y255667D01*
Y244194D02*
X199391Y242397D01*
X197594Y255667D02*
X198879Y256952D01*
Y263086D01*
X202859Y251652D02*
Y254568D01*
X207101Y258810D01*
X210379D01*
X210717Y258472D01*
X201088Y267470D02*
Y267642D01*
X191766D02*
X201088D01*
X194641Y283715D02*
X194682Y283756D01*
X196546Y281691D02*
X196790Y281935D01*
X201536Y302734D02*
X204088Y305287D01*
X201536Y302528D02*
Y302734D01*
X196380Y281525D02*
X196546Y281691D01*
X190695Y219399D02*
X195352Y224056D01*
Y263902D01*
X194682Y264572D02*
X195352Y263902D01*
X194682Y264572D02*
Y264870D01*
X189141Y270267D02*
X191766Y267642D01*
X190695Y262617D02*
X192388Y260924D01*
Y227515D02*
Y260924D01*
X189639Y224766D02*
X192388Y227515D01*
X189141Y270267D02*
Y270267D01*
X187883Y271525D02*
X189141Y270267D01*
X197723Y215803D02*
Y237146D01*
X210717Y258472D02*
Y266306D01*
X211387Y266977D02*
X214202Y269791D01*
X190695Y214765D02*
Y219399D01*
X193193Y198499D02*
Y198691D01*
Y198499D02*
X195352Y196340D01*
X201633Y209495D02*
X204611Y212472D01*
X195352Y196340D02*
X200824D01*
X274823Y176328D02*
Y178007D01*
Y176328D02*
X276089Y175062D01*
X281191D01*
X297319Y174852D02*
X297572Y175105D01*
X287121Y174852D02*
X297319D01*
X164278Y224851D02*
X164488Y224641D01*
X90638Y187095D02*
Y194714D01*
X165358Y189871D02*
X170358D01*
X160358D02*
X165358D01*
X155358D02*
X160358D01*
X154868Y182279D02*
Y189382D01*
X154378Y181789D02*
X154868Y182279D01*
Y189382D02*
X155358Y189871D01*
X166588Y166943D02*
Y170252D01*
X168139Y171804D01*
X168063Y181789D02*
X168139Y181865D01*
X157843Y181789D02*
X168063D01*
X204088Y305287D02*
X209403D01*
X224738Y246587D02*
X224787Y246537D01*
Y242410D02*
Y246537D01*
Y242410D02*
X224837Y242360D01*
X152504Y159762D02*
Y163425D01*
X166119Y166475D02*
X166588Y166943D01*
X154278Y166475D02*
X166119D01*
X124119Y172049D02*
X129951D01*
X155260Y158955D02*
Y163425D01*
X179019Y155961D02*
X179020Y155960D01*
X182680D02*
X182681Y155960D01*
X179020Y155960D02*
X182680D01*
X217551Y230541D02*
Y233111D01*
X184125Y271525D02*
X187883D01*
X236499Y224136D02*
X240961D01*
X242861Y226037D01*
X219222Y211911D02*
X221381Y209752D01*
X224067D01*
X228062Y240451D02*
Y245077D01*
X250971Y233111D02*
Y239411D01*
X242861Y231041D02*
X248901D01*
X250971Y233111D01*
X243078Y226254D02*
X249239D01*
X242861Y226037D02*
X243078Y226254D01*
X228062Y245077D02*
X231025Y248040D01*
X242861Y226037D02*
Y227891D01*
Y232616D02*
X245379D01*
X246548Y233785D01*
X255563Y231219D02*
Y239673D01*
X242861Y229466D02*
X253811D01*
X255563Y231219D01*
X250971Y239411D02*
X251233Y239673D01*
X214202Y269791D02*
X215580D01*
X152504Y168248D02*
X154278Y166475D01*
X152504Y168248D02*
Y171299D01*
X85807Y136489D02*
X88420Y139102D01*
X85512Y136489D02*
X85807D01*
X88420Y139102D02*
Y143122D01*
X90231Y186688D02*
X90638Y186281D01*
Y183505D02*
Y186281D01*
X100467Y186688D02*
X100874Y187095D01*
X97908Y186688D02*
X98315Y187095D01*
X116599Y265154D02*
X120020D01*
X115227Y266525D02*
X116599Y265154D01*
X169737Y154380D02*
X169744Y154386D01*
X7119Y197828D02*
X14310D01*
X14634Y198152D01*
X184125Y281525D02*
X196380D01*
X181791Y153811D02*
X189127D01*
X170358Y160685D02*
Y164981D01*
X169439Y165901D02*
X170358Y164981D01*
X179019Y154386D02*
X179025Y154380D01*
X181221D02*
X181791Y153811D01*
X179025Y154380D02*
X181221D01*
X189127Y153811D02*
X189807Y153130D01*
X59863Y257999D02*
X60332Y257530D01*
X60361D02*
X60749Y257143D01*
X59863Y257999D02*
Y264041D01*
X60332Y257530D02*
X60361D01*
X60749Y256946D02*
Y257143D01*
X52128Y254640D02*
X55434D01*
X60749Y251437D02*
Y256946D01*
Y251437D02*
X62227Y249959D01*
D174*
X283984Y150690D02*
Y176901D01*
Y150690D02*
X284646Y150029D01*
X299051Y178149D02*
X300595Y179693D01*
X285232Y178149D02*
X299051D01*
X300595Y179693D02*
Y179779D01*
X302428Y181611D01*
Y181800D01*
X283984Y176901D02*
X285232Y178149D01*
X337435Y184763D02*
X342304Y189632D01*
X313891Y184763D02*
X337435D01*
X342304Y189632D02*
Y203780D01*
X355029Y216505D01*
Y239673D01*
D175*
X333768Y243885D02*
Y244235D01*
Y243172D02*
Y243885D01*
X334847Y244268D02*
Y249023D01*
Y243918D02*
Y244268D01*
X333801D02*
X334847D01*
X333768Y244235D02*
X333801Y244268D01*
X334847Y243172D02*
Y243918D01*
X335406D01*
X333801D02*
X334847D01*
X333768Y243885D02*
X333801Y243918D01*
X354881Y252297D02*
Y254090D01*
X351697Y257275D02*
X354881Y254090D01*
X343210Y257275D02*
X351697D01*
X341634Y255700D02*
X343210Y257275D01*
X341634Y252993D02*
Y255700D01*
X340263Y251621D02*
X341634Y252993D01*
X333768Y243172D02*
X334847D01*
Y249023D02*
X337519Y251694D01*
X339494D01*
X75254Y129725D02*
Y133247D01*
X87672Y161806D02*
X88420Y161058D01*
X87672Y161806D02*
Y164090D01*
X88420Y149815D02*
Y161058D01*
X166588Y149002D02*
X167280Y148310D01*
X173533D01*
X166588Y149002D02*
Y150958D01*
X173533Y148310D02*
X174557Y149334D01*
D176*
X84633Y209843D02*
Y218794D01*
X147480Y151573D02*
X157478D01*
X134968Y155376D02*
X143677D01*
X147480Y151573D01*
X84633Y206410D02*
X86284Y204759D01*
X84633Y206410D02*
Y209843D01*
X84652Y196197D02*
X85113Y195737D01*
Y186688D02*
Y195737D01*
Y186688D02*
X85113Y186688D01*
X85380Y210589D02*
X94773D01*
X84633Y209843D02*
X85380Y210589D01*
X314225Y239673D02*
Y245912D01*
D177*
X85519Y63396D02*
X88420D01*
X89682Y62133D01*
X73858Y61987D02*
X84111D01*
X60567D02*
X73858D01*
X72165Y55287D02*
X72214Y55238D01*
X77337D02*
X77609Y54967D01*
X72214Y55238D02*
X77337D01*
X84111Y61987D02*
X85519Y63396D01*
X60567Y55287D02*
X72165D01*
X121606Y123186D02*
X122986D01*
X123761Y123961D01*
X121606Y118186D02*
Y123186D01*
X121484Y128308D02*
X121606Y128186D01*
Y113186D02*
Y118186D01*
Y123186D02*
Y128186D01*
D178*
X325066Y72331D02*
D03*
D179*
X75381D02*
D03*
X292704Y9339D02*
D03*
D180*
X358426Y174964D02*
D03*
Y154964D02*
D03*
X359331Y65904D02*
D03*
Y85904D02*
D03*
Y105904D02*
D03*
Y125904D02*
D03*
X362732Y39615D02*
D03*
Y19615D02*
D03*
X173341Y13207D02*
D03*
X153341D02*
D03*
D181*
X179737Y126072D02*
D03*
X169737D02*
D03*
D182*
X159737D02*
D03*
D183*
X111087Y28716D02*
D03*
D184*
X92583Y16905D02*
D03*
D185*
Y40527D02*
D03*
D186*
X17109Y248160D02*
D03*
D187*
Y238160D02*
D03*
Y228160D02*
D03*
D188*
X200824Y201340D02*
D03*
D189*
X205824D02*
D03*
X200824Y196340D02*
D03*
X205824D02*
D03*
X200824Y191340D02*
D03*
X205824D02*
D03*
D190*
X170358Y194871D02*
D03*
Y189871D02*
D03*
X165358Y194871D02*
D03*
Y189871D02*
D03*
X160358Y194871D02*
D03*
Y189871D02*
D03*
X155358Y194871D02*
D03*
Y189871D02*
D03*
X150358Y194871D02*
D03*
Y189871D02*
D03*
D191*
X110724Y235565D02*
D03*
X321621Y43434D02*
D03*
X108239Y70062D02*
D03*
X103790D02*
D03*
X52115Y75578D02*
D03*
X144682Y179021D02*
D03*
X144486Y173291D02*
D03*
X242478Y247540D02*
D03*
X192062Y97597D02*
D03*
X205263D02*
D03*
X80964Y201451D02*
D03*
X85113Y285392D02*
D03*
X212439Y178940D02*
D03*
X206029Y185405D02*
D03*
X200929Y184729D02*
D03*
X302428Y181800D02*
D03*
X230788Y232144D02*
D03*
X231029Y236417D02*
D03*
X100662Y281732D02*
D03*
X97791Y291062D02*
D03*
X79048Y290893D02*
D03*
X64653Y260836D02*
D03*
X42362Y256362D02*
D03*
X38269Y246356D02*
D03*
X38352Y241080D02*
D03*
X99436Y276159D02*
D03*
X109442Y276117D02*
D03*
X124216Y276034D02*
D03*
X128228Y279241D02*
D03*
X337738Y271611D02*
D03*
X203307Y266840D02*
D03*
X207191Y261858D02*
D03*
X120123Y296664D02*
D03*
X119742Y301180D02*
D03*
X141947Y165419D02*
D03*
X204532Y111622D02*
D03*
X137197Y202197D02*
D03*
X111694Y194769D02*
D03*
X132599Y200769D02*
D03*
X127757Y196196D02*
D03*
X343172Y261299D02*
D03*
X331280Y247286D02*
D03*
Y230235D02*
D03*
X127024Y258472D02*
D03*
X152504Y154880D02*
D03*
X137927Y158557D02*
D03*
X99305Y169153D02*
D03*
X88849Y168591D02*
D03*
X85807Y168767D02*
D03*
X93676Y169153D02*
D03*
X192830Y122374D02*
D03*
X192673Y111610D02*
D03*
X142804Y131391D02*
D03*
X134968Y141392D02*
D03*
X128000Y140117D02*
D03*
X132366Y151739D02*
D03*
X131750Y158853D02*
D03*
X78206Y193758D02*
D03*
X86284Y204759D02*
D03*
X84652Y196197D02*
D03*
X106387Y165786D02*
D03*
Y162794D02*
D03*
Y168624D02*
D03*
X105694Y203121D02*
D03*
X122087Y263086D02*
D03*
X134288Y237400D02*
D03*
Y244037D02*
D03*
X141723Y253236D02*
D03*
X121432Y220282D02*
D03*
X205047Y170357D02*
D03*
X214839Y182919D02*
D03*
X219964Y164879D02*
D03*
X221381Y169385D02*
D03*
X212369Y143978D02*
D03*
X206856Y133715D02*
D03*
X208852Y108147D02*
D03*
X216888Y189382D02*
D03*
X214232Y217778D02*
D03*
X220256Y223890D02*
D03*
X228173Y227821D02*
D03*
X222588Y236525D02*
D03*
X219230Y247555D02*
D03*
X223523Y302290D02*
D03*
X194213Y301790D02*
D03*
X185203Y145443D02*
D03*
X224340Y112008D02*
D03*
X175762Y87802D02*
D03*
X175956Y84394D02*
D03*
X169905Y64022D02*
D03*
Y60883D02*
D03*
X172660D02*
D03*
X172729Y64022D02*
D03*
X155716Y36248D02*
D03*
X183685Y184505D02*
D03*
X238530Y311720D02*
D03*
X252243Y315636D02*
D03*
X90024Y85956D02*
D03*
Y82992D02*
D03*
X98325Y70118D02*
D03*
X98237Y72997D02*
D03*
X98137Y76043D02*
D03*
X97819Y78997D02*
D03*
X93676Y82992D02*
D03*
X93741Y86221D02*
D03*
X93676Y90367D02*
D03*
X237059Y244239D02*
D03*
X211820Y247547D02*
D03*
X198879Y278676D02*
D03*
X203633Y284252D02*
D03*
X210482Y266766D02*
D03*
X208261Y287705D02*
D03*
X217317Y277712D02*
D03*
Y284252D02*
D03*
X199094Y291525D02*
D03*
X190357Y289760D02*
D03*
Y294989D02*
D03*
X209265Y194025D02*
D03*
X183991Y173167D02*
D03*
X177364Y197010D02*
D03*
X173416Y215904D02*
D03*
X180698Y199997D02*
D03*
X173533Y199696D02*
D03*
X179695Y229902D02*
D03*
X209265Y199997D02*
D03*
X208514Y227563D02*
D03*
X222588Y226940D02*
D03*
X209367Y237400D02*
D03*
X200718Y240141D02*
D03*
X204611Y235054D02*
D03*
X202859Y251652D02*
D03*
X194641Y283715D02*
D03*
X198879Y263086D02*
D03*
X208514Y291525D02*
D03*
X194844Y269791D02*
D03*
X194682Y264870D02*
D03*
X190695Y262617D02*
D03*
Y214765D02*
D03*
X193193Y198691D02*
D03*
X274823Y189382D02*
D03*
Y178007D02*
D03*
X281191Y175062D02*
D03*
X287121Y174852D02*
D03*
X309894Y189432D02*
D03*
X42114Y215949D02*
D03*
X85280Y245290D02*
D03*
X89128Y256282D02*
D03*
X91239Y279292D02*
D03*
X136538Y218794D02*
D03*
X133670Y225747D02*
D03*
X136794Y208440D02*
D03*
X153510Y199997D02*
D03*
X156111Y203615D02*
D03*
X167280Y199997D02*
D03*
X171360Y229474D02*
D03*
X164488Y224641D02*
D03*
X159737Y218794D02*
D03*
X156111Y213131D02*
D03*
X159737Y199997D02*
D03*
X104161Y231013D02*
D03*
X102653Y218794D02*
D03*
X102376Y209551D02*
D03*
X111468Y206380D02*
D03*
X115858Y208943D02*
D03*
X149282Y208126D02*
D03*
X168139Y171804D02*
D03*
Y181865D02*
D03*
X176556D02*
D03*
X42022Y207301D02*
D03*
X120157Y255262D02*
D03*
X189639Y224766D02*
D03*
X197723Y206380D02*
D03*
Y215803D02*
D03*
X224837Y242360D02*
D03*
X152504Y159762D02*
D03*
X168814Y215904D02*
D03*
X174768Y172223D02*
D03*
X164438Y168767D02*
D03*
X166588Y155387D02*
D03*
X158303Y168624D02*
D03*
X138433Y149334D02*
D03*
X124119Y172049D02*
D03*
X134968Y171607D02*
D03*
X163294Y215803D02*
D03*
X177313Y215904D02*
D03*
X215313Y236525D02*
D03*
X217551Y233111D02*
D03*
X222588Y232681D02*
D03*
X236499Y224136D02*
D03*
X256826Y225903D02*
D03*
X267328Y224766D02*
D03*
X263247D02*
D03*
X259541D02*
D03*
X246548Y233785D02*
D03*
X226330Y269791D02*
D03*
X235954Y145896D02*
D03*
X227437Y145443D02*
D03*
X324931Y212714D02*
D03*
X318957Y196027D02*
D03*
X295221Y181322D02*
D03*
X269719D02*
D03*
X245760D02*
D03*
X313891Y184763D02*
D03*
X355029Y239673D02*
D03*
X354902Y252205D02*
D03*
X254614Y198655D02*
D03*
X265568Y192607D02*
D03*
X308478Y49284D02*
D03*
X291561Y49294D02*
D03*
X323793Y21679D02*
D03*
X271042Y51504D02*
D03*
X260127Y50951D02*
D03*
X263952Y88713D02*
D03*
X264595Y76905D02*
D03*
X212548Y64022D02*
D03*
X219222Y56345D02*
D03*
X210550Y59475D02*
D03*
X144446Y146437D02*
D03*
X164488Y133715D02*
D03*
X164438Y143978D02*
D03*
X169905Y131781D02*
D03*
X170352Y142466D02*
D03*
X336469Y81606D02*
D03*
X328661Y81499D02*
D03*
X321621Y81343D02*
D03*
X309930Y81073D02*
D03*
X62484Y87572D02*
D03*
X73858Y61987D02*
D03*
X72214Y83629D02*
D03*
X129648Y178789D02*
D03*
X123848Y181314D02*
D03*
X79149Y246689D02*
D03*
X99292Y218996D02*
D03*
X75254Y129725D02*
D03*
X115227Y172223D02*
D03*
X115172Y184739D02*
D03*
X70389Y120085D02*
D03*
X78506Y90010D02*
D03*
X72165Y89935D02*
D03*
X136276Y129725D02*
D03*
X221571Y118316D02*
D03*
X193193Y117797D02*
D03*
X270082Y111825D02*
D03*
X276385Y91947D02*
D03*
X323764Y33434D02*
D03*
X368749Y114605D02*
D03*
X359601Y114371D02*
D03*
X339827Y120512D02*
D03*
X330633Y123871D02*
D03*
X336788Y137120D02*
D03*
X345412Y137321D02*
D03*
X314375Y126620D02*
D03*
X268555Y133151D02*
D03*
X266786Y125835D02*
D03*
X97908Y152047D02*
D03*
X97675Y143043D02*
D03*
X224836Y56035D02*
D03*
X260997Y56030D02*
D03*
X269535D02*
D03*
X314375Y88401D02*
D03*
X323918Y87640D02*
D03*
X291561Y56035D02*
D03*
X307534Y55606D02*
D03*
X314696Y114371D02*
D03*
X5305Y158206D02*
D03*
X85113Y276525D02*
D03*
X85280Y260462D02*
D03*
X231025Y248040D02*
D03*
Y254826D02*
D03*
D192*
X20630Y35641D02*
D03*
X41559Y36665D02*
D03*
X30297Y53486D02*
D03*
X32339Y36080D02*
D03*
X42157Y46672D02*
D03*
X14756Y96075D02*
D03*
X23185D02*
D03*
X29735Y83833D02*
D03*
X29848Y77651D02*
D03*
X29847Y71582D02*
D03*
Y65512D02*
D03*
X30072Y59668D02*
D03*
X20406Y53599D02*
D03*
X20294Y59780D02*
D03*
X20631Y65625D02*
D03*
X20182Y71357D02*
D03*
X19844Y77652D02*
D03*
X20294Y83945D02*
D03*
X9729Y84057D02*
D03*
X10291Y78213D02*
D03*
X9954Y71694D02*
D03*
X9954Y65737D02*
D03*
Y59443D02*
D03*
Y53486D02*
D03*
X32022Y95621D02*
D03*
X26648Y101273D02*
D03*
X18516Y100997D02*
D03*
X10108D02*
D03*
X42774Y83629D02*
D03*
X101174Y26683D02*
D03*
X92905Y26269D02*
D03*
X83532Y26820D02*
D03*
X112891Y13174D02*
D03*
X107653Y6421D02*
D03*
X96213D02*
D03*
X85875Y6145D02*
D03*
X75537D02*
D03*
Y15931D02*
D03*
X74710Y26820D02*
D03*
X65475Y26682D02*
D03*
X66302Y15242D02*
D03*
X66164Y5731D02*
D03*
X10970Y35933D02*
D03*
X19966Y25834D02*
D03*
X31089Y25102D02*
D03*
X10530Y25834D02*
D03*
X42428D02*
D03*
X55826Y5731D02*
D03*
X55454Y26273D02*
D03*
X54948Y15098D02*
D03*
X43876Y4801D02*
D03*
X31142Y15632D02*
D03*
X76112Y153276D02*
D03*
X66313D02*
D03*
X55238Y188206D02*
D03*
X42561Y75389D02*
D03*
X42359Y66450D02*
D03*
X42561Y56965D02*
D03*
X43093Y15098D02*
D03*
X19433D02*
D03*
X10402D02*
D03*
X30502Y4292D02*
D03*
X20311D02*
D03*
X9665D02*
D03*
D193*
X18308Y299765D02*
D03*
X18196Y291504D02*
D03*
X18140Y282400D02*
D03*
X18196Y274251D02*
D03*
X263550Y299002D02*
D03*
X270360Y298932D02*
D03*
X310302Y265507D02*
D03*
X310579Y272317D02*
D03*
X303771Y272316D02*
D03*
X310371Y279055D02*
D03*
X303632Y278847D02*
D03*
X303700Y285726D02*
D03*
X310579Y285518D02*
D03*
X250363Y265438D02*
D03*
X257104Y272246D02*
D03*
X250295Y272455D02*
D03*
X256895Y279125D02*
D03*
X250434Y278777D02*
D03*
X257104Y285656D02*
D03*
X271555Y284127D02*
D03*
X250434Y285586D02*
D03*
X38548Y274869D02*
D03*
X336703Y267509D02*
D03*
X328072Y278223D02*
D03*
X219964Y195844D02*
D03*
X289068Y304942D02*
D03*
X220256Y209495D02*
D03*
Y214141D02*
D03*
X232812Y194173D02*
D03*
X228275Y194032D02*
D03*
X223331Y194050D02*
D03*
X220256Y200919D02*
D03*
X220525Y205860D02*
D03*
X220256Y217778D02*
D03*
X275683Y304942D02*
D03*
X282376D02*
D03*
X331897Y267509D02*
D03*
X327963Y270465D02*
D03*
X317320Y264753D02*
D03*
X317407Y270178D02*
D03*
X257367Y317946D02*
D03*
X291890Y284127D02*
D03*
X285400Y284468D02*
D03*
X278033D02*
D03*
X271905Y277712D02*
D03*
X278320D02*
D03*
X285160D02*
D03*
X291801D02*
D03*
X319327Y317826D02*
D03*
X328004D02*
D03*
X269539Y252764D02*
D03*
X264137D02*
D03*
X259417Y253076D02*
D03*
X254643Y253477D02*
D03*
X250445Y253076D02*
D03*
X246114D02*
D03*
X246143Y257130D02*
D03*
X246114Y262218D02*
D03*
Y267090D02*
D03*
Y272208D02*
D03*
X334055Y306711D02*
D03*
X340272D02*
D03*
X347536D02*
D03*
X353850D02*
D03*
X317359Y253869D02*
D03*
X317231Y258651D02*
D03*
X310402Y258509D02*
D03*
Y253869D02*
D03*
Y246957D02*
D03*
X23757Y282746D02*
D03*
X24097Y274869D02*
D03*
Y291460D02*
D03*
Y299869D02*
D03*
X24639Y308660D02*
D03*
X31022Y282746D02*
D03*
X31361Y299869D02*
D03*
Y291460D02*
D03*
Y274869D02*
D03*
X31904Y308660D02*
D03*
X38208Y282746D02*
D03*
X38548Y299869D02*
D03*
Y291460D02*
D03*
X39090Y308660D02*
D03*
X46193Y274869D02*
D03*
X53016D02*
D03*
X45854Y282746D02*
D03*
X52677D02*
D03*
X46193Y291460D02*
D03*
X53016D02*
D03*
X46193Y299869D02*
D03*
X53016D02*
D03*
X46736Y308660D02*
D03*
X53558D02*
D03*
X317495Y275635D02*
D03*
X333598Y311274D02*
D03*
X340239D02*
D03*
X347079D02*
D03*
X353494D02*
D03*
X333937Y316972D02*
D03*
X340577D02*
D03*
X347417D02*
D03*
X353832D02*
D03*
X245760Y277712D02*
D03*
X262480Y317946D02*
D03*
X251876Y303378D02*
D03*
X245760Y284127D02*
D03*
Y290967D02*
D03*
X245462Y303378D02*
D03*
X258717D02*
D03*
X245760Y297608D02*
D03*
X271555Y271759D02*
D03*
X283984Y246957D02*
D03*
X290399D02*
D03*
X277970Y271759D02*
D03*
X346387Y216374D02*
D03*
Y220137D02*
D03*
Y224237D02*
D03*
X304663Y246957D02*
D03*
X317918D02*
D03*
X298022D02*
D03*
X291451Y271759D02*
D03*
X282376Y317946D02*
D03*
X275960D02*
D03*
X265357Y303378D02*
D03*
X291114Y317946D02*
D03*
X284810Y271759D02*
D03*
X297754Y317946D02*
D03*
X269120D02*
D03*
X304594D02*
D03*
X311009D02*
D03*
X317495Y295531D02*
D03*
Y289116D02*
D03*
Y282276D02*
D03*
D194*
X171209Y248054D02*
D03*
X179664Y266494D02*
D03*
X104204Y289016D02*
D03*
X120168Y306799D02*
D03*
X133742Y306726D02*
D03*
X121586Y280527D02*
D03*
X121512Y284114D02*
D03*
X105961Y285797D02*
D03*
X110279Y285760D02*
D03*
X136794Y295268D02*
D03*
X126754Y306690D02*
D03*
X212471Y165901D02*
D03*
X189421Y306572D02*
D03*
X108523Y289017D02*
D03*
X123351Y306690D02*
D03*
X130376Y306799D02*
D03*
X168691Y288203D02*
D03*
X163015Y287862D02*
D03*
X158413D02*
D03*
X153662D02*
D03*
X148529Y288203D02*
D03*
X142862D02*
D03*
X137164D02*
D03*
X167482Y270159D02*
D03*
X168383Y276131D02*
D03*
X168075Y281328D02*
D03*
X163015Y270424D02*
D03*
Y276131D02*
D03*
X162810Y281328D02*
D03*
X158413Y270424D02*
D03*
Y275907D02*
D03*
Y281328D02*
D03*
X154282Y270424D02*
D03*
Y275750D02*
D03*
Y281328D02*
D03*
X332512Y160301D02*
D03*
X332530Y165880D02*
D03*
X269027Y160676D02*
D03*
X269281Y158007D02*
D03*
X264340Y157723D02*
D03*
X264297Y164087D02*
D03*
X260205Y158007D02*
D03*
X255309Y157952D02*
D03*
X250029D02*
D03*
X244909Y158007D02*
D03*
X240486Y157845D02*
D03*
X209053Y163231D02*
D03*
X202095Y162794D02*
D03*
X178088Y251563D02*
D03*
X174753Y251076D02*
D03*
X178088Y254133D02*
D03*
X174717Y253924D02*
D03*
X177960Y256728D02*
D03*
X174459D02*
D03*
X171244Y250798D02*
D03*
X171175Y253890D02*
D03*
X171052Y256589D02*
D03*
X179212Y276707D02*
D03*
X65409Y231018D02*
D03*
X46736D02*
D03*
X61257Y238640D02*
D03*
X58533Y235181D02*
D03*
X63867D02*
D03*
X50282Y231018D02*
D03*
X54561D02*
D03*
X58633D02*
D03*
X61917D02*
D03*
X68971Y232671D02*
D03*
Y236333D02*
D03*
X68789Y239956D02*
D03*
X68526Y243485D02*
D03*
X83199Y231525D02*
D03*
X99292Y215904D02*
D03*
X93304Y219983D02*
D03*
X86284Y231525D02*
D03*
X208852Y166025D02*
D03*
X332512Y163072D02*
D03*
X202095Y166044D02*
D03*
X179019Y165901D02*
D03*
X205739Y166025D02*
D03*
X274509Y162489D02*
D03*
X264297Y160591D02*
D03*
X240386Y161845D02*
D03*
X250044Y161646D02*
D03*
X255265D02*
D03*
X244960Y161778D02*
D03*
X259894Y161779D02*
D03*
X143770Y275817D02*
D03*
X149282Y281328D02*
D03*
X138259Y270305D02*
D03*
X149282D02*
D03*
Y275817D02*
D03*
X143770Y270305D02*
D03*
Y281328D02*
D03*
X138259Y275817D02*
D03*
Y281328D02*
D03*
X176882Y306360D02*
D03*
X173004Y306433D02*
D03*
X174766Y266812D02*
D03*
Y270410D02*
D03*
Y274666D02*
D03*
Y279017D02*
D03*
Y283715D02*
D03*
Y288046D02*
D03*
X169091Y295013D02*
D03*
X163106Y295150D02*
D03*
X158177Y295077D02*
D03*
X152467D02*
D03*
X147299D02*
D03*
X142166Y295268D02*
D03*
X168886Y302290D02*
D03*
X163106Y302356D02*
D03*
X157395Y302425D02*
D03*
X152228Y302391D02*
D03*
X147094D02*
D03*
X141723Y302357D02*
D03*
X136929Y302357D02*
D03*
D195*
X75483Y103820D02*
D03*
X65007Y95825D02*
D03*
D196*
X373286Y282413D02*
D03*
X374860Y279264D02*
D03*
X373286Y276114D02*
D03*
X374860Y272964D02*
D03*
X373286Y269815D02*
D03*
X374860Y266665D02*
D03*
X373286Y263516D02*
D03*
X374860Y260366D02*
D03*
X373286Y257216D02*
D03*
X374860Y254067D02*
D03*
X373286Y244618D02*
D03*
X374860Y235169D02*
D03*
X373286Y232019D02*
D03*
X374860Y228870D02*
D03*
X373286Y225720D02*
D03*
X374860Y222571D02*
D03*
X373286Y219421D02*
D03*
X374860Y216271D02*
D03*
X373286Y213122D02*
D03*
X374860Y209972D02*
D03*
X373286Y206823D02*
D03*
X370136Y282413D02*
D03*
X371711Y279264D02*
D03*
X370136Y276114D02*
D03*
X371711Y272964D02*
D03*
X370136Y269815D02*
D03*
X371711Y266665D02*
D03*
X370136Y263516D02*
D03*
X371711Y260366D02*
D03*
X370136Y257216D02*
D03*
X371711Y254067D02*
D03*
X370136Y244618D02*
D03*
X371711Y235169D02*
D03*
X370136Y232019D02*
D03*
X371711Y228870D02*
D03*
X370136Y225720D02*
D03*
X371711Y222571D02*
D03*
X370136Y219421D02*
D03*
X371711Y216271D02*
D03*
X370136Y213122D02*
D03*
X371711Y209972D02*
D03*
X370136Y206823D02*
D03*
X366986Y282413D02*
D03*
X368561Y279264D02*
D03*
X366986Y276114D02*
D03*
X368561Y272964D02*
D03*
X366986Y269815D02*
D03*
X368561Y266665D02*
D03*
X366986Y263516D02*
D03*
X368561Y260366D02*
D03*
X366986Y257216D02*
D03*
X368561Y254067D02*
D03*
Y235169D02*
D03*
X366986Y232019D02*
D03*
X368561Y228870D02*
D03*
X366986Y225720D02*
D03*
X368561Y222571D02*
D03*
X366986Y219421D02*
D03*
X368561Y216271D02*
D03*
X366986Y213122D02*
D03*
X368561Y209972D02*
D03*
X366986Y206823D02*
D03*
X363837Y282413D02*
D03*
X365411Y279264D02*
D03*
X363837Y276114D02*
D03*
X365411Y272964D02*
D03*
X363837Y269815D02*
D03*
X365411Y266665D02*
D03*
X363837Y263516D02*
D03*
X365411Y260366D02*
D03*
X363837Y257216D02*
D03*
X365411Y254067D02*
D03*
X363837Y250917D02*
D03*
Y238319D02*
D03*
X365411Y235169D02*
D03*
X363837Y232019D02*
D03*
X365411Y228870D02*
D03*
X363837Y225720D02*
D03*
X365411Y222571D02*
D03*
X363837Y219421D02*
D03*
X365411Y216271D02*
D03*
X363837Y213122D02*
D03*
X365411Y209972D02*
D03*
X363837Y206823D02*
D03*
X360687Y282413D02*
D03*
X362262Y279264D02*
D03*
X360687Y276114D02*
D03*
X362262Y272964D02*
D03*
X360687Y269815D02*
D03*
X362262Y266665D02*
D03*
X360687Y263516D02*
D03*
X362262Y260366D02*
D03*
X360687Y257216D02*
D03*
X362262Y254067D02*
D03*
X360687Y250917D02*
D03*
X362262Y247767D02*
D03*
Y241468D02*
D03*
X360687Y238319D02*
D03*
X362262Y235169D02*
D03*
X360687Y232019D02*
D03*
X362262Y228870D02*
D03*
X360687Y225720D02*
D03*
X362262Y222571D02*
D03*
X360687Y219421D02*
D03*
X362262Y216271D02*
D03*
X360687Y213122D02*
D03*
X362262Y209972D02*
D03*
X360687Y206823D02*
D03*
X359112Y272964D02*
D03*
X357537Y269815D02*
D03*
X359112Y266665D02*
D03*
X357537Y263516D02*
D03*
X359112Y260366D02*
D03*
X357537Y257216D02*
D03*
X359112Y254067D02*
D03*
X357537Y250917D02*
D03*
X359112Y247767D02*
D03*
Y241468D02*
D03*
X357537Y238319D02*
D03*
X359112Y235169D02*
D03*
X357537Y232019D02*
D03*
X355963Y272964D02*
D03*
X354388Y269815D02*
D03*
X355963Y266665D02*
D03*
X354388Y263516D02*
D03*
X355963Y260366D02*
D03*
X352813Y272964D02*
D03*
X351238Y269815D02*
D03*
X352813Y266665D02*
D03*
X351238Y263516D02*
D03*
X352813Y260366D02*
D03*
X351238Y250917D02*
D03*
Y238319D02*
D03*
X352813Y235169D02*
D03*
X351238Y232019D02*
D03*
X348089Y263516D02*
D03*
X349663Y260366D02*
D03*
Y254067D02*
D03*
X348089Y238319D02*
D03*
X349663Y235169D02*
D03*
X348089Y232019D02*
D03*
X346514Y260366D02*
D03*
X344939Y238319D02*
D03*
X346514Y235169D02*
D03*
X344939Y232019D02*
D03*
X343364Y247767D02*
D03*
X341789Y238319D02*
D03*
X343364Y235169D02*
D03*
X341789Y232019D02*
D03*
X338640Y257216D02*
D03*
X340215Y247767D02*
D03*
Y235169D02*
D03*
X338640Y232019D02*
D03*
X335490Y257216D02*
D03*
X337065Y247767D02*
D03*
Y235169D02*
D03*
X333915Y254067D02*
D03*
X329191Y238319D02*
D03*
X327616Y247767D02*
D03*
X326041Y244618D02*
D03*
X322892D02*
D03*
X319742D02*
D03*
X316593D02*
D03*
X315018Y247767D02*
D03*
X313443Y244618D02*
D03*
X182681Y155960D02*
D03*
X185552Y158557D02*
D03*
X193193Y157707D02*
D03*
X182647Y150993D02*
D03*
D197*
X174688Y157536D02*
D03*
X174557Y159813D02*
D03*
X178181Y161166D02*
D03*
X174557Y154846D02*
D03*
X174676Y152378D02*
D03*
X174768Y150127D02*
D03*
D198*
X325110Y62648D02*
D03*
X7221Y175708D02*
D03*
M02*
